solid obstacle
  facet normal 0.0 0.0 -1.0
      outer loop
          vertex 1.0 1.6 0.01
          vertex 1.4000000000000001 1.8 0.01
          vertex 1.4000000000000001 1.5 0.01
      endloop
  endfacet
  facet normal 0.0 0.0 -1.0
      outer loop
          vertex 1.0 1.6 0.01
          vertex 1.3 1.8 0.01
          vertex 1.4000000000000001 1.8 0.01
      endloop
  endfacet
  facet normal -0.0 0.0 1.0
      outer loop
          vertex 1.0 1.6 1
          vertex 1.4000000000000001 1.5 1
          vertex 1.4000000000000001 1.8 1
      endloop
  endfacet
  facet normal 0.0 0.0 1.0
      outer loop
          vertex 1.0 1.6 1
          vertex 1.4000000000000001 1.8 1
          vertex 1.3 1.8 1
      endloop
  endfacet
  facet normal -0.2425356250363331 -0.9701425001453319 0.0
      outer loop
          vertex 1.0 1.6 0.01
          vertex 1.4000000000000001 1.5 0.01
          vertex 1.4000000000000001 1.5 1
      endloop
  endfacet
  facet normal -0.2425356250363331 -0.9701425001453319 0.0
      outer loop
          vertex 1.0 1.6 0.01
          vertex 1.4000000000000001 1.5 1
          vertex 1.0 1.6 1
      endloop
  endfacet
  facet normal 1.0 0.0 0.0
      outer loop
          vertex 1.4000000000000001 1.5 0.01
          vertex 1.4000000000000001 1.8 0.01
          vertex 1.4000000000000001 1.8 1
      endloop
  endfacet
  facet normal 1.0 0.0 0.0
      outer loop
          vertex 1.4000000000000001 1.5 0.01
          vertex 1.4000000000000001 1.8 1
          vertex 1.4000000000000001 1.5 1
      endloop
  endfacet
  facet normal 0.0 1.0 0.0
      outer loop
          vertex 1.4000000000000001 1.8 0.01
          vertex 1.3 1.8 0.01
          vertex 1.3 1.8 1
      endloop
  endfacet
  facet normal 0.0 1.0 -0.0
      outer loop
          vertex 1.4000000000000001 1.8 0.01
          vertex 1.3 1.8 1
          vertex 1.4000000000000001 1.8 1
      endloop
  endfacet
  facet normal -0.554700196225229 0.8320502943378438 0.0
      outer loop
          vertex 1.3 1.8 0.01
          vertex 1.0 1.6 0.01
          vertex 1.0 1.6 1
      endloop
  endfacet
  facet normal -0.554700196225229 0.8320502943378438 0.0
      outer loop
          vertex 1.3 1.8 0.01
          vertex 1.0 1.6 1
          vertex 1.3 1.8 1
      endloop
  endfacet
endsolid obstacle
