solid obstacle
  facet normal 0.0 0.0 -1.0
      outer loop
          vertex 2.3000000000000003 3.7 0.01
          vertex 2.0 3.4000000000000004 0.01
          vertex 1.0 2.7 0.01
      endloop
  endfacet
  facet normal 0.0 0.0 1.0
      outer loop
          vertex 2.3000000000000003 3.7 1
          vertex 1.0 2.7 1
          vertex 2.0 3.4000000000000004 1
      endloop
  endfacet
  facet normal -0.6097107608496923 0.7926239891046002 0.0
      outer loop
          vertex 2.3000000000000003 3.7 0.01
          vertex 1.0 2.7 0.01
          vertex 1.0 2.7 1
      endloop
  endfacet
  facet normal -0.6097107608496923 0.7926239891046002 0.0
      outer loop
          vertex 2.3000000000000003 3.7 0.01
          vertex 1.0 2.7 1
          vertex 2.3000000000000003 3.7 1
      endloop
  endfacet
  facet normal 0.5734623443633284 -0.8192319205190404 0.0
      outer loop
          vertex 1.0 2.7 0.01
          vertex 2.0 3.4000000000000004 0.01
          vertex 2.0 3.4000000000000004 1
      endloop
  endfacet
  facet normal 0.5734623443633284 -0.8192319205190404 0.0
      outer loop
          vertex 1.0 2.7 0.01
          vertex 2.0 3.4000000000000004 1
          vertex 1.0 2.7 1
      endloop
  endfacet
  facet normal 0.707106781186547 -0.707106781186548 0.0
      outer loop
          vertex 2.0 3.4000000000000004 0.01
          vertex 2.3000000000000003 3.7 0.01
          vertex 2.3000000000000003 3.7 1
      endloop
  endfacet
  facet normal 0.707106781186547 -0.707106781186548 0.0
      outer loop
          vertex 2.0 3.4000000000000004 0.01
          vertex 2.3000000000000003 3.7 1
          vertex 2.0 3.4000000000000004 1
      endloop
  endfacet
endsolid obstacle
