solid obstacle
  facet normal -0.0 0.0 -1.0
      outer loop
          vertex 2.6 3.4000000000000004 0.01
          vertex 2.5 2.5 0.01
          vertex 1.7000000000000002 4.0 0.01
      endloop
  endfacet
  facet normal 0.0 0.0 1.0
      outer loop
          vertex 2.6 3.4000000000000004 1
          vertex 1.7000000000000002 4.0 1
          vertex 2.5 2.5 1
      endloop
  endfacet
  facet normal 0.5547001962252289 0.8320502943378438 0.0
      outer loop
          vertex 2.6 3.4000000000000004 0.01
          vertex 1.7000000000000002 4.0 0.01
          vertex 1.7000000000000002 4.0 1
      endloop
  endfacet
  facet normal 0.5547001962252289 0.8320502943378438 -0.0
      outer loop
          vertex 2.6 3.4000000000000004 0.01
          vertex 1.7000000000000002 4.0 1
          vertex 2.6 3.4000000000000004 1
      endloop
  endfacet
  facet normal -0.8823529411764706 -0.4705882352941176 0.0
      outer loop
          vertex 1.7000000000000002 4.0 0.01
          vertex 2.5 2.5 0.01
          vertex 2.5 2.5 1
      endloop
  endfacet
  facet normal -0.8823529411764706 -0.4705882352941176 0.0
      outer loop
          vertex 1.7000000000000002 4.0 0.01
          vertex 2.5 2.5 1
          vertex 1.7000000000000002 4.0 1
      endloop
  endfacet
  facet normal 0.9938837346736188 -0.11043152607484659 0.0
      outer loop
          vertex 2.5 2.5 0.01
          vertex 2.6 3.4000000000000004 0.01
          vertex 2.6 3.4000000000000004 1
      endloop
  endfacet
  facet normal 0.9938837346736188 -0.11043152607484659 0.0
      outer loop
          vertex 2.5 2.5 0.01
          vertex 2.6 3.4000000000000004 1
          vertex 2.5 2.5 1
      endloop
  endfacet
endsolid obstacle
