solid obstacle
  facet normal 0.0 0.0 -1.0
      outer loop
          vertex 1.5 1.7000000000000002 0.01
          vertex 2.2 2.3000000000000003 0.01
          vertex 2.4000000000000004 0.8 0.01
      endloop
  endfacet
  facet normal -0.0 0.0 1.0
      outer loop
          vertex 1.5 1.7000000000000002 1
          vertex 2.4000000000000004 0.8 1
          vertex 2.2 2.3000000000000003 1
      endloop
  endfacet
  facet normal -0.7071067811865475 -0.7071067811865476 0.0
      outer loop
          vertex 1.5 1.7000000000000002 0.01
          vertex 2.4000000000000004 0.8 0.01
          vertex 2.4000000000000004 0.8 1
      endloop
  endfacet
  facet normal -0.7071067811865475 -0.7071067811865476 0.0
      outer loop
          vertex 1.5 1.7000000000000002 0.01
          vertex 2.4000000000000004 0.8 1
          vertex 1.5 1.7000000000000002 1
      endloop
  endfacet
  facet normal 0.9912279006826347 0.13216372009101807 0.0
      outer loop
          vertex 2.4000000000000004 0.8 0.01
          vertex 2.2 2.3000000000000003 0.01
          vertex 2.2 2.3000000000000003 1
      endloop
  endfacet
  facet normal 0.9912279006826347 0.13216372009101807 -0.0
      outer loop
          vertex 2.4000000000000004 0.8 0.01
          vertex 2.2 2.3000000000000003 1
          vertex 2.4000000000000004 0.8 1
      endloop
  endfacet
  facet normal -0.6507913734559685 0.7592566023652967 0.0
      outer loop
          vertex 2.2 2.3000000000000003 0.01
          vertex 1.5 1.7000000000000002 0.01
          vertex 1.5 1.7000000000000002 1
      endloop
  endfacet
  facet normal -0.6507913734559685 0.7592566023652967 0.0
      outer loop
          vertex 2.2 2.3000000000000003 0.01
          vertex 1.5 1.7000000000000002 1
          vertex 2.2 2.3000000000000003 1
      endloop
  endfacet
endsolid obstacle
