solid obstacle
  facet normal -0.0 0.0 -1.0
      outer loop
          vertex 3.5 3.4000000000000004 0.01
          vertex 3.0 3.0 0.01
          vertex 2.0 4.7 0.01
      endloop
  endfacet
  facet normal 0.0 0.0 1.0
      outer loop
          vertex 3.5 3.4000000000000004 1
          vertex 2.0 4.7 1
          vertex 3.0 3.0 1
      endloop
  endfacet
  facet normal 0.6549305384178419 0.7556890827898176 0.0
      outer loop
          vertex 3.5 3.4000000000000004 0.01
          vertex 2.0 4.7 0.01
          vertex 2.0 4.7 1
      endloop
  endfacet
  facet normal 0.6549305384178419 0.7556890827898176 -0.0
      outer loop
          vertex 3.5 3.4000000000000004 0.01
          vertex 2.0 4.7 1
          vertex 3.5 3.4000000000000004 1
      endloop
  endfacet
  facet normal -0.8619342151577695 -0.5070201265633938 0.0
      outer loop
          vertex 2.0 4.7 0.01
          vertex 3.0 3.0 0.01
          vertex 3.0 3.0 1
      endloop
  endfacet
  facet normal -0.8619342151577695 -0.5070201265633938 0.0
      outer loop
          vertex 2.0 4.7 0.01
          vertex 3.0 3.0 1
          vertex 2.0 4.7 1
      endloop
  endfacet
  facet normal 0.6246950475544245 -0.7808688094430299 0.0
      outer loop
          vertex 3.0 3.0 0.01
          vertex 3.5 3.4000000000000004 0.01
          vertex 3.5 3.4000000000000004 1
      endloop
  endfacet
  facet normal 0.6246950475544245 -0.7808688094430299 0.0
      outer loop
          vertex 3.0 3.0 0.01
          vertex 3.5 3.4000000000000004 1
          vertex 3.0 3.0 1
      endloop
  endfacet
endsolid obstacle
