solid obstacle
  facet normal -0.0 0.0 -1.0
      outer loop
          vertex 0.2 1.0 0.01
          vertex 0.0 0.7000000000000001 0.01
          vertex 0.0 1.0 0.01
      endloop
  endfacet
  facet normal 0.0 0.0 1.0
      outer loop
          vertex 0.2 1.0 1
          vertex 0.0 1.0 1
          vertex 0.0 0.7000000000000001 1
      endloop
  endfacet
  facet normal 0.0 1.0 0.0
      outer loop
          vertex 0.2 1.0 0.01
          vertex 0.0 1.0 0.01
          vertex 0.0 1.0 1
      endloop
  endfacet
  facet normal 0.0 1.0 -0.0
      outer loop
          vertex 0.2 1.0 0.01
          vertex 0.0 1.0 1
          vertex 0.2 1.0 1
      endloop
  endfacet
  facet normal -1.0 0.0 0.0
      outer loop
          vertex 0.0 1.0 0.01
          vertex 0.0 0.7000000000000001 0.01
          vertex 0.0 0.7000000000000001 1
      endloop
  endfacet
  facet normal -1.0 0.0 0.0
      outer loop
          vertex 0.0 1.0 0.01
          vertex 0.0 0.7000000000000001 1
          vertex 0.0 1.0 1
      endloop
  endfacet
  facet normal 0.8320502943378436 -0.5547001962252293 0.0
      outer loop
          vertex 0.0 0.7000000000000001 0.01
          vertex 0.2 1.0 0.01
          vertex 0.2 1.0 1
      endloop
  endfacet
  facet normal 0.8320502943378436 -0.5547001962252293 0.0
      outer loop
          vertex 0.0 0.7000000000000001 0.01
          vertex 0.2 1.0 1
          vertex 0.0 0.7000000000000001 1
      endloop
  endfacet
endsolid obstacle
