solid obstacle
  facet normal 0.0 0.0 -1.0
      outer loop
          vertex 1.0 1.0 0.1
          vertex 1.4000000000000001 2.3000000000000003 0.1
          vertex 2.1 1.8 0.1
      endloop
  endfacet
  facet normal 0.0 0.0 1.0
      outer loop
          vertex 1.0 1.0 1
          vertex 2.1 1.8 1
          vertex 1.4000000000000001 2.3000000000000003 1
      endloop
  endfacet
  facet normal 0.5881716976750462 -0.8087360843031884 0.0
      outer loop
          vertex 1.0 1.0 0.1
          vertex 2.1 1.8 0.1
          vertex 2.1 1.8 1
      endloop
  endfacet
  facet normal 0.5881716976750462 -0.8087360843031884 0.0
      outer loop
          vertex 1.0 1.0 0.1
          vertex 2.1 1.8 1
          vertex 1.0 1.0 1
      endloop
  endfacet
  facet normal 0.5812381937190966 0.8137334712067348 0.0
      outer loop
          vertex 2.1 1.8 0.1
          vertex 1.4000000000000001 2.3000000000000003 0.1
          vertex 1.4000000000000001 2.3000000000000003 1
      endloop
  endfacet
  facet normal 0.5812381937190966 0.8137334712067348 -0.0
      outer loop
          vertex 2.1 1.8 0.1
          vertex 1.4000000000000001 2.3000000000000003 1
          vertex 2.1 1.8 1
      endloop
  endfacet
  facet normal -0.95577900872195 0.29408584883752314 0.0
      outer loop
          vertex 1.4000000000000001 2.3000000000000003 0.1
          vertex 1.0 1.0 0.1
          vertex 1.0 1.0 1
      endloop
  endfacet
  facet normal -0.95577900872195 0.29408584883752314 0.0
      outer loop
          vertex 1.4000000000000001 2.3000000000000003 0.1
          vertex 1.0 1.0 1
          vertex 1.4000000000000001 2.3000000000000003 1
      endloop
  endfacet
endsolid obstacle
