solid obstacle
  facet normal -0.0 0.0 -1.0
      outer loop
          vertex 3.9000000000000004 4.7 0.1
          vertex 3.2 4.2 0.1
          vertex 2.3000000000000003 4.800000000000001 0.1
      endloop
  endfacet
  facet normal 0.0 0.0 1.0
      outer loop
          vertex 3.9000000000000004 4.7 1
          vertex 2.3000000000000003 4.800000000000001 1
          vertex 3.2 4.2 1
      endloop
  endfacet
  facet normal 0.06237828615518086 0.9980525784828884 0.0
      outer loop
          vertex 3.9000000000000004 4.7 0.1
          vertex 2.3000000000000003 4.800000000000001 0.1
          vertex 2.3000000000000003 4.800000000000001 1
      endloop
  endfacet
  facet normal 0.06237828615518086 0.9980525784828884 -0.0
      outer loop
          vertex 3.9000000000000004 4.7 0.1
          vertex 2.3000000000000003 4.800000000000001 1
          vertex 3.9000000000000004 4.7 1
      endloop
  endfacet
  facet normal -0.5547001962252295 -0.8320502943378434 0.0
      outer loop
          vertex 2.3000000000000003 4.800000000000001 0.1
          vertex 3.2 4.2 0.1
          vertex 3.2 4.2 1
      endloop
  endfacet
  facet normal -0.5547001962252295 -0.8320502943378434 0.0
      outer loop
          vertex 2.3000000000000003 4.800000000000001 0.1
          vertex 3.2 4.2 1
          vertex 2.3000000000000003 4.800000000000001 1
      endloop
  endfacet
  facet normal 0.5812381937190962 -0.813733471206735 0.0
      outer loop
          vertex 3.2 4.2 0.1
          vertex 3.9000000000000004 4.7 0.1
          vertex 3.9000000000000004 4.7 1
      endloop
  endfacet
  facet normal 0.5812381937190962 -0.813733471206735 0.0
      outer loop
          vertex 3.2 4.2 0.1
          vertex 3.9000000000000004 4.7 1
          vertex 3.2 4.2 1
      endloop
  endfacet
endsolid obstacle
