solid obstacle
  facet normal 0.0 0.0 -1.0
      outer loop
          vertex 2.6 2.2 0.1
          vertex 2.9000000000000004 2.8000000000000003 0.1
          vertex 4.2 2.9000000000000004 0.1
      endloop
  endfacet
  facet normal 0.0 0.0 1.0
      outer loop
          vertex 2.6 2.2 1
          vertex 4.2 2.9000000000000004 1
          vertex 2.9000000000000004 2.8000000000000003 1
      endloop
  endfacet
  facet normal 0.4008188340197078 -0.9161573349021891 0.0
      outer loop
          vertex 2.6 2.2 0.1
          vertex 4.2 2.9000000000000004 0.1
          vertex 4.2 2.9000000000000004 1
      endloop
  endfacet
  facet normal 0.4008188340197078 -0.9161573349021891 0.0
      outer loop
          vertex 2.6 2.2 0.1
          vertex 4.2 2.9000000000000004 1
          vertex 2.6 2.2 1
      endloop
  endfacet
  facet normal -0.07669649888473712 0.9970544855015816 0.0
      outer loop
          vertex 4.2 2.9000000000000004 0.1
          vertex 2.9000000000000004 2.8000000000000003 0.1
          vertex 2.9000000000000004 2.8000000000000003 1
      endloop
  endfacet
  facet normal -0.07669649888473712 0.9970544855015816 0.0
      outer loop
          vertex 4.2 2.9000000000000004 0.1
          vertex 2.9000000000000004 2.8000000000000003 1
          vertex 4.2 2.9000000000000004 1
      endloop
  endfacet
  facet normal -0.8944271909999157 0.44721359549995815 0.0
      outer loop
          vertex 2.9000000000000004 2.8000000000000003 0.1
          vertex 2.6 2.2 0.1
          vertex 2.6 2.2 1
      endloop
  endfacet
  facet normal -0.8944271909999157 0.44721359549995815 0.0
      outer loop
          vertex 2.9000000000000004 2.8000000000000003 0.1
          vertex 2.6 2.2 1
          vertex 2.9000000000000004 2.8000000000000003 1
      endloop
  endfacet
endsolid obstacle
