solid obstacle
  facet normal 0.0 0.0 -1.0
      outer loop
          vertex 0.5 4.1000000000000005 0.01
          vertex 1.5 4.800000000000001 0.01
          vertex 2.2 3.3000000000000003 0.01
      endloop
  endfacet
  facet normal -0.0 0.0 1.0
      outer loop
          vertex 0.5 4.1000000000000005 1
          vertex 2.2 3.3000000000000003 1
          vertex 1.5 4.800000000000001 1
      endloop
  endfacet
  facet normal -0.4257970363298797 -0.904818702200994 0.0
      outer loop
          vertex 0.5 4.1000000000000005 0.01
          vertex 2.2 3.3000000000000003 0.01
          vertex 2.2 3.3000000000000003 1
      endloop
  endfacet
  facet normal -0.4257970363298797 -0.904818702200994 0.0
      outer loop
          vertex 0.5 4.1000000000000005 0.01
          vertex 2.2 3.3000000000000003 1
          vertex 0.5 4.1000000000000005 1
      endloop
  endfacet
  facet normal 0.9061831399952655 0.4228854653311239 0.0
      outer loop
          vertex 2.2 3.3000000000000003 0.01
          vertex 1.5 4.800000000000001 0.01
          vertex 1.5 4.800000000000001 1
      endloop
  endfacet
  facet normal 0.9061831399952655 0.4228854653311239 -0.0
      outer loop
          vertex 2.2 3.3000000000000003 0.01
          vertex 1.5 4.800000000000001 1
          vertex 2.2 3.3000000000000003 1
      endloop
  endfacet
  facet normal -0.5734623443633284 0.8192319205190404 0.0
      outer loop
          vertex 1.5 4.800000000000001 0.01
          vertex 0.5 4.1000000000000005 0.01
          vertex 0.5 4.1000000000000005 1
      endloop
  endfacet
  facet normal -0.5734623443633284 0.8192319205190404 0.0
      outer loop
          vertex 1.5 4.800000000000001 0.01
          vertex 0.5 4.1000000000000005 1
          vertex 1.5 4.800000000000001 1
      endloop
  endfacet
endsolid obstacle
