solid obstacle
  facet normal -0.0 0.0 -1.0
      outer loop
          vertex 2.0 2.7 0.1
          vertex 1.2000000000000002 2.4000000000000004 0.1
          vertex 1.0 3.6 0.1
      endloop
  endfacet
  facet normal 0.0 0.0 1.0
      outer loop
          vertex 2.0 2.7 1
          vertex 1.0 3.6 1
          vertex 1.2000000000000002 2.4000000000000004 1
      endloop
  endfacet
  facet normal 0.6689647316224497 0.7432941462471664 0.0
      outer loop
          vertex 2.0 2.7 0.1
          vertex 1.0 3.6 0.1
          vertex 1.0 3.6 1
      endloop
  endfacet
  facet normal 0.6689647316224497 0.7432941462471664 -0.0
      outer loop
          vertex 2.0 2.7 0.1
          vertex 1.0 3.6 1
          vertex 2.0 2.7 1
      endloop
  endfacet
  facet normal -0.9863939238321437 -0.16439898730535746 0.0
      outer loop
          vertex 1.0 3.6 0.1
          vertex 1.2000000000000002 2.4000000000000004 0.1
          vertex 1.2000000000000002 2.4000000000000004 1
      endloop
  endfacet
  facet normal -0.9863939238321437 -0.16439898730535746 0.0
      outer loop
          vertex 1.0 3.6 0.1
          vertex 1.2000000000000002 2.4000000000000004 1
          vertex 1.0 3.6 1
      endloop
  endfacet
  facet normal 0.3511234415883916 -0.9363291775690447 0.0
      outer loop
          vertex 1.2000000000000002 2.4000000000000004 0.1
          vertex 2.0 2.7 0.1
          vertex 2.0 2.7 1
      endloop
  endfacet
  facet normal 0.3511234415883916 -0.9363291775690447 0.0
      outer loop
          vertex 1.2000000000000002 2.4000000000000004 0.1
          vertex 2.0 2.7 1
          vertex 1.2000000000000002 2.4000000000000004 1
      endloop
  endfacet
endsolid obstacle
