solid obstacle
  facet normal 0.0 0.0 -1.0
      outer loop
          vertex 4.6000000000000005 3.2 0.01
          vertex 3.7 3.4000000000000004 0.01
          vertex 3.5 4.800000000000001 0.01
      endloop
  endfacet
  facet normal 0.0 0.0 1.0
      outer loop
          vertex 4.6000000000000005 3.2 1
          vertex 3.5 4.800000000000001 1
          vertex 3.7 3.4000000000000004 1
      endloop
  endfacet
  facet normal 0.8240419241993676 0.5665288228870653 0.0
      outer loop
          vertex 4.6000000000000005 3.2 0.01
          vertex 3.5 4.800000000000001 0.01
          vertex 3.5 4.800000000000001 1
      endloop
  endfacet
  facet normal 0.8240419241993676 0.5665288228870653 -0.0
      outer loop
          vertex 4.6000000000000005 3.2 0.01
          vertex 3.5 4.800000000000001 1
          vertex 4.6000000000000005 3.2 1
      endloop
  endfacet
  facet normal -0.9899494936611665 -0.1414213562373096 0.0
      outer loop
          vertex 3.5 4.800000000000001 0.01
          vertex 3.7 3.4000000000000004 0.01
          vertex 3.7 3.4000000000000004 1
      endloop
  endfacet
  facet normal -0.9899494936611665 -0.1414213562373096 0.0
      outer loop
          vertex 3.5 4.800000000000001 0.01
          vertex 3.7 3.4000000000000004 1
          vertex 3.5 4.800000000000001 1
      endloop
  endfacet
  facet normal -0.21693045781865625 -0.9761870601839526 0.0
      outer loop
          vertex 3.7 3.4000000000000004 0.01
          vertex 4.6000000000000005 3.2 0.01
          vertex 4.6000000000000005 3.2 1
      endloop
  endfacet
  facet normal -0.21693045781865625 -0.9761870601839526 0.0
      outer loop
          vertex 3.7 3.4000000000000004 0.01
          vertex 4.6000000000000005 3.2 1
          vertex 3.7 3.4000000000000004 1
      endloop
  endfacet
endsolid obstacle
