solid obstacle
  facet normal -0.0 0.0 -1.0
      outer loop
          vertex 4.800000000000001 3.1 0.1
          vertex 3.2 2.3000000000000003 0.1
          vertex 3.1 3.2 0.1
      endloop
  endfacet
  facet normal 0.0 0.0 -1.0
      outer loop
          vertex 4.800000000000001 3.1 0.1
          vertex 4.1000000000000005 1.4000000000000001 0.1
          vertex 3.2 2.3000000000000003 0.1
      endloop
  endfacet
  facet normal 0.0 0.0 1.0
      outer loop
          vertex 4.800000000000001 3.1 1
          vertex 3.1 3.2 1
          vertex 3.2 2.3000000000000003 1
      endloop
  endfacet
  facet normal 0.0 0.0 1.0
      outer loop
          vertex 4.800000000000001 3.1 1
          vertex 3.2 2.3000000000000003 1
          vertex 4.1000000000000005 1.4000000000000001 1
      endloop
  endfacet
  facet normal 0.05872202195147037 0.9982743731749958 0.0
      outer loop
          vertex 4.800000000000001 3.1 0.1
          vertex 3.1 3.2 0.1
          vertex 3.1 3.2 1
      endloop
  endfacet
  facet normal 0.05872202195147037 0.9982743731749958 -0.0
      outer loop
          vertex 4.800000000000001 3.1 0.1
          vertex 3.1 3.2 1
          vertex 4.800000000000001 3.1 1
      endloop
  endfacet
  facet normal -0.9938837346736189 -0.11043152607484664 0.0
      outer loop
          vertex 3.1 3.2 0.1
          vertex 3.2 2.3000000000000003 0.1
          vertex 3.2 2.3000000000000003 1
      endloop
  endfacet
  facet normal -0.9938837346736189 -0.11043152607484664 0.0
      outer loop
          vertex 3.1 3.2 0.1
          vertex 3.2 2.3000000000000003 1
          vertex 3.1 3.2 1
      endloop
  endfacet
  facet normal -0.7071067811865475 -0.7071067811865477 0.0
      outer loop
          vertex 3.2 2.3000000000000003 0.1
          vertex 4.1000000000000005 1.4000000000000001 0.1
          vertex 4.1000000000000005 1.4000000000000001 1
      endloop
  endfacet
  facet normal -0.7071067811865475 -0.7071067811865477 0.0
      outer loop
          vertex 3.2 2.3000000000000003 0.1
          vertex 4.1000000000000005 1.4000000000000001 1
          vertex 3.2 2.3000000000000003 1
      endloop
  endfacet
  facet normal 0.9246780984747158 -0.3807498052542949 0.0
      outer loop
          vertex 4.1000000000000005 1.4000000000000001 0.1
          vertex 4.800000000000001 3.1 0.1
          vertex 4.800000000000001 3.1 1
      endloop
  endfacet
  facet normal 0.9246780984747158 -0.3807498052542949 0.0
      outer loop
          vertex 4.1000000000000005 1.4000000000000001 0.1
          vertex 4.800000000000001 3.1 1
          vertex 4.1000000000000005 1.4000000000000001 1
      endloop
  endfacet
endsolid obstacle
