solid obstacle
  facet normal -0.0 0.0 -1.0
      outer loop
          vertex 1.1 2.8000000000000003 0.01
          vertex 0.9 1.6 0.01
          vertex 0.6000000000000001 3.5 0.01
      endloop
  endfacet
  facet normal 0.0 0.0 1.0
      outer loop
          vertex 1.1 2.8000000000000003 1
          vertex 0.6000000000000001 3.5 1
          vertex 0.9 1.6 1
      endloop
  endfacet
  facet normal 0.8137334712067349 0.5812381937190966 0.0
      outer loop
          vertex 1.1 2.8000000000000003 0.01
          vertex 0.6000000000000001 3.5 0.01
          vertex 0.6000000000000001 3.5 1
      endloop
  endfacet
  facet normal 0.8137334712067349 0.5812381937190966 -0.0
      outer loop
          vertex 1.1 2.8000000000000003 0.01
          vertex 0.6000000000000001 3.5 1
          vertex 1.1 2.8000000000000003 1
      endloop
  endfacet
  facet normal -0.987762965329069 -0.15596257347301087 0.0
      outer loop
          vertex 0.6000000000000001 3.5 0.01
          vertex 0.9 1.6 0.01
          vertex 0.9 1.6 1
      endloop
  endfacet
  facet normal -0.987762965329069 -0.15596257347301087 0.0
      outer loop
          vertex 0.6000000000000001 3.5 0.01
          vertex 0.9 1.6 1
          vertex 0.6000000000000001 3.5 1
      endloop
  endfacet
  facet normal 0.9863939238321436 -0.16439898730535732 0.0
      outer loop
          vertex 0.9 1.6 0.01
          vertex 1.1 2.8000000000000003 0.01
          vertex 1.1 2.8000000000000003 1
      endloop
  endfacet
  facet normal 0.9863939238321436 -0.16439898730535732 0.0
      outer loop
          vertex 0.9 1.6 0.01
          vertex 1.1 2.8000000000000003 1
          vertex 0.9 1.6 1
      endloop
  endfacet
endsolid obstacle
