solid obstacle
  facet normal -0.0 -0.0 -1.0
      outer loop
          vertex 1.0 1.6 0.01
          vertex 1.0 1.5 0.01
          vertex 0.7000000000000001 1.8 0.01
      endloop
  endfacet
  facet normal 0.0 0.0 -1.0
      outer loop
          vertex 1.0 1.6 0.01
          vertex 1.2000000000000002 1.4000000000000001 0.01
          vertex 1.0 1.5 0.01
      endloop
  endfacet
  facet normal 0.0 0.0 1.0
      outer loop
          vertex 1.0 1.6 1
          vertex 0.7000000000000001 1.8 1
          vertex 1.0 1.5 1
      endloop
  endfacet
  facet normal 0.0 0.0 1.0
      outer loop
          vertex 1.0 1.6 1
          vertex 1.0 1.5 1
          vertex 1.2000000000000002 1.4000000000000001 1
      endloop
  endfacet
  facet normal 0.554700196225229 0.8320502943378436 0.0
      outer loop
          vertex 1.0 1.6 0.01
          vertex 0.7000000000000001 1.8 0.01
          vertex 0.7000000000000001 1.8 1
      endloop
  endfacet
  facet normal 0.554700196225229 0.8320502943378436 -0.0
      outer loop
          vertex 1.0 1.6 0.01
          vertex 0.7000000000000001 1.8 1
          vertex 1.0 1.6 1
      endloop
  endfacet
  facet normal -0.7071067811865477 -0.7071067811865475 0.0
      outer loop
          vertex 0.7000000000000001 1.8 0.01
          vertex 1.0 1.5 0.01
          vertex 1.0 1.5 1
      endloop
  endfacet
  facet normal -0.7071067811865477 -0.7071067811865475 0.0
      outer loop
          vertex 0.7000000000000001 1.8 0.01
          vertex 1.0 1.5 1
          vertex 0.7000000000000001 1.8 1
      endloop
  endfacet
  facet normal -0.4472135954999571 -0.8944271909999162 0.0
      outer loop
          vertex 1.0 1.5 0.01
          vertex 1.2000000000000002 1.4000000000000001 0.01
          vertex 1.2000000000000002 1.4000000000000001 1
      endloop
  endfacet
  facet normal -0.4472135954999571 -0.8944271909999162 0.0
      outer loop
          vertex 1.0 1.5 0.01
          vertex 1.2000000000000002 1.4000000000000001 1
          vertex 1.0 1.5 1
      endloop
  endfacet
  facet normal 0.707106781186547 0.7071067811865479 0.0
      outer loop
          vertex 1.2000000000000002 1.4000000000000001 0.01
          vertex 1.0 1.6 0.01
          vertex 1.0 1.6 1
      endloop
  endfacet
  facet normal 0.707106781186547 0.7071067811865479 -0.0
      outer loop
          vertex 1.2000000000000002 1.4000000000000001 0.01
          vertex 1.0 1.6 1
          vertex 1.2000000000000002 1.4000000000000001 1
      endloop
  endfacet
endsolid obstacle
