solid obstacle
  facet normal 0.0 0.0 -1.0
      outer loop
          vertex 3.1 4.3 0.1
          vertex 4.9 3.6 0.1
          vertex 3.6 2.8000000000000003 0.1
      endloop
  endfacet
  facet normal 0.0 0.0 -1.0
      outer loop
          vertex 3.1 4.3 0.1
          vertex 4.4 4.1000000000000005 0.1
          vertex 4.9 3.6 0.1
      endloop
  endfacet
  facet normal 0.0 0.0 1.0
      outer loop
          vertex 3.1 4.3 1
          vertex 3.6 2.8000000000000003 1
          vertex 4.9 3.6 1
      endloop
  endfacet
  facet normal 0.0 0.0 1.0
      outer loop
          vertex 3.1 4.3 1
          vertex 4.9 3.6 1
          vertex 4.4 4.1000000000000005 1
      endloop
  endfacet
  facet normal -0.9486832980505138 -0.31622776601683805 0.0
      outer loop
          vertex 3.1 4.3 0.1
          vertex 3.6 2.8000000000000003 0.1
          vertex 3.6 2.8000000000000003 1
      endloop
  endfacet
  facet normal -0.9486832980505138 -0.31622776601683805 0.0
      outer loop
          vertex 3.1 4.3 0.1
          vertex 3.6 2.8000000000000003 1
          vertex 3.1 4.3 1
      endloop
  endfacet
  facet normal 0.5240974256643345 -0.851658316704544 0.0
      outer loop
          vertex 3.6 2.8000000000000003 0.1
          vertex 4.9 3.6 0.1
          vertex 4.9 3.6 1
      endloop
  endfacet
  facet normal 0.5240974256643345 -0.851658316704544 0.0
      outer loop
          vertex 3.6 2.8000000000000003 0.1
          vertex 4.9 3.6 1
          vertex 3.6 2.8000000000000003 1
      endloop
  endfacet
  facet normal 0.7071067811865478 0.7071067811865472 0.0
      outer loop
          vertex 4.9 3.6 0.1
          vertex 4.4 4.1000000000000005 0.1
          vertex 4.4 4.1000000000000005 1
      endloop
  endfacet
  facet normal 0.7071067811865478 0.7071067811865472 -0.0
      outer loop
          vertex 4.9 3.6 0.1
          vertex 4.4 4.1000000000000005 1
          vertex 4.9 3.6 1
      endloop
  endfacet
  facet normal 0.15205718425394052 0.9883716976506173 0.0
      outer loop
          vertex 4.4 4.1000000000000005 0.1
          vertex 3.1 4.3 0.1
          vertex 3.1 4.3 1
      endloop
  endfacet
  facet normal 0.15205718425394052 0.9883716976506173 -0.0
      outer loop
          vertex 4.4 4.1000000000000005 0.1
          vertex 3.1 4.3 1
          vertex 4.4 4.1000000000000005 1
      endloop
  endfacet
endsolid obstacle
