solid obstacle
  facet normal 0.0 0.0 -1.0
      outer loop
          vertex 0.4 2.2 0.1
          vertex 0.7000000000000001 2.2 0.1
          vertex 1.9000000000000001 2.0 0.1
      endloop
  endfacet
  facet normal -0.0 0.0 1.0
      outer loop
          vertex 0.4 2.2 1
          vertex 1.9000000000000001 2.0 1
          vertex 0.7000000000000001 2.2 1
      endloop
  endfacet
  facet normal -0.13216372009101807 -0.9912279006826346 0.0
      outer loop
          vertex 0.4 2.2 0.1
          vertex 1.9000000000000001 2.0 0.1
          vertex 1.9000000000000001 2.0 1
      endloop
  endfacet
  facet normal -0.13216372009101807 -0.9912279006826346 0.0
      outer loop
          vertex 0.4 2.2 0.1
          vertex 1.9000000000000001 2.0 1
          vertex 0.4 2.2 1
      endloop
  endfacet
  facet normal 0.1643989873053574 0.9863939238321437 0.0
      outer loop
          vertex 1.9000000000000001 2.0 0.1
          vertex 0.7000000000000001 2.2 0.1
          vertex 0.7000000000000001 2.2 1
      endloop
  endfacet
  facet normal 0.1643989873053574 0.9863939238321437 -0.0
      outer loop
          vertex 1.9000000000000001 2.0 0.1
          vertex 0.7000000000000001 2.2 1
          vertex 1.9000000000000001 2.0 1
      endloop
  endfacet
  facet normal 0.0 1.0 0.0
      outer loop
          vertex 0.7000000000000001 2.2 0.1
          vertex 0.4 2.2 0.1
          vertex 0.4 2.2 1
      endloop
  endfacet
  facet normal 0.0 1.0 -0.0
      outer loop
          vertex 0.7000000000000001 2.2 0.1
          vertex 0.4 2.2 1
          vertex 0.7000000000000001 2.2 1
      endloop
  endfacet
endsolid obstacle
