solid obstacle
  facet normal 0.0 0.0 -1.0
      outer loop
          vertex 3.3000000000000003 2.6 0.1
          vertex 4.3 3.5 0.1
          vertex 4.5 3.3000000000000003 0.1
      endloop
  endfacet
  facet normal 0.0 0.0 1.0
      outer loop
          vertex 3.3000000000000003 2.6 1
          vertex 4.5 3.3000000000000003 1
          vertex 4.3 3.5 1
      endloop
  endfacet
  facet normal 0.5038710255240864 -0.8637789008984333 0.0
      outer loop
          vertex 3.3000000000000003 2.6 0.1
          vertex 4.5 3.3000000000000003 0.1
          vertex 4.5 3.3000000000000003 1
      endloop
  endfacet
  facet normal 0.5038710255240864 -0.8637789008984333 0.0
      outer loop
          vertex 3.3000000000000003 2.6 0.1
          vertex 4.5 3.3000000000000003 1
          vertex 3.3000000000000003 2.6 1
      endloop
  endfacet
  facet normal 0.7071067811865468 0.7071067811865483 0.0
      outer loop
          vertex 4.5 3.3000000000000003 0.1
          vertex 4.3 3.5 0.1
          vertex 4.3 3.5 1
      endloop
  endfacet
  facet normal 0.7071067811865468 0.7071067811865483 -0.0
      outer loop
          vertex 4.5 3.3000000000000003 0.1
          vertex 4.3 3.5 1
          vertex 4.5 3.3000000000000003 1
      endloop
  endfacet
  facet normal -0.6689647316224498 0.7432941462471662 0.0
      outer loop
          vertex 4.3 3.5 0.1
          vertex 3.3000000000000003 2.6 0.1
          vertex 3.3000000000000003 2.6 1
      endloop
  endfacet
  facet normal -0.6689647316224498 0.7432941462471662 0.0
      outer loop
          vertex 4.3 3.5 0.1
          vertex 3.3000000000000003 2.6 1
          vertex 4.3 3.5 1
      endloop
  endfacet
endsolid obstacle
