solid obstacle
  facet normal 0.0 0.0 -1.0
      outer loop
          vertex 3.4000000000000004 0.8 0.01
          vertex 3.6 1.9000000000000001 0.01
          vertex 4.1000000000000005 0.6000000000000001 0.01
      endloop
  endfacet
  facet normal -0.0 0.0 1.0
      outer loop
          vertex 3.4000000000000004 0.8 1
          vertex 4.1000000000000005 0.6000000000000001 1
          vertex 3.6 1.9000000000000001 1
      endloop
  endfacet
  facet normal -0.2747211278973779 -0.9615239476408232 0.0
      outer loop
          vertex 3.4000000000000004 0.8 0.01
          vertex 4.1000000000000005 0.6000000000000001 0.01
          vertex 4.1000000000000005 0.6000000000000001 1
      endloop
  endfacet
  facet normal -0.2747211278973779 -0.9615239476408232 0.0
      outer loop
          vertex 3.4000000000000004 0.8 0.01
          vertex 4.1000000000000005 0.6000000000000001 1
          vertex 3.4000000000000004 0.8 1
      endloop
  endfacet
  facet normal 0.9333456062030594 0.35897907930886935 0.0
      outer loop
          vertex 4.1000000000000005 0.6000000000000001 0.01
          vertex 3.6 1.9000000000000001 0.01
          vertex 3.6 1.9000000000000001 1
      endloop
  endfacet
  facet normal 0.9333456062030594 0.35897907930886935 -0.0
      outer loop
          vertex 4.1000000000000005 0.6000000000000001 0.01
          vertex 3.6 1.9000000000000001 1
          vertex 4.1000000000000005 0.6000000000000001 1
      endloop
  endfacet
  facet normal -0.9838699100999074 0.17888543819998293 0.0
      outer loop
          vertex 3.6 1.9000000000000001 0.01
          vertex 3.4000000000000004 0.8 0.01
          vertex 3.4000000000000004 0.8 1
      endloop
  endfacet
  facet normal -0.9838699100999074 0.17888543819998293 0.0
      outer loop
          vertex 3.6 1.9000000000000001 0.01
          vertex 3.4000000000000004 0.8 1
          vertex 3.6 1.9000000000000001 1
      endloop
  endfacet
endsolid obstacle
