solid obstacle
  facet normal 0.0 0.0 -1.0
      outer loop
          vertex 2.3000000000000003 2.8000000000000003 0.01
          vertex 2.8000000000000003 3.4000000000000004 0.01
          vertex 3.4000000000000004 2.2 0.01
      endloop
  endfacet
  facet normal -0.0 0.0 1.0
      outer loop
          vertex 2.3000000000000003 2.8000000000000003 1
          vertex 3.4000000000000004 2.2 1
          vertex 2.8000000000000003 3.4000000000000004 1
      endloop
  endfacet
  facet normal -0.47885213068057336 -0.8778955729143844 0.0
      outer loop
          vertex 2.3000000000000003 2.8000000000000003 0.01
          vertex 3.4000000000000004 2.2 0.01
          vertex 3.4000000000000004 2.2 1
      endloop
  endfacet
  facet normal -0.47885213068057336 -0.8778955729143844 0.0
      outer loop
          vertex 2.3000000000000003 2.8000000000000003 0.01
          vertex 3.4000000000000004 2.2 1
          vertex 2.3000000000000003 2.8000000000000003 1
      endloop
  endfacet
  facet normal 0.8944271909999159 0.4472135954999579 0.0
      outer loop
          vertex 3.4000000000000004 2.2 0.01
          vertex 2.8000000000000003 3.4000000000000004 0.01
          vertex 2.8000000000000003 3.4000000000000004 1
      endloop
  endfacet
  facet normal 0.8944271909999159 0.4472135954999579 -0.0
      outer loop
          vertex 3.4000000000000004 2.2 0.01
          vertex 2.8000000000000003 3.4000000000000004 1
          vertex 3.4000000000000004 2.2 1
      endloop
  endfacet
  facet normal -0.768221279597376 0.6401843996644798 0.0
      outer loop
          vertex 2.8000000000000003 3.4000000000000004 0.01
          vertex 2.3000000000000003 2.8000000000000003 0.01
          vertex 2.3000000000000003 2.8000000000000003 1
      endloop
  endfacet
  facet normal -0.768221279597376 0.6401843996644798 0.0
      outer loop
          vertex 2.8000000000000003 3.4000000000000004 0.01
          vertex 2.3000000000000003 2.8000000000000003 1
          vertex 2.8000000000000003 3.4000000000000004 1
      endloop
  endfacet
endsolid obstacle
