solid obstacle
  facet normal 0.0 0.0 -1.0
      outer loop
          vertex 0.6000000000000001 0.4 0.01
          vertex 0.4 0.1 0.01
          vertex 0.4 0.30000000000000004 0.01
      endloop
  endfacet
  facet normal 0.0 0.0 1.0
      outer loop
          vertex 0.6000000000000001 0.4 1
          vertex 0.4 0.30000000000000004 1
          vertex 0.4 0.1 1
      endloop
  endfacet
  facet normal -0.4472135954999577 0.894427190999916 0.0
      outer loop
          vertex 0.6000000000000001 0.4 0.01
          vertex 0.4 0.30000000000000004 0.01
          vertex 0.4 0.30000000000000004 1
      endloop
  endfacet
  facet normal -0.4472135954999577 0.894427190999916 0.0
      outer loop
          vertex 0.6000000000000001 0.4 0.01
          vertex 0.4 0.30000000000000004 1
          vertex 0.6000000000000001 0.4 1
      endloop
  endfacet
  facet normal -1.0 0.0 0.0
      outer loop
          vertex 0.4 0.30000000000000004 0.01
          vertex 0.4 0.1 0.01
          vertex 0.4 0.1 1
      endloop
  endfacet
  facet normal -1.0 0.0 0.0
      outer loop
          vertex 0.4 0.30000000000000004 0.01
          vertex 0.4 0.1 1
          vertex 0.4 0.30000000000000004 1
      endloop
  endfacet
  facet normal 0.8320502943378436 -0.5547001962252291 0.0
      outer loop
          vertex 0.4 0.1 0.01
          vertex 0.6000000000000001 0.4 0.01
          vertex 0.6000000000000001 0.4 1
      endloop
  endfacet
  facet normal 0.8320502943378436 -0.5547001962252291 0.0
      outer loop
          vertex 0.4 0.1 0.01
          vertex 0.6000000000000001 0.4 1
          vertex 0.4 0.1 1
      endloop
  endfacet
endsolid obstacle
