solid obstacle
  facet normal 0.0 0.0 -1.0
      outer loop
          vertex 1.1 1.1 0.01
          vertex 0.5 1.2000000000000002 0.01
          vertex 0.2 2.7 0.01
      endloop
  endfacet
  facet normal 0.0 0.0 1.0
      outer loop
          vertex 1.1 1.1 1
          vertex 0.2 2.7 1
          vertex 0.5 1.2000000000000002 1
      endloop
  endfacet
  facet normal 0.8715755371245493 0.490261239632559 0.0
      outer loop
          vertex 1.1 1.1 0.01
          vertex 0.2 2.7 0.01
          vertex 0.2 2.7 1
      endloop
  endfacet
  facet normal 0.8715755371245493 0.490261239632559 -0.0
      outer loop
          vertex 1.1 1.1 0.01
          vertex 0.2 2.7 1
          vertex 1.1 1.1 1
      endloop
  endfacet
  facet normal -0.9805806756909202 -0.19611613513818404 0.0
      outer loop
          vertex 0.2 2.7 0.01
          vertex 0.5 1.2000000000000002 0.01
          vertex 0.5 1.2000000000000002 1
      endloop
  endfacet
  facet normal -0.9805806756909202 -0.19611613513818404 0.0
      outer loop
          vertex 0.2 2.7 0.01
          vertex 0.5 1.2000000000000002 1
          vertex 0.2 2.7 1
      endloop
  endfacet
  facet normal -0.1643989873053574 -0.9863939238321436 0.0
      outer loop
          vertex 0.5 1.2000000000000002 0.01
          vertex 1.1 1.1 0.01
          vertex 1.1 1.1 1
      endloop
  endfacet
  facet normal -0.1643989873053574 -0.9863939238321436 0.0
      outer loop
          vertex 0.5 1.2000000000000002 0.01
          vertex 1.1 1.1 1
          vertex 0.5 1.2000000000000002 1
      endloop
  endfacet
endsolid obstacle
