solid obstacle
  facet normal 0.0 0.0 -1.0
      outer loop
          vertex 4.5 3.8000000000000003 0.01
          vertex 4.3 3.1 0.01
          vertex 3.6 2.7 0.01
      endloop
  endfacet
  facet normal 0.0 0.0 1.0
      outer loop
          vertex 4.5 3.8000000000000003 1
          vertex 3.6 2.7 1
          vertex 4.3 3.1 1
      endloop
  endfacet
  facet normal -0.773957299203321 0.6332377902572627 0.0
      outer loop
          vertex 4.5 3.8000000000000003 0.01
          vertex 3.6 2.7 0.01
          vertex 3.6 2.7 1
      endloop
  endfacet
  facet normal -0.773957299203321 0.6332377902572627 0.0
      outer loop
          vertex 4.5 3.8000000000000003 0.01
          vertex 3.6 2.7 1
          vertex 4.5 3.8000000000000003 1
      endloop
  endfacet
  facet normal 0.4961389383568339 -0.8682431421244592 0.0
      outer loop
          vertex 3.6 2.7 0.01
          vertex 4.3 3.1 0.01
          vertex 4.3 3.1 1
      endloop
  endfacet
  facet normal 0.4961389383568339 -0.8682431421244592 0.0
      outer loop
          vertex 3.6 2.7 0.01
          vertex 4.3 3.1 1
          vertex 3.6 2.7 1
      endloop
  endfacet
  facet normal 0.9615239476408232 -0.2747211278973782 0.0
      outer loop
          vertex 4.3 3.1 0.01
          vertex 4.5 3.8000000000000003 0.01
          vertex 4.5 3.8000000000000003 1
      endloop
  endfacet
  facet normal 0.9615239476408232 -0.2747211278973782 0.0
      outer loop
          vertex 4.3 3.1 0.01
          vertex 4.5 3.8000000000000003 1
          vertex 4.3 3.1 1
      endloop
  endfacet
endsolid obstacle
