solid obstacle
  facet normal -0.0 0.0 -1.0
      outer loop
          vertex 4.4 4.4 0.1
          vertex 3.9000000000000004 3.2 0.1
          vertex 3.7 4.9 0.1
      endloop
  endfacet
  facet normal 0.0 0.0 1.0
      outer loop
          vertex 4.4 4.4 1
          vertex 3.7 4.9 1
          vertex 3.9000000000000004 3.2 1
      endloop
  endfacet
  facet normal 0.5812381937190962 0.813733471206735 0.0
      outer loop
          vertex 4.4 4.4 0.1
          vertex 3.7 4.9 0.1
          vertex 3.7 4.9 1
      endloop
  endfacet
  facet normal 0.5812381937190962 0.813733471206735 -0.0
      outer loop
          vertex 4.4 4.4 0.1
          vertex 3.7 4.9 1
          vertex 4.4 4.4 1
      endloop
  endfacet
  facet normal -0.9931506043228762 -0.11684124756739729 0.0
      outer loop
          vertex 3.7 4.9 0.1
          vertex 3.9000000000000004 3.2 0.1
          vertex 3.9000000000000004 3.2 1
      endloop
  endfacet
  facet normal -0.9931506043228762 -0.11684124756739729 0.0
      outer loop
          vertex 3.7 4.9 0.1
          vertex 3.9000000000000004 3.2 1
          vertex 3.7 4.9 1
      endloop
  endfacet
  facet normal 0.9230769230769232 -0.3846153846153846 0.0
      outer loop
          vertex 3.9000000000000004 3.2 0.1
          vertex 4.4 4.4 0.1
          vertex 4.4 4.4 1
      endloop
  endfacet
  facet normal 0.9230769230769232 -0.3846153846153846 0.0
      outer loop
          vertex 3.9000000000000004 3.2 0.1
          vertex 4.4 4.4 1
          vertex 3.9000000000000004 3.2 1
      endloop
  endfacet
endsolid obstacle
