solid obstacle
  facet normal 0.0 0.0 -1.0
      outer loop
          vertex 1.6 2.8000000000000003 0.01
          vertex 2.8000000000000003 3.7 0.01
          vertex 3.1 2.2 0.01
      endloop
  endfacet
  facet normal -0.0 0.0 1.0
      outer loop
          vertex 1.6 2.8000000000000003 1
          vertex 3.1 2.2 1
          vertex 2.8000000000000003 3.7 1
      endloop
  endfacet
  facet normal -0.3713906763541038 -0.9284766908852593 0.0
      outer loop
          vertex 1.6 2.8000000000000003 0.01
          vertex 3.1 2.2 0.01
          vertex 3.1 2.2 1
      endloop
  endfacet
  facet normal -0.3713906763541038 -0.9284766908852593 0.0
      outer loop
          vertex 1.6 2.8000000000000003 0.01
          vertex 3.1 2.2 1
          vertex 1.6 2.8000000000000003 1
      endloop
  endfacet
  facet normal 0.9805806756909202 0.19611613513818393 0.0
      outer loop
          vertex 3.1 2.2 0.01
          vertex 2.8000000000000003 3.7 0.01
          vertex 2.8000000000000003 3.7 1
      endloop
  endfacet
  facet normal 0.9805806756909202 0.19611613513818393 -0.0
      outer loop
          vertex 3.1 2.2 0.01
          vertex 2.8000000000000003 3.7 1
          vertex 3.1 2.2 1
      endloop
  endfacet
  facet normal -0.5999999999999999 0.8 0.0
      outer loop
          vertex 2.8000000000000003 3.7 0.01
          vertex 1.6 2.8000000000000003 0.01
          vertex 1.6 2.8000000000000003 1
      endloop
  endfacet
  facet normal -0.5999999999999999 0.8 0.0
      outer loop
          vertex 2.8000000000000003 3.7 0.01
          vertex 1.6 2.8000000000000003 1
          vertex 2.8000000000000003 3.7 1
      endloop
  endfacet
endsolid obstacle
