solid obstacle
  facet normal 0.0 0.0 -1.0
      outer loop
          vertex 0.0 1.3 0.01
          vertex 0.30000000000000004 1.3 0.01
          vertex 1.6 0.30000000000000004 0.01
      endloop
  endfacet
  facet normal -0.0 0.0 1.0
      outer loop
          vertex 0.0 1.3 1
          vertex 1.6 0.30000000000000004 1
          vertex 0.30000000000000004 1.3 1
      endloop
  endfacet
  facet normal -0.5299989400031799 -0.8479983040050879 0.0
      outer loop
          vertex 0.0 1.3 0.01
          vertex 1.6 0.30000000000000004 0.01
          vertex 1.6 0.30000000000000004 1
      endloop
  endfacet
  facet normal -0.5299989400031799 -0.8479983040050879 0.0
      outer loop
          vertex 0.0 1.3 0.01
          vertex 1.6 0.30000000000000004 1
          vertex 0.0 1.3 1
      endloop
  endfacet
  facet normal 0.6097107608496923 0.7926239891046 0.0
      outer loop
          vertex 1.6 0.30000000000000004 0.01
          vertex 0.30000000000000004 1.3 0.01
          vertex 0.30000000000000004 1.3 1
      endloop
  endfacet
  facet normal 0.6097107608496923 0.7926239891046 -0.0
      outer loop
          vertex 1.6 0.30000000000000004 0.01
          vertex 0.30000000000000004 1.3 1
          vertex 1.6 0.30000000000000004 1
      endloop
  endfacet
  facet normal 0.0 1.0 0.0
      outer loop
          vertex 0.30000000000000004 1.3 0.01
          vertex 0.0 1.3 0.01
          vertex 0.0 1.3 1
      endloop
  endfacet
  facet normal 0.0 1.0 -0.0
      outer loop
          vertex 0.30000000000000004 1.3 0.01
          vertex 0.0 1.3 1
          vertex 0.30000000000000004 1.3 1
      endloop
  endfacet
endsolid obstacle
