solid obstacle
  facet normal 0.0 0.0 -1.0
      outer loop
          vertex 1.3 2.9000000000000004 0.1
          vertex 1.0 3.1 0.1
          vertex 0.7000000000000001 4.800000000000001 0.1
      endloop
  endfacet
  facet normal 0.0 0.0 1.0
      outer loop
          vertex 1.3 2.9000000000000004 1
          vertex 0.7000000000000001 4.800000000000001 1
          vertex 1.0 3.1 1
      endloop
  endfacet
  facet normal 0.9535826651341417 0.3011313679370973 0.0
      outer loop
          vertex 1.3 2.9000000000000004 0.1
          vertex 0.7000000000000001 4.800000000000001 0.1
          vertex 0.7000000000000001 4.800000000000001 1
      endloop
  endfacet
  facet normal 0.9535826651341417 0.3011313679370973 -0.0
      outer loop
          vertex 1.3 2.9000000000000004 0.1
          vertex 0.7000000000000001 4.800000000000001 1
          vertex 1.3 2.9000000000000004 1
      endloop
  endfacet
  facet normal -0.9847835588179367 -0.17378533390904755 0.0
      outer loop
          vertex 0.7000000000000001 4.800000000000001 0.1
          vertex 1.0 3.1 0.1
          vertex 1.0 3.1 1
      endloop
  endfacet
  facet normal -0.9847835588179367 -0.17378533390904755 0.0
      outer loop
          vertex 0.7000000000000001 4.800000000000001 0.1
          vertex 1.0 3.1 1
          vertex 0.7000000000000001 4.800000000000001 1
      endloop
  endfacet
  facet normal -0.5547001962252285 -0.832050294337844 0.0
      outer loop
          vertex 1.0 3.1 0.1
          vertex 1.3 2.9000000000000004 0.1
          vertex 1.3 2.9000000000000004 1
      endloop
  endfacet
  facet normal -0.5547001962252285 -0.832050294337844 0.0
      outer loop
          vertex 1.0 3.1 0.1
          vertex 1.3 2.9000000000000004 1
          vertex 1.0 3.1 1
      endloop
  endfacet
endsolid obstacle
