solid obstacle
  facet normal 0.0 -0.0 -1.0
      outer loop
          vertex 2.6 2.2 0.1
          vertex 2.8000000000000003 0.8 0.1
          vertex 1.5 0.7000000000000001 0.1
      endloop
  endfacet
  facet normal 0.0 0.0 -1.0
      outer loop
          vertex 2.6 2.2 0.1
          vertex 2.8000000000000003 1.2000000000000002 0.1
          vertex 2.8000000000000003 0.8 0.1
      endloop
  endfacet
  facet normal 0.0 0.0 1.0
      outer loop
          vertex 2.6 2.2 1
          vertex 1.5 0.7000000000000001 1
          vertex 2.8000000000000003 0.8 1
      endloop
  endfacet
  facet normal 0.0 0.0 1.0
      outer loop
          vertex 2.6 2.2 1
          vertex 2.8000000000000003 0.8 1
          vertex 2.8000000000000003 1.2000000000000002 1
      endloop
  endfacet
  facet normal -0.8064049958557056 0.5913636636275175 0.0
      outer loop
          vertex 2.6 2.2 0.1
          vertex 1.5 0.7000000000000001 0.1
          vertex 1.5 0.7000000000000001 1
      endloop
  endfacet
  facet normal -0.8064049958557056 0.5913636636275175 0.0
      outer loop
          vertex 2.6 2.2 0.1
          vertex 1.5 0.7000000000000001 1
          vertex 2.6 2.2 1
      endloop
  endfacet
  facet normal 0.07669649888473701 -0.9970544855015816 0.0
      outer loop
          vertex 1.5 0.7000000000000001 0.1
          vertex 2.8000000000000003 0.8 0.1
          vertex 2.8000000000000003 0.8 1
      endloop
  endfacet
  facet normal 0.07669649888473701 -0.9970544855015816 0.0
      outer loop
          vertex 1.5 0.7000000000000001 0.1
          vertex 2.8000000000000003 0.8 1
          vertex 1.5 0.7000000000000001 1
      endloop
  endfacet
  facet normal 1.0 0.0 0.0
      outer loop
          vertex 2.8000000000000003 0.8 0.1
          vertex 2.8000000000000003 1.2000000000000002 0.1
          vertex 2.8000000000000003 1.2000000000000002 1
      endloop
  endfacet
  facet normal 1.0 0.0 0.0
      outer loop
          vertex 2.8000000000000003 0.8 0.1
          vertex 2.8000000000000003 1.2000000000000002 1
          vertex 2.8000000000000003 0.8 1
      endloop
  endfacet
  facet normal 0.9805806756909201 0.19611613513818418 0.0
      outer loop
          vertex 2.8000000000000003 1.2000000000000002 0.1
          vertex 2.6 2.2 0.1
          vertex 2.6 2.2 1
      endloop
  endfacet
  facet normal 0.9805806756909201 0.19611613513818418 -0.0
      outer loop
          vertex 2.8000000000000003 1.2000000000000002 0.1
          vertex 2.6 2.2 1
          vertex 2.8000000000000003 1.2000000000000002 1
      endloop
  endfacet
endsolid obstacle
