solid obstacle
  facet normal 0.0 0.0 -1.0
      outer loop
          vertex 1.1 1.8 0.01
          vertex 2.7 3.2 0.01
          vertex 2.6 2.2 0.01
      endloop
  endfacet
  facet normal 0.0 0.0 -1.0
      outer loop
          vertex 1.1 1.8 0.01
          vertex 1.2000000000000002 2.1 0.01
          vertex 2.7 3.2 0.01
      endloop
  endfacet
  facet normal 0.0 0.0 1.0
      outer loop
          vertex 1.1 1.8 1
          vertex 2.6 2.2 1
          vertex 2.7 3.2 1
      endloop
  endfacet
  facet normal 0.0 0.0 1.0
      outer loop
          vertex 1.1 1.8 1
          vertex 2.7 3.2 1
          vertex 1.2000000000000002 2.1 1
      endloop
  endfacet
  facet normal 0.25766265056033244 -0.9662349396012463 0.0
      outer loop
          vertex 1.1 1.8 0.01
          vertex 2.6 2.2 0.01
          vertex 2.6 2.2 1
      endloop
  endfacet
  facet normal 0.25766265056033244 -0.9662349396012463 0.0
      outer loop
          vertex 1.1 1.8 0.01
          vertex 2.6 2.2 1
          vertex 1.1 1.8 1
      endloop
  endfacet
  facet normal 0.9950371902099892 -0.099503719020999 0.0
      outer loop
          vertex 2.6 2.2 0.01
          vertex 2.7 3.2 0.01
          vertex 2.7 3.2 1
      endloop
  endfacet
  facet normal 0.9950371902099892 -0.099503719020999 0.0
      outer loop
          vertex 2.6 2.2 0.01
          vertex 2.7 3.2 1
          vertex 2.6 2.2 1
      endloop
  endfacet
  facet normal -0.5913636636275175 0.8064049958557056 0.0
      outer loop
          vertex 2.7 3.2 0.01
          vertex 1.2000000000000002 2.1 0.01
          vertex 1.2000000000000002 2.1 1
      endloop
  endfacet
  facet normal -0.5913636636275175 0.8064049958557056 0.0
      outer loop
          vertex 2.7 3.2 0.01
          vertex 1.2000000000000002 2.1 1
          vertex 2.7 3.2 1
      endloop
  endfacet
  facet normal -0.9486832980505137 0.3162277660168381 0.0
      outer loop
          vertex 1.2000000000000002 2.1 0.01
          vertex 1.1 1.8 0.01
          vertex 1.1 1.8 1
      endloop
  endfacet
  facet normal -0.9486832980505137 0.3162277660168381 0.0
      outer loop
          vertex 1.2000000000000002 2.1 0.01
          vertex 1.1 1.8 1
          vertex 1.2000000000000002 2.1 1
      endloop
  endfacet
endsolid obstacle
