solid obstacle
  facet normal -0.0 0.0 -1.0
      outer loop
          vertex 2.0 3.8000000000000003 0.1
          vertex 1.4000000000000001 2.4000000000000004 0.1
          vertex 1.1 4.2 0.1
      endloop
  endfacet
  facet normal 0.0 0.0 -1.0
      outer loop
          vertex 2.0 3.8000000000000003 0.1
          vertex 1.9000000000000001 2.8000000000000003 0.1
          vertex 1.4000000000000001 2.4000000000000004 0.1
      endloop
  endfacet
  facet normal 0.0 0.0 1.0
      outer loop
          vertex 2.0 3.8000000000000003 1
          vertex 1.1 4.2 1
          vertex 1.4000000000000001 2.4000000000000004 1
      endloop
  endfacet
  facet normal 0.0 0.0 1.0
      outer loop
          vertex 2.0 3.8000000000000003 1
          vertex 1.4000000000000001 2.4000000000000004 1
          vertex 1.9000000000000001 2.8000000000000003 1
      endloop
  endfacet
  facet normal 0.4061384660534476 0.9138115486202572 0.0
      outer loop
          vertex 2.0 3.8000000000000003 0.1
          vertex 1.1 4.2 0.1
          vertex 1.1 4.2 1
      endloop
  endfacet
  facet normal 0.4061384660534476 0.9138115486202572 -0.0
      outer loop
          vertex 2.0 3.8000000000000003 0.1
          vertex 1.1 4.2 1
          vertex 2.0 3.8000000000000003 1
      endloop
  endfacet
  facet normal -0.9863939238321436 -0.16439898730535732 0.0
      outer loop
          vertex 1.1 4.2 0.1
          vertex 1.4000000000000001 2.4000000000000004 0.1
          vertex 1.4000000000000001 2.4000000000000004 1
      endloop
  endfacet
  facet normal -0.9863939238321436 -0.16439898730535732 0.0
      outer loop
          vertex 1.1 4.2 0.1
          vertex 1.4000000000000001 2.4000000000000004 1
          vertex 1.1 4.2 1
      endloop
  endfacet
  facet normal 0.6246950475544242 -0.7808688094430304 0.0
      outer loop
          vertex 1.4000000000000001 2.4000000000000004 0.1
          vertex 1.9000000000000001 2.8000000000000003 0.1
          vertex 1.9000000000000001 2.8000000000000003 1
      endloop
  endfacet
  facet normal 0.6246950475544242 -0.7808688094430304 0.0
      outer loop
          vertex 1.4000000000000001 2.4000000000000004 0.1
          vertex 1.9000000000000001 2.8000000000000003 1
          vertex 1.4000000000000001 2.4000000000000004 1
      endloop
  endfacet
  facet normal 0.9950371902099892 -0.09950371902099879 0.0
      outer loop
          vertex 1.9000000000000001 2.8000000000000003 0.1
          vertex 2.0 3.8000000000000003 0.1
          vertex 2.0 3.8000000000000003 1
      endloop
  endfacet
  facet normal 0.9950371902099892 -0.09950371902099879 0.0
      outer loop
          vertex 1.9000000000000001 2.8000000000000003 0.1
          vertex 2.0 3.8000000000000003 1
          vertex 1.9000000000000001 2.8000000000000003 1
      endloop
  endfacet
endsolid obstacle
