solid obstacle
  facet normal -0.0 0.0 -1.0
      outer loop
          vertex 2.1 3.3000000000000003 0.01
          vertex 1.0 2.3000000000000003 0.01
          vertex 0.9 3.3000000000000003 0.01
      endloop
  endfacet
  facet normal 0.0 0.0 1.0
      outer loop
          vertex 2.1 3.3000000000000003 1
          vertex 0.9 3.3000000000000003 1
          vertex 1.0 2.3000000000000003 1
      endloop
  endfacet
  facet normal 0.0 1.0 0.0
      outer loop
          vertex 2.1 3.3000000000000003 0.01
          vertex 0.9 3.3000000000000003 0.01
          vertex 0.9 3.3000000000000003 1
      endloop
  endfacet
  facet normal 0.0 1.0 -0.0
      outer loop
          vertex 2.1 3.3000000000000003 0.01
          vertex 0.9 3.3000000000000003 1
          vertex 2.1 3.3000000000000003 1
      endloop
  endfacet
  facet normal -0.9950371902099892 -0.09950371902099889 0.0
      outer loop
          vertex 0.9 3.3000000000000003 0.01
          vertex 1.0 2.3000000000000003 0.01
          vertex 1.0 2.3000000000000003 1
      endloop
  endfacet
  facet normal -0.9950371902099892 -0.09950371902099889 0.0
      outer loop
          vertex 0.9 3.3000000000000003 0.01
          vertex 1.0 2.3000000000000003 1
          vertex 0.9 3.3000000000000003 1
      endloop
  endfacet
  facet normal 0.6726727939963124 -0.7399400733959437 0.0
      outer loop
          vertex 1.0 2.3000000000000003 0.01
          vertex 2.1 3.3000000000000003 0.01
          vertex 2.1 3.3000000000000003 1
      endloop
  endfacet
  facet normal 0.6726727939963124 -0.7399400733959437 0.0
      outer loop
          vertex 1.0 2.3000000000000003 0.01
          vertex 2.1 3.3000000000000003 1
          vertex 1.0 2.3000000000000003 1
      endloop
  endfacet
endsolid obstacle
