solid obstacle
  facet normal 0.0 0.0 -1.0
      outer loop
          vertex 0.0 2.2 0.1
          vertex 0.2 3.3000000000000003 0.1
          vertex 1.0 2.1 0.1
      endloop
  endfacet
  facet normal -0.0 0.0 1.0
      outer loop
          vertex 0.0 2.2 1
          vertex 1.0 2.1 1
          vertex 0.2 3.3000000000000003 1
      endloop
  endfacet
  facet normal -0.099503719020999 -0.9950371902099892 0.0
      outer loop
          vertex 0.0 2.2 0.1
          vertex 1.0 2.1 0.1
          vertex 1.0 2.1 1
      endloop
  endfacet
  facet normal -0.099503719020999 -0.9950371902099892 0.0
      outer loop
          vertex 0.0 2.2 0.1
          vertex 1.0 2.1 1
          vertex 0.0 2.2 1
      endloop
  endfacet
  facet normal 0.8320502943378437 0.554700196225229 0.0
      outer loop
          vertex 1.0 2.1 0.1
          vertex 0.2 3.3000000000000003 0.1
          vertex 0.2 3.3000000000000003 1
      endloop
  endfacet
  facet normal 0.8320502943378437 0.554700196225229 -0.0
      outer loop
          vertex 1.0 2.1 0.1
          vertex 0.2 3.3000000000000003 1
          vertex 1.0 2.1 1
      endloop
  endfacet
  facet normal -0.9838699100999074 0.17888543819998318 0.0
      outer loop
          vertex 0.2 3.3000000000000003 0.1
          vertex 0.0 2.2 0.1
          vertex 0.0 2.2 1
      endloop
  endfacet
  facet normal -0.9838699100999074 0.17888543819998318 0.0
      outer loop
          vertex 0.2 3.3000000000000003 0.1
          vertex 0.0 2.2 1
          vertex 0.2 3.3000000000000003 1
      endloop
  endfacet
endsolid obstacle
