solid obstacle
  facet normal 0.0 0.0 -1.0
      outer loop
          vertex 2.0 1.4000000000000001 0.01
          vertex 1.4000000000000001 1.7000000000000002 0.01
          vertex 0.9 2.9000000000000004 0.01
      endloop
  endfacet
  facet normal 0.0 0.0 1.0
      outer loop
          vertex 2.0 1.4000000000000001 1
          vertex 0.9 2.9000000000000004 1
          vertex 1.4000000000000001 1.7000000000000002 1
      endloop
  endfacet
  facet normal 0.8064049958557056 0.5913636636275174 0.0
      outer loop
          vertex 2.0 1.4000000000000001 0.01
          vertex 0.9 2.9000000000000004 0.01
          vertex 0.9 2.9000000000000004 1
      endloop
  endfacet
  facet normal 0.8064049958557056 0.5913636636275174 -0.0
      outer loop
          vertex 2.0 1.4000000000000001 0.01
          vertex 0.9 2.9000000000000004 1
          vertex 2.0 1.4000000000000001 1
      endloop
  endfacet
  facet normal -0.9230769230769231 -0.38461538461538464 0.0
      outer loop
          vertex 0.9 2.9000000000000004 0.01
          vertex 1.4000000000000001 1.7000000000000002 0.01
          vertex 1.4000000000000001 1.7000000000000002 1
      endloop
  endfacet
  facet normal -0.9230769230769231 -0.38461538461538464 0.0
      outer loop
          vertex 0.9 2.9000000000000004 0.01
          vertex 1.4000000000000001 1.7000000000000002 1
          vertex 0.9 2.9000000000000004 1
      endloop
  endfacet
  facet normal -0.4472135954999581 -0.8944271909999159 0.0
      outer loop
          vertex 1.4000000000000001 1.7000000000000002 0.01
          vertex 2.0 1.4000000000000001 0.01
          vertex 2.0 1.4000000000000001 1
      endloop
  endfacet
  facet normal -0.4472135954999581 -0.8944271909999159 0.0
      outer loop
          vertex 1.4000000000000001 1.7000000000000002 0.01
          vertex 2.0 1.4000000000000001 1
          vertex 1.4000000000000001 1.7000000000000002 1
      endloop
  endfacet
endsolid obstacle
