solid obstacle
  facet normal 0.0 0.0 -1.0
      outer loop
          vertex 0.8 0.7000000000000001 0.01
          vertex 0.7000000000000001 0.7000000000000001 0.01
          vertex 0.5 0.8 0.01
      endloop
  endfacet
  facet normal 0.0 0.0 1.0
      outer loop
          vertex 0.8 0.7000000000000001 1
          vertex 0.5 0.8 1
          vertex 0.7000000000000001 0.7000000000000001 1
      endloop
  endfacet
  facet normal 0.31622776601683783 0.9486832980505139 0.0
      outer loop
          vertex 0.8 0.7000000000000001 0.01
          vertex 0.5 0.8 0.01
          vertex 0.5 0.8 1
      endloop
  endfacet
  facet normal 0.31622776601683783 0.9486832980505139 -0.0
      outer loop
          vertex 0.8 0.7000000000000001 0.01
          vertex 0.5 0.8 1
          vertex 0.8 0.7000000000000001 1
      endloop
  endfacet
  facet normal -0.4472135954999577 -0.894427190999916 0.0
      outer loop
          vertex 0.5 0.8 0.01
          vertex 0.7000000000000001 0.7000000000000001 0.01
          vertex 0.7000000000000001 0.7000000000000001 1
      endloop
  endfacet
  facet normal -0.4472135954999577 -0.894427190999916 0.0
      outer loop
          vertex 0.5 0.8 0.01
          vertex 0.7000000000000001 0.7000000000000001 1
          vertex 0.5 0.8 1
      endloop
  endfacet
  facet normal 0.0 -1.0 0.0
      outer loop
          vertex 0.7000000000000001 0.7000000000000001 0.01
          vertex 0.8 0.7000000000000001 0.01
          vertex 0.8 0.7000000000000001 1
      endloop
  endfacet
  facet normal 0.0 -1.0 0.0
      outer loop
          vertex 0.7000000000000001 0.7000000000000001 0.01
          vertex 0.8 0.7000000000000001 1
          vertex 0.7000000000000001 0.7000000000000001 1
      endloop
  endfacet
endsolid obstacle
