solid obstacle
  facet normal 0.0 0.0 -1.0
      outer loop
          vertex 2.6 4.6000000000000005 0.01
          vertex 1.8 3.8000000000000003 0.01
          vertex 1.3 4.3 0.01
      endloop
  endfacet
  facet normal 0.0 0.0 1.0
      outer loop
          vertex 2.6 4.6000000000000005 1
          vertex 1.3 4.3 1
          vertex 1.8 3.8000000000000003 1
      endloop
  endfacet
  facet normal -0.22485950669875895 0.9743911956946197 0.0
      outer loop
          vertex 2.6 4.6000000000000005 0.01
          vertex 1.3 4.3 0.01
          vertex 1.3 4.3 1
      endloop
  endfacet
  facet normal -0.22485950669875895 0.9743911956946197 0.0
      outer loop
          vertex 2.6 4.6000000000000005 0.01
          vertex 1.3 4.3 1
          vertex 2.6 4.6000000000000005 1
      endloop
  endfacet
  facet normal -0.7071067811865472 -0.7071067811865478 0.0
      outer loop
          vertex 1.3 4.3 0.01
          vertex 1.8 3.8000000000000003 0.01
          vertex 1.8 3.8000000000000003 1
      endloop
  endfacet
  facet normal -0.7071067811865472 -0.7071067811865478 0.0
      outer loop
          vertex 1.3 4.3 0.01
          vertex 1.8 3.8000000000000003 1
          vertex 1.3 4.3 1
      endloop
  endfacet
  facet normal 0.7071067811865476 -0.7071067811865474 0.0
      outer loop
          vertex 1.8 3.8000000000000003 0.01
          vertex 2.6 4.6000000000000005 0.01
          vertex 2.6 4.6000000000000005 1
      endloop
  endfacet
  facet normal 0.7071067811865476 -0.7071067811865474 0.0
      outer loop
          vertex 1.8 3.8000000000000003 0.01
          vertex 2.6 4.6000000000000005 1
          vertex 1.8 3.8000000000000003 1
      endloop
  endfacet
endsolid obstacle
