solid obstacle
  facet normal -0.0 0.0 -1.0
      outer loop
          vertex 2.5 2.1 0.01
          vertex 1.3 1.4000000000000001 0.01
          vertex 0.8 2.2 0.01
      endloop
  endfacet
  facet normal 0.0 0.0 -1.0
      outer loop
          vertex 2.5 2.1 0.01
          vertex 1.6 1.5 0.01
          vertex 1.3 1.4000000000000001 0.01
      endloop
  endfacet
  facet normal 0.0 0.0 1.0
      outer loop
          vertex 2.5 2.1 1
          vertex 0.8 2.2 1
          vertex 1.3 1.4000000000000001 1
      endloop
  endfacet
  facet normal 0.0 0.0 1.0
      outer loop
          vertex 2.5 2.1 1
          vertex 1.3 1.4000000000000001 1
          vertex 1.6 1.5 1
      endloop
  endfacet
  facet normal 0.0587220219514704 0.998274373174996 0.0
      outer loop
          vertex 2.5 2.1 0.01
          vertex 0.8 2.2 0.01
          vertex 0.8 2.2 1
      endloop
  endfacet
  facet normal 0.0587220219514704 0.998274373174996 -0.0
      outer loop
          vertex 2.5 2.1 0.01
          vertex 0.8 2.2 1
          vertex 2.5 2.1 1
      endloop
  endfacet
  facet normal -0.8479983040050879 -0.5299989400031799 0.0
      outer loop
          vertex 0.8 2.2 0.01
          vertex 1.3 1.4000000000000001 0.01
          vertex 1.3 1.4000000000000001 1
      endloop
  endfacet
  facet normal -0.8479983040050879 -0.5299989400031799 0.0
      outer loop
          vertex 0.8 2.2 0.01
          vertex 1.3 1.4000000000000001 1
          vertex 0.8 2.2 1
      endloop
  endfacet
  facet normal 0.31622776601683755 -0.948683298050514 0.0
      outer loop
          vertex 1.3 1.4000000000000001 0.01
          vertex 1.6 1.5 0.01
          vertex 1.6 1.5 1
      endloop
  endfacet
  facet normal 0.31622776601683755 -0.948683298050514 0.0
      outer loop
          vertex 1.3 1.4000000000000001 0.01
          vertex 1.6 1.5 1
          vertex 1.3 1.4000000000000001 1
      endloop
  endfacet
  facet normal 0.5547001962252293 -0.8320502943378436 0.0
      outer loop
          vertex 1.6 1.5 0.01
          vertex 2.5 2.1 0.01
          vertex 2.5 2.1 1
      endloop
  endfacet
  facet normal 0.5547001962252293 -0.8320502943378436 0.0
      outer loop
          vertex 1.6 1.5 0.01
          vertex 2.5 2.1 1
          vertex 1.6 1.5 1
      endloop
  endfacet
endsolid obstacle
