solid obstacle
  facet normal 0.0 0.0 -1.0
      outer loop
          vertex 1.2000000000000002 3.3000000000000003 0.1
          vertex 3.8000000000000003 2.2 0.1
          vertex 2.4000000000000004 1.7000000000000002 0.1
      endloop
  endfacet
  facet normal 0.0 0.0 -1.0
      outer loop
          vertex 1.2000000000000002 3.3000000000000003 0.1
          vertex 2.8000000000000003 3.3000000000000003 0.1
          vertex 3.8000000000000003 2.2 0.1
      endloop
  endfacet
  facet normal 0.0 0.0 1.0
      outer loop
          vertex 1.2000000000000002 3.3000000000000003 1
          vertex 2.4000000000000004 1.7000000000000002 1
          vertex 3.8000000000000003 2.2 1
      endloop
  endfacet
  facet normal -0.0 0.0 1.0
      outer loop
          vertex 1.2000000000000002 3.3000000000000003 1
          vertex 3.8000000000000003 2.2 1
          vertex 2.8000000000000003 3.3000000000000003 1
      endloop
  endfacet
  facet normal -0.7999999999999999 -0.6000000000000001 0.0
      outer loop
          vertex 1.2000000000000002 3.3000000000000003 0.1
          vertex 2.4000000000000004 1.7000000000000002 0.1
          vertex 2.4000000000000004 1.7000000000000002 1
      endloop
  endfacet
  facet normal -0.7999999999999999 -0.6000000000000001 0.0
      outer loop
          vertex 1.2000000000000002 3.3000000000000003 0.1
          vertex 2.4000000000000004 1.7000000000000002 1
          vertex 1.2000000000000002 3.3000000000000003 1
      endloop
  endfacet
  facet normal 0.3363363969981562 -0.9417419115948374 0.0
      outer loop
          vertex 2.4000000000000004 1.7000000000000002 0.1
          vertex 3.8000000000000003 2.2 0.1
          vertex 3.8000000000000003 2.2 1
      endloop
  endfacet
  facet normal 0.3363363969981562 -0.9417419115948374 0.0
      outer loop
          vertex 2.4000000000000004 1.7000000000000002 0.1
          vertex 3.8000000000000003 2.2 1
          vertex 2.4000000000000004 1.7000000000000002 1
      endloop
  endfacet
  facet normal 0.7399400733959438 0.6726727939963124 0.0
      outer loop
          vertex 3.8000000000000003 2.2 0.1
          vertex 2.8000000000000003 3.3000000000000003 0.1
          vertex 2.8000000000000003 3.3000000000000003 1
      endloop
  endfacet
  facet normal 0.7399400733959438 0.6726727939963124 -0.0
      outer loop
          vertex 3.8000000000000003 2.2 0.1
          vertex 2.8000000000000003 3.3000000000000003 1
          vertex 3.8000000000000003 2.2 1
      endloop
  endfacet
  facet normal 0.0 1.0 0.0
      outer loop
          vertex 2.8000000000000003 3.3000000000000003 0.1
          vertex 1.2000000000000002 3.3000000000000003 0.1
          vertex 1.2000000000000002 3.3000000000000003 1
      endloop
  endfacet
  facet normal 0.0 1.0 -0.0
      outer loop
          vertex 2.8000000000000003 3.3000000000000003 0.1
          vertex 1.2000000000000002 3.3000000000000003 1
          vertex 2.8000000000000003 3.3000000000000003 1
      endloop
  endfacet
endsolid obstacle
