solid obstacle
  facet normal 0.0 0.0 -1.0
      outer loop
          vertex 2.2 2.4000000000000004 0.1
          vertex 2.1 1.0 0.1
          vertex 2.0 0.9 0.1
      endloop
  endfacet
  facet normal 0.0 0.0 1.0
      outer loop
          vertex 2.2 2.4000000000000004 1
          vertex 2.0 0.9 1
          vertex 2.1 1.0 1
      endloop
  endfacet
  facet normal -0.9912279006826348 0.13216372009101804 0.0
      outer loop
          vertex 2.2 2.4000000000000004 0.1
          vertex 2.0 0.9 0.1
          vertex 2.0 0.9 1
      endloop
  endfacet
  facet normal -0.9912279006826348 0.13216372009101804 0.0
      outer loop
          vertex 2.2 2.4000000000000004 0.1
          vertex 2.0 0.9 1
          vertex 2.2 2.4000000000000004 1
      endloop
  endfacet
  facet normal 0.7071067811865471 -0.7071067811865479 0.0
      outer loop
          vertex 2.0 0.9 0.1
          vertex 2.1 1.0 0.1
          vertex 2.1 1.0 1
      endloop
  endfacet
  facet normal 0.7071067811865471 -0.7071067811865479 0.0
      outer loop
          vertex 2.0 0.9 0.1
          vertex 2.1 1.0 1
          vertex 2.0 0.9 1
      endloop
  endfacet
  facet normal 0.9974586998307351 -0.07124704998790968 0.0
      outer loop
          vertex 2.1 1.0 0.1
          vertex 2.2 2.4000000000000004 0.1
          vertex 2.2 2.4000000000000004 1
      endloop
  endfacet
  facet normal 0.9974586998307351 -0.07124704998790968 0.0
      outer loop
          vertex 2.1 1.0 0.1
          vertex 2.2 2.4000000000000004 1
          vertex 2.1 1.0 1
      endloop
  endfacet
endsolid obstacle
