solid obstacle
  facet normal 0.0 0.0 -1.0
      outer loop
          vertex 1.4000000000000001 1.5 0.01
          vertex 1.4000000000000001 3.1 0.01
          vertex 2.8000000000000003 2.3000000000000003 0.01
      endloop
  endfacet
  facet normal 0.0 0.0 1.0
      outer loop
          vertex 1.4000000000000001 1.5 1
          vertex 2.8000000000000003 2.3000000000000003 1
          vertex 1.4000000000000001 3.1 1
      endloop
  endfacet
  facet normal 0.4961389383568339 -0.8682431421244592 0.0
      outer loop
          vertex 1.4000000000000001 1.5 0.01
          vertex 2.8000000000000003 2.3000000000000003 0.01
          vertex 2.8000000000000003 2.3000000000000003 1
      endloop
  endfacet
  facet normal 0.4961389383568339 -0.8682431421244592 0.0
      outer loop
          vertex 1.4000000000000001 1.5 0.01
          vertex 2.8000000000000003 2.3000000000000003 1
          vertex 1.4000000000000001 1.5 1
      endloop
  endfacet
  facet normal 0.4961389383568337 0.8682431421244593 0.0
      outer loop
          vertex 2.8000000000000003 2.3000000000000003 0.01
          vertex 1.4000000000000001 3.1 0.01
          vertex 1.4000000000000001 3.1 1
      endloop
  endfacet
  facet normal 0.4961389383568337 0.8682431421244593 -0.0
      outer loop
          vertex 2.8000000000000003 2.3000000000000003 0.01
          vertex 1.4000000000000001 3.1 1
          vertex 2.8000000000000003 2.3000000000000003 1
      endloop
  endfacet
  facet normal -1.0 0.0 0.0
      outer loop
          vertex 1.4000000000000001 3.1 0.01
          vertex 1.4000000000000001 1.5 0.01
          vertex 1.4000000000000001 1.5 1
      endloop
  endfacet
  facet normal -1.0 0.0 0.0
      outer loop
          vertex 1.4000000000000001 3.1 0.01
          vertex 1.4000000000000001 1.5 1
          vertex 1.4000000000000001 3.1 1
      endloop
  endfacet
endsolid obstacle
