solid obstacle
  facet normal 0.0 -0.0 -1.0
      outer loop
          vertex 1.8 2.5 0.01
          vertex 2.0 1.7000000000000002 0.01
          vertex 0.5 1.4000000000000001 0.01
      endloop
  endfacet
  facet normal 0.0 0.0 -1.0
      outer loop
          vertex 1.8 2.5 0.01
          vertex 2.2 2.1 0.01
          vertex 2.0 1.7000000000000002 0.01
      endloop
  endfacet
  facet normal 0.0 0.0 1.0
      outer loop
          vertex 1.8 2.5 1
          vertex 0.5 1.4000000000000001 1
          vertex 2.0 1.7000000000000002 1
      endloop
  endfacet
  facet normal 0.0 0.0 1.0
      outer loop
          vertex 1.8 2.5 1
          vertex 2.0 1.7000000000000002 1
          vertex 2.2 2.1 1
      endloop
  endfacet
  facet normal -0.6459422414661738 0.7633862853691145 0.0
      outer loop
          vertex 1.8 2.5 0.01
          vertex 0.5 1.4000000000000001 0.01
          vertex 0.5 1.4000000000000001 1
      endloop
  endfacet
  facet normal -0.6459422414661738 0.7633862853691145 0.0
      outer loop
          vertex 1.8 2.5 0.01
          vertex 0.5 1.4000000000000001 1
          vertex 1.8 2.5 1
      endloop
  endfacet
  facet normal 0.1961161351381841 -0.9805806756909202 0.0
      outer loop
          vertex 0.5 1.4000000000000001 0.01
          vertex 2.0 1.7000000000000002 0.01
          vertex 2.0 1.7000000000000002 1
      endloop
  endfacet
  facet normal 0.1961161351381841 -0.9805806756909202 0.0
      outer loop
          vertex 0.5 1.4000000000000001 0.01
          vertex 2.0 1.7000000000000002 1
          vertex 0.5 1.4000000000000001 1
      endloop
  endfacet
  facet normal 0.8944271909999156 -0.4472135954999583 0.0
      outer loop
          vertex 2.0 1.7000000000000002 0.01
          vertex 2.2 2.1 0.01
          vertex 2.2 2.1 1
      endloop
  endfacet
  facet normal 0.8944271909999156 -0.4472135954999583 0.0
      outer loop
          vertex 2.0 1.7000000000000002 0.01
          vertex 2.2 2.1 1
          vertex 2.0 1.7000000000000002 1
      endloop
  endfacet
  facet normal 0.7071067811865474 0.7071067811865477 0.0
      outer loop
          vertex 2.2 2.1 0.01
          vertex 1.8 2.5 0.01
          vertex 1.8 2.5 1
      endloop
  endfacet
  facet normal 0.7071067811865474 0.7071067811865477 -0.0
      outer loop
          vertex 2.2 2.1 0.01
          vertex 1.8 2.5 1
          vertex 2.2 2.1 1
      endloop
  endfacet
endsolid obstacle
