solid obstacle
  facet normal 0.0 0.0 -1.0
      outer loop
          vertex 1.4000000000000001 1.9000000000000001 0.01
          vertex 1.5 3.6 0.01
          vertex 2.9000000000000004 2.4000000000000004 0.01
      endloop
  endfacet
  facet normal 0.0 0.0 1.0
      outer loop
          vertex 1.4000000000000001 1.9000000000000001 1
          vertex 2.9000000000000004 2.4000000000000004 1
          vertex 1.5 3.6 1
      endloop
  endfacet
  facet normal 0.31622776601683805 -0.9486832980505139 0.0
      outer loop
          vertex 1.4000000000000001 1.9000000000000001 0.01
          vertex 2.9000000000000004 2.4000000000000004 0.01
          vertex 2.9000000000000004 2.4000000000000004 1
      endloop
  endfacet
  facet normal 0.31622776601683805 -0.9486832980505139 0.0
      outer loop
          vertex 1.4000000000000001 1.9000000000000001 0.01
          vertex 2.9000000000000004 2.4000000000000004 1
          vertex 1.4000000000000001 1.9000000000000001 1
      endloop
  endfacet
  facet normal 0.6507913734559684 0.7592566023652968 0.0
      outer loop
          vertex 2.9000000000000004 2.4000000000000004 0.01
          vertex 1.5 3.6 0.01
          vertex 1.5 3.6 1
      endloop
  endfacet
  facet normal 0.6507913734559684 0.7592566023652968 -0.0
      outer loop
          vertex 2.9000000000000004 2.4000000000000004 0.01
          vertex 1.5 3.6 1
          vertex 2.9000000000000004 2.4000000000000004 1
      endloop
  endfacet
  facet normal -0.998274373174996 0.05872202195147027 0.0
      outer loop
          vertex 1.5 3.6 0.01
          vertex 1.4000000000000001 1.9000000000000001 0.01
          vertex 1.4000000000000001 1.9000000000000001 1
      endloop
  endfacet
  facet normal -0.998274373174996 0.05872202195147027 0.0
      outer loop
          vertex 1.5 3.6 0.01
          vertex 1.4000000000000001 1.9000000000000001 1
          vertex 1.5 3.6 1
      endloop
  endfacet
endsolid obstacle
