solid obstacle
  facet normal 0.0 -0.0 -1.0
      outer loop
          vertex 2.4000000000000004 4.3 0.01
          vertex 2.7 2.3000000000000003 0.01
          vertex 1.3 2.9000000000000004 0.01
      endloop
  endfacet
  facet normal 0.0 0.0 -1.0
      outer loop
          vertex 2.4000000000000004 4.3 0.01
          vertex 3.3000000000000003 2.9000000000000004 0.01
          vertex 2.7 2.3000000000000003 0.01
      endloop
  endfacet
  facet normal 0.0 0.0 1.0
      outer loop
          vertex 2.4000000000000004 4.3 1
          vertex 1.3 2.9000000000000004 1
          vertex 2.7 2.3000000000000003 1
      endloop
  endfacet
  facet normal 0.0 0.0 1.0
      outer loop
          vertex 2.4000000000000004 4.3 1
          vertex 2.7 2.3000000000000003 1
          vertex 3.3000000000000003 2.9000000000000004 1
      endloop
  endfacet
  facet normal -0.7863183388224224 0.6178215519319037 0.0
      outer loop
          vertex 2.4000000000000004 4.3 0.01
          vertex 1.3 2.9000000000000004 0.01
          vertex 1.3 2.9000000000000004 1
      endloop
  endfacet
  facet normal -0.7863183388224224 0.6178215519319037 0.0
      outer loop
          vertex 2.4000000000000004 4.3 0.01
          vertex 1.3 2.9000000000000004 1
          vertex 2.4000000000000004 4.3 1
      endloop
  endfacet
  facet normal -0.3939192985791677 -0.9191450300180579 0.0
      outer loop
          vertex 1.3 2.9000000000000004 0.01
          vertex 2.7 2.3000000000000003 0.01
          vertex 2.7 2.3000000000000003 1
      endloop
  endfacet
  facet normal -0.3939192985791677 -0.9191450300180579 0.0
      outer loop
          vertex 1.3 2.9000000000000004 0.01
          vertex 2.7 2.3000000000000003 1
          vertex 1.3 2.9000000000000004 1
      endloop
  endfacet
  facet normal 0.7071067811865475 -0.7071067811865475 0.0
      outer loop
          vertex 2.7 2.3000000000000003 0.01
          vertex 3.3000000000000003 2.9000000000000004 0.01
          vertex 3.3000000000000003 2.9000000000000004 1
      endloop
  endfacet
  facet normal 0.7071067811865475 -0.7071067811865475 0.0
      outer loop
          vertex 2.7 2.3000000000000003 0.01
          vertex 3.3000000000000003 2.9000000000000004 1
          vertex 2.7 2.3000000000000003 1
      endloop
  endfacet
  facet normal 0.8411784753765534 0.5407575913134988 0.0
      outer loop
          vertex 3.3000000000000003 2.9000000000000004 0.01
          vertex 2.4000000000000004 4.3 0.01
          vertex 2.4000000000000004 4.3 1
      endloop
  endfacet
  facet normal 0.8411784753765534 0.5407575913134988 -0.0
      outer loop
          vertex 3.3000000000000003 2.9000000000000004 0.01
          vertex 2.4000000000000004 4.3 1
          vertex 3.3000000000000003 2.9000000000000004 1
      endloop
  endfacet
endsolid obstacle
