solid obstacle
  facet normal 0.0 0.0 -1.0
      outer loop
          vertex 3.0 2.8000000000000003 0.1
          vertex 3.5 3.9000000000000004 0.1
          vertex 3.9000000000000004 2.3000000000000003 0.1
      endloop
  endfacet
  facet normal -0.0 0.0 1.0
      outer loop
          vertex 3.0 2.8000000000000003 1
          vertex 3.9000000000000004 2.3000000000000003 1
          vertex 3.5 3.9000000000000004 1
      endloop
  endfacet
  facet normal -0.48564293117863194 -0.8741572761215379 0.0
      outer loop
          vertex 3.0 2.8000000000000003 0.1
          vertex 3.9000000000000004 2.3000000000000003 0.1
          vertex 3.9000000000000004 2.3000000000000003 1
      endloop
  endfacet
  facet normal -0.48564293117863194 -0.8741572761215379 0.0
      outer loop
          vertex 3.0 2.8000000000000003 0.1
          vertex 3.9000000000000004 2.3000000000000003 1
          vertex 3.0 2.8000000000000003 1
      endloop
  endfacet
  facet normal 0.9701425001453319 0.24253562503633316 0.0
      outer loop
          vertex 3.9000000000000004 2.3000000000000003 0.1
          vertex 3.5 3.9000000000000004 0.1
          vertex 3.5 3.9000000000000004 1
      endloop
  endfacet
  facet normal 0.9701425001453319 0.24253562503633316 -0.0
      outer loop
          vertex 3.9000000000000004 2.3000000000000003 0.1
          vertex 3.5 3.9000000000000004 1
          vertex 3.9000000000000004 2.3000000000000003 1
      endloop
  endfacet
  facet normal -0.9103664774626048 0.413802944301184 0.0
      outer loop
          vertex 3.5 3.9000000000000004 0.1
          vertex 3.0 2.8000000000000003 0.1
          vertex 3.0 2.8000000000000003 1
      endloop
  endfacet
  facet normal -0.9103664774626048 0.413802944301184 0.0
      outer loop
          vertex 3.5 3.9000000000000004 0.1
          vertex 3.0 2.8000000000000003 1
          vertex 3.5 3.9000000000000004 1
      endloop
  endfacet
endsolid obstacle
