solid obstacle
  facet normal 0.0 0.0 -1.0
      outer loop
          vertex 3.3000000000000003 2.7 0.1
          vertex 3.5 3.5 0.1
          vertex 4.6000000000000005 3.4000000000000004 0.1
      endloop
  endfacet
  facet normal 0.0 0.0 1.0
      outer loop
          vertex 3.3000000000000003 2.7 1
          vertex 4.6000000000000005 3.4000000000000004 1
          vertex 3.5 3.5 1
      endloop
  endfacet
  facet normal 0.4740998230350175 -0.8804710999221753 0.0
      outer loop
          vertex 3.3000000000000003 2.7 0.1
          vertex 4.6000000000000005 3.4000000000000004 0.1
          vertex 4.6000000000000005 3.4000000000000004 1
      endloop
  endfacet
  facet normal 0.4740998230350175 -0.8804710999221753 0.0
      outer loop
          vertex 3.3000000000000003 2.7 0.1
          vertex 4.6000000000000005 3.4000000000000004 1
          vertex 3.3000000000000003 2.7 1
      endloop
  endfacet
  facet normal 0.09053574604251816 0.9958932064677039 0.0
      outer loop
          vertex 4.6000000000000005 3.4000000000000004 0.1
          vertex 3.5 3.5 0.1
          vertex 3.5 3.5 1
      endloop
  endfacet
  facet normal 0.09053574604251816 0.9958932064677039 -0.0
      outer loop
          vertex 4.6000000000000005 3.4000000000000004 0.1
          vertex 3.5 3.5 1
          vertex 4.6000000000000005 3.4000000000000004 1
      endloop
  endfacet
  facet normal -0.970142500145332 0.24253562503633275 0.0
      outer loop
          vertex 3.5 3.5 0.1
          vertex 3.3000000000000003 2.7 0.1
          vertex 3.3000000000000003 2.7 1
      endloop
  endfacet
  facet normal -0.970142500145332 0.24253562503633275 0.0
      outer loop
          vertex 3.5 3.5 0.1
          vertex 3.3000000000000003 2.7 1
          vertex 3.5 3.5 1
      endloop
  endfacet
endsolid obstacle
