solid obstacle
  facet normal 0.0 -0.0 -1.0
      outer loop
          vertex 3.7 2.4000000000000004 0.01
          vertex 3.7 0.7000000000000001 0.01
          vertex 2.1 1.2000000000000002 0.01
      endloop
  endfacet
  facet normal 0.0 0.0 1.0
      outer loop
          vertex 3.7 2.4000000000000004 1
          vertex 2.1 1.2000000000000002 1
          vertex 3.7 0.7000000000000001 1
      endloop
  endfacet
  facet normal -0.6 0.7999999999999999 0.0
      outer loop
          vertex 3.7 2.4000000000000004 0.01
          vertex 2.1 1.2000000000000002 0.01
          vertex 2.1 1.2000000000000002 1
      endloop
  endfacet
  facet normal -0.6 0.7999999999999999 0.0
      outer loop
          vertex 3.7 2.4000000000000004 0.01
          vertex 2.1 1.2000000000000002 1
          vertex 3.7 2.4000000000000004 1
      endloop
  endfacet
  facet normal -0.29827499313594685 -0.9544799780350298 0.0
      outer loop
          vertex 2.1 1.2000000000000002 0.01
          vertex 3.7 0.7000000000000001 0.01
          vertex 3.7 0.7000000000000001 1
      endloop
  endfacet
  facet normal -0.29827499313594685 -0.9544799780350298 0.0
      outer loop
          vertex 2.1 1.2000000000000002 0.01
          vertex 3.7 0.7000000000000001 1
          vertex 2.1 1.2000000000000002 1
      endloop
  endfacet
  facet normal 1.0 0.0 0.0
      outer loop
          vertex 3.7 0.7000000000000001 0.01
          vertex 3.7 2.4000000000000004 0.01
          vertex 3.7 2.4000000000000004 1
      endloop
  endfacet
  facet normal 1.0 0.0 0.0
      outer loop
          vertex 3.7 0.7000000000000001 0.01
          vertex 3.7 2.4000000000000004 1
          vertex 3.7 0.7000000000000001 1
      endloop
  endfacet
endsolid obstacle
