solid obstacle
  facet normal 0.0 0.0 -1.0
      outer loop
          vertex 0.0 1.5 0.01
          vertex 0.9 2.5 0.01
          vertex 0.6000000000000001 0.6000000000000001 0.01
      endloop
  endfacet
  facet normal 0.0 0.0 -1.0
      outer loop
          vertex 0.0 1.5 0.01
          vertex 0.2 3.2 0.01
          vertex 0.9 2.5 0.01
      endloop
  endfacet
  facet normal -0.0 0.0 1.0
      outer loop
          vertex 0.0 1.5 1
          vertex 0.6000000000000001 0.6000000000000001 1
          vertex 0.9 2.5 1
      endloop
  endfacet
  facet normal 0.0 0.0 1.0
      outer loop
          vertex 0.0 1.5 1
          vertex 0.9 2.5 1
          vertex 0.2 3.2 1
      endloop
  endfacet
  facet normal -0.8320502943378436 -0.5547001962252293 0.0
      outer loop
          vertex 0.0 1.5 0.01
          vertex 0.6000000000000001 0.6000000000000001 0.01
          vertex 0.6000000000000001 0.6000000000000001 1
      endloop
  endfacet
  facet normal -0.8320502943378436 -0.5547001962252293 0.0
      outer loop
          vertex 0.0 1.5 0.01
          vertex 0.6000000000000001 0.6000000000000001 1
          vertex 0.0 1.5 1
      endloop
  endfacet
  facet normal 0.987762965329069 -0.15596257347301087 0.0
      outer loop
          vertex 0.6000000000000001 0.6000000000000001 0.01
          vertex 0.9 2.5 0.01
          vertex 0.9 2.5 1
      endloop
  endfacet
  facet normal 0.987762965329069 -0.15596257347301087 0.0
      outer loop
          vertex 0.6000000000000001 0.6000000000000001 0.01
          vertex 0.9 2.5 1
          vertex 0.6000000000000001 0.6000000000000001 1
      endloop
  endfacet
  facet normal 0.7071067811865476 0.7071067811865474 0.0
      outer loop
          vertex 0.9 2.5 0.01
          vertex 0.2 3.2 0.01
          vertex 0.2 3.2 1
      endloop
  endfacet
  facet normal 0.7071067811865476 0.7071067811865474 -0.0
      outer loop
          vertex 0.9 2.5 0.01
          vertex 0.2 3.2 1
          vertex 0.9 2.5 1
      endloop
  endfacet
  facet normal -0.9931506043228762 0.1168412475673972 0.0
      outer loop
          vertex 0.2 3.2 0.01
          vertex 0.0 1.5 0.01
          vertex 0.0 1.5 1
      endloop
  endfacet
  facet normal -0.9931506043228762 0.1168412475673972 0.0
      outer loop
          vertex 0.2 3.2 0.01
          vertex 0.0 1.5 1
          vertex 0.2 3.2 1
      endloop
  endfacet
endsolid obstacle
