solid obstacle
  facet normal -0.0 0.0 -1.0
      outer loop
          vertex 1.7000000000000002 3.3000000000000003 0.1
          vertex 1.0 2.2 0.1
          vertex 0.9 3.6 0.1
      endloop
  endfacet
  facet normal 0.0 0.0 -1.0
      outer loop
          vertex 1.7000000000000002 3.3000000000000003 0.1
          vertex 1.2000000000000002 1.9000000000000001 0.1
          vertex 1.0 2.2 0.1
      endloop
  endfacet
  facet normal 0.0 0.0 1.0
      outer loop
          vertex 1.7000000000000002 3.3000000000000003 1
          vertex 0.9 3.6 1
          vertex 1.0 2.2 1
      endloop
  endfacet
  facet normal 0.0 0.0 1.0
      outer loop
          vertex 1.7000000000000002 3.3000000000000003 1
          vertex 1.0 2.2 1
          vertex 1.2000000000000002 1.9000000000000001 1
      endloop
  endfacet
  facet normal 0.35112344158839137 0.9363291775690445 0.0
      outer loop
          vertex 1.7000000000000002 3.3000000000000003 0.1
          vertex 0.9 3.6 0.1
          vertex 0.9 3.6 1
      endloop
  endfacet
  facet normal 0.35112344158839137 0.9363291775690445 -0.0
      outer loop
          vertex 1.7000000000000002 3.3000000000000003 0.1
          vertex 0.9 3.6 1
          vertex 1.7000000000000002 3.3000000000000003 1
      endloop
  endfacet
  facet normal -0.9974586998307351 -0.07124704998790964 0.0
      outer loop
          vertex 0.9 3.6 0.1
          vertex 1.0 2.2 0.1
          vertex 1.0 2.2 1
      endloop
  endfacet
  facet normal -0.9974586998307351 -0.07124704998790964 0.0
      outer loop
          vertex 0.9 3.6 0.1
          vertex 1.0 2.2 1
          vertex 0.9 3.6 1
      endloop
  endfacet
  facet normal -0.8320502943378436 -0.5547001962252294 0.0
      outer loop
          vertex 1.0 2.2 0.1
          vertex 1.2000000000000002 1.9000000000000001 0.1
          vertex 1.2000000000000002 1.9000000000000001 1
      endloop
  endfacet
  facet normal -0.8320502943378436 -0.5547001962252294 0.0
      outer loop
          vertex 1.0 2.2 0.1
          vertex 1.2000000000000002 1.9000000000000001 1
          vertex 1.0 2.2 1
      endloop
  endfacet
  facet normal 0.9417419115948374 -0.33633639699815615 0.0
      outer loop
          vertex 1.2000000000000002 1.9000000000000001 0.1
          vertex 1.7000000000000002 3.3000000000000003 0.1
          vertex 1.7000000000000002 3.3000000000000003 1
      endloop
  endfacet
  facet normal 0.9417419115948374 -0.33633639699815615 0.0
      outer loop
          vertex 1.2000000000000002 1.9000000000000001 0.1
          vertex 1.7000000000000002 3.3000000000000003 1
          vertex 1.2000000000000002 1.9000000000000001 1
      endloop
  endfacet
endsolid obstacle
