solid obstacle
  facet normal -0.0 0.0 -1.0
      outer loop
          vertex 2.5 1.7000000000000002 0.1
          vertex 1.8 0.6000000000000001 0.1
          vertex 1.8 1.8 0.1
      endloop
  endfacet
  facet normal 0.0 0.0 1.0
      outer loop
          vertex 2.5 1.7000000000000002 1
          vertex 1.8 1.8 1
          vertex 1.8 0.6000000000000001 1
      endloop
  endfacet
  facet normal 0.14142135623730934 0.9899494936611666 0.0
      outer loop
          vertex 2.5 1.7000000000000002 0.1
          vertex 1.8 1.8 0.1
          vertex 1.8 1.8 1
      endloop
  endfacet
  facet normal 0.14142135623730934 0.9899494936611666 -0.0
      outer loop
          vertex 2.5 1.7000000000000002 0.1
          vertex 1.8 1.8 1
          vertex 2.5 1.7000000000000002 1
      endloop
  endfacet
  facet normal -1.0 0.0 0.0
      outer loop
          vertex 1.8 1.8 0.1
          vertex 1.8 0.6000000000000001 0.1
          vertex 1.8 0.6000000000000001 1
      endloop
  endfacet
  facet normal -1.0 0.0 0.0
      outer loop
          vertex 1.8 1.8 0.1
          vertex 1.8 0.6000000000000001 1
          vertex 1.8 1.8 1
      endloop
  endfacet
  facet normal 0.8436614877321075 -0.5368754921931592 0.0
      outer loop
          vertex 1.8 0.6000000000000001 0.1
          vertex 2.5 1.7000000000000002 0.1
          vertex 2.5 1.7000000000000002 1
      endloop
  endfacet
  facet normal 0.8436614877321075 -0.5368754921931592 0.0
      outer loop
          vertex 1.8 0.6000000000000001 0.1
          vertex 2.5 1.7000000000000002 1
          vertex 1.8 0.6000000000000001 1
      endloop
  endfacet
endsolid obstacle
