solid obstacle
  facet normal 0.0 0.0 -1.0
      outer loop
          vertex 0.9 2.8000000000000003 0.01
          vertex 1.6 3.1 0.01
          vertex 2.5 2.7 0.01
      endloop
  endfacet
  facet normal -0.0 0.0 1.0
      outer loop
          vertex 0.9 2.8000000000000003 1
          vertex 2.5 2.7 1
          vertex 1.6 3.1 1
      endloop
  endfacet
  facet normal -0.06237828615518059 -0.9980525784828885 0.0
      outer loop
          vertex 0.9 2.8000000000000003 0.01
          vertex 2.5 2.7 0.01
          vertex 2.5 2.7 1
      endloop
  endfacet
  facet normal -0.06237828615518059 -0.9980525784828885 0.0
      outer loop
          vertex 0.9 2.8000000000000003 0.01
          vertex 2.5 2.7 1
          vertex 0.9 2.8000000000000003 1
      endloop
  endfacet
  facet normal 0.40613846605344756 0.9138115486202572 0.0
      outer loop
          vertex 2.5 2.7 0.01
          vertex 1.6 3.1 0.01
          vertex 1.6 3.1 1
      endloop
  endfacet
  facet normal 0.40613846605344756 0.9138115486202572 -0.0
      outer loop
          vertex 2.5 2.7 0.01
          vertex 1.6 3.1 1
          vertex 2.5 2.7 1
      endloop
  endfacet
  facet normal -0.3939192985791674 0.9191450300180579 0.0
      outer loop
          vertex 1.6 3.1 0.01
          vertex 0.9 2.8000000000000003 0.01
          vertex 0.9 2.8000000000000003 1
      endloop
  endfacet
  facet normal -0.3939192985791674 0.9191450300180579 0.0
      outer loop
          vertex 1.6 3.1 0.01
          vertex 0.9 2.8000000000000003 1
          vertex 1.6 3.1 1
      endloop
  endfacet
endsolid obstacle
