solid obstacle
  facet normal -0.0 0.0 -1.0
      outer loop
          vertex 3.2 3.3000000000000003 0.1
          vertex 2.4000000000000004 2.8000000000000003 0.1
          vertex 1.3 3.5 0.1
      endloop
  endfacet
  facet normal 0.0 0.0 -1.0
      outer loop
          vertex 3.2 3.3000000000000003 0.1
          vertex 2.8000000000000003 2.8000000000000003 0.1
          vertex 2.4000000000000004 2.8000000000000003 0.1
      endloop
  endfacet
  facet normal 0.0 0.0 1.0
      outer loop
          vertex 3.2 3.3000000000000003 1
          vertex 1.3 3.5 1
          vertex 2.4000000000000004 2.8000000000000003 1
      endloop
  endfacet
  facet normal 0.0 0.0 1.0
      outer loop
          vertex 3.2 3.3000000000000003 1
          vertex 2.4000000000000004 2.8000000000000003 1
          vertex 2.8000000000000003 2.8000000000000003 1
      endloop
  endfacet
  facet normal 0.1046847845180426 0.994505452921406 0.0
      outer loop
          vertex 3.2 3.3000000000000003 0.1
          vertex 1.3 3.5 0.1
          vertex 1.3 3.5 1
      endloop
  endfacet
  facet normal 0.1046847845180426 0.994505452921406 -0.0
      outer loop
          vertex 3.2 3.3000000000000003 0.1
          vertex 1.3 3.5 1
          vertex 3.2 3.3000000000000003 1
      endloop
  endfacet
  facet normal -0.536875492193159 -0.8436614877321076 0.0
      outer loop
          vertex 1.3 3.5 0.1
          vertex 2.4000000000000004 2.8000000000000003 0.1
          vertex 2.4000000000000004 2.8000000000000003 1
      endloop
  endfacet
  facet normal -0.536875492193159 -0.8436614877321076 0.0
      outer loop
          vertex 1.3 3.5 0.1
          vertex 2.4000000000000004 2.8000000000000003 1
          vertex 1.3 3.5 1
      endloop
  endfacet
  facet normal 0.0 -1.0 0.0
      outer loop
          vertex 2.4000000000000004 2.8000000000000003 0.1
          vertex 2.8000000000000003 2.8000000000000003 0.1
          vertex 2.8000000000000003 2.8000000000000003 1
      endloop
  endfacet
  facet normal 0.0 -1.0 0.0
      outer loop
          vertex 2.4000000000000004 2.8000000000000003 0.1
          vertex 2.8000000000000003 2.8000000000000003 1
          vertex 2.4000000000000004 2.8000000000000003 1
      endloop
  endfacet
  facet normal 0.7808688094430304 -0.6246950475544242 0.0
      outer loop
          vertex 2.8000000000000003 2.8000000000000003 0.1
          vertex 3.2 3.3000000000000003 0.1
          vertex 3.2 3.3000000000000003 1
      endloop
  endfacet
  facet normal 0.7808688094430304 -0.6246950475544242 0.0
      outer loop
          vertex 2.8000000000000003 2.8000000000000003 0.1
          vertex 3.2 3.3000000000000003 1
          vertex 2.8000000000000003 2.8000000000000003 1
      endloop
  endfacet
endsolid obstacle
