solid obstacle
  facet normal 0.0 0.0 -1.0
      outer loop
          vertex 1.2000000000000002 0.8 0.01
          vertex 0.9 0.6000000000000001 0.01
          vertex 0.8 0.6000000000000001 0.01
      endloop
  endfacet
  facet normal 0.0 0.0 1.0
      outer loop
          vertex 1.2000000000000002 0.8 1
          vertex 0.8 0.6000000000000001 1
          vertex 0.9 0.6000000000000001 1
      endloop
  endfacet
  facet normal -0.4472135954999577 0.894427190999916 0.0
      outer loop
          vertex 1.2000000000000002 0.8 0.01
          vertex 0.8 0.6000000000000001 0.01
          vertex 0.8 0.6000000000000001 1
      endloop
  endfacet
  facet normal -0.4472135954999577 0.894427190999916 0.0
      outer loop
          vertex 1.2000000000000002 0.8 0.01
          vertex 0.8 0.6000000000000001 1
          vertex 1.2000000000000002 0.8 1
      endloop
  endfacet
  facet normal 0.0 -1.0 0.0
      outer loop
          vertex 0.8 0.6000000000000001 0.01
          vertex 0.9 0.6000000000000001 0.01
          vertex 0.9 0.6000000000000001 1
      endloop
  endfacet
  facet normal 0.0 -1.0 0.0
      outer loop
          vertex 0.8 0.6000000000000001 0.01
          vertex 0.9 0.6000000000000001 1
          vertex 0.8 0.6000000000000001 1
      endloop
  endfacet
  facet normal 0.5547001962252288 -0.8320502943378438 0.0
      outer loop
          vertex 0.9 0.6000000000000001 0.01
          vertex 1.2000000000000002 0.8 0.01
          vertex 1.2000000000000002 0.8 1
      endloop
  endfacet
  facet normal 0.5547001962252288 -0.8320502943378438 0.0
      outer loop
          vertex 0.9 0.6000000000000001 0.01
          vertex 1.2000000000000002 0.8 1
          vertex 0.9 0.6000000000000001 1
      endloop
  endfacet
endsolid obstacle
