solid obstacle
  facet normal -0.0 0.0 -1.0
      outer loop
          vertex 2.4000000000000004 3.5 0.1
          vertex 2.3000000000000003 3.1 0.1
          vertex 1.1 4.7 0.1
      endloop
  endfacet
  facet normal 0.0 0.0 1.0
      outer loop
          vertex 2.4000000000000004 3.5 1
          vertex 1.1 4.7 1
          vertex 2.3000000000000003 3.1 1
      endloop
  endfacet
  facet normal 0.6782801027330657 0.7348034446274879 0.0
      outer loop
          vertex 2.4000000000000004 3.5 0.1
          vertex 1.1 4.7 0.1
          vertex 1.1 4.7 1
      endloop
  endfacet
  facet normal 0.6782801027330657 0.7348034446274879 -0.0
      outer loop
          vertex 2.4000000000000004 3.5 0.1
          vertex 1.1 4.7 1
          vertex 2.4000000000000004 3.5 1
      endloop
  endfacet
  facet normal -0.7999999999999999 -0.6000000000000001 0.0
      outer loop
          vertex 1.1 4.7 0.1
          vertex 2.3000000000000003 3.1 0.1
          vertex 2.3000000000000003 3.1 1
      endloop
  endfacet
  facet normal -0.7999999999999999 -0.6000000000000001 0.0
      outer loop
          vertex 1.1 4.7 0.1
          vertex 2.3000000000000003 3.1 1
          vertex 1.1 4.7 1
      endloop
  endfacet
  facet normal 0.9701425001453319 -0.24253562503633322 0.0
      outer loop
          vertex 2.3000000000000003 3.1 0.1
          vertex 2.4000000000000004 3.5 0.1
          vertex 2.4000000000000004 3.5 1
      endloop
  endfacet
  facet normal 0.9701425001453319 -0.24253562503633322 0.0
      outer loop
          vertex 2.3000000000000003 3.1 0.1
          vertex 2.4000000000000004 3.5 1
          vertex 2.3000000000000003 3.1 1
      endloop
  endfacet
endsolid obstacle
