solid obstacle
  facet normal 0.0 0.0 -1.0
      outer loop
          vertex 3.2 4.2 0.01
          vertex 3.4000000000000004 3.7 0.01
          vertex 3.4000000000000004 2.3000000000000003 0.01
      endloop
  endfacet
  facet normal 0.0 0.0 1.0
      outer loop
          vertex 3.2 4.2 1
          vertex 3.4000000000000004 2.3000000000000003 1
          vertex 3.4000000000000004 3.7 1
      endloop
  endfacet
  facet normal -0.994505452921406 -0.10468478451804282 0.0
      outer loop
          vertex 3.2 4.2 0.01
          vertex 3.4000000000000004 2.3000000000000003 0.01
          vertex 3.4000000000000004 2.3000000000000003 1
      endloop
  endfacet
  facet normal -0.994505452921406 -0.10468478451804282 0.0
      outer loop
          vertex 3.2 4.2 0.01
          vertex 3.4000000000000004 2.3000000000000003 1
          vertex 3.2 4.2 1
      endloop
  endfacet
  facet normal 1.0 0.0 0.0
      outer loop
          vertex 3.4000000000000004 2.3000000000000003 0.01
          vertex 3.4000000000000004 3.7 0.01
          vertex 3.4000000000000004 3.7 1
      endloop
  endfacet
  facet normal 1.0 0.0 0.0
      outer loop
          vertex 3.4000000000000004 2.3000000000000003 0.01
          vertex 3.4000000000000004 3.7 1
          vertex 3.4000000000000004 2.3000000000000003 1
      endloop
  endfacet
  facet normal 0.9284766908852593 0.37139067635410405 0.0
      outer loop
          vertex 3.4000000000000004 3.7 0.01
          vertex 3.2 4.2 0.01
          vertex 3.2 4.2 1
      endloop
  endfacet
  facet normal 0.9284766908852593 0.37139067635410405 -0.0
      outer loop
          vertex 3.4000000000000004 3.7 0.01
          vertex 3.2 4.2 1
          vertex 3.4000000000000004 3.7 1
      endloop
  endfacet
endsolid obstacle
