solid obstacle
  facet normal 0.0 0.0 -1.0
      outer loop
          vertex 2.5 1.7000000000000002 0.1
          vertex 3.8000000000000003 3.0 0.1
          vertex 4.0 2.2 0.1
      endloop
  endfacet
  facet normal 0.0 0.0 1.0
      outer loop
          vertex 2.5 1.7000000000000002 1
          vertex 4.0 2.2 1
          vertex 3.8000000000000003 3.0 1
      endloop
  endfacet
  facet normal 0.31622776601683794 -0.9486832980505138 0.0
      outer loop
          vertex 2.5 1.7000000000000002 0.1
          vertex 4.0 2.2 0.1
          vertex 4.0 2.2 1
      endloop
  endfacet
  facet normal 0.31622776601683794 -0.9486832980505138 0.0
      outer loop
          vertex 2.5 1.7000000000000002 0.1
          vertex 4.0 2.2 1
          vertex 2.5 1.7000000000000002 1
      endloop
  endfacet
  facet normal 0.970142500145332 0.24253562503633275 0.0
      outer loop
          vertex 4.0 2.2 0.1
          vertex 3.8000000000000003 3.0 0.1
          vertex 3.8000000000000003 3.0 1
      endloop
  endfacet
  facet normal 0.970142500145332 0.24253562503633275 -0.0
      outer loop
          vertex 4.0 2.2 0.1
          vertex 3.8000000000000003 3.0 1
          vertex 4.0 2.2 1
      endloop
  endfacet
  facet normal -0.7071067811865474 0.7071067811865477 0.0
      outer loop
          vertex 3.8000000000000003 3.0 0.1
          vertex 2.5 1.7000000000000002 0.1
          vertex 2.5 1.7000000000000002 1
      endloop
  endfacet
  facet normal -0.7071067811865474 0.7071067811865477 0.0
      outer loop
          vertex 3.8000000000000003 3.0 0.1
          vertex 2.5 1.7000000000000002 1
          vertex 3.8000000000000003 3.0 1
      endloop
  endfacet
endsolid obstacle
