solid obstacle
  facet normal 0.0 0.0 -1.0
      outer loop
          vertex 3.1 2.3000000000000003 0.01
          vertex 3.3000000000000003 2.8000000000000003 0.01
          vertex 4.7 2.9000000000000004 0.01
      endloop
  endfacet
  facet normal 0.0 0.0 1.0
      outer loop
          vertex 3.1 2.3000000000000003 1
          vertex 4.7 2.9000000000000004 1
          vertex 3.3000000000000003 2.8000000000000003 1
      endloop
  endfacet
  facet normal 0.3511234415883917 -0.9363291775690445 0.0
      outer loop
          vertex 3.1 2.3000000000000003 0.01
          vertex 4.7 2.9000000000000004 0.01
          vertex 4.7 2.9000000000000004 1
      endloop
  endfacet
  facet normal 0.3511234415883917 -0.9363291775690445 0.0
      outer loop
          vertex 3.1 2.3000000000000003 0.01
          vertex 4.7 2.9000000000000004 1
          vertex 3.1 2.3000000000000003 1
      endloop
  endfacet
  facet normal -0.0712470499879097 0.997458699830735 0.0
      outer loop
          vertex 4.7 2.9000000000000004 0.01
          vertex 3.3000000000000003 2.8000000000000003 0.01
          vertex 3.3000000000000003 2.8000000000000003 1
      endloop
  endfacet
  facet normal -0.0712470499879097 0.997458699830735 0.0
      outer loop
          vertex 4.7 2.9000000000000004 0.01
          vertex 3.3000000000000003 2.8000000000000003 1
          vertex 4.7 2.9000000000000004 1
      endloop
  endfacet
  facet normal -0.9284766908852593 0.37139067635410405 0.0
      outer loop
          vertex 3.3000000000000003 2.8000000000000003 0.01
          vertex 3.1 2.3000000000000003 0.01
          vertex 3.1 2.3000000000000003 1
      endloop
  endfacet
  facet normal -0.9284766908852593 0.37139067635410405 0.0
      outer loop
          vertex 3.3000000000000003 2.8000000000000003 0.01
          vertex 3.1 2.3000000000000003 1
          vertex 3.3000000000000003 2.8000000000000003 1
      endloop
  endfacet
endsolid obstacle
