solid obstacle
  facet normal 0.0 0.0 -1.0
      outer loop
          vertex 0.9 2.9000000000000004 0.1
          vertex 1.1 4.4 0.1
          vertex 1.5 4.2 0.1
      endloop
  endfacet
  facet normal 0.0 0.0 1.0
      outer loop
          vertex 0.9 2.9000000000000004 1
          vertex 1.5 4.2 1
          vertex 1.1 4.4 1
      endloop
  endfacet
  facet normal 0.9079593845004517 -0.41905817746174695 0.0
      outer loop
          vertex 0.9 2.9000000000000004 0.1
          vertex 1.5 4.2 0.1
          vertex 1.5 4.2 1
      endloop
  endfacet
  facet normal 0.9079593845004517 -0.41905817746174695 0.0
      outer loop
          vertex 0.9 2.9000000000000004 0.1
          vertex 1.5 4.2 1
          vertex 0.9 2.9000000000000004 1
      endloop
  endfacet
  facet normal 0.4472135954999583 0.8944271909999157 0.0
      outer loop
          vertex 1.5 4.2 0.1
          vertex 1.1 4.4 0.1
          vertex 1.1 4.4 1
      endloop
  endfacet
  facet normal 0.4472135954999583 0.8944271909999157 -0.0
      outer loop
          vertex 1.5 4.2 0.1
          vertex 1.1 4.4 1
          vertex 1.5 4.2 1
      endloop
  endfacet
  facet normal -0.9912279006826346 0.13216372009101798 0.0
      outer loop
          vertex 1.1 4.4 0.1
          vertex 0.9 2.9000000000000004 0.1
          vertex 0.9 2.9000000000000004 1
      endloop
  endfacet
  facet normal -0.9912279006826346 0.13216372009101798 0.0
      outer loop
          vertex 1.1 4.4 0.1
          vertex 0.9 2.9000000000000004 1
          vertex 1.1 4.4 1
      endloop
  endfacet
endsolid obstacle
