solid obstacle
  facet normal 0.0 0.0 -1.0
      outer loop
          vertex 4.6000000000000005 2.5 0.01
          vertex 4.2 1.9000000000000001 0.01
          vertex 3.6 1.3 0.01
      endloop
  endfacet
  facet normal 0.0 0.0 1.0
      outer loop
          vertex 4.6000000000000005 2.5 1
          vertex 3.6 1.3 1
          vertex 4.2 1.9000000000000001 1
      endloop
  endfacet
  facet normal -0.7682212795973756 0.64018439966448 0.0
      outer loop
          vertex 4.6000000000000005 2.5 0.01
          vertex 3.6 1.3 0.01
          vertex 3.6 1.3 1
      endloop
  endfacet
  facet normal -0.7682212795973756 0.64018439966448 0.0
      outer loop
          vertex 4.6000000000000005 2.5 0.01
          vertex 3.6 1.3 1
          vertex 4.6000000000000005 2.5 1
      endloop
  endfacet
  facet normal 0.7071067811865475 -0.7071067811865475 0.0
      outer loop
          vertex 3.6 1.3 0.01
          vertex 4.2 1.9000000000000001 0.01
          vertex 4.2 1.9000000000000001 1
      endloop
  endfacet
  facet normal 0.7071067811865475 -0.7071067811865475 0.0
      outer loop
          vertex 3.6 1.3 0.01
          vertex 4.2 1.9000000000000001 1
          vertex 3.6 1.3 1
      endloop
  endfacet
  facet normal 0.8320502943378434 -0.5547001962252296 0.0
      outer loop
          vertex 4.2 1.9000000000000001 0.01
          vertex 4.6000000000000005 2.5 0.01
          vertex 4.6000000000000005 2.5 1
      endloop
  endfacet
  facet normal 0.8320502943378434 -0.5547001962252296 0.0
      outer loop
          vertex 4.2 1.9000000000000001 0.01
          vertex 4.6000000000000005 2.5 1
          vertex 4.2 1.9000000000000001 1
      endloop
  endfacet
endsolid obstacle
