solid obstacle
  facet normal 0.0 0.0 -1.0
      outer loop
          vertex 1.3 3.7 0.01
          vertex 1.0 3.1 0.01
          vertex 0.8 3.3000000000000003 0.01
      endloop
  endfacet
  facet normal 0.0 0.0 1.0
      outer loop
          vertex 1.3 3.7 1
          vertex 0.8 3.3000000000000003 1
          vertex 1.0 3.1 1
      endloop
  endfacet
  facet normal -0.6246950475544242 0.7808688094430304 0.0
      outer loop
          vertex 1.3 3.7 0.01
          vertex 0.8 3.3000000000000003 0.01
          vertex 0.8 3.3000000000000003 1
      endloop
  endfacet
  facet normal -0.6246950475544242 0.7808688094430304 0.0
      outer loop
          vertex 1.3 3.7 0.01
          vertex 0.8 3.3000000000000003 1
          vertex 1.3 3.7 1
      endloop
  endfacet
  facet normal -0.7071067811865479 -0.707106781186547 0.0
      outer loop
          vertex 0.8 3.3000000000000003 0.01
          vertex 1.0 3.1 0.01
          vertex 1.0 3.1 1
      endloop
  endfacet
  facet normal -0.7071067811865479 -0.707106781186547 0.0
      outer loop
          vertex 0.8 3.3000000000000003 0.01
          vertex 1.0 3.1 1
          vertex 0.8 3.3000000000000003 1
      endloop
  endfacet
  facet normal 0.8944271909999159 -0.4472135954999579 0.0
      outer loop
          vertex 1.0 3.1 0.01
          vertex 1.3 3.7 0.01
          vertex 1.3 3.7 1
      endloop
  endfacet
  facet normal 0.8944271909999159 -0.4472135954999579 0.0
      outer loop
          vertex 1.0 3.1 0.01
          vertex 1.3 3.7 1
          vertex 1.0 3.1 1
      endloop
  endfacet
endsolid obstacle
