solid obstacle
  facet normal 0.0 0.0 -1.0
      outer loop
          vertex 1.2000000000000002 1.1 0.01
          vertex 1.3 2.4000000000000004 0.01
          vertex 2.9000000000000004 1.3 0.01
      endloop
  endfacet
  facet normal 0.0 0.0 1.0
      outer loop
          vertex 1.2000000000000002 1.1 1
          vertex 2.9000000000000004 1.3 1
          vertex 1.3 2.4000000000000004 1
      endloop
  endfacet
  facet normal 0.11684124756739717 -0.9931506043228762 0.0
      outer loop
          vertex 1.2000000000000002 1.1 0.01
          vertex 2.9000000000000004 1.3 0.01
          vertex 2.9000000000000004 1.3 1
      endloop
  endfacet
  facet normal 0.11684124756739717 -0.9931506043228762 0.0
      outer loop
          vertex 1.2000000000000002 1.1 0.01
          vertex 2.9000000000000004 1.3 1
          vertex 1.2000000000000002 1.1 1
      endloop
  endfacet
  facet normal 0.5665288228870652 0.8240419241993676 0.0
      outer loop
          vertex 2.9000000000000004 1.3 0.01
          vertex 1.3 2.4000000000000004 0.01
          vertex 1.3 2.4000000000000004 1
      endloop
  endfacet
  facet normal 0.5665288228870652 0.8240419241993676 -0.0
      outer loop
          vertex 2.9000000000000004 1.3 0.01
          vertex 1.3 2.4000000000000004 1
          vertex 2.9000000000000004 1.3 1
      endloop
  endfacet
  facet normal -0.9970544855015815 0.07669649888473692 0.0
      outer loop
          vertex 1.3 2.4000000000000004 0.01
          vertex 1.2000000000000002 1.1 0.01
          vertex 1.2000000000000002 1.1 1
      endloop
  endfacet
  facet normal -0.9970544855015815 0.07669649888473692 0.0
      outer loop
          vertex 1.3 2.4000000000000004 0.01
          vertex 1.2000000000000002 1.1 1
          vertex 1.3 2.4000000000000004 1
      endloop
  endfacet
endsolid obstacle
