solid obstacle
  facet normal 0.0 0.0 -1.0
      outer loop
          vertex 3.5 3.5 0.01
          vertex 1.8 4.2 0.01
          vertex 1.7000000000000002 4.3 0.01
      endloop
  endfacet
  facet normal 0.0 0.0 1.0
      outer loop
          vertex 3.5 3.5 1
          vertex 1.7000000000000002 4.3 1
          vertex 1.8 4.2 1
      endloop
  endfacet
  facet normal 0.40613846605344756 0.9138115486202572 0.0
      outer loop
          vertex 3.5 3.5 0.01
          vertex 1.7000000000000002 4.3 0.01
          vertex 1.7000000000000002 4.3 1
      endloop
  endfacet
  facet normal 0.40613846605344756 0.9138115486202572 -0.0
      outer loop
          vertex 3.5 3.5 0.01
          vertex 1.7000000000000002 4.3 1
          vertex 3.5 3.5 1
      endloop
  endfacet
  facet normal -0.7071067811865467 -0.7071067811865482 0.0
      outer loop
          vertex 1.7000000000000002 4.3 0.01
          vertex 1.8 4.2 0.01
          vertex 1.8 4.2 1
      endloop
  endfacet
  facet normal -0.7071067811865467 -0.7071067811865482 0.0
      outer loop
          vertex 1.7000000000000002 4.3 0.01
          vertex 1.8 4.2 1
          vertex 1.7000000000000002 4.3 1
      endloop
  endfacet
  facet normal -0.38074980525429486 -0.9246780984747159 0.0
      outer loop
          vertex 1.8 4.2 0.01
          vertex 3.5 3.5 0.01
          vertex 3.5 3.5 1
      endloop
  endfacet
  facet normal -0.38074980525429486 -0.9246780984747159 0.0
      outer loop
          vertex 1.8 4.2 0.01
          vertex 3.5 3.5 1
          vertex 1.8 4.2 1
      endloop
  endfacet
endsolid obstacle
