solid obstacle
  facet normal 0.0 0.0 -1.0
      outer loop
          vertex 1.8 4.4 0.1
          vertex 1.7000000000000002 2.8000000000000003 0.1
          vertex 1.2000000000000002 3.7 0.1
      endloop
  endfacet
  facet normal 0.0 -0.0 -1.0
      outer loop
          vertex 1.8 4.4 0.1
          vertex 1.9000000000000001 2.9000000000000004 0.1
          vertex 1.7000000000000002 2.8000000000000003 0.1
      endloop
  endfacet
  facet normal 0.0 0.0 1.0
      outer loop
          vertex 1.8 4.4 1
          vertex 1.2000000000000002 3.7 1
          vertex 1.7000000000000002 2.8000000000000003 1
      endloop
  endfacet
  facet normal 0.0 0.0 1.0
      outer loop
          vertex 1.8 4.4 1
          vertex 1.7000000000000002 2.8000000000000003 1
          vertex 1.9000000000000001 2.9000000000000004 1
      endloop
  endfacet
  facet normal -0.7592566023652967 0.6507913734559683 0.0
      outer loop
          vertex 1.8 4.4 0.1
          vertex 1.2000000000000002 3.7 0.1
          vertex 1.2000000000000002 3.7 1
      endloop
  endfacet
  facet normal -0.7592566023652967 0.6507913734559683 0.0
      outer loop
          vertex 1.8 4.4 0.1
          vertex 1.2000000000000002 3.7 1
          vertex 1.8 4.4 1
      endloop
  endfacet
  facet normal -0.8741572761215377 -0.4856429311786321 0.0
      outer loop
          vertex 1.2000000000000002 3.7 0.1
          vertex 1.7000000000000002 2.8000000000000003 0.1
          vertex 1.7000000000000002 2.8000000000000003 1
      endloop
  endfacet
  facet normal -0.8741572761215377 -0.4856429311786321 0.0
      outer loop
          vertex 1.2000000000000002 3.7 0.1
          vertex 1.7000000000000002 2.8000000000000003 1
          vertex 1.2000000000000002 3.7 1
      endloop
  endfacet
  facet normal 0.4472135954999583 -0.8944271909999157 0.0
      outer loop
          vertex 1.7000000000000002 2.8000000000000003 0.1
          vertex 1.9000000000000001 2.9000000000000004 0.1
          vertex 1.9000000000000001 2.9000000000000004 1
      endloop
  endfacet
  facet normal 0.4472135954999583 -0.8944271909999157 0.0
      outer loop
          vertex 1.7000000000000002 2.8000000000000003 0.1
          vertex 1.9000000000000001 2.9000000000000004 1
          vertex 1.7000000000000002 2.8000000000000003 1
      endloop
  endfacet
  facet normal 0.997785157856609 0.06651901052377399 0.0
      outer loop
          vertex 1.9000000000000001 2.9000000000000004 0.1
          vertex 1.8 4.4 0.1
          vertex 1.8 4.4 1
      endloop
  endfacet
  facet normal 0.997785157856609 0.06651901052377399 -0.0
      outer loop
          vertex 1.9000000000000001 2.9000000000000004 0.1
          vertex 1.8 4.4 1
          vertex 1.9000000000000001 2.9000000000000004 1
      endloop
  endfacet
endsolid obstacle
