solid obstacle
  facet normal -0.0 0.0 -1.0
      outer loop
          vertex 2.8000000000000003 3.6 0.01
          vertex 1.7000000000000002 3.5 0.01
          vertex 1.0 4.3 0.01
      endloop
  endfacet
  facet normal 0.0 0.0 -1.0
      outer loop
          vertex 2.8000000000000003 3.6 0.01
          vertex 2.1 3.5 0.01
          vertex 1.7000000000000002 3.5 0.01
      endloop
  endfacet
  facet normal 0.0 0.0 1.0
      outer loop
          vertex 2.8000000000000003 3.6 1
          vertex 1.0 4.3 1
          vertex 1.7000000000000002 3.5 1
      endloop
  endfacet
  facet normal 0.0 0.0 1.0
      outer loop
          vertex 2.8000000000000003 3.6 1
          vertex 1.7000000000000002 3.5 1
          vertex 2.1 3.5 1
      endloop
  endfacet
  facet normal 0.36244626115494827 0.932004671541296 0.0
      outer loop
          vertex 2.8000000000000003 3.6 0.01
          vertex 1.0 4.3 0.01
          vertex 1.0 4.3 1
      endloop
  endfacet
  facet normal 0.36244626115494827 0.932004671541296 -0.0
      outer loop
          vertex 2.8000000000000003 3.6 0.01
          vertex 1.0 4.3 1
          vertex 2.8000000000000003 3.6 1
      endloop
  endfacet
  facet normal -0.7525766947068776 -0.6585046078685183 0.0
      outer loop
          vertex 1.0 4.3 0.01
          vertex 1.7000000000000002 3.5 0.01
          vertex 1.7000000000000002 3.5 1
      endloop
  endfacet
  facet normal -0.7525766947068776 -0.6585046078685183 0.0
      outer loop
          vertex 1.0 4.3 0.01
          vertex 1.7000000000000002 3.5 1
          vertex 1.0 4.3 1
      endloop
  endfacet
  facet normal 0.0 -1.0 0.0
      outer loop
          vertex 1.7000000000000002 3.5 0.01
          vertex 2.1 3.5 0.01
          vertex 2.1 3.5 1
      endloop
  endfacet
  facet normal 0.0 -1.0 0.0
      outer loop
          vertex 1.7000000000000002 3.5 0.01
          vertex 2.1 3.5 1
          vertex 1.7000000000000002 3.5 1
      endloop
  endfacet
  facet normal 0.1414213562373096 -0.9899494936611665 0.0
      outer loop
          vertex 2.1 3.5 0.01
          vertex 2.8000000000000003 3.6 0.01
          vertex 2.8000000000000003 3.6 1
      endloop
  endfacet
  facet normal 0.1414213562373096 -0.9899494936611665 0.0
      outer loop
          vertex 2.1 3.5 0.01
          vertex 2.8000000000000003 3.6 1
          vertex 2.1 3.5 1
      endloop
  endfacet
endsolid obstacle
