solid obstacle
  facet normal 0.0 0.0 -1.0
      outer loop
          vertex 4.800000000000001 0.5 0.01
          vertex 3.9000000000000004 0.6000000000000001 0.01
          vertex 3.1 0.7000000000000001 0.01
      endloop
  endfacet
  facet normal 0.0 0.0 1.0
      outer loop
          vertex 4.800000000000001 0.5 1
          vertex 3.1 0.7000000000000001 1
          vertex 3.9000000000000004 0.6000000000000001 1
      endloop
  endfacet
  facet normal 0.11684124756739721 0.9931506043228762 0.0
      outer loop
          vertex 4.800000000000001 0.5 0.01
          vertex 3.1 0.7000000000000001 0.01
          vertex 3.1 0.7000000000000001 1
      endloop
  endfacet
  facet normal 0.11684124756739721 0.9931506043228762 -0.0
      outer loop
          vertex 4.800000000000001 0.5 0.01
          vertex 3.1 0.7000000000000001 1
          vertex 4.800000000000001 0.5 1
      endloop
  endfacet
  facet normal -0.1240347345892084 -0.9922778767136677 0.0
      outer loop
          vertex 3.1 0.7000000000000001 0.01
          vertex 3.9000000000000004 0.6000000000000001 0.01
          vertex 3.9000000000000004 0.6000000000000001 1
      endloop
  endfacet
  facet normal -0.1240347345892084 -0.9922778767136677 0.0
      outer loop
          vertex 3.1 0.7000000000000001 0.01
          vertex 3.9000000000000004 0.6000000000000001 1
          vertex 3.1 0.7000000000000001 1
      endloop
  endfacet
  facet normal -0.11043152607484659 -0.9938837346736188 0.0
      outer loop
          vertex 3.9000000000000004 0.6000000000000001 0.01
          vertex 4.800000000000001 0.5 0.01
          vertex 4.800000000000001 0.5 1
      endloop
  endfacet
  facet normal -0.11043152607484659 -0.9938837346736188 0.0
      outer loop
          vertex 3.9000000000000004 0.6000000000000001 0.01
          vertex 4.800000000000001 0.5 1
          vertex 3.9000000000000004 0.6000000000000001 1
      endloop
  endfacet
endsolid obstacle
