solid obstacle
  facet normal 0.0 0.0 -1.0
      outer loop
          vertex 1.6 1.4000000000000001 0.01
          vertex 2.3000000000000003 1.9000000000000001 0.01
          vertex 2.9000000000000004 0.9 0.01
      endloop
  endfacet
  facet normal -0.0 0.0 1.0
      outer loop
          vertex 1.6 1.4000000000000001 1
          vertex 2.9000000000000004 0.9 1
          vertex 2.3000000000000003 1.9000000000000001 1
      endloop
  endfacet
  facet normal -0.3589790793088691 -0.9333456062030596 0.0
      outer loop
          vertex 1.6 1.4000000000000001 0.01
          vertex 2.9000000000000004 0.9 0.01
          vertex 2.9000000000000004 0.9 1
      endloop
  endfacet
  facet normal -0.3589790793088691 -0.9333456062030596 0.0
      outer loop
          vertex 1.6 1.4000000000000001 0.01
          vertex 2.9000000000000004 0.9 1
          vertex 1.6 1.4000000000000001 1
      endloop
  endfacet
  facet normal 0.8574929257125441 0.5144957554275266 0.0
      outer loop
          vertex 2.9000000000000004 0.9 0.01
          vertex 2.3000000000000003 1.9000000000000001 0.01
          vertex 2.3000000000000003 1.9000000000000001 1
      endloop
  endfacet
  facet normal 0.8574929257125441 0.5144957554275266 -0.0
      outer loop
          vertex 2.9000000000000004 0.9 0.01
          vertex 2.3000000000000003 1.9000000000000001 1
          vertex 2.9000000000000004 0.9 1
      endloop
  endfacet
  facet normal -0.5812381937190964 0.8137334712067351 0.0
      outer loop
          vertex 2.3000000000000003 1.9000000000000001 0.01
          vertex 1.6 1.4000000000000001 0.01
          vertex 1.6 1.4000000000000001 1
      endloop
  endfacet
  facet normal -0.5812381937190964 0.8137334712067351 0.0
      outer loop
          vertex 2.3000000000000003 1.9000000000000001 0.01
          vertex 1.6 1.4000000000000001 1
          vertex 2.3000000000000003 1.9000000000000001 1
      endloop
  endfacet
endsolid obstacle
