solid obstacle
  facet normal 0.0 0.0 -1.0
      outer loop
          vertex 1.6 2.3000000000000003 0.01
          vertex 1.8 3.6 0.01
          vertex 1.9000000000000001 3.7 0.01
      endloop
  endfacet
  facet normal 0.0 0.0 1.0
      outer loop
          vertex 1.6 2.3000000000000003 1
          vertex 1.9000000000000001 3.7 1
          vertex 1.8 3.6 1
      endloop
  endfacet
  facet normal 0.9778024140774095 -0.2095290887308735 0.0
      outer loop
          vertex 1.6 2.3000000000000003 0.01
          vertex 1.9000000000000001 3.7 0.01
          vertex 1.9000000000000001 3.7 1
      endloop
  endfacet
  facet normal 0.9778024140774095 -0.2095290887308735 0.0
      outer loop
          vertex 1.6 2.3000000000000003 0.01
          vertex 1.9000000000000001 3.7 1
          vertex 1.6 2.3000000000000003 1
      endloop
  endfacet
  facet normal -0.7071067811865475 0.7071067811865475 0.0
      outer loop
          vertex 1.9000000000000001 3.7 0.01
          vertex 1.8 3.6 0.01
          vertex 1.8 3.6 1
      endloop
  endfacet
  facet normal -0.7071067811865475 0.7071067811865475 0.0
      outer loop
          vertex 1.9000000000000001 3.7 0.01
          vertex 1.8 3.6 1
          vertex 1.9000000000000001 3.7 1
      endloop
  endfacet
  facet normal -0.9883716976506172 0.15205718425394107 0.0
      outer loop
          vertex 1.8 3.6 0.01
          vertex 1.6 2.3000000000000003 0.01
          vertex 1.6 2.3000000000000003 1
      endloop
  endfacet
  facet normal -0.9883716976506172 0.15205718425394107 0.0
      outer loop
          vertex 1.8 3.6 0.01
          vertex 1.6 2.3000000000000003 1
          vertex 1.8 3.6 1
      endloop
  endfacet
endsolid obstacle
