solid obstacle
  facet normal 0.0 0.0 -1.0
      outer loop
          vertex 4.1000000000000005 2.0 0.1
          vertex 3.9000000000000004 1.4000000000000001 0.1
          vertex 3.4000000000000004 1.7000000000000002 0.1
      endloop
  endfacet
  facet normal 0.0 0.0 1.0
      outer loop
          vertex 4.1000000000000005 2.0 1
          vertex 3.4000000000000004 1.7000000000000002 1
          vertex 3.9000000000000004 1.4000000000000001 1
      endloop
  endfacet
  facet normal -0.39391929857916735 0.919145030018058 0.0
      outer loop
          vertex 4.1000000000000005 2.0 0.1
          vertex 3.4000000000000004 1.7000000000000002 0.1
          vertex 3.4000000000000004 1.7000000000000002 1
      endloop
  endfacet
  facet normal -0.39391929857916735 0.919145030018058 0.0
      outer loop
          vertex 4.1000000000000005 2.0 0.1
          vertex 3.4000000000000004 1.7000000000000002 1
          vertex 4.1000000000000005 2.0 1
      endloop
  endfacet
  facet normal -0.5144957554275267 -0.8574929257125442 0.0
      outer loop
          vertex 3.4000000000000004 1.7000000000000002 0.1
          vertex 3.9000000000000004 1.4000000000000001 0.1
          vertex 3.9000000000000004 1.4000000000000001 1
      endloop
  endfacet
  facet normal -0.5144957554275267 -0.8574929257125442 0.0
      outer loop
          vertex 3.4000000000000004 1.7000000000000002 0.1
          vertex 3.9000000000000004 1.4000000000000001 1
          vertex 3.4000000000000004 1.7000000000000002 1
      endloop
  endfacet
  facet normal 0.9486832980505138 -0.3162277660168383 0.0
      outer loop
          vertex 3.9000000000000004 1.4000000000000001 0.1
          vertex 4.1000000000000005 2.0 0.1
          vertex 4.1000000000000005 2.0 1
      endloop
  endfacet
  facet normal 0.9486832980505138 -0.3162277660168383 0.0
      outer loop
          vertex 3.9000000000000004 1.4000000000000001 0.1
          vertex 4.1000000000000005 2.0 1
          vertex 3.9000000000000004 1.4000000000000001 1
      endloop
  endfacet
endsolid obstacle
