solid obstacle
  facet normal 0.0 0.0 -1.0
      outer loop
          vertex 2.4000000000000004 2.2 0.1
          vertex 2.3000000000000003 2.2 0.1
          vertex 1.5 3.9000000000000004 0.1
      endloop
  endfacet
  facet normal -0.0 -0.0 -1.0
      outer loop
          vertex 2.4000000000000004 2.2 0.1
          vertex 3.2 0.6000000000000001 0.1
          vertex 2.3000000000000003 2.2 0.1
      endloop
  endfacet
  facet normal 0.0 0.0 1.0
      outer loop
          vertex 2.4000000000000004 2.2 1
          vertex 1.5 3.9000000000000004 1
          vertex 2.3000000000000003 2.2 1
      endloop
  endfacet
  facet normal 0.0 0.0 1.0
      outer loop
          vertex 2.4000000000000004 2.2 1
          vertex 2.3000000000000003 2.2 1
          vertex 3.2 0.6000000000000001 1
      endloop
  endfacet
  facet normal 0.8837879163470618 0.4678877204190328 0.0
      outer loop
          vertex 2.4000000000000004 2.2 0.1
          vertex 1.5 3.9000000000000004 0.1
          vertex 1.5 3.9000000000000004 1
      endloop
  endfacet
  facet normal 0.8837879163470618 0.4678877204190328 -0.0
      outer loop
          vertex 2.4000000000000004 2.2 0.1
          vertex 1.5 3.9000000000000004 1
          vertex 2.4000000000000004 2.2 1
      endloop
  endfacet
  facet normal -0.9048187022009941 -0.4257970363298797 0.0
      outer loop
          vertex 1.5 3.9000000000000004 0.1
          vertex 2.3000000000000003 2.2 0.1
          vertex 2.3000000000000003 2.2 1
      endloop
  endfacet
  facet normal -0.9048187022009941 -0.4257970363298797 0.0
      outer loop
          vertex 1.5 3.9000000000000004 0.1
          vertex 2.3000000000000003 2.2 1
          vertex 1.5 3.9000000000000004 1
      endloop
  endfacet
  facet normal -0.8715755371245493 -0.4902612396325589 0.0
      outer loop
          vertex 2.3000000000000003 2.2 0.1
          vertex 3.2 0.6000000000000001 0.1
          vertex 3.2 0.6000000000000001 1
      endloop
  endfacet
  facet normal -0.8715755371245493 -0.4902612396325589 0.0
      outer loop
          vertex 2.3000000000000003 2.2 0.1
          vertex 3.2 0.6000000000000001 1
          vertex 2.3000000000000003 2.2 1
      endloop
  endfacet
  facet normal 0.894427190999916 0.44721359549995787 0.0
      outer loop
          vertex 3.2 0.6000000000000001 0.1
          vertex 2.4000000000000004 2.2 0.1
          vertex 2.4000000000000004 2.2 1
      endloop
  endfacet
  facet normal 0.894427190999916 0.44721359549995787 -0.0
      outer loop
          vertex 3.2 0.6000000000000001 0.1
          vertex 2.4000000000000004 2.2 1
          vertex 3.2 0.6000000000000001 1
      endloop
  endfacet
endsolid obstacle
