solid obstacle
  facet normal -0.0 0.0 -1.0
      outer loop
          vertex 2.5 1.0 0.01
          vertex 2.1 0.6000000000000001 0.01
          vertex 1.4000000000000001 1.8 0.01
      endloop
  endfacet
  facet normal 0.0 0.0 1.0
      outer loop
          vertex 2.5 1.0 1
          vertex 1.4000000000000001 1.8 1
          vertex 2.1 0.6000000000000001 1
      endloop
  endfacet
  facet normal 0.5881716976750462 0.8087360843031884 0.0
      outer loop
          vertex 2.5 1.0 0.01
          vertex 1.4000000000000001 1.8 0.01
          vertex 1.4000000000000001 1.8 1
      endloop
  endfacet
  facet normal 0.5881716976750462 0.8087360843031884 -0.0
      outer loop
          vertex 2.5 1.0 0.01
          vertex 1.4000000000000001 1.8 1
          vertex 2.5 1.0 1
      endloop
  endfacet
  facet normal -0.8637789008984335 -0.5038710255240861 0.0
      outer loop
          vertex 1.4000000000000001 1.8 0.01
          vertex 2.1 0.6000000000000001 0.01
          vertex 2.1 0.6000000000000001 1
      endloop
  endfacet
  facet normal -0.8637789008984335 -0.5038710255240861 0.0
      outer loop
          vertex 1.4000000000000001 1.8 0.01
          vertex 2.1 0.6000000000000001 1
          vertex 1.4000000000000001 1.8 1
      endloop
  endfacet
  facet normal 0.7071067811865475 -0.7071067811865475 0.0
      outer loop
          vertex 2.1 0.6000000000000001 0.01
          vertex 2.5 1.0 0.01
          vertex 2.5 1.0 1
      endloop
  endfacet
  facet normal 0.7071067811865475 -0.7071067811865475 0.0
      outer loop
          vertex 2.1 0.6000000000000001 0.01
          vertex 2.5 1.0 1
          vertex 2.1 0.6000000000000001 1
      endloop
  endfacet
endsolid obstacle
