solid obstacle
  facet normal 0.0 0.0 -1.0
      outer loop
          vertex 2.4000000000000004 2.9000000000000004 0.1
          vertex 0.9 3.3000000000000003 0.1
          vertex 0.8 3.8000000000000003 0.1
      endloop
  endfacet
  facet normal 0.0 0.0 1.0
      outer loop
          vertex 2.4000000000000004 2.9000000000000004 1
          vertex 0.8 3.8000000000000003 1
          vertex 0.9 3.3000000000000003 1
      endloop
  endfacet
  facet normal 0.49026123963255885 0.8715755371245494 0.0
      outer loop
          vertex 2.4000000000000004 2.9000000000000004 0.1
          vertex 0.8 3.8000000000000003 0.1
          vertex 0.8 3.8000000000000003 1
      endloop
  endfacet
  facet normal 0.49026123963255885 0.8715755371245494 -0.0
      outer loop
          vertex 2.4000000000000004 2.9000000000000004 0.1
          vertex 0.8 3.8000000000000003 1
          vertex 2.4000000000000004 2.9000000000000004 1
      endloop
  endfacet
  facet normal -0.9805806756909202 -0.196116135138184 0.0
      outer loop
          vertex 0.8 3.8000000000000003 0.1
          vertex 0.9 3.3000000000000003 0.1
          vertex 0.9 3.3000000000000003 1
      endloop
  endfacet
  facet normal -0.9805806756909202 -0.196116135138184 0.0
      outer loop
          vertex 0.8 3.8000000000000003 0.1
          vertex 0.9 3.3000000000000003 1
          vertex 0.8 3.8000000000000003 1
      endloop
  endfacet
  facet normal -0.2576626505603322 -0.9662349396012464 0.0
      outer loop
          vertex 0.9 3.3000000000000003 0.1
          vertex 2.4000000000000004 2.9000000000000004 0.1
          vertex 2.4000000000000004 2.9000000000000004 1
      endloop
  endfacet
  facet normal -0.2576626505603322 -0.9662349396012464 0.0
      outer loop
          vertex 0.9 3.3000000000000003 0.1
          vertex 2.4000000000000004 2.9000000000000004 1
          vertex 0.9 3.3000000000000003 1
      endloop
  endfacet
endsolid obstacle
