solid obstacle
  facet normal 0.0 0.0 -1.0
      outer loop
          vertex 3.7 2.6 0.1
          vertex 2.6 1.4000000000000001 0.1
          vertex 1.8 2.4000000000000004 0.1
      endloop
  endfacet
  facet normal 0.0 0.0 1.0
      outer loop
          vertex 3.7 2.6 1
          vertex 1.8 2.4000000000000004 1
          vertex 2.6 1.4000000000000001 1
      endloop
  endfacet
  facet normal -0.1046847845180426 0.994505452921406 0.0
      outer loop
          vertex 3.7 2.6 0.1
          vertex 1.8 2.4000000000000004 0.1
          vertex 1.8 2.4000000000000004 1
      endloop
  endfacet
  facet normal -0.1046847845180426 0.994505452921406 0.0
      outer loop
          vertex 3.7 2.6 0.1
          vertex 1.8 2.4000000000000004 1
          vertex 3.7 2.6 1
      endloop
  endfacet
  facet normal -0.7808688094430305 -0.6246950475544243 0.0
      outer loop
          vertex 1.8 2.4000000000000004 0.1
          vertex 2.6 1.4000000000000001 0.1
          vertex 2.6 1.4000000000000001 1
      endloop
  endfacet
  facet normal -0.7808688094430305 -0.6246950475544243 0.0
      outer loop
          vertex 1.8 2.4000000000000004 0.1
          vertex 2.6 1.4000000000000001 1
          vertex 1.8 2.4000000000000004 1
      endloop
  endfacet
  facet normal 0.7371541402007414 -0.6757246285173463 0.0
      outer loop
          vertex 2.6 1.4000000000000001 0.1
          vertex 3.7 2.6 0.1
          vertex 3.7 2.6 1
      endloop
  endfacet
  facet normal 0.7371541402007414 -0.6757246285173463 0.0
      outer loop
          vertex 2.6 1.4000000000000001 0.1
          vertex 3.7 2.6 1
          vertex 2.6 1.4000000000000001 1
      endloop
  endfacet
endsolid obstacle
