solid obstacle
  facet normal -0.0 0.0 -1.0
      outer loop
          vertex 3.2 3.3000000000000003 0.01
          vertex 1.8 2.7 0.01
          vertex 1.5 4.0 0.01
      endloop
  endfacet
  facet normal 0.0 0.0 1.0
      outer loop
          vertex 3.2 3.3000000000000003 1
          vertex 1.5 4.0 1
          vertex 1.8 2.7 1
      endloop
  endfacet
  facet normal 0.3807498052542947 0.924678098474716 0.0
      outer loop
          vertex 3.2 3.3000000000000003 0.01
          vertex 1.5 4.0 0.01
          vertex 1.5 4.0 1
      endloop
  endfacet
  facet normal 0.3807498052542947 0.924678098474716 -0.0
      outer loop
          vertex 3.2 3.3000000000000003 0.01
          vertex 1.5 4.0 1
          vertex 3.2 3.3000000000000003 1
      endloop
  endfacet
  facet normal -0.97439119569462 -0.22485950669875848 0.0
      outer loop
          vertex 1.5 4.0 0.01
          vertex 1.8 2.7 0.01
          vertex 1.8 2.7 1
      endloop
  endfacet
  facet normal -0.97439119569462 -0.22485950669875848 0.0
      outer loop
          vertex 1.5 4.0 0.01
          vertex 1.8 2.7 1
          vertex 1.5 4.0 1
      endloop
  endfacet
  facet normal 0.3939192985791677 -0.9191450300180579 0.0
      outer loop
          vertex 1.8 2.7 0.01
          vertex 3.2 3.3000000000000003 0.01
          vertex 3.2 3.3000000000000003 1
      endloop
  endfacet
  facet normal 0.3939192985791677 -0.9191450300180579 0.0
      outer loop
          vertex 1.8 2.7 0.01
          vertex 3.2 3.3000000000000003 1
          vertex 1.8 2.7 1
      endloop
  endfacet
endsolid obstacle
