solid obstacle
  facet normal 0.0 0.0 -1.0
      outer loop
          vertex 2.4000000000000004 0.1 0.1
          vertex 3.4000000000000004 0.8 0.1
          vertex 4.2 0.30000000000000004 0.1
      endloop
  endfacet
  facet normal 0.0 0.0 1.0
      outer loop
          vertex 2.4000000000000004 0.1 1
          vertex 4.2 0.30000000000000004 1
          vertex 3.4000000000000004 0.8 1
      endloop
  endfacet
  facet normal 0.11043152607484658 -0.9938837346736189 0.0
      outer loop
          vertex 2.4000000000000004 0.1 0.1
          vertex 4.2 0.30000000000000004 0.1
          vertex 4.2 0.30000000000000004 1
      endloop
  endfacet
  facet normal 0.11043152607484658 -0.9938837346736189 0.0
      outer loop
          vertex 2.4000000000000004 0.1 0.1
          vertex 4.2 0.30000000000000004 1
          vertex 2.4000000000000004 0.1 1
      endloop
  endfacet
  facet normal 0.52999894000318 0.8479983040050879 0.0
      outer loop
          vertex 4.2 0.30000000000000004 0.1
          vertex 3.4000000000000004 0.8 0.1
          vertex 3.4000000000000004 0.8 1
      endloop
  endfacet
  facet normal 0.52999894000318 0.8479983040050879 -0.0
      outer loop
          vertex 4.2 0.30000000000000004 0.1
          vertex 3.4000000000000004 0.8 1
          vertex 4.2 0.30000000000000004 1
      endloop
  endfacet
  facet normal -0.5734623443633284 0.8192319205190404 0.0
      outer loop
          vertex 3.4000000000000004 0.8 0.1
          vertex 2.4000000000000004 0.1 0.1
          vertex 2.4000000000000004 0.1 1
      endloop
  endfacet
  facet normal -0.5734623443633284 0.8192319205190404 0.0
      outer loop
          vertex 3.4000000000000004 0.8 0.1
          vertex 2.4000000000000004 0.1 1
          vertex 3.4000000000000004 0.8 1
      endloop
  endfacet
endsolid obstacle
