solid obstacle
  facet normal 0.0 0.0 -1.0
      outer loop
          vertex 1.7000000000000002 3.1 0.01
          vertex 2.2 4.0 0.01
          vertex 3.3000000000000003 2.4000000000000004 0.01
      endloop
  endfacet
  facet normal -0.0 0.0 1.0
      outer loop
          vertex 1.7000000000000002 3.1 1
          vertex 3.3000000000000003 2.4000000000000004 1
          vertex 2.2 4.0 1
      endloop
  endfacet
  facet normal -0.40081883401970764 -0.9161573349021892 0.0
      outer loop
          vertex 1.7000000000000002 3.1 0.01
          vertex 3.3000000000000003 2.4000000000000004 0.01
          vertex 3.3000000000000003 2.4000000000000004 1
      endloop
  endfacet
  facet normal -0.40081883401970764 -0.9161573349021892 0.0
      outer loop
          vertex 1.7000000000000002 3.1 0.01
          vertex 3.3000000000000003 2.4000000000000004 1
          vertex 1.7000000000000002 3.1 1
      endloop
  endfacet
  facet normal 0.8240419241993675 0.5665288228870653 0.0
      outer loop
          vertex 3.3000000000000003 2.4000000000000004 0.01
          vertex 2.2 4.0 0.01
          vertex 2.2 4.0 1
      endloop
  endfacet
  facet normal 0.8240419241993675 0.5665288228870653 -0.0
      outer loop
          vertex 3.3000000000000003 2.4000000000000004 0.01
          vertex 2.2 4.0 1
          vertex 3.3000000000000003 2.4000000000000004 1
      endloop
  endfacet
  facet normal -0.8741572761215378 0.48564293117863216 0.0
      outer loop
          vertex 2.2 4.0 0.01
          vertex 1.7000000000000002 3.1 0.01
          vertex 1.7000000000000002 3.1 1
      endloop
  endfacet
  facet normal -0.8741572761215378 0.48564293117863216 0.0
      outer loop
          vertex 2.2 4.0 0.01
          vertex 1.7000000000000002 3.1 1
          vertex 2.2 4.0 1
      endloop
  endfacet
endsolid obstacle
