solid obstacle
  facet normal -0.0 0.0 -1.0
      outer loop
          vertex 2.3000000000000003 2.6 0.1
          vertex 0.6000000000000001 2.1 0.1
          vertex 0.4 3.2 0.1
      endloop
  endfacet
  facet normal 0.0 0.0 -1.0
      outer loop
          vertex 2.3000000000000003 2.6 0.1
          vertex 1.5 2.2 0.1
          vertex 0.6000000000000001 2.1 0.1
      endloop
  endfacet
  facet normal 0.0 0.0 1.0
      outer loop
          vertex 2.3000000000000003 2.6 1
          vertex 0.4 3.2 1
          vertex 0.6000000000000001 2.1 1
      endloop
  endfacet
  facet normal 0.0 0.0 1.0
      outer loop
          vertex 2.3000000000000003 2.6 1
          vertex 0.6000000000000001 2.1 1
          vertex 1.5 2.2 1
      endloop
  endfacet
  facet normal 0.3011313679370973 0.9535826651341416 0.0
      outer loop
          vertex 2.3000000000000003 2.6 0.1
          vertex 0.4 3.2 0.1
          vertex 0.4 3.2 1
      endloop
  endfacet
  facet normal 0.3011313679370973 0.9535826651341416 -0.0
      outer loop
          vertex 2.3000000000000003 2.6 0.1
          vertex 0.4 3.2 1
          vertex 2.3000000000000003 2.6 1
      endloop
  endfacet
  facet normal -0.9838699100999074 -0.17888543819998323 0.0
      outer loop
          vertex 0.4 3.2 0.1
          vertex 0.6000000000000001 2.1 0.1
          vertex 0.6000000000000001 2.1 1
      endloop
  endfacet
  facet normal -0.9838699100999074 -0.17888543819998323 0.0
      outer loop
          vertex 0.4 3.2 0.1
          vertex 0.6000000000000001 2.1 1
          vertex 0.4 3.2 1
      endloop
  endfacet
  facet normal 0.11043152607484664 -0.9938837346736189 0.0
      outer loop
          vertex 0.6000000000000001 2.1 0.1
          vertex 1.5 2.2 0.1
          vertex 1.5 2.2 1
      endloop
  endfacet
  facet normal 0.11043152607484664 -0.9938837346736189 0.0
      outer loop
          vertex 0.6000000000000001 2.1 0.1
          vertex 1.5 2.2 1
          vertex 0.6000000000000001 2.1 1
      endloop
  endfacet
  facet normal 0.44721359549995776 -0.8944271909999161 0.0
      outer loop
          vertex 1.5 2.2 0.1
          vertex 2.3000000000000003 2.6 0.1
          vertex 2.3000000000000003 2.6 1
      endloop
  endfacet
  facet normal 0.44721359549995776 -0.8944271909999161 0.0
      outer loop
          vertex 1.5 2.2 0.1
          vertex 2.3000000000000003 2.6 1
          vertex 1.5 2.2 1
      endloop
  endfacet
endsolid obstacle
