solid obstacle
  facet normal 0.0 0.0 -1.0
      outer loop
          vertex 3.8000000000000003 3.4000000000000004 0.01
          vertex 3.5 2.6 0.01
          vertex 2.8000000000000003 3.1 0.01
      endloop
  endfacet
  facet normal 0.0 0.0 1.0
      outer loop
          vertex 3.8000000000000003 3.4000000000000004 1
          vertex 2.8000000000000003 3.1 1
          vertex 3.5 2.6 1
      endloop
  endfacet
  facet normal -0.28734788556634566 0.9578262852211513 0.0
      outer loop
          vertex 3.8000000000000003 3.4000000000000004 0.01
          vertex 2.8000000000000003 3.1 0.01
          vertex 2.8000000000000003 3.1 1
      endloop
  endfacet
  facet normal -0.28734788556634566 0.9578262852211513 0.0
      outer loop
          vertex 3.8000000000000003 3.4000000000000004 0.01
          vertex 2.8000000000000003 3.1 1
          vertex 3.8000000000000003 3.4000000000000004 1
      endloop
  endfacet
  facet normal -0.5812381937190966 -0.8137334712067349 0.0
      outer loop
          vertex 2.8000000000000003 3.1 0.01
          vertex 3.5 2.6 0.01
          vertex 3.5 2.6 1
      endloop
  endfacet
  facet normal -0.5812381937190966 -0.8137334712067349 0.0
      outer loop
          vertex 2.8000000000000003 3.1 0.01
          vertex 3.5 2.6 1
          vertex 2.8000000000000003 3.1 1
      endloop
  endfacet
  facet normal 0.9363291775690444 -0.35112344158839187 0.0
      outer loop
          vertex 3.5 2.6 0.01
          vertex 3.8000000000000003 3.4000000000000004 0.01
          vertex 3.8000000000000003 3.4000000000000004 1
      endloop
  endfacet
  facet normal 0.9363291775690444 -0.35112344158839187 0.0
      outer loop
          vertex 3.5 2.6 0.01
          vertex 3.8000000000000003 3.4000000000000004 1
          vertex 3.5 2.6 1
      endloop
  endfacet
endsolid obstacle
