solid obstacle
  facet normal 0.0 0.0 -1.0
      outer loop
          vertex 0.4 1.6 0.01
          vertex 1.7000000000000002 2.4000000000000004 0.01
          vertex 1.9000000000000001 1.7000000000000002 0.01
      endloop
  endfacet
  facet normal 0.0 0.0 -1.0
      outer loop
          vertex 0.4 1.6 0.01
          vertex 0.6000000000000001 2.4000000000000004 0.01
          vertex 1.7000000000000002 2.4000000000000004 0.01
      endloop
  endfacet
  facet normal 0.0 0.0 1.0
      outer loop
          vertex 0.4 1.6 1
          vertex 1.9000000000000001 1.7000000000000002 1
          vertex 1.7000000000000002 2.4000000000000004 1
      endloop
  endfacet
  facet normal 0.0 0.0 1.0
      outer loop
          vertex 0.4 1.6 1
          vertex 1.7000000000000002 2.4000000000000004 1
          vertex 0.6000000000000001 2.4000000000000004 1
      endloop
  endfacet
  facet normal 0.066519010523774 -0.997785157856609 0.0
      outer loop
          vertex 0.4 1.6 0.01
          vertex 1.9000000000000001 1.7000000000000002 0.01
          vertex 1.9000000000000001 1.7000000000000002 1
      endloop
  endfacet
  facet normal 0.066519010523774 -0.997785157856609 0.0
      outer loop
          vertex 0.4 1.6 0.01
          vertex 1.9000000000000001 1.7000000000000002 1
          vertex 0.4 1.6 1
      endloop
  endfacet
  facet normal 0.9615239476408232 0.2747211278973779 0.0
      outer loop
          vertex 1.9000000000000001 1.7000000000000002 0.01
          vertex 1.7000000000000002 2.4000000000000004 0.01
          vertex 1.7000000000000002 2.4000000000000004 1
      endloop
  endfacet
  facet normal 0.9615239476408232 0.2747211278973779 -0.0
      outer loop
          vertex 1.9000000000000001 1.7000000000000002 0.01
          vertex 1.7000000000000002 2.4000000000000004 1
          vertex 1.9000000000000001 1.7000000000000002 1
      endloop
  endfacet
  facet normal 0.0 1.0 0.0
      outer loop
          vertex 1.7000000000000002 2.4000000000000004 0.01
          vertex 0.6000000000000001 2.4000000000000004 0.01
          vertex 0.6000000000000001 2.4000000000000004 1
      endloop
  endfacet
  facet normal 0.0 1.0 -0.0
      outer loop
          vertex 1.7000000000000002 2.4000000000000004 0.01
          vertex 0.6000000000000001 2.4000000000000004 1
          vertex 1.7000000000000002 2.4000000000000004 1
      endloop
  endfacet
  facet normal -0.970142500145332 0.242535625036333 0.0
      outer loop
          vertex 0.6000000000000001 2.4000000000000004 0.01
          vertex 0.4 1.6 0.01
          vertex 0.4 1.6 1
      endloop
  endfacet
  facet normal -0.970142500145332 0.242535625036333 0.0
      outer loop
          vertex 0.6000000000000001 2.4000000000000004 0.01
          vertex 0.4 1.6 1
          vertex 0.6000000000000001 2.4000000000000004 1
      endloop
  endfacet
endsolid obstacle
