solid obstacle
  facet normal 0.0 0.0 -1.0
      outer loop
          vertex 3.9000000000000004 1.2000000000000002 0.1
          vertex 3.6 1.3 0.1
          vertex 3.4000000000000004 1.7000000000000002 0.1
      endloop
  endfacet
  facet normal -0.0 -0.0 -1.0
      outer loop
          vertex 3.9000000000000004 1.2000000000000002 0.1
          vertex 4.6000000000000005 0.2 0.1
          vertex 3.6 1.3 0.1
      endloop
  endfacet
  facet normal 0.0 0.0 1.0
      outer loop
          vertex 3.9000000000000004 1.2000000000000002 1
          vertex 3.4000000000000004 1.7000000000000002 1
          vertex 3.6 1.3 1
      endloop
  endfacet
  facet normal 0.0 0.0 1.0
      outer loop
          vertex 3.9000000000000004 1.2000000000000002 1
          vertex 3.6 1.3 1
          vertex 4.6000000000000005 0.2 1
      endloop
  endfacet
  facet normal 0.7071067811865476 0.7071067811865476 0.0
      outer loop
          vertex 3.9000000000000004 1.2000000000000002 0.1
          vertex 3.4000000000000004 1.7000000000000002 0.1
          vertex 3.4000000000000004 1.7000000000000002 1
      endloop
  endfacet
  facet normal 0.7071067811865476 0.7071067811865476 -0.0
      outer loop
          vertex 3.9000000000000004 1.2000000000000002 0.1
          vertex 3.4000000000000004 1.7000000000000002 1
          vertex 3.9000000000000004 1.2000000000000002 1
      endloop
  endfacet
  facet normal -0.8944271909999162 -0.4472135954999573 0.0
      outer loop
          vertex 3.4000000000000004 1.7000000000000002 0.1
          vertex 3.6 1.3 0.1
          vertex 3.6 1.3 1
      endloop
  endfacet
  facet normal -0.8944271909999162 -0.4472135954999573 0.0
      outer loop
          vertex 3.4000000000000004 1.7000000000000002 0.1
          vertex 3.6 1.3 1
          vertex 3.4000000000000004 1.7000000000000002 1
      endloop
  endfacet
  facet normal -0.7399400733959435 -0.6726727939963125 0.0
      outer loop
          vertex 3.6 1.3 0.1
          vertex 4.6000000000000005 0.2 0.1
          vertex 4.6000000000000005 0.2 1
      endloop
  endfacet
  facet normal -0.7399400733959435 -0.6726727939963125 0.0
      outer loop
          vertex 3.6 1.3 0.1
          vertex 4.6000000000000005 0.2 1
          vertex 3.6 1.3 1
      endloop
  endfacet
  facet normal 0.8192319205190405 0.5734623443633283 0.0
      outer loop
          vertex 4.6000000000000005 0.2 0.1
          vertex 3.9000000000000004 1.2000000000000002 0.1
          vertex 3.9000000000000004 1.2000000000000002 1
      endloop
  endfacet
  facet normal 0.8192319205190405 0.5734623443633283 -0.0
      outer loop
          vertex 4.6000000000000005 0.2 0.1
          vertex 3.9000000000000004 1.2000000000000002 1
          vertex 4.6000000000000005 0.2 1
      endloop
  endfacet
endsolid obstacle
