solid obstacle
  facet normal 0.0 0.0 -1.0
      outer loop
          vertex 1.9000000000000001 4.4 0.1
          vertex 1.4000000000000001 2.6 0.1
          vertex 1.3 2.7 0.1
      endloop
  endfacet
  facet normal 0.0 0.0 1.0
      outer loop
          vertex 1.9000000000000001 4.4 1
          vertex 1.3 2.7 1
          vertex 1.4000000000000001 2.6 1
      endloop
  endfacet
  facet normal -0.9429903335828894 0.3328201177351375 0.0
      outer loop
          vertex 1.9000000000000001 4.4 0.1
          vertex 1.3 2.7 0.1
          vertex 1.3 2.7 1
      endloop
  endfacet
  facet normal -0.9429903335828894 0.3328201177351375 0.0
      outer loop
          vertex 1.9000000000000001 4.4 0.1
          vertex 1.3 2.7 1
          vertex 1.9000000000000001 4.4 1
      endloop
  endfacet
  facet normal -0.7071067811865475 -0.7071067811865475 0.0
      outer loop
          vertex 1.3 2.7 0.1
          vertex 1.4000000000000001 2.6 0.1
          vertex 1.4000000000000001 2.6 1
      endloop
  endfacet
  facet normal -0.7071067811865475 -0.7071067811865475 0.0
      outer loop
          vertex 1.3 2.7 0.1
          vertex 1.4000000000000001 2.6 1
          vertex 1.3 2.7 1
      endloop
  endfacet
  facet normal 0.9635179096299407 -0.26764386378609456 0.0
      outer loop
          vertex 1.4000000000000001 2.6 0.1
          vertex 1.9000000000000001 4.4 0.1
          vertex 1.9000000000000001 4.4 1
      endloop
  endfacet
  facet normal 0.9635179096299407 -0.26764386378609456 0.0
      outer loop
          vertex 1.4000000000000001 2.6 0.1
          vertex 1.9000000000000001 4.4 1
          vertex 1.4000000000000001 2.6 1
      endloop
  endfacet
endsolid obstacle
