solid obstacle
  facet normal -0.0 0.0 -1.0
      outer loop
          vertex 2.3000000000000003 1.7000000000000002 0.01
          vertex 0.8 0.6000000000000001 0.01
          vertex 0.6000000000000001 2.4000000000000004 0.01
      endloop
  endfacet
  facet normal 0.0 0.0 1.0
      outer loop
          vertex 2.3000000000000003 1.7000000000000002 1
          vertex 0.6000000000000001 2.4000000000000004 1
          vertex 0.8 0.6000000000000001 1
      endloop
  endfacet
  facet normal 0.38074980525429486 0.9246780984747159 0.0
      outer loop
          vertex 2.3000000000000003 1.7000000000000002 0.01
          vertex 0.6000000000000001 2.4000000000000004 0.01
          vertex 0.6000000000000001 2.4000000000000004 1
      endloop
  endfacet
  facet normal 0.38074980525429486 0.9246780984747159 -0.0
      outer loop
          vertex 2.3000000000000003 1.7000000000000002 0.01
          vertex 0.6000000000000001 2.4000000000000004 1
          vertex 2.3000000000000003 1.7000000000000002 1
      endloop
  endfacet
  facet normal -0.993883734673619 -0.1104315260748465 0.0
      outer loop
          vertex 0.6000000000000001 2.4000000000000004 0.01
          vertex 0.8 0.6000000000000001 0.01
          vertex 0.8 0.6000000000000001 1
      endloop
  endfacet
  facet normal -0.993883734673619 -0.1104315260748465 0.0
      outer loop
          vertex 0.6000000000000001 2.4000000000000004 0.01
          vertex 0.8 0.6000000000000001 1
          vertex 0.6000000000000001 2.4000000000000004 1
      endloop
  endfacet
  facet normal 0.5913636636275174 -0.8064049958557056 0.0
      outer loop
          vertex 0.8 0.6000000000000001 0.01
          vertex 2.3000000000000003 1.7000000000000002 0.01
          vertex 2.3000000000000003 1.7000000000000002 1
      endloop
  endfacet
  facet normal 0.5913636636275174 -0.8064049958557056 0.0
      outer loop
          vertex 0.8 0.6000000000000001 0.01
          vertex 2.3000000000000003 1.7000000000000002 1
          vertex 0.8 0.6000000000000001 1
      endloop
  endfacet
endsolid obstacle
