solid obstacle
  facet normal 0.0 0.0 -1.0
      outer loop
          vertex 1.8 2.5 0.01
          vertex 1.9000000000000001 3.0 0.01
          vertex 2.0 2.7 0.01
      endloop
  endfacet
  facet normal 0.0 0.0 1.0
      outer loop
          vertex 1.8 2.5 1
          vertex 2.0 2.7 1
          vertex 1.9000000000000001 3.0 1
      endloop
  endfacet
  facet normal 0.7071067811865479 -0.707106781186547 0.0
      outer loop
          vertex 1.8 2.5 0.01
          vertex 2.0 2.7 0.01
          vertex 2.0 2.7 1
      endloop
  endfacet
  facet normal 0.7071067811865479 -0.707106781186547 0.0
      outer loop
          vertex 1.8 2.5 0.01
          vertex 2.0 2.7 1
          vertex 1.8 2.5 1
      endloop
  endfacet
  facet normal 0.9486832980505138 0.3162277660168377 0.0
      outer loop
          vertex 2.0 2.7 0.01
          vertex 1.9000000000000001 3.0 0.01
          vertex 1.9000000000000001 3.0 1
      endloop
  endfacet
  facet normal 0.9486832980505138 0.3162277660168377 -0.0
      outer loop
          vertex 2.0 2.7 0.01
          vertex 1.9000000000000001 3.0 1
          vertex 2.0 2.7 1
      endloop
  endfacet
  facet normal -0.9805806756909201 0.1961161351381842 0.0
      outer loop
          vertex 1.9000000000000001 3.0 0.01
          vertex 1.8 2.5 0.01
          vertex 1.8 2.5 1
      endloop
  endfacet
  facet normal -0.9805806756909201 0.1961161351381842 0.0
      outer loop
          vertex 1.9000000000000001 3.0 0.01
          vertex 1.8 2.5 1
          vertex 1.9000000000000001 3.0 1
      endloop
  endfacet
endsolid obstacle
