solid obstacle
  facet normal -0.0 -0.0 -1.0
      outer loop
          vertex 0.9 1.0 0.01
          vertex 0.9 0.8 0.01
          vertex 0.5 1.1 0.01
      endloop
  endfacet
  facet normal 0.0 0.0 1.0
      outer loop
          vertex 0.9 1.0 1
          vertex 0.5 1.1 1
          vertex 0.9 0.8 1
      endloop
  endfacet
  facet normal 0.24253562503633316 0.9701425001453319 0.0
      outer loop
          vertex 0.9 1.0 0.01
          vertex 0.5 1.1 0.01
          vertex 0.5 1.1 1
      endloop
  endfacet
  facet normal 0.24253562503633316 0.9701425001453319 -0.0
      outer loop
          vertex 0.9 1.0 0.01
          vertex 0.5 1.1 1
          vertex 0.9 1.0 1
      endloop
  endfacet
  facet normal -0.6 -0.7999999999999999 0.0
      outer loop
          vertex 0.5 1.1 0.01
          vertex 0.9 0.8 0.01
          vertex 0.9 0.8 1
      endloop
  endfacet
  facet normal -0.6 -0.7999999999999999 0.0
      outer loop
          vertex 0.5 1.1 0.01
          vertex 0.9 0.8 1
          vertex 0.5 1.1 1
      endloop
  endfacet
  facet normal 1.0 0.0 0.0
      outer loop
          vertex 0.9 0.8 0.01
          vertex 0.9 1.0 0.01
          vertex 0.9 1.0 1
      endloop
  endfacet
  facet normal 1.0 0.0 0.0
      outer loop
          vertex 0.9 0.8 0.01
          vertex 0.9 1.0 1
          vertex 0.9 0.8 1
      endloop
  endfacet
endsolid obstacle
