solid obstacle
  facet normal 0.0 0.0 -1.0
      outer loop
          vertex 2.0 0.4 0.1
          vertex 2.8000000000000003 2.4000000000000004 0.1
          vertex 2.7 1.0 0.1
      endloop
  endfacet
  facet normal 0.0 0.0 -1.0
      outer loop
          vertex 2.0 0.4 0.1
          vertex 2.6 2.1 0.1
          vertex 2.8000000000000003 2.4000000000000004 0.1
      endloop
  endfacet
  facet normal 0.0 0.0 1.0
      outer loop
          vertex 2.0 0.4 1
          vertex 2.7 1.0 1
          vertex 2.8000000000000003 2.4000000000000004 1
      endloop
  endfacet
  facet normal 0.0 0.0 1.0
      outer loop
          vertex 2.0 0.4 1
          vertex 2.8000000000000003 2.4000000000000004 1
          vertex 2.6 2.1 1
      endloop
  endfacet
  facet normal 0.6507913734559684 -0.7592566023652967 0.0
      outer loop
          vertex 2.0 0.4 0.1
          vertex 2.7 1.0 0.1
          vertex 2.7 1.0 1
      endloop
  endfacet
  facet normal 0.6507913734559684 -0.7592566023652967 0.0
      outer loop
          vertex 2.0 0.4 0.1
          vertex 2.7 1.0 1
          vertex 2.0 0.4 1
      endloop
  endfacet
  facet normal 0.9974586998307351 -0.07124704998790968 0.0
      outer loop
          vertex 2.7 1.0 0.1
          vertex 2.8000000000000003 2.4000000000000004 0.1
          vertex 2.8000000000000003 2.4000000000000004 1
      endloop
  endfacet
  facet normal 0.9974586998307351 -0.07124704998790968 0.0
      outer loop
          vertex 2.7 1.0 0.1
          vertex 2.8000000000000003 2.4000000000000004 1
          vertex 2.7 1.0 1
      endloop
  endfacet
  facet normal -0.8320502943378437 0.5547001962252291 0.0
      outer loop
          vertex 2.8000000000000003 2.4000000000000004 0.1
          vertex 2.6 2.1 0.1
          vertex 2.6 2.1 1
      endloop
  endfacet
  facet normal -0.8320502943378437 0.5547001962252291 0.0
      outer loop
          vertex 2.8000000000000003 2.4000000000000004 0.1
          vertex 2.6 2.1 1
          vertex 2.8000000000000003 2.4000000000000004 1
      endloop
  endfacet
  facet normal -0.9429903335828894 0.3328201177351375 0.0
      outer loop
          vertex 2.6 2.1 0.1
          vertex 2.0 0.4 0.1
          vertex 2.0 0.4 1
      endloop
  endfacet
  facet normal -0.9429903335828894 0.3328201177351375 0.0
      outer loop
          vertex 2.6 2.1 0.1
          vertex 2.0 0.4 1
          vertex 2.6 2.1 1
      endloop
  endfacet
endsolid obstacle
