solid obstacle
  facet normal 0.0 0.0 -1.0
      outer loop
          vertex 0.5 1.2000000000000002 0.01
          vertex 2.7 2.2 0.01
          vertex 2.1 1.2000000000000002 0.01
      endloop
  endfacet
  facet normal 0.0 0.0 -1.0
      outer loop
          vertex 0.5 1.2000000000000002 0.01
          vertex 0.8 2.1 0.01
          vertex 2.7 2.2 0.01
      endloop
  endfacet
  facet normal 0.0 0.0 1.0
      outer loop
          vertex 0.5 1.2000000000000002 1
          vertex 2.1 1.2000000000000002 1
          vertex 2.7 2.2 1
      endloop
  endfacet
  facet normal 0.0 0.0 1.0
      outer loop
          vertex 0.5 1.2000000000000002 1
          vertex 2.7 2.2 1
          vertex 0.8 2.1 1
      endloop
  endfacet
  facet normal 0.0 -1.0 0.0
      outer loop
          vertex 0.5 1.2000000000000002 0.01
          vertex 2.1 1.2000000000000002 0.01
          vertex 2.1 1.2000000000000002 1
      endloop
  endfacet
  facet normal 0.0 -1.0 0.0
      outer loop
          vertex 0.5 1.2000000000000002 0.01
          vertex 2.1 1.2000000000000002 1
          vertex 0.5 1.2000000000000002 1
      endloop
  endfacet
  facet normal 0.8574929257125441 -0.5144957554275266 0.0
      outer loop
          vertex 2.1 1.2000000000000002 0.01
          vertex 2.7 2.2 0.01
          vertex 2.7 2.2 1
      endloop
  endfacet
  facet normal 0.8574929257125441 -0.5144957554275266 0.0
      outer loop
          vertex 2.1 1.2000000000000002 0.01
          vertex 2.7 2.2 1
          vertex 2.1 1.2000000000000002 1
      endloop
  endfacet
  facet normal -0.052558833122763715 0.9986178293325098 0.0
      outer loop
          vertex 2.7 2.2 0.01
          vertex 0.8 2.1 0.01
          vertex 0.8 2.1 1
      endloop
  endfacet
  facet normal -0.052558833122763715 0.9986178293325098 0.0
      outer loop
          vertex 2.7 2.2 0.01
          vertex 0.8 2.1 1
          vertex 2.7 2.2 1
      endloop
  endfacet
  facet normal -0.9486832980505139 0.316227766016838 0.0
      outer loop
          vertex 0.8 2.1 0.01
          vertex 0.5 1.2000000000000002 0.01
          vertex 0.5 1.2000000000000002 1
      endloop
  endfacet
  facet normal -0.9486832980505139 0.316227766016838 0.0
      outer loop
          vertex 0.8 2.1 0.01
          vertex 0.5 1.2000000000000002 1
          vertex 0.8 2.1 1
      endloop
  endfacet
endsolid obstacle
