solid obstacle
  facet normal 0.0 0.0 -1.0
      outer loop
          vertex 1.5 4.3 0.1
          vertex 0.2 3.6 0.1
          vertex 0.0 3.8000000000000003 0.1
      endloop
  endfacet
  facet normal 0.0 0.0 1.0
      outer loop
          vertex 1.5 4.3 1
          vertex 0.0 3.8000000000000003 1
          vertex 0.2 3.6 1
      endloop
  endfacet
  facet normal -0.31622776601683766 0.9486832980505138 0.0
      outer loop
          vertex 1.5 4.3 0.1
          vertex 0.0 3.8000000000000003 0.1
          vertex 0.0 3.8000000000000003 1
      endloop
  endfacet
  facet normal -0.31622776601683766 0.9486832980505138 0.0
      outer loop
          vertex 1.5 4.3 0.1
          vertex 0.0 3.8000000000000003 1
          vertex 1.5 4.3 1
      endloop
  endfacet
  facet normal -0.7071067811865477 -0.7071067811865471 0.0
      outer loop
          vertex 0.0 3.8000000000000003 0.1
          vertex 0.2 3.6 0.1
          vertex 0.2 3.6 1
      endloop
  endfacet
  facet normal -0.7071067811865477 -0.7071067811865471 0.0
      outer loop
          vertex 0.0 3.8000000000000003 0.1
          vertex 0.2 3.6 1
          vertex 0.0 3.8000000000000003 1
      endloop
  endfacet
  facet normal 0.47409982303501724 -0.8804710999221753 0.0
      outer loop
          vertex 0.2 3.6 0.1
          vertex 1.5 4.3 0.1
          vertex 1.5 4.3 1
      endloop
  endfacet
  facet normal 0.47409982303501724 -0.8804710999221753 0.0
      outer loop
          vertex 0.2 3.6 0.1
          vertex 1.5 4.3 1
          vertex 0.2 3.6 1
      endloop
  endfacet
endsolid obstacle
