solid obstacle
  facet normal 0.0 0.0 -1.0
      outer loop
          vertex 2.8000000000000003 1.2000000000000002 0.01
          vertex 3.1 2.8000000000000003 0.01
          vertex 3.8000000000000003 2.9000000000000004 0.01
      endloop
  endfacet
  facet normal 0.0 0.0 -1.0
      outer loop
          vertex 2.8000000000000003 1.2000000000000002 0.01
          vertex 2.8000000000000003 2.6 0.01
          vertex 3.1 2.8000000000000003 0.01
      endloop
  endfacet
  facet normal 0.0 0.0 1.0
      outer loop
          vertex 2.8000000000000003 1.2000000000000002 1
          vertex 3.8000000000000003 2.9000000000000004 1
          vertex 3.1 2.8000000000000003 1
      endloop
  endfacet
  facet normal 0.0 0.0 1.0
      outer loop
          vertex 2.8000000000000003 1.2000000000000002 1
          vertex 3.1 2.8000000000000003 1
          vertex 2.8000000000000003 2.6 1
      endloop
  endfacet
  facet normal 0.8619342151577695 -0.5070201265633938 0.0
      outer loop
          vertex 2.8000000000000003 1.2000000000000002 0.01
          vertex 3.8000000000000003 2.9000000000000004 0.01
          vertex 3.8000000000000003 2.9000000000000004 1
      endloop
  endfacet
  facet normal 0.8619342151577695 -0.5070201265633938 0.0
      outer loop
          vertex 2.8000000000000003 1.2000000000000002 0.01
          vertex 3.8000000000000003 2.9000000000000004 1
          vertex 2.8000000000000003 1.2000000000000002 1
      endloop
  endfacet
  facet normal -0.1414213562373096 0.9899494936611665 0.0
      outer loop
          vertex 3.8000000000000003 2.9000000000000004 0.01
          vertex 3.1 2.8000000000000003 0.01
          vertex 3.1 2.8000000000000003 1
      endloop
  endfacet
  facet normal -0.1414213562373096 0.9899494936611665 0.0
      outer loop
          vertex 3.8000000000000003 2.9000000000000004 0.01
          vertex 3.1 2.8000000000000003 1
          vertex 3.8000000000000003 2.9000000000000004 1
      endloop
  endfacet
  facet normal -0.5547001962252297 0.8320502943378433 0.0
      outer loop
          vertex 3.1 2.8000000000000003 0.01
          vertex 2.8000000000000003 2.6 0.01
          vertex 2.8000000000000003 2.6 1
      endloop
  endfacet
  facet normal -0.5547001962252297 0.8320502943378433 0.0
      outer loop
          vertex 3.1 2.8000000000000003 0.01
          vertex 2.8000000000000003 2.6 1
          vertex 3.1 2.8000000000000003 1
      endloop
  endfacet
  facet normal -1.0 0.0 0.0
      outer loop
          vertex 2.8000000000000003 2.6 0.01
          vertex 2.8000000000000003 1.2000000000000002 0.01
          vertex 2.8000000000000003 1.2000000000000002 1
      endloop
  endfacet
  facet normal -1.0 0.0 0.0
      outer loop
          vertex 2.8000000000000003 2.6 0.01
          vertex 2.8000000000000003 1.2000000000000002 1
          vertex 2.8000000000000003 2.6 1
      endloop
  endfacet
endsolid obstacle
