solid obstacle
  facet normal -0.0 -0.0 -1.0
      outer loop
          vertex 0.9 1.8 0.01
          vertex 0.9 1.7000000000000002 0.01
          vertex 0.5 1.9000000000000001 0.01
      endloop
  endfacet
  facet normal 0.0 0.0 1.0
      outer loop
          vertex 0.9 1.8 1
          vertex 0.5 1.9000000000000001 1
          vertex 0.9 1.7000000000000002 1
      endloop
  endfacet
  facet normal 0.24253562503633316 0.9701425001453319 0.0
      outer loop
          vertex 0.9 1.8 0.01
          vertex 0.5 1.9000000000000001 0.01
          vertex 0.5 1.9000000000000001 1
      endloop
  endfacet
  facet normal 0.24253562503633316 0.9701425001453319 -0.0
      outer loop
          vertex 0.9 1.8 0.01
          vertex 0.5 1.9000000000000001 1
          vertex 0.9 1.8 1
      endloop
  endfacet
  facet normal -0.4472135954999578 -0.894427190999916 0.0
      outer loop
          vertex 0.5 1.9000000000000001 0.01
          vertex 0.9 1.7000000000000002 0.01
          vertex 0.9 1.7000000000000002 1
      endloop
  endfacet
  facet normal -0.4472135954999578 -0.894427190999916 0.0
      outer loop
          vertex 0.5 1.9000000000000001 0.01
          vertex 0.9 1.7000000000000002 1
          vertex 0.5 1.9000000000000001 1
      endloop
  endfacet
  facet normal 1.0 0.0 0.0
      outer loop
          vertex 0.9 1.7000000000000002 0.01
          vertex 0.9 1.8 0.01
          vertex 0.9 1.8 1
      endloop
  endfacet
  facet normal 1.0 0.0 0.0
      outer loop
          vertex 0.9 1.7000000000000002 0.01
          vertex 0.9 1.8 1
          vertex 0.9 1.7000000000000002 1
      endloop
  endfacet
endsolid obstacle
