solid obstacle
  facet normal 0.0 0.0 -1.0
      outer loop
          vertex 1.3 2.9000000000000004 0.01
          vertex 2.7 4.3 0.01
          vertex 3.1 3.7 0.01
      endloop
  endfacet
  facet normal 0.0 0.0 -1.0
      outer loop
          vertex 1.3 2.9000000000000004 0.01
          vertex 1.5 4.0 0.01
          vertex 2.7 4.3 0.01
      endloop
  endfacet
  facet normal 0.0 0.0 1.0
      outer loop
          vertex 1.3 2.9000000000000004 1
          vertex 3.1 3.7 1
          vertex 2.7 4.3 1
      endloop
  endfacet
  facet normal 0.0 0.0 1.0
      outer loop
          vertex 1.3 2.9000000000000004 1
          vertex 2.7 4.3 1
          vertex 1.5 4.0 1
      endloop
  endfacet
  facet normal 0.4061384660534475 -0.9138115486202572 0.0
      outer loop
          vertex 1.3 2.9000000000000004 0.01
          vertex 3.1 3.7 0.01
          vertex 3.1 3.7 1
      endloop
  endfacet
  facet normal 0.4061384660534475 -0.9138115486202572 0.0
      outer loop
          vertex 1.3 2.9000000000000004 0.01
          vertex 3.1 3.7 1
          vertex 1.3 2.9000000000000004 1
      endloop
  endfacet
  facet normal 0.8320502943378436 0.5547001962252293 0.0
      outer loop
          vertex 3.1 3.7 0.01
          vertex 2.7 4.3 0.01
          vertex 2.7 4.3 1
      endloop
  endfacet
  facet normal 0.8320502943378436 0.5547001962252293 -0.0
      outer loop
          vertex 3.1 3.7 0.01
          vertex 2.7 4.3 1
          vertex 3.1 3.7 1
      endloop
  endfacet
  facet normal -0.24253562503633277 0.9701425001453319 0.0
      outer loop
          vertex 2.7 4.3 0.01
          vertex 1.5 4.0 0.01
          vertex 1.5 4.0 1
      endloop
  endfacet
  facet normal -0.24253562503633277 0.9701425001453319 0.0
      outer loop
          vertex 2.7 4.3 0.01
          vertex 1.5 4.0 1
          vertex 2.7 4.3 1
      endloop
  endfacet
  facet normal -0.9838699100999074 0.17888543819998318 0.0
      outer loop
          vertex 1.5 4.0 0.01
          vertex 1.3 2.9000000000000004 0.01
          vertex 1.3 2.9000000000000004 1
      endloop
  endfacet
  facet normal -0.9838699100999074 0.17888543819998318 0.0
      outer loop
          vertex 1.5 4.0 0.01
          vertex 1.3 2.9000000000000004 1
          vertex 1.5 4.0 1
      endloop
  endfacet
endsolid obstacle
