solid obstacle
  facet normal 0.0 0.0 -1.0
      outer loop
          vertex 4.1000000000000005 2.5 0.01
          vertex 3.0 1.5 0.01
          vertex 2.9000000000000004 2.1 0.01
      endloop
  endfacet
  facet normal 0.0 0.0 -1.0
      outer loop
          vertex 4.1000000000000005 2.5 0.01
          vertex 4.0 0.7000000000000001 0.01
          vertex 3.0 1.5 0.01
      endloop
  endfacet
  facet normal 0.0 0.0 1.0
      outer loop
          vertex 4.1000000000000005 2.5 1
          vertex 2.9000000000000004 2.1 1
          vertex 3.0 1.5 1
      endloop
  endfacet
  facet normal 0.0 0.0 1.0
      outer loop
          vertex 4.1000000000000005 2.5 1
          vertex 3.0 1.5 1
          vertex 4.0 0.7000000000000001 1
      endloop
  endfacet
  facet normal -0.31622776601683783 0.9486832980505139 0.0
      outer loop
          vertex 4.1000000000000005 2.5 0.01
          vertex 2.9000000000000004 2.1 0.01
          vertex 2.9000000000000004 2.1 1
      endloop
  endfacet
  facet normal -0.31622776601683783 0.9486832980505139 0.0
      outer loop
          vertex 4.1000000000000005 2.5 0.01
          vertex 2.9000000000000004 2.1 1
          vertex 4.1000000000000005 2.5 1
      endloop
  endfacet
  facet normal -0.9863939238321439 -0.1643989873053567 0.0
      outer loop
          vertex 2.9000000000000004 2.1 0.01
          vertex 3.0 1.5 0.01
          vertex 3.0 1.5 1
      endloop
  endfacet
  facet normal -0.9863939238321439 -0.1643989873053567 0.0
      outer loop
          vertex 2.9000000000000004 2.1 0.01
          vertex 3.0 1.5 1
          vertex 2.9000000000000004 2.1 1
      endloop
  endfacet
  facet normal -0.6246950475544242 -0.7808688094430303 0.0
      outer loop
          vertex 3.0 1.5 0.01
          vertex 4.0 0.7000000000000001 0.01
          vertex 4.0 0.7000000000000001 1
      endloop
  endfacet
  facet normal -0.6246950475544242 -0.7808688094430303 0.0
      outer loop
          vertex 3.0 1.5 0.01
          vertex 4.0 0.7000000000000001 1
          vertex 3.0 1.5 1
      endloop
  endfacet
  facet normal 0.9984603532054125 -0.055470019622523216 0.0
      outer loop
          vertex 4.0 0.7000000000000001 0.01
          vertex 4.1000000000000005 2.5 0.01
          vertex 4.1000000000000005 2.5 1
      endloop
  endfacet
  facet normal 0.9984603532054125 -0.055470019622523216 0.0
      outer loop
          vertex 4.0 0.7000000000000001 0.01
          vertex 4.1000000000000005 2.5 1
          vertex 4.0 0.7000000000000001 1
      endloop
  endfacet
endsolid obstacle
