solid obstacle
  facet normal 0.0 0.0 -1.0
      outer loop
          vertex 1.1 0.6000000000000001 0.01
          vertex 1.5 1.0 0.01
          vertex 2.1 0.7000000000000001 0.01
      endloop
  endfacet
  facet normal 0.0 0.0 1.0
      outer loop
          vertex 1.1 0.6000000000000001 1
          vertex 2.1 0.7000000000000001 1
          vertex 1.5 1.0 1
      endloop
  endfacet
  facet normal 0.09950371902099889 -0.9950371902099892 0.0
      outer loop
          vertex 1.1 0.6000000000000001 0.01
          vertex 2.1 0.7000000000000001 0.01
          vertex 2.1 0.7000000000000001 1
      endloop
  endfacet
  facet normal 0.09950371902099889 -0.9950371902099892 0.0
      outer loop
          vertex 1.1 0.6000000000000001 0.01
          vertex 2.1 0.7000000000000001 1
          vertex 1.1 0.6000000000000001 1
      endloop
  endfacet
  facet normal 0.4472135954999578 0.894427190999916 0.0
      outer loop
          vertex 2.1 0.7000000000000001 0.01
          vertex 1.5 1.0 0.01
          vertex 1.5 1.0 1
      endloop
  endfacet
  facet normal 0.4472135954999578 0.894427190999916 -0.0
      outer loop
          vertex 2.1 0.7000000000000001 0.01
          vertex 1.5 1.0 1
          vertex 2.1 0.7000000000000001 1
      endloop
  endfacet
  facet normal -0.7071067811865475 0.7071067811865475 0.0
      outer loop
          vertex 1.5 1.0 0.01
          vertex 1.1 0.6000000000000001 0.01
          vertex 1.1 0.6000000000000001 1
      endloop
  endfacet
  facet normal -0.7071067811865475 0.7071067811865475 0.0
      outer loop
          vertex 1.5 1.0 0.01
          vertex 1.1 0.6000000000000001 1
          vertex 1.5 1.0 1
      endloop
  endfacet
endsolid obstacle
