solid obstacle
  facet normal 0.0 -0.0 -1.0
      outer loop
          vertex 3.5 1.9000000000000001 0.01
          vertex 3.5 1.1 0.01
          vertex 2.9000000000000004 1.2000000000000002 0.01
      endloop
  endfacet
  facet normal 0.0 0.0 1.0
      outer loop
          vertex 3.5 1.9000000000000001 1
          vertex 2.9000000000000004 1.2000000000000002 1
          vertex 3.5 1.1 1
      endloop
  endfacet
  facet normal -0.7592566023652967 0.6507913734559683 0.0
      outer loop
          vertex 3.5 1.9000000000000001 0.01
          vertex 2.9000000000000004 1.2000000000000002 0.01
          vertex 2.9000000000000004 1.2000000000000002 1
      endloop
  endfacet
  facet normal -0.7592566023652967 0.6507913734559683 0.0
      outer loop
          vertex 3.5 1.9000000000000001 0.01
          vertex 2.9000000000000004 1.2000000000000002 1
          vertex 3.5 1.9000000000000001 1
      endloop
  endfacet
  facet normal -0.1643989873053575 -0.9863939238321436 0.0
      outer loop
          vertex 2.9000000000000004 1.2000000000000002 0.01
          vertex 3.5 1.1 0.01
          vertex 3.5 1.1 1
      endloop
  endfacet
  facet normal -0.1643989873053575 -0.9863939238321436 0.0
      outer loop
          vertex 2.9000000000000004 1.2000000000000002 0.01
          vertex 3.5 1.1 1
          vertex 2.9000000000000004 1.2000000000000002 1
      endloop
  endfacet
  facet normal 1.0 0.0 0.0
      outer loop
          vertex 3.5 1.1 0.01
          vertex 3.5 1.9000000000000001 0.01
          vertex 3.5 1.9000000000000001 1
      endloop
  endfacet
  facet normal 1.0 0.0 0.0
      outer loop
          vertex 3.5 1.1 0.01
          vertex 3.5 1.9000000000000001 1
          vertex 3.5 1.1 1
      endloop
  endfacet
endsolid obstacle
