solid obstacle
  facet normal 0.0 0.0 -1.0
      outer loop
          vertex 0.30000000000000004 2.6 0.01
          vertex 0.7000000000000001 2.0 0.01
          vertex 0.9 0.7000000000000001 0.01
      endloop
  endfacet
  facet normal 0.0 0.0 1.0
      outer loop
          vertex 0.30000000000000004 2.6 1
          vertex 0.9 0.7000000000000001 1
          vertex 0.7000000000000001 2.0 1
      endloop
  endfacet
  facet normal -0.9535826651341416 -0.3011313679370973 0.0
      outer loop
          vertex 0.30000000000000004 2.6 0.01
          vertex 0.9 0.7000000000000001 0.01
          vertex 0.9 0.7000000000000001 1
      endloop
  endfacet
  facet normal -0.9535826651341416 -0.3011313679370973 0.0
      outer loop
          vertex 0.30000000000000004 2.6 0.01
          vertex 0.9 0.7000000000000001 1
          vertex 0.30000000000000004 2.6 1
      endloop
  endfacet
  facet normal 0.9883716976506172 0.15205718425394107 0.0
      outer loop
          vertex 0.9 0.7000000000000001 0.01
          vertex 0.7000000000000001 2.0 0.01
          vertex 0.7000000000000001 2.0 1
      endloop
  endfacet
  facet normal 0.9883716976506172 0.15205718425394107 -0.0
      outer loop
          vertex 0.9 0.7000000000000001 0.01
          vertex 0.7000000000000001 2.0 1
          vertex 0.9 0.7000000000000001 1
      endloop
  endfacet
  facet normal 0.8320502943378437 0.554700196225229 0.0
      outer loop
          vertex 0.7000000000000001 2.0 0.01
          vertex 0.30000000000000004 2.6 0.01
          vertex 0.30000000000000004 2.6 1
      endloop
  endfacet
  facet normal 0.8320502943378437 0.554700196225229 -0.0
      outer loop
          vertex 0.7000000000000001 2.0 0.01
          vertex 0.30000000000000004 2.6 1
          vertex 0.7000000000000001 2.0 1
      endloop
  endfacet
endsolid obstacle
