solid obstacle
  facet normal 0.0 0.0 -1.0
      outer loop
          vertex 2.2 4.6000000000000005 0.01
          vertex 1.6 4.6000000000000005 0.01
          vertex 0.30000000000000004 4.7 0.01
      endloop
  endfacet
  facet normal 0.0 0.0 1.0
      outer loop
          vertex 2.2 4.6000000000000005 1
          vertex 0.30000000000000004 4.7 1
          vertex 1.6 4.6000000000000005 1
      endloop
  endfacet
  facet normal 0.05255883312276348 0.9986178293325098 0.0
      outer loop
          vertex 2.2 4.6000000000000005 0.01
          vertex 0.30000000000000004 4.7 0.01
          vertex 0.30000000000000004 4.7 1
      endloop
  endfacet
  facet normal 0.05255883312276348 0.9986178293325098 -0.0
      outer loop
          vertex 2.2 4.6000000000000005 0.01
          vertex 0.30000000000000004 4.7 1
          vertex 2.2 4.6000000000000005 1
      endloop
  endfacet
  facet normal -0.07669649888473677 -0.9970544855015815 0.0
      outer loop
          vertex 0.30000000000000004 4.7 0.01
          vertex 1.6 4.6000000000000005 0.01
          vertex 1.6 4.6000000000000005 1
      endloop
  endfacet
  facet normal -0.07669649888473677 -0.9970544855015815 0.0
      outer loop
          vertex 0.30000000000000004 4.7 0.01
          vertex 1.6 4.6000000000000005 1
          vertex 0.30000000000000004 4.7 1
      endloop
  endfacet
  facet normal 0.0 -1.0 0.0
      outer loop
          vertex 1.6 4.6000000000000005 0.01
          vertex 2.2 4.6000000000000005 0.01
          vertex 2.2 4.6000000000000005 1
      endloop
  endfacet
  facet normal 0.0 -1.0 0.0
      outer loop
          vertex 1.6 4.6000000000000005 0.01
          vertex 2.2 4.6000000000000005 1
          vertex 1.6 4.6000000000000005 1
      endloop
  endfacet
endsolid obstacle
