solid obstacle
  facet normal -0.0 0.0 -1.0
      outer loop
          vertex 1.9000000000000001 1.0 0.01
          vertex 1.6 0.9 0.01
          vertex 1.5 1.0 0.01
      endloop
  endfacet
  facet normal 0.0 0.0 1.0
      outer loop
          vertex 1.9000000000000001 1.0 1
          vertex 1.5 1.0 1
          vertex 1.6 0.9 1
      endloop
  endfacet
  facet normal 0.0 1.0 0.0
      outer loop
          vertex 1.9000000000000001 1.0 0.01
          vertex 1.5 1.0 0.01
          vertex 1.5 1.0 1
      endloop
  endfacet
  facet normal 0.0 1.0 -0.0
      outer loop
          vertex 1.9000000000000001 1.0 0.01
          vertex 1.5 1.0 1
          vertex 1.9000000000000001 1.0 1
      endloop
  endfacet
  facet normal -0.707106781186547 -0.7071067811865479 0.0
      outer loop
          vertex 1.5 1.0 0.01
          vertex 1.6 0.9 0.01
          vertex 1.6 0.9 1
      endloop
  endfacet
  facet normal -0.707106781186547 -0.7071067811865479 0.0
      outer loop
          vertex 1.5 1.0 0.01
          vertex 1.6 0.9 1
          vertex 1.5 1.0 1
      endloop
  endfacet
  facet normal 0.31622776601683783 -0.9486832980505139 0.0
      outer loop
          vertex 1.6 0.9 0.01
          vertex 1.9000000000000001 1.0 0.01
          vertex 1.9000000000000001 1.0 1
      endloop
  endfacet
  facet normal 0.31622776601683783 -0.9486832980505139 0.0
      outer loop
          vertex 1.6 0.9 0.01
          vertex 1.9000000000000001 1.0 1
          vertex 1.6 0.9 1
      endloop
  endfacet
endsolid obstacle
