solid obstacle
  facet normal 0.0 0.0 -1.0
      outer loop
          vertex 0.9 0.6000000000000001 0.01
          vertex 1.2000000000000002 0.8 0.01
          vertex 1.3 0.4 0.01
      endloop
  endfacet
  facet normal 0.0 0.0 -1.0
      outer loop
          vertex 0.9 0.6000000000000001 0.01
          vertex 1.0 0.7000000000000001 0.01
          vertex 1.2000000000000002 0.8 0.01
      endloop
  endfacet
  facet normal -0.0 0.0 1.0
      outer loop
          vertex 0.9 0.6000000000000001 1
          vertex 1.3 0.4 1
          vertex 1.2000000000000002 0.8 1
      endloop
  endfacet
  facet normal 0.0 0.0 1.0
      outer loop
          vertex 0.9 0.6000000000000001 1
          vertex 1.2000000000000002 0.8 1
          vertex 1.0 0.7000000000000001 1
      endloop
  endfacet
  facet normal -0.44721359549995804 -0.8944271909999159 0.0
      outer loop
          vertex 0.9 0.6000000000000001 0.01
          vertex 1.3 0.4 0.01
          vertex 1.3 0.4 1
      endloop
  endfacet
  facet normal -0.44721359549995804 -0.8944271909999159 0.0
      outer loop
          vertex 0.9 0.6000000000000001 0.01
          vertex 1.3 0.4 1
          vertex 0.9 0.6000000000000001 1
      endloop
  endfacet
  facet normal 0.970142500145332 0.24253562503633266 0.0
      outer loop
          vertex 1.3 0.4 0.01
          vertex 1.2000000000000002 0.8 0.01
          vertex 1.2000000000000002 0.8 1
      endloop
  endfacet
  facet normal 0.970142500145332 0.24253562503633266 -0.0
      outer loop
          vertex 1.3 0.4 0.01
          vertex 1.2000000000000002 0.8 1
          vertex 1.3 0.4 1
      endloop
  endfacet
  facet normal -0.4472135954999575 0.894427190999916 0.0
      outer loop
          vertex 1.2000000000000002 0.8 0.01
          vertex 1.0 0.7000000000000001 0.01
          vertex 1.0 0.7000000000000001 1
      endloop
  endfacet
  facet normal -0.4472135954999575 0.894427190999916 0.0
      outer loop
          vertex 1.2000000000000002 0.8 0.01
          vertex 1.0 0.7000000000000001 1
          vertex 1.2000000000000002 0.8 1
      endloop
  endfacet
  facet normal -0.7071067811865475 0.7071067811865475 0.0
      outer loop
          vertex 1.0 0.7000000000000001 0.01
          vertex 0.9 0.6000000000000001 0.01
          vertex 0.9 0.6000000000000001 1
      endloop
  endfacet
  facet normal -0.7071067811865475 0.7071067811865475 0.0
      outer loop
          vertex 1.0 0.7000000000000001 0.01
          vertex 0.9 0.6000000000000001 1
          vertex 1.0 0.7000000000000001 1
      endloop
  endfacet
endsolid obstacle
