solid obstacle
  facet normal 0.0 0.0 -1.0
      outer loop
          vertex 1.4000000000000001 2.3000000000000003 0.1
          vertex 0.9 1.7000000000000002 0.1
          vertex 0.1 1.4000000000000001 0.1
      endloop
  endfacet
  facet normal 0.0 0.0 1.0
      outer loop
          vertex 1.4000000000000001 2.3000000000000003 1
          vertex 0.1 1.4000000000000001 1
          vertex 0.9 1.7000000000000002 1
      endloop
  endfacet
  facet normal -0.5692099788303083 0.8221921916437785 0.0
      outer loop
          vertex 1.4000000000000001 2.3000000000000003 0.1
          vertex 0.1 1.4000000000000001 0.1
          vertex 0.1 1.4000000000000001 1
      endloop
  endfacet
  facet normal -0.5692099788303083 0.8221921916437785 0.0
      outer loop
          vertex 1.4000000000000001 2.3000000000000003 0.1
          vertex 0.1 1.4000000000000001 1
          vertex 1.4000000000000001 2.3000000000000003 1
      endloop
  endfacet
  facet normal 0.35112344158839176 -0.9363291775690444 0.0
      outer loop
          vertex 0.1 1.4000000000000001 0.1
          vertex 0.9 1.7000000000000002 0.1
          vertex 0.9 1.7000000000000002 1
      endloop
  endfacet
  facet normal 0.35112344158839176 -0.9363291775690444 0.0
      outer loop
          vertex 0.1 1.4000000000000001 0.1
          vertex 0.9 1.7000000000000002 1
          vertex 0.1 1.4000000000000001 1
      endloop
  endfacet
  facet normal 0.7682212795973759 -0.6401843996644798 0.0
      outer loop
          vertex 0.9 1.7000000000000002 0.1
          vertex 1.4000000000000001 2.3000000000000003 0.1
          vertex 1.4000000000000001 2.3000000000000003 1
      endloop
  endfacet
  facet normal 0.7682212795973759 -0.6401843996644798 0.0
      outer loop
          vertex 0.9 1.7000000000000002 0.1
          vertex 1.4000000000000001 2.3000000000000003 1
          vertex 0.9 1.7000000000000002 1
      endloop
  endfacet
endsolid obstacle
