solid obstacle
  facet normal 0.0 0.0 -1.0
      outer loop
          vertex 2.7 4.4 0.1
          vertex 2.1 3.6 0.1
          vertex 1.9000000000000001 4.2 0.1
      endloop
  endfacet
  facet normal 0.0 -0.0 -1.0
      outer loop
          vertex 2.7 4.4 0.1
          vertex 3.5 3.3000000000000003 0.1
          vertex 2.1 3.6 0.1
      endloop
  endfacet
  facet normal 0.0 0.0 1.0
      outer loop
          vertex 2.7 4.4 1
          vertex 1.9000000000000001 4.2 1
          vertex 2.1 3.6 1
      endloop
  endfacet
  facet normal 0.0 0.0 1.0
      outer loop
          vertex 2.7 4.4 1
          vertex 2.1 3.6 1
          vertex 3.5 3.3000000000000003 1
      endloop
  endfacet
  facet normal -0.24253562503633316 0.9701425001453319 0.0
      outer loop
          vertex 2.7 4.4 0.1
          vertex 1.9000000000000001 4.2 0.1
          vertex 1.9000000000000001 4.2 1
      endloop
  endfacet
  facet normal -0.24253562503633316 0.9701425001453319 0.0
      outer loop
          vertex 2.7 4.4 0.1
          vertex 1.9000000000000001 4.2 1
          vertex 2.7 4.4 1
      endloop
  endfacet
  facet normal -0.9486832980505138 -0.3162277660168378 0.0
      outer loop
          vertex 1.9000000000000001 4.2 0.1
          vertex 2.1 3.6 0.1
          vertex 2.1 3.6 1
      endloop
  endfacet
  facet normal -0.9486832980505138 -0.3162277660168378 0.0
      outer loop
          vertex 1.9000000000000001 4.2 0.1
          vertex 2.1 3.6 1
          vertex 1.9000000000000001 4.2 1
      endloop
  endfacet
  facet normal -0.20952908873087334 -0.9778024140774095 0.0
      outer loop
          vertex 2.1 3.6 0.1
          vertex 3.5 3.3000000000000003 0.1
          vertex 3.5 3.3000000000000003 1
      endloop
  endfacet
  facet normal -0.20952908873087334 -0.9778024140774095 0.0
      outer loop
          vertex 2.1 3.6 0.1
          vertex 3.5 3.3000000000000003 1
          vertex 2.1 3.6 1
      endloop
  endfacet
  facet normal 0.8087360843031886 0.5881716976750461 0.0
      outer loop
          vertex 3.5 3.3000000000000003 0.1
          vertex 2.7 4.4 0.1
          vertex 2.7 4.4 1
      endloop
  endfacet
  facet normal 0.8087360843031886 0.5881716976750461 -0.0
      outer loop
          vertex 3.5 3.3000000000000003 0.1
          vertex 2.7 4.4 1
          vertex 3.5 3.3000000000000003 1
      endloop
  endfacet
endsolid obstacle
