solid obstacle
  facet normal -0.0 0.0 -1.0
      outer loop
          vertex 1.3 4.800000000000001 0.1
          vertex 0.2 3.9000000000000004 0.1
          vertex 0.1 4.800000000000001 0.1
      endloop
  endfacet
  facet normal 0.0 0.0 1.0
      outer loop
          vertex 1.3 4.800000000000001 1
          vertex 0.1 4.800000000000001 1
          vertex 0.2 3.9000000000000004 1
      endloop
  endfacet
  facet normal 0.0 1.0 0.0
      outer loop
          vertex 1.3 4.800000000000001 0.1
          vertex 0.1 4.800000000000001 0.1
          vertex 0.1 4.800000000000001 1
      endloop
  endfacet
  facet normal 0.0 1.0 -0.0
      outer loop
          vertex 1.3 4.800000000000001 0.1
          vertex 0.1 4.800000000000001 1
          vertex 1.3 4.800000000000001 1
      endloop
  endfacet
  facet normal -0.9938837346736189 -0.1104315260748465 0.0
      outer loop
          vertex 0.1 4.800000000000001 0.1
          vertex 0.2 3.9000000000000004 0.1
          vertex 0.2 3.9000000000000004 1
      endloop
  endfacet
  facet normal -0.9938837346736189 -0.1104315260748465 0.0
      outer loop
          vertex 0.1 4.800000000000001 0.1
          vertex 0.2 3.9000000000000004 1
          vertex 0.1 4.800000000000001 1
      endloop
  endfacet
  facet normal 0.6332377902572628 -0.7739572992033209 0.0
      outer loop
          vertex 0.2 3.9000000000000004 0.1
          vertex 1.3 4.800000000000001 0.1
          vertex 1.3 4.800000000000001 1
      endloop
  endfacet
  facet normal 0.6332377902572628 -0.7739572992033209 0.0
      outer loop
          vertex 0.2 3.9000000000000004 0.1
          vertex 1.3 4.800000000000001 1
          vertex 0.2 3.9000000000000004 1
      endloop
  endfacet
endsolid obstacle
