solid obstacle
  facet normal 0.0 0.0 -1.0
      outer loop
          vertex 2.2 3.1 0.01
          vertex 4.1000000000000005 3.6 0.01
          vertex 3.1 2.7 0.01
      endloop
  endfacet
  facet normal 0.0 0.0 -1.0
      outer loop
          vertex 2.2 3.1 0.01
          vertex 2.9000000000000004 3.7 0.01
          vertex 4.1000000000000005 3.6 0.01
      endloop
  endfacet
  facet normal -0.0 0.0 1.0
      outer loop
          vertex 2.2 3.1 1
          vertex 3.1 2.7 1
          vertex 4.1000000000000005 3.6 1
      endloop
  endfacet
  facet normal 0.0 0.0 1.0
      outer loop
          vertex 2.2 3.1 1
          vertex 4.1000000000000005 3.6 1
          vertex 2.9000000000000004 3.7 1
      endloop
  endfacet
  facet normal -0.40613846605344756 -0.9138115486202572 0.0
      outer loop
          vertex 2.2 3.1 0.01
          vertex 3.1 2.7 0.01
          vertex 3.1 2.7 1
      endloop
  endfacet
  facet normal -0.40613846605344756 -0.9138115486202572 0.0
      outer loop
          vertex 2.2 3.1 0.01
          vertex 3.1 2.7 1
          vertex 2.2 3.1 1
      endloop
  endfacet
  facet normal 0.6689647316224495 -0.7432941462471665 0.0
      outer loop
          vertex 3.1 2.7 0.01
          vertex 4.1000000000000005 3.6 0.01
          vertex 4.1000000000000005 3.6 1
      endloop
  endfacet
  facet normal 0.6689647316224495 -0.7432941462471665 0.0
      outer loop
          vertex 3.1 2.7 0.01
          vertex 4.1000000000000005 3.6 1
          vertex 3.1 2.7 1
      endloop
  endfacet
  facet normal 0.08304547985374003 0.9965457582448796 0.0
      outer loop
          vertex 4.1000000000000005 3.6 0.01
          vertex 2.9000000000000004 3.7 0.01
          vertex 2.9000000000000004 3.7 1
      endloop
  endfacet
  facet normal 0.08304547985374003 0.9965457582448796 -0.0
      outer loop
          vertex 4.1000000000000005 3.6 0.01
          vertex 2.9000000000000004 3.7 1
          vertex 4.1000000000000005 3.6 1
      endloop
  endfacet
  facet normal -0.6507913734559685 0.7592566023652967 0.0
      outer loop
          vertex 2.9000000000000004 3.7 0.01
          vertex 2.2 3.1 0.01
          vertex 2.2 3.1 1
      endloop
  endfacet
  facet normal -0.6507913734559685 0.7592566023652967 0.0
      outer loop
          vertex 2.9000000000000004 3.7 0.01
          vertex 2.2 3.1 1
          vertex 2.9000000000000004 3.7 1
      endloop
  endfacet
endsolid obstacle
