solid obstacle
  facet normal 0.0 0.0 -1.0
      outer loop
          vertex 2.3000000000000003 4.5 0.01
          vertex 1.7000000000000002 3.9000000000000004 0.01
          vertex 1.6 4.4 0.01
      endloop
  endfacet
  facet normal 0.0 0.0 1.0
      outer loop
          vertex 2.3000000000000003 4.5 1
          vertex 1.6 4.4 1
          vertex 1.7000000000000002 3.9000000000000004 1
      endloop
  endfacet
  facet normal -0.14142135623730898 0.9899494936611666 0.0
      outer loop
          vertex 2.3000000000000003 4.5 0.01
          vertex 1.6 4.4 0.01
          vertex 1.6 4.4 1
      endloop
  endfacet
  facet normal -0.14142135623730898 0.9899494936611666 0.0
      outer loop
          vertex 2.3000000000000003 4.5 0.01
          vertex 1.6 4.4 1
          vertex 2.3000000000000003 4.5 1
      endloop
  endfacet
  facet normal -0.9805806756909201 -0.1961161351381842 0.0
      outer loop
          vertex 1.6 4.4 0.01
          vertex 1.7000000000000002 3.9000000000000004 0.01
          vertex 1.7000000000000002 3.9000000000000004 1
      endloop
  endfacet
  facet normal -0.9805806756909201 -0.1961161351381842 0.0
      outer loop
          vertex 1.6 4.4 0.01
          vertex 1.7000000000000002 3.9000000000000004 1
          vertex 1.6 4.4 1
      endloop
  endfacet
  facet normal 0.7071067811865472 -0.7071067811865478 0.0
      outer loop
          vertex 1.7000000000000002 3.9000000000000004 0.01
          vertex 2.3000000000000003 4.5 0.01
          vertex 2.3000000000000003 4.5 1
      endloop
  endfacet
  facet normal 0.7071067811865472 -0.7071067811865478 0.0
      outer loop
          vertex 1.7000000000000002 3.9000000000000004 0.01
          vertex 2.3000000000000003 4.5 1
          vertex 1.7000000000000002 3.9000000000000004 1
      endloop
  endfacet
endsolid obstacle
