solid obstacle
  facet normal 0.0 0.0 -1.0
      outer loop
          vertex 1.7000000000000002 4.7 0.1
          vertex 3.1 4.9 0.1
          vertex 3.2 4.800000000000001 0.1
      endloop
  endfacet
  facet normal 0.0 0.0 1.0
      outer loop
          vertex 1.7000000000000002 4.7 1
          vertex 3.2 4.800000000000001 1
          vertex 3.1 4.9 1
      endloop
  endfacet
  facet normal 0.06651901052377429 -0.997785157856609 0.0
      outer loop
          vertex 1.7000000000000002 4.7 0.1
          vertex 3.2 4.800000000000001 0.1
          vertex 3.2 4.800000000000001 1
      endloop
  endfacet
  facet normal 0.06651901052377429 -0.997785157856609 0.0
      outer loop
          vertex 1.7000000000000002 4.7 0.1
          vertex 3.2 4.800000000000001 1
          vertex 1.7000000000000002 4.7 1
      endloop
  endfacet
  facet normal 0.7071067811865459 0.7071067811865491 0.0
      outer loop
          vertex 3.2 4.800000000000001 0.1
          vertex 3.1 4.9 0.1
          vertex 3.1 4.9 1
      endloop
  endfacet
  facet normal 0.7071067811865459 0.7071067811865491 -0.0
      outer loop
          vertex 3.2 4.800000000000001 0.1
          vertex 3.1 4.9 1
          vertex 3.2 4.800000000000001 1
      endloop
  endfacet
  facet normal -0.14142135623730964 0.9899494936611666 0.0
      outer loop
          vertex 3.1 4.9 0.1
          vertex 1.7000000000000002 4.7 0.1
          vertex 1.7000000000000002 4.7 1
      endloop
  endfacet
  facet normal -0.14142135623730964 0.9899494936611666 0.0
      outer loop
          vertex 3.1 4.9 0.1
          vertex 1.7000000000000002 4.7 1
          vertex 3.1 4.9 1
      endloop
  endfacet
endsolid obstacle
