solid obstacle
  facet normal 0.0 0.0 -1.0
      outer loop
          vertex 1.7000000000000002 4.7 0.01
          vertex 3.9000000000000004 4.800000000000001 0.01
          vertex 3.7 4.7 0.01
      endloop
  endfacet
  facet normal 0.0 0.0 -1.0
      outer loop
          vertex 1.7000000000000002 4.7 0.01
          vertex 3.1 4.800000000000001 0.01
          vertex 3.9000000000000004 4.800000000000001 0.01
      endloop
  endfacet
  facet normal 0.0 0.0 1.0
      outer loop
          vertex 1.7000000000000002 4.7 1
          vertex 3.7 4.7 1
          vertex 3.9000000000000004 4.800000000000001 1
      endloop
  endfacet
  facet normal 0.0 0.0 1.0
      outer loop
          vertex 1.7000000000000002 4.7 1
          vertex 3.9000000000000004 4.800000000000001 1
          vertex 3.1 4.800000000000001 1
      endloop
  endfacet
  facet normal 0.0 -1.0 0.0
      outer loop
          vertex 1.7000000000000002 4.7 0.01
          vertex 3.7 4.7 0.01
          vertex 3.7 4.7 1
      endloop
  endfacet
  facet normal 0.0 -1.0 0.0
      outer loop
          vertex 1.7000000000000002 4.7 0.01
          vertex 3.7 4.7 1
          vertex 1.7000000000000002 4.7 1
      endloop
  endfacet
  facet normal 0.44721359549995954 -0.8944271909999151 0.0
      outer loop
          vertex 3.7 4.7 0.01
          vertex 3.9000000000000004 4.800000000000001 0.01
          vertex 3.9000000000000004 4.800000000000001 1
      endloop
  endfacet
  facet normal 0.44721359549995954 -0.8944271909999151 0.0
      outer loop
          vertex 3.7 4.7 0.01
          vertex 3.9000000000000004 4.800000000000001 1
          vertex 3.7 4.7 1
      endloop
  endfacet
  facet normal 0.0 1.0 0.0
      outer loop
          vertex 3.9000000000000004 4.800000000000001 0.01
          vertex 3.1 4.800000000000001 0.01
          vertex 3.1 4.800000000000001 1
      endloop
  endfacet
  facet normal 0.0 1.0 -0.0
      outer loop
          vertex 3.9000000000000004 4.800000000000001 0.01
          vertex 3.1 4.800000000000001 1
          vertex 3.9000000000000004 4.800000000000001 1
      endloop
  endfacet
  facet normal -0.07124704998791002 0.997458699830735 0.0
      outer loop
          vertex 3.1 4.800000000000001 0.01
          vertex 1.7000000000000002 4.7 0.01
          vertex 1.7000000000000002 4.7 1
      endloop
  endfacet
  facet normal -0.07124704998791002 0.997458699830735 0.0
      outer loop
          vertex 3.1 4.800000000000001 0.01
          vertex 1.7000000000000002 4.7 1
          vertex 3.1 4.800000000000001 1
      endloop
  endfacet
endsolid obstacle
