solid obstacle
  facet normal 0.0 0.0 -1.0
      outer loop
          vertex 2.3000000000000003 4.2 0.1
          vertex 1.0 2.7 0.1
          vertex 1.0 2.9000000000000004 0.1
      endloop
  endfacet
  facet normal 0.0 0.0 1.0
      outer loop
          vertex 2.3000000000000003 4.2 1
          vertex 1.0 2.9000000000000004 1
          vertex 1.0 2.7 1
      endloop
  endfacet
  facet normal -0.7071067811865474 0.7071067811865477 0.0
      outer loop
          vertex 2.3000000000000003 4.2 0.1
          vertex 1.0 2.9000000000000004 0.1
          vertex 1.0 2.9000000000000004 1
      endloop
  endfacet
  facet normal -0.7071067811865474 0.7071067811865477 0.0
      outer loop
          vertex 2.3000000000000003 4.2 0.1
          vertex 1.0 2.9000000000000004 1
          vertex 2.3000000000000003 4.2 1
      endloop
  endfacet
  facet normal -1.0 0.0 0.0
      outer loop
          vertex 1.0 2.9000000000000004 0.1
          vertex 1.0 2.7 0.1
          vertex 1.0 2.7 1
      endloop
  endfacet
  facet normal -1.0 0.0 0.0
      outer loop
          vertex 1.0 2.9000000000000004 0.1
          vertex 1.0 2.7 1
          vertex 1.0 2.9000000000000004 1
      endloop
  endfacet
  facet normal 0.7556890827898175 -0.654930538417842 0.0
      outer loop
          vertex 1.0 2.7 0.1
          vertex 2.3000000000000003 4.2 0.1
          vertex 2.3000000000000003 4.2 1
      endloop
  endfacet
  facet normal 0.7556890827898175 -0.654930538417842 0.0
      outer loop
          vertex 1.0 2.7 0.1
          vertex 2.3000000000000003 4.2 1
          vertex 1.0 2.7 1
      endloop
  endfacet
endsolid obstacle
