solid obstacle
  facet normal 0.0 0.0 -1.0
      outer loop
          vertex 0.6000000000000001 2.4000000000000004 0.1
          vertex 2.1 2.2 0.1
          vertex 1.0 1.4000000000000001 0.1
      endloop
  endfacet
  facet normal 0.0 0.0 -1.0
      outer loop
          vertex 0.6000000000000001 2.4000000000000004 0.1
          vertex 1.9000000000000001 2.3000000000000003 0.1
          vertex 2.1 2.2 0.1
      endloop
  endfacet
  facet normal 0.0 0.0 1.0
      outer loop
          vertex 0.6000000000000001 2.4000000000000004 1
          vertex 1.0 1.4000000000000001 1
          vertex 2.1 2.2 1
      endloop
  endfacet
  facet normal 0.0 0.0 1.0
      outer loop
          vertex 0.6000000000000001 2.4000000000000004 1
          vertex 2.1 2.2 1
          vertex 1.9000000000000001 2.3000000000000003 1
      endloop
  endfacet
  facet normal -0.9284766908852594 -0.37139067635410355 0.0
      outer loop
          vertex 0.6000000000000001 2.4000000000000004 0.1
          vertex 1.0 1.4000000000000001 0.1
          vertex 1.0 1.4000000000000001 1
      endloop
  endfacet
  facet normal -0.9284766908852594 -0.37139067635410355 0.0
      outer loop
          vertex 0.6000000000000001 2.4000000000000004 0.1
          vertex 1.0 1.4000000000000001 1
          vertex 0.6000000000000001 2.4000000000000004 1
      endloop
  endfacet
  facet normal 0.5881716976750462 -0.8087360843031884 0.0
      outer loop
          vertex 1.0 1.4000000000000001 0.1
          vertex 2.1 2.2 0.1
          vertex 2.1 2.2 1
      endloop
  endfacet
  facet normal 0.5881716976750462 -0.8087360843031884 0.0
      outer loop
          vertex 1.0 1.4000000000000001 0.1
          vertex 2.1 2.2 1
          vertex 1.0 1.4000000000000001 1
      endloop
  endfacet
  facet normal 0.4472135954999583 0.8944271909999157 0.0
      outer loop
          vertex 2.1 2.2 0.1
          vertex 1.9000000000000001 2.3000000000000003 0.1
          vertex 1.9000000000000001 2.3000000000000003 1
      endloop
  endfacet
  facet normal 0.4472135954999583 0.8944271909999157 -0.0
      outer loop
          vertex 2.1 2.2 0.1
          vertex 1.9000000000000001 2.3000000000000003 1
          vertex 2.1 2.2 1
      endloop
  endfacet
  facet normal 0.0766964988847371 0.9970544855015816 0.0
      outer loop
          vertex 1.9000000000000001 2.3000000000000003 0.1
          vertex 0.6000000000000001 2.4000000000000004 0.1
          vertex 0.6000000000000001 2.4000000000000004 1
      endloop
  endfacet
  facet normal 0.0766964988847371 0.9970544855015816 -0.0
      outer loop
          vertex 1.9000000000000001 2.3000000000000003 0.1
          vertex 0.6000000000000001 2.4000000000000004 1
          vertex 1.9000000000000001 2.3000000000000003 1
      endloop
  endfacet
endsolid obstacle
