solid obstacle
  facet normal 0.0 0.0 -1.0
      outer loop
          vertex 0.8 3.4000000000000004 0.01
          vertex 1.1 3.6 0.01
          vertex 2.7 3.4000000000000004 0.01
      endloop
  endfacet
  facet normal 0.0 0.0 1.0
      outer loop
          vertex 0.8 3.4000000000000004 1
          vertex 2.7 3.4000000000000004 1
          vertex 1.1 3.6 1
      endloop
  endfacet
  facet normal 0.0 -1.0 0.0
      outer loop
          vertex 0.8 3.4000000000000004 0.01
          vertex 2.7 3.4000000000000004 0.01
          vertex 2.7 3.4000000000000004 1
      endloop
  endfacet
  facet normal 0.0 -1.0 0.0
      outer loop
          vertex 0.8 3.4000000000000004 0.01
          vertex 2.7 3.4000000000000004 1
          vertex 0.8 3.4000000000000004 1
      endloop
  endfacet
  facet normal 0.12403473458920829 0.9922778767136677 0.0
      outer loop
          vertex 2.7 3.4000000000000004 0.01
          vertex 1.1 3.6 0.01
          vertex 1.1 3.6 1
      endloop
  endfacet
  facet normal 0.12403473458920829 0.9922778767136677 -0.0
      outer loop
          vertex 2.7 3.4000000000000004 0.01
          vertex 1.1 3.6 1
          vertex 2.7 3.4000000000000004 1
      endloop
  endfacet
  facet normal -0.5547001962252286 0.832050294337844 0.0
      outer loop
          vertex 1.1 3.6 0.01
          vertex 0.8 3.4000000000000004 0.01
          vertex 0.8 3.4000000000000004 1
      endloop
  endfacet
  facet normal -0.5547001962252286 0.832050294337844 0.0
      outer loop
          vertex 1.1 3.6 0.01
          vertex 0.8 3.4000000000000004 1
          vertex 1.1 3.6 1
      endloop
  endfacet
endsolid obstacle
