solid obstacle
  facet normal 0.0 0.0 -1.0
      outer loop
          vertex 2.2 3.3000000000000003 0.01
          vertex 2.9000000000000004 3.9000000000000004 0.01
          vertex 3.0 2.4000000000000004 0.01
      endloop
  endfacet
  facet normal -0.0 0.0 1.0
      outer loop
          vertex 2.2 3.3000000000000003 1
          vertex 3.0 2.4000000000000004 1
          vertex 2.9000000000000004 3.9000000000000004 1
      endloop
  endfacet
  facet normal -0.7474093186836598 -0.6643638388299198 0.0
      outer loop
          vertex 2.2 3.3000000000000003 0.01
          vertex 3.0 2.4000000000000004 0.01
          vertex 3.0 2.4000000000000004 1
      endloop
  endfacet
  facet normal -0.7474093186836598 -0.6643638388299198 0.0
      outer loop
          vertex 2.2 3.3000000000000003 0.01
          vertex 3.0 2.4000000000000004 1
          vertex 2.2 3.3000000000000003 1
      endloop
  endfacet
  facet normal 0.997785157856609 0.06651901052377371 0.0
      outer loop
          vertex 3.0 2.4000000000000004 0.01
          vertex 2.9000000000000004 3.9000000000000004 0.01
          vertex 2.9000000000000004 3.9000000000000004 1
      endloop
  endfacet
  facet normal 0.997785157856609 0.06651901052377371 -0.0
      outer loop
          vertex 3.0 2.4000000000000004 0.01
          vertex 2.9000000000000004 3.9000000000000004 1
          vertex 3.0 2.4000000000000004 1
      endloop
  endfacet
  facet normal -0.6507913734559685 0.7592566023652967 0.0
      outer loop
          vertex 2.9000000000000004 3.9000000000000004 0.01
          vertex 2.2 3.3000000000000003 0.01
          vertex 2.2 3.3000000000000003 1
      endloop
  endfacet
  facet normal -0.6507913734559685 0.7592566023652967 0.0
      outer loop
          vertex 2.9000000000000004 3.9000000000000004 0.01
          vertex 2.2 3.3000000000000003 1
          vertex 2.9000000000000004 3.9000000000000004 1
      endloop
  endfacet
endsolid obstacle
