solid obstacle
  facet normal 0.0 0.0 -1.0
      outer loop
          vertex 0.7000000000000001 0.30000000000000004 0.01
          vertex 0.9 0.5 0.01
          vertex 1.1 0.1 0.01
      endloop
  endfacet
  facet normal -0.0 0.0 1.0
      outer loop
          vertex 0.7000000000000001 0.30000000000000004 1
          vertex 1.1 0.1 1
          vertex 0.9 0.5 1
      endloop
  endfacet
  facet normal -0.447213595499958 -0.8944271909999159 0.0
      outer loop
          vertex 0.7000000000000001 0.30000000000000004 0.01
          vertex 1.1 0.1 0.01
          vertex 1.1 0.1 1
      endloop
  endfacet
  facet normal -0.447213595499958 -0.8944271909999159 0.0
      outer loop
          vertex 0.7000000000000001 0.30000000000000004 0.01
          vertex 1.1 0.1 1
          vertex 0.7000000000000001 0.30000000000000004 1
      endloop
  endfacet
  facet normal 0.8944271909999159 0.44721359549995804 0.0
      outer loop
          vertex 1.1 0.1 0.01
          vertex 0.9 0.5 0.01
          vertex 0.9 0.5 1
      endloop
  endfacet
  facet normal 0.8944271909999159 0.44721359549995804 -0.0
      outer loop
          vertex 1.1 0.1 0.01
          vertex 0.9 0.5 1
          vertex 1.1 0.1 1
      endloop
  endfacet
  facet normal -0.7071067811865475 0.7071067811865475 0.0
      outer loop
          vertex 0.9 0.5 0.01
          vertex 0.7000000000000001 0.30000000000000004 0.01
          vertex 0.7000000000000001 0.30000000000000004 1
      endloop
  endfacet
  facet normal -0.7071067811865475 0.7071067811865475 0.0
      outer loop
          vertex 0.9 0.5 0.01
          vertex 0.7000000000000001 0.30000000000000004 1
          vertex 0.9 0.5 1
      endloop
  endfacet
endsolid obstacle
