solid obstacle
  facet normal 0.0 0.0 -1.0
      outer loop
          vertex 3.3000000000000003 1.1 0.1
          vertex 3.7 2.3000000000000003 0.1
          vertex 4.6000000000000005 2.1 0.1
      endloop
  endfacet
  facet normal 0.0 0.0 1.0
      outer loop
          vertex 3.3000000000000003 1.1 1
          vertex 4.6000000000000005 2.1 1
          vertex 3.7 2.3000000000000003 1
      endloop
  endfacet
  facet normal 0.6097107608496922 -0.7926239891046002 0.0
      outer loop
          vertex 3.3000000000000003 1.1 0.1
          vertex 4.6000000000000005 2.1 0.1
          vertex 4.6000000000000005 2.1 1
      endloop
  endfacet
  facet normal 0.6097107608496922 -0.7926239891046002 0.0
      outer loop
          vertex 3.3000000000000003 1.1 0.1
          vertex 4.6000000000000005 2.1 1
          vertex 3.3000000000000003 1.1 1
      endloop
  endfacet
  facet normal 0.21693045781865627 0.9761870601839527 0.0
      outer loop
          vertex 4.6000000000000005 2.1 0.1
          vertex 3.7 2.3000000000000003 0.1
          vertex 3.7 2.3000000000000003 1
      endloop
  endfacet
  facet normal 0.21693045781865627 0.9761870601839527 -0.0
      outer loop
          vertex 4.6000000000000005 2.1 0.1
          vertex 3.7 2.3000000000000003 1
          vertex 4.6000000000000005 2.1 1
      endloop
  endfacet
  facet normal -0.9486832980505138 0.3162277660168378 0.0
      outer loop
          vertex 3.7 2.3000000000000003 0.1
          vertex 3.3000000000000003 1.1 0.1
          vertex 3.3000000000000003 1.1 1
      endloop
  endfacet
  facet normal -0.9486832980505138 0.3162277660168378 0.0
      outer loop
          vertex 3.7 2.3000000000000003 0.1
          vertex 3.3000000000000003 1.1 1
          vertex 3.7 2.3000000000000003 1
      endloop
  endfacet
endsolid obstacle
