solid obstacle
  facet normal 0.0 0.0 -1.0
      outer loop
          vertex 3.2 1.2000000000000002 0.1
          vertex 3.1 0.8 0.1
          vertex 3.0 0.7000000000000001 0.1
      endloop
  endfacet
  facet normal 0.0 0.0 1.0
      outer loop
          vertex 3.2 1.2000000000000002 1
          vertex 3.0 0.7000000000000001 1
          vertex 3.1 0.8 1
      endloop
  endfacet
  facet normal -0.9284766908852593 0.37139067635410394 0.0
      outer loop
          vertex 3.2 1.2000000000000002 0.1
          vertex 3.0 0.7000000000000001 0.1
          vertex 3.0 0.7000000000000001 1
      endloop
  endfacet
  facet normal -0.9284766908852593 0.37139067635410394 0.0
      outer loop
          vertex 3.2 1.2000000000000002 0.1
          vertex 3.0 0.7000000000000001 1
          vertex 3.2 1.2000000000000002 1
      endloop
  endfacet
  facet normal 0.7071067811865471 -0.7071067811865479 0.0
      outer loop
          vertex 3.0 0.7000000000000001 0.1
          vertex 3.1 0.8 0.1
          vertex 3.1 0.8 1
      endloop
  endfacet
  facet normal 0.7071067811865471 -0.7071067811865479 0.0
      outer loop
          vertex 3.0 0.7000000000000001 0.1
          vertex 3.1 0.8 1
          vertex 3.0 0.7000000000000001 1
      endloop
  endfacet
  facet normal 0.9701425001453319 -0.24253562503633308 0.0
      outer loop
          vertex 3.1 0.8 0.1
          vertex 3.2 1.2000000000000002 0.1
          vertex 3.2 1.2000000000000002 1
      endloop
  endfacet
  facet normal 0.9701425001453319 -0.24253562503633308 0.0
      outer loop
          vertex 3.1 0.8 0.1
          vertex 3.2 1.2000000000000002 1
          vertex 3.1 0.8 1
      endloop
  endfacet
endsolid obstacle
