solid obstacle
  facet normal 0.0 0.0 -1.0
      outer loop
          vertex 0.0 0.30000000000000004 0.01
          vertex 0.1 0.6000000000000001 0.01
          vertex 0.4 0.2 0.01
      endloop
  endfacet
  facet normal -0.0 0.0 1.0
      outer loop
          vertex 0.0 0.30000000000000004 1
          vertex 0.4 0.2 1
          vertex 0.1 0.6000000000000001 1
      endloop
  endfacet
  facet normal -0.24253562503633302 -0.9701425001453319 0.0
      outer loop
          vertex 0.0 0.30000000000000004 0.01
          vertex 0.4 0.2 0.01
          vertex 0.4 0.2 1
      endloop
  endfacet
  facet normal -0.24253562503633302 -0.9701425001453319 0.0
      outer loop
          vertex 0.0 0.30000000000000004 0.01
          vertex 0.4 0.2 1
          vertex 0.0 0.30000000000000004 1
      endloop
  endfacet
  facet normal 0.7999999999999999 0.6 0.0
      outer loop
          vertex 0.4 0.2 0.01
          vertex 0.1 0.6000000000000001 0.01
          vertex 0.1 0.6000000000000001 1
      endloop
  endfacet
  facet normal 0.7999999999999999 0.6 -0.0
      outer loop
          vertex 0.4 0.2 0.01
          vertex 0.1 0.6000000000000001 1
          vertex 0.4 0.2 1
      endloop
  endfacet
  facet normal -0.9486832980505139 0.31622776601683794 0.0
      outer loop
          vertex 0.1 0.6000000000000001 0.01
          vertex 0.0 0.30000000000000004 0.01
          vertex 0.0 0.30000000000000004 1
      endloop
  endfacet
  facet normal -0.9486832980505139 0.31622776601683794 0.0
      outer loop
          vertex 0.1 0.6000000000000001 0.01
          vertex 0.0 0.30000000000000004 1
          vertex 0.1 0.6000000000000001 1
      endloop
  endfacet
endsolid obstacle
