solid obstacle
  facet normal 0.0 0.0 -1.0
      outer loop
          vertex 2.9000000000000004 4.4 0.01
          vertex 3.2 4.6000000000000005 0.01
          vertex 3.8000000000000003 3.9000000000000004 0.01
      endloop
  endfacet
  facet normal -0.0 0.0 1.0
      outer loop
          vertex 2.9000000000000004 4.4 1
          vertex 3.8000000000000003 3.9000000000000004 1
          vertex 3.2 4.6000000000000005 1
      endloop
  endfacet
  facet normal -0.48564293117863216 -0.8741572761215378 0.0
      outer loop
          vertex 2.9000000000000004 4.4 0.01
          vertex 3.8000000000000003 3.9000000000000004 0.01
          vertex 3.8000000000000003 3.9000000000000004 1
      endloop
  endfacet
  facet normal -0.48564293117863216 -0.8741572761215378 0.0
      outer loop
          vertex 2.9000000000000004 4.4 0.01
          vertex 3.8000000000000003 3.9000000000000004 1
          vertex 2.9000000000000004 4.4 1
      endloop
  endfacet
  facet normal 0.7592566023652967 0.6507913734559685 0.0
      outer loop
          vertex 3.8000000000000003 3.9000000000000004 0.01
          vertex 3.2 4.6000000000000005 0.01
          vertex 3.2 4.6000000000000005 1
      endloop
  endfacet
  facet normal 0.7592566023652967 0.6507913734559685 -0.0
      outer loop
          vertex 3.8000000000000003 3.9000000000000004 0.01
          vertex 3.2 4.6000000000000005 1
          vertex 3.8000000000000003 3.9000000000000004 1
      endloop
  endfacet
  facet normal -0.5547001962252297 0.8320502943378433 0.0
      outer loop
          vertex 3.2 4.6000000000000005 0.01
          vertex 2.9000000000000004 4.4 0.01
          vertex 2.9000000000000004 4.4 1
      endloop
  endfacet
  facet normal -0.5547001962252297 0.8320502943378433 0.0
      outer loop
          vertex 3.2 4.6000000000000005 0.01
          vertex 2.9000000000000004 4.4 1
          vertex 3.2 4.6000000000000005 1
      endloop
  endfacet
endsolid obstacle
