solid obstacle
  facet normal 0.0 0.0 -1.0
      outer loop
          vertex 4.4 3.1 0.01
          vertex 4.7 2.1 0.01
          vertex 4.7 1.7000000000000002 0.01
      endloop
  endfacet
  facet normal 0.0 0.0 1.0
      outer loop
          vertex 4.4 3.1 1
          vertex 4.7 1.7000000000000002 1
          vertex 4.7 2.1 1
      endloop
  endfacet
  facet normal -0.9778024140774095 -0.20952908873087334 0.0
      outer loop
          vertex 4.4 3.1 0.01
          vertex 4.7 1.7000000000000002 0.01
          vertex 4.7 1.7000000000000002 1
      endloop
  endfacet
  facet normal -0.9778024140774095 -0.20952908873087334 0.0
      outer loop
          vertex 4.4 3.1 0.01
          vertex 4.7 1.7000000000000002 1
          vertex 4.4 3.1 1
      endloop
  endfacet
  facet normal 1.0 0.0 0.0
      outer loop
          vertex 4.7 1.7000000000000002 0.01
          vertex 4.7 2.1 0.01
          vertex 4.7 2.1 1
      endloop
  endfacet
  facet normal 1.0 0.0 0.0
      outer loop
          vertex 4.7 1.7000000000000002 0.01
          vertex 4.7 2.1 1
          vertex 4.7 1.7000000000000002 1
      endloop
  endfacet
  facet normal 0.9578262852211514 0.2873478855663453 0.0
      outer loop
          vertex 4.7 2.1 0.01
          vertex 4.4 3.1 0.01
          vertex 4.4 3.1 1
      endloop
  endfacet
  facet normal 0.9578262852211514 0.2873478855663453 -0.0
      outer loop
          vertex 4.7 2.1 0.01
          vertex 4.4 3.1 1
          vertex 4.7 2.1 1
      endloop
  endfacet
endsolid obstacle
