solid obstacle
  facet normal 0.0 0.0 -1.0
      outer loop
          vertex 2.1 4.800000000000001 0.1
          vertex 0.9 3.3000000000000003 0.1
          vertex 0.5 4.2 0.1
      endloop
  endfacet
  facet normal 0.0 0.0 1.0
      outer loop
          vertex 2.1 4.800000000000001 1
          vertex 0.5 4.2 1
          vertex 0.9 3.3000000000000003 1
      endloop
  endfacet
  facet normal -0.3511234415883919 0.9363291775690444 0.0
      outer loop
          vertex 2.1 4.800000000000001 0.1
          vertex 0.5 4.2 0.1
          vertex 0.5 4.2 1
      endloop
  endfacet
  facet normal -0.3511234415883919 0.9363291775690444 0.0
      outer loop
          vertex 2.1 4.800000000000001 0.1
          vertex 0.5 4.2 1
          vertex 2.1 4.800000000000001 1
      endloop
  endfacet
  facet normal -0.913811548620257 -0.40613846605344767 0.0
      outer loop
          vertex 0.5 4.2 0.1
          vertex 0.9 3.3000000000000003 0.1
          vertex 0.9 3.3000000000000003 1
      endloop
  endfacet
  facet normal -0.913811548620257 -0.40613846605344767 0.0
      outer loop
          vertex 0.5 4.2 0.1
          vertex 0.9 3.3000000000000003 1
          vertex 0.5 4.2 1
      endloop
  endfacet
  facet normal 0.7808688094430304 -0.6246950475544243 0.0
      outer loop
          vertex 0.9 3.3000000000000003 0.1
          vertex 2.1 4.800000000000001 0.1
          vertex 2.1 4.800000000000001 1
      endloop
  endfacet
  facet normal 0.7808688094430304 -0.6246950475544243 0.0
      outer loop
          vertex 0.9 3.3000000000000003 0.1
          vertex 2.1 4.800000000000001 1
          vertex 0.9 3.3000000000000003 1
      endloop
  endfacet
endsolid obstacle
