solid obstacle
  facet normal 0.0 0.0 -1.0
      outer loop
          vertex 2.2 0.9 0.01
          vertex 3.0 1.6 0.01
          vertex 3.8000000000000003 1.0 0.01
      endloop
  endfacet
  facet normal 0.0 0.0 1.0
      outer loop
          vertex 2.2 0.9 1
          vertex 3.8000000000000003 1.0 1
          vertex 3.0 1.6 1
      endloop
  endfacet
  facet normal 0.06237828615518052 -0.9980525784828885 0.0
      outer loop
          vertex 2.2 0.9 0.01
          vertex 3.8000000000000003 1.0 0.01
          vertex 3.8000000000000003 1.0 1
      endloop
  endfacet
  facet normal 0.06237828615518052 -0.9980525784828885 0.0
      outer loop
          vertex 2.2 0.9 0.01
          vertex 3.8000000000000003 1.0 1
          vertex 2.2 0.9 1
      endloop
  endfacet
  facet normal 0.6 0.8 0.0
      outer loop
          vertex 3.8000000000000003 1.0 0.01
          vertex 3.0 1.6 0.01
          vertex 3.0 1.6 1
      endloop
  endfacet
  facet normal 0.6 0.8 -0.0
      outer loop
          vertex 3.8000000000000003 1.0 0.01
          vertex 3.0 1.6 1
          vertex 3.8000000000000003 1.0 1
      endloop
  endfacet
  facet normal -0.6585046078685183 0.7525766947068778 0.0
      outer loop
          vertex 3.0 1.6 0.01
          vertex 2.2 0.9 0.01
          vertex 2.2 0.9 1
      endloop
  endfacet
  facet normal -0.6585046078685183 0.7525766947068778 0.0
      outer loop
          vertex 3.0 1.6 0.01
          vertex 2.2 0.9 1
          vertex 3.0 1.6 1
      endloop
  endfacet
endsolid obstacle
