solid obstacle
  facet normal 0.0 0.0 -1.0
      outer loop
          vertex 2.8000000000000003 1.9000000000000001 0.1
          vertex 2.1 0.6000000000000001 0.1
          vertex 1.6 0.6000000000000001 0.1
      endloop
  endfacet
  facet normal 0.0 0.0 1.0
      outer loop
          vertex 2.8000000000000003 1.9000000000000001 1
          vertex 1.6 0.6000000000000001 1
          vertex 2.1 0.6000000000000001 1
      endloop
  endfacet
  facet normal -0.7348034446274878 0.6782801027330657 0.0
      outer loop
          vertex 2.8000000000000003 1.9000000000000001 0.1
          vertex 1.6 0.6000000000000001 0.1
          vertex 1.6 0.6000000000000001 1
      endloop
  endfacet
  facet normal -0.7348034446274878 0.6782801027330657 0.0
      outer loop
          vertex 2.8000000000000003 1.9000000000000001 0.1
          vertex 1.6 0.6000000000000001 1
          vertex 2.8000000000000003 1.9000000000000001 1
      endloop
  endfacet
  facet normal 0.0 -1.0 0.0
      outer loop
          vertex 1.6 0.6000000000000001 0.1
          vertex 2.1 0.6000000000000001 0.1
          vertex 2.1 0.6000000000000001 1
      endloop
  endfacet
  facet normal 0.0 -1.0 0.0
      outer loop
          vertex 1.6 0.6000000000000001 0.1
          vertex 2.1 0.6000000000000001 1
          vertex 1.6 0.6000000000000001 1
      endloop
  endfacet
  facet normal 0.8804710999221751 -0.4740998230350175 0.0
      outer loop
          vertex 2.1 0.6000000000000001 0.1
          vertex 2.8000000000000003 1.9000000000000001 0.1
          vertex 2.8000000000000003 1.9000000000000001 1
      endloop
  endfacet
  facet normal 0.8804710999221751 -0.4740998230350175 0.0
      outer loop
          vertex 2.1 0.6000000000000001 0.1
          vertex 2.8000000000000003 1.9000000000000001 1
          vertex 2.1 0.6000000000000001 1
      endloop
  endfacet
endsolid obstacle
