solid obstacle
  facet normal 0.0 0.0 -1.0
      outer loop
          vertex 3.2 3.5 0.01
          vertex 3.8000000000000003 3.7 0.01
          vertex 4.6000000000000005 3.6 0.01
      endloop
  endfacet
  facet normal 0.0 0.0 1.0
      outer loop
          vertex 3.2 3.5 1
          vertex 4.6000000000000005 3.6 1
          vertex 3.8000000000000003 3.7 1
      endloop
  endfacet
  facet normal 0.07124704998790969 -0.997458699830735 0.0
      outer loop
          vertex 3.2 3.5 0.01
          vertex 4.6000000000000005 3.6 0.01
          vertex 4.6000000000000005 3.6 1
      endloop
  endfacet
  facet normal 0.07124704998790969 -0.997458699830735 0.0
      outer loop
          vertex 3.2 3.5 0.01
          vertex 4.6000000000000005 3.6 1
          vertex 3.2 3.5 1
      endloop
  endfacet
  facet normal 0.12403473458920854 0.9922778767136677 0.0
      outer loop
          vertex 4.6000000000000005 3.6 0.01
          vertex 3.8000000000000003 3.7 0.01
          vertex 3.8000000000000003 3.7 1
      endloop
  endfacet
  facet normal 0.12403473458920854 0.9922778767136677 -0.0
      outer loop
          vertex 4.6000000000000005 3.6 0.01
          vertex 3.8000000000000003 3.7 1
          vertex 4.6000000000000005 3.6 1
      endloop
  endfacet
  facet normal -0.3162277660168381 0.9486832980505137 0.0
      outer loop
          vertex 3.8000000000000003 3.7 0.01
          vertex 3.2 3.5 0.01
          vertex 3.2 3.5 1
      endloop
  endfacet
  facet normal -0.3162277660168381 0.9486832980505137 0.0
      outer loop
          vertex 3.8000000000000003 3.7 0.01
          vertex 3.2 3.5 1
          vertex 3.8000000000000003 3.7 1
      endloop
  endfacet
endsolid obstacle
