solid obstacle
  facet normal 0.0 0.0 -1.0
      outer loop
          vertex 2.5 0.9 0.01
          vertex 2.1 1.6 0.01
          vertex 2.1 2.5 0.01
      endloop
  endfacet
  facet normal 0.0 0.0 1.0
      outer loop
          vertex 2.5 0.9 1
          vertex 2.1 2.5 1
          vertex 2.1 1.6 1
      endloop
  endfacet
  facet normal 0.9701425001453319 0.24253562503633289 0.0
      outer loop
          vertex 2.5 0.9 0.01
          vertex 2.1 2.5 0.01
          vertex 2.1 2.5 1
      endloop
  endfacet
  facet normal 0.9701425001453319 0.24253562503633289 -0.0
      outer loop
          vertex 2.5 0.9 0.01
          vertex 2.1 2.5 1
          vertex 2.5 0.9 1
      endloop
  endfacet
  facet normal -1.0 0.0 0.0
      outer loop
          vertex 2.1 2.5 0.01
          vertex 2.1 1.6 0.01
          vertex 2.1 1.6 1
      endloop
  endfacet
  facet normal -1.0 0.0 0.0
      outer loop
          vertex 2.1 2.5 0.01
          vertex 2.1 1.6 1
          vertex 2.1 2.5 1
      endloop
  endfacet
  facet normal -0.8682431421244593 -0.4961389383568337 0.0
      outer loop
          vertex 2.1 1.6 0.01
          vertex 2.5 0.9 0.01
          vertex 2.5 0.9 1
      endloop
  endfacet
  facet normal -0.8682431421244593 -0.4961389383568337 0.0
      outer loop
          vertex 2.1 1.6 0.01
          vertex 2.5 0.9 1
          vertex 2.1 1.6 1
      endloop
  endfacet
endsolid obstacle
