solid obstacle
  facet normal 0.0 0.0 -1.0
      outer loop
          vertex 2.1 0.5 0.1
          vertex 1.4000000000000001 0.5 0.1
          vertex 0.9 1.0 0.1
      endloop
  endfacet
  facet normal 0.0 0.0 1.0
      outer loop
          vertex 2.1 0.5 1
          vertex 0.9 1.0 1
          vertex 1.4000000000000001 0.5 1
      endloop
  endfacet
  facet normal 0.3846153846153846 0.9230769230769232 0.0
      outer loop
          vertex 2.1 0.5 0.1
          vertex 0.9 1.0 0.1
          vertex 0.9 1.0 1
      endloop
  endfacet
  facet normal 0.3846153846153846 0.9230769230769232 -0.0
      outer loop
          vertex 2.1 0.5 0.1
          vertex 0.9 1.0 1
          vertex 2.1 0.5 1
      endloop
  endfacet
  facet normal -0.7071067811865475 -0.7071067811865477 0.0
      outer loop
          vertex 0.9 1.0 0.1
          vertex 1.4000000000000001 0.5 0.1
          vertex 1.4000000000000001 0.5 1
      endloop
  endfacet
  facet normal -0.7071067811865475 -0.7071067811865477 0.0
      outer loop
          vertex 0.9 1.0 0.1
          vertex 1.4000000000000001 0.5 1
          vertex 0.9 1.0 1
      endloop
  endfacet
  facet normal 0.0 -1.0 0.0
      outer loop
          vertex 1.4000000000000001 0.5 0.1
          vertex 2.1 0.5 0.1
          vertex 2.1 0.5 1
      endloop
  endfacet
  facet normal 0.0 -1.0 0.0
      outer loop
          vertex 1.4000000000000001 0.5 0.1
          vertex 2.1 0.5 1
          vertex 1.4000000000000001 0.5 1
      endloop
  endfacet
endsolid obstacle
