solid obstacle
  facet normal 0.0 0.0 -1.0
      outer loop
          vertex 1.0 1.6 0.01
          vertex 0.8 1.8 0.01
          vertex 0.6000000000000001 2.9000000000000004 0.01
      endloop
  endfacet
  facet normal 0.0 0.0 1.0
      outer loop
          vertex 1.0 1.6 1
          vertex 0.6000000000000001 2.9000000000000004 1
          vertex 0.8 1.8 1
      endloop
  endfacet
  facet normal 0.9557790087219501 0.29408584883752303 0.0
      outer loop
          vertex 1.0 1.6 0.01
          vertex 0.6000000000000001 2.9000000000000004 0.01
          vertex 0.6000000000000001 2.9000000000000004 1
      endloop
  endfacet
  facet normal 0.9557790087219501 0.29408584883752303 -0.0
      outer loop
          vertex 1.0 1.6 0.01
          vertex 0.6000000000000001 2.9000000000000004 1
          vertex 1.0 1.6 1
      endloop
  endfacet
  facet normal -0.9838699100999074 -0.1788854381999831 0.0
      outer loop
          vertex 0.6000000000000001 2.9000000000000004 0.01
          vertex 0.8 1.8 0.01
          vertex 0.8 1.8 1
      endloop
  endfacet
  facet normal -0.9838699100999074 -0.1788854381999831 0.0
      outer loop
          vertex 0.6000000000000001 2.9000000000000004 0.01
          vertex 0.8 1.8 1
          vertex 0.6000000000000001 2.9000000000000004 1
      endloop
  endfacet
  facet normal -0.7071067811865475 -0.7071067811865475 0.0
      outer loop
          vertex 0.8 1.8 0.01
          vertex 1.0 1.6 0.01
          vertex 1.0 1.6 1
      endloop
  endfacet
  facet normal -0.7071067811865475 -0.7071067811865475 0.0
      outer loop
          vertex 0.8 1.8 0.01
          vertex 1.0 1.6 1
          vertex 0.8 1.8 1
      endloop
  endfacet
endsolid obstacle
