solid obstacle
  facet normal 0.0 0.0 -1.0
      outer loop
          vertex 2.0 1.0 0.1
          vertex 2.1 1.0 0.1
          vertex 3.5 0.7000000000000001 0.1
      endloop
  endfacet
  facet normal -0.0 0.0 1.0
      outer loop
          vertex 2.0 1.0 1
          vertex 3.5 0.7000000000000001 1
          vertex 2.1 1.0 1
      endloop
  endfacet
  facet normal -0.196116135138184 -0.9805806756909201 0.0
      outer loop
          vertex 2.0 1.0 0.1
          vertex 3.5 0.7000000000000001 0.1
          vertex 3.5 0.7000000000000001 1
      endloop
  endfacet
  facet normal -0.196116135138184 -0.9805806756909201 0.0
      outer loop
          vertex 2.0 1.0 0.1
          vertex 3.5 0.7000000000000001 1
          vertex 2.0 1.0 1
      endloop
  endfacet
  facet normal 0.20952908873087345 0.9778024140774095 0.0
      outer loop
          vertex 3.5 0.7000000000000001 0.1
          vertex 2.1 1.0 0.1
          vertex 2.1 1.0 1
      endloop
  endfacet
  facet normal 0.20952908873087345 0.9778024140774095 -0.0
      outer loop
          vertex 3.5 0.7000000000000001 0.1
          vertex 2.1 1.0 1
          vertex 3.5 0.7000000000000001 1
      endloop
  endfacet
  facet normal 0.0 1.0 0.0
      outer loop
          vertex 2.1 1.0 0.1
          vertex 2.0 1.0 0.1
          vertex 2.0 1.0 1
      endloop
  endfacet
  facet normal 0.0 1.0 -0.0
      outer loop
          vertex 2.1 1.0 0.1
          vertex 2.0 1.0 1
          vertex 2.1 1.0 1
      endloop
  endfacet
endsolid obstacle
