solid obstacle
  facet normal 0.0 0.0 -1.0
      outer loop
          vertex 2.7 4.4 0.01
          vertex 1.6 3.5 0.01
          vertex 1.5 3.5 0.01
      endloop
  endfacet
  facet normal 0.0 0.0 -1.0
      outer loop
          vertex 2.7 4.4 0.01
          vertex 2.3000000000000003 3.9000000000000004 0.01
          vertex 1.6 3.5 0.01
      endloop
  endfacet
  facet normal 0.0 0.0 1.0
      outer loop
          vertex 2.7 4.4 1
          vertex 1.5 3.5 1
          vertex 1.6 3.5 1
      endloop
  endfacet
  facet normal 0.0 0.0 1.0
      outer loop
          vertex 2.7 4.4 1
          vertex 1.6 3.5 1
          vertex 2.3000000000000003 3.9000000000000004 1
      endloop
  endfacet
  facet normal -0.6000000000000001 0.7999999999999999 0.0
      outer loop
          vertex 2.7 4.4 0.01
          vertex 1.5 3.5 0.01
          vertex 1.5 3.5 1
      endloop
  endfacet
  facet normal -0.6000000000000001 0.7999999999999999 0.0
      outer loop
          vertex 2.7 4.4 0.01
          vertex 1.5 3.5 1
          vertex 2.7 4.4 1
      endloop
  endfacet
  facet normal 0.0 -1.0 0.0
      outer loop
          vertex 1.5 3.5 0.01
          vertex 1.6 3.5 0.01
          vertex 1.6 3.5 1
      endloop
  endfacet
  facet normal 0.0 -1.0 0.0
      outer loop
          vertex 1.5 3.5 0.01
          vertex 1.6 3.5 1
          vertex 1.5 3.5 1
      endloop
  endfacet
  facet normal 0.49613893835683404 -0.8682431421244591 0.0
      outer loop
          vertex 1.6 3.5 0.01
          vertex 2.3000000000000003 3.9000000000000004 0.01
          vertex 2.3000000000000003 3.9000000000000004 1
      endloop
  endfacet
  facet normal 0.49613893835683404 -0.8682431421244591 0.0
      outer loop
          vertex 1.6 3.5 0.01
          vertex 2.3000000000000003 3.9000000000000004 1
          vertex 1.6 3.5 1
      endloop
  endfacet
  facet normal 0.7808688094430304 -0.6246950475544242 0.0
      outer loop
          vertex 2.3000000000000003 3.9000000000000004 0.01
          vertex 2.7 4.4 0.01
          vertex 2.7 4.4 1
      endloop
  endfacet
  facet normal 0.7808688094430304 -0.6246950475544242 0.0
      outer loop
          vertex 2.3000000000000003 3.9000000000000004 0.01
          vertex 2.7 4.4 1
          vertex 2.3000000000000003 3.9000000000000004 1
      endloop
  endfacet
endsolid obstacle
