solid obstacle
  facet normal 0.0 0.0 -1.0
      outer loop
          vertex 0.6000000000000001 1.8 0.01
          vertex 2.2 1.6 0.01
          vertex 1.9000000000000001 1.0 0.01
      endloop
  endfacet
  facet normal 0.0 0.0 -1.0
      outer loop
          vertex 0.6000000000000001 1.8 0.01
          vertex 0.9 2.3000000000000003 0.01
          vertex 2.2 1.6 0.01
      endloop
  endfacet
  facet normal 0.0 0.0 1.0
      outer loop
          vertex 0.6000000000000001 1.8 1
          vertex 1.9000000000000001 1.0 1
          vertex 2.2 1.6 1
      endloop
  endfacet
  facet normal -0.0 0.0 1.0
      outer loop
          vertex 0.6000000000000001 1.8 1
          vertex 2.2 1.6 1
          vertex 0.9 2.3000000000000003 1
      endloop
  endfacet
  facet normal -0.5240974256643347 -0.8516583167045438 0.0
      outer loop
          vertex 0.6000000000000001 1.8 0.01
          vertex 1.9000000000000001 1.0 0.01
          vertex 1.9000000000000001 1.0 1
      endloop
  endfacet
  facet normal -0.5240974256643347 -0.8516583167045438 0.0
      outer loop
          vertex 0.6000000000000001 1.8 0.01
          vertex 1.9000000000000001 1.0 1
          vertex 0.6000000000000001 1.8 1
      endloop
  endfacet
  facet normal 0.8944271909999159 -0.4472135954999579 0.0
      outer loop
          vertex 1.9000000000000001 1.0 0.01
          vertex 2.2 1.6 0.01
          vertex 2.2 1.6 1
      endloop
  endfacet
  facet normal 0.8944271909999159 -0.4472135954999579 0.0
      outer loop
          vertex 1.9000000000000001 1.0 0.01
          vertex 2.2 1.6 1
          vertex 1.9000000000000001 1.0 1
      endloop
  endfacet
  facet normal 0.47409982303501746 0.8804710999221752 0.0
      outer loop
          vertex 2.2 1.6 0.01
          vertex 0.9 2.3000000000000003 0.01
          vertex 0.9 2.3000000000000003 1
      endloop
  endfacet
  facet normal 0.47409982303501746 0.8804710999221752 -0.0
      outer loop
          vertex 2.2 1.6 0.01
          vertex 0.9 2.3000000000000003 1
          vertex 2.2 1.6 1
      endloop
  endfacet
  facet normal -0.8574929257125444 0.5144957554275263 0.0
      outer loop
          vertex 0.9 2.3000000000000003 0.01
          vertex 0.6000000000000001 1.8 0.01
          vertex 0.6000000000000001 1.8 1
      endloop
  endfacet
  facet normal -0.8574929257125444 0.5144957554275263 0.0
      outer loop
          vertex 0.9 2.3000000000000003 0.01
          vertex 0.6000000000000001 1.8 1
          vertex 0.9 2.3000000000000003 1
      endloop
  endfacet
endsolid obstacle
