solid obstacle
  facet normal 0.0 0.0 -1.0
      outer loop
          vertex 2.3000000000000003 2.0 0.01
          vertex 1.7000000000000002 2.0 0.01
          vertex 1.5 3.1 0.01
      endloop
  endfacet
  facet normal 0.0 0.0 1.0
      outer loop
          vertex 2.3000000000000003 2.0 1
          vertex 1.5 3.1 1
          vertex 1.7000000000000002 2.0 1
      endloop
  endfacet
  facet normal 0.8087360843031884 0.5881716976750464 0.0
      outer loop
          vertex 2.3000000000000003 2.0 0.01
          vertex 1.5 3.1 0.01
          vertex 1.5 3.1 1
      endloop
  endfacet
  facet normal 0.8087360843031884 0.5881716976750464 -0.0
      outer loop
          vertex 2.3000000000000003 2.0 0.01
          vertex 1.5 3.1 1
          vertex 2.3000000000000003 2.0 1
      endloop
  endfacet
  facet normal -0.9838699100999074 -0.17888543819998334 0.0
      outer loop
          vertex 1.5 3.1 0.01
          vertex 1.7000000000000002 2.0 0.01
          vertex 1.7000000000000002 2.0 1
      endloop
  endfacet
  facet normal -0.9838699100999074 -0.17888543819998334 0.0
      outer loop
          vertex 1.5 3.1 0.01
          vertex 1.7000000000000002 2.0 1
          vertex 1.5 3.1 1
      endloop
  endfacet
  facet normal 0.0 -1.0 0.0
      outer loop
          vertex 1.7000000000000002 2.0 0.01
          vertex 2.3000000000000003 2.0 0.01
          vertex 2.3000000000000003 2.0 1
      endloop
  endfacet
  facet normal 0.0 -1.0 0.0
      outer loop
          vertex 1.7000000000000002 2.0 0.01
          vertex 2.3000000000000003 2.0 1
          vertex 1.7000000000000002 2.0 1
      endloop
  endfacet
endsolid obstacle
