solid obstacle
  facet normal 0.0 0.0 -1.0
      outer loop
          vertex 0.5 1.8 0.01
          vertex 1.1 2.4000000000000004 0.01
          vertex 1.4000000000000001 2.0 0.01
      endloop
  endfacet
  facet normal 0.0 0.0 1.0
      outer loop
          vertex 0.5 1.8 1
          vertex 1.4000000000000001 2.0 1
          vertex 1.1 2.4000000000000004 1
      endloop
  endfacet
  facet normal 0.21693045781865608 -0.9761870601839527 0.0
      outer loop
          vertex 0.5 1.8 0.01
          vertex 1.4000000000000001 2.0 0.01
          vertex 1.4000000000000001 2.0 1
      endloop
  endfacet
  facet normal 0.21693045781865608 -0.9761870601839527 0.0
      outer loop
          vertex 0.5 1.8 0.01
          vertex 1.4000000000000001 2.0 1
          vertex 0.5 1.8 1
      endloop
  endfacet
  facet normal 0.8000000000000002 0.5999999999999996 0.0
      outer loop
          vertex 1.4000000000000001 2.0 0.01
          vertex 1.1 2.4000000000000004 0.01
          vertex 1.1 2.4000000000000004 1
      endloop
  endfacet
  facet normal 0.8000000000000002 0.5999999999999996 -0.0
      outer loop
          vertex 1.4000000000000001 2.0 0.01
          vertex 1.1 2.4000000000000004 1
          vertex 1.4000000000000001 2.0 1
      endloop
  endfacet
  facet normal -0.7071067811865476 0.7071067811865474 0.0
      outer loop
          vertex 1.1 2.4000000000000004 0.01
          vertex 0.5 1.8 0.01
          vertex 0.5 1.8 1
      endloop
  endfacet
  facet normal -0.7071067811865476 0.7071067811865474 0.0
      outer loop
          vertex 1.1 2.4000000000000004 0.01
          vertex 0.5 1.8 1
          vertex 1.1 2.4000000000000004 1
      endloop
  endfacet
endsolid obstacle
