solid obstacle
  facet normal 0.0 0.0 -1.0
      outer loop
          vertex 1.4000000000000001 1.9000000000000001 0.01
          vertex 1.2000000000000002 1.7000000000000002 0.01
          vertex 1.0 1.6 0.01
      endloop
  endfacet
  facet normal 0.0 0.0 1.0
      outer loop
          vertex 1.4000000000000001 1.9000000000000001 1
          vertex 1.0 1.6 1
          vertex 1.2000000000000002 1.7000000000000002 1
      endloop
  endfacet
  facet normal -0.6 0.8 0.0
      outer loop
          vertex 1.4000000000000001 1.9000000000000001 0.01
          vertex 1.0 1.6 0.01
          vertex 1.0 1.6 1
      endloop
  endfacet
  facet normal -0.6 0.8 0.0
      outer loop
          vertex 1.4000000000000001 1.9000000000000001 0.01
          vertex 1.0 1.6 1
          vertex 1.4000000000000001 1.9000000000000001 1
      endloop
  endfacet
  facet normal 0.4472135954999579 -0.8944271909999159 0.0
      outer loop
          vertex 1.0 1.6 0.01
          vertex 1.2000000000000002 1.7000000000000002 0.01
          vertex 1.2000000000000002 1.7000000000000002 1
      endloop
  endfacet
  facet normal 0.4472135954999579 -0.8944271909999159 0.0
      outer loop
          vertex 1.0 1.6 0.01
          vertex 1.2000000000000002 1.7000000000000002 1
          vertex 1.0 1.6 1
      endloop
  endfacet
  facet normal 0.7071067811865475 -0.7071067811865475 0.0
      outer loop
          vertex 1.2000000000000002 1.7000000000000002 0.01
          vertex 1.4000000000000001 1.9000000000000001 0.01
          vertex 1.4000000000000001 1.9000000000000001 1
      endloop
  endfacet
  facet normal 0.7071067811865475 -0.7071067811865475 0.0
      outer loop
          vertex 1.2000000000000002 1.7000000000000002 0.01
          vertex 1.4000000000000001 1.9000000000000001 1
          vertex 1.2000000000000002 1.7000000000000002 1
      endloop
  endfacet
endsolid obstacle
