solid obstacle
  facet normal -0.0 0.0 -1.0
      outer loop
          vertex 4.9 1.2000000000000002 0.01
          vertex 4.7 1.1 0.01
          vertex 3.5 2.1 0.01
      endloop
  endfacet
  facet normal 0.0 0.0 1.0
      outer loop
          vertex 4.9 1.2000000000000002 1
          vertex 3.5 2.1 1
          vertex 4.7 1.1 1
      endloop
  endfacet
  facet normal 0.5407575913134985 0.8411784753765535 0.0
      outer loop
          vertex 4.9 1.2000000000000002 0.01
          vertex 3.5 2.1 0.01
          vertex 3.5 2.1 1
      endloop
  endfacet
  facet normal 0.5407575913134985 0.8411784753765535 -0.0
      outer loop
          vertex 4.9 1.2000000000000002 0.01
          vertex 3.5 2.1 1
          vertex 4.9 1.2000000000000002 1
      endloop
  endfacet
  facet normal -0.6401843996644798 -0.768221279597376 0.0
      outer loop
          vertex 3.5 2.1 0.01
          vertex 4.7 1.1 0.01
          vertex 4.7 1.1 1
      endloop
  endfacet
  facet normal -0.6401843996644798 -0.768221279597376 0.0
      outer loop
          vertex 3.5 2.1 0.01
          vertex 4.7 1.1 1
          vertex 3.5 2.1 1
      endloop
  endfacet
  facet normal 0.4472135954999579 -0.8944271909999159 0.0
      outer loop
          vertex 4.7 1.1 0.01
          vertex 4.9 1.2000000000000002 0.01
          vertex 4.9 1.2000000000000002 1
      endloop
  endfacet
  facet normal 0.4472135954999579 -0.8944271909999159 0.0
      outer loop
          vertex 4.7 1.1 0.01
          vertex 4.9 1.2000000000000002 1
          vertex 4.7 1.1 1
      endloop
  endfacet
endsolid obstacle
