solid obstacle
  facet normal 0.0 0.0 -1.0
      outer loop
          vertex 1.5 2.8000000000000003 0.1
          vertex 1.0 2.4000000000000004 0.1
          vertex 0.5 2.7 0.1
      endloop
  endfacet
  facet normal 0.0 0.0 1.0
      outer loop
          vertex 1.5 2.8000000000000003 1
          vertex 0.5 2.7 1
          vertex 1.0 2.4000000000000004 1
      endloop
  endfacet
  facet normal -0.099503719020999 0.9950371902099892 0.0
      outer loop
          vertex 1.5 2.8000000000000003 0.1
          vertex 0.5 2.7 0.1
          vertex 0.5 2.7 1
      endloop
  endfacet
  facet normal -0.099503719020999 0.9950371902099892 0.0
      outer loop
          vertex 1.5 2.8000000000000003 0.1
          vertex 0.5 2.7 1
          vertex 1.5 2.8000000000000003 1
      endloop
  endfacet
  facet normal -0.5144957554275263 -0.8574929257125443 0.0
      outer loop
          vertex 0.5 2.7 0.1
          vertex 1.0 2.4000000000000004 0.1
          vertex 1.0 2.4000000000000004 1
      endloop
  endfacet
  facet normal -0.5144957554275263 -0.8574929257125443 0.0
      outer loop
          vertex 0.5 2.7 0.1
          vertex 1.0 2.4000000000000004 1
          vertex 0.5 2.7 1
      endloop
  endfacet
  facet normal 0.6246950475544242 -0.7808688094430304 0.0
      outer loop
          vertex 1.0 2.4000000000000004 0.1
          vertex 1.5 2.8000000000000003 0.1
          vertex 1.5 2.8000000000000003 1
      endloop
  endfacet
  facet normal 0.6246950475544242 -0.7808688094430304 0.0
      outer loop
          vertex 1.0 2.4000000000000004 0.1
          vertex 1.5 2.8000000000000003 1
          vertex 1.0 2.4000000000000004 1
      endloop
  endfacet
endsolid obstacle
