solid obstacle
  facet normal 0.0 0.0 -1.0
      outer loop
          vertex 2.3000000000000003 3.5 0.1
          vertex 2.3000000000000003 4.9 0.1
          vertex 2.4000000000000004 4.6000000000000005 0.1
      endloop
  endfacet
  facet normal 0.0 0.0 1.0
      outer loop
          vertex 2.3000000000000003 3.5 1
          vertex 2.4000000000000004 4.6000000000000005 1
          vertex 2.3000000000000003 4.9 1
      endloop
  endfacet
  facet normal 0.9958932064677039 -0.09053574604251856 0.0
      outer loop
          vertex 2.3000000000000003 3.5 0.1
          vertex 2.4000000000000004 4.6000000000000005 0.1
          vertex 2.4000000000000004 4.6000000000000005 1
      endloop
  endfacet
  facet normal 0.9958932064677039 -0.09053574604251856 0.0
      outer loop
          vertex 2.3000000000000003 3.5 0.1
          vertex 2.4000000000000004 4.6000000000000005 1
          vertex 2.3000000000000003 3.5 1
      endloop
  endfacet
  facet normal 0.9486832980505138 0.3162277660168384 0.0
      outer loop
          vertex 2.4000000000000004 4.6000000000000005 0.1
          vertex 2.3000000000000003 4.9 0.1
          vertex 2.3000000000000003 4.9 1
      endloop
  endfacet
  facet normal 0.9486832980505138 0.3162277660168384 -0.0
      outer loop
          vertex 2.4000000000000004 4.6000000000000005 0.1
          vertex 2.3000000000000003 4.9 1
          vertex 2.4000000000000004 4.6000000000000005 1
      endloop
  endfacet
  facet normal -1.0 0.0 0.0
      outer loop
          vertex 2.3000000000000003 4.9 0.1
          vertex 2.3000000000000003 3.5 0.1
          vertex 2.3000000000000003 3.5 1
      endloop
  endfacet
  facet normal -1.0 0.0 0.0
      outer loop
          vertex 2.3000000000000003 4.9 0.1
          vertex 2.3000000000000003 3.5 1
          vertex 2.3000000000000003 4.9 1
      endloop
  endfacet
endsolid obstacle
