solid obstacle
  facet normal 0.0 0.0 -1.0
      outer loop
          vertex 2.2 2.4000000000000004 0.1
          vertex 3.3000000000000003 1.3 0.1
          vertex 2.8000000000000003 0.8 0.1
      endloop
  endfacet
  facet normal 0.0 0.0 -1.0
      outer loop
          vertex 2.2 2.4000000000000004 0.1
          vertex 2.2 2.5 0.1
          vertex 3.3000000000000003 1.3 0.1
      endloop
  endfacet
  facet normal 0.0 0.0 1.0
      outer loop
          vertex 2.2 2.4000000000000004 1
          vertex 2.8000000000000003 0.8 1
          vertex 3.3000000000000003 1.3 1
      endloop
  endfacet
  facet normal -0.0 0.0 1.0
      outer loop
          vertex 2.2 2.4000000000000004 1
          vertex 3.3000000000000003 1.3 1
          vertex 2.2 2.5 1
      endloop
  endfacet
  facet normal -0.9363291775690445 -0.3511234415883917 0.0
      outer loop
          vertex 2.2 2.4000000000000004 0.1
          vertex 2.8000000000000003 0.8 0.1
          vertex 2.8000000000000003 0.8 1
      endloop
  endfacet
  facet normal -0.9363291775690445 -0.3511234415883917 0.0
      outer loop
          vertex 2.2 2.4000000000000004 0.1
          vertex 2.8000000000000003 0.8 1
          vertex 2.2 2.4000000000000004 1
      endloop
  endfacet
  facet normal 0.7071067811865476 -0.7071067811865476 0.0
      outer loop
          vertex 2.8000000000000003 0.8 0.1
          vertex 3.3000000000000003 1.3 0.1
          vertex 3.3000000000000003 1.3 1
      endloop
  endfacet
  facet normal 0.7071067811865476 -0.7071067811865476 0.0
      outer loop
          vertex 2.8000000000000003 0.8 0.1
          vertex 3.3000000000000003 1.3 1
          vertex 2.8000000000000003 0.8 1
      endloop
  endfacet
  facet normal 0.7371541402007414 0.6757246285173463 0.0
      outer loop
          vertex 3.3000000000000003 1.3 0.1
          vertex 2.2 2.5 0.1
          vertex 2.2 2.5 1
      endloop
  endfacet
  facet normal 0.7371541402007414 0.6757246285173463 -0.0
      outer loop
          vertex 3.3000000000000003 1.3 0.1
          vertex 2.2 2.5 1
          vertex 3.3000000000000003 1.3 1
      endloop
  endfacet
  facet normal -1.0 0.0 0.0
      outer loop
          vertex 2.2 2.5 0.1
          vertex 2.2 2.4000000000000004 0.1
          vertex 2.2 2.4000000000000004 1
      endloop
  endfacet
  facet normal -1.0 0.0 0.0
      outer loop
          vertex 2.2 2.5 0.1
          vertex 2.2 2.4000000000000004 1
          vertex 2.2 2.5 1
      endloop
  endfacet
endsolid obstacle
