solid obstacle
  facet normal 0.0 0.0 -1.0
      outer loop
          vertex 2.3000000000000003 4.800000000000001 0.1
          vertex 2.0 3.7 0.1
          vertex 1.9000000000000001 4.3 0.1
      endloop
  endfacet
  facet normal 0.0 0.0 1.0
      outer loop
          vertex 2.3000000000000003 4.800000000000001 1
          vertex 1.9000000000000001 4.3 1
          vertex 2.0 3.7 1
      endloop
  endfacet
  facet normal -0.7808688094430307 0.6246950475544237 0.0
      outer loop
          vertex 2.3000000000000003 4.800000000000001 0.1
          vertex 1.9000000000000001 4.3 0.1
          vertex 1.9000000000000001 4.3 1
      endloop
  endfacet
  facet normal -0.7808688094430307 0.6246950475544237 0.0
      outer loop
          vertex 2.3000000000000003 4.800000000000001 0.1
          vertex 1.9000000000000001 4.3 1
          vertex 2.3000000000000003 4.800000000000001 1
      endloop
  endfacet
  facet normal -0.9863939238321437 -0.16439898730535718 0.0
      outer loop
          vertex 1.9000000000000001 4.3 0.1
          vertex 2.0 3.7 0.1
          vertex 2.0 3.7 1
      endloop
  endfacet
  facet normal -0.9863939238321437 -0.16439898730535718 0.0
      outer loop
          vertex 1.9000000000000001 4.3 0.1
          vertex 2.0 3.7 1
          vertex 1.9000000000000001 4.3 1
      endloop
  endfacet
  facet normal 0.9647638212377321 -0.26311740579210885 0.0
      outer loop
          vertex 2.0 3.7 0.1
          vertex 2.3000000000000003 4.800000000000001 0.1
          vertex 2.3000000000000003 4.800000000000001 1
      endloop
  endfacet
  facet normal 0.9647638212377321 -0.26311740579210885 0.0
      outer loop
          vertex 2.0 3.7 0.1
          vertex 2.3000000000000003 4.800000000000001 1
          vertex 2.0 3.7 1
      endloop
  endfacet
endsolid obstacle
