solid obstacle
  facet normal 0.0 0.0 -1.0
      outer loop
          vertex 0.5 0.30000000000000004 0.01
          vertex 0.9 1.1 0.01
          vertex 1.1 0.8 0.01
      endloop
  endfacet
  facet normal 0.0 0.0 1.0
      outer loop
          vertex 0.5 0.30000000000000004 1
          vertex 1.1 0.8 1
          vertex 0.9 1.1 1
      endloop
  endfacet
  facet normal 0.6401843996644798 -0.768221279597376 0.0
      outer loop
          vertex 0.5 0.30000000000000004 0.01
          vertex 1.1 0.8 0.01
          vertex 1.1 0.8 1
      endloop
  endfacet
  facet normal 0.6401843996644798 -0.768221279597376 0.0
      outer loop
          vertex 0.5 0.30000000000000004 0.01
          vertex 1.1 0.8 1
          vertex 0.5 0.30000000000000004 1
      endloop
  endfacet
  facet normal 0.8320502943378436 0.5547001962252291 0.0
      outer loop
          vertex 1.1 0.8 0.01
          vertex 0.9 1.1 0.01
          vertex 0.9 1.1 1
      endloop
  endfacet
  facet normal 0.8320502943378436 0.5547001962252291 -0.0
      outer loop
          vertex 1.1 0.8 0.01
          vertex 0.9 1.1 1
          vertex 1.1 0.8 1
      endloop
  endfacet
  facet normal -0.8944271909999159 0.4472135954999579 0.0
      outer loop
          vertex 0.9 1.1 0.01
          vertex 0.5 0.30000000000000004 0.01
          vertex 0.5 0.30000000000000004 1
      endloop
  endfacet
  facet normal -0.8944271909999159 0.4472135954999579 0.0
      outer loop
          vertex 0.9 1.1 0.01
          vertex 0.5 0.30000000000000004 1
          vertex 0.9 1.1 1
      endloop
  endfacet
endsolid obstacle
