solid obstacle
  facet normal 0.0 0.0 -1.0
      outer loop
          vertex 1.9000000000000001 4.800000000000001 0.01
          vertex 0.9 4.6000000000000005 0.01
          vertex 0.6000000000000001 4.6000000000000005 0.01
      endloop
  endfacet
  facet normal 0.0 0.0 1.0
      outer loop
          vertex 1.9000000000000001 4.800000000000001 1
          vertex 0.6000000000000001 4.6000000000000005 1
          vertex 0.9 4.6000000000000005 1
      endloop
  endfacet
  facet normal -0.15205718425394124 0.9883716976506172 0.0
      outer loop
          vertex 1.9000000000000001 4.800000000000001 0.01
          vertex 0.6000000000000001 4.6000000000000005 0.01
          vertex 0.6000000000000001 4.6000000000000005 1
      endloop
  endfacet
  facet normal -0.15205718425394124 0.9883716976506172 0.0
      outer loop
          vertex 1.9000000000000001 4.800000000000001 0.01
          vertex 0.6000000000000001 4.6000000000000005 1
          vertex 1.9000000000000001 4.800000000000001 1
      endloop
  endfacet
  facet normal 0.0 -1.0 0.0
      outer loop
          vertex 0.6000000000000001 4.6000000000000005 0.01
          vertex 0.9 4.6000000000000005 0.01
          vertex 0.9 4.6000000000000005 1
      endloop
  endfacet
  facet normal 0.0 -1.0 0.0
      outer loop
          vertex 0.6000000000000001 4.6000000000000005 0.01
          vertex 0.9 4.6000000000000005 1
          vertex 0.6000000000000001 4.6000000000000005 1
      endloop
  endfacet
  facet normal 0.1961161351381842 -0.9805806756909201 0.0
      outer loop
          vertex 0.9 4.6000000000000005 0.01
          vertex 1.9000000000000001 4.800000000000001 0.01
          vertex 1.9000000000000001 4.800000000000001 1
      endloop
  endfacet
  facet normal 0.1961161351381842 -0.9805806756909201 0.0
      outer loop
          vertex 0.9 4.6000000000000005 0.01
          vertex 1.9000000000000001 4.800000000000001 1
          vertex 0.9 4.6000000000000005 1
      endloop
  endfacet
endsolid obstacle
