solid obstacle
  facet normal -0.0 0.0 -1.0
      outer loop
          vertex 4.9 4.1000000000000005 0.01
          vertex 3.5 3.9000000000000004 0.01
          vertex 3.2 4.6000000000000005 0.01
      endloop
  endfacet
  facet normal 0.0 0.0 1.0
      outer loop
          vertex 4.9 4.1000000000000005 1
          vertex 3.2 4.6000000000000005 1
          vertex 3.5 3.9000000000000004 1
      endloop
  endfacet
  facet normal 0.28216632399155017 0.9593655015712705 0.0
      outer loop
          vertex 4.9 4.1000000000000005 0.01
          vertex 3.2 4.6000000000000005 0.01
          vertex 3.2 4.6000000000000005 1
      endloop
  endfacet
  facet normal 0.28216632399155017 0.9593655015712705 -0.0
      outer loop
          vertex 4.9 4.1000000000000005 0.01
          vertex 3.2 4.6000000000000005 1
          vertex 4.9 4.1000000000000005 1
      endloop
  endfacet
  facet normal -0.919145030018058 -0.3939192985791674 0.0
      outer loop
          vertex 3.2 4.6000000000000005 0.01
          vertex 3.5 3.9000000000000004 0.01
          vertex 3.5 3.9000000000000004 1
      endloop
  endfacet
  facet normal -0.919145030018058 -0.3939192985791674 0.0
      outer loop
          vertex 3.2 4.6000000000000005 0.01
          vertex 3.5 3.9000000000000004 1
          vertex 3.2 4.6000000000000005 1
      endloop
  endfacet
  facet normal 0.1414213562373096 -0.9899494936611665 0.0
      outer loop
          vertex 3.5 3.9000000000000004 0.01
          vertex 4.9 4.1000000000000005 0.01
          vertex 4.9 4.1000000000000005 1
      endloop
  endfacet
  facet normal 0.1414213562373096 -0.9899494936611665 0.0
      outer loop
          vertex 3.5 3.9000000000000004 0.01
          vertex 4.9 4.1000000000000005 1
          vertex 3.5 3.9000000000000004 1
      endloop
  endfacet
endsolid obstacle
