solid obstacle
  facet normal 0.0 0.0 -1.0
      outer loop
          vertex 0.30000000000000004 1.3 0.01
          vertex 1.2000000000000002 1.9000000000000001 0.01
          vertex 2.0 0.9 0.01
      endloop
  endfacet
  facet normal -0.0 0.0 1.0
      outer loop
          vertex 0.30000000000000004 1.3 1
          vertex 2.0 0.9 1
          vertex 1.2000000000000002 1.9000000000000001 1
      endloop
  endfacet
  facet normal -0.22903933372554727 -0.9734171683335759 0.0
      outer loop
          vertex 0.30000000000000004 1.3 0.01
          vertex 2.0 0.9 0.01
          vertex 2.0 0.9 1
      endloop
  endfacet
  facet normal -0.22903933372554727 -0.9734171683335759 0.0
      outer loop
          vertex 0.30000000000000004 1.3 0.01
          vertex 2.0 0.9 1
          vertex 0.30000000000000004 1.3 1
      endloop
  endfacet
  facet normal 0.7808688094430304 0.6246950475544242 0.0
      outer loop
          vertex 2.0 0.9 0.01
          vertex 1.2000000000000002 1.9000000000000001 0.01
          vertex 1.2000000000000002 1.9000000000000001 1
      endloop
  endfacet
  facet normal 0.7808688094430304 0.6246950475544242 -0.0
      outer loop
          vertex 2.0 0.9 0.01
          vertex 1.2000000000000002 1.9000000000000001 1
          vertex 2.0 0.9 1
      endloop
  endfacet
  facet normal -0.5547001962252291 0.8320502943378436 0.0
      outer loop
          vertex 1.2000000000000002 1.9000000000000001 0.01
          vertex 0.30000000000000004 1.3 0.01
          vertex 0.30000000000000004 1.3 1
      endloop
  endfacet
  facet normal -0.5547001962252291 0.8320502943378436 0.0
      outer loop
          vertex 1.2000000000000002 1.9000000000000001 0.01
          vertex 0.30000000000000004 1.3 1
          vertex 1.2000000000000002 1.9000000000000001 1
      endloop
  endfacet
endsolid obstacle
