solid obstacle
  facet normal 0.0 0.0 -1.0
      outer loop
          vertex 2.9000000000000004 3.5 0.01
          vertex 2.2 3.6 0.01
          vertex 1.6 4.9 0.01
      endloop
  endfacet
  facet normal 0.0 0.0 1.0
      outer loop
          vertex 2.9000000000000004 3.5 1
          vertex 1.6 4.9 1
          vertex 2.2 3.6 1
      endloop
  endfacet
  facet normal 0.7327934916262993 0.6804510993672778 0.0
      outer loop
          vertex 2.9000000000000004 3.5 0.01
          vertex 1.6 4.9 0.01
          vertex 1.6 4.9 1
      endloop
  endfacet
  facet normal 0.7327934916262993 0.6804510993672778 -0.0
      outer loop
          vertex 2.9000000000000004 3.5 0.01
          vertex 1.6 4.9 1
          vertex 2.9000000000000004 3.5 1
      endloop
  endfacet
  facet normal -0.9079593845004517 -0.41905817746174695 0.0
      outer loop
          vertex 1.6 4.9 0.01
          vertex 2.2 3.6 0.01
          vertex 2.2 3.6 1
      endloop
  endfacet
  facet normal -0.9079593845004517 -0.41905817746174695 0.0
      outer loop
          vertex 1.6 4.9 0.01
          vertex 2.2 3.6 1
          vertex 1.6 4.9 1
      endloop
  endfacet
  facet normal -0.1414213562373096 -0.9899494936611665 0.0
      outer loop
          vertex 2.2 3.6 0.01
          vertex 2.9000000000000004 3.5 0.01
          vertex 2.9000000000000004 3.5 1
      endloop
  endfacet
  facet normal -0.1414213562373096 -0.9899494936611665 0.0
      outer loop
          vertex 2.2 3.6 0.01
          vertex 2.9000000000000004 3.5 1
          vertex 2.2 3.6 1
      endloop
  endfacet
endsolid obstacle
