solid obstacle
  facet normal 0.0 0.0 -1.0
      outer loop
          vertex 3.6 1.1 0.01
          vertex 3.2 0.1 0.01
          vertex 3.0 0.4 0.01
      endloop
  endfacet
  facet normal 0.0 -0.0 -1.0
      outer loop
          vertex 3.6 1.1 0.01
          vertex 4.0 0.30000000000000004 0.01
          vertex 3.2 0.1 0.01
      endloop
  endfacet
  facet normal 0.0 0.0 1.0
      outer loop
          vertex 3.6 1.1 1
          vertex 3.0 0.4 1
          vertex 3.2 0.1 1
      endloop
  endfacet
  facet normal 0.0 0.0 1.0
      outer loop
          vertex 3.6 1.1 1
          vertex 3.2 0.1 1
          vertex 4.0 0.30000000000000004 1
      endloop
  endfacet
  facet normal -0.7592566023652966 0.6507913734559685 0.0
      outer loop
          vertex 3.6 1.1 0.01
          vertex 3.0 0.4 0.01
          vertex 3.0 0.4 1
      endloop
  endfacet
  facet normal -0.7592566023652966 0.6507913734559685 0.0
      outer loop
          vertex 3.6 1.1 0.01
          vertex 3.0 0.4 1
          vertex 3.6 1.1 1
      endloop
  endfacet
  facet normal -0.8320502943378434 -0.5547001962252294 0.0
      outer loop
          vertex 3.0 0.4 0.01
          vertex 3.2 0.1 0.01
          vertex 3.2 0.1 1
      endloop
  endfacet
  facet normal -0.8320502943378434 -0.5547001962252294 0.0
      outer loop
          vertex 3.0 0.4 0.01
          vertex 3.2 0.1 1
          vertex 3.0 0.4 1
      endloop
  endfacet
  facet normal 0.24253562503633305 -0.9701425001453319 0.0
      outer loop
          vertex 3.2 0.1 0.01
          vertex 4.0 0.30000000000000004 0.01
          vertex 4.0 0.30000000000000004 1
      endloop
  endfacet
  facet normal 0.24253562503633305 -0.9701425001453319 0.0
      outer loop
          vertex 3.2 0.1 0.01
          vertex 4.0 0.30000000000000004 1
          vertex 3.2 0.1 1
      endloop
  endfacet
  facet normal 0.894427190999916 0.4472135954999578 0.0
      outer loop
          vertex 4.0 0.30000000000000004 0.01
          vertex 3.6 1.1 0.01
          vertex 3.6 1.1 1
      endloop
  endfacet
  facet normal 0.894427190999916 0.4472135954999578 -0.0
      outer loop
          vertex 4.0 0.30000000000000004 0.01
          vertex 3.6 1.1 1
          vertex 4.0 0.30000000000000004 1
      endloop
  endfacet
endsolid obstacle
