solid obstacle
  facet normal 0.0 0.0 -1.0
      outer loop
          vertex 4.0 4.2 0.01
          vertex 3.8000000000000003 3.5 0.01
          vertex 3.1 3.5 0.01
      endloop
  endfacet
  facet normal 0.0 0.0 1.0
      outer loop
          vertex 4.0 4.2 1
          vertex 3.1 3.5 1
          vertex 3.8000000000000003 3.5 1
      endloop
  endfacet
  facet normal -0.6139406135149206 0.7893522173763262 0.0
      outer loop
          vertex 4.0 4.2 0.01
          vertex 3.1 3.5 0.01
          vertex 3.1 3.5 1
      endloop
  endfacet
  facet normal -0.6139406135149206 0.7893522173763262 0.0
      outer loop
          vertex 4.0 4.2 0.01
          vertex 3.1 3.5 1
          vertex 4.0 4.2 1
      endloop
  endfacet
  facet normal 0.0 -1.0 0.0
      outer loop
          vertex 3.1 3.5 0.01
          vertex 3.8000000000000003 3.5 0.01
          vertex 3.8000000000000003 3.5 1
      endloop
  endfacet
  facet normal 0.0 -1.0 0.0
      outer loop
          vertex 3.1 3.5 0.01
          vertex 3.8000000000000003 3.5 1
          vertex 3.1 3.5 1
      endloop
  endfacet
  facet normal 0.9615239476408233 -0.2747211278973776 0.0
      outer loop
          vertex 3.8000000000000003 3.5 0.01
          vertex 4.0 4.2 0.01
          vertex 4.0 4.2 1
      endloop
  endfacet
  facet normal 0.9615239476408233 -0.2747211278973776 0.0
      outer loop
          vertex 3.8000000000000003 3.5 0.01
          vertex 4.0 4.2 1
          vertex 3.8000000000000003 3.5 1
      endloop
  endfacet
endsolid obstacle
