solid obstacle
  facet normal -0.0 0.0 -1.0
      outer loop
          vertex 1.6 1.5 0.01
          vertex 1.5 1.3 0.01
          vertex 1.2000000000000002 1.7000000000000002 0.01
      endloop
  endfacet
  facet normal 0.0 0.0 1.0
      outer loop
          vertex 1.6 1.5 1
          vertex 1.2000000000000002 1.7000000000000002 1
          vertex 1.5 1.3 1
      endloop
  endfacet
  facet normal 0.4472135954999583 0.8944271909999156 0.0
      outer loop
          vertex 1.6 1.5 0.01
          vertex 1.2000000000000002 1.7000000000000002 0.01
          vertex 1.2000000000000002 1.7000000000000002 1
      endloop
  endfacet
  facet normal 0.4472135954999583 0.8944271909999156 -0.0
      outer loop
          vertex 1.6 1.5 0.01
          vertex 1.2000000000000002 1.7000000000000002 1
          vertex 1.6 1.5 1
      endloop
  endfacet
  facet normal -0.8000000000000003 -0.5999999999999996 0.0
      outer loop
          vertex 1.2000000000000002 1.7000000000000002 0.01
          vertex 1.5 1.3 0.01
          vertex 1.5 1.3 1
      endloop
  endfacet
  facet normal -0.8000000000000003 -0.5999999999999996 0.0
      outer loop
          vertex 1.2000000000000002 1.7000000000000002 0.01
          vertex 1.5 1.3 1
          vertex 1.2000000000000002 1.7000000000000002 1
      endloop
  endfacet
  facet normal 0.8944271909999156 -0.4472135954999583 0.0
      outer loop
          vertex 1.5 1.3 0.01
          vertex 1.6 1.5 0.01
          vertex 1.6 1.5 1
      endloop
  endfacet
  facet normal 0.8944271909999156 -0.4472135954999583 0.0
      outer loop
          vertex 1.5 1.3 0.01
          vertex 1.6 1.5 1
          vertex 1.5 1.3 1
      endloop
  endfacet
endsolid obstacle
