solid obstacle
  facet normal 0.0 0.0 -1.0
      outer loop
          vertex 3.0 1.8 0.01
          vertex 3.5 2.9000000000000004 0.01
          vertex 3.8000000000000003 1.6 0.01
      endloop
  endfacet
  facet normal 0.0 0.0 -1.0
      outer loop
          vertex 3.0 1.8 0.01
          vertex 3.4000000000000004 3.1 0.01
          vertex 3.5 2.9000000000000004 0.01
      endloop
  endfacet
  facet normal -0.0 0.0 1.0
      outer loop
          vertex 3.0 1.8 1
          vertex 3.8000000000000003 1.6 1
          vertex 3.5 2.9000000000000004 1
      endloop
  endfacet
  facet normal 0.0 0.0 1.0
      outer loop
          vertex 3.0 1.8 1
          vertex 3.5 2.9000000000000004 1
          vertex 3.4000000000000004 3.1 1
      endloop
  endfacet
  facet normal -0.24253562503633286 -0.970142500145332 0.0
      outer loop
          vertex 3.0 1.8 0.01
          vertex 3.8000000000000003 1.6 0.01
          vertex 3.8000000000000003 1.6 1
      endloop
  endfacet
  facet normal -0.24253562503633286 -0.970142500145332 0.0
      outer loop
          vertex 3.0 1.8 0.01
          vertex 3.8000000000000003 1.6 1
          vertex 3.0 1.8 1
      endloop
  endfacet
  facet normal 0.9743911956946197 0.2248595066987586 0.0
      outer loop
          vertex 3.8000000000000003 1.6 0.01
          vertex 3.5 2.9000000000000004 0.01
          vertex 3.5 2.9000000000000004 1
      endloop
  endfacet
  facet normal 0.9743911956946197 0.2248595066987586 -0.0
      outer loop
          vertex 3.8000000000000003 1.6 0.01
          vertex 3.5 2.9000000000000004 1
          vertex 3.8000000000000003 1.6 1
      endloop
  endfacet
  facet normal 0.8944271909999163 0.44721359549995715 0.0
      outer loop
          vertex 3.5 2.9000000000000004 0.01
          vertex 3.4000000000000004 3.1 0.01
          vertex 3.4000000000000004 3.1 1
      endloop
  endfacet
  facet normal 0.8944271909999163 0.44721359549995715 -0.0
      outer loop
          vertex 3.5 2.9000000000000004 0.01
          vertex 3.4000000000000004 3.1 1
          vertex 3.5 2.9000000000000004 1
      endloop
  endfacet
  facet normal -0.95577900872195 0.29408584883752337 0.0
      outer loop
          vertex 3.4000000000000004 3.1 0.01
          vertex 3.0 1.8 0.01
          vertex 3.0 1.8 1
      endloop
  endfacet
  facet normal -0.95577900872195 0.29408584883752337 0.0
      outer loop
          vertex 3.4000000000000004 3.1 0.01
          vertex 3.0 1.8 1
          vertex 3.4000000000000004 3.1 1
      endloop
  endfacet
endsolid obstacle
