solid obstacle
  facet normal 0.0 0.0 -1.0
      outer loop
          vertex 0.4 0.4 0.01
          vertex 1.8 0.6000000000000001 0.01
          vertex 1.8 0.0 0.01
      endloop
  endfacet
  facet normal 0.0 0.0 -1.0
      outer loop
          vertex 0.4 0.4 0.01
          vertex 1.5 1.3 0.01
          vertex 1.8 0.6000000000000001 0.01
      endloop
  endfacet
  facet normal -0.0 0.0 1.0
      outer loop
          vertex 0.4 0.4 1
          vertex 1.8 0.0 1
          vertex 1.8 0.6000000000000001 1
      endloop
  endfacet
  facet normal 0.0 0.0 1.0
      outer loop
          vertex 0.4 0.4 1
          vertex 1.8 0.6000000000000001 1
          vertex 1.5 1.3 1
      endloop
  endfacet
  facet normal -0.27472112789737807 -0.961523947640823 0.0
      outer loop
          vertex 0.4 0.4 0.01
          vertex 1.8 0.0 0.01
          vertex 1.8 0.0 1
      endloop
  endfacet
  facet normal -0.27472112789737807 -0.961523947640823 0.0
      outer loop
          vertex 0.4 0.4 0.01
          vertex 1.8 0.0 1
          vertex 0.4 0.4 1
      endloop
  endfacet
  facet normal 1.0 0.0 0.0
      outer loop
          vertex 1.8 0.0 0.01
          vertex 1.8 0.6000000000000001 0.01
          vertex 1.8 0.6000000000000001 1
      endloop
  endfacet
  facet normal 1.0 0.0 0.0
      outer loop
          vertex 1.8 0.0 0.01
          vertex 1.8 0.6000000000000001 1
          vertex 1.8 0.0 1
      endloop
  endfacet
  facet normal 0.9191450300180579 0.39391929857916774 0.0
      outer loop
          vertex 1.8 0.6000000000000001 0.01
          vertex 1.5 1.3 0.01
          vertex 1.5 1.3 1
      endloop
  endfacet
  facet normal 0.9191450300180579 0.39391929857916774 -0.0
      outer loop
          vertex 1.8 0.6000000000000001 0.01
          vertex 1.5 1.3 1
          vertex 1.8 0.6000000000000001 1
      endloop
  endfacet
  facet normal -0.6332377902572627 0.773957299203321 0.0
      outer loop
          vertex 1.5 1.3 0.01
          vertex 0.4 0.4 0.01
          vertex 0.4 0.4 1
      endloop
  endfacet
  facet normal -0.6332377902572627 0.773957299203321 0.0
      outer loop
          vertex 1.5 1.3 0.01
          vertex 0.4 0.4 1
          vertex 1.5 1.3 1
      endloop
  endfacet
endsolid obstacle
