solid obstacle
  facet normal -0.0 0.0 -1.0
      outer loop
          vertex 2.8000000000000003 4.800000000000001 0.01
          vertex 2.5 4.7 0.01
          vertex 2.4000000000000004 4.800000000000001 0.01
      endloop
  endfacet
  facet normal 0.0 0.0 1.0
      outer loop
          vertex 2.8000000000000003 4.800000000000001 1
          vertex 2.4000000000000004 4.800000000000001 1
          vertex 2.5 4.7 1
      endloop
  endfacet
  facet normal 0.0 1.0 0.0
      outer loop
          vertex 2.8000000000000003 4.800000000000001 0.01
          vertex 2.4000000000000004 4.800000000000001 0.01
          vertex 2.4000000000000004 4.800000000000001 1
      endloop
  endfacet
  facet normal 0.0 1.0 -0.0
      outer loop
          vertex 2.8000000000000003 4.800000000000001 0.01
          vertex 2.4000000000000004 4.800000000000001 1
          vertex 2.8000000000000003 4.800000000000001 1
      endloop
  endfacet
  facet normal -0.7071067811865506 -0.7071067811865442 0.0
      outer loop
          vertex 2.4000000000000004 4.800000000000001 0.01
          vertex 2.5 4.7 0.01
          vertex 2.5 4.7 1
      endloop
  endfacet
  facet normal -0.7071067811865506 -0.7071067811865442 0.0
      outer loop
          vertex 2.4000000000000004 4.800000000000001 0.01
          vertex 2.5 4.7 1
          vertex 2.4000000000000004 4.800000000000001 1
      endloop
  endfacet
  facet normal 0.3162277660168392 -0.9486832980505133 0.0
      outer loop
          vertex 2.5 4.7 0.01
          vertex 2.8000000000000003 4.800000000000001 0.01
          vertex 2.8000000000000003 4.800000000000001 1
      endloop
  endfacet
  facet normal 0.3162277660168392 -0.9486832980505133 0.0
      outer loop
          vertex 2.5 4.7 0.01
          vertex 2.8000000000000003 4.800000000000001 1
          vertex 2.5 4.7 1
      endloop
  endfacet
endsolid obstacle
