solid obstacle
  facet normal 0.0 0.0 -1.0
      outer loop
          vertex 0.4 0.9 0.1
          vertex 1.7000000000000002 1.0 0.1
          vertex 1.3 0.5 0.1
      endloop
  endfacet
  facet normal 0.0 0.0 -1.0
      outer loop
          vertex 0.4 0.9 0.1
          vertex 0.6000000000000001 1.0 0.1
          vertex 1.7000000000000002 1.0 0.1
      endloop
  endfacet
  facet normal -0.0 0.0 1.0
      outer loop
          vertex 0.4 0.9 1
          vertex 1.3 0.5 1
          vertex 1.7000000000000002 1.0 1
      endloop
  endfacet
  facet normal 0.0 0.0 1.0
      outer loop
          vertex 0.4 0.9 1
          vertex 1.7000000000000002 1.0 1
          vertex 0.6000000000000001 1.0 1
      endloop
  endfacet
  facet normal -0.4061384660534476 -0.9138115486202572 0.0
      outer loop
          vertex 0.4 0.9 0.1
          vertex 1.3 0.5 0.1
          vertex 1.3 0.5 1
      endloop
  endfacet
  facet normal -0.4061384660534476 -0.9138115486202572 0.0
      outer loop
          vertex 0.4 0.9 0.1
          vertex 1.3 0.5 1
          vertex 0.4 0.9 1
      endloop
  endfacet
  facet normal 0.7808688094430303 -0.6246950475544244 0.0
      outer loop
          vertex 1.3 0.5 0.1
          vertex 1.7000000000000002 1.0 0.1
          vertex 1.7000000000000002 1.0 1
      endloop
  endfacet
  facet normal 0.7808688094430303 -0.6246950475544244 0.0
      outer loop
          vertex 1.3 0.5 0.1
          vertex 1.7000000000000002 1.0 1
          vertex 1.3 0.5 1
      endloop
  endfacet
  facet normal 0.0 1.0 0.0
      outer loop
          vertex 1.7000000000000002 1.0 0.1
          vertex 0.6000000000000001 1.0 0.1
          vertex 0.6000000000000001 1.0 1
      endloop
  endfacet
  facet normal 0.0 1.0 -0.0
      outer loop
          vertex 1.7000000000000002 1.0 0.1
          vertex 0.6000000000000001 1.0 1
          vertex 1.7000000000000002 1.0 1
      endloop
  endfacet
  facet normal -0.44721359549995776 0.8944271909999161 0.0
      outer loop
          vertex 0.6000000000000001 1.0 0.1
          vertex 0.4 0.9 0.1
          vertex 0.4 0.9 1
      endloop
  endfacet
  facet normal -0.44721359549995776 0.8944271909999161 0.0
      outer loop
          vertex 0.6000000000000001 1.0 0.1
          vertex 0.4 0.9 1
          vertex 0.6000000000000001 1.0 1
      endloop
  endfacet
endsolid obstacle
