solid obstacle
  facet normal 0.0 0.0 -1.0
      outer loop
          vertex 0.8 1.1 0.01
          vertex 1.0 1.2000000000000002 0.01
          vertex 1.2000000000000002 0.8 0.01
      endloop
  endfacet
  facet normal -0.0 0.0 1.0
      outer loop
          vertex 0.8 1.1 1
          vertex 1.2000000000000002 0.8 1
          vertex 1.0 1.2000000000000002 1
      endloop
  endfacet
  facet normal -0.6 -0.8 0.0
      outer loop
          vertex 0.8 1.1 0.01
          vertex 1.2000000000000002 0.8 0.01
          vertex 1.2000000000000002 0.8 1
      endloop
  endfacet
  facet normal -0.6 -0.8 0.0
      outer loop
          vertex 0.8 1.1 0.01
          vertex 1.2000000000000002 0.8 1
          vertex 0.8 1.1 1
      endloop
  endfacet
  facet normal 0.8944271909999159 0.44721359549995815 0.0
      outer loop
          vertex 1.2000000000000002 0.8 0.01
          vertex 1.0 1.2000000000000002 0.01
          vertex 1.0 1.2000000000000002 1
      endloop
  endfacet
  facet normal 0.8944271909999159 0.44721359549995815 -0.0
      outer loop
          vertex 1.2000000000000002 0.8 0.01
          vertex 1.0 1.2000000000000002 1
          vertex 1.2000000000000002 0.8 1
      endloop
  endfacet
  facet normal -0.4472135954999583 0.8944271909999156 0.0
      outer loop
          vertex 1.0 1.2000000000000002 0.01
          vertex 0.8 1.1 0.01
          vertex 0.8 1.1 1
      endloop
  endfacet
  facet normal -0.4472135954999583 0.8944271909999156 0.0
      outer loop
          vertex 1.0 1.2000000000000002 0.01
          vertex 0.8 1.1 1
          vertex 1.0 1.2000000000000002 1
      endloop
  endfacet
endsolid obstacle
