solid obstacle
  facet normal 0.0 0.0 -1.0
      outer loop
          vertex 3.8000000000000003 2.8000000000000003 0.1
          vertex 4.5 2.6 0.1
          vertex 4.5 1.9000000000000001 0.1
      endloop
  endfacet
  facet normal 0.0 0.0 1.0
      outer loop
          vertex 3.8000000000000003 2.8000000000000003 1
          vertex 4.5 1.9000000000000001 1
          vertex 4.5 2.6 1
      endloop
  endfacet
  facet normal -0.7893522173763264 -0.6139406135149202 0.0
      outer loop
          vertex 3.8000000000000003 2.8000000000000003 0.1
          vertex 4.5 1.9000000000000001 0.1
          vertex 4.5 1.9000000000000001 1
      endloop
  endfacet
  facet normal -0.7893522173763264 -0.6139406135149202 0.0
      outer loop
          vertex 3.8000000000000003 2.8000000000000003 0.1
          vertex 4.5 1.9000000000000001 1
          vertex 3.8000000000000003 2.8000000000000003 1
      endloop
  endfacet
  facet normal 1.0 0.0 0.0
      outer loop
          vertex 4.5 1.9000000000000001 0.1
          vertex 4.5 2.6 0.1
          vertex 4.5 2.6 1
      endloop
  endfacet
  facet normal 1.0 0.0 0.0
      outer loop
          vertex 4.5 1.9000000000000001 0.1
          vertex 4.5 2.6 1
          vertex 4.5 1.9000000000000001 1
      endloop
  endfacet
  facet normal 0.2747211278973784 0.9615239476408232 0.0
      outer loop
          vertex 4.5 2.6 0.1
          vertex 3.8000000000000003 2.8000000000000003 0.1
          vertex 3.8000000000000003 2.8000000000000003 1
      endloop
  endfacet
  facet normal 0.2747211278973784 0.9615239476408232 -0.0
      outer loop
          vertex 4.5 2.6 0.1
          vertex 3.8000000000000003 2.8000000000000003 1
          vertex 4.5 2.6 1
      endloop
  endfacet
endsolid obstacle
