solid obstacle
  facet normal 0.0 0.0 -1.0
      outer loop
          vertex 0.1 0.0 0.01
          vertex 0.2 1.9000000000000001 0.01
          vertex 0.30000000000000004 1.1 0.01
      endloop
  endfacet
  facet normal 0.0 0.0 1.0
      outer loop
          vertex 0.1 0.0 1
          vertex 0.30000000000000004 1.1 1
          vertex 0.2 1.9000000000000001 1
      endloop
  endfacet
  facet normal 0.9838699100999074 -0.1788854381999832 0.0
      outer loop
          vertex 0.1 0.0 0.01
          vertex 0.30000000000000004 1.1 0.01
          vertex 0.30000000000000004 1.1 1
      endloop
  endfacet
  facet normal 0.9838699100999074 -0.1788854381999832 0.0
      outer loop
          vertex 0.1 0.0 0.01
          vertex 0.30000000000000004 1.1 1
          vertex 0.1 0.0 1
      endloop
  endfacet
  facet normal 0.9922778767136675 0.12403473458920848 0.0
      outer loop
          vertex 0.30000000000000004 1.1 0.01
          vertex 0.2 1.9000000000000001 0.01
          vertex 0.2 1.9000000000000001 1
      endloop
  endfacet
  facet normal 0.9922778767136675 0.12403473458920848 -0.0
      outer loop
          vertex 0.30000000000000004 1.1 0.01
          vertex 0.2 1.9000000000000001 1
          vertex 0.30000000000000004 1.1 1
      endloop
  endfacet
  facet normal -0.9986178293325098 0.052558833122763673 0.0
      outer loop
          vertex 0.2 1.9000000000000001 0.01
          vertex 0.1 0.0 0.01
          vertex 0.1 0.0 1
      endloop
  endfacet
  facet normal -0.9986178293325098 0.052558833122763673 0.0
      outer loop
          vertex 0.2 1.9000000000000001 0.01
          vertex 0.1 0.0 1
          vertex 0.2 1.9000000000000001 1
      endloop
  endfacet
endsolid obstacle
