solid obstacle
  facet normal 0.0 0.0 -1.0
      outer loop
          vertex 1.1 0.4 0.01
          vertex 1.2000000000000002 0.5 0.01
          vertex 1.3 0.2 0.01
      endloop
  endfacet
  facet normal -0.0 0.0 1.0
      outer loop
          vertex 1.1 0.4 1
          vertex 1.3 0.2 1
          vertex 1.2000000000000002 0.5 1
      endloop
  endfacet
  facet normal -0.7071067811865477 -0.7071067811865475 0.0
      outer loop
          vertex 1.1 0.4 0.01
          vertex 1.3 0.2 0.01
          vertex 1.3 0.2 1
      endloop
  endfacet
  facet normal -0.7071067811865477 -0.7071067811865475 0.0
      outer loop
          vertex 1.1 0.4 0.01
          vertex 1.3 0.2 1
          vertex 1.1 0.4 1
      endloop
  endfacet
  facet normal 0.9486832980505139 0.31622776601683755 0.0
      outer loop
          vertex 1.3 0.2 0.01
          vertex 1.2000000000000002 0.5 0.01
          vertex 1.2000000000000002 0.5 1
      endloop
  endfacet
  facet normal 0.9486832980505139 0.31622776601683755 -0.0
      outer loop
          vertex 1.3 0.2 0.01
          vertex 1.2000000000000002 0.5 1
          vertex 1.3 0.2 1
      endloop
  endfacet
  facet normal -0.707106781186547 0.7071067811865479 0.0
      outer loop
          vertex 1.2000000000000002 0.5 0.01
          vertex 1.1 0.4 0.01
          vertex 1.1 0.4 1
      endloop
  endfacet
  facet normal -0.707106781186547 0.7071067811865479 0.0
      outer loop
          vertex 1.2000000000000002 0.5 0.01
          vertex 1.1 0.4 1
          vertex 1.2000000000000002 0.5 1
      endloop
  endfacet
endsolid obstacle
