solid obstacle
  facet normal 0.0 0.0 -1.0
      outer loop
          vertex 3.8000000000000003 1.4000000000000001 0.01
          vertex 2.8000000000000003 0.0 0.01
          vertex 1.9000000000000001 1.2000000000000002 0.01
      endloop
  endfacet
  facet normal 0.0 0.0 1.0
      outer loop
          vertex 3.8000000000000003 1.4000000000000001 1
          vertex 1.9000000000000001 1.2000000000000002 1
          vertex 2.8000000000000003 0.0 1
      endloop
  endfacet
  facet normal -0.10468478451804272 0.9945054529214061 0.0
      outer loop
          vertex 3.8000000000000003 1.4000000000000001 0.01
          vertex 1.9000000000000001 1.2000000000000002 0.01
          vertex 1.9000000000000001 1.2000000000000002 1
      endloop
  endfacet
  facet normal -0.10468478451804272 0.9945054529214061 0.0
      outer loop
          vertex 3.8000000000000003 1.4000000000000001 0.01
          vertex 1.9000000000000001 1.2000000000000002 1
          vertex 3.8000000000000003 1.4000000000000001 1
      endloop
  endfacet
  facet normal -0.8 -0.6000000000000001 0.0
      outer loop
          vertex 1.9000000000000001 1.2000000000000002 0.01
          vertex 2.8000000000000003 0.0 0.01
          vertex 2.8000000000000003 0.0 1
      endloop
  endfacet
  facet normal -0.8 -0.6000000000000001 0.0
      outer loop
          vertex 1.9000000000000001 1.2000000000000002 0.01
          vertex 2.8000000000000003 0.0 1
          vertex 1.9000000000000001 1.2000000000000002 1
      endloop
  endfacet
  facet normal 0.813733471206735 -0.5812381937190964 0.0
      outer loop
          vertex 2.8000000000000003 0.0 0.01
          vertex 3.8000000000000003 1.4000000000000001 0.01
          vertex 3.8000000000000003 1.4000000000000001 1
      endloop
  endfacet
  facet normal 0.813733471206735 -0.5812381937190964 0.0
      outer loop
          vertex 2.8000000000000003 0.0 0.01
          vertex 3.8000000000000003 1.4000000000000001 1
          vertex 2.8000000000000003 0.0 1
      endloop
  endfacet
endsolid obstacle
