solid obstacle
  facet normal 0.0 0.0 -1.0
      outer loop
          vertex 1.2000000000000002 4.4 0.01
          vertex 0.9 2.4000000000000004 0.01
          vertex 0.0 3.5 0.01
      endloop
  endfacet
  facet normal 0.0 -0.0 -1.0
      outer loop
          vertex 1.2000000000000002 4.4 0.01
          vertex 1.3 2.5 0.01
          vertex 0.9 2.4000000000000004 0.01
      endloop
  endfacet
  facet normal 0.0 0.0 1.0
      outer loop
          vertex 1.2000000000000002 4.4 1
          vertex 0.0 3.5 1
          vertex 0.9 2.4000000000000004 1
      endloop
  endfacet
  facet normal 0.0 0.0 1.0
      outer loop
          vertex 1.2000000000000002 4.4 1
          vertex 0.9 2.4000000000000004 1
          vertex 1.3 2.5 1
      endloop
  endfacet
  facet normal -0.6000000000000001 0.7999999999999999 0.0
      outer loop
          vertex 1.2000000000000002 4.4 0.01
          vertex 0.0 3.5 0.01
          vertex 0.0 3.5 1
      endloop
  endfacet
  facet normal -0.6000000000000001 0.7999999999999999 0.0
      outer loop
          vertex 1.2000000000000002 4.4 0.01
          vertex 0.0 3.5 1
          vertex 1.2000000000000002 4.4 1
      endloop
  endfacet
  facet normal -0.773957299203321 -0.6332377902572628 0.0
      outer loop
          vertex 0.0 3.5 0.01
          vertex 0.9 2.4000000000000004 0.01
          vertex 0.9 2.4000000000000004 1
      endloop
  endfacet
  facet normal -0.773957299203321 -0.6332377902572628 0.0
      outer loop
          vertex 0.0 3.5 0.01
          vertex 0.9 2.4000000000000004 1
          vertex 0.0 3.5 1
      endloop
  endfacet
  facet normal 0.24253562503633214 -0.9701425001453321 0.0
      outer loop
          vertex 0.9 2.4000000000000004 0.01
          vertex 1.3 2.5 0.01
          vertex 1.3 2.5 1
      endloop
  endfacet
  facet normal 0.24253562503633214 -0.9701425001453321 0.0
      outer loop
          vertex 0.9 2.4000000000000004 0.01
          vertex 1.3 2.5 1
          vertex 0.9 2.4000000000000004 1
      endloop
  endfacet
  facet normal 0.9986178293325098 0.05255883312276359 0.0
      outer loop
          vertex 1.3 2.5 0.01
          vertex 1.2000000000000002 4.4 0.01
          vertex 1.2000000000000002 4.4 1
      endloop
  endfacet
  facet normal 0.9986178293325098 0.05255883312276359 -0.0
      outer loop
          vertex 1.3 2.5 0.01
          vertex 1.2000000000000002 4.4 1
          vertex 1.3 2.5 1
      endloop
  endfacet
endsolid obstacle
