solid obstacle
  facet normal 0.0 0.0 -1.0
      outer loop
          vertex 1.2000000000000002 4.1000000000000005 0.01
          vertex 0.7000000000000001 3.1 0.01
          vertex 0.2 3.3000000000000003 0.01
      endloop
  endfacet
  facet normal 0.0 0.0 1.0
      outer loop
          vertex 1.2000000000000002 4.1000000000000005 1
          vertex 0.2 3.3000000000000003 1
          vertex 0.7000000000000001 3.1 1
      endloop
  endfacet
  facet normal -0.6246950475544243 0.7808688094430303 0.0
      outer loop
          vertex 1.2000000000000002 4.1000000000000005 0.01
          vertex 0.2 3.3000000000000003 0.01
          vertex 0.2 3.3000000000000003 1
      endloop
  endfacet
  facet normal -0.6246950475544243 0.7808688094430303 0.0
      outer loop
          vertex 1.2000000000000002 4.1000000000000005 0.01
          vertex 0.2 3.3000000000000003 1
          vertex 1.2000000000000002 4.1000000000000005 1
      endloop
  endfacet
  facet normal -0.37139067635410405 -0.9284766908852593 0.0
      outer loop
          vertex 0.2 3.3000000000000003 0.01
          vertex 0.7000000000000001 3.1 0.01
          vertex 0.7000000000000001 3.1 1
      endloop
  endfacet
  facet normal -0.37139067635410405 -0.9284766908852593 0.0
      outer loop
          vertex 0.2 3.3000000000000003 0.01
          vertex 0.7000000000000001 3.1 1
          vertex 0.2 3.3000000000000003 1
      endloop
  endfacet
  facet normal 0.894427190999916 -0.44721359549995787 0.0
      outer loop
          vertex 0.7000000000000001 3.1 0.01
          vertex 1.2000000000000002 4.1000000000000005 0.01
          vertex 1.2000000000000002 4.1000000000000005 1
      endloop
  endfacet
  facet normal 0.894427190999916 -0.44721359549995787 0.0
      outer loop
          vertex 0.7000000000000001 3.1 0.01
          vertex 1.2000000000000002 4.1000000000000005 1
          vertex 0.7000000000000001 3.1 1
      endloop
  endfacet
endsolid obstacle
