solid obstacle
  facet normal 0.0 -0.0 -1.0
      outer loop
          vertex 0.30000000000000004 1.7000000000000002 0.01
          vertex 0.30000000000000004 1.3 0.01
          vertex 0.2 1.5 0.01
      endloop
  endfacet
  facet normal 0.0 0.0 1.0
      outer loop
          vertex 0.30000000000000004 1.7000000000000002 1
          vertex 0.2 1.5 1
          vertex 0.30000000000000004 1.3 1
      endloop
  endfacet
  facet normal -0.894427190999916 0.44721359549995776 0.0
      outer loop
          vertex 0.30000000000000004 1.7000000000000002 0.01
          vertex 0.2 1.5 0.01
          vertex 0.2 1.5 1
      endloop
  endfacet
  facet normal -0.894427190999916 0.44721359549995776 0.0
      outer loop
          vertex 0.30000000000000004 1.7000000000000002 0.01
          vertex 0.2 1.5 1
          vertex 0.30000000000000004 1.7000000000000002 1
      endloop
  endfacet
  facet normal -0.8944271909999157 -0.44721359549995815 0.0
      outer loop
          vertex 0.2 1.5 0.01
          vertex 0.30000000000000004 1.3 0.01
          vertex 0.30000000000000004 1.3 1
      endloop
  endfacet
  facet normal -0.8944271909999157 -0.44721359549995815 0.0
      outer loop
          vertex 0.2 1.5 0.01
          vertex 0.30000000000000004 1.3 1
          vertex 0.2 1.5 1
      endloop
  endfacet
  facet normal 1.0 0.0 0.0
      outer loop
          vertex 0.30000000000000004 1.3 0.01
          vertex 0.30000000000000004 1.7000000000000002 0.01
          vertex 0.30000000000000004 1.7000000000000002 1
      endloop
  endfacet
  facet normal 1.0 0.0 0.0
      outer loop
          vertex 0.30000000000000004 1.3 0.01
          vertex 0.30000000000000004 1.7000000000000002 1
          vertex 0.30000000000000004 1.3 1
      endloop
  endfacet
endsolid obstacle
