solid obstacle
  facet normal 0.0 0.0 -1.0
      outer loop
          vertex 1.2000000000000002 1.3 0.01
          vertex 1.3 2.1 0.01
          vertex 1.8 1.1 0.01
      endloop
  endfacet
  facet normal -0.0 0.0 1.0
      outer loop
          vertex 1.2000000000000002 1.3 1
          vertex 1.8 1.1 1
          vertex 1.3 2.1 1
      endloop
  endfacet
  facet normal -0.31622776601683794 -0.9486832980505138 0.0
      outer loop
          vertex 1.2000000000000002 1.3 0.01
          vertex 1.8 1.1 0.01
          vertex 1.8 1.1 1
      endloop
  endfacet
  facet normal -0.31622776601683794 -0.9486832980505138 0.0
      outer loop
          vertex 1.2000000000000002 1.3 0.01
          vertex 1.8 1.1 1
          vertex 1.2000000000000002 1.3 1
      endloop
  endfacet
  facet normal 0.8944271909999159 0.4472135954999579 0.0
      outer loop
          vertex 1.8 1.1 0.01
          vertex 1.3 2.1 0.01
          vertex 1.3 2.1 1
      endloop
  endfacet
  facet normal 0.8944271909999159 0.4472135954999579 -0.0
      outer loop
          vertex 1.8 1.1 0.01
          vertex 1.3 2.1 1
          vertex 1.8 1.1 1
      endloop
  endfacet
  facet normal -0.9922778767136677 0.12403473458920829 0.0
      outer loop
          vertex 1.3 2.1 0.01
          vertex 1.2000000000000002 1.3 0.01
          vertex 1.2000000000000002 1.3 1
      endloop
  endfacet
  facet normal -0.9922778767136677 0.12403473458920829 0.0
      outer loop
          vertex 1.3 2.1 0.01
          vertex 1.2000000000000002 1.3 1
          vertex 1.3 2.1 1
      endloop
  endfacet
endsolid obstacle
