solid obstacle
  facet normal 0.0 0.0 -1.0
      outer loop
          vertex 0.0 1.6 0.01
          vertex 0.1 2.3000000000000003 0.01
          vertex 1.6 1.0 0.01
      endloop
  endfacet
  facet normal -0.0 0.0 1.0
      outer loop
          vertex 0.0 1.6 1
          vertex 1.6 1.0 1
          vertex 0.1 2.3000000000000003 1
      endloop
  endfacet
  facet normal -0.3511234415883917 -0.9363291775690445 0.0
      outer loop
          vertex 0.0 1.6 0.01
          vertex 1.6 1.0 0.01
          vertex 1.6 1.0 1
      endloop
  endfacet
  facet normal -0.3511234415883917 -0.9363291775690445 0.0
      outer loop
          vertex 0.0 1.6 0.01
          vertex 1.6 1.0 1
          vertex 0.0 1.6 1
      endloop
  endfacet
  facet normal 0.654930538417842 0.7556890827898175 0.0
      outer loop
          vertex 1.6 1.0 0.01
          vertex 0.1 2.3000000000000003 0.01
          vertex 0.1 2.3000000000000003 1
      endloop
  endfacet
  facet normal 0.654930538417842 0.7556890827898175 -0.0
      outer loop
          vertex 1.6 1.0 0.01
          vertex 0.1 2.3000000000000003 1
          vertex 1.6 1.0 1
      endloop
  endfacet
  facet normal -0.9899494936611665 0.14142135623730948 0.0
      outer loop
          vertex 0.1 2.3000000000000003 0.01
          vertex 0.0 1.6 0.01
          vertex 0.0 1.6 1
      endloop
  endfacet
  facet normal -0.9899494936611665 0.14142135623730948 0.0
      outer loop
          vertex 0.1 2.3000000000000003 0.01
          vertex 0.0 1.6 1
          vertex 0.1 2.3000000000000003 1
      endloop
  endfacet
endsolid obstacle
