solid obstacle
  facet normal 0.0 0.0 -1.0
      outer loop
          vertex 3.0 2.4000000000000004 0.01
          vertex 2.6 0.6000000000000001 0.01
          vertex 2.4000000000000004 1.1 0.01
      endloop
  endfacet
  facet normal 0.0 0.0 1.0
      outer loop
          vertex 3.0 2.4000000000000004 1
          vertex 2.4000000000000004 1.1 1
          vertex 2.6 0.6000000000000001 1
      endloop
  endfacet
  facet normal -0.9079593845004517 0.4190581774617466 0.0
      outer loop
          vertex 3.0 2.4000000000000004 0.01
          vertex 2.4000000000000004 1.1 0.01
          vertex 2.4000000000000004 1.1 1
      endloop
  endfacet
  facet normal -0.9079593845004517 0.4190581774617466 0.0
      outer loop
          vertex 3.0 2.4000000000000004 0.01
          vertex 2.4000000000000004 1.1 1
          vertex 3.0 2.4000000000000004 1
      endloop
  endfacet
  facet normal -0.9284766908852595 -0.3713906763541033 0.0
      outer loop
          vertex 2.4000000000000004 1.1 0.01
          vertex 2.6 0.6000000000000001 0.01
          vertex 2.6 0.6000000000000001 1
      endloop
  endfacet
  facet normal -0.9284766908852595 -0.3713906763541033 0.0
      outer loop
          vertex 2.4000000000000004 1.1 0.01
          vertex 2.6 0.6000000000000001 1
          vertex 2.4000000000000004 1.1 1
      endloop
  endfacet
  facet normal 0.9761870601839527 -0.21693045781865608 0.0
      outer loop
          vertex 2.6 0.6000000000000001 0.01
          vertex 3.0 2.4000000000000004 0.01
          vertex 3.0 2.4000000000000004 1
      endloop
  endfacet
  facet normal 0.9761870601839527 -0.21693045781865608 0.0
      outer loop
          vertex 2.6 0.6000000000000001 0.01
          vertex 3.0 2.4000000000000004 1
          vertex 2.6 0.6000000000000001 1
      endloop
  endfacet
endsolid obstacle
