solid obstacle
  facet normal 0.0 0.0 -1.0
      outer loop
          vertex 2.7 2.0 0.01
          vertex 3.8000000000000003 3.5 0.01
          vertex 4.2 3.1 0.01
      endloop
  endfacet
  facet normal 0.0 0.0 1.0
      outer loop
          vertex 2.7 2.0 1
          vertex 4.2 3.1 1
          vertex 3.8000000000000003 3.5 1
      endloop
  endfacet
  facet normal 0.5913636636275175 -0.8064049958557056 0.0
      outer loop
          vertex 2.7 2.0 0.01
          vertex 4.2 3.1 0.01
          vertex 4.2 3.1 1
      endloop
  endfacet
  facet normal 0.5913636636275175 -0.8064049958557056 0.0
      outer loop
          vertex 2.7 2.0 0.01
          vertex 4.2 3.1 1
          vertex 2.7 2.0 1
      endloop
  endfacet
  facet normal 0.7071067811865475 0.7071067811865475 0.0
      outer loop
          vertex 4.2 3.1 0.01
          vertex 3.8000000000000003 3.5 0.01
          vertex 3.8000000000000003 3.5 1
      endloop
  endfacet
  facet normal 0.7071067811865475 0.7071067811865475 -0.0
      outer loop
          vertex 4.2 3.1 0.01
          vertex 3.8000000000000003 3.5 1
          vertex 4.2 3.1 1
      endloop
  endfacet
  facet normal -0.8064049958557056 0.5913636636275175 0.0
      outer loop
          vertex 3.8000000000000003 3.5 0.01
          vertex 2.7 2.0 0.01
          vertex 2.7 2.0 1
      endloop
  endfacet
  facet normal -0.8064049958557056 0.5913636636275175 0.0
      outer loop
          vertex 3.8000000000000003 3.5 0.01
          vertex 2.7 2.0 1
          vertex 3.8000000000000003 3.5 1
      endloop
  endfacet
endsolid obstacle
