solid obstacle
  facet normal 0.0 0.0 -1.0
      outer loop
          vertex 4.7 4.0 0.1
          vertex 3.1 4.2 0.1
          vertex 3.0 4.5 0.1
      endloop
  endfacet
  facet normal 0.0 0.0 1.0
      outer loop
          vertex 4.7 4.0 1
          vertex 3.0 4.5 1
          vertex 3.1 4.2 1
      endloop
  endfacet
  facet normal 0.2821663239915501 0.9593655015712705 0.0
      outer loop
          vertex 4.7 4.0 0.1
          vertex 3.0 4.5 0.1
          vertex 3.0 4.5 1
      endloop
  endfacet
  facet normal 0.2821663239915501 0.9593655015712705 -0.0
      outer loop
          vertex 4.7 4.0 0.1
          vertex 3.0 4.5 1
          vertex 4.7 4.0 1
      endloop
  endfacet
  facet normal -0.9486832980505138 -0.3162277660168384 0.0
      outer loop
          vertex 3.0 4.5 0.1
          vertex 3.1 4.2 0.1
          vertex 3.1 4.2 1
      endloop
  endfacet
  facet normal -0.9486832980505138 -0.3162277660168384 0.0
      outer loop
          vertex 3.0 4.5 0.1
          vertex 3.1 4.2 1
          vertex 3.0 4.5 1
      endloop
  endfacet
  facet normal -0.12403473458920856 -0.9922778767136677 0.0
      outer loop
          vertex 3.1 4.2 0.1
          vertex 4.7 4.0 0.1
          vertex 4.7 4.0 1
      endloop
  endfacet
  facet normal -0.12403473458920856 -0.9922778767136677 0.0
      outer loop
          vertex 3.1 4.2 0.1
          vertex 4.7 4.0 1
          vertex 3.1 4.2 1
      endloop
  endfacet
endsolid obstacle
