solid obstacle
  facet normal -0.0 0.0 -1.0
      outer loop
          vertex 4.9 3.0 0.1
          vertex 4.6000000000000005 2.9000000000000004 0.1
          vertex 4.2 3.3000000000000003 0.1
      endloop
  endfacet
  facet normal 0.0 0.0 1.0
      outer loop
          vertex 4.9 3.0 1
          vertex 4.2 3.3000000000000003 1
          vertex 4.6000000000000005 2.9000000000000004 1
      endloop
  endfacet
  facet normal 0.3939192985791678 0.9191450300180577 0.0
      outer loop
          vertex 4.9 3.0 0.1
          vertex 4.2 3.3000000000000003 0.1
          vertex 4.2 3.3000000000000003 1
      endloop
  endfacet
  facet normal 0.3939192985791678 0.9191450300180577 -0.0
      outer loop
          vertex 4.9 3.0 0.1
          vertex 4.2 3.3000000000000003 1
          vertex 4.9 3.0 1
      endloop
  endfacet
  facet normal -0.7071067811865471 -0.7071067811865479 0.0
      outer loop
          vertex 4.2 3.3000000000000003 0.1
          vertex 4.6000000000000005 2.9000000000000004 0.1
          vertex 4.6000000000000005 2.9000000000000004 1
      endloop
  endfacet
  facet normal -0.7071067811865471 -0.7071067811865479 0.0
      outer loop
          vertex 4.2 3.3000000000000003 0.1
          vertex 4.6000000000000005 2.9000000000000004 1
          vertex 4.2 3.3000000000000003 1
      endloop
  endfacet
  facet normal 0.3162277660168371 -0.9486832980505141 0.0
      outer loop
          vertex 4.6000000000000005 2.9000000000000004 0.1
          vertex 4.9 3.0 0.1
          vertex 4.9 3.0 1
      endloop
  endfacet
  facet normal 0.3162277660168371 -0.9486832980505141 0.0
      outer loop
          vertex 4.6000000000000005 2.9000000000000004 0.1
          vertex 4.9 3.0 1
          vertex 4.6000000000000005 2.9000000000000004 1
      endloop
  endfacet
endsolid obstacle
