solid obstacle
  facet normal 0.0 0.0 -1.0
      outer loop
          vertex 0.4 1.7000000000000002 0.01
          vertex 0.1 1.7000000000000002 0.01
          vertex 0.1 1.8 0.01
      endloop
  endfacet
  facet normal 0.0 0.0 1.0
      outer loop
          vertex 0.4 1.7000000000000002 1
          vertex 0.1 1.8 1
          vertex 0.1 1.7000000000000002 1
      endloop
  endfacet
  facet normal 0.31622776601683755 0.948683298050514 0.0
      outer loop
          vertex 0.4 1.7000000000000002 0.01
          vertex 0.1 1.8 0.01
          vertex 0.1 1.8 1
      endloop
  endfacet
  facet normal 0.31622776601683755 0.948683298050514 -0.0
      outer loop
          vertex 0.4 1.7000000000000002 0.01
          vertex 0.1 1.8 1
          vertex 0.4 1.7000000000000002 1
      endloop
  endfacet
  facet normal -1.0 0.0 0.0
      outer loop
          vertex 0.1 1.8 0.01
          vertex 0.1 1.7000000000000002 0.01
          vertex 0.1 1.7000000000000002 1
      endloop
  endfacet
  facet normal -1.0 0.0 0.0
      outer loop
          vertex 0.1 1.8 0.01
          vertex 0.1 1.7000000000000002 1
          vertex 0.1 1.8 1
      endloop
  endfacet
  facet normal 0.0 -1.0 0.0
      outer loop
          vertex 0.1 1.7000000000000002 0.01
          vertex 0.4 1.7000000000000002 0.01
          vertex 0.4 1.7000000000000002 1
      endloop
  endfacet
  facet normal 0.0 -1.0 0.0
      outer loop
          vertex 0.1 1.7000000000000002 0.01
          vertex 0.4 1.7000000000000002 1
          vertex 0.1 1.7000000000000002 1
      endloop
  endfacet
endsolid obstacle
