solid obstacle
  facet normal 0.0 -0.0 -1.0
      outer loop
          vertex 1.0 4.1000000000000005 0.1
          vertex 1.1 2.2 0.1
          vertex 0.4 3.4000000000000004 0.1
      endloop
  endfacet
  facet normal 0.0 0.0 -1.0
      outer loop
          vertex 1.0 4.1000000000000005 0.1
          vertex 1.4000000000000001 2.8000000000000003 0.1
          vertex 1.1 2.2 0.1
      endloop
  endfacet
  facet normal 0.0 0.0 1.0
      outer loop
          vertex 1.0 4.1000000000000005 1
          vertex 0.4 3.4000000000000004 1
          vertex 1.1 2.2 1
      endloop
  endfacet
  facet normal 0.0 0.0 1.0
      outer loop
          vertex 1.0 4.1000000000000005 1
          vertex 1.1 2.2 1
          vertex 1.4000000000000001 2.8000000000000003 1
      endloop
  endfacet
  facet normal -0.7592566023652967 0.6507913734559684 0.0
      outer loop
          vertex 1.0 4.1000000000000005 0.1
          vertex 0.4 3.4000000000000004 0.1
          vertex 0.4 3.4000000000000004 1
      endloop
  endfacet
  facet normal -0.7592566023652967 0.6507913734559684 0.0
      outer loop
          vertex 1.0 4.1000000000000005 0.1
          vertex 0.4 3.4000000000000004 1
          vertex 1.0 4.1000000000000005 1
      endloop
  endfacet
  facet normal -0.8637789008984335 -0.5038710255240861 0.0
      outer loop
          vertex 0.4 3.4000000000000004 0.1
          vertex 1.1 2.2 0.1
          vertex 1.1 2.2 1
      endloop
  endfacet
  facet normal -0.8637789008984335 -0.5038710255240861 0.0
      outer loop
          vertex 0.4 3.4000000000000004 0.1
          vertex 1.1 2.2 1
          vertex 0.4 3.4000000000000004 1
      endloop
  endfacet
  facet normal 0.894427190999916 -0.447213595499958 0.0
      outer loop
          vertex 1.1 2.2 0.1
          vertex 1.4000000000000001 2.8000000000000003 0.1
          vertex 1.4000000000000001 2.8000000000000003 1
      endloop
  endfacet
  facet normal 0.894427190999916 -0.447213595499958 0.0
      outer loop
          vertex 1.1 2.2 0.1
          vertex 1.4000000000000001 2.8000000000000003 1
          vertex 1.1 2.2 1
      endloop
  endfacet
  facet normal 0.95577900872195 0.29408584883752314 0.0
      outer loop
          vertex 1.4000000000000001 2.8000000000000003 0.1
          vertex 1.0 4.1000000000000005 0.1
          vertex 1.0 4.1000000000000005 1
      endloop
  endfacet
  facet normal 0.95577900872195 0.29408584883752314 -0.0
      outer loop
          vertex 1.4000000000000001 2.8000000000000003 0.1
          vertex 1.0 4.1000000000000005 1
          vertex 1.4000000000000001 2.8000000000000003 1
      endloop
  endfacet
endsolid obstacle
