solid obstacle
  facet normal 0.0 0.0 -1.0
      outer loop
          vertex 1.6 2.5 0.01
          vertex 2.7 4.0 0.01
          vertex 2.7 2.1 0.01
      endloop
  endfacet
  facet normal -0.0 0.0 1.0
      outer loop
          vertex 1.6 2.5 1
          vertex 2.7 2.1 1
          vertex 2.7 4.0 1
      endloop
  endfacet
  facet normal -0.3417430630867044 -0.9397934234884372 0.0
      outer loop
          vertex 1.6 2.5 0.01
          vertex 2.7 2.1 0.01
          vertex 2.7 2.1 1
      endloop
  endfacet
  facet normal -0.3417430630867044 -0.9397934234884372 0.0
      outer loop
          vertex 1.6 2.5 0.01
          vertex 2.7 2.1 1
          vertex 1.6 2.5 1
      endloop
  endfacet
  facet normal 1.0 0.0 0.0
      outer loop
          vertex 2.7 2.1 0.01
          vertex 2.7 4.0 0.01
          vertex 2.7 4.0 1
      endloop
  endfacet
  facet normal 1.0 0.0 0.0
      outer loop
          vertex 2.7 2.1 0.01
          vertex 2.7 4.0 1
          vertex 2.7 2.1 1
      endloop
  endfacet
  facet normal -0.8064049958557056 0.5913636636275175 0.0
      outer loop
          vertex 2.7 4.0 0.01
          vertex 1.6 2.5 0.01
          vertex 1.6 2.5 1
      endloop
  endfacet
  facet normal -0.8064049958557056 0.5913636636275175 0.0
      outer loop
          vertex 2.7 4.0 0.01
          vertex 1.6 2.5 1
          vertex 2.7 4.0 1
      endloop
  endfacet
endsolid obstacle
