solid obstacle
  facet normal 0.0 0.0 -1.0
      outer loop
          vertex 2.9000000000000004 4.9 0.01
          vertex 2.4000000000000004 3.0 0.01
          vertex 1.3 4.3 0.01
      endloop
  endfacet
  facet normal 0.0 0.0 1.0
      outer loop
          vertex 2.9000000000000004 4.9 1
          vertex 1.3 4.3 1
          vertex 2.4000000000000004 3.0 1
      endloop
  endfacet
  facet normal -0.3511234415883919 0.9363291775690444 0.0
      outer loop
          vertex 2.9000000000000004 4.9 0.01
          vertex 1.3 4.3 0.01
          vertex 1.3 4.3 1
      endloop
  endfacet
  facet normal -0.3511234415883919 0.9363291775690444 0.0
      outer loop
          vertex 2.9000000000000004 4.9 0.01
          vertex 1.3 4.3 1
          vertex 2.9000000000000004 4.9 1
      endloop
  endfacet
  facet normal -0.7633862853691145 -0.645942241466174 0.0
      outer loop
          vertex 1.3 4.3 0.01
          vertex 2.4000000000000004 3.0 0.01
          vertex 2.4000000000000004 3.0 1
      endloop
  endfacet
  facet normal -0.7633862853691145 -0.645942241466174 0.0
      outer loop
          vertex 1.3 4.3 0.01
          vertex 2.4000000000000004 3.0 1
          vertex 1.3 4.3 1
      endloop
  endfacet
  facet normal 0.9670745372626464 -0.25449329927964376 0.0
      outer loop
          vertex 2.4000000000000004 3.0 0.01
          vertex 2.9000000000000004 4.9 0.01
          vertex 2.9000000000000004 4.9 1
      endloop
  endfacet
  facet normal 0.9670745372626464 -0.25449329927964376 0.0
      outer loop
          vertex 2.4000000000000004 3.0 0.01
          vertex 2.9000000000000004 4.9 1
          vertex 2.4000000000000004 3.0 1
      endloop
  endfacet
endsolid obstacle
