solid obstacle
  facet normal 0.0 0.0 -1.0
      outer loop
          vertex 0.4 4.4 0.01
          vertex 1.0 4.4 0.01
          vertex 1.3 4.0 0.01
      endloop
  endfacet
  facet normal -0.0 0.0 1.0
      outer loop
          vertex 0.4 4.4 1
          vertex 1.3 4.0 1
          vertex 1.0 4.4 1
      endloop
  endfacet
  facet normal -0.4061384660534479 -0.9138115486202569 0.0
      outer loop
          vertex 0.4 4.4 0.01
          vertex 1.3 4.0 0.01
          vertex 1.3 4.0 1
      endloop
  endfacet
  facet normal -0.4061384660534479 -0.9138115486202569 0.0
      outer loop
          vertex 0.4 4.4 0.01
          vertex 1.3 4.0 1
          vertex 0.4 4.4 1
      endloop
  endfacet
  facet normal 0.8000000000000002 0.5999999999999996 0.0
      outer loop
          vertex 1.3 4.0 0.01
          vertex 1.0 4.4 0.01
          vertex 1.0 4.4 1
      endloop
  endfacet
  facet normal 0.8000000000000002 0.5999999999999996 -0.0
      outer loop
          vertex 1.3 4.0 0.01
          vertex 1.0 4.4 1
          vertex 1.3 4.0 1
      endloop
  endfacet
  facet normal 0.0 1.0 0.0
      outer loop
          vertex 1.0 4.4 0.01
          vertex 0.4 4.4 0.01
          vertex 0.4 4.4 1
      endloop
  endfacet
  facet normal 0.0 1.0 -0.0
      outer loop
          vertex 1.0 4.4 0.01
          vertex 0.4 4.4 1
          vertex 1.0 4.4 1
      endloop
  endfacet
endsolid obstacle
