solid obstacle
  facet normal 0.0 0.0 -1.0
      outer loop
          vertex 2.8000000000000003 2.3000000000000003 0.01
          vertex 3.1 1.8 0.01
          vertex 3.4000000000000004 0.7000000000000001 0.01
      endloop
  endfacet
  facet normal 0.0 0.0 1.0
      outer loop
          vertex 2.8000000000000003 2.3000000000000003 1
          vertex 3.4000000000000004 0.7000000000000001 1
          vertex 3.1 1.8 1
      endloop
  endfacet
  facet normal -0.9363291775690445 -0.3511234415883917 0.0
      outer loop
          vertex 2.8000000000000003 2.3000000000000003 0.01
          vertex 3.4000000000000004 0.7000000000000001 0.01
          vertex 3.4000000000000004 0.7000000000000001 1
      endloop
  endfacet
  facet normal -0.9363291775690445 -0.3511234415883917 0.0
      outer loop
          vertex 2.8000000000000003 2.3000000000000003 0.01
          vertex 3.4000000000000004 0.7000000000000001 1
          vertex 2.8000000000000003 2.3000000000000003 1
      endloop
  endfacet
  facet normal 0.9647638212377321 0.263117405792109 0.0
      outer loop
          vertex 3.4000000000000004 0.7000000000000001 0.01
          vertex 3.1 1.8 0.01
          vertex 3.1 1.8 1
      endloop
  endfacet
  facet normal 0.9647638212377321 0.263117405792109 -0.0
      outer loop
          vertex 3.4000000000000004 0.7000000000000001 0.01
          vertex 3.1 1.8 1
          vertex 3.4000000000000004 0.7000000000000001 1
      endloop
  endfacet
  facet normal 0.8574929257125444 0.5144957554275261 0.0
      outer loop
          vertex 3.1 1.8 0.01
          vertex 2.8000000000000003 2.3000000000000003 0.01
          vertex 2.8000000000000003 2.3000000000000003 1
      endloop
  endfacet
  facet normal 0.8574929257125444 0.5144957554275261 -0.0
      outer loop
          vertex 3.1 1.8 0.01
          vertex 2.8000000000000003 2.3000000000000003 1
          vertex 3.1 1.8 1
      endloop
  endfacet
endsolid obstacle
