solid obstacle
  facet normal 0.0 0.0 -1.0
      outer loop
          vertex 2.2 1.6 0.01
          vertex 2.3000000000000003 2.0 0.01
          vertex 3.1 2.8000000000000003 0.01
      endloop
  endfacet
  facet normal 0.0 0.0 1.0
      outer loop
          vertex 2.2 1.6 1
          vertex 3.1 2.8000000000000003 1
          vertex 2.3000000000000003 2.0 1
      endloop
  endfacet
  facet normal 0.8 -0.5999999999999999 0.0
      outer loop
          vertex 2.2 1.6 0.01
          vertex 3.1 2.8000000000000003 0.01
          vertex 3.1 2.8000000000000003 1
      endloop
  endfacet
  facet normal 0.8 -0.5999999999999999 0.0
      outer loop
          vertex 2.2 1.6 0.01
          vertex 3.1 2.8000000000000003 1
          vertex 2.2 1.6 1
      endloop
  endfacet
  facet normal -0.7071067811865477 0.7071067811865474 0.0
      outer loop
          vertex 3.1 2.8000000000000003 0.01
          vertex 2.3000000000000003 2.0 0.01
          vertex 2.3000000000000003 2.0 1
      endloop
  endfacet
  facet normal -0.7071067811865477 0.7071067811865474 0.0
      outer loop
          vertex 3.1 2.8000000000000003 0.01
          vertex 2.3000000000000003 2.0 1
          vertex 3.1 2.8000000000000003 1
      endloop
  endfacet
  facet normal -0.9701425001453319 0.24253562503633322 0.0
      outer loop
          vertex 2.3000000000000003 2.0 0.01
          vertex 2.2 1.6 0.01
          vertex 2.2 1.6 1
      endloop
  endfacet
  facet normal -0.9701425001453319 0.24253562503633322 0.0
      outer loop
          vertex 2.3000000000000003 2.0 0.01
          vertex 2.2 1.6 1
          vertex 2.3000000000000003 2.0 1
      endloop
  endfacet
endsolid obstacle
