solid obstacle
  facet normal 0.0 0.0 -1.0
      outer loop
          vertex 0.8 1.6 0.01
          vertex 1.4000000000000001 1.6 0.01
          vertex 1.1 1.2000000000000002 0.01
      endloop
  endfacet
  facet normal 0.0 0.0 -1.0
      outer loop
          vertex 0.8 1.6 0.01
          vertex 1.1 1.7000000000000002 0.01
          vertex 1.4000000000000001 1.6 0.01
      endloop
  endfacet
  facet normal -0.0 0.0 1.0
      outer loop
          vertex 0.8 1.6 1
          vertex 1.1 1.2000000000000002 1
          vertex 1.4000000000000001 1.6 1
      endloop
  endfacet
  facet normal 0.0 0.0 1.0
      outer loop
          vertex 0.8 1.6 1
          vertex 1.4000000000000001 1.6 1
          vertex 1.1 1.7000000000000002 1
      endloop
  endfacet
  facet normal -0.7999999999999999 -0.6000000000000002 0.0
      outer loop
          vertex 0.8 1.6 0.01
          vertex 1.1 1.2000000000000002 0.01
          vertex 1.1 1.2000000000000002 1
      endloop
  endfacet
  facet normal -0.7999999999999999 -0.6000000000000002 0.0
      outer loop
          vertex 0.8 1.6 0.01
          vertex 1.1 1.2000000000000002 1
          vertex 0.8 1.6 1
      endloop
  endfacet
  facet normal 0.7999999999999999 -0.6000000000000002 0.0
      outer loop
          vertex 1.1 1.2000000000000002 0.01
          vertex 1.4000000000000001 1.6 0.01
          vertex 1.4000000000000001 1.6 1
      endloop
  endfacet
  facet normal 0.7999999999999999 -0.6000000000000002 0.0
      outer loop
          vertex 1.1 1.2000000000000002 0.01
          vertex 1.4000000000000001 1.6 1
          vertex 1.1 1.2000000000000002 1
      endloop
  endfacet
  facet normal 0.3162277660168381 0.9486832980505137 0.0
      outer loop
          vertex 1.4000000000000001 1.6 0.01
          vertex 1.1 1.7000000000000002 0.01
          vertex 1.1 1.7000000000000002 1
      endloop
  endfacet
  facet normal 0.3162277660168381 0.9486832980505137 -0.0
      outer loop
          vertex 1.4000000000000001 1.6 0.01
          vertex 1.1 1.7000000000000002 1
          vertex 1.4000000000000001 1.6 1
      endloop
  endfacet
  facet normal -0.3162277660168381 0.9486832980505137 0.0
      outer loop
          vertex 1.1 1.7000000000000002 0.01
          vertex 0.8 1.6 0.01
          vertex 0.8 1.6 1
      endloop
  endfacet
  facet normal -0.3162277660168381 0.9486832980505137 0.0
      outer loop
          vertex 1.1 1.7000000000000002 0.01
          vertex 0.8 1.6 1
          vertex 1.1 1.7000000000000002 1
      endloop
  endfacet
endsolid obstacle
