solid obstacle
  facet normal 0.0 0.0 -1.0
      outer loop
          vertex 2.1 2.5 0.01
          vertex 1.7000000000000002 3.2 0.01
          vertex 1.5 3.7 0.01
      endloop
  endfacet
  facet normal 0.0 0.0 1.0
      outer loop
          vertex 2.1 2.5 1
          vertex 1.5 3.7 1
          vertex 1.7000000000000002 3.2 1
      endloop
  endfacet
  facet normal 0.8944271909999159 0.4472135954999579 0.0
      outer loop
          vertex 2.1 2.5 0.01
          vertex 1.5 3.7 0.01
          vertex 1.5 3.7 1
      endloop
  endfacet
  facet normal 0.8944271909999159 0.4472135954999579 -0.0
      outer loop
          vertex 2.1 2.5 0.01
          vertex 1.5 3.7 1
          vertex 2.1 2.5 1
      endloop
  endfacet
  facet normal -0.9284766908852593 -0.37139067635410405 0.0
      outer loop
          vertex 1.5 3.7 0.01
          vertex 1.7000000000000002 3.2 0.01
          vertex 1.7000000000000002 3.2 1
      endloop
  endfacet
  facet normal -0.9284766908852593 -0.37139067635410405 0.0
      outer loop
          vertex 1.5 3.7 0.01
          vertex 1.7000000000000002 3.2 1
          vertex 1.5 3.7 1
      endloop
  endfacet
  facet normal -0.8682431421244593 -0.49613893835683365 0.0
      outer loop
          vertex 1.7000000000000002 3.2 0.01
          vertex 2.1 2.5 0.01
          vertex 2.1 2.5 1
      endloop
  endfacet
  facet normal -0.8682431421244593 -0.49613893835683365 0.0
      outer loop
          vertex 1.7000000000000002 3.2 0.01
          vertex 2.1 2.5 1
          vertex 1.7000000000000002 3.2 1
      endloop
  endfacet
endsolid obstacle
