solid obstacle
  facet normal -0.0 0.0 -1.0
      outer loop
          vertex 4.800000000000001 1.5 0.01
          vertex 4.3 0.5 0.01
          vertex 3.9000000000000004 2.1 0.01
      endloop
  endfacet
  facet normal 0.0 0.0 1.0
      outer loop
          vertex 4.800000000000001 1.5 1
          vertex 3.9000000000000004 2.1 1
          vertex 4.3 0.5 1
      endloop
  endfacet
  facet normal 0.5547001962252291 0.8320502943378438 0.0
      outer loop
          vertex 4.800000000000001 1.5 0.01
          vertex 3.9000000000000004 2.1 0.01
          vertex 3.9000000000000004 2.1 1
      endloop
  endfacet
  facet normal 0.5547001962252291 0.8320502943378438 -0.0
      outer loop
          vertex 4.800000000000001 1.5 0.01
          vertex 3.9000000000000004 2.1 1
          vertex 4.800000000000001 1.5 1
      endloop
  endfacet
  facet normal -0.970142500145332 -0.24253562503633266 0.0
      outer loop
          vertex 3.9000000000000004 2.1 0.01
          vertex 4.3 0.5 0.01
          vertex 4.3 0.5 1
      endloop
  endfacet
  facet normal -0.970142500145332 -0.24253562503633266 0.0
      outer loop
          vertex 3.9000000000000004 2.1 0.01
          vertex 4.3 0.5 1
          vertex 3.9000000000000004 2.1 1
      endloop
  endfacet
  facet normal 0.8944271909999155 -0.44721359549995854 0.0
      outer loop
          vertex 4.3 0.5 0.01
          vertex 4.800000000000001 1.5 0.01
          vertex 4.800000000000001 1.5 1
      endloop
  endfacet
  facet normal 0.8944271909999155 -0.44721359549995854 0.0
      outer loop
          vertex 4.3 0.5 0.01
          vertex 4.800000000000001 1.5 1
          vertex 4.3 0.5 1
      endloop
  endfacet
endsolid obstacle
