solid obstacle
  facet normal -0.0 0.0 -1.0
      outer loop
          vertex 2.5 1.6 0.1
          vertex 2.3000000000000003 0.7000000000000001 0.1
          vertex 2.0 2.4000000000000004 0.1
      endloop
  endfacet
  facet normal 0.0 0.0 1.0
      outer loop
          vertex 2.5 1.6 1
          vertex 2.0 2.4000000000000004 1
          vertex 2.3000000000000003 0.7000000000000001 1
      endloop
  endfacet
  facet normal 0.8479983040050881 0.5299989400031798 0.0
      outer loop
          vertex 2.5 1.6 0.1
          vertex 2.0 2.4000000000000004 0.1
          vertex 2.0 2.4000000000000004 1
      endloop
  endfacet
  facet normal 0.8479983040050881 0.5299989400031798 -0.0
      outer loop
          vertex 2.5 1.6 0.1
          vertex 2.0 2.4000000000000004 1
          vertex 2.5 1.6 1
      endloop
  endfacet
  facet normal -0.9847835588179367 -0.1737853339090478 0.0
      outer loop
          vertex 2.0 2.4000000000000004 0.1
          vertex 2.3000000000000003 0.7000000000000001 0.1
          vertex 2.3000000000000003 0.7000000000000001 1
      endloop
  endfacet
  facet normal -0.9847835588179367 -0.1737853339090478 0.0
      outer loop
          vertex 2.0 2.4000000000000004 0.1
          vertex 2.3000000000000003 0.7000000000000001 1
          vertex 2.0 2.4000000000000004 1
      endloop
  endfacet
  facet normal 0.9761870601839528 -0.21693045781865591 0.0
      outer loop
          vertex 2.3000000000000003 0.7000000000000001 0.1
          vertex 2.5 1.6 0.1
          vertex 2.5 1.6 1
      endloop
  endfacet
  facet normal 0.9761870601839528 -0.21693045781865591 0.0
      outer loop
          vertex 2.3000000000000003 0.7000000000000001 0.1
          vertex 2.5 1.6 1
          vertex 2.3000000000000003 0.7000000000000001 1
      endloop
  endfacet
endsolid obstacle
