solid obstacle
  facet normal -0.0 0.0 -1.0
      outer loop
          vertex 3.9000000000000004 3.9000000000000004 0.1
          vertex 3.3000000000000003 3.4000000000000004 0.1
          vertex 2.8000000000000003 4.0 0.1
      endloop
  endfacet
  facet normal 0.0 0.0 1.0
      outer loop
          vertex 3.9000000000000004 3.9000000000000004 1
          vertex 2.8000000000000003 4.0 1
          vertex 3.3000000000000003 3.4000000000000004 1
      endloop
  endfacet
  facet normal 0.0905357460425182 0.9958932064677039 0.0
      outer loop
          vertex 3.9000000000000004 3.9000000000000004 0.1
          vertex 2.8000000000000003 4.0 0.1
          vertex 2.8000000000000003 4.0 1
      endloop
  endfacet
  facet normal 0.0905357460425182 0.9958932064677039 -0.0
      outer loop
          vertex 3.9000000000000004 3.9000000000000004 0.1
          vertex 2.8000000000000003 4.0 1
          vertex 3.9000000000000004 3.9000000000000004 1
      endloop
  endfacet
  facet normal -0.7682212795973757 -0.6401843996644802 0.0
      outer loop
          vertex 2.8000000000000003 4.0 0.1
          vertex 3.3000000000000003 3.4000000000000004 0.1
          vertex 3.3000000000000003 3.4000000000000004 1
      endloop
  endfacet
  facet normal -0.7682212795973757 -0.6401843996644802 0.0
      outer loop
          vertex 2.8000000000000003 4.0 0.1
          vertex 3.3000000000000003 3.4000000000000004 1
          vertex 2.8000000000000003 4.0 1
      endloop
  endfacet
  facet normal 0.6401843996644798 -0.768221279597376 0.0
      outer loop
          vertex 3.3000000000000003 3.4000000000000004 0.1
          vertex 3.9000000000000004 3.9000000000000004 0.1
          vertex 3.9000000000000004 3.9000000000000004 1
      endloop
  endfacet
  facet normal 0.6401843996644798 -0.768221279597376 0.0
      outer loop
          vertex 3.3000000000000003 3.4000000000000004 0.1
          vertex 3.9000000000000004 3.9000000000000004 1
          vertex 3.3000000000000003 3.4000000000000004 1
      endloop
  endfacet
endsolid obstacle
