solid obstacle
  facet normal 0.0 -0.0 -1.0
      outer loop
          vertex 1.9000000000000001 1.9000000000000001 0.01
          vertex 1.9000000000000001 1.4000000000000001 0.01
          vertex 1.6 1.5 0.01
      endloop
  endfacet
  facet normal 0.0 0.0 1.0
      outer loop
          vertex 1.9000000000000001 1.9000000000000001 1
          vertex 1.6 1.5 1
          vertex 1.9000000000000001 1.4000000000000001 1
      endloop
  endfacet
  facet normal -0.8 0.6 0.0
      outer loop
          vertex 1.9000000000000001 1.9000000000000001 0.01
          vertex 1.6 1.5 0.01
          vertex 1.6 1.5 1
      endloop
  endfacet
  facet normal -0.8 0.6 0.0
      outer loop
          vertex 1.9000000000000001 1.9000000000000001 0.01
          vertex 1.6 1.5 1
          vertex 1.9000000000000001 1.9000000000000001 1
      endloop
  endfacet
  facet normal -0.31622776601683755 -0.948683298050514 0.0
      outer loop
          vertex 1.6 1.5 0.01
          vertex 1.9000000000000001 1.4000000000000001 0.01
          vertex 1.9000000000000001 1.4000000000000001 1
      endloop
  endfacet
  facet normal -0.31622776601683755 -0.948683298050514 0.0
      outer loop
          vertex 1.6 1.5 0.01
          vertex 1.9000000000000001 1.4000000000000001 1
          vertex 1.6 1.5 1
      endloop
  endfacet
  facet normal 1.0 0.0 0.0
      outer loop
          vertex 1.9000000000000001 1.4000000000000001 0.01
          vertex 1.9000000000000001 1.9000000000000001 0.01
          vertex 1.9000000000000001 1.9000000000000001 1
      endloop
  endfacet
  facet normal 1.0 0.0 0.0
      outer loop
          vertex 1.9000000000000001 1.4000000000000001 0.01
          vertex 1.9000000000000001 1.9000000000000001 1
          vertex 1.9000000000000001 1.4000000000000001 1
      endloop
  endfacet
endsolid obstacle
