solid obstacle
  facet normal 0.0 0.0 -1.0
      outer loop
          vertex 3.5 2.1 0.1
          vertex 3.7 3.7 0.1
          vertex 4.4 2.3000000000000003 0.1
      endloop
  endfacet
  facet normal 0.0 0.0 1.0
      outer loop
          vertex 3.5 2.1 1
          vertex 4.4 2.3000000000000003 1
          vertex 3.7 3.7 1
      endloop
  endfacet
  facet normal 0.21693045781865627 -0.9761870601839527 0.0
      outer loop
          vertex 3.5 2.1 0.1
          vertex 4.4 2.3000000000000003 0.1
          vertex 4.4 2.3000000000000003 1
      endloop
  endfacet
  facet normal 0.21693045781865627 -0.9761870601839527 0.0
      outer loop
          vertex 3.5 2.1 0.1
          vertex 4.4 2.3000000000000003 1
          vertex 3.5 2.1 1
      endloop
  endfacet
  facet normal 0.8944271909999159 0.44721359549995804 0.0
      outer loop
          vertex 4.4 2.3000000000000003 0.1
          vertex 3.7 3.7 0.1
          vertex 3.7 3.7 1
      endloop
  endfacet
  facet normal 0.8944271909999159 0.44721359549995804 -0.0
      outer loop
          vertex 4.4 2.3000000000000003 0.1
          vertex 3.7 3.7 1
          vertex 4.4 2.3000000000000003 1
      endloop
  endfacet
  facet normal -0.9922778767136677 0.12403473458920856 0.0
      outer loop
          vertex 3.7 3.7 0.1
          vertex 3.5 2.1 0.1
          vertex 3.5 2.1 1
      endloop
  endfacet
  facet normal -0.9922778767136677 0.12403473458920856 0.0
      outer loop
          vertex 3.7 3.7 0.1
          vertex 3.5 2.1 1
          vertex 3.7 3.7 1
      endloop
  endfacet
endsolid obstacle
