solid obstacle
  facet normal 0.0 0.0 -1.0
      outer loop
          vertex 0.6000000000000001 2.9000000000000004 0.01
          vertex 1.0 3.4000000000000004 0.01
          vertex 2.0 3.5 0.01
      endloop
  endfacet
  facet normal 0.0 0.0 1.0
      outer loop
          vertex 0.6000000000000001 2.9000000000000004 1
          vertex 2.0 3.5 1
          vertex 1.0 3.4000000000000004 1
      endloop
  endfacet
  facet normal 0.3939192985791675 -0.919145030018058 0.0
      outer loop
          vertex 0.6000000000000001 2.9000000000000004 0.01
          vertex 2.0 3.5 0.01
          vertex 2.0 3.5 1
      endloop
  endfacet
  facet normal 0.3939192985791675 -0.919145030018058 0.0
      outer loop
          vertex 0.6000000000000001 2.9000000000000004 0.01
          vertex 2.0 3.5 1
          vertex 0.6000000000000001 2.9000000000000004 1
      endloop
  endfacet
  facet normal -0.09950371902099855 0.9950371902099892 0.0
      outer loop
          vertex 2.0 3.5 0.01
          vertex 1.0 3.4000000000000004 0.01
          vertex 1.0 3.4000000000000004 1
      endloop
  endfacet
  facet normal -0.09950371902099855 0.9950371902099892 0.0
      outer loop
          vertex 2.0 3.5 0.01
          vertex 1.0 3.4000000000000004 1
          vertex 2.0 3.5 1
      endloop
  endfacet
  facet normal -0.7808688094430304 0.6246950475544242 0.0
      outer loop
          vertex 1.0 3.4000000000000004 0.01
          vertex 0.6000000000000001 2.9000000000000004 0.01
          vertex 0.6000000000000001 2.9000000000000004 1
      endloop
  endfacet
  facet normal -0.7808688094430304 0.6246950475544242 0.0
      outer loop
          vertex 1.0 3.4000000000000004 0.01
          vertex 0.6000000000000001 2.9000000000000004 1
          vertex 1.0 3.4000000000000004 1
      endloop
  endfacet
endsolid obstacle
