solid obstacle
  facet normal -0.0 0.0 -1.0
      outer loop
          vertex 4.1000000000000005 4.3 0.01
          vertex 3.9000000000000004 3.8000000000000003 0.01
          vertex 2.6 4.800000000000001 0.01
      endloop
  endfacet
  facet normal 0.0 0.0 1.0
      outer loop
          vertex 4.1000000000000005 4.3 1
          vertex 2.6 4.800000000000001 1
          vertex 3.9000000000000004 3.8000000000000003 1
      endloop
  endfacet
  facet normal 0.3162277660168384 0.9486832980505137 0.0
      outer loop
          vertex 4.1000000000000005 4.3 0.01
          vertex 2.6 4.800000000000001 0.01
          vertex 2.6 4.800000000000001 1
      endloop
  endfacet
  facet normal 0.3162277660168384 0.9486832980505137 -0.0
      outer loop
          vertex 4.1000000000000005 4.3 0.01
          vertex 2.6 4.800000000000001 1
          vertex 4.1000000000000005 4.3 1
      endloop
  endfacet
  facet normal -0.6097107608496926 -0.7926239891046001 0.0
      outer loop
          vertex 2.6 4.800000000000001 0.01
          vertex 3.9000000000000004 3.8000000000000003 0.01
          vertex 3.9000000000000004 3.8000000000000003 1
      endloop
  endfacet
  facet normal -0.6097107608496926 -0.7926239891046001 0.0
      outer loop
          vertex 2.6 4.800000000000001 0.01
          vertex 3.9000000000000004 3.8000000000000003 1
          vertex 2.6 4.800000000000001 1
      endloop
  endfacet
  facet normal 0.9284766908852591 -0.3713906763541043 0.0
      outer loop
          vertex 3.9000000000000004 3.8000000000000003 0.01
          vertex 4.1000000000000005 4.3 0.01
          vertex 4.1000000000000005 4.3 1
      endloop
  endfacet
  facet normal 0.9284766908852591 -0.3713906763541043 0.0
      outer loop
          vertex 3.9000000000000004 3.8000000000000003 0.01
          vertex 4.1000000000000005 4.3 1
          vertex 3.9000000000000004 3.8000000000000003 1
      endloop
  endfacet
endsolid obstacle
