solid obstacle
  facet normal 0.0 0.0 -1.0
      outer loop
          vertex 1.1 1.4000000000000001 0.1
          vertex 2.0 2.9000000000000004 0.1
          vertex 1.9000000000000001 2.2 0.1
      endloop
  endfacet
  facet normal 0.0 0.0 -1.0
      outer loop
          vertex 1.1 1.4000000000000001 0.1
          vertex 1.5 2.1 0.1
          vertex 2.0 2.9000000000000004 0.1
      endloop
  endfacet
  facet normal 0.0 0.0 1.0
      outer loop
          vertex 1.1 1.4000000000000001 1
          vertex 1.9000000000000001 2.2 1
          vertex 2.0 2.9000000000000004 1
      endloop
  endfacet
  facet normal 0.0 0.0 1.0
      outer loop
          vertex 1.1 1.4000000000000001 1
          vertex 2.0 2.9000000000000004 1
          vertex 1.5 2.1 1
      endloop
  endfacet
  facet normal 0.7071067811865475 -0.7071067811865475 0.0
      outer loop
          vertex 1.1 1.4000000000000001 0.1
          vertex 1.9000000000000001 2.2 0.1
          vertex 1.9000000000000001 2.2 1
      endloop
  endfacet
  facet normal 0.7071067811865475 -0.7071067811865475 0.0
      outer loop
          vertex 1.1 1.4000000000000001 0.1
          vertex 1.9000000000000001 2.2 1
          vertex 1.1 1.4000000000000001 1
      endloop
  endfacet
  facet normal 0.9899494936611666 -0.14142135623730928 0.0
      outer loop
          vertex 1.9000000000000001 2.2 0.1
          vertex 2.0 2.9000000000000004 0.1
          vertex 2.0 2.9000000000000004 1
      endloop
  endfacet
  facet normal 0.9899494936611666 -0.14142135623730928 0.0
      outer loop
          vertex 1.9000000000000001 2.2 0.1
          vertex 2.0 2.9000000000000004 1
          vertex 1.9000000000000001 2.2 1
      endloop
  endfacet
  facet normal -0.8479983040050881 0.5299989400031798 0.0
      outer loop
          vertex 2.0 2.9000000000000004 0.1
          vertex 1.5 2.1 0.1
          vertex 1.5 2.1 1
      endloop
  endfacet
  facet normal -0.8479983040050881 0.5299989400031798 0.0
      outer loop
          vertex 2.0 2.9000000000000004 0.1
          vertex 1.5 2.1 1
          vertex 2.0 2.9000000000000004 1
      endloop
  endfacet
  facet normal -0.8682431421244593 0.49613893835683376 0.0
      outer loop
          vertex 1.5 2.1 0.1
          vertex 1.1 1.4000000000000001 0.1
          vertex 1.1 1.4000000000000001 1
      endloop
  endfacet
  facet normal -0.8682431421244593 0.49613893835683376 0.0
      outer loop
          vertex 1.5 2.1 0.1
          vertex 1.1 1.4000000000000001 1
          vertex 1.5 2.1 1
      endloop
  endfacet
endsolid obstacle
