solid obstacle
  facet normal 0.0 0.0 -1.0
      outer loop
          vertex 3.2 2.8000000000000003 0.1
          vertex 2.6 3.4000000000000004 0.1
          vertex 2.6 3.8000000000000003 0.1
      endloop
  endfacet
  facet normal 0.0 0.0 1.0
      outer loop
          vertex 3.2 2.8000000000000003 1
          vertex 2.6 3.8000000000000003 1
          vertex 2.6 3.4000000000000004 1
      endloop
  endfacet
  facet normal 0.8574929257125442 0.5144957554275267 0.0
      outer loop
          vertex 3.2 2.8000000000000003 0.1
          vertex 2.6 3.8000000000000003 0.1
          vertex 2.6 3.8000000000000003 1
      endloop
  endfacet
  facet normal 0.8574929257125442 0.5144957554275267 -0.0
      outer loop
          vertex 3.2 2.8000000000000003 0.1
          vertex 2.6 3.8000000000000003 1
          vertex 3.2 2.8000000000000003 1
      endloop
  endfacet
  facet normal -1.0 0.0 0.0
      outer loop
          vertex 2.6 3.8000000000000003 0.1
          vertex 2.6 3.4000000000000004 0.1
          vertex 2.6 3.4000000000000004 1
      endloop
  endfacet
  facet normal -1.0 0.0 0.0
      outer loop
          vertex 2.6 3.8000000000000003 0.1
          vertex 2.6 3.4000000000000004 1
          vertex 2.6 3.8000000000000003 1
      endloop
  endfacet
  facet normal -0.7071067811865476 -0.7071067811865476 0.0
      outer loop
          vertex 2.6 3.4000000000000004 0.1
          vertex 3.2 2.8000000000000003 0.1
          vertex 3.2 2.8000000000000003 1
      endloop
  endfacet
  facet normal -0.7071067811865476 -0.7071067811865476 0.0
      outer loop
          vertex 2.6 3.4000000000000004 0.1
          vertex 3.2 2.8000000000000003 1
          vertex 2.6 3.4000000000000004 1
      endloop
  endfacet
endsolid obstacle
