solid obstacle
  facet normal -0.0 0.0 -1.0
      outer loop
          vertex 1.8 3.1 0.01
          vertex 0.7000000000000001 2.9000000000000004 0.01
          vertex 0.2 4.2 0.01
      endloop
  endfacet
  facet normal 0.0 0.0 1.0
      outer loop
          vertex 1.8 3.1 1
          vertex 0.2 4.2 1
          vertex 0.7000000000000001 2.9000000000000004 1
      endloop
  endfacet
  facet normal 0.5665288228870652 0.8240419241993676 0.0
      outer loop
          vertex 1.8 3.1 0.01
          vertex 0.2 4.2 0.01
          vertex 0.2 4.2 1
      endloop
  endfacet
  facet normal 0.5665288228870652 0.8240419241993676 -0.0
      outer loop
          vertex 1.8 3.1 0.01
          vertex 0.2 4.2 1
          vertex 1.8 3.1 1
      endloop
  endfacet
  facet normal -0.9333456062030595 -0.3589790793088691 0.0
      outer loop
          vertex 0.2 4.2 0.01
          vertex 0.7000000000000001 2.9000000000000004 0.01
          vertex 0.7000000000000001 2.9000000000000004 1
      endloop
  endfacet
  facet normal -0.9333456062030595 -0.3589790793088691 0.0
      outer loop
          vertex 0.2 4.2 0.01
          vertex 0.7000000000000001 2.9000000000000004 1
          vertex 0.2 4.2 1
      endloop
  endfacet
  facet normal 0.17888543819998293 -0.9838699100999074 0.0
      outer loop
          vertex 0.7000000000000001 2.9000000000000004 0.01
          vertex 1.8 3.1 0.01
          vertex 1.8 3.1 1
      endloop
  endfacet
  facet normal 0.17888543819998293 -0.9838699100999074 0.0
      outer loop
          vertex 0.7000000000000001 2.9000000000000004 0.01
          vertex 1.8 3.1 1
          vertex 0.7000000000000001 2.9000000000000004 1
      endloop
  endfacet
endsolid obstacle
