solid obstacle
  facet normal 0.0 0.0 -1.0
      outer loop
          vertex 0.7000000000000001 1.5 0.01
          vertex 1.0 1.7000000000000002 0.01
          vertex 1.0 1.4000000000000001 0.01
      endloop
  endfacet
  facet normal -0.0 0.0 1.0
      outer loop
          vertex 0.7000000000000001 1.5 1
          vertex 1.0 1.4000000000000001 1
          vertex 1.0 1.7000000000000002 1
      endloop
  endfacet
  facet normal -0.31622776601683766 -0.948683298050514 0.0
      outer loop
          vertex 0.7000000000000001 1.5 0.01
          vertex 1.0 1.4000000000000001 0.01
          vertex 1.0 1.4000000000000001 1
      endloop
  endfacet
  facet normal -0.31622776601683766 -0.948683298050514 0.0
      outer loop
          vertex 0.7000000000000001 1.5 0.01
          vertex 1.0 1.4000000000000001 1
          vertex 0.7000000000000001 1.5 1
      endloop
  endfacet
  facet normal 1.0 0.0 0.0
      outer loop
          vertex 1.0 1.4000000000000001 0.01
          vertex 1.0 1.7000000000000002 0.01
          vertex 1.0 1.7000000000000002 1
      endloop
  endfacet
  facet normal 1.0 0.0 0.0
      outer loop
          vertex 1.0 1.4000000000000001 0.01
          vertex 1.0 1.7000000000000002 1
          vertex 1.0 1.4000000000000001 1
      endloop
  endfacet
  facet normal -0.5547001962252296 0.8320502943378434 0.0
      outer loop
          vertex 1.0 1.7000000000000002 0.01
          vertex 0.7000000000000001 1.5 0.01
          vertex 0.7000000000000001 1.5 1
      endloop
  endfacet
  facet normal -0.5547001962252296 0.8320502943378434 0.0
      outer loop
          vertex 1.0 1.7000000000000002 0.01
          vertex 0.7000000000000001 1.5 1
          vertex 1.0 1.7000000000000002 1
      endloop
  endfacet
endsolid obstacle
