solid obstacle
  facet normal 0.0 0.0 -1.0
      outer loop
          vertex 1.9000000000000001 0.6000000000000001 0.01
          vertex 2.6 2.3000000000000003 0.01
          vertex 3.6 1.3 0.01
      endloop
  endfacet
  facet normal 0.0 0.0 1.0
      outer loop
          vertex 1.9000000000000001 0.6000000000000001 1
          vertex 3.6 1.3 1
          vertex 2.6 2.3000000000000003 1
      endloop
  endfacet
  facet normal 0.38074980525429475 -0.9246780984747159 0.0
      outer loop
          vertex 1.9000000000000001 0.6000000000000001 0.01
          vertex 3.6 1.3 0.01
          vertex 3.6 1.3 1
      endloop
  endfacet
  facet normal 0.38074980525429475 -0.9246780984747159 0.0
      outer loop
          vertex 1.9000000000000001 0.6000000000000001 0.01
          vertex 3.6 1.3 1
          vertex 1.9000000000000001 0.6000000000000001 1
      endloop
  endfacet
  facet normal 0.7071067811865477 0.7071067811865475 0.0
      outer loop
          vertex 3.6 1.3 0.01
          vertex 2.6 2.3000000000000003 0.01
          vertex 2.6 2.3000000000000003 1
      endloop
  endfacet
  facet normal 0.7071067811865477 0.7071067811865475 -0.0
      outer loop
          vertex 3.6 1.3 0.01
          vertex 2.6 2.3000000000000003 1
          vertex 3.6 1.3 1
      endloop
  endfacet
  facet normal -0.9246780984747159 0.38074980525429475 0.0
      outer loop
          vertex 2.6 2.3000000000000003 0.01
          vertex 1.9000000000000001 0.6000000000000001 0.01
          vertex 1.9000000000000001 0.6000000000000001 1
      endloop
  endfacet
  facet normal -0.9246780984747159 0.38074980525429475 0.0
      outer loop
          vertex 2.6 2.3000000000000003 0.01
          vertex 1.9000000000000001 0.6000000000000001 1
          vertex 2.6 2.3000000000000003 1
      endloop
  endfacet
endsolid obstacle
