solid obstacle
  facet normal 0.0 0.0 -1.0
      outer loop
          vertex 3.9000000000000004 1.3 0.1
          vertex 3.4000000000000004 0.6000000000000001 0.1
          vertex 2.4000000000000004 0.6000000000000001 0.1
      endloop
  endfacet
  facet normal 0.0 0.0 1.0
      outer loop
          vertex 3.9000000000000004 1.3 1
          vertex 2.4000000000000004 0.6000000000000001 1
          vertex 3.4000000000000004 0.6000000000000001 1
      endloop
  endfacet
  facet normal -0.42288546533112387 0.9061831399952655 0.0
      outer loop
          vertex 3.9000000000000004 1.3 0.1
          vertex 2.4000000000000004 0.6000000000000001 0.1
          vertex 2.4000000000000004 0.6000000000000001 1
      endloop
  endfacet
  facet normal -0.42288546533112387 0.9061831399952655 0.0
      outer loop
          vertex 3.9000000000000004 1.3 0.1
          vertex 2.4000000000000004 0.6000000000000001 1
          vertex 3.9000000000000004 1.3 1
      endloop
  endfacet
  facet normal 0.0 -1.0 0.0
      outer loop
          vertex 2.4000000000000004 0.6000000000000001 0.1
          vertex 3.4000000000000004 0.6000000000000001 0.1
          vertex 3.4000000000000004 0.6000000000000001 1
      endloop
  endfacet
  facet normal 0.0 -1.0 0.0
      outer loop
          vertex 2.4000000000000004 0.6000000000000001 0.1
          vertex 3.4000000000000004 0.6000000000000001 1
          vertex 2.4000000000000004 0.6000000000000001 1
      endloop
  endfacet
  facet normal 0.8137334712067349 -0.5812381937190964 0.0
      outer loop
          vertex 3.4000000000000004 0.6000000000000001 0.1
          vertex 3.9000000000000004 1.3 0.1
          vertex 3.9000000000000004 1.3 1
      endloop
  endfacet
  facet normal 0.8137334712067349 -0.5812381937190964 0.0
      outer loop
          vertex 3.4000000000000004 0.6000000000000001 0.1
          vertex 3.9000000000000004 1.3 1
          vertex 3.4000000000000004 0.6000000000000001 1
      endloop
  endfacet
endsolid obstacle
