solid obstacle
  facet normal 0.0 -0.0 -1.0
      outer loop
          vertex 3.6 2.4000000000000004 0.01
          vertex 3.9000000000000004 0.9 0.01
          vertex 2.4000000000000004 1.7000000000000002 0.01
      endloop
  endfacet
  facet normal 0.0 0.0 -1.0
      outer loop
          vertex 3.6 2.4000000000000004 0.01
          vertex 4.800000000000001 0.9 0.01
          vertex 3.9000000000000004 0.9 0.01
      endloop
  endfacet
  facet normal 0.0 0.0 1.0
      outer loop
          vertex 3.6 2.4000000000000004 1
          vertex 2.4000000000000004 1.7000000000000002 1
          vertex 3.9000000000000004 0.9 1
      endloop
  endfacet
  facet normal 0.0 0.0 1.0
      outer loop
          vertex 3.6 2.4000000000000004 1
          vertex 3.9000000000000004 0.9 1
          vertex 4.800000000000001 0.9 1
      endloop
  endfacet
  facet normal -0.5038710255240864 0.8637789008984333 0.0
      outer loop
          vertex 3.6 2.4000000000000004 0.01
          vertex 2.4000000000000004 1.7000000000000002 0.01
          vertex 2.4000000000000004 1.7000000000000002 1
      endloop
  endfacet
  facet normal -0.5038710255240864 0.8637789008984333 0.0
      outer loop
          vertex 3.6 2.4000000000000004 0.01
          vertex 2.4000000000000004 1.7000000000000002 1
          vertex 3.6 2.4000000000000004 1
      endloop
  endfacet
  facet normal -0.4705882352941177 -0.8823529411764705 0.0
      outer loop
          vertex 2.4000000000000004 1.7000000000000002 0.01
          vertex 3.9000000000000004 0.9 0.01
          vertex 3.9000000000000004 0.9 1
      endloop
  endfacet
  facet normal -0.4705882352941177 -0.8823529411764705 0.0
      outer loop
          vertex 2.4000000000000004 1.7000000000000002 0.01
          vertex 3.9000000000000004 0.9 1
          vertex 2.4000000000000004 1.7000000000000002 1
      endloop
  endfacet
  facet normal 0.0 -1.0 0.0
      outer loop
          vertex 3.9000000000000004 0.9 0.01
          vertex 4.800000000000001 0.9 0.01
          vertex 4.800000000000001 0.9 1
      endloop
  endfacet
  facet normal 0.0 -1.0 0.0
      outer loop
          vertex 3.9000000000000004 0.9 0.01
          vertex 4.800000000000001 0.9 1
          vertex 3.9000000000000004 0.9 1
      endloop
  endfacet
  facet normal 0.7808688094430302 0.6246950475544244 0.0
      outer loop
          vertex 4.800000000000001 0.9 0.01
          vertex 3.6 2.4000000000000004 0.01
          vertex 3.6 2.4000000000000004 1
      endloop
  endfacet
  facet normal 0.7808688094430302 0.6246950475544244 -0.0
      outer loop
          vertex 4.800000000000001 0.9 0.01
          vertex 3.6 2.4000000000000004 1
          vertex 4.800000000000001 0.9 1
      endloop
  endfacet
endsolid obstacle
