solid obstacle
  facet normal 0.0 0.0 -1.0
      outer loop
          vertex 1.2000000000000002 2.7 0.1
          vertex 1.5 4.1000000000000005 0.1
          vertex 2.2 3.1 0.1
      endloop
  endfacet
  facet normal 0.0 0.0 1.0
      outer loop
          vertex 1.2000000000000002 2.7 1
          vertex 2.2 3.1 1
          vertex 1.5 4.1000000000000005 1
      endloop
  endfacet
  facet normal 0.37139067635410367 -0.9284766908852593 0.0
      outer loop
          vertex 1.2000000000000002 2.7 0.1
          vertex 2.2 3.1 0.1
          vertex 2.2 3.1 1
      endloop
  endfacet
  facet normal 0.37139067635410367 -0.9284766908852593 0.0
      outer loop
          vertex 1.2000000000000002 2.7 0.1
          vertex 2.2 3.1 1
          vertex 1.2000000000000002 2.7 1
      endloop
  endfacet
  facet normal 0.8192319205190405 0.5734623443633282 0.0
      outer loop
          vertex 2.2 3.1 0.1
          vertex 1.5 4.1000000000000005 0.1
          vertex 1.5 4.1000000000000005 1
      endloop
  endfacet
  facet normal 0.8192319205190405 0.5734623443633282 -0.0
      outer loop
          vertex 2.2 3.1 0.1
          vertex 1.5 4.1000000000000005 1
          vertex 2.2 3.1 1
      endloop
  endfacet
  facet normal -0.9778024140774095 0.20952908873087328 0.0
      outer loop
          vertex 1.5 4.1000000000000005 0.1
          vertex 1.2000000000000002 2.7 0.1
          vertex 1.2000000000000002 2.7 1
      endloop
  endfacet
  facet normal -0.9778024140774095 0.20952908873087328 0.0
      outer loop
          vertex 1.5 4.1000000000000005 0.1
          vertex 1.2000000000000002 2.7 1
          vertex 1.5 4.1000000000000005 1
      endloop
  endfacet
endsolid obstacle
