solid obstacle
  facet normal 0.0 0.0 -1.0
      outer loop
          vertex 0.0 1.1 0.01
          vertex 0.1 1.4000000000000001 0.01
          vertex 0.30000000000000004 1.0 0.01
      endloop
  endfacet
  facet normal -0.0 0.0 1.0
      outer loop
          vertex 0.0 1.1 1
          vertex 0.30000000000000004 1.0 1
          vertex 0.1 1.4000000000000001 1
      endloop
  endfacet
  facet normal -0.3162277660168381 -0.9486832980505137 0.0
      outer loop
          vertex 0.0 1.1 0.01
          vertex 0.30000000000000004 1.0 0.01
          vertex 0.30000000000000004 1.0 1
      endloop
  endfacet
  facet normal -0.3162277660168381 -0.9486832980505137 0.0
      outer loop
          vertex 0.0 1.1 0.01
          vertex 0.30000000000000004 1.0 1
          vertex 0.0 1.1 1
      endloop
  endfacet
  facet normal 0.894427190999916 0.4472135954999579 0.0
      outer loop
          vertex 0.30000000000000004 1.0 0.01
          vertex 0.1 1.4000000000000001 0.01
          vertex 0.1 1.4000000000000001 1
      endloop
  endfacet
  facet normal 0.894427190999916 0.4472135954999579 -0.0
      outer loop
          vertex 0.30000000000000004 1.0 0.01
          vertex 0.1 1.4000000000000001 1
          vertex 0.30000000000000004 1.0 1
      endloop
  endfacet
  facet normal -0.9486832980505139 0.31622776601683794 0.0
      outer loop
          vertex 0.1 1.4000000000000001 0.01
          vertex 0.0 1.1 0.01
          vertex 0.0 1.1 1
      endloop
  endfacet
  facet normal -0.9486832980505139 0.31622776601683794 0.0
      outer loop
          vertex 0.1 1.4000000000000001 0.01
          vertex 0.0 1.1 1
          vertex 0.1 1.4000000000000001 1
      endloop
  endfacet
endsolid obstacle
