solid obstacle
  facet normal -0.0 0.0 -1.0
      outer loop
          vertex 1.8 0.1 0.01
          vertex 1.7000000000000002 0.0 0.01
          vertex 1.5 0.30000000000000004 0.01
      endloop
  endfacet
  facet normal 0.0 0.0 1.0
      outer loop
          vertex 1.8 0.1 1
          vertex 1.5 0.30000000000000004 1
          vertex 1.7000000000000002 0.0 1
      endloop
  endfacet
  facet normal 0.554700196225229 0.8320502943378436 0.0
      outer loop
          vertex 1.8 0.1 0.01
          vertex 1.5 0.30000000000000004 0.01
          vertex 1.5 0.30000000000000004 1
      endloop
  endfacet
  facet normal 0.554700196225229 0.8320502943378436 -0.0
      outer loop
          vertex 1.8 0.1 0.01
          vertex 1.5 0.30000000000000004 1
          vertex 1.8 0.1 1
      endloop
  endfacet
  facet normal -0.8320502943378434 -0.5547001962252294 0.0
      outer loop
          vertex 1.5 0.30000000000000004 0.01
          vertex 1.7000000000000002 0.0 0.01
          vertex 1.7000000000000002 0.0 1
      endloop
  endfacet
  facet normal -0.8320502943378434 -0.5547001962252294 0.0
      outer loop
          vertex 1.5 0.30000000000000004 0.01
          vertex 1.7000000000000002 0.0 1
          vertex 1.5 0.30000000000000004 1
      endloop
  endfacet
  facet normal 0.7071067811865481 -0.7071067811865471 0.0
      outer loop
          vertex 1.7000000000000002 0.0 0.01
          vertex 1.8 0.1 0.01
          vertex 1.8 0.1 1
      endloop
  endfacet
  facet normal 0.7071067811865481 -0.7071067811865471 0.0
      outer loop
          vertex 1.7000000000000002 0.0 0.01
          vertex 1.8 0.1 1
          vertex 1.7000000000000002 0.0 1
      endloop
  endfacet
endsolid obstacle
