solid obstacle
  facet normal 0.0 0.0 -1.0
      outer loop
          vertex 0.8 3.8000000000000003 0.1
          vertex 0.6000000000000001 4.1000000000000005 0.1
          vertex 0.5 4.9 0.1
      endloop
  endfacet
  facet normal 0.0 0.0 1.0
      outer loop
          vertex 0.8 3.8000000000000003 1
          vertex 0.5 4.9 1
          vertex 0.6000000000000001 4.1000000000000005 1
      endloop
  endfacet
  facet normal 0.9647638212377321 0.2631174057921088 0.0
      outer loop
          vertex 0.8 3.8000000000000003 0.1
          vertex 0.5 4.9 0.1
          vertex 0.5 4.9 1
      endloop
  endfacet
  facet normal 0.9647638212377321 0.2631174057921088 -0.0
      outer loop
          vertex 0.8 3.8000000000000003 0.1
          vertex 0.5 4.9 1
          vertex 0.8 3.8000000000000003 1
      endloop
  endfacet
  facet normal -0.9922778767136677 -0.12403473458920859 0.0
      outer loop
          vertex 0.5 4.9 0.1
          vertex 0.6000000000000001 4.1000000000000005 0.1
          vertex 0.6000000000000001 4.1000000000000005 1
      endloop
  endfacet
  facet normal -0.9922778767136677 -0.12403473458920859 0.0
      outer loop
          vertex 0.5 4.9 0.1
          vertex 0.6000000000000001 4.1000000000000005 1
          vertex 0.5 4.9 1
      endloop
  endfacet
  facet normal -0.8320502943378439 -0.5547001962252287 0.0
      outer loop
          vertex 0.6000000000000001 4.1000000000000005 0.1
          vertex 0.8 3.8000000000000003 0.1
          vertex 0.8 3.8000000000000003 1
      endloop
  endfacet
  facet normal -0.8320502943378439 -0.5547001962252287 0.0
      outer loop
          vertex 0.6000000000000001 4.1000000000000005 0.1
          vertex 0.8 3.8000000000000003 1
          vertex 0.6000000000000001 4.1000000000000005 1
      endloop
  endfacet
endsolid obstacle
