solid obstacle
  facet normal 0.0 0.0 -1.0
      outer loop
          vertex 0.7000000000000001 2.5 0.1
          vertex 0.5 2.7 0.1
          vertex 0.2 3.7 0.1
      endloop
  endfacet
  facet normal 0.0 0.0 1.0
      outer loop
          vertex 0.7000000000000001 2.5 1
          vertex 0.2 3.7 1
          vertex 0.5 2.7 1
      endloop
  endfacet
  facet normal 0.9230769230769232 0.3846153846153846 0.0
      outer loop
          vertex 0.7000000000000001 2.5 0.1
          vertex 0.2 3.7 0.1
          vertex 0.2 3.7 1
      endloop
  endfacet
  facet normal 0.9230769230769232 0.3846153846153846 -0.0
      outer loop
          vertex 0.7000000000000001 2.5 0.1
          vertex 0.2 3.7 1
          vertex 0.7000000000000001 2.5 1
      endloop
  endfacet
  facet normal -0.9578262852211514 -0.28734788556634544 0.0
      outer loop
          vertex 0.2 3.7 0.1
          vertex 0.5 2.7 0.1
          vertex 0.5 2.7 1
      endloop
  endfacet
  facet normal -0.9578262852211514 -0.28734788556634544 0.0
      outer loop
          vertex 0.2 3.7 0.1
          vertex 0.5 2.7 1
          vertex 0.2 3.7 1
      endloop
  endfacet
  facet normal -0.7071067811865477 -0.7071067811865474 0.0
      outer loop
          vertex 0.5 2.7 0.1
          vertex 0.7000000000000001 2.5 0.1
          vertex 0.7000000000000001 2.5 1
      endloop
  endfacet
  facet normal -0.7071067811865477 -0.7071067811865474 0.0
      outer loop
          vertex 0.5 2.7 0.1
          vertex 0.7000000000000001 2.5 1
          vertex 0.5 2.7 1
      endloop
  endfacet
endsolid obstacle
