solid obstacle
  facet normal 0.0 0.0 -1.0
      outer loop
          vertex 0.6000000000000001 0.6000000000000001 0.01
          vertex 0.8 1.3 0.01
          vertex 0.8 0.9 0.01
      endloop
  endfacet
  facet normal 0.0 0.0 -1.0
      outer loop
          vertex 0.6000000000000001 0.6000000000000001 0.01
          vertex 0.6000000000000001 1.0 0.01
          vertex 0.8 1.3 0.01
      endloop
  endfacet
  facet normal 0.0 0.0 1.0
      outer loop
          vertex 0.6000000000000001 0.6000000000000001 1
          vertex 0.8 0.9 1
          vertex 0.8 1.3 1
      endloop
  endfacet
  facet normal 0.0 0.0 1.0
      outer loop
          vertex 0.6000000000000001 0.6000000000000001 1
          vertex 0.8 1.3 1
          vertex 0.6000000000000001 1.0 1
      endloop
  endfacet
  facet normal 0.8320502943378436 -0.554700196225229 0.0
      outer loop
          vertex 0.6000000000000001 0.6000000000000001 0.01
          vertex 0.8 0.9 0.01
          vertex 0.8 0.9 1
      endloop
  endfacet
  facet normal 0.8320502943378436 -0.554700196225229 0.0
      outer loop
          vertex 0.6000000000000001 0.6000000000000001 0.01
          vertex 0.8 0.9 1
          vertex 0.6000000000000001 0.6000000000000001 1
      endloop
  endfacet
  facet normal 1.0 0.0 0.0
      outer loop
          vertex 0.8 0.9 0.01
          vertex 0.8 1.3 0.01
          vertex 0.8 1.3 1
      endloop
  endfacet
  facet normal 1.0 0.0 0.0
      outer loop
          vertex 0.8 0.9 0.01
          vertex 0.8 1.3 1
          vertex 0.8 0.9 1
      endloop
  endfacet
  facet normal -0.8320502943378438 0.554700196225229 0.0
      outer loop
          vertex 0.8 1.3 0.01
          vertex 0.6000000000000001 1.0 0.01
          vertex 0.6000000000000001 1.0 1
      endloop
  endfacet
  facet normal -0.8320502943378438 0.554700196225229 0.0
      outer loop
          vertex 0.8 1.3 0.01
          vertex 0.6000000000000001 1.0 1
          vertex 0.8 1.3 1
      endloop
  endfacet
  facet normal -1.0 0.0 0.0
      outer loop
          vertex 0.6000000000000001 1.0 0.01
          vertex 0.6000000000000001 0.6000000000000001 0.01
          vertex 0.6000000000000001 0.6000000000000001 1
      endloop
  endfacet
  facet normal -1.0 0.0 0.0
      outer loop
          vertex 0.6000000000000001 1.0 0.01
          vertex 0.6000000000000001 0.6000000000000001 1
          vertex 0.6000000000000001 1.0 1
      endloop
  endfacet
endsolid obstacle
