solid obstacle
  facet normal 0.0 0.0 -1.0
      outer loop
          vertex 0.0 0.5 0.01
          vertex 0.1 0.6000000000000001 0.01
          vertex 0.4 0.7000000000000001 0.01
      endloop
  endfacet
  facet normal 0.0 0.0 1.0
      outer loop
          vertex 0.0 0.5 1
          vertex 0.4 0.7000000000000001 1
          vertex 0.1 0.6000000000000001 1
      endloop
  endfacet
  facet normal 0.44721359549995804 -0.8944271909999159 0.0
      outer loop
          vertex 0.0 0.5 0.01
          vertex 0.4 0.7000000000000001 0.01
          vertex 0.4 0.7000000000000001 1
      endloop
  endfacet
  facet normal 0.44721359549995804 -0.8944271909999159 0.0
      outer loop
          vertex 0.0 0.5 0.01
          vertex 0.4 0.7000000000000001 1
          vertex 0.0 0.5 1
      endloop
  endfacet
  facet normal -0.31622776601683783 0.9486832980505139 0.0
      outer loop
          vertex 0.4 0.7000000000000001 0.01
          vertex 0.1 0.6000000000000001 0.01
          vertex 0.1 0.6000000000000001 1
      endloop
  endfacet
  facet normal -0.31622776601683783 0.9486832980505139 0.0
      outer loop
          vertex 0.4 0.7000000000000001 0.01
          vertex 0.1 0.6000000000000001 1
          vertex 0.4 0.7000000000000001 1
      endloop
  endfacet
  facet normal -0.7071067811865479 0.7071067811865472 0.0
      outer loop
          vertex 0.1 0.6000000000000001 0.01
          vertex 0.0 0.5 0.01
          vertex 0.0 0.5 1
      endloop
  endfacet
  facet normal -0.7071067811865479 0.7071067811865472 0.0
      outer loop
          vertex 0.1 0.6000000000000001 0.01
          vertex 0.0 0.5 1
          vertex 0.1 0.6000000000000001 1
      endloop
  endfacet
endsolid obstacle
