solid obstacle
  facet normal 0.0 0.0 -1.0
      outer loop
          vertex 3.2 3.0 0.1
          vertex 2.5 1.9000000000000001 0.1
          vertex 1.8 2.1 0.1
      endloop
  endfacet
  facet normal 0.0 -0.0 -1.0
      outer loop
          vertex 3.2 3.0 0.1
          vertex 4.1000000000000005 2.4000000000000004 0.1
          vertex 2.5 1.9000000000000001 0.1
      endloop
  endfacet
  facet normal 0.0 0.0 1.0
      outer loop
          vertex 3.2 3.0 1
          vertex 1.8 2.1 1
          vertex 2.5 1.9000000000000001 1
      endloop
  endfacet
  facet normal 0.0 0.0 1.0
      outer loop
          vertex 3.2 3.0 1
          vertex 2.5 1.9000000000000001 1
          vertex 4.1000000000000005 2.4000000000000004 1
      endloop
  endfacet
  facet normal -0.5407575913134987 0.8411784753765535 0.0
      outer loop
          vertex 3.2 3.0 0.1
          vertex 1.8 2.1 0.1
          vertex 1.8 2.1 1
      endloop
  endfacet
  facet normal -0.5407575913134987 0.8411784753765535 0.0
      outer loop
          vertex 3.2 3.0 0.1
          vertex 1.8 2.1 1
          vertex 3.2 3.0 1
      endloop
  endfacet
  facet normal -0.274721127897378 -0.9615239476408232 0.0
      outer loop
          vertex 1.8 2.1 0.1
          vertex 2.5 1.9000000000000001 0.1
          vertex 2.5 1.9000000000000001 1
      endloop
  endfacet
  facet normal -0.274721127897378 -0.9615239476408232 0.0
      outer loop
          vertex 1.8 2.1 0.1
          vertex 2.5 1.9000000000000001 1
          vertex 1.8 2.1 1
      endloop
  endfacet
  facet normal 0.29827499313594685 -0.9544799780350298 0.0
      outer loop
          vertex 2.5 1.9000000000000001 0.1
          vertex 4.1000000000000005 2.4000000000000004 0.1
          vertex 4.1000000000000005 2.4000000000000004 1
      endloop
  endfacet
  facet normal 0.29827499313594685 -0.9544799780350298 0.0
      outer loop
          vertex 2.5 1.9000000000000001 0.1
          vertex 4.1000000000000005 2.4000000000000004 1
          vertex 2.5 1.9000000000000001 1
      endloop
  endfacet
  facet normal 0.5547001962252287 0.8320502943378439 0.0
      outer loop
          vertex 4.1000000000000005 2.4000000000000004 0.1
          vertex 3.2 3.0 0.1
          vertex 3.2 3.0 1
      endloop
  endfacet
  facet normal 0.5547001962252287 0.8320502943378439 -0.0
      outer loop
          vertex 4.1000000000000005 2.4000000000000004 0.1
          vertex 3.2 3.0 1
          vertex 4.1000000000000005 2.4000000000000004 1
      endloop
  endfacet
endsolid obstacle
