solid obstacle
  facet normal -0.0 0.0 -1.0
      outer loop
          vertex 4.9 3.7 0.01
          vertex 3.2 3.3000000000000003 0.01
          vertex 3.1 4.1000000000000005 0.01
      endloop
  endfacet
  facet normal 0.0 0.0 1.0
      outer loop
          vertex 4.9 3.7 1
          vertex 3.1 4.1000000000000005 1
          vertex 3.2 3.3000000000000003 1
      endloop
  endfacet
  facet normal 0.21693045781865633 0.9761870601839527 0.0
      outer loop
          vertex 4.9 3.7 0.01
          vertex 3.1 4.1000000000000005 0.01
          vertex 3.1 4.1000000000000005 1
      endloop
  endfacet
  facet normal 0.21693045781865633 0.9761870601839527 -0.0
      outer loop
          vertex 4.9 3.7 0.01
          vertex 3.1 4.1000000000000005 1
          vertex 4.9 3.7 1
      endloop
  endfacet
  facet normal -0.9922778767136677 -0.12403473458920854 0.0
      outer loop
          vertex 3.1 4.1000000000000005 0.01
          vertex 3.2 3.3000000000000003 0.01
          vertex 3.2 3.3000000000000003 1
      endloop
  endfacet
  facet normal -0.9922778767136677 -0.12403473458920854 0.0
      outer loop
          vertex 3.1 4.1000000000000005 0.01
          vertex 3.2 3.3000000000000003 1
          vertex 3.1 4.1000000000000005 1
      endloop
  endfacet
  facet normal 0.22903933372554722 -0.9734171683335759 0.0
      outer loop
          vertex 3.2 3.3000000000000003 0.01
          vertex 4.9 3.7 0.01
          vertex 4.9 3.7 1
      endloop
  endfacet
  facet normal 0.22903933372554722 -0.9734171683335759 0.0
      outer loop
          vertex 3.2 3.3000000000000003 0.01
          vertex 4.9 3.7 1
          vertex 3.2 3.3000000000000003 1
      endloop
  endfacet
endsolid obstacle
