solid obstacle
  facet normal -0.0 0.0 -1.0
      outer loop
          vertex 1.0 1.2000000000000002 0.01
          vertex 0.6000000000000001 0.7000000000000001 0.01
          vertex 0.0 1.9000000000000001 0.01
      endloop
  endfacet
  facet normal 0.0 0.0 1.0
      outer loop
          vertex 1.0 1.2000000000000002 1
          vertex 0.0 1.9000000000000001 1
          vertex 0.6000000000000001 0.7000000000000001 1
      endloop
  endfacet
  facet normal 0.5734623443633283 0.8192319205190405 0.0
      outer loop
          vertex 1.0 1.2000000000000002 0.01
          vertex 0.0 1.9000000000000001 0.01
          vertex 0.0 1.9000000000000001 1
      endloop
  endfacet
  facet normal 0.5734623443633283 0.8192319205190405 -0.0
      outer loop
          vertex 1.0 1.2000000000000002 0.01
          vertex 0.0 1.9000000000000001 1
          vertex 1.0 1.2000000000000002 1
      endloop
  endfacet
  facet normal -0.8944271909999159 -0.4472135954999579 0.0
      outer loop
          vertex 0.0 1.9000000000000001 0.01
          vertex 0.6000000000000001 0.7000000000000001 0.01
          vertex 0.6000000000000001 0.7000000000000001 1
      endloop
  endfacet
  facet normal -0.8944271909999159 -0.4472135954999579 0.0
      outer loop
          vertex 0.0 1.9000000000000001 0.01
          vertex 0.6000000000000001 0.7000000000000001 1
          vertex 0.0 1.9000000000000001 1
      endloop
  endfacet
  facet normal 0.7808688094430304 -0.6246950475544241 0.0
      outer loop
          vertex 0.6000000000000001 0.7000000000000001 0.01
          vertex 1.0 1.2000000000000002 0.01
          vertex 1.0 1.2000000000000002 1
      endloop
  endfacet
  facet normal 0.7808688094430304 -0.6246950475544241 0.0
      outer loop
          vertex 0.6000000000000001 0.7000000000000001 0.01
          vertex 1.0 1.2000000000000002 1
          vertex 0.6000000000000001 0.7000000000000001 1
      endloop
  endfacet
endsolid obstacle
