solid obstacle
  facet normal 0.0 0.0 -1.0
      outer loop
          vertex 0.1 2.5 0.01
          vertex 1.2000000000000002 3.4000000000000004 0.01
          vertex 1.7000000000000002 2.6 0.01
      endloop
  endfacet
  facet normal 0.0 0.0 1.0
      outer loop
          vertex 0.1 2.5 1
          vertex 1.7000000000000002 2.6 1
          vertex 1.2000000000000002 3.4000000000000004 1
      endloop
  endfacet
  facet normal 0.06237828615518059 -0.9980525784828885 0.0
      outer loop
          vertex 0.1 2.5 0.01
          vertex 1.7000000000000002 2.6 0.01
          vertex 1.7000000000000002 2.6 1
      endloop
  endfacet
  facet normal 0.06237828615518059 -0.9980525784828885 0.0
      outer loop
          vertex 0.1 2.5 0.01
          vertex 1.7000000000000002 2.6 1
          vertex 0.1 2.5 1
      endloop
  endfacet
  facet normal 0.8479983040050881 0.5299989400031799 0.0
      outer loop
          vertex 1.7000000000000002 2.6 0.01
          vertex 1.2000000000000002 3.4000000000000004 0.01
          vertex 1.2000000000000002 3.4000000000000004 1
      endloop
  endfacet
  facet normal 0.8479983040050881 0.5299989400031799 -0.0
      outer loop
          vertex 1.7000000000000002 2.6 0.01
          vertex 1.2000000000000002 3.4000000000000004 1
          vertex 1.7000000000000002 2.6 1
      endloop
  endfacet
  facet normal -0.6332377902572628 0.7739572992033208 0.0
      outer loop
          vertex 1.2000000000000002 3.4000000000000004 0.01
          vertex 0.1 2.5 0.01
          vertex 0.1 2.5 1
      endloop
  endfacet
  facet normal -0.6332377902572628 0.7739572992033208 0.0
      outer loop
          vertex 1.2000000000000002 3.4000000000000004 0.01
          vertex 0.1 2.5 1
          vertex 1.2000000000000002 3.4000000000000004 1
      endloop
  endfacet
endsolid obstacle
