solid obstacle
  facet normal 0.0 -0.0 -1.0
      outer loop
          vertex 0.2 1.0 0.01
          vertex 0.4 0.8 0.01
          vertex 0.1 0.8 0.01
      endloop
  endfacet
  facet normal 0.0 0.0 -1.0
      outer loop
          vertex 0.2 1.0 0.01
          vertex 2.0 1.0 0.01
          vertex 0.4 0.8 0.01
      endloop
  endfacet
  facet normal 0.0 0.0 1.0
      outer loop
          vertex 0.2 1.0 1
          vertex 0.1 0.8 1
          vertex 0.4 0.8 1
      endloop
  endfacet
  facet normal -0.0 0.0 1.0
      outer loop
          vertex 0.2 1.0 1
          vertex 0.4 0.8 1
          vertex 2.0 1.0 1
      endloop
  endfacet
  facet normal -0.8944271909999159 0.4472135954999581 0.0
      outer loop
          vertex 0.2 1.0 0.01
          vertex 0.1 0.8 0.01
          vertex 0.1 0.8 1
      endloop
  endfacet
  facet normal -0.8944271909999159 0.4472135954999581 0.0
      outer loop
          vertex 0.2 1.0 0.01
          vertex 0.1 0.8 1
          vertex 0.2 1.0 1
      endloop
  endfacet
  facet normal 0.0 -1.0 0.0
      outer loop
          vertex 0.1 0.8 0.01
          vertex 0.4 0.8 0.01
          vertex 0.4 0.8 1
      endloop
  endfacet
  facet normal 0.0 -1.0 0.0
      outer loop
          vertex 0.1 0.8 0.01
          vertex 0.4 0.8 1
          vertex 0.1 0.8 1
      endloop
  endfacet
  facet normal 0.12403473458920843 -0.9922778767136677 0.0
      outer loop
          vertex 0.4 0.8 0.01
          vertex 2.0 1.0 0.01
          vertex 2.0 1.0 1
      endloop
  endfacet
  facet normal 0.12403473458920843 -0.9922778767136677 0.0
      outer loop
          vertex 0.4 0.8 0.01
          vertex 2.0 1.0 1
          vertex 0.4 0.8 1
      endloop
  endfacet
  facet normal 0.0 1.0 0.0
      outer loop
          vertex 2.0 1.0 0.01
          vertex 0.2 1.0 0.01
          vertex 0.2 1.0 1
      endloop
  endfacet
  facet normal 0.0 1.0 -0.0
      outer loop
          vertex 2.0 1.0 0.01
          vertex 0.2 1.0 1
          vertex 2.0 1.0 1
      endloop
  endfacet
endsolid obstacle
