solid obstacle
  facet normal 0.0 0.0 -1.0
      outer loop
          vertex 1.8 3.2 0.01
          vertex 1.7000000000000002 1.7000000000000002 0.01
          vertex 0.30000000000000004 2.1 0.01
      endloop
  endfacet
  facet normal 0.0 -0.0 -1.0
      outer loop
          vertex 1.8 3.2 0.01
          vertex 2.7 1.6 0.01
          vertex 1.7000000000000002 1.7000000000000002 0.01
      endloop
  endfacet
  facet normal 0.0 0.0 1.0
      outer loop
          vertex 1.8 3.2 1
          vertex 0.30000000000000004 2.1 1
          vertex 1.7000000000000002 1.7000000000000002 1
      endloop
  endfacet
  facet normal 0.0 0.0 1.0
      outer loop
          vertex 1.8 3.2 1
          vertex 1.7000000000000002 1.7000000000000002 1
          vertex 2.7 1.6 1
      endloop
  endfacet
  facet normal -0.5913636636275175 0.8064049958557056 0.0
      outer loop
          vertex 1.8 3.2 0.01
          vertex 0.30000000000000004 2.1 0.01
          vertex 0.30000000000000004 2.1 1
      endloop
  endfacet
  facet normal -0.5913636636275175 0.8064049958557056 0.0
      outer loop
          vertex 1.8 3.2 0.01
          vertex 0.30000000000000004 2.1 1
          vertex 1.8 3.2 1
      endloop
  endfacet
  facet normal -0.27472112789737796 -0.9615239476408233 0.0
      outer loop
          vertex 0.30000000000000004 2.1 0.01
          vertex 1.7000000000000002 1.7000000000000002 0.01
          vertex 1.7000000000000002 1.7000000000000002 1
      endloop
  endfacet
  facet normal -0.27472112789737796 -0.9615239476408233 0.0
      outer loop
          vertex 0.30000000000000004 2.1 0.01
          vertex 1.7000000000000002 1.7000000000000002 1
          vertex 0.30000000000000004 2.1 1
      endloop
  endfacet
  facet normal -0.099503719020999 -0.9950371902099892 0.0
      outer loop
          vertex 1.7000000000000002 1.7000000000000002 0.01
          vertex 2.7 1.6 0.01
          vertex 2.7 1.6 1
      endloop
  endfacet
  facet normal -0.099503719020999 -0.9950371902099892 0.0
      outer loop
          vertex 1.7000000000000002 1.7000000000000002 0.01
          vertex 2.7 1.6 1
          vertex 1.7000000000000002 1.7000000000000002 1
      endloop
  endfacet
  facet normal 0.8715755371245493 0.490261239632559 0.0
      outer loop
          vertex 2.7 1.6 0.01
          vertex 1.8 3.2 0.01
          vertex 1.8 3.2 1
      endloop
  endfacet
  facet normal 0.8715755371245493 0.490261239632559 -0.0
      outer loop
          vertex 2.7 1.6 0.01
          vertex 1.8 3.2 1
          vertex 2.7 1.6 1
      endloop
  endfacet
endsolid obstacle
