solid obstacle
  facet normal -0.0 0.0 -1.0
      outer loop
          vertex 2.2 1.5 0.1
          vertex 1.1 0.4 0.1
          vertex 1.0 1.6 0.1
      endloop
  endfacet
  facet normal 0.0 0.0 1.0
      outer loop
          vertex 2.2 1.5 1
          vertex 1.0 1.6 1
          vertex 1.1 0.4 1
      endloop
  endfacet
  facet normal 0.08304547985374003 0.9965457582448797 0.0
      outer loop
          vertex 2.2 1.5 0.1
          vertex 1.0 1.6 0.1
          vertex 1.0 1.6 1
      endloop
  endfacet
  facet normal 0.08304547985374003 0.9965457582448797 -0.0
      outer loop
          vertex 2.2 1.5 0.1
          vertex 1.0 1.6 1
          vertex 2.2 1.5 1
      endloop
  endfacet
  facet normal -0.9965457582448797 -0.08304547985374003 0.0
      outer loop
          vertex 1.0 1.6 0.1
          vertex 1.1 0.4 0.1
          vertex 1.1 0.4 1
      endloop
  endfacet
  facet normal -0.9965457582448797 -0.08304547985374003 0.0
      outer loop
          vertex 1.0 1.6 0.1
          vertex 1.1 0.4 1
          vertex 1.0 1.6 1
      endloop
  endfacet
  facet normal 0.7071067811865476 -0.7071067811865476 0.0
      outer loop
          vertex 1.1 0.4 0.1
          vertex 2.2 1.5 0.1
          vertex 2.2 1.5 1
      endloop
  endfacet
  facet normal 0.7071067811865476 -0.7071067811865476 0.0
      outer loop
          vertex 1.1 0.4 0.1
          vertex 2.2 1.5 1
          vertex 1.1 0.4 1
      endloop
  endfacet
endsolid obstacle
