solid obstacle
  facet normal -0.0 0.0 -1.0
      outer loop
          vertex 1.3 1.7000000000000002 0.01
          vertex 0.6000000000000001 0.9 0.01
          vertex 0.2 2.0 0.01
      endloop
  endfacet
  facet normal 0.0 -0.0 -1.0
      outer loop
          vertex 1.3 1.7000000000000002 0.01
          vertex 2.2 0.7000000000000001 0.01
          vertex 0.6000000000000001 0.9 0.01
      endloop
  endfacet
  facet normal 0.0 0.0 1.0
      outer loop
          vertex 1.3 1.7000000000000002 1
          vertex 0.2 2.0 1
          vertex 0.6000000000000001 0.9 1
      endloop
  endfacet
  facet normal 0.0 0.0 1.0
      outer loop
          vertex 1.3 1.7000000000000002 1
          vertex 0.6000000000000001 0.9 1
          vertex 2.2 0.7000000000000001 1
      endloop
  endfacet
  facet normal 0.2631174057921086 0.9647638212377321 0.0
      outer loop
          vertex 1.3 1.7000000000000002 0.01
          vertex 0.2 2.0 0.01
          vertex 0.2 2.0 1
      endloop
  endfacet
  facet normal 0.2631174057921086 0.9647638212377321 -0.0
      outer loop
          vertex 1.3 1.7000000000000002 0.01
          vertex 0.2 2.0 1
          vertex 1.3 1.7000000000000002 1
      endloop
  endfacet
  facet normal -0.939793423488437 -0.34174306308670443 0.0
      outer loop
          vertex 0.2 2.0 0.01
          vertex 0.6000000000000001 0.9 0.01
          vertex 0.6000000000000001 0.9 1
      endloop
  endfacet
  facet normal -0.939793423488437 -0.34174306308670443 0.0
      outer loop
          vertex 0.2 2.0 0.01
          vertex 0.6000000000000001 0.9 1
          vertex 0.2 2.0 1
      endloop
  endfacet
  facet normal -0.12403473458920843 -0.9922778767136677 0.0
      outer loop
          vertex 0.6000000000000001 0.9 0.01
          vertex 2.2 0.7000000000000001 0.01
          vertex 2.2 0.7000000000000001 1
      endloop
  endfacet
  facet normal -0.12403473458920843 -0.9922778767136677 0.0
      outer loop
          vertex 0.6000000000000001 0.9 0.01
          vertex 2.2 0.7000000000000001 1
          vertex 0.6000000000000001 0.9 1
      endloop
  endfacet
  facet normal 0.7432941462471663 0.6689647316224497 0.0
      outer loop
          vertex 2.2 0.7000000000000001 0.01
          vertex 1.3 1.7000000000000002 0.01
          vertex 1.3 1.7000000000000002 1
      endloop
  endfacet
  facet normal 0.7432941462471663 0.6689647316224497 -0.0
      outer loop
          vertex 2.2 0.7000000000000001 0.01
          vertex 1.3 1.7000000000000002 1
          vertex 2.2 0.7000000000000001 1
      endloop
  endfacet
endsolid obstacle
