solid obstacle
  facet normal -0.0 0.0 -1.0
      outer loop
          vertex 1.3 4.1000000000000005 0.1
          vertex 1.2000000000000002 3.4000000000000004 0.1
          vertex 0.1 4.6000000000000005 0.1
      endloop
  endfacet
  facet normal 0.0 0.0 1.0
      outer loop
          vertex 1.3 4.1000000000000005 1
          vertex 0.1 4.6000000000000005 1
          vertex 1.2000000000000002 3.4000000000000004 1
      endloop
  endfacet
  facet normal 0.38461538461538464 0.9230769230769232 0.0
      outer loop
          vertex 1.3 4.1000000000000005 0.1
          vertex 0.1 4.6000000000000005 0.1
          vertex 0.1 4.6000000000000005 1
      endloop
  endfacet
  facet normal 0.38461538461538464 0.9230769230769232 -0.0
      outer loop
          vertex 1.3 4.1000000000000005 0.1
          vertex 0.1 4.6000000000000005 1
          vertex 1.3 4.1000000000000005 1
      endloop
  endfacet
  facet normal -0.7371541402007415 -0.6757246285173463 0.0
      outer loop
          vertex 0.1 4.6000000000000005 0.1
          vertex 1.2000000000000002 3.4000000000000004 0.1
          vertex 1.2000000000000002 3.4000000000000004 1
      endloop
  endfacet
  facet normal -0.7371541402007415 -0.6757246285173463 0.0
      outer loop
          vertex 0.1 4.6000000000000005 0.1
          vertex 1.2000000000000002 3.4000000000000004 1
          vertex 0.1 4.6000000000000005 1
      endloop
  endfacet
  facet normal 0.9899494936611666 -0.14142135623730928 0.0
      outer loop
          vertex 1.2000000000000002 3.4000000000000004 0.1
          vertex 1.3 4.1000000000000005 0.1
          vertex 1.3 4.1000000000000005 1
      endloop
  endfacet
  facet normal 0.9899494936611666 -0.14142135623730928 0.0
      outer loop
          vertex 1.2000000000000002 3.4000000000000004 0.1
          vertex 1.3 4.1000000000000005 1
          vertex 1.2000000000000002 3.4000000000000004 1
      endloop
  endfacet
endsolid obstacle
