solid obstacle
  facet normal 0.0 0.0 -1.0
      outer loop
          vertex 3.4000000000000004 1.8 0.01
          vertex 3.7 3.0 0.01
          vertex 4.4 3.2 0.01
      endloop
  endfacet
  facet normal 0.0 0.0 1.0
      outer loop
          vertex 3.4000000000000004 1.8 1
          vertex 4.4 3.2 1
          vertex 3.7 3.0 1
      endloop
  endfacet
  facet normal 0.813733471206735 -0.5812381937190964 0.0
      outer loop
          vertex 3.4000000000000004 1.8 0.01
          vertex 4.4 3.2 0.01
          vertex 4.4 3.2 1
      endloop
  endfacet
  facet normal 0.813733471206735 -0.5812381937190964 0.0
      outer loop
          vertex 3.4000000000000004 1.8 0.01
          vertex 4.4 3.2 1
          vertex 3.4000000000000004 1.8 1
      endloop
  endfacet
  facet normal -0.2747211278973782 0.9615239476408232 0.0
      outer loop
          vertex 4.4 3.2 0.01
          vertex 3.7 3.0 0.01
          vertex 3.7 3.0 1
      endloop
  endfacet
  facet normal -0.2747211278973782 0.9615239476408232 0.0
      outer loop
          vertex 4.4 3.2 0.01
          vertex 3.7 3.0 1
          vertex 4.4 3.2 1
      endloop
  endfacet
  facet normal -0.9701425001453319 0.24253562503633283 0.0
      outer loop
          vertex 3.7 3.0 0.01
          vertex 3.4000000000000004 1.8 0.01
          vertex 3.4000000000000004 1.8 1
      endloop
  endfacet
  facet normal -0.9701425001453319 0.24253562503633283 0.0
      outer loop
          vertex 3.7 3.0 0.01
          vertex 3.4000000000000004 1.8 1
          vertex 3.7 3.0 1
      endloop
  endfacet
endsolid obstacle
