solid obstacle
  facet normal 0.0 0.0 -1.0
      outer loop
          vertex 0.1 0.1 0.01
          vertex 1.4000000000000001 1.4000000000000001 0.01
          vertex 1.9000000000000001 0.7000000000000001 0.01
      endloop
  endfacet
  facet normal 0.0 0.0 1.0
      outer loop
          vertex 0.1 0.1 1
          vertex 1.9000000000000001 0.7000000000000001 1
          vertex 1.4000000000000001 1.4000000000000001 1
      endloop
  endfacet
  facet normal 0.316227766016838 -0.9486832980505139 0.0
      outer loop
          vertex 0.1 0.1 0.01
          vertex 1.9000000000000001 0.7000000000000001 0.01
          vertex 1.9000000000000001 0.7000000000000001 1
      endloop
  endfacet
  facet normal 0.316227766016838 -0.9486832980505139 0.0
      outer loop
          vertex 0.1 0.1 0.01
          vertex 1.9000000000000001 0.7000000000000001 1
          vertex 0.1 0.1 1
      endloop
  endfacet
  facet normal 0.813733471206735 0.5812381937190964 0.0
      outer loop
          vertex 1.9000000000000001 0.7000000000000001 0.01
          vertex 1.4000000000000001 1.4000000000000001 0.01
          vertex 1.4000000000000001 1.4000000000000001 1
      endloop
  endfacet
  facet normal 0.813733471206735 0.5812381937190964 -0.0
      outer loop
          vertex 1.9000000000000001 0.7000000000000001 0.01
          vertex 1.4000000000000001 1.4000000000000001 1
          vertex 1.9000000000000001 0.7000000000000001 1
      endloop
  endfacet
  facet normal -0.7071067811865475 0.7071067811865475 0.0
      outer loop
          vertex 1.4000000000000001 1.4000000000000001 0.01
          vertex 0.1 0.1 0.01
          vertex 0.1 0.1 1
      endloop
  endfacet
  facet normal -0.7071067811865475 0.7071067811865475 0.0
      outer loop
          vertex 1.4000000000000001 1.4000000000000001 0.01
          vertex 0.1 0.1 1
          vertex 1.4000000000000001 1.4000000000000001 1
      endloop
  endfacet
endsolid obstacle
