solid obstacle
  facet normal 0.0 0.0 -1.0
      outer loop
          vertex 1.8 2.1 0.1
          vertex 1.8 2.8000000000000003 0.1
          vertex 2.0 1.4000000000000001 0.1
      endloop
  endfacet
  facet normal -0.0 0.0 1.0
      outer loop
          vertex 1.8 2.1 1
          vertex 2.0 1.4000000000000001 1
          vertex 1.8 2.8000000000000003 1
      endloop
  endfacet
  facet normal -0.9615239476408232 -0.274721127897378 0.0
      outer loop
          vertex 1.8 2.1 0.1
          vertex 2.0 1.4000000000000001 0.1
          vertex 2.0 1.4000000000000001 1
      endloop
  endfacet
  facet normal -0.9615239476408232 -0.274721127897378 0.0
      outer loop
          vertex 1.8 2.1 0.1
          vertex 2.0 1.4000000000000001 1
          vertex 1.8 2.1 1
      endloop
  endfacet
  facet normal 0.9899494936611666 0.14142135623730945 0.0
      outer loop
          vertex 2.0 1.4000000000000001 0.1
          vertex 1.8 2.8000000000000003 0.1
          vertex 1.8 2.8000000000000003 1
      endloop
  endfacet
  facet normal 0.9899494936611666 0.14142135623730945 -0.0
      outer loop
          vertex 2.0 1.4000000000000001 0.1
          vertex 1.8 2.8000000000000003 1
          vertex 2.0 1.4000000000000001 1
      endloop
  endfacet
  facet normal -1.0 0.0 0.0
      outer loop
          vertex 1.8 2.8000000000000003 0.1
          vertex 1.8 2.1 0.1
          vertex 1.8 2.1 1
      endloop
  endfacet
  facet normal -1.0 0.0 0.0
      outer loop
          vertex 1.8 2.8000000000000003 0.1
          vertex 1.8 2.1 1
          vertex 1.8 2.8000000000000003 1
      endloop
  endfacet
endsolid obstacle
