solid obstacle
  facet normal 0.0 -0.0 -1.0
      outer loop
          vertex 0.8 3.8000000000000003 0.1
          vertex 0.9 2.6 0.1
          vertex 0.1 3.7 0.1
      endloop
  endfacet
  facet normal 0.0 0.0 -1.0
      outer loop
          vertex 0.8 3.8000000000000003 0.1
          vertex 1.9000000000000001 2.5 0.1
          vertex 0.9 2.6 0.1
      endloop
  endfacet
  facet normal 0.0 0.0 1.0
      outer loop
          vertex 0.8 3.8000000000000003 1
          vertex 0.1 3.7 1
          vertex 0.9 2.6 1
      endloop
  endfacet
  facet normal 0.0 0.0 1.0
      outer loop
          vertex 0.8 3.8000000000000003 1
          vertex 0.9 2.6 1
          vertex 1.9000000000000001 2.5 1
      endloop
  endfacet
  facet normal -0.14142135623730961 0.9899494936611666 0.0
      outer loop
          vertex 0.8 3.8000000000000003 0.1
          vertex 0.1 3.7 0.1
          vertex 0.1 3.7 1
      endloop
  endfacet
  facet normal -0.14142135623730961 0.9899494936611666 0.0
      outer loop
          vertex 0.8 3.8000000000000003 0.1
          vertex 0.1 3.7 1
          vertex 0.8 3.8000000000000003 1
      endloop
  endfacet
  facet normal -0.8087360843031884 -0.5881716976750462 0.0
      outer loop
          vertex 0.1 3.7 0.1
          vertex 0.9 2.6 0.1
          vertex 0.9 2.6 1
      endloop
  endfacet
  facet normal -0.8087360843031884 -0.5881716976750462 0.0
      outer loop
          vertex 0.1 3.7 0.1
          vertex 0.9 2.6 1
          vertex 0.1 3.7 1
      endloop
  endfacet
  facet normal -0.099503719020999 -0.9950371902099892 0.0
      outer loop
          vertex 0.9 2.6 0.1
          vertex 1.9000000000000001 2.5 0.1
          vertex 1.9000000000000001 2.5 1
      endloop
  endfacet
  facet normal -0.099503719020999 -0.9950371902099892 0.0
      outer loop
          vertex 0.9 2.6 0.1
          vertex 1.9000000000000001 2.5 1
          vertex 0.9 2.6 1
      endloop
  endfacet
  facet normal 0.7633862853691146 0.6459422414661737 0.0
      outer loop
          vertex 1.9000000000000001 2.5 0.1
          vertex 0.8 3.8000000000000003 0.1
          vertex 0.8 3.8000000000000003 1
      endloop
  endfacet
  facet normal 0.7633862853691146 0.6459422414661737 -0.0
      outer loop
          vertex 1.9000000000000001 2.5 0.1
          vertex 0.8 3.8000000000000003 1
          vertex 1.9000000000000001 2.5 1
      endloop
  endfacet
endsolid obstacle
