solid obstacle
  facet normal 0.0 0.0 -1.0
      outer loop
          vertex 2.2 2.8000000000000003 0.1
          vertex 3.1 4.5 0.1
          vertex 3.2 2.9000000000000004 0.1
      endloop
  endfacet
  facet normal 0.0 0.0 1.0
      outer loop
          vertex 2.2 2.8000000000000003 1
          vertex 3.2 2.9000000000000004 1
          vertex 3.1 4.5 1
      endloop
  endfacet
  facet normal 0.099503719020999 -0.9950371902099892 0.0
      outer loop
          vertex 2.2 2.8000000000000003 0.1
          vertex 3.2 2.9000000000000004 0.1
          vertex 3.2 2.9000000000000004 1
      endloop
  endfacet
  facet normal 0.099503719020999 -0.9950371902099892 0.0
      outer loop
          vertex 2.2 2.8000000000000003 0.1
          vertex 3.2 2.9000000000000004 1
          vertex 2.2 2.8000000000000003 1
      endloop
  endfacet
  facet normal 0.9980525784828884 0.062378286155180596 0.0
      outer loop
          vertex 3.2 2.9000000000000004 0.1
          vertex 3.1 4.5 0.1
          vertex 3.1 4.5 1
      endloop
  endfacet
  facet normal 0.9980525784828884 0.062378286155180596 -0.0
      outer loop
          vertex 3.2 2.9000000000000004 0.1
          vertex 3.1 4.5 1
          vertex 3.2 2.9000000000000004 1
      endloop
  endfacet
  facet normal -0.8837879163470618 0.46788772041903276 0.0
      outer loop
          vertex 3.1 4.5 0.1
          vertex 2.2 2.8000000000000003 0.1
          vertex 2.2 2.8000000000000003 1
      endloop
  endfacet
  facet normal -0.8837879163470618 0.46788772041903276 0.0
      outer loop
          vertex 3.1 4.5 0.1
          vertex 2.2 2.8000000000000003 1
          vertex 3.1 4.5 1
      endloop
  endfacet
endsolid obstacle
