solid obstacle
  facet normal 0.0 0.0 -1.0
      outer loop
          vertex 0.4 1.6 0.01
          vertex 0.1 1.2000000000000002 0.01
          vertex 0.0 1.4000000000000001 0.01
      endloop
  endfacet
  facet normal 0.0 0.0 1.0
      outer loop
          vertex 0.4 1.6 1
          vertex 0.0 1.4000000000000001 1
          vertex 0.1 1.2000000000000002 1
      endloop
  endfacet
  facet normal -0.4472135954999578 0.894427190999916 0.0
      outer loop
          vertex 0.4 1.6 0.01
          vertex 0.0 1.4000000000000001 0.01
          vertex 0.0 1.4000000000000001 1
      endloop
  endfacet
  facet normal -0.4472135954999578 0.894427190999916 0.0
      outer loop
          vertex 0.4 1.6 0.01
          vertex 0.0 1.4000000000000001 1
          vertex 0.4 1.6 1
      endloop
  endfacet
  facet normal -0.8944271909999159 -0.4472135954999581 0.0
      outer loop
          vertex 0.0 1.4000000000000001 0.01
          vertex 0.1 1.2000000000000002 0.01
          vertex 0.1 1.2000000000000002 1
      endloop
  endfacet
  facet normal -0.8944271909999159 -0.4472135954999581 0.0
      outer loop
          vertex 0.0 1.4000000000000001 0.01
          vertex 0.1 1.2000000000000002 1
          vertex 0.0 1.4000000000000001 1
      endloop
  endfacet
  facet normal 0.7999999999999999 -0.6000000000000002 0.0
      outer loop
          vertex 0.1 1.2000000000000002 0.01
          vertex 0.4 1.6 0.01
          vertex 0.4 1.6 1
      endloop
  endfacet
  facet normal 0.7999999999999999 -0.6000000000000002 0.0
      outer loop
          vertex 0.1 1.2000000000000002 0.01
          vertex 0.4 1.6 1
          vertex 0.1 1.2000000000000002 1
      endloop
  endfacet
endsolid obstacle
