solid obstacle
  facet normal 0.0 0.0 -1.0
      outer loop
          vertex 1.9000000000000001 2.3000000000000003 0.1
          vertex 2.3000000000000003 2.9000000000000004 0.1
          vertex 3.5 2.8000000000000003 0.1
      endloop
  endfacet
  facet normal 0.0 0.0 1.0
      outer loop
          vertex 1.9000000000000001 2.3000000000000003 1
          vertex 3.5 2.8000000000000003 1
          vertex 2.3000000000000003 2.9000000000000004 1
      endloop
  endfacet
  facet normal 0.2982749931359468 -0.9544799780350297 0.0
      outer loop
          vertex 1.9000000000000001 2.3000000000000003 0.1
          vertex 3.5 2.8000000000000003 0.1
          vertex 3.5 2.8000000000000003 1
      endloop
  endfacet
  facet normal 0.2982749931359468 -0.9544799780350297 0.0
      outer loop
          vertex 1.9000000000000001 2.3000000000000003 0.1
          vertex 3.5 2.8000000000000003 1
          vertex 1.9000000000000001 2.3000000000000003 1
      endloop
  endfacet
  facet normal 0.08304547985374006 0.9965457582448797 0.0
      outer loop
          vertex 3.5 2.8000000000000003 0.1
          vertex 2.3000000000000003 2.9000000000000004 0.1
          vertex 2.3000000000000003 2.9000000000000004 1
      endloop
  endfacet
  facet normal 0.08304547985374006 0.9965457582448797 -0.0
      outer loop
          vertex 3.5 2.8000000000000003 0.1
          vertex 2.3000000000000003 2.9000000000000004 1
          vertex 3.5 2.8000000000000003 1
      endloop
  endfacet
  facet normal -0.8320502943378436 0.5547001962252291 0.0
      outer loop
          vertex 2.3000000000000003 2.9000000000000004 0.1
          vertex 1.9000000000000001 2.3000000000000003 0.1
          vertex 1.9000000000000001 2.3000000000000003 1
      endloop
  endfacet
  facet normal -0.8320502943378436 0.5547001962252291 0.0
      outer loop
          vertex 2.3000000000000003 2.9000000000000004 0.1
          vertex 1.9000000000000001 2.3000000000000003 1
          vertex 2.3000000000000003 2.9000000000000004 1
      endloop
  endfacet
endsolid obstacle
