solid obstacle
  facet normal 0.0 0.0 -1.0
      outer loop
          vertex 0.9 2.7 0.1
          vertex 1.0 4.1000000000000005 0.1
          vertex 2.4000000000000004 3.6 0.1
      endloop
  endfacet
  facet normal 0.0 0.0 1.0
      outer loop
          vertex 0.9 2.7 1
          vertex 2.4000000000000004 3.6 1
          vertex 1.0 4.1000000000000005 1
      endloop
  endfacet
  facet normal 0.5144957554275263 -0.8574929257125443 0.0
      outer loop
          vertex 0.9 2.7 0.1
          vertex 2.4000000000000004 3.6 0.1
          vertex 2.4000000000000004 3.6 1
      endloop
  endfacet
  facet normal 0.5144957554275263 -0.8574929257125443 0.0
      outer loop
          vertex 0.9 2.7 0.1
          vertex 2.4000000000000004 3.6 1
          vertex 0.9 2.7 1
      endloop
  endfacet
  facet normal 0.33633639699815643 0.9417419115948374 0.0
      outer loop
          vertex 2.4000000000000004 3.6 0.1
          vertex 1.0 4.1000000000000005 0.1
          vertex 1.0 4.1000000000000005 1
      endloop
  endfacet
  facet normal 0.33633639699815643 0.9417419115948374 -0.0
      outer loop
          vertex 2.4000000000000004 3.6 0.1
          vertex 1.0 4.1000000000000005 1
          vertex 2.4000000000000004 3.6 1
      endloop
  endfacet
  facet normal -0.9974586998307351 0.07124704998790961 0.0
      outer loop
          vertex 1.0 4.1000000000000005 0.1
          vertex 0.9 2.7 0.1
          vertex 0.9 2.7 1
      endloop
  endfacet
  facet normal -0.9974586998307351 0.07124704998790961 0.0
      outer loop
          vertex 1.0 4.1000000000000005 0.1
          vertex 0.9 2.7 1
          vertex 1.0 4.1000000000000005 1
      endloop
  endfacet
endsolid obstacle
