solid obstacle
  facet normal 0.0 0.0 -1.0
      outer loop
          vertex 3.3000000000000003 4.2 0.01
          vertex 3.6 4.7 0.01
          vertex 4.800000000000001 4.800000000000001 0.01
      endloop
  endfacet
  facet normal 0.0 0.0 1.0
      outer loop
          vertex 3.3000000000000003 4.2 1
          vertex 4.800000000000001 4.800000000000001 1
          vertex 3.6 4.7 1
      endloop
  endfacet
  facet normal 0.37139067635410394 -0.9284766908852592 0.0
      outer loop
          vertex 3.3000000000000003 4.2 0.01
          vertex 4.800000000000001 4.800000000000001 0.01
          vertex 4.800000000000001 4.800000000000001 1
      endloop
  endfacet
  facet normal 0.37139067635410394 -0.9284766908852592 0.0
      outer loop
          vertex 3.3000000000000003 4.2 0.01
          vertex 4.800000000000001 4.800000000000001 1
          vertex 3.3000000000000003 4.2 1
      endloop
  endfacet
  facet normal -0.08304547985374038 0.9965457582448796 0.0
      outer loop
          vertex 4.800000000000001 4.800000000000001 0.01
          vertex 3.6 4.7 0.01
          vertex 3.6 4.7 1
      endloop
  endfacet
  facet normal -0.08304547985374038 0.9965457582448796 0.0
      outer loop
          vertex 4.800000000000001 4.800000000000001 0.01
          vertex 3.6 4.7 1
          vertex 4.800000000000001 4.800000000000001 1
      endloop
  endfacet
  facet normal -0.8574929257125442 0.5144957554275262 0.0
      outer loop
          vertex 3.6 4.7 0.01
          vertex 3.3000000000000003 4.2 0.01
          vertex 3.3000000000000003 4.2 1
      endloop
  endfacet
  facet normal -0.8574929257125442 0.5144957554275262 0.0
      outer loop
          vertex 3.6 4.7 0.01
          vertex 3.3000000000000003 4.2 1
          vertex 3.6 4.7 1
      endloop
  endfacet
endsolid obstacle
