solid obstacle
  facet normal 0.0 0.0 -1.0
      outer loop
          vertex 1.3 2.3000000000000003 0.1
          vertex 2.8000000000000003 2.8000000000000003 0.1
          vertex 1.9000000000000001 1.7000000000000002 0.1
      endloop
  endfacet
  facet normal 0.0 0.0 -1.0
      outer loop
          vertex 1.3 2.3000000000000003 0.1
          vertex 1.8 2.6 0.1
          vertex 2.8000000000000003 2.8000000000000003 0.1
      endloop
  endfacet
  facet normal -0.0 0.0 1.0
      outer loop
          vertex 1.3 2.3000000000000003 1
          vertex 1.9000000000000001 1.7000000000000002 1
          vertex 2.8000000000000003 2.8000000000000003 1
      endloop
  endfacet
  facet normal 0.0 0.0 1.0
      outer loop
          vertex 1.3 2.3000000000000003 1
          vertex 2.8000000000000003 2.8000000000000003 1
          vertex 1.8 2.6 1
      endloop
  endfacet
  facet normal -0.7071067811865476 -0.7071067811865476 0.0
      outer loop
          vertex 1.3 2.3000000000000003 0.1
          vertex 1.9000000000000001 1.7000000000000002 0.1
          vertex 1.9000000000000001 1.7000000000000002 1
      endloop
  endfacet
  facet normal -0.7071067811865476 -0.7071067811865476 0.0
      outer loop
          vertex 1.3 2.3000000000000003 0.1
          vertex 1.9000000000000001 1.7000000000000002 1
          vertex 1.3 2.3000000000000003 1
      endloop
  endfacet
  facet normal 0.773957299203321 -0.6332377902572628 0.0
      outer loop
          vertex 1.9000000000000001 1.7000000000000002 0.1
          vertex 2.8000000000000003 2.8000000000000003 0.1
          vertex 2.8000000000000003 2.8000000000000003 1
      endloop
  endfacet
  facet normal 0.773957299203321 -0.6332377902572628 0.0
      outer loop
          vertex 1.9000000000000001 1.7000000000000002 0.1
          vertex 2.8000000000000003 2.8000000000000003 1
          vertex 1.9000000000000001 1.7000000000000002 1
      endloop
  endfacet
  facet normal -0.19611613513818413 0.9805806756909201 0.0
      outer loop
          vertex 2.8000000000000003 2.8000000000000003 0.1
          vertex 1.8 2.6 0.1
          vertex 1.8 2.6 1
      endloop
  endfacet
  facet normal -0.19611613513818413 0.9805806756909201 0.0
      outer loop
          vertex 2.8000000000000003 2.8000000000000003 0.1
          vertex 1.8 2.6 1
          vertex 2.8000000000000003 2.8000000000000003 1
      endloop
  endfacet
  facet normal -0.5144957554275263 0.8574929257125443 0.0
      outer loop
          vertex 1.8 2.6 0.1
          vertex 1.3 2.3000000000000003 0.1
          vertex 1.3 2.3000000000000003 1
      endloop
  endfacet
  facet normal -0.5144957554275263 0.8574929257125443 0.0
      outer loop
          vertex 1.8 2.6 0.1
          vertex 1.3 2.3000000000000003 1
          vertex 1.8 2.6 1
      endloop
  endfacet
endsolid obstacle
