solid obstacle
  facet normal 0.0 0.0 -1.0
      outer loop
          vertex 1.0 1.7000000000000002 0.01
          vertex 0.9 1.4000000000000001 0.01
          vertex 0.8 1.5 0.01
      endloop
  endfacet
  facet normal 0.0 0.0 1.0
      outer loop
          vertex 1.0 1.7000000000000002 1
          vertex 0.8 1.5 1
          vertex 0.9 1.4000000000000001 1
      endloop
  endfacet
  facet normal -0.7071067811865479 0.707106781186547 0.0
      outer loop
          vertex 1.0 1.7000000000000002 0.01
          vertex 0.8 1.5 0.01
          vertex 0.8 1.5 1
      endloop
  endfacet
  facet normal -0.7071067811865479 0.707106781186547 0.0
      outer loop
          vertex 1.0 1.7000000000000002 0.01
          vertex 0.8 1.5 1
          vertex 1.0 1.7000000000000002 1
      endloop
  endfacet
  facet normal -0.7071067811865471 -0.7071067811865479 0.0
      outer loop
          vertex 0.8 1.5 0.01
          vertex 0.9 1.4000000000000001 0.01
          vertex 0.9 1.4000000000000001 1
      endloop
  endfacet
  facet normal -0.7071067811865471 -0.7071067811865479 0.0
      outer loop
          vertex 0.8 1.5 0.01
          vertex 0.9 1.4000000000000001 1
          vertex 0.8 1.5 1
      endloop
  endfacet
  facet normal 0.9486832980505139 -0.31622776601683783 0.0
      outer loop
          vertex 0.9 1.4000000000000001 0.01
          vertex 1.0 1.7000000000000002 0.01
          vertex 1.0 1.7000000000000002 1
      endloop
  endfacet
  facet normal 0.9486832980505139 -0.31622776601683783 0.0
      outer loop
          vertex 0.9 1.4000000000000001 0.01
          vertex 1.0 1.7000000000000002 1
          vertex 0.9 1.4000000000000001 1
      endloop
  endfacet
endsolid obstacle
