solid obstacle
  facet normal 0.0 0.0 -1.0
      outer loop
          vertex 3.4000000000000004 1.2000000000000002 0.01
          vertex 2.9000000000000004 1.4000000000000001 0.01
          vertex 1.7000000000000002 2.1 0.01
      endloop
  endfacet
  facet normal 0.0 0.0 1.0
      outer loop
          vertex 3.4000000000000004 1.2000000000000002 1
          vertex 1.7000000000000002 2.1 1
          vertex 2.9000000000000004 1.4000000000000001 1
      endloop
  endfacet
  facet normal 0.46788772041903265 0.8837879163470618 0.0
      outer loop
          vertex 3.4000000000000004 1.2000000000000002 0.01
          vertex 1.7000000000000002 2.1 0.01
          vertex 1.7000000000000002 2.1 1
      endloop
  endfacet
  facet normal 0.46788772041903265 0.8837879163470618 -0.0
      outer loop
          vertex 3.4000000000000004 1.2000000000000002 0.01
          vertex 1.7000000000000002 2.1 1
          vertex 3.4000000000000004 1.2000000000000002 1
      endloop
  endfacet
  facet normal -0.503871025524086 -0.8637789008984335 0.0
      outer loop
          vertex 1.7000000000000002 2.1 0.01
          vertex 2.9000000000000004 1.4000000000000001 0.01
          vertex 2.9000000000000004 1.4000000000000001 1
      endloop
  endfacet
  facet normal -0.503871025524086 -0.8637789008984335 0.0
      outer loop
          vertex 1.7000000000000002 2.1 0.01
          vertex 2.9000000000000004 1.4000000000000001 1
          vertex 1.7000000000000002 2.1 1
      endloop
  endfacet
  facet normal -0.3713906763541036 -0.9284766908852593 0.0
      outer loop
          vertex 2.9000000000000004 1.4000000000000001 0.01
          vertex 3.4000000000000004 1.2000000000000002 0.01
          vertex 3.4000000000000004 1.2000000000000002 1
      endloop
  endfacet
  facet normal -0.3713906763541036 -0.9284766908852593 0.0
      outer loop
          vertex 2.9000000000000004 1.4000000000000001 0.01
          vertex 3.4000000000000004 1.2000000000000002 1
          vertex 2.9000000000000004 1.4000000000000001 1
      endloop
  endfacet
endsolid obstacle
