solid obstacle
  facet normal 0.0 0.0 -1.0
      outer loop
          vertex 2.8000000000000003 2.0 0.1
          vertex 1.2000000000000002 0.30000000000000004 0.1
          vertex 1.1 1.1 0.1
      endloop
  endfacet
  facet normal 0.0 0.0 -1.0
      outer loop
          vertex 2.8000000000000003 2.0 0.1
          vertex 2.0 0.9 0.1
          vertex 1.2000000000000002 0.30000000000000004 0.1
      endloop
  endfacet
  facet normal 0.0 0.0 1.0
      outer loop
          vertex 2.8000000000000003 2.0 1
          vertex 1.1 1.1 1
          vertex 1.2000000000000002 0.30000000000000004 1
      endloop
  endfacet
  facet normal 0.0 0.0 1.0
      outer loop
          vertex 2.8000000000000003 2.0 1
          vertex 1.2000000000000002 0.30000000000000004 1
          vertex 2.0 0.9 1
      endloop
  endfacet
  facet normal -0.46788772041903265 0.8837879163470619 0.0
      outer loop
          vertex 2.8000000000000003 2.0 0.1
          vertex 1.1 1.1 0.1
          vertex 1.1 1.1 1
      endloop
  endfacet
  facet normal -0.46788772041903265 0.8837879163470619 0.0
      outer loop
          vertex 2.8000000000000003 2.0 0.1
          vertex 1.1 1.1 1
          vertex 2.8000000000000003 2.0 1
      endloop
  endfacet
  facet normal -0.9922778767136677 -0.12403473458920856 0.0
      outer loop
          vertex 1.1 1.1 0.1
          vertex 1.2000000000000002 0.30000000000000004 0.1
          vertex 1.2000000000000002 0.30000000000000004 1
      endloop
  endfacet
  facet normal -0.9922778767136677 -0.12403473458920856 0.0
      outer loop
          vertex 1.1 1.1 0.1
          vertex 1.2000000000000002 0.30000000000000004 1
          vertex 1.1 1.1 1
      endloop
  endfacet
  facet normal 0.6000000000000001 -0.7999999999999999 0.0
      outer loop
          vertex 1.2000000000000002 0.30000000000000004 0.1
          vertex 2.0 0.9 0.1
          vertex 2.0 0.9 1
      endloop
  endfacet
  facet normal 0.6000000000000001 -0.7999999999999999 0.0
      outer loop
          vertex 1.2000000000000002 0.30000000000000004 0.1
          vertex 2.0 0.9 1
          vertex 1.2000000000000002 0.30000000000000004 1
      endloop
  endfacet
  facet normal 0.8087360843031884 -0.5881716976750463 0.0
      outer loop
          vertex 2.0 0.9 0.1
          vertex 2.8000000000000003 2.0 0.1
          vertex 2.8000000000000003 2.0 1
      endloop
  endfacet
  facet normal 0.8087360843031884 -0.5881716976750463 0.0
      outer loop
          vertex 2.0 0.9 0.1
          vertex 2.8000000000000003 2.0 1
          vertex 2.0 0.9 1
      endloop
  endfacet
endsolid obstacle
