solid obstacle
  facet normal 0.0 0.0 -1.0
      outer loop
          vertex 1.5 2.2 0.01
          vertex 2.3000000000000003 3.8000000000000003 0.01
          vertex 2.9000000000000004 2.4000000000000004 0.01
      endloop
  endfacet
  facet normal 0.0 0.0 1.0
      outer loop
          vertex 1.5 2.2 1
          vertex 2.9000000000000004 2.4000000000000004 1
          vertex 2.3000000000000003 3.8000000000000003 1
      endloop
  endfacet
  facet normal 0.1414213562373096 -0.9899494936611665 0.0
      outer loop
          vertex 1.5 2.2 0.01
          vertex 2.9000000000000004 2.4000000000000004 0.01
          vertex 2.9000000000000004 2.4000000000000004 1
      endloop
  endfacet
  facet normal 0.1414213562373096 -0.9899494936611665 0.0
      outer loop
          vertex 1.5 2.2 0.01
          vertex 2.9000000000000004 2.4000000000000004 1
          vertex 1.5 2.2 1
      endloop
  endfacet
  facet normal 0.9191450300180579 0.39391929857916774 0.0
      outer loop
          vertex 2.9000000000000004 2.4000000000000004 0.01
          vertex 2.3000000000000003 3.8000000000000003 0.01
          vertex 2.3000000000000003 3.8000000000000003 1
      endloop
  endfacet
  facet normal 0.9191450300180579 0.39391929857916774 -0.0
      outer loop
          vertex 2.9000000000000004 2.4000000000000004 0.01
          vertex 2.3000000000000003 3.8000000000000003 1
          vertex 2.9000000000000004 2.4000000000000004 1
      endloop
  endfacet
  facet normal -0.8944271909999159 0.44721359549995804 0.0
      outer loop
          vertex 2.3000000000000003 3.8000000000000003 0.01
          vertex 1.5 2.2 0.01
          vertex 1.5 2.2 1
      endloop
  endfacet
  facet normal -0.8944271909999159 0.44721359549995804 0.0
      outer loop
          vertex 2.3000000000000003 3.8000000000000003 0.01
          vertex 1.5 2.2 1
          vertex 2.3000000000000003 3.8000000000000003 1
      endloop
  endfacet
endsolid obstacle
