solid obstacle
  facet normal 0.0 0.0 -1.0
      outer loop
          vertex 4.1000000000000005 4.9 0.01
          vertex 3.0 4.1000000000000005 0.01
          vertex 2.3000000000000003 4.6000000000000005 0.01
      endloop
  endfacet
  facet normal 0.0 0.0 1.0
      outer loop
          vertex 4.1000000000000005 4.9 1
          vertex 2.3000000000000003 4.6000000000000005 1
          vertex 3.0 4.1000000000000005 1
      endloop
  endfacet
  facet normal -0.16439898730535718 0.9863939238321439 0.0
      outer loop
          vertex 4.1000000000000005 4.9 0.01
          vertex 2.3000000000000003 4.6000000000000005 0.01
          vertex 2.3000000000000003 4.6000000000000005 1
      endloop
  endfacet
  facet normal -0.16439898730535718 0.9863939238321439 0.0
      outer loop
          vertex 4.1000000000000005 4.9 0.01
          vertex 2.3000000000000003 4.6000000000000005 1
          vertex 4.1000000000000005 4.9 1
      endloop
  endfacet
  facet normal -0.5812381937190966 -0.8137334712067349 0.0
      outer loop
          vertex 2.3000000000000003 4.6000000000000005 0.01
          vertex 3.0 4.1000000000000005 0.01
          vertex 3.0 4.1000000000000005 1
      endloop
  endfacet
  facet normal -0.5812381937190966 -0.8137334712067349 0.0
      outer loop
          vertex 2.3000000000000003 4.6000000000000005 0.01
          vertex 3.0 4.1000000000000005 1
          vertex 2.3000000000000003 4.6000000000000005 1
      endloop
  endfacet
  facet normal 0.588171697675046 -0.8087360843031887 0.0
      outer loop
          vertex 3.0 4.1000000000000005 0.01
          vertex 4.1000000000000005 4.9 0.01
          vertex 4.1000000000000005 4.9 1
      endloop
  endfacet
  facet normal 0.588171697675046 -0.8087360843031887 0.0
      outer loop
          vertex 3.0 4.1000000000000005 0.01
          vertex 4.1000000000000005 4.9 1
          vertex 3.0 4.1000000000000005 1
      endloop
  endfacet
endsolid obstacle
