solid obstacle
  facet normal 0.0 -0.0 -1.0
      outer loop
          vertex 0.7000000000000001 1.9000000000000001 0.01
          vertex 0.9 0.4 0.01
          vertex 0.4 0.5 0.01
      endloop
  endfacet
  facet normal 0.0 0.0 -1.0
      outer loop
          vertex 0.7000000000000001 1.9000000000000001 0.01
          vertex 2.2 0.9 0.01
          vertex 0.9 0.4 0.01
      endloop
  endfacet
  facet normal 0.0 0.0 1.0
      outer loop
          vertex 0.7000000000000001 1.9000000000000001 1
          vertex 0.4 0.5 1
          vertex 0.9 0.4 1
      endloop
  endfacet
  facet normal 0.0 0.0 1.0
      outer loop
          vertex 0.7000000000000001 1.9000000000000001 1
          vertex 0.9 0.4 1
          vertex 2.2 0.9 1
      endloop
  endfacet
  facet normal -0.9778024140774095 0.20952908873087348 0.0
      outer loop
          vertex 0.7000000000000001 1.9000000000000001 0.01
          vertex 0.4 0.5 0.01
          vertex 0.4 0.5 1
      endloop
  endfacet
  facet normal -0.9778024140774095 0.20952908873087348 0.0
      outer loop
          vertex 0.7000000000000001 1.9000000000000001 0.01
          vertex 0.4 0.5 1
          vertex 0.7000000000000001 1.9000000000000001 1
      endloop
  endfacet
  facet normal -0.196116135138184 -0.9805806756909201 0.0
      outer loop
          vertex 0.4 0.5 0.01
          vertex 0.9 0.4 0.01
          vertex 0.9 0.4 1
      endloop
  endfacet
  facet normal -0.196116135138184 -0.9805806756909201 0.0
      outer loop
          vertex 0.4 0.5 0.01
          vertex 0.9 0.4 1
          vertex 0.4 0.5 1
      endloop
  endfacet
  facet normal 0.358979079308869 -0.9333456062030596 0.0
      outer loop
          vertex 0.9 0.4 0.01
          vertex 2.2 0.9 0.01
          vertex 2.2 0.9 1
      endloop
  endfacet
  facet normal 0.358979079308869 -0.9333456062030596 0.0
      outer loop
          vertex 0.9 0.4 0.01
          vertex 2.2 0.9 1
          vertex 0.9 0.4 1
      endloop
  endfacet
  facet normal 0.5547001962252291 0.8320502943378436 0.0
      outer loop
          vertex 2.2 0.9 0.01
          vertex 0.7000000000000001 1.9000000000000001 0.01
          vertex 0.7000000000000001 1.9000000000000001 1
      endloop
  endfacet
  facet normal 0.5547001962252291 0.8320502943378436 -0.0
      outer loop
          vertex 2.2 0.9 0.01
          vertex 0.7000000000000001 1.9000000000000001 1
          vertex 2.2 0.9 1
      endloop
  endfacet
endsolid obstacle
