solid obstacle
  facet normal 0.0 0.0 -1.0
      outer loop
          vertex 2.6 0.1 0.01
          vertex 3.7 1.6 0.01
          vertex 3.8000000000000003 1.1 0.01
      endloop
  endfacet
  facet normal 0.0 0.0 1.0
      outer loop
          vertex 2.6 0.1 1
          vertex 3.8000000000000003 1.1 1
          vertex 3.7 1.6 1
      endloop
  endfacet
  facet normal 0.6401843996644798 -0.768221279597376 0.0
      outer loop
          vertex 2.6 0.1 0.01
          vertex 3.8000000000000003 1.1 0.01
          vertex 3.8000000000000003 1.1 1
      endloop
  endfacet
  facet normal 0.6401843996644798 -0.768221279597376 0.0
      outer loop
          vertex 2.6 0.1 0.01
          vertex 3.8000000000000003 1.1 1
          vertex 2.6 0.1 1
      endloop
  endfacet
  facet normal 0.9805806756909201 0.1961161351381842 0.0
      outer loop
          vertex 3.8000000000000003 1.1 0.01
          vertex 3.7 1.6 0.01
          vertex 3.7 1.6 1
      endloop
  endfacet
  facet normal 0.9805806756909201 0.1961161351381842 -0.0
      outer loop
          vertex 3.8000000000000003 1.1 0.01
          vertex 3.7 1.6 1
          vertex 3.8000000000000003 1.1 1
      endloop
  endfacet
  facet normal -0.8064049958557056 0.5913636636275175 0.0
      outer loop
          vertex 3.7 1.6 0.01
          vertex 2.6 0.1 0.01
          vertex 2.6 0.1 1
      endloop
  endfacet
  facet normal -0.8064049958557056 0.5913636636275175 0.0
      outer loop
          vertex 3.7 1.6 0.01
          vertex 2.6 0.1 1
          vertex 3.7 1.6 1
      endloop
  endfacet
endsolid obstacle
