solid obstacle
  facet normal 0.0 0.0 -1.0
      outer loop
          vertex 1.3 1.1 0.01
          vertex 1.2000000000000002 1.1 0.01
          vertex 1.2000000000000002 1.5 0.01
      endloop
  endfacet
  facet normal 0.0 0.0 1.0
      outer loop
          vertex 1.3 1.1 1
          vertex 1.2000000000000002 1.5 1
          vertex 1.2000000000000002 1.1 1
      endloop
  endfacet
  facet normal 0.970142500145332 0.24253562503633272 0.0
      outer loop
          vertex 1.3 1.1 0.01
          vertex 1.2000000000000002 1.5 0.01
          vertex 1.2000000000000002 1.5 1
      endloop
  endfacet
  facet normal 0.970142500145332 0.24253562503633272 -0.0
      outer loop
          vertex 1.3 1.1 0.01
          vertex 1.2000000000000002 1.5 1
          vertex 1.3 1.1 1
      endloop
  endfacet
  facet normal -1.0 0.0 0.0
      outer loop
          vertex 1.2000000000000002 1.5 0.01
          vertex 1.2000000000000002 1.1 0.01
          vertex 1.2000000000000002 1.1 1
      endloop
  endfacet
  facet normal -1.0 0.0 0.0
      outer loop
          vertex 1.2000000000000002 1.5 0.01
          vertex 1.2000000000000002 1.1 1
          vertex 1.2000000000000002 1.5 1
      endloop
  endfacet
  facet normal 0.0 -1.0 0.0
      outer loop
          vertex 1.2000000000000002 1.1 0.01
          vertex 1.3 1.1 0.01
          vertex 1.3 1.1 1
      endloop
  endfacet
  facet normal 0.0 -1.0 0.0
      outer loop
          vertex 1.2000000000000002 1.1 0.01
          vertex 1.3 1.1 1
          vertex 1.2000000000000002 1.1 1
      endloop
  endfacet
endsolid obstacle
