solid obstacle
  facet normal 0.0 0.0 -1.0
      outer loop
          vertex 4.0 2.6 0.1
          vertex 4.1000000000000005 3.1 0.1
          vertex 4.9 3.0 0.1
      endloop
  endfacet
  facet normal 0.0 0.0 1.0
      outer loop
          vertex 4.0 2.6 1
          vertex 4.9 3.0 1
          vertex 4.1000000000000005 3.1 1
      endloop
  endfacet
  facet normal 0.4061384660534474 -0.9138115486202573 0.0
      outer loop
          vertex 4.0 2.6 0.1
          vertex 4.9 3.0 0.1
          vertex 4.9 3.0 1
      endloop
  endfacet
  facet normal 0.4061384660534474 -0.9138115486202573 0.0
      outer loop
          vertex 4.0 2.6 0.1
          vertex 4.9 3.0 1
          vertex 4.0 2.6 1
      endloop
  endfacet
  facet normal 0.12403473458920859 0.9922778767136677 0.0
      outer loop
          vertex 4.9 3.0 0.1
          vertex 4.1000000000000005 3.1 0.1
          vertex 4.1000000000000005 3.1 1
      endloop
  endfacet
  facet normal 0.12403473458920859 0.9922778767136677 -0.0
      outer loop
          vertex 4.9 3.0 0.1
          vertex 4.1000000000000005 3.1 1
          vertex 4.9 3.0 1
      endloop
  endfacet
  facet normal -0.98058067569092 0.19611613513818504 0.0
      outer loop
          vertex 4.1000000000000005 3.1 0.1
          vertex 4.0 2.6 0.1
          vertex 4.0 2.6 1
      endloop
  endfacet
  facet normal -0.98058067569092 0.19611613513818504 0.0
      outer loop
          vertex 4.1000000000000005 3.1 0.1
          vertex 4.0 2.6 1
          vertex 4.1000000000000005 3.1 1
      endloop
  endfacet
endsolid obstacle
