solid obstacle
  facet normal 0.0 0.0 -1.0
      outer loop
          vertex 0.9 2.2 0.1
          vertex 2.0 4.1000000000000005 0.1
          vertex 2.2 2.5 0.1
      endloop
  endfacet
  facet normal 0.0 0.0 -1.0
      outer loop
          vertex 0.9 2.2 0.1
          vertex 1.0 3.1 0.1
          vertex 2.0 4.1000000000000005 0.1
      endloop
  endfacet
  facet normal 0.0 0.0 1.0
      outer loop
          vertex 0.9 2.2 1
          vertex 2.2 2.5 1
          vertex 2.0 4.1000000000000005 1
      endloop
  endfacet
  facet normal 0.0 0.0 1.0
      outer loop
          vertex 0.9 2.2 1
          vertex 2.0 4.1000000000000005 1
          vertex 1.0 3.1 1
      endloop
  endfacet
  facet normal 0.22485950669875823 -0.97439119569462 0.0
      outer loop
          vertex 0.9 2.2 0.1
          vertex 2.2 2.5 0.1
          vertex 2.2 2.5 1
      endloop
  endfacet
  facet normal 0.22485950669875823 -0.97439119569462 0.0
      outer loop
          vertex 0.9 2.2 0.1
          vertex 2.2 2.5 1
          vertex 0.9 2.2 1
      endloop
  endfacet
  facet normal 0.9922778767136677 0.12403473458920852 0.0
      outer loop
          vertex 2.2 2.5 0.1
          vertex 2.0 4.1000000000000005 0.1
          vertex 2.0 4.1000000000000005 1
      endloop
  endfacet
  facet normal 0.9922778767136677 0.12403473458920852 -0.0
      outer loop
          vertex 2.2 2.5 0.1
          vertex 2.0 4.1000000000000005 1
          vertex 2.2 2.5 1
      endloop
  endfacet
  facet normal -0.7071067811865477 0.7071067811865474 0.0
      outer loop
          vertex 2.0 4.1000000000000005 0.1
          vertex 1.0 3.1 0.1
          vertex 1.0 3.1 1
      endloop
  endfacet
  facet normal -0.7071067811865477 0.7071067811865474 0.0
      outer loop
          vertex 2.0 4.1000000000000005 0.1
          vertex 1.0 3.1 1
          vertex 2.0 4.1000000000000005 1
      endloop
  endfacet
  facet normal -0.9938837346736189 0.11043152607484653 0.0
      outer loop
          vertex 1.0 3.1 0.1
          vertex 0.9 2.2 0.1
          vertex 0.9 2.2 1
      endloop
  endfacet
  facet normal -0.9938837346736189 0.11043152607484653 0.0
      outer loop
          vertex 1.0 3.1 0.1
          vertex 0.9 2.2 1
          vertex 1.0 3.1 1
      endloop
  endfacet
endsolid obstacle
