solid obstacle
  facet normal 0.0 0.0 -1.0
      outer loop
          vertex 2.8000000000000003 1.6 0.01
          vertex 3.7 2.9000000000000004 0.01
          vertex 4.4 1.5 0.01
      endloop
  endfacet
  facet normal -0.0 0.0 1.0
      outer loop
          vertex 2.8000000000000003 1.6 1
          vertex 4.4 1.5 1
          vertex 3.7 2.9000000000000004 1
      endloop
  endfacet
  facet normal -0.06237828615518059 -0.9980525784828885 0.0
      outer loop
          vertex 2.8000000000000003 1.6 0.01
          vertex 4.4 1.5 0.01
          vertex 4.4 1.5 1
      endloop
  endfacet
  facet normal -0.06237828615518059 -0.9980525784828885 0.0
      outer loop
          vertex 2.8000000000000003 1.6 0.01
          vertex 4.4 1.5 1
          vertex 2.8000000000000003 1.6 1
      endloop
  endfacet
  facet normal 0.8944271909999159 0.4472135954999579 0.0
      outer loop
          vertex 4.4 1.5 0.01
          vertex 3.7 2.9000000000000004 0.01
          vertex 3.7 2.9000000000000004 1
      endloop
  endfacet
  facet normal 0.8944271909999159 0.4472135954999579 -0.0
      outer loop
          vertex 4.4 1.5 0.01
          vertex 3.7 2.9000000000000004 1
          vertex 4.4 1.5 1
      endloop
  endfacet
  facet normal -0.8221921916437787 0.5692099788303082 0.0
      outer loop
          vertex 3.7 2.9000000000000004 0.01
          vertex 2.8000000000000003 1.6 0.01
          vertex 2.8000000000000003 1.6 1
      endloop
  endfacet
  facet normal -0.8221921916437787 0.5692099788303082 0.0
      outer loop
          vertex 3.7 2.9000000000000004 0.01
          vertex 2.8000000000000003 1.6 1
          vertex 3.7 2.9000000000000004 1
      endloop
  endfacet
endsolid obstacle
