solid obstacle
  facet normal 0.0 -0.0 -1.0
      outer loop
          vertex 1.5 1.9000000000000001 0.01
          vertex 1.5 1.8 0.01
          vertex 1.3 1.8 0.01
      endloop
  endfacet
  facet normal 0.0 0.0 -1.0
      outer loop
          vertex 1.5 1.9000000000000001 0.01
          vertex 1.8 1.9000000000000001 0.01
          vertex 1.5 1.8 0.01
      endloop
  endfacet
  facet normal 0.0 0.0 1.0
      outer loop
          vertex 1.5 1.9000000000000001 1
          vertex 1.3 1.8 1
          vertex 1.5 1.8 1
      endloop
  endfacet
  facet normal -0.0 0.0 1.0
      outer loop
          vertex 1.5 1.9000000000000001 1
          vertex 1.5 1.8 1
          vertex 1.8 1.9000000000000001 1
      endloop
  endfacet
  facet normal -0.4472135954999583 0.8944271909999156 0.0
      outer loop
          vertex 1.5 1.9000000000000001 0.01
          vertex 1.3 1.8 0.01
          vertex 1.3 1.8 1
      endloop
  endfacet
  facet normal -0.4472135954999583 0.8944271909999156 0.0
      outer loop
          vertex 1.5 1.9000000000000001 0.01
          vertex 1.3 1.8 1
          vertex 1.5 1.9000000000000001 1
      endloop
  endfacet
  facet normal 0.0 -1.0 0.0
      outer loop
          vertex 1.3 1.8 0.01
          vertex 1.5 1.8 0.01
          vertex 1.5 1.8 1
      endloop
  endfacet
  facet normal 0.0 -1.0 0.0
      outer loop
          vertex 1.3 1.8 0.01
          vertex 1.5 1.8 1
          vertex 1.3 1.8 1
      endloop
  endfacet
  facet normal 0.3162277660168381 -0.9486832980505137 0.0
      outer loop
          vertex 1.5 1.8 0.01
          vertex 1.8 1.9000000000000001 0.01
          vertex 1.8 1.9000000000000001 1
      endloop
  endfacet
  facet normal 0.3162277660168381 -0.9486832980505137 0.0
      outer loop
          vertex 1.5 1.8 0.01
          vertex 1.8 1.9000000000000001 1
          vertex 1.5 1.8 1
      endloop
  endfacet
  facet normal 0.0 1.0 0.0
      outer loop
          vertex 1.8 1.9000000000000001 0.01
          vertex 1.5 1.9000000000000001 0.01
          vertex 1.5 1.9000000000000001 1
      endloop
  endfacet
  facet normal 0.0 1.0 -0.0
      outer loop
          vertex 1.8 1.9000000000000001 0.01
          vertex 1.5 1.9000000000000001 1
          vertex 1.8 1.9000000000000001 1
      endloop
  endfacet
endsolid obstacle
