solid obstacle
  facet normal 0.0 0.0 -1.0
      outer loop
          vertex 2.4000000000000004 2.1 0.01
          vertex 2.3000000000000003 0.7000000000000001 0.01
          vertex 0.9 1.1 0.01
      endloop
  endfacet
  facet normal 0.0 0.0 1.0
      outer loop
          vertex 2.4000000000000004 2.1 1
          vertex 0.9 1.1 1
          vertex 2.3000000000000003 0.7000000000000001 1
      endloop
  endfacet
  facet normal -0.554700196225229 0.8320502943378438 0.0
      outer loop
          vertex 2.4000000000000004 2.1 0.01
          vertex 0.9 1.1 0.01
          vertex 0.9 1.1 1
      endloop
  endfacet
  facet normal -0.554700196225229 0.8320502943378438 0.0
      outer loop
          vertex 2.4000000000000004 2.1 0.01
          vertex 0.9 1.1 1
          vertex 2.4000000000000004 2.1 1
      endloop
  endfacet
  facet normal -0.27472112789737796 -0.9615239476408232 0.0
      outer loop
          vertex 0.9 1.1 0.01
          vertex 2.3000000000000003 0.7000000000000001 0.01
          vertex 2.3000000000000003 0.7000000000000001 1
      endloop
  endfacet
  facet normal -0.27472112789737796 -0.9615239476408232 0.0
      outer loop
          vertex 0.9 1.1 0.01
          vertex 2.3000000000000003 0.7000000000000001 1
          vertex 0.9 1.1 1
      endloop
  endfacet
  facet normal 0.997458699830735 -0.0712470499879097 0.0
      outer loop
          vertex 2.3000000000000003 0.7000000000000001 0.01
          vertex 2.4000000000000004 2.1 0.01
          vertex 2.4000000000000004 2.1 1
      endloop
  endfacet
  facet normal 0.997458699830735 -0.0712470499879097 0.0
      outer loop
          vertex 2.3000000000000003 0.7000000000000001 0.01
          vertex 2.4000000000000004 2.1 1
          vertex 2.3000000000000003 0.7000000000000001 1
      endloop
  endfacet
endsolid obstacle
