solid obstacle
  facet normal 0.0 0.0 -1.0
      outer loop
          vertex 2.9000000000000004 1.2000000000000002 0.01
          vertex 4.0 2.6 0.01
          vertex 4.5 1.7000000000000002 0.01
      endloop
  endfacet
  facet normal 0.0 0.0 1.0
      outer loop
          vertex 2.9000000000000004 1.2000000000000002 1
          vertex 4.5 1.7000000000000002 1
          vertex 4.0 2.6 1
      endloop
  endfacet
  facet normal 0.29827499313594685 -0.9544799780350298 0.0
      outer loop
          vertex 2.9000000000000004 1.2000000000000002 0.01
          vertex 4.5 1.7000000000000002 0.01
          vertex 4.5 1.7000000000000002 1
      endloop
  endfacet
  facet normal 0.29827499313594685 -0.9544799780350298 0.0
      outer loop
          vertex 2.9000000000000004 1.2000000000000002 0.01
          vertex 4.5 1.7000000000000002 1
          vertex 2.9000000000000004 1.2000000000000002 1
      endloop
  endfacet
  facet normal 0.8741572761215378 0.48564293117863216 0.0
      outer loop
          vertex 4.5 1.7000000000000002 0.01
          vertex 4.0 2.6 0.01
          vertex 4.0 2.6 1
      endloop
  endfacet
  facet normal 0.8741572761215378 0.48564293117863216 -0.0
      outer loop
          vertex 4.5 1.7000000000000002 0.01
          vertex 4.0 2.6 1
          vertex 4.5 1.7000000000000002 1
      endloop
  endfacet
  facet normal -0.7863183388224227 0.6178215519319035 0.0
      outer loop
          vertex 4.0 2.6 0.01
          vertex 2.9000000000000004 1.2000000000000002 0.01
          vertex 2.9000000000000004 1.2000000000000002 1
      endloop
  endfacet
  facet normal -0.7863183388224227 0.6178215519319035 0.0
      outer loop
          vertex 4.0 2.6 0.01
          vertex 2.9000000000000004 1.2000000000000002 1
          vertex 4.0 2.6 1
      endloop
  endfacet
endsolid obstacle
