solid obstacle
  facet normal 0.0 0.0 -1.0
      outer loop
          vertex 3.1 0.9 0.1
          vertex 4.0 2.2 0.1
          vertex 3.9000000000000004 0.8 0.1
      endloop
  endfacet
  facet normal 0.0 0.0 -1.0
      outer loop
          vertex 3.1 0.9 0.1
          vertex 3.7 2.5 0.1
          vertex 4.0 2.2 0.1
      endloop
  endfacet
  facet normal -0.0 0.0 1.0
      outer loop
          vertex 3.1 0.9 1
          vertex 3.9000000000000004 0.8 1
          vertex 4.0 2.2 1
      endloop
  endfacet
  facet normal 0.0 0.0 1.0
      outer loop
          vertex 3.1 0.9 1
          vertex 4.0 2.2 1
          vertex 3.7 2.5 1
      endloop
  endfacet
  facet normal -0.12403473458920838 -0.9922778767136677 0.0
      outer loop
          vertex 3.1 0.9 0.1
          vertex 3.9000000000000004 0.8 0.1
          vertex 3.9000000000000004 0.8 1
      endloop
  endfacet
  facet normal -0.12403473458920838 -0.9922778767136677 0.0
      outer loop
          vertex 3.1 0.9 0.1
          vertex 3.9000000000000004 0.8 1
          vertex 3.1 0.9 1
      endloop
  endfacet
  facet normal 0.9974586998307351 -0.07124704998790937 0.0
      outer loop
          vertex 3.9000000000000004 0.8 0.1
          vertex 4.0 2.2 0.1
          vertex 4.0 2.2 1
      endloop
  endfacet
  facet normal 0.9974586998307351 -0.07124704998790937 0.0
      outer loop
          vertex 3.9000000000000004 0.8 0.1
          vertex 4.0 2.2 1
          vertex 3.9000000000000004 0.8 1
      endloop
  endfacet
  facet normal 0.7071067811865475 0.7071067811865475 0.0
      outer loop
          vertex 4.0 2.2 0.1
          vertex 3.7 2.5 0.1
          vertex 3.7 2.5 1
      endloop
  endfacet
  facet normal 0.7071067811865475 0.7071067811865475 -0.0
      outer loop
          vertex 4.0 2.2 0.1
          vertex 3.7 2.5 1
          vertex 4.0 2.2 1
      endloop
  endfacet
  facet normal -0.9363291775690444 0.35112344158839176 0.0
      outer loop
          vertex 3.7 2.5 0.1
          vertex 3.1 0.9 0.1
          vertex 3.1 0.9 1
      endloop
  endfacet
  facet normal -0.9363291775690444 0.35112344158839176 0.0
      outer loop
          vertex 3.7 2.5 0.1
          vertex 3.1 0.9 1
          vertex 3.7 2.5 1
      endloop
  endfacet
endsolid obstacle
