solid obstacle
  facet normal 0.0 0.0 -1.0
      outer loop
          vertex 4.6000000000000005 3.4000000000000004 0.1
          vertex 4.7 3.5 0.1
          vertex 4.9 2.4000000000000004 0.1
      endloop
  endfacet
  facet normal -0.0 0.0 1.0
      outer loop
          vertex 4.6000000000000005 3.4000000000000004 1
          vertex 4.9 2.4000000000000004 1
          vertex 4.7 3.5 1
      endloop
  endfacet
  facet normal -0.9578262852211514 -0.2873478855663453 0.0
      outer loop
          vertex 4.6000000000000005 3.4000000000000004 0.1
          vertex 4.9 2.4000000000000004 0.1
          vertex 4.9 2.4000000000000004 1
      endloop
  endfacet
  facet normal -0.9578262852211514 -0.2873478855663453 0.0
      outer loop
          vertex 4.6000000000000005 3.4000000000000004 0.1
          vertex 4.9 2.4000000000000004 1
          vertex 4.6000000000000005 3.4000000000000004 1
      endloop
  endfacet
  facet normal 0.9838699100999074 0.17888543819998337 0.0
      outer loop
          vertex 4.9 2.4000000000000004 0.1
          vertex 4.7 3.5 0.1
          vertex 4.7 3.5 1
      endloop
  endfacet
  facet normal 0.9838699100999074 0.17888543819998337 -0.0
      outer loop
          vertex 4.9 2.4000000000000004 0.1
          vertex 4.7 3.5 1
          vertex 4.9 2.4000000000000004 1
      endloop
  endfacet
  facet normal -0.7071067811865475 0.7071067811865475 0.0
      outer loop
          vertex 4.7 3.5 0.1
          vertex 4.6000000000000005 3.4000000000000004 0.1
          vertex 4.6000000000000005 3.4000000000000004 1
      endloop
  endfacet
  facet normal -0.7071067811865475 0.7071067811865475 0.0
      outer loop
          vertex 4.7 3.5 0.1
          vertex 4.6000000000000005 3.4000000000000004 1
          vertex 4.7 3.5 1
      endloop
  endfacet
endsolid obstacle
