solid obstacle
  facet normal 0.0 0.0 -1.0
      outer loop
          vertex 0.8 0.2 0.01
          vertex 1.1 0.30000000000000004 0.01
          vertex 1.2000000000000002 0.2 0.01
      endloop
  endfacet
  facet normal 0.0 0.0 1.0
      outer loop
          vertex 0.8 0.2 1
          vertex 1.2000000000000002 0.2 1
          vertex 1.1 0.30000000000000004 1
      endloop
  endfacet
  facet normal 0.0 -1.0 0.0
      outer loop
          vertex 0.8 0.2 0.01
          vertex 1.2000000000000002 0.2 0.01
          vertex 1.2000000000000002 0.2 1
      endloop
  endfacet
  facet normal 0.0 -1.0 0.0
      outer loop
          vertex 0.8 0.2 0.01
          vertex 1.2000000000000002 0.2 1
          vertex 0.8 0.2 1
      endloop
  endfacet
  facet normal 0.7071067811865474 0.7071067811865477 0.0
      outer loop
          vertex 1.2000000000000002 0.2 0.01
          vertex 1.1 0.30000000000000004 0.01
          vertex 1.1 0.30000000000000004 1
      endloop
  endfacet
  facet normal 0.7071067811865474 0.7071067811865477 -0.0
      outer loop
          vertex 1.2000000000000002 0.2 0.01
          vertex 1.1 0.30000000000000004 1
          vertex 1.2000000000000002 0.2 1
      endloop
  endfacet
  facet normal -0.316227766016838 0.9486832980505139 0.0
      outer loop
          vertex 1.1 0.30000000000000004 0.01
          vertex 0.8 0.2 0.01
          vertex 0.8 0.2 1
      endloop
  endfacet
  facet normal -0.316227766016838 0.9486832980505139 0.0
      outer loop
          vertex 1.1 0.30000000000000004 0.01
          vertex 0.8 0.2 1
          vertex 1.1 0.30000000000000004 1
      endloop
  endfacet
endsolid obstacle
