solid obstacle
  facet normal -0.0 0.0 -1.0
      outer loop
          vertex 1.9000000000000001 3.7 0.1
          vertex 0.4 3.0 0.1
          vertex 0.2 4.3 0.1
      endloop
  endfacet
  facet normal 0.0 0.0 -1.0
      outer loop
          vertex 1.9000000000000001 3.7 0.1
          vertex 1.3 3.0 0.1
          vertex 0.4 3.0 0.1
      endloop
  endfacet
  facet normal 0.0 0.0 1.0
      outer loop
          vertex 1.9000000000000001 3.7 1
          vertex 0.2 4.3 1
          vertex 0.4 3.0 1
      endloop
  endfacet
  facet normal 0.0 0.0 1.0
      outer loop
          vertex 1.9000000000000001 3.7 1
          vertex 0.4 3.0 1
          vertex 1.3 3.0 1
      endloop
  endfacet
  facet normal 0.33282011773513726 0.9429903335828896 0.0
      outer loop
          vertex 1.9000000000000001 3.7 0.1
          vertex 0.2 4.3 0.1
          vertex 0.2 4.3 1
      endloop
  endfacet
  facet normal 0.33282011773513726 0.9429903335828896 -0.0
      outer loop
          vertex 1.9000000000000001 3.7 0.1
          vertex 0.2 4.3 1
          vertex 1.9000000000000001 3.7 1
      endloop
  endfacet
  facet normal -0.9883716976506172 -0.15205718425394113 0.0
      outer loop
          vertex 0.2 4.3 0.1
          vertex 0.4 3.0 0.1
          vertex 0.4 3.0 1
      endloop
  endfacet
  facet normal -0.9883716976506172 -0.15205718425394113 0.0
      outer loop
          vertex 0.2 4.3 0.1
          vertex 0.4 3.0 1
          vertex 0.2 4.3 1
      endloop
  endfacet
  facet normal 0.0 -1.0 0.0
      outer loop
          vertex 0.4 3.0 0.1
          vertex 1.3 3.0 0.1
          vertex 1.3 3.0 1
      endloop
  endfacet
  facet normal 0.0 -1.0 0.0
      outer loop
          vertex 0.4 3.0 0.1
          vertex 1.3 3.0 1
          vertex 0.4 3.0 1
      endloop
  endfacet
  facet normal 0.7592566023652966 -0.6507913734559685 0.0
      outer loop
          vertex 1.3 3.0 0.1
          vertex 1.9000000000000001 3.7 0.1
          vertex 1.9000000000000001 3.7 1
      endloop
  endfacet
  facet normal 0.7592566023652966 -0.6507913734559685 0.0
      outer loop
          vertex 1.3 3.0 0.1
          vertex 1.9000000000000001 3.7 1
          vertex 1.3 3.0 1
      endloop
  endfacet
endsolid obstacle
