solid obstacle
  facet normal 0.0 0.0 -1.0
      outer loop
          vertex 2.3000000000000003 2.4000000000000004 0.01
          vertex 3.0 2.9000000000000004 0.01
          vertex 2.8000000000000003 1.8 0.01
      endloop
  endfacet
  facet normal 0.0 0.0 -1.0
      outer loop
          vertex 2.3000000000000003 2.4000000000000004 0.01
          vertex 2.9000000000000004 3.7 0.01
          vertex 3.0 2.9000000000000004 0.01
      endloop
  endfacet
  facet normal -0.0 0.0 1.0
      outer loop
          vertex 2.3000000000000003 2.4000000000000004 1
          vertex 2.8000000000000003 1.8 1
          vertex 3.0 2.9000000000000004 1
      endloop
  endfacet
  facet normal 0.0 0.0 1.0
      outer loop
          vertex 2.3000000000000003 2.4000000000000004 1
          vertex 3.0 2.9000000000000004 1
          vertex 2.9000000000000004 3.7 1
      endloop
  endfacet
  facet normal -0.768221279597376 -0.6401843996644796 0.0
      outer loop
          vertex 2.3000000000000003 2.4000000000000004 0.01
          vertex 2.8000000000000003 1.8 0.01
          vertex 2.8000000000000003 1.8 1
      endloop
  endfacet
  facet normal -0.768221279597376 -0.6401843996644796 0.0
      outer loop
          vertex 2.3000000000000003 2.4000000000000004 0.01
          vertex 2.8000000000000003 1.8 1
          vertex 2.3000000000000003 2.4000000000000004 1
      endloop
  endfacet
  facet normal 0.9838699100999077 -0.17888543819998293 0.0
      outer loop
          vertex 2.8000000000000003 1.8 0.01
          vertex 3.0 2.9000000000000004 0.01
          vertex 3.0 2.9000000000000004 1
      endloop
  endfacet
  facet normal 0.9838699100999077 -0.17888543819998293 0.0
      outer loop
          vertex 2.8000000000000003 1.8 0.01
          vertex 3.0 2.9000000000000004 1
          vertex 2.8000000000000003 1.8 1
      endloop
  endfacet
  facet normal 0.9922778767136677 0.12403473458920805 0.0
      outer loop
          vertex 3.0 2.9000000000000004 0.01
          vertex 2.9000000000000004 3.7 0.01
          vertex 2.9000000000000004 3.7 1
      endloop
  endfacet
  facet normal 0.9922778767136677 0.12403473458920805 -0.0
      outer loop
          vertex 3.0 2.9000000000000004 0.01
          vertex 2.9000000000000004 3.7 1
          vertex 3.0 2.9000000000000004 1
      endloop
  endfacet
  facet normal -0.9079593845004517 0.419058177461747 0.0
      outer loop
          vertex 2.9000000000000004 3.7 0.01
          vertex 2.3000000000000003 2.4000000000000004 0.01
          vertex 2.3000000000000003 2.4000000000000004 1
      endloop
  endfacet
  facet normal -0.9079593845004517 0.419058177461747 0.0
      outer loop
          vertex 2.9000000000000004 3.7 0.01
          vertex 2.3000000000000003 2.4000000000000004 1
          vertex 2.9000000000000004 3.7 1
      endloop
  endfacet
endsolid obstacle
