solid obstacle
  facet normal 0.0 0.0 -1.0
      outer loop
          vertex 2.7 4.5 0.01
          vertex 1.4000000000000001 3.7 0.01
          vertex 1.1 3.7 0.01
      endloop
  endfacet
  facet normal 0.0 0.0 1.0
      outer loop
          vertex 2.7 4.5 1
          vertex 1.1 3.7 1
          vertex 1.4000000000000001 3.7 1
      endloop
  endfacet
  facet normal -0.4472135954999578 0.894427190999916 0.0
      outer loop
          vertex 2.7 4.5 0.01
          vertex 1.1 3.7 0.01
          vertex 1.1 3.7 1
      endloop
  endfacet
  facet normal -0.4472135954999578 0.894427190999916 0.0
      outer loop
          vertex 2.7 4.5 0.01
          vertex 1.1 3.7 1
          vertex 2.7 4.5 1
      endloop
  endfacet
  facet normal 0.0 -1.0 0.0
      outer loop
          vertex 1.1 3.7 0.01
          vertex 1.4000000000000001 3.7 0.01
          vertex 1.4000000000000001 3.7 1
      endloop
  endfacet
  facet normal 0.0 -1.0 0.0
      outer loop
          vertex 1.1 3.7 0.01
          vertex 1.4000000000000001 3.7 1
          vertex 1.1 3.7 1
      endloop
  endfacet
  facet normal 0.5240974256643346 -0.851658316704544 0.0
      outer loop
          vertex 1.4000000000000001 3.7 0.01
          vertex 2.7 4.5 0.01
          vertex 2.7 4.5 1
      endloop
  endfacet
  facet normal 0.5240974256643346 -0.851658316704544 0.0
      outer loop
          vertex 1.4000000000000001 3.7 0.01
          vertex 2.7 4.5 1
          vertex 1.4000000000000001 3.7 1
      endloop
  endfacet
endsolid obstacle
