solid obstacle
  facet normal 0.0 0.0 -1.0
      outer loop
          vertex 0.4 1.5 0.01
          vertex 0.6000000000000001 1.9000000000000001 0.01
          vertex 0.8 1.5 0.01
      endloop
  endfacet
  facet normal 0.0 0.0 -1.0
      outer loop
          vertex 0.4 1.5 0.01
          vertex 0.4 1.8 0.01
          vertex 0.6000000000000001 1.9000000000000001 0.01
      endloop
  endfacet
  facet normal 0.0 0.0 1.0
      outer loop
          vertex 0.4 1.5 1
          vertex 0.8 1.5 1
          vertex 0.6000000000000001 1.9000000000000001 1
      endloop
  endfacet
  facet normal 0.0 0.0 1.0
      outer loop
          vertex 0.4 1.5 1
          vertex 0.6000000000000001 1.9000000000000001 1
          vertex 0.4 1.8 1
      endloop
  endfacet
  facet normal 0.0 -1.0 0.0
      outer loop
          vertex 0.4 1.5 0.01
          vertex 0.8 1.5 0.01
          vertex 0.8 1.5 1
      endloop
  endfacet
  facet normal 0.0 -1.0 0.0
      outer loop
          vertex 0.4 1.5 0.01
          vertex 0.8 1.5 1
          vertex 0.4 1.5 1
      endloop
  endfacet
  facet normal 0.894427190999916 0.4472135954999577 0.0
      outer loop
          vertex 0.8 1.5 0.01
          vertex 0.6000000000000001 1.9000000000000001 0.01
          vertex 0.6000000000000001 1.9000000000000001 1
      endloop
  endfacet
  facet normal 0.894427190999916 0.4472135954999577 -0.0
      outer loop
          vertex 0.8 1.5 0.01
          vertex 0.6000000000000001 1.9000000000000001 1
          vertex 0.8 1.5 1
      endloop
  endfacet
  facet normal -0.44721359549995815 0.8944271909999159 0.0
      outer loop
          vertex 0.6000000000000001 1.9000000000000001 0.01
          vertex 0.4 1.8 0.01
          vertex 0.4 1.8 1
      endloop
  endfacet
  facet normal -0.44721359549995815 0.8944271909999159 0.0
      outer loop
          vertex 0.6000000000000001 1.9000000000000001 0.01
          vertex 0.4 1.8 1
          vertex 0.6000000000000001 1.9000000000000001 1
      endloop
  endfacet
  facet normal -1.0 0.0 0.0
      outer loop
          vertex 0.4 1.8 0.01
          vertex 0.4 1.5 0.01
          vertex 0.4 1.5 1
      endloop
  endfacet
  facet normal -1.0 0.0 0.0
      outer loop
          vertex 0.4 1.8 0.01
          vertex 0.4 1.5 1
          vertex 0.4 1.8 1
      endloop
  endfacet
endsolid obstacle
