solid obstacle
  facet normal -0.0 0.0 -1.0
      outer loop
          vertex 3.2 4.2 0.01
          vertex 2.4000000000000004 3.8000000000000003 0.01
          vertex 1.8 4.2 0.01
      endloop
  endfacet
  facet normal 0.0 0.0 1.0
      outer loop
          vertex 3.2 4.2 1
          vertex 1.8 4.2 1
          vertex 2.4000000000000004 3.8000000000000003 1
      endloop
  endfacet
  facet normal 0.0 1.0 0.0
      outer loop
          vertex 3.2 4.2 0.01
          vertex 1.8 4.2 0.01
          vertex 1.8 4.2 1
      endloop
  endfacet
  facet normal 0.0 1.0 -0.0
      outer loop
          vertex 3.2 4.2 0.01
          vertex 1.8 4.2 1
          vertex 3.2 4.2 1
      endloop
  endfacet
  facet normal -0.5547001962252288 -0.8320502943378438 0.0
      outer loop
          vertex 1.8 4.2 0.01
          vertex 2.4000000000000004 3.8000000000000003 0.01
          vertex 2.4000000000000004 3.8000000000000003 1
      endloop
  endfacet
  facet normal -0.5547001962252288 -0.8320502943378438 0.0
      outer loop
          vertex 1.8 4.2 0.01
          vertex 2.4000000000000004 3.8000000000000003 1
          vertex 1.8 4.2 1
      endloop
  endfacet
  facet normal 0.4472135954999579 -0.8944271909999159 0.0
      outer loop
          vertex 2.4000000000000004 3.8000000000000003 0.01
          vertex 3.2 4.2 0.01
          vertex 3.2 4.2 1
      endloop
  endfacet
  facet normal 0.4472135954999579 -0.8944271909999159 0.0
      outer loop
          vertex 2.4000000000000004 3.8000000000000003 0.01
          vertex 3.2 4.2 1
          vertex 2.4000000000000004 3.8000000000000003 1
      endloop
  endfacet
endsolid obstacle
