solid obstacle
  facet normal 0.0 0.0 -1.0
      outer loop
          vertex 2.0 0.9 0.01
          vertex 2.2 2.4000000000000004 0.01
          vertex 2.7 2.5 0.01
      endloop
  endfacet
  facet normal 0.0 0.0 1.0
      outer loop
          vertex 2.0 0.9 1
          vertex 2.7 2.5 1
          vertex 2.2 2.4000000000000004 1
      endloop
  endfacet
  facet normal 0.9161573349021891 -0.4008188340197078 0.0
      outer loop
          vertex 2.0 0.9 0.01
          vertex 2.7 2.5 0.01
          vertex 2.7 2.5 1
      endloop
  endfacet
  facet normal 0.9161573349021891 -0.4008188340197078 0.0
      outer loop
          vertex 2.0 0.9 0.01
          vertex 2.7 2.5 1
          vertex 2.0 0.9 1
      endloop
  endfacet
  facet normal -0.19611613513818338 0.9805806756909203 0.0
      outer loop
          vertex 2.7 2.5 0.01
          vertex 2.2 2.4000000000000004 0.01
          vertex 2.2 2.4000000000000004 1
      endloop
  endfacet
  facet normal -0.19611613513818338 0.9805806756909203 0.0
      outer loop
          vertex 2.7 2.5 0.01
          vertex 2.2 2.4000000000000004 1
          vertex 2.7 2.5 1
      endloop
  endfacet
  facet normal -0.9912279006826347 0.13216372009101804 0.0
      outer loop
          vertex 2.2 2.4000000000000004 0.01
          vertex 2.0 0.9 0.01
          vertex 2.0 0.9 1
      endloop
  endfacet
  facet normal -0.9912279006826347 0.13216372009101804 0.0
      outer loop
          vertex 2.2 2.4000000000000004 0.01
          vertex 2.0 0.9 1
          vertex 2.2 2.4000000000000004 1
      endloop
  endfacet
endsolid obstacle
