solid obstacle
  facet normal -0.0 0.0 -1.0
      outer loop
          vertex 1.9000000000000001 0.30000000000000004 0.01
          vertex 1.6 0.0 0.01
          vertex 1.6 0.30000000000000004 0.01
      endloop
  endfacet
  facet normal 0.0 0.0 1.0
      outer loop
          vertex 1.9000000000000001 0.30000000000000004 1
          vertex 1.6 0.30000000000000004 1
          vertex 1.6 0.0 1
      endloop
  endfacet
  facet normal 0.0 1.0 0.0
      outer loop
          vertex 1.9000000000000001 0.30000000000000004 0.01
          vertex 1.6 0.30000000000000004 0.01
          vertex 1.6 0.30000000000000004 1
      endloop
  endfacet
  facet normal 0.0 1.0 -0.0
      outer loop
          vertex 1.9000000000000001 0.30000000000000004 0.01
          vertex 1.6 0.30000000000000004 1
          vertex 1.9000000000000001 0.30000000000000004 1
      endloop
  endfacet
  facet normal -1.0 0.0 0.0
      outer loop
          vertex 1.6 0.30000000000000004 0.01
          vertex 1.6 0.0 0.01
          vertex 1.6 0.0 1
      endloop
  endfacet
  facet normal -1.0 0.0 0.0
      outer loop
          vertex 1.6 0.30000000000000004 0.01
          vertex 1.6 0.0 1
          vertex 1.6 0.30000000000000004 1
      endloop
  endfacet
  facet normal 0.7071067811865475 -0.7071067811865475 0.0
      outer loop
          vertex 1.6 0.0 0.01
          vertex 1.9000000000000001 0.30000000000000004 0.01
          vertex 1.9000000000000001 0.30000000000000004 1
      endloop
  endfacet
  facet normal 0.7071067811865475 -0.7071067811865475 0.0
      outer loop
          vertex 1.6 0.0 0.01
          vertex 1.9000000000000001 0.30000000000000004 1
          vertex 1.6 0.0 1
      endloop
  endfacet
endsolid obstacle
