solid obstacle
  facet normal 0.0 0.0 -1.0
      outer loop
          vertex 2.8000000000000003 2.9000000000000004 0.01
          vertex 3.9000000000000004 3.5 0.01
          vertex 4.0 3.0 0.01
      endloop
  endfacet
  facet normal 0.0 0.0 1.0
      outer loop
          vertex 2.8000000000000003 2.9000000000000004 1
          vertex 4.0 3.0 1
          vertex 3.9000000000000004 3.5 1
      endloop
  endfacet
  facet normal 0.08304547985373968 -0.9965457582448796 0.0
      outer loop
          vertex 2.8000000000000003 2.9000000000000004 0.01
          vertex 4.0 3.0 0.01
          vertex 4.0 3.0 1
      endloop
  endfacet
  facet normal 0.08304547985373968 -0.9965457582448796 0.0
      outer loop
          vertex 2.8000000000000003 2.9000000000000004 0.01
          vertex 4.0 3.0 1
          vertex 2.8000000000000003 2.9000000000000004 1
      endloop
  endfacet
  facet normal 0.9805806756909203 0.19611613513818338 0.0
      outer loop
          vertex 4.0 3.0 0.01
          vertex 3.9000000000000004 3.5 0.01
          vertex 3.9000000000000004 3.5 1
      endloop
  endfacet
  facet normal 0.9805806756909203 0.19611613513818338 -0.0
      outer loop
          vertex 4.0 3.0 0.01
          vertex 3.9000000000000004 3.5 1
          vertex 4.0 3.0 1
      endloop
  endfacet
  facet normal -0.4788521306805731 0.8778955729143845 0.0
      outer loop
          vertex 3.9000000000000004 3.5 0.01
          vertex 2.8000000000000003 2.9000000000000004 0.01
          vertex 2.8000000000000003 2.9000000000000004 1
      endloop
  endfacet
  facet normal -0.4788521306805731 0.8778955729143845 0.0
      outer loop
          vertex 3.9000000000000004 3.5 0.01
          vertex 2.8000000000000003 2.9000000000000004 1
          vertex 3.9000000000000004 3.5 1
      endloop
  endfacet
endsolid obstacle
