solid obstacle
  facet normal 0.0 0.0 -1.0
      outer loop
          vertex 4.0 0.30000000000000004 0.01
          vertex 4.7 2.0 0.01
          vertex 4.9 0.9 0.01
      endloop
  endfacet
  facet normal 0.0 0.0 1.0
      outer loop
          vertex 4.0 0.30000000000000004 1
          vertex 4.9 0.9 1
          vertex 4.7 2.0 1
      endloop
  endfacet
  facet normal 0.554700196225229 -0.8320502943378438 0.0
      outer loop
          vertex 4.0 0.30000000000000004 0.01
          vertex 4.9 0.9 0.01
          vertex 4.9 0.9 1
      endloop
  endfacet
  facet normal 0.554700196225229 -0.8320502943378438 0.0
      outer loop
          vertex 4.0 0.30000000000000004 0.01
          vertex 4.9 0.9 1
          vertex 4.0 0.30000000000000004 1
      endloop
  endfacet
  facet normal 0.9838699100999074 0.17888543819998334 0.0
      outer loop
          vertex 4.9 0.9 0.01
          vertex 4.7 2.0 0.01
          vertex 4.7 2.0 1
      endloop
  endfacet
  facet normal 0.9838699100999074 0.17888543819998334 -0.0
      outer loop
          vertex 4.9 0.9 0.01
          vertex 4.7 2.0 1
          vertex 4.9 0.9 1
      endloop
  endfacet
  facet normal -0.9246780984747159 0.38074980525429486 0.0
      outer loop
          vertex 4.7 2.0 0.01
          vertex 4.0 0.30000000000000004 0.01
          vertex 4.0 0.30000000000000004 1
      endloop
  endfacet
  facet normal -0.9246780984747159 0.38074980525429486 0.0
      outer loop
          vertex 4.7 2.0 0.01
          vertex 4.0 0.30000000000000004 1
          vertex 4.7 2.0 1
      endloop
  endfacet
endsolid obstacle
