solid obstacle
  facet normal 0.0 0.0 -1.0
      outer loop
          vertex 4.7 3.8000000000000003 0.01
          vertex 3.8000000000000003 3.8000000000000003 0.01
          vertex 2.8000000000000003 4.0 0.01
      endloop
  endfacet
  facet normal 0.0 0.0 1.0
      outer loop
          vertex 4.7 3.8000000000000003 1
          vertex 2.8000000000000003 4.0 1
          vertex 3.8000000000000003 3.8000000000000003 1
      endloop
  endfacet
  facet normal 0.1046847845180426 0.9945054529214061 0.0
      outer loop
          vertex 4.7 3.8000000000000003 0.01
          vertex 2.8000000000000003 4.0 0.01
          vertex 2.8000000000000003 4.0 1
      endloop
  endfacet
  facet normal 0.1046847845180426 0.9945054529214061 -0.0
      outer loop
          vertex 4.7 3.8000000000000003 0.01
          vertex 2.8000000000000003 4.0 1
          vertex 4.7 3.8000000000000003 1
      endloop
  endfacet
  facet normal -0.19611613513818382 -0.9805806756909203 0.0
      outer loop
          vertex 2.8000000000000003 4.0 0.01
          vertex 3.8000000000000003 3.8000000000000003 0.01
          vertex 3.8000000000000003 3.8000000000000003 1
      endloop
  endfacet
  facet normal -0.19611613513818382 -0.9805806756909203 0.0
      outer loop
          vertex 2.8000000000000003 4.0 0.01
          vertex 3.8000000000000003 3.8000000000000003 1
          vertex 2.8000000000000003 4.0 1
      endloop
  endfacet
  facet normal 0.0 -1.0 0.0
      outer loop
          vertex 3.8000000000000003 3.8000000000000003 0.01
          vertex 4.7 3.8000000000000003 0.01
          vertex 4.7 3.8000000000000003 1
      endloop
  endfacet
  facet normal 0.0 -1.0 0.0
      outer loop
          vertex 3.8000000000000003 3.8000000000000003 0.01
          vertex 4.7 3.8000000000000003 1
          vertex 3.8000000000000003 3.8000000000000003 1
      endloop
  endfacet
endsolid obstacle
