solid obstacle
  facet normal 0.0 0.0 -1.0
      outer loop
          vertex 1.4000000000000001 0.8 0.01
          vertex 1.2000000000000002 0.5 0.01
          vertex 1.2000000000000002 0.7000000000000001 0.01
      endloop
  endfacet
  facet normal 0.0 0.0 1.0
      outer loop
          vertex 1.4000000000000001 0.8 1
          vertex 1.2000000000000002 0.7000000000000001 1
          vertex 1.2000000000000002 0.5 1
      endloop
  endfacet
  facet normal -0.4472135954999579 0.8944271909999159 0.0
      outer loop
          vertex 1.4000000000000001 0.8 0.01
          vertex 1.2000000000000002 0.7000000000000001 0.01
          vertex 1.2000000000000002 0.7000000000000001 1
      endloop
  endfacet
  facet normal -0.4472135954999579 0.8944271909999159 0.0
      outer loop
          vertex 1.4000000000000001 0.8 0.01
          vertex 1.2000000000000002 0.7000000000000001 1
          vertex 1.4000000000000001 0.8 1
      endloop
  endfacet
  facet normal -1.0 0.0 0.0
      outer loop
          vertex 1.2000000000000002 0.7000000000000001 0.01
          vertex 1.2000000000000002 0.5 0.01
          vertex 1.2000000000000002 0.5 1
      endloop
  endfacet
  facet normal -1.0 0.0 0.0
      outer loop
          vertex 1.2000000000000002 0.7000000000000001 0.01
          vertex 1.2000000000000002 0.5 1
          vertex 1.2000000000000002 0.7000000000000001 1
      endloop
  endfacet
  facet normal 0.8320502943378438 -0.554700196225229 0.0
      outer loop
          vertex 1.2000000000000002 0.5 0.01
          vertex 1.4000000000000001 0.8 0.01
          vertex 1.4000000000000001 0.8 1
      endloop
  endfacet
  facet normal 0.8320502943378438 -0.554700196225229 0.0
      outer loop
          vertex 1.2000000000000002 0.5 0.01
          vertex 1.4000000000000001 0.8 1
          vertex 1.2000000000000002 0.5 1
      endloop
  endfacet
endsolid obstacle
