solid obstacle
  facet normal 0.0 0.0 -1.0
      outer loop
          vertex 3.2 1.1 0.01
          vertex 3.3000000000000003 2.0 0.01
          vertex 4.3 2.5 0.01
      endloop
  endfacet
  facet normal 0.0 0.0 1.0
      outer loop
          vertex 3.2 1.1 1
          vertex 4.3 2.5 1
          vertex 3.3000000000000003 2.0 1
      endloop
  endfacet
  facet normal 0.7863183388224227 -0.6178215519319035 0.0
      outer loop
          vertex 3.2 1.1 0.01
          vertex 4.3 2.5 0.01
          vertex 4.3 2.5 1
      endloop
  endfacet
  facet normal 0.7863183388224227 -0.6178215519319035 0.0
      outer loop
          vertex 3.2 1.1 0.01
          vertex 4.3 2.5 1
          vertex 3.2 1.1 1
      endloop
  endfacet
  facet normal -0.4472135954999581 0.8944271909999159 0.0
      outer loop
          vertex 4.3 2.5 0.01
          vertex 3.3000000000000003 2.0 0.01
          vertex 3.3000000000000003 2.0 1
      endloop
  endfacet
  facet normal -0.4472135954999581 0.8944271909999159 0.0
      outer loop
          vertex 4.3 2.5 0.01
          vertex 3.3000000000000003 2.0 1
          vertex 4.3 2.5 1
      endloop
  endfacet
  facet normal -0.9938837346736188 0.11043152607484664 0.0
      outer loop
          vertex 3.3000000000000003 2.0 0.01
          vertex 3.2 1.1 0.01
          vertex 3.2 1.1 1
      endloop
  endfacet
  facet normal -0.9938837346736188 0.11043152607484664 0.0
      outer loop
          vertex 3.3000000000000003 2.0 0.01
          vertex 3.2 1.1 1
          vertex 3.3000000000000003 2.0 1
      endloop
  endfacet
endsolid obstacle
