solid obstacle
  facet normal 0.0 0.0 -1.0
      outer loop
          vertex 3.7 1.7000000000000002 0.01
          vertex 4.5 2.9000000000000004 0.01
          vertex 4.7 1.2000000000000002 0.01
      endloop
  endfacet
  facet normal -0.0 0.0 1.0
      outer loop
          vertex 3.7 1.7000000000000002 1
          vertex 4.7 1.2000000000000002 1
          vertex 4.5 2.9000000000000004 1
      endloop
  endfacet
  facet normal -0.4472135954999579 -0.8944271909999159 0.0
      outer loop
          vertex 3.7 1.7000000000000002 0.01
          vertex 4.7 1.2000000000000002 0.01
          vertex 4.7 1.2000000000000002 1
      endloop
  endfacet
  facet normal -0.4472135954999579 -0.8944271909999159 0.0
      outer loop
          vertex 3.7 1.7000000000000002 0.01
          vertex 4.7 1.2000000000000002 1
          vertex 3.7 1.7000000000000002 1
      endloop
  endfacet
  facet normal 0.9931506043228762 0.1168412475673973 0.0
      outer loop
          vertex 4.7 1.2000000000000002 0.01
          vertex 4.5 2.9000000000000004 0.01
          vertex 4.5 2.9000000000000004 1
      endloop
  endfacet
  facet normal 0.9931506043228762 0.1168412475673973 -0.0
      outer loop
          vertex 4.7 1.2000000000000002 0.01
          vertex 4.5 2.9000000000000004 1
          vertex 4.7 1.2000000000000002 1
      endloop
  endfacet
  facet normal -0.8320502943378438 0.554700196225229 0.0
      outer loop
          vertex 4.5 2.9000000000000004 0.01
          vertex 3.7 1.7000000000000002 0.01
          vertex 3.7 1.7000000000000002 1
      endloop
  endfacet
  facet normal -0.8320502943378438 0.554700196225229 0.0
      outer loop
          vertex 4.5 2.9000000000000004 0.01
          vertex 3.7 1.7000000000000002 1
          vertex 4.5 2.9000000000000004 1
      endloop
  endfacet
endsolid obstacle
