solid obstacle
  facet normal 0.0 0.0 -1.0
      outer loop
          vertex 1.9000000000000001 3.8000000000000003 0.1
          vertex 2.8000000000000003 3.8000000000000003 0.1
          vertex 3.6 3.0 0.1
      endloop
  endfacet
  facet normal -0.0 0.0 1.0
      outer loop
          vertex 1.9000000000000001 3.8000000000000003 1
          vertex 3.6 3.0 1
          vertex 2.8000000000000003 3.8000000000000003 1
      endloop
  endfacet
  facet normal -0.42579703632987975 -0.9048187022009941 0.0
      outer loop
          vertex 1.9000000000000001 3.8000000000000003 0.1
          vertex 3.6 3.0 0.1
          vertex 3.6 3.0 1
      endloop
  endfacet
  facet normal -0.42579703632987975 -0.9048187022009941 0.0
      outer loop
          vertex 1.9000000000000001 3.8000000000000003 0.1
          vertex 3.6 3.0 1
          vertex 1.9000000000000001 3.8000000000000003 1
      endloop
  endfacet
  facet normal 0.7071067811865477 0.7071067811865472 0.0
      outer loop
          vertex 3.6 3.0 0.1
          vertex 2.8000000000000003 3.8000000000000003 0.1
          vertex 2.8000000000000003 3.8000000000000003 1
      endloop
  endfacet
  facet normal 0.7071067811865477 0.7071067811865472 -0.0
      outer loop
          vertex 3.6 3.0 0.1
          vertex 2.8000000000000003 3.8000000000000003 1
          vertex 3.6 3.0 1
      endloop
  endfacet
  facet normal 0.0 1.0 0.0
      outer loop
          vertex 2.8000000000000003 3.8000000000000003 0.1
          vertex 1.9000000000000001 3.8000000000000003 0.1
          vertex 1.9000000000000001 3.8000000000000003 1
      endloop
  endfacet
  facet normal 0.0 1.0 -0.0
      outer loop
          vertex 2.8000000000000003 3.8000000000000003 0.1
          vertex 1.9000000000000001 3.8000000000000003 1
          vertex 2.8000000000000003 3.8000000000000003 1
      endloop
  endfacet
endsolid obstacle
