solid obstacle
  facet normal 0.0 0.0 -1.0
      outer loop
          vertex 1.5 2.1 0.01
          vertex 2.4000000000000004 2.5 0.01
          vertex 2.9000000000000004 0.9 0.01
      endloop
  endfacet
  facet normal -0.0 0.0 1.0
      outer loop
          vertex 1.5 2.1 1
          vertex 2.9000000000000004 0.9 1
          vertex 2.4000000000000004 2.5 1
      endloop
  endfacet
  facet normal -0.6507913734559685 -0.7592566023652967 0.0
      outer loop
          vertex 1.5 2.1 0.01
          vertex 2.9000000000000004 0.9 0.01
          vertex 2.9000000000000004 0.9 1
      endloop
  endfacet
  facet normal -0.6507913734559685 -0.7592566023652967 0.0
      outer loop
          vertex 1.5 2.1 0.01
          vertex 2.9000000000000004 0.9 1
          vertex 1.5 2.1 1
      endloop
  endfacet
  facet normal 0.9544799780350298 0.2982749931359468 0.0
      outer loop
          vertex 2.9000000000000004 0.9 0.01
          vertex 2.4000000000000004 2.5 0.01
          vertex 2.4000000000000004 2.5 1
      endloop
  endfacet
  facet normal 0.9544799780350298 0.2982749931359468 -0.0
      outer loop
          vertex 2.9000000000000004 0.9 0.01
          vertex 2.4000000000000004 2.5 1
          vertex 2.9000000000000004 0.9 1
      endloop
  endfacet
  facet normal -0.4061384660534474 0.9138115486202572 0.0
      outer loop
          vertex 2.4000000000000004 2.5 0.01
          vertex 1.5 2.1 0.01
          vertex 1.5 2.1 1
      endloop
  endfacet
  facet normal -0.4061384660534474 0.9138115486202572 0.0
      outer loop
          vertex 2.4000000000000004 2.5 0.01
          vertex 1.5 2.1 1
          vertex 2.4000000000000004 2.5 1
      endloop
  endfacet
endsolid obstacle
