solid obstacle
  facet normal -0.0 0.0 -1.0
      outer loop
          vertex 1.6 0.9 0.01
          vertex 1.5 0.7000000000000001 0.01
          vertex 1.3 0.9 0.01
      endloop
  endfacet
  facet normal 0.0 0.0 1.0
      outer loop
          vertex 1.6 0.9 1
          vertex 1.3 0.9 1
          vertex 1.5 0.7000000000000001 1
      endloop
  endfacet
  facet normal 0.0 1.0 0.0
      outer loop
          vertex 1.6 0.9 0.01
          vertex 1.3 0.9 0.01
          vertex 1.3 0.9 1
      endloop
  endfacet
  facet normal 0.0 1.0 -0.0
      outer loop
          vertex 1.6 0.9 0.01
          vertex 1.3 0.9 1
          vertex 1.6 0.9 1
      endloop
  endfacet
  facet normal -0.7071067811865475 -0.7071067811865475 0.0
      outer loop
          vertex 1.3 0.9 0.01
          vertex 1.5 0.7000000000000001 0.01
          vertex 1.5 0.7000000000000001 1
      endloop
  endfacet
  facet normal -0.7071067811865475 -0.7071067811865475 0.0
      outer loop
          vertex 1.3 0.9 0.01
          vertex 1.5 0.7000000000000001 1
          vertex 1.3 0.9 1
      endloop
  endfacet
  facet normal 0.8944271909999156 -0.4472135954999583 0.0
      outer loop
          vertex 1.5 0.7000000000000001 0.01
          vertex 1.6 0.9 0.01
          vertex 1.6 0.9 1
      endloop
  endfacet
  facet normal 0.8944271909999156 -0.4472135954999583 0.0
      outer loop
          vertex 1.5 0.7000000000000001 0.01
          vertex 1.6 0.9 1
          vertex 1.5 0.7000000000000001 1
      endloop
  endfacet
endsolid obstacle
