solid obstacle
  facet normal 0.0 0.0 -1.0
      outer loop
          vertex 1.0 1.1 0.01
          vertex 1.0 1.4000000000000001 0.01
          vertex 2.7 1.0 0.01
      endloop
  endfacet
  facet normal -0.0 0.0 1.0
      outer loop
          vertex 1.0 1.1 1
          vertex 2.7 1.0 1
          vertex 1.0 1.4000000000000001 1
      endloop
  endfacet
  facet normal -0.0587220219514704 -0.998274373174996 0.0
      outer loop
          vertex 1.0 1.1 0.01
          vertex 2.7 1.0 0.01
          vertex 2.7 1.0 1
      endloop
  endfacet
  facet normal -0.0587220219514704 -0.998274373174996 0.0
      outer loop
          vertex 1.0 1.1 0.01
          vertex 2.7 1.0 1
          vertex 1.0 1.1 1
      endloop
  endfacet
  facet normal 0.22903933372554736 0.9734171683335759 0.0
      outer loop
          vertex 2.7 1.0 0.01
          vertex 1.0 1.4000000000000001 0.01
          vertex 1.0 1.4000000000000001 1
      endloop
  endfacet
  facet normal 0.22903933372554736 0.9734171683335759 -0.0
      outer loop
          vertex 2.7 1.0 0.01
          vertex 1.0 1.4000000000000001 1
          vertex 2.7 1.0 1
      endloop
  endfacet
  facet normal -1.0 0.0 0.0
      outer loop
          vertex 1.0 1.4000000000000001 0.01
          vertex 1.0 1.1 0.01
          vertex 1.0 1.1 1
      endloop
  endfacet
  facet normal -1.0 0.0 0.0
      outer loop
          vertex 1.0 1.4000000000000001 0.01
          vertex 1.0 1.1 1
          vertex 1.0 1.4000000000000001 1
      endloop
  endfacet
endsolid obstacle
