solid obstacle
  facet normal -0.0 0.0 -1.0
      outer loop
          vertex 4.9 1.5 0.1
          vertex 4.5 1.1 0.1
          vertex 4.5 2.6 0.1
      endloop
  endfacet
  facet normal 0.0 0.0 1.0
      outer loop
          vertex 4.9 1.5 1
          vertex 4.5 2.6 1
          vertex 4.5 1.1 1
      endloop
  endfacet
  facet normal 0.939793423488437 0.34174306308670466 0.0
      outer loop
          vertex 4.9 1.5 0.1
          vertex 4.5 2.6 0.1
          vertex 4.5 2.6 1
      endloop
  endfacet
  facet normal 0.939793423488437 0.34174306308670466 -0.0
      outer loop
          vertex 4.9 1.5 0.1
          vertex 4.5 2.6 1
          vertex 4.9 1.5 1
      endloop
  endfacet
  facet normal -1.0 0.0 0.0
      outer loop
          vertex 4.5 2.6 0.1
          vertex 4.5 1.1 0.1
          vertex 4.5 1.1 1
      endloop
  endfacet
  facet normal -1.0 0.0 0.0
      outer loop
          vertex 4.5 2.6 0.1
          vertex 4.5 1.1 1
          vertex 4.5 2.6 1
      endloop
  endfacet
  facet normal 0.7071067811865471 -0.7071067811865479 0.0
      outer loop
          vertex 4.5 1.1 0.1
          vertex 4.9 1.5 0.1
          vertex 4.9 1.5 1
      endloop
  endfacet
  facet normal 0.7071067811865471 -0.7071067811865479 0.0
      outer loop
          vertex 4.5 1.1 0.1
          vertex 4.9 1.5 1
          vertex 4.5 1.1 1
      endloop
  endfacet
endsolid obstacle
