solid obstacle
  facet normal 0.0 -0.0 -1.0
      outer loop
          vertex 0.8 1.0 0.01
          vertex 1.1 0.9 0.01
          vertex 0.7000000000000001 0.6000000000000001 0.01
      endloop
  endfacet
  facet normal 0.0 0.0 -1.0
      outer loop
          vertex 0.8 1.0 0.01
          vertex 1.2000000000000002 1.1 0.01
          vertex 1.1 0.9 0.01
      endloop
  endfacet
  facet normal 0.0 0.0 1.0
      outer loop
          vertex 0.8 1.0 1
          vertex 0.7000000000000001 0.6000000000000001 1
          vertex 1.1 0.9 1
      endloop
  endfacet
  facet normal -0.0 0.0 1.0
      outer loop
          vertex 0.8 1.0 1
          vertex 1.1 0.9 1
          vertex 1.2000000000000002 1.1 1
      endloop
  endfacet
  facet normal -0.9701425001453319 0.24253562503633297 0.0
      outer loop
          vertex 0.8 1.0 0.01
          vertex 0.7000000000000001 0.6000000000000001 0.01
          vertex 0.7000000000000001 0.6000000000000001 1
      endloop
  endfacet
  facet normal -0.9701425001453319 0.24253562503633297 0.0
      outer loop
          vertex 0.8 1.0 0.01
          vertex 0.7000000000000001 0.6000000000000001 1
          vertex 0.8 1.0 1
      endloop
  endfacet
  facet normal 0.6 -0.8000000000000002 0.0
      outer loop
          vertex 0.7000000000000001 0.6000000000000001 0.01
          vertex 1.1 0.9 0.01
          vertex 1.1 0.9 1
      endloop
  endfacet
  facet normal 0.6 -0.8000000000000002 0.0
      outer loop
          vertex 0.7000000000000001 0.6000000000000001 0.01
          vertex 1.1 0.9 1
          vertex 0.7000000000000001 0.6000000000000001 1
      endloop
  endfacet
  facet normal 0.8944271909999159 -0.44721359549995815 0.0
      outer loop
          vertex 1.1 0.9 0.01
          vertex 1.2000000000000002 1.1 0.01
          vertex 1.2000000000000002 1.1 1
      endloop
  endfacet
  facet normal 0.8944271909999159 -0.44721359549995815 0.0
      outer loop
          vertex 1.1 0.9 0.01
          vertex 1.2000000000000002 1.1 1
          vertex 1.1 0.9 1
      endloop
  endfacet
  facet normal -0.2425356250363331 0.9701425001453319 0.0
      outer loop
          vertex 1.2000000000000002 1.1 0.01
          vertex 0.8 1.0 0.01
          vertex 0.8 1.0 1
      endloop
  endfacet
  facet normal -0.2425356250363331 0.9701425001453319 0.0
      outer loop
          vertex 1.2000000000000002 1.1 0.01
          vertex 0.8 1.0 1
          vertex 1.2000000000000002 1.1 1
      endloop
  endfacet
endsolid obstacle
