solid obstacle
  facet normal 0.0 0.0 -1.0
      outer loop
          vertex 2.6 2.6 0.01
          vertex 2.7 3.7 0.01
          vertex 3.3000000000000003 3.7 0.01
      endloop
  endfacet
  facet normal 0.0 0.0 1.0
      outer loop
          vertex 2.6 2.6 1
          vertex 3.3000000000000003 3.7 1
          vertex 2.7 3.7 1
      endloop
  endfacet
  facet normal 0.8436614877321075 -0.5368754921931594 0.0
      outer loop
          vertex 2.6 2.6 0.01
          vertex 3.3000000000000003 3.7 0.01
          vertex 3.3000000000000003 3.7 1
      endloop
  endfacet
  facet normal 0.8436614877321075 -0.5368754921931594 0.0
      outer loop
          vertex 2.6 2.6 0.01
          vertex 3.3000000000000003 3.7 1
          vertex 2.6 2.6 1
      endloop
  endfacet
  facet normal 0.0 1.0 0.0
      outer loop
          vertex 3.3000000000000003 3.7 0.01
          vertex 2.7 3.7 0.01
          vertex 2.7 3.7 1
      endloop
  endfacet
  facet normal 0.0 1.0 -0.0
      outer loop
          vertex 3.3000000000000003 3.7 0.01
          vertex 2.7 3.7 1
          vertex 3.3000000000000003 3.7 1
      endloop
  endfacet
  facet normal -0.9958932064677037 0.09053574604251861 0.0
      outer loop
          vertex 2.7 3.7 0.01
          vertex 2.6 2.6 0.01
          vertex 2.6 2.6 1
      endloop
  endfacet
  facet normal -0.9958932064677037 0.09053574604251861 0.0
      outer loop
          vertex 2.7 3.7 0.01
          vertex 2.6 2.6 1
          vertex 2.7 3.7 1
      endloop
  endfacet
endsolid obstacle
