solid obstacle
  facet normal 0.0 0.0 -1.0
      outer loop
          vertex 1.6 2.3000000000000003 0.01
          vertex 0.4 0.8 0.01
          vertex 0.1 1.7000000000000002 0.01
      endloop
  endfacet
  facet normal 0.0 0.0 1.0
      outer loop
          vertex 1.6 2.3000000000000003 1
          vertex 0.1 1.7000000000000002 1
          vertex 0.4 0.8 1
      endloop
  endfacet
  facet normal -0.3713906763541038 0.9284766908852593 0.0
      outer loop
          vertex 1.6 2.3000000000000003 0.01
          vertex 0.1 1.7000000000000002 0.01
          vertex 0.1 1.7000000000000002 1
      endloop
  endfacet
  facet normal -0.3713906763541038 0.9284766908852593 0.0
      outer loop
          vertex 1.6 2.3000000000000003 0.01
          vertex 0.1 1.7000000000000002 1
          vertex 1.6 2.3000000000000003 1
      endloop
  endfacet
  facet normal -0.9486832980505139 -0.31622776601683794 0.0
      outer loop
          vertex 0.1 1.7000000000000002 0.01
          vertex 0.4 0.8 0.01
          vertex 0.4 0.8 1
      endloop
  endfacet
  facet normal -0.9486832980505139 -0.31622776601683794 0.0
      outer loop
          vertex 0.1 1.7000000000000002 0.01
          vertex 0.4 0.8 1
          vertex 0.1 1.7000000000000002 1
      endloop
  endfacet
  facet normal 0.7808688094430303 -0.6246950475544243 0.0
      outer loop
          vertex 0.4 0.8 0.01
          vertex 1.6 2.3000000000000003 0.01
          vertex 1.6 2.3000000000000003 1
      endloop
  endfacet
  facet normal 0.7808688094430303 -0.6246950475544243 0.0
      outer loop
          vertex 0.4 0.8 0.01
          vertex 1.6 2.3000000000000003 1
          vertex 0.4 0.8 1
      endloop
  endfacet
endsolid obstacle
