solid obstacle
  facet normal 0.0 0.0 -1.0
      outer loop
          vertex 3.2 4.4 0.1
          vertex 2.7 2.9000000000000004 0.1
          vertex 1.9000000000000001 3.2 0.1
      endloop
  endfacet
  facet normal 0.0 0.0 1.0
      outer loop
          vertex 3.2 4.4 1
          vertex 1.9000000000000001 3.2 1
          vertex 2.7 2.9000000000000004 1
      endloop
  endfacet
  facet normal -0.6782801027330657 0.7348034446274878 0.0
      outer loop
          vertex 3.2 4.4 0.1
          vertex 1.9000000000000001 3.2 0.1
          vertex 1.9000000000000001 3.2 1
      endloop
  endfacet
  facet normal -0.6782801027330657 0.7348034446274878 0.0
      outer loop
          vertex 3.2 4.4 0.1
          vertex 1.9000000000000001 3.2 1
          vertex 3.2 4.4 1
      endloop
  endfacet
  facet normal -0.3511234415883915 -0.9363291775690447 0.0
      outer loop
          vertex 1.9000000000000001 3.2 0.1
          vertex 2.7 2.9000000000000004 0.1
          vertex 2.7 2.9000000000000004 1
      endloop
  endfacet
  facet normal -0.3511234415883915 -0.9363291775690447 0.0
      outer loop
          vertex 1.9000000000000001 3.2 0.1
          vertex 2.7 2.9000000000000004 1
          vertex 1.9000000000000001 3.2 1
      endloop
  endfacet
  facet normal 0.9486832980505138 -0.31622776601683794 0.0
      outer loop
          vertex 2.7 2.9000000000000004 0.1
          vertex 3.2 4.4 0.1
          vertex 3.2 4.4 1
      endloop
  endfacet
  facet normal 0.9486832980505138 -0.31622776601683794 0.0
      outer loop
          vertex 2.7 2.9000000000000004 0.1
          vertex 3.2 4.4 1
          vertex 2.7 2.9000000000000004 1
      endloop
  endfacet
endsolid obstacle
