solid obstacle
  facet normal -0.0 0.0 -1.0
      outer loop
          vertex 0.7000000000000001 1.3 0.01
          vertex 0.6000000000000001 1.2000000000000002 0.01
          vertex 0.30000000000000004 1.5 0.01
      endloop
  endfacet
  facet normal 0.0 0.0 1.0
      outer loop
          vertex 0.7000000000000001 1.3 1
          vertex 0.30000000000000004 1.5 1
          vertex 0.6000000000000001 1.2000000000000002 1
      endloop
  endfacet
  facet normal 0.4472135954999578 0.894427190999916 0.0
      outer loop
          vertex 0.7000000000000001 1.3 0.01
          vertex 0.30000000000000004 1.5 0.01
          vertex 0.30000000000000004 1.5 1
      endloop
  endfacet
  facet normal 0.4472135954999578 0.894427190999916 -0.0
      outer loop
          vertex 0.7000000000000001 1.3 0.01
          vertex 0.30000000000000004 1.5 1
          vertex 0.7000000000000001 1.3 1
      endloop
  endfacet
  facet normal -0.7071067811865472 -0.7071067811865478 0.0
      outer loop
          vertex 0.30000000000000004 1.5 0.01
          vertex 0.6000000000000001 1.2000000000000002 0.01
          vertex 0.6000000000000001 1.2000000000000002 1
      endloop
  endfacet
  facet normal -0.7071067811865472 -0.7071067811865478 0.0
      outer loop
          vertex 0.30000000000000004 1.5 0.01
          vertex 0.6000000000000001 1.2000000000000002 1
          vertex 0.30000000000000004 1.5 1
      endloop
  endfacet
  facet normal 0.7071067811865471 -0.7071067811865479 0.0
      outer loop
          vertex 0.6000000000000001 1.2000000000000002 0.01
          vertex 0.7000000000000001 1.3 0.01
          vertex 0.7000000000000001 1.3 1
      endloop
  endfacet
  facet normal 0.7071067811865471 -0.7071067811865479 0.0
      outer loop
          vertex 0.6000000000000001 1.2000000000000002 0.01
          vertex 0.7000000000000001 1.3 1
          vertex 0.6000000000000001 1.2000000000000002 1
      endloop
  endfacet
endsolid obstacle
