solid obstacle
  facet normal 0.0 0.0 -1.0
      outer loop
          vertex 0.6000000000000001 2.5 0.1
          vertex 1.1 2.8000000000000003 0.1
          vertex 2.3000000000000003 3.4000000000000004 0.1
      endloop
  endfacet
  facet normal 0.0 0.0 1.0
      outer loop
          vertex 0.6000000000000001 2.5 1
          vertex 2.3000000000000003 3.4000000000000004 1
          vertex 1.1 2.8000000000000003 1
      endloop
  endfacet
  facet normal 0.4678877204190328 -0.8837879163470618 0.0
      outer loop
          vertex 0.6000000000000001 2.5 0.1
          vertex 2.3000000000000003 3.4000000000000004 0.1
          vertex 2.3000000000000003 3.4000000000000004 1
      endloop
  endfacet
  facet normal 0.4678877204190328 -0.8837879163470618 0.0
      outer loop
          vertex 0.6000000000000001 2.5 0.1
          vertex 2.3000000000000003 3.4000000000000004 1
          vertex 0.6000000000000001 2.5 1
      endloop
  endfacet
  facet normal -0.447213595499958 0.894427190999916 0.0
      outer loop
          vertex 2.3000000000000003 3.4000000000000004 0.1
          vertex 1.1 2.8000000000000003 0.1
          vertex 1.1 2.8000000000000003 1
      endloop
  endfacet
  facet normal -0.447213595499958 0.894427190999916 0.0
      outer loop
          vertex 2.3000000000000003 3.4000000000000004 0.1
          vertex 1.1 2.8000000000000003 1
          vertex 2.3000000000000003 3.4000000000000004 1
      endloop
  endfacet
  facet normal -0.5144957554275269 0.857492925712544 0.0
      outer loop
          vertex 1.1 2.8000000000000003 0.1
          vertex 0.6000000000000001 2.5 0.1
          vertex 0.6000000000000001 2.5 1
      endloop
  endfacet
  facet normal -0.5144957554275269 0.857492925712544 0.0
      outer loop
          vertex 1.1 2.8000000000000003 0.1
          vertex 0.6000000000000001 2.5 1
          vertex 1.1 2.8000000000000003 1
      endloop
  endfacet
endsolid obstacle
