solid obstacle
  facet normal 0.0 0.0 -1.0
      outer loop
          vertex 1.3 1.8 0.1
          vertex 1.8 2.5 0.1
          vertex 2.5 1.0 0.1
      endloop
  endfacet
  facet normal -0.0 0.0 1.0
      outer loop
          vertex 1.3 1.8 1
          vertex 2.5 1.0 1
          vertex 1.8 2.5 1
      endloop
  endfacet
  facet normal -0.5547001962252291 -0.8320502943378437 0.0
      outer loop
          vertex 1.3 1.8 0.1
          vertex 2.5 1.0 0.1
          vertex 2.5 1.0 1
      endloop
  endfacet
  facet normal -0.5547001962252291 -0.8320502943378437 0.0
      outer loop
          vertex 1.3 1.8 0.1
          vertex 2.5 1.0 1
          vertex 1.3 1.8 1
      endloop
  endfacet
  facet normal 0.9061831399952655 0.42288546533112387 0.0
      outer loop
          vertex 2.5 1.0 0.1
          vertex 1.8 2.5 0.1
          vertex 1.8 2.5 1
      endloop
  endfacet
  facet normal 0.9061831399952655 0.42288546533112387 -0.0
      outer loop
          vertex 2.5 1.0 0.1
          vertex 1.8 2.5 1
          vertex 2.5 1.0 1
      endloop
  endfacet
  facet normal -0.8137334712067349 0.5812381937190964 0.0
      outer loop
          vertex 1.8 2.5 0.1
          vertex 1.3 1.8 0.1
          vertex 1.3 1.8 1
      endloop
  endfacet
  facet normal -0.8137334712067349 0.5812381937190964 0.0
      outer loop
          vertex 1.8 2.5 0.1
          vertex 1.3 1.8 1
          vertex 1.8 2.5 1
      endloop
  endfacet
endsolid obstacle
