solid obstacle
  facet normal 0.0 0.0 -1.0
      outer loop
          vertex 3.6 4.7 0.1
          vertex 3.4000000000000004 4.0 0.1
          vertex 2.9000000000000004 4.4 0.1
      endloop
  endfacet
  facet normal 0.0 -0.0 -1.0
      outer loop
          vertex 3.6 4.7 0.1
          vertex 3.7 4.2 0.1
          vertex 3.4000000000000004 4.0 0.1
      endloop
  endfacet
  facet normal 0.0 0.0 1.0
      outer loop
          vertex 3.6 4.7 1
          vertex 2.9000000000000004 4.4 1
          vertex 3.4000000000000004 4.0 1
      endloop
  endfacet
  facet normal 0.0 0.0 1.0
      outer loop
          vertex 3.6 4.7 1
          vertex 3.4000000000000004 4.0 1
          vertex 3.7 4.2 1
      endloop
  endfacet
  facet normal -0.39391929857916763 0.9191450300180579 0.0
      outer loop
          vertex 3.6 4.7 0.1
          vertex 2.9000000000000004 4.4 0.1
          vertex 2.9000000000000004 4.4 1
      endloop
  endfacet
  facet normal -0.39391929857916763 0.9191450300180579 0.0
      outer loop
          vertex 3.6 4.7 0.1
          vertex 2.9000000000000004 4.4 1
          vertex 3.6 4.7 1
      endloop
  endfacet
  facet normal -0.6246950475544245 -0.7808688094430299 0.0
      outer loop
          vertex 2.9000000000000004 4.4 0.1
          vertex 3.4000000000000004 4.0 0.1
          vertex 3.4000000000000004 4.0 1
      endloop
  endfacet
  facet normal -0.6246950475544245 -0.7808688094430299 0.0
      outer loop
          vertex 2.9000000000000004 4.4 0.1
          vertex 3.4000000000000004 4.0 1
          vertex 2.9000000000000004 4.4 1
      endloop
  endfacet
  facet normal 0.5547001962252297 -0.8320502943378434 0.0
      outer loop
          vertex 3.4000000000000004 4.0 0.1
          vertex 3.7 4.2 0.1
          vertex 3.7 4.2 1
      endloop
  endfacet
  facet normal 0.5547001962252297 -0.8320502943378434 0.0
      outer loop
          vertex 3.4000000000000004 4.0 0.1
          vertex 3.7 4.2 1
          vertex 3.4000000000000004 4.0 1
      endloop
  endfacet
  facet normal 0.9805806756909201 0.19611613513818418 0.0
      outer loop
          vertex 3.7 4.2 0.1
          vertex 3.6 4.7 0.1
          vertex 3.6 4.7 1
      endloop
  endfacet
  facet normal 0.9805806756909201 0.19611613513818418 -0.0
      outer loop
          vertex 3.7 4.2 0.1
          vertex 3.6 4.7 1
          vertex 3.7 4.2 1
      endloop
  endfacet
endsolid obstacle
