solid obstacle
  facet normal 0.0 0.0 -1.0
      outer loop
          vertex 0.4 0.7000000000000001 0.01
          vertex 0.6000000000000001 0.9 0.01
          vertex 0.7000000000000001 0.7000000000000001 0.01
      endloop
  endfacet
  facet normal 0.0 0.0 1.0
      outer loop
          vertex 0.4 0.7000000000000001 1
          vertex 0.7000000000000001 0.7000000000000001 1
          vertex 0.6000000000000001 0.9 1
      endloop
  endfacet
  facet normal 0.0 -1.0 0.0
      outer loop
          vertex 0.4 0.7000000000000001 0.01
          vertex 0.7000000000000001 0.7000000000000001 0.01
          vertex 0.7000000000000001 0.7000000000000001 1
      endloop
  endfacet
  facet normal 0.0 -1.0 0.0
      outer loop
          vertex 0.4 0.7000000000000001 0.01
          vertex 0.7000000000000001 0.7000000000000001 1
          vertex 0.4 0.7000000000000001 1
      endloop
  endfacet
  facet normal 0.8944271909999159 0.4472135954999579 0.0
      outer loop
          vertex 0.7000000000000001 0.7000000000000001 0.01
          vertex 0.6000000000000001 0.9 0.01
          vertex 0.6000000000000001 0.9 1
      endloop
  endfacet
  facet normal 0.8944271909999159 0.4472135954999579 -0.0
      outer loop
          vertex 0.7000000000000001 0.7000000000000001 0.01
          vertex 0.6000000000000001 0.9 1
          vertex 0.7000000000000001 0.7000000000000001 1
      endloop
  endfacet
  facet normal -0.7071067811865474 0.7071067811865477 0.0
      outer loop
          vertex 0.6000000000000001 0.9 0.01
          vertex 0.4 0.7000000000000001 0.01
          vertex 0.4 0.7000000000000001 1
      endloop
  endfacet
  facet normal -0.7071067811865474 0.7071067811865477 0.0
      outer loop
          vertex 0.6000000000000001 0.9 0.01
          vertex 0.4 0.7000000000000001 1
          vertex 0.6000000000000001 0.9 1
      endloop
  endfacet
endsolid obstacle
