solid obstacle
  facet normal 0.0 0.0 -1.0
      outer loop
          vertex 2.0 2.1 0.01
          vertex 1.0 0.9 0.01
          vertex 0.6000000000000001 0.8 0.01
      endloop
  endfacet
  facet normal 0.0 0.0 1.0
      outer loop
          vertex 2.0 2.1 1
          vertex 0.6000000000000001 0.8 1
          vertex 1.0 0.9 1
      endloop
  endfacet
  facet normal -0.6804510993672778 0.7327934916262991 0.0
      outer loop
          vertex 2.0 2.1 0.01
          vertex 0.6000000000000001 0.8 0.01
          vertex 0.6000000000000001 0.8 1
      endloop
  endfacet
  facet normal -0.6804510993672778 0.7327934916262991 0.0
      outer loop
          vertex 2.0 2.1 0.01
          vertex 0.6000000000000001 0.8 1
          vertex 2.0 2.1 1
      endloop
  endfacet
  facet normal 0.24253562503633297 -0.9701425001453319 0.0
      outer loop
          vertex 0.6000000000000001 0.8 0.01
          vertex 1.0 0.9 0.01
          vertex 1.0 0.9 1
      endloop
  endfacet
  facet normal 0.24253562503633297 -0.9701425001453319 0.0
      outer loop
          vertex 0.6000000000000001 0.8 0.01
          vertex 1.0 0.9 1
          vertex 0.6000000000000001 0.8 1
      endloop
  endfacet
  facet normal 0.768221279597376 -0.6401843996644798 0.0
      outer loop
          vertex 1.0 0.9 0.01
          vertex 2.0 2.1 0.01
          vertex 2.0 2.1 1
      endloop
  endfacet
  facet normal 0.768221279597376 -0.6401843996644798 0.0
      outer loop
          vertex 1.0 0.9 0.01
          vertex 2.0 2.1 1
          vertex 1.0 0.9 1
      endloop
  endfacet
endsolid obstacle
