solid obstacle
  facet normal 0.0 0.0 -1.0
      outer loop
          vertex 2.3000000000000003 1.3 0.01
          vertex 3.0 1.1 0.01
          vertex 3.4000000000000004 0.30000000000000004 0.01
      endloop
  endfacet
  facet normal 0.0 0.0 1.0
      outer loop
          vertex 2.3000000000000003 1.3 1
          vertex 3.4000000000000004 0.30000000000000004 1
          vertex 3.0 1.1 1
      endloop
  endfacet
  facet normal -0.6726727939963124 -0.7399400733959437 0.0
      outer loop
          vertex 2.3000000000000003 1.3 0.01
          vertex 3.4000000000000004 0.30000000000000004 0.01
          vertex 3.4000000000000004 0.30000000000000004 1
      endloop
  endfacet
  facet normal -0.6726727939963124 -0.7399400733959437 0.0
      outer loop
          vertex 2.3000000000000003 1.3 0.01
          vertex 3.4000000000000004 0.30000000000000004 1
          vertex 2.3000000000000003 1.3 1
      endloop
  endfacet
  facet normal 0.8944271909999157 0.4472135954999582 0.0
      outer loop
          vertex 3.4000000000000004 0.30000000000000004 0.01
          vertex 3.0 1.1 0.01
          vertex 3.0 1.1 1
      endloop
  endfacet
  facet normal 0.8944271909999157 0.4472135954999582 -0.0
      outer loop
          vertex 3.4000000000000004 0.30000000000000004 0.01
          vertex 3.0 1.1 1
          vertex 3.4000000000000004 0.30000000000000004 1
      endloop
  endfacet
  facet normal 0.27472112789737807 0.961523947640823 0.0
      outer loop
          vertex 3.0 1.1 0.01
          vertex 2.3000000000000003 1.3 0.01
          vertex 2.3000000000000003 1.3 1
      endloop
  endfacet
  facet normal 0.27472112789737807 0.961523947640823 -0.0
      outer loop
          vertex 3.0 1.1 0.01
          vertex 2.3000000000000003 1.3 1
          vertex 3.0 1.1 1
      endloop
  endfacet
endsolid obstacle
