solid obstacle
  facet normal 0.0 0.0 -1.0
      outer loop
          vertex 0.30000000000000004 2.7 0.01
          vertex 0.9 3.8000000000000003 0.01
          vertex 1.7000000000000002 2.4000000000000004 0.01
      endloop
  endfacet
  facet normal -0.0 0.0 1.0
      outer loop
          vertex 0.30000000000000004 2.7 1
          vertex 1.7000000000000002 2.4000000000000004 1
          vertex 0.9 3.8000000000000003 1
      endloop
  endfacet
  facet normal -0.2095290887308733 -0.9778024140774095 0.0
      outer loop
          vertex 0.30000000000000004 2.7 0.01
          vertex 1.7000000000000002 2.4000000000000004 0.01
          vertex 1.7000000000000002 2.4000000000000004 1
      endloop
  endfacet
  facet normal -0.2095290887308733 -0.9778024140774095 0.0
      outer loop
          vertex 0.30000000000000004 2.7 0.01
          vertex 1.7000000000000002 2.4000000000000004 1
          vertex 0.30000000000000004 2.7 1
      endloop
  endfacet
  facet normal 0.8682431421244591 0.4961389383568339 0.0
      outer loop
          vertex 1.7000000000000002 2.4000000000000004 0.01
          vertex 0.9 3.8000000000000003 0.01
          vertex 0.9 3.8000000000000003 1
      endloop
  endfacet
  facet normal 0.8682431421244591 0.4961389383568339 -0.0
      outer loop
          vertex 1.7000000000000002 2.4000000000000004 0.01
          vertex 0.9 3.8000000000000003 1
          vertex 1.7000000000000002 2.4000000000000004 1
      endloop
  endfacet
  facet normal -0.8778955729143844 0.47885213068057325 0.0
      outer loop
          vertex 0.9 3.8000000000000003 0.01
          vertex 0.30000000000000004 2.7 0.01
          vertex 0.30000000000000004 2.7 1
      endloop
  endfacet
  facet normal -0.8778955729143844 0.47885213068057325 0.0
      outer loop
          vertex 0.9 3.8000000000000003 0.01
          vertex 0.30000000000000004 2.7 1
          vertex 0.9 3.8000000000000003 1
      endloop
  endfacet
endsolid obstacle
