solid obstacle
  facet normal 0.0 0.0 -1.0
      outer loop
          vertex 1.0 1.4000000000000001 0.1
          vertex 1.0 1.7000000000000002 0.1
          vertex 1.4000000000000001 1.2000000000000002 0.1
      endloop
  endfacet
  facet normal -0.0 0.0 1.0
      outer loop
          vertex 1.0 1.4000000000000001 1
          vertex 1.4000000000000001 1.2000000000000002 1
          vertex 1.0 1.7000000000000002 1
      endloop
  endfacet
  facet normal -0.44721359549995776 -0.8944271909999161 0.0
      outer loop
          vertex 1.0 1.4000000000000001 0.1
          vertex 1.4000000000000001 1.2000000000000002 0.1
          vertex 1.4000000000000001 1.2000000000000002 1
      endloop
  endfacet
  facet normal -0.44721359549995776 -0.8944271909999161 0.0
      outer loop
          vertex 1.0 1.4000000000000001 0.1
          vertex 1.4000000000000001 1.2000000000000002 1
          vertex 1.0 1.4000000000000001 1
      endloop
  endfacet
  facet normal 0.7808688094430303 0.6246950475544244 0.0
      outer loop
          vertex 1.4000000000000001 1.2000000000000002 0.1
          vertex 1.0 1.7000000000000002 0.1
          vertex 1.0 1.7000000000000002 1
      endloop
  endfacet
  facet normal 0.7808688094430303 0.6246950475544244 -0.0
      outer loop
          vertex 1.4000000000000001 1.2000000000000002 0.1
          vertex 1.0 1.7000000000000002 1
          vertex 1.4000000000000001 1.2000000000000002 1
      endloop
  endfacet
  facet normal -1.0 0.0 0.0
      outer loop
          vertex 1.0 1.7000000000000002 0.1
          vertex 1.0 1.4000000000000001 0.1
          vertex 1.0 1.4000000000000001 1
      endloop
  endfacet
  facet normal -1.0 0.0 0.0
      outer loop
          vertex 1.0 1.7000000000000002 0.1
          vertex 1.0 1.4000000000000001 1
          vertex 1.0 1.7000000000000002 1
      endloop
  endfacet
endsolid obstacle
