solid obstacle
  facet normal 0.0 0.0 -1.0
      outer loop
          vertex 2.3000000000000003 3.2 0.1
          vertex 3.8000000000000003 4.2 0.1
          vertex 3.8000000000000003 3.9000000000000004 0.1
      endloop
  endfacet
  facet normal 0.0 0.0 -1.0
      outer loop
          vertex 2.3000000000000003 3.2 0.1
          vertex 2.7 3.7 0.1
          vertex 3.8000000000000003 4.2 0.1
      endloop
  endfacet
  facet normal 0.0 0.0 1.0
      outer loop
          vertex 2.3000000000000003 3.2 1
          vertex 3.8000000000000003 3.9000000000000004 1
          vertex 3.8000000000000003 4.2 1
      endloop
  endfacet
  facet normal 0.0 0.0 1.0
      outer loop
          vertex 2.3000000000000003 3.2 1
          vertex 3.8000000000000003 4.2 1
          vertex 2.7 3.7 1
      endloop
  endfacet
  facet normal 0.422885465331124 -0.9061831399952653 0.0
      outer loop
          vertex 2.3000000000000003 3.2 0.1
          vertex 3.8000000000000003 3.9000000000000004 0.1
          vertex 3.8000000000000003 3.9000000000000004 1
      endloop
  endfacet
  facet normal 0.422885465331124 -0.9061831399952653 0.0
      outer loop
          vertex 2.3000000000000003 3.2 0.1
          vertex 3.8000000000000003 3.9000000000000004 1
          vertex 2.3000000000000003 3.2 1
      endloop
  endfacet
  facet normal 1.0 0.0 0.0
      outer loop
          vertex 3.8000000000000003 3.9000000000000004 0.1
          vertex 3.8000000000000003 4.2 0.1
          vertex 3.8000000000000003 4.2 1
      endloop
  endfacet
  facet normal 1.0 0.0 0.0
      outer loop
          vertex 3.8000000000000003 3.9000000000000004 0.1
          vertex 3.8000000000000003 4.2 1
          vertex 3.8000000000000003 3.9000000000000004 1
      endloop
  endfacet
  facet normal -0.413802944301184 0.9103664774626048 0.0
      outer loop
          vertex 3.8000000000000003 4.2 0.1
          vertex 2.7 3.7 0.1
          vertex 2.7 3.7 1
      endloop
  endfacet
  facet normal -0.413802944301184 0.9103664774626048 0.0
      outer loop
          vertex 3.8000000000000003 4.2 0.1
          vertex 2.7 3.7 1
          vertex 3.8000000000000003 4.2 1
      endloop
  endfacet
  facet normal -0.7808688094430304 0.6246950475544242 0.0
      outer loop
          vertex 2.7 3.7 0.1
          vertex 2.3000000000000003 3.2 0.1
          vertex 2.3000000000000003 3.2 1
      endloop
  endfacet
  facet normal -0.7808688094430304 0.6246950475544242 0.0
      outer loop
          vertex 2.7 3.7 0.1
          vertex 2.3000000000000003 3.2 1
          vertex 2.7 3.7 1
      endloop
  endfacet
endsolid obstacle
