solid obstacle
  facet normal 0.0 0.0 -1.0
      outer loop
          vertex 2.2 0.2 0.01
          vertex 2.3000000000000003 1.3 0.01
          vertex 3.3000000000000003 1.7000000000000002 0.01
      endloop
  endfacet
  facet normal 0.0 0.0 1.0
      outer loop
          vertex 2.2 0.2 1
          vertex 3.3000000000000003 1.7000000000000002 1
          vertex 2.3000000000000003 1.3 1
      endloop
  endfacet
  facet normal 0.8064049958557056 -0.5913636636275174 0.0
      outer loop
          vertex 2.2 0.2 0.01
          vertex 3.3000000000000003 1.7000000000000002 0.01
          vertex 3.3000000000000003 1.7000000000000002 1
      endloop
  endfacet
  facet normal 0.8064049958557056 -0.5913636636275174 0.0
      outer loop
          vertex 2.2 0.2 0.01
          vertex 3.3000000000000003 1.7000000000000002 1
          vertex 2.2 0.2 1
      endloop
  endfacet
  facet normal -0.37139067635410383 0.9284766908852593 0.0
      outer loop
          vertex 3.3000000000000003 1.7000000000000002 0.01
          vertex 2.3000000000000003 1.3 0.01
          vertex 2.3000000000000003 1.3 1
      endloop
  endfacet
  facet normal -0.37139067635410383 0.9284766908852593 0.0
      outer loop
          vertex 3.3000000000000003 1.7000000000000002 0.01
          vertex 2.3000000000000003 1.3 1
          vertex 3.3000000000000003 1.7000000000000002 1
      endloop
  endfacet
  facet normal -0.9958932064677037 0.09053574604251861 0.0
      outer loop
          vertex 2.3000000000000003 1.3 0.01
          vertex 2.2 0.2 0.01
          vertex 2.2 0.2 1
      endloop
  endfacet
  facet normal -0.9958932064677037 0.09053574604251861 0.0
      outer loop
          vertex 2.3000000000000003 1.3 0.01
          vertex 2.2 0.2 1
          vertex 2.3000000000000003 1.3 1
      endloop
  endfacet
endsolid obstacle
