solid obstacle
  facet normal 0.0 0.0 -1.0
      outer loop
          vertex 4.7 3.7 0.01
          vertex 4.0 1.9000000000000001 0.01
          vertex 3.5 3.3000000000000003 0.01
      endloop
  endfacet
  facet normal 0.0 0.0 1.0
      outer loop
          vertex 4.7 3.7 1
          vertex 3.5 3.3000000000000003 1
          vertex 4.0 1.9000000000000001 1
      endloop
  endfacet
  facet normal -0.31622776601683783 0.9486832980505139 0.0
      outer loop
          vertex 4.7 3.7 0.01
          vertex 3.5 3.3000000000000003 0.01
          vertex 3.5 3.3000000000000003 1
      endloop
  endfacet
  facet normal -0.31622776601683783 0.9486832980505139 0.0
      outer loop
          vertex 4.7 3.7 0.01
          vertex 3.5 3.3000000000000003 1
          vertex 4.7 3.7 1
      endloop
  endfacet
  facet normal -0.9417419115948376 -0.3363363969981562 0.0
      outer loop
          vertex 3.5 3.3000000000000003 0.01
          vertex 4.0 1.9000000000000001 0.01
          vertex 4.0 1.9000000000000001 1
      endloop
  endfacet
  facet normal -0.9417419115948376 -0.3363363969981562 0.0
      outer loop
          vertex 3.5 3.3000000000000003 0.01
          vertex 4.0 1.9000000000000001 1
          vertex 3.5 3.3000000000000003 1
      endloop
  endfacet
  facet normal 0.9320046715412958 -0.3624462611549485 0.0
      outer loop
          vertex 4.0 1.9000000000000001 0.01
          vertex 4.7 3.7 0.01
          vertex 4.7 3.7 1
      endloop
  endfacet
  facet normal 0.9320046715412958 -0.3624462611549485 0.0
      outer loop
          vertex 4.0 1.9000000000000001 0.01
          vertex 4.7 3.7 1
          vertex 4.0 1.9000000000000001 1
      endloop
  endfacet
endsolid obstacle
