solid obstacle
  facet normal 0.0 0.0 -1.0
      outer loop
          vertex 2.2 3.4000000000000004 0.1
          vertex 2.0 2.0 0.1
          vertex 1.3 1.8 0.1
      endloop
  endfacet
  facet normal 0.0 0.0 1.0
      outer loop
          vertex 2.2 3.4000000000000004 1
          vertex 1.3 1.8 1
          vertex 2.0 2.0 1
      endloop
  endfacet
  facet normal -0.8715755371245493 0.4902612396325589 0.0
      outer loop
          vertex 2.2 3.4000000000000004 0.1
          vertex 1.3 1.8 0.1
          vertex 1.3 1.8 1
      endloop
  endfacet
  facet normal -0.8715755371245493 0.4902612396325589 0.0
      outer loop
          vertex 2.2 3.4000000000000004 0.1
          vertex 1.3 1.8 1
          vertex 2.2 3.4000000000000004 1
      endloop
  endfacet
  facet normal 0.274721127897378 -0.9615239476408232 0.0
      outer loop
          vertex 1.3 1.8 0.1
          vertex 2.0 2.0 0.1
          vertex 2.0 2.0 1
      endloop
  endfacet
  facet normal 0.274721127897378 -0.9615239476408232 0.0
      outer loop
          vertex 1.3 1.8 0.1
          vertex 2.0 2.0 1
          vertex 1.3 1.8 1
      endloop
  endfacet
  facet normal 0.9899494936611666 -0.1414213562373096 0.0
      outer loop
          vertex 2.0 2.0 0.1
          vertex 2.2 3.4000000000000004 0.1
          vertex 2.2 3.4000000000000004 1
      endloop
  endfacet
  facet normal 0.9899494936611666 -0.1414213562373096 0.0
      outer loop
          vertex 2.0 2.0 0.1
          vertex 2.2 3.4000000000000004 1
          vertex 2.0 2.0 1
      endloop
  endfacet
endsolid obstacle
