solid obstacle
  facet normal 0.0 0.0 -1.0
      outer loop
          vertex 2.6 4.2 0.1
          vertex 2.4000000000000004 4.2 0.1
          vertex 1.8 4.6000000000000005 0.1
      endloop
  endfacet
  facet normal 0.0 0.0 1.0
      outer loop
          vertex 2.6 4.2 1
          vertex 1.8 4.6000000000000005 1
          vertex 2.4000000000000004 4.2 1
      endloop
  endfacet
  facet normal 0.4472135954999582 0.8944271909999157 0.0
      outer loop
          vertex 2.6 4.2 0.1
          vertex 1.8 4.6000000000000005 0.1
          vertex 1.8 4.6000000000000005 1
      endloop
  endfacet
  facet normal 0.4472135954999582 0.8944271909999157 -0.0
      outer loop
          vertex 2.6 4.2 0.1
          vertex 1.8 4.6000000000000005 1
          vertex 2.6 4.2 1
      endloop
  endfacet
  facet normal -0.5547001962252293 -0.8320502943378435 0.0
      outer loop
          vertex 1.8 4.6000000000000005 0.1
          vertex 2.4000000000000004 4.2 0.1
          vertex 2.4000000000000004 4.2 1
      endloop
  endfacet
  facet normal -0.5547001962252293 -0.8320502943378435 0.0
      outer loop
          vertex 1.8 4.6000000000000005 0.1
          vertex 2.4000000000000004 4.2 1
          vertex 1.8 4.6000000000000005 1
      endloop
  endfacet
  facet normal 0.0 -1.0 0.0
      outer loop
          vertex 2.4000000000000004 4.2 0.1
          vertex 2.6 4.2 0.1
          vertex 2.6 4.2 1
      endloop
  endfacet
  facet normal 0.0 -1.0 0.0
      outer loop
          vertex 2.4000000000000004 4.2 0.1
          vertex 2.6 4.2 1
          vertex 2.4000000000000004 4.2 1
      endloop
  endfacet
endsolid obstacle
