solid obstacle
  facet normal 0.0 0.0 -1.0
      outer loop
          vertex 0.4 2.6 0.1
          vertex 0.9 3.7 0.1
          vertex 1.4000000000000001 4.0 0.1
      endloop
  endfacet
  facet normal 0.0 0.0 1.0
      outer loop
          vertex 0.4 2.6 1
          vertex 1.4000000000000001 4.0 1
          vertex 0.9 3.7 1
      endloop
  endfacet
  facet normal 0.8137334712067349 -0.5812381937190964 0.0
      outer loop
          vertex 0.4 2.6 0.1
          vertex 1.4000000000000001 4.0 0.1
          vertex 1.4000000000000001 4.0 1
      endloop
  endfacet
  facet normal 0.8137334712067349 -0.5812381937190964 0.0
      outer loop
          vertex 0.4 2.6 0.1
          vertex 1.4000000000000001 4.0 1
          vertex 0.4 2.6 1
      endloop
  endfacet
  facet normal -0.5144957554275262 0.8574929257125444 0.0
      outer loop
          vertex 1.4000000000000001 4.0 0.1
          vertex 0.9 3.7 0.1
          vertex 0.9 3.7 1
      endloop
  endfacet
  facet normal -0.5144957554275262 0.8574929257125444 0.0
      outer loop
          vertex 1.4000000000000001 4.0 0.1
          vertex 0.9 3.7 1
          vertex 1.4000000000000001 4.0 1
      endloop
  endfacet
  facet normal -0.9103664774626048 0.413802944301184 0.0
      outer loop
          vertex 0.9 3.7 0.1
          vertex 0.4 2.6 0.1
          vertex 0.4 2.6 1
      endloop
  endfacet
  facet normal -0.9103664774626048 0.413802944301184 0.0
      outer loop
          vertex 0.9 3.7 0.1
          vertex 0.4 2.6 1
          vertex 0.9 3.7 1
      endloop
  endfacet
endsolid obstacle
