solid obstacle
  facet normal 0.0 0.0 -1.0
      outer loop
          vertex 1.4000000000000001 0.4 0.01
          vertex 2.2 0.5 0.01
          vertex 3.3000000000000003 0.30000000000000004 0.01
      endloop
  endfacet
  facet normal -0.0 0.0 1.0
      outer loop
          vertex 1.4000000000000001 0.4 1
          vertex 3.3000000000000003 0.30000000000000004 1
          vertex 2.2 0.5 1
      endloop
  endfacet
  facet normal -0.05255883312276366 -0.9986178293325098 0.0
      outer loop
          vertex 1.4000000000000001 0.4 0.01
          vertex 3.3000000000000003 0.30000000000000004 0.01
          vertex 3.3000000000000003 0.30000000000000004 1
      endloop
  endfacet
  facet normal -0.05255883312276366 -0.9986178293325098 0.0
      outer loop
          vertex 1.4000000000000001 0.4 0.01
          vertex 3.3000000000000003 0.30000000000000004 1
          vertex 1.4000000000000001 0.4 1
      endloop
  endfacet
  facet normal 0.17888543819998312 0.9838699100999074 0.0
      outer loop
          vertex 3.3000000000000003 0.30000000000000004 0.01
          vertex 2.2 0.5 0.01
          vertex 2.2 0.5 1
      endloop
  endfacet
  facet normal 0.17888543819998312 0.9838699100999074 -0.0
      outer loop
          vertex 3.3000000000000003 0.30000000000000004 0.01
          vertex 2.2 0.5 1
          vertex 3.3000000000000003 0.30000000000000004 1
      endloop
  endfacet
  facet normal -0.12403473458920843 0.9922778767136677 0.0
      outer loop
          vertex 2.2 0.5 0.01
          vertex 1.4000000000000001 0.4 0.01
          vertex 1.4000000000000001 0.4 1
      endloop
  endfacet
  facet normal -0.12403473458920843 0.9922778767136677 0.0
      outer loop
          vertex 2.2 0.5 0.01
          vertex 1.4000000000000001 0.4 1
          vertex 2.2 0.5 1
      endloop
  endfacet
endsolid obstacle
