solid obstacle
  facet normal 0.0 0.0 -1.0
      outer loop
          vertex 1.1 0.2 0.01
          vertex 1.4000000000000001 1.9000000000000001 0.01
          vertex 2.8000000000000003 1.0 0.01
      endloop
  endfacet
  facet normal 0.0 0.0 1.0
      outer loop
          vertex 1.1 0.2 1
          vertex 2.8000000000000003 1.0 1
          vertex 1.4000000000000001 1.9000000000000001 1
      endloop
  endfacet
  facet normal 0.4257970363298796 -0.904818702200994 0.0
      outer loop
          vertex 1.1 0.2 0.01
          vertex 2.8000000000000003 1.0 0.01
          vertex 2.8000000000000003 1.0 1
      endloop
  endfacet
  facet normal 0.4257970363298796 -0.904818702200994 0.0
      outer loop
          vertex 1.1 0.2 0.01
          vertex 2.8000000000000003 1.0 1
          vertex 1.1 0.2 1
      endloop
  endfacet
  facet normal 0.5407575913134988 0.8411784753765535 0.0
      outer loop
          vertex 2.8000000000000003 1.0 0.01
          vertex 1.4000000000000001 1.9000000000000001 0.01
          vertex 1.4000000000000001 1.9000000000000001 1
      endloop
  endfacet
  facet normal 0.5407575913134988 0.8411784753765535 -0.0
      outer loop
          vertex 2.8000000000000003 1.0 0.01
          vertex 1.4000000000000001 1.9000000000000001 1
          vertex 2.8000000000000003 1.0 1
      endloop
  endfacet
  facet normal -0.9847835588179368 0.17378533390904768 0.0
      outer loop
          vertex 1.4000000000000001 1.9000000000000001 0.01
          vertex 1.1 0.2 0.01
          vertex 1.1 0.2 1
      endloop
  endfacet
  facet normal -0.9847835588179368 0.17378533390904768 0.0
      outer loop
          vertex 1.4000000000000001 1.9000000000000001 0.01
          vertex 1.1 0.2 1
          vertex 1.4000000000000001 1.9000000000000001 1
      endloop
  endfacet
endsolid obstacle
