solid obstacle
  facet normal 0.0 0.0 -1.0
      outer loop
          vertex 3.2 0.1 0.01
          vertex 3.8000000000000003 0.30000000000000004 0.01
          vertex 3.9000000000000004 0.1 0.01
      endloop
  endfacet
  facet normal 0.0 0.0 1.0
      outer loop
          vertex 3.2 0.1 1
          vertex 3.9000000000000004 0.1 1
          vertex 3.8000000000000003 0.30000000000000004 1
      endloop
  endfacet
  facet normal 0.0 -1.0 0.0
      outer loop
          vertex 3.2 0.1 0.01
          vertex 3.9000000000000004 0.1 0.01
          vertex 3.9000000000000004 0.1 1
      endloop
  endfacet
  facet normal 0.0 -1.0 0.0
      outer loop
          vertex 3.2 0.1 0.01
          vertex 3.9000000000000004 0.1 1
          vertex 3.2 0.1 1
      endloop
  endfacet
  facet normal 0.8944271909999157 0.44721359549995815 0.0
      outer loop
          vertex 3.9000000000000004 0.1 0.01
          vertex 3.8000000000000003 0.30000000000000004 0.01
          vertex 3.8000000000000003 0.30000000000000004 1
      endloop
  endfacet
  facet normal 0.8944271909999157 0.44721359549995815 -0.0
      outer loop
          vertex 3.9000000000000004 0.1 0.01
          vertex 3.8000000000000003 0.30000000000000004 1
          vertex 3.9000000000000004 0.1 1
      endloop
  endfacet
  facet normal -0.31622776601683794 0.9486832980505139 0.0
      outer loop
          vertex 3.8000000000000003 0.30000000000000004 0.01
          vertex 3.2 0.1 0.01
          vertex 3.2 0.1 1
      endloop
  endfacet
  facet normal -0.31622776601683794 0.9486832980505139 0.0
      outer loop
          vertex 3.8000000000000003 0.30000000000000004 0.01
          vertex 3.2 0.1 1
          vertex 3.8000000000000003 0.30000000000000004 1
      endloop
  endfacet
endsolid obstacle
