solid obstacle
  facet normal -0.0 0.0 -1.0
      outer loop
          vertex 3.3000000000000003 1.4000000000000001 0.1
          vertex 2.7 1.1 0.1
          vertex 2.3000000000000003 2.2 0.1
      endloop
  endfacet
  facet normal 0.0 0.0 1.0
      outer loop
          vertex 3.3000000000000003 1.4000000000000001 1
          vertex 2.3000000000000003 2.2 1
          vertex 2.7 1.1 1
      endloop
  endfacet
  facet normal 0.6246950475544243 0.7808688094430303 0.0
      outer loop
          vertex 3.3000000000000003 1.4000000000000001 0.1
          vertex 2.3000000000000003 2.2 0.1
          vertex 2.3000000000000003 2.2 1
      endloop
  endfacet
  facet normal 0.6246950475544243 0.7808688094430303 -0.0
      outer loop
          vertex 3.3000000000000003 1.4000000000000001 0.1
          vertex 2.3000000000000003 2.2 1
          vertex 3.3000000000000003 1.4000000000000001 1
      endloop
  endfacet
  facet normal -0.939793423488437 -0.34174306308670427 0.0
      outer loop
          vertex 2.3000000000000003 2.2 0.1
          vertex 2.7 1.1 0.1
          vertex 2.7 1.1 1
      endloop
  endfacet
  facet normal -0.939793423488437 -0.34174306308670427 0.0
      outer loop
          vertex 2.3000000000000003 2.2 0.1
          vertex 2.7 1.1 1
          vertex 2.3000000000000003 2.2 1
      endloop
  endfacet
  facet normal 0.447213595499958 -0.894427190999916 0.0
      outer loop
          vertex 2.7 1.1 0.1
          vertex 3.3000000000000003 1.4000000000000001 0.1
          vertex 3.3000000000000003 1.4000000000000001 1
      endloop
  endfacet
  facet normal 0.447213595499958 -0.894427190999916 0.0
      outer loop
          vertex 2.7 1.1 0.1
          vertex 3.3000000000000003 1.4000000000000001 1
          vertex 2.7 1.1 1
      endloop
  endfacet
endsolid obstacle
