solid obstacle
  facet normal 0.0 0.0 -1.0
      outer loop
          vertex 0.4 1.5 0.01
          vertex 0.6000000000000001 1.8 0.01
          vertex 0.8 1.6 0.01
      endloop
  endfacet
  facet normal 0.0 0.0 1.0
      outer loop
          vertex 0.4 1.5 1
          vertex 0.8 1.6 1
          vertex 0.6000000000000001 1.8 1
      endloop
  endfacet
  facet normal 0.24253562503633316 -0.9701425001453319 0.0
      outer loop
          vertex 0.4 1.5 0.01
          vertex 0.8 1.6 0.01
          vertex 0.8 1.6 1
      endloop
  endfacet
  facet normal 0.24253562503633316 -0.9701425001453319 0.0
      outer loop
          vertex 0.4 1.5 0.01
          vertex 0.8 1.6 1
          vertex 0.4 1.5 1
      endloop
  endfacet
  facet normal 0.7071067811865475 0.7071067811865475 0.0
      outer loop
          vertex 0.8 1.6 0.01
          vertex 0.6000000000000001 1.8 0.01
          vertex 0.6000000000000001 1.8 1
      endloop
  endfacet
  facet normal 0.7071067811865475 0.7071067811865475 -0.0
      outer loop
          vertex 0.8 1.6 0.01
          vertex 0.6000000000000001 1.8 1
          vertex 0.8 1.6 1
      endloop
  endfacet
  facet normal -0.8320502943378436 0.5547001962252291 0.0
      outer loop
          vertex 0.6000000000000001 1.8 0.01
          vertex 0.4 1.5 0.01
          vertex 0.4 1.5 1
      endloop
  endfacet
  facet normal -0.8320502943378436 0.5547001962252291 0.0
      outer loop
          vertex 0.6000000000000001 1.8 0.01
          vertex 0.4 1.5 1
          vertex 0.6000000000000001 1.8 1
      endloop
  endfacet
endsolid obstacle
