solid obstacle
  facet normal 0.0 0.0 -1.0
      outer loop
          vertex 3.0 3.4000000000000004 0.01
          vertex 2.8000000000000003 3.2 0.01
          vertex 1.7000000000000002 2.2 0.01
      endloop
  endfacet
  facet normal 0.0 0.0 1.0
      outer loop
          vertex 3.0 3.4000000000000004 1
          vertex 1.7000000000000002 2.2 1
          vertex 2.8000000000000003 3.2 1
      endloop
  endfacet
  facet normal -0.6782801027330658 0.7348034446274879 0.0
      outer loop
          vertex 3.0 3.4000000000000004 0.01
          vertex 1.7000000000000002 2.2 0.01
          vertex 1.7000000000000002 2.2 1
      endloop
  endfacet
  facet normal -0.6782801027330658 0.7348034446274879 0.0
      outer loop
          vertex 3.0 3.4000000000000004 0.01
          vertex 1.7000000000000002 2.2 1
          vertex 3.0 3.4000000000000004 1
      endloop
  endfacet
  facet normal 0.6726727939963124 -0.7399400733959437 0.0
      outer loop
          vertex 1.7000000000000002 2.2 0.01
          vertex 2.8000000000000003 3.2 0.01
          vertex 2.8000000000000003 3.2 1
      endloop
  endfacet
  facet normal 0.6726727939963124 -0.7399400733959437 0.0
      outer loop
          vertex 1.7000000000000002 2.2 0.01
          vertex 2.8000000000000003 3.2 1
          vertex 1.7000000000000002 2.2 1
      endloop
  endfacet
  facet normal 0.7071067811865482 -0.7071067811865467 0.0
      outer loop
          vertex 2.8000000000000003 3.2 0.01
          vertex 3.0 3.4000000000000004 0.01
          vertex 3.0 3.4000000000000004 1
      endloop
  endfacet
  facet normal 0.7071067811865482 -0.7071067811865467 0.0
      outer loop
          vertex 2.8000000000000003 3.2 0.01
          vertex 3.0 3.4000000000000004 1
          vertex 2.8000000000000003 3.2 1
      endloop
  endfacet
endsolid obstacle
