solid obstacle
  facet normal 0.0 0.0 -1.0
      outer loop
          vertex 1.8 3.2 0.01
          vertex 0.9 2.4000000000000004 0.01
          vertex 0.7000000000000001 2.8000000000000003 0.01
      endloop
  endfacet
  facet normal 0.0 0.0 1.0
      outer loop
          vertex 1.8 3.2 1
          vertex 0.7000000000000001 2.8000000000000003 1
          vertex 0.9 2.4000000000000004 1
      endloop
  endfacet
  facet normal -0.3417430630867044 0.9397934234884372 0.0
      outer loop
          vertex 1.8 3.2 0.01
          vertex 0.7000000000000001 2.8000000000000003 0.01
          vertex 0.7000000000000001 2.8000000000000003 1
      endloop
  endfacet
  facet normal -0.3417430630867044 0.9397934234884372 0.0
      outer loop
          vertex 1.8 3.2 0.01
          vertex 0.7000000000000001 2.8000000000000003 1
          vertex 1.8 3.2 1
      endloop
  endfacet
  facet normal -0.8944271909999159 -0.4472135954999579 0.0
      outer loop
          vertex 0.7000000000000001 2.8000000000000003 0.01
          vertex 0.9 2.4000000000000004 0.01
          vertex 0.9 2.4000000000000004 1
      endloop
  endfacet
  facet normal -0.8944271909999159 -0.4472135954999579 0.0
      outer loop
          vertex 0.7000000000000001 2.8000000000000003 0.01
          vertex 0.9 2.4000000000000004 1
          vertex 0.7000000000000001 2.8000000000000003 1
      endloop
  endfacet
  facet normal 0.6643638388299198 -0.7474093186836599 0.0
      outer loop
          vertex 0.9 2.4000000000000004 0.01
          vertex 1.8 3.2 0.01
          vertex 1.8 3.2 1
      endloop
  endfacet
  facet normal 0.6643638388299198 -0.7474093186836599 0.0
      outer loop
          vertex 0.9 2.4000000000000004 0.01
          vertex 1.8 3.2 1
          vertex 0.9 2.4000000000000004 1
      endloop
  endfacet
endsolid obstacle
