solid obstacle
  facet normal 0.0 0.0 -1.0
      outer loop
          vertex 4.3 4.800000000000001 0.01
          vertex 4.1000000000000005 4.6000000000000005 0.01
          vertex 3.2 4.5 0.01
      endloop
  endfacet
  facet normal 0.0 0.0 1.0
      outer loop
          vertex 4.3 4.800000000000001 1
          vertex 3.2 4.5 1
          vertex 4.1000000000000005 4.6000000000000005 1
      endloop
  endfacet
  facet normal -0.26311740579210946 0.9647638212377321 0.0
      outer loop
          vertex 4.3 4.800000000000001 0.01
          vertex 3.2 4.5 0.01
          vertex 3.2 4.5 1
      endloop
  endfacet
  facet normal -0.26311740579210946 0.9647638212377321 0.0
      outer loop
          vertex 4.3 4.800000000000001 0.01
          vertex 3.2 4.5 1
          vertex 4.3 4.800000000000001 1
      endloop
  endfacet
  facet normal 0.11043152607484709 -0.9938837346736188 0.0
      outer loop
          vertex 3.2 4.5 0.01
          vertex 4.1000000000000005 4.6000000000000005 0.01
          vertex 4.1000000000000005 4.6000000000000005 1
      endloop
  endfacet
  facet normal 0.11043152607484709 -0.9938837346736188 0.0
      outer loop
          vertex 3.2 4.5 0.01
          vertex 4.1000000000000005 4.6000000000000005 1
          vertex 3.2 4.5 1
      endloop
  endfacet
  facet normal 0.7071067811865491 -0.7071067811865459 0.0
      outer loop
          vertex 4.1000000000000005 4.6000000000000005 0.01
          vertex 4.3 4.800000000000001 0.01
          vertex 4.3 4.800000000000001 1
      endloop
  endfacet
  facet normal 0.7071067811865491 -0.7071067811865459 0.0
      outer loop
          vertex 4.1000000000000005 4.6000000000000005 0.01
          vertex 4.3 4.800000000000001 1
          vertex 4.1000000000000005 4.6000000000000005 1
      endloop
  endfacet
endsolid obstacle
