solid obstacle
  facet normal 0.0 0.0 -1.0
      outer loop
          vertex 0.5 1.2000000000000002 0.01
          vertex 1.1 2.7 0.01
          vertex 1.7000000000000002 1.1 0.01
      endloop
  endfacet
  facet normal -0.0 0.0 1.0
      outer loop
          vertex 0.5 1.2000000000000002 1
          vertex 1.7000000000000002 1.1 1
          vertex 1.1 2.7 1
      endloop
  endfacet
  facet normal -0.08304547985374003 -0.9965457582448796 0.0
      outer loop
          vertex 0.5 1.2000000000000002 0.01
          vertex 1.7000000000000002 1.1 0.01
          vertex 1.7000000000000002 1.1 1
      endloop
  endfacet
  facet normal -0.08304547985374003 -0.9965457582448796 0.0
      outer loop
          vertex 0.5 1.2000000000000002 0.01
          vertex 1.7000000000000002 1.1 1
          vertex 0.5 1.2000000000000002 1
      endloop
  endfacet
  facet normal 0.9363291775690445 0.3511234415883917 0.0
      outer loop
          vertex 1.7000000000000002 1.1 0.01
          vertex 1.1 2.7 0.01
          vertex 1.1 2.7 1
      endloop
  endfacet
  facet normal 0.9363291775690445 0.3511234415883917 -0.0
      outer loop
          vertex 1.7000000000000002 1.1 0.01
          vertex 1.1 2.7 1
          vertex 1.7000000000000002 1.1 1
      endloop
  endfacet
  facet normal -0.9284766908852593 0.3713906763541038 0.0
      outer loop
          vertex 1.1 2.7 0.01
          vertex 0.5 1.2000000000000002 0.01
          vertex 0.5 1.2000000000000002 1
      endloop
  endfacet
  facet normal -0.9284766908852593 0.3713906763541038 0.0
      outer loop
          vertex 1.1 2.7 0.01
          vertex 0.5 1.2000000000000002 1
          vertex 1.1 2.7 1
      endloop
  endfacet
endsolid obstacle
