solid obstacle
  facet normal 0.0 -0.0 -1.0
      outer loop
          vertex 2.9000000000000004 2.2 0.1
          vertex 3.0 1.5 0.1
          vertex 1.9000000000000001 0.7000000000000001 0.1
      endloop
  endfacet
  facet normal 0.0 0.0 -1.0
      outer loop
          vertex 2.9000000000000004 2.2 0.1
          vertex 4.1000000000000005 2.5 0.1
          vertex 3.0 1.5 0.1
      endloop
  endfacet
  facet normal 0.0 0.0 1.0
      outer loop
          vertex 2.9000000000000004 2.2 1
          vertex 1.9000000000000001 0.7000000000000001 1
          vertex 3.0 1.5 1
      endloop
  endfacet
  facet normal -0.0 0.0 1.0
      outer loop
          vertex 2.9000000000000004 2.2 1
          vertex 3.0 1.5 1
          vertex 4.1000000000000005 2.5 1
      endloop
  endfacet
  facet normal -0.8320502943378437 0.5547001962252293 0.0
      outer loop
          vertex 2.9000000000000004 2.2 0.1
          vertex 1.9000000000000001 0.7000000000000001 0.1
          vertex 1.9000000000000001 0.7000000000000001 1
      endloop
  endfacet
  facet normal -0.8320502943378437 0.5547001962252293 0.0
      outer loop
          vertex 2.9000000000000004 2.2 0.1
          vertex 1.9000000000000001 0.7000000000000001 1
          vertex 2.9000000000000004 2.2 1
      endloop
  endfacet
  facet normal 0.5881716976750463 -0.8087360843031886 0.0
      outer loop
          vertex 1.9000000000000001 0.7000000000000001 0.1
          vertex 3.0 1.5 0.1
          vertex 3.0 1.5 1
      endloop
  endfacet
  facet normal 0.5881716976750463 -0.8087360843031886 0.0
      outer loop
          vertex 1.9000000000000001 0.7000000000000001 0.1
          vertex 3.0 1.5 1
          vertex 1.9000000000000001 0.7000000000000001 1
      endloop
  endfacet
  facet normal 0.6726727939963122 -0.7399400733959438 0.0
      outer loop
          vertex 3.0 1.5 0.1
          vertex 4.1000000000000005 2.5 0.1
          vertex 4.1000000000000005 2.5 1
      endloop
  endfacet
  facet normal 0.6726727939963122 -0.7399400733959438 0.0
      outer loop
          vertex 3.0 1.5 0.1
          vertex 4.1000000000000005 2.5 1
          vertex 3.0 1.5 1
      endloop
  endfacet
  facet normal -0.24253562503633277 0.9701425001453319 0.0
      outer loop
          vertex 4.1000000000000005 2.5 0.1
          vertex 2.9000000000000004 2.2 0.1
          vertex 2.9000000000000004 2.2 1
      endloop
  endfacet
  facet normal -0.24253562503633277 0.9701425001453319 0.0
      outer loop
          vertex 4.1000000000000005 2.5 0.1
          vertex 2.9000000000000004 2.2 1
          vertex 4.1000000000000005 2.5 1
      endloop
  endfacet
endsolid obstacle
