solid obstacle
  facet normal 0.0 0.0 -1.0
      outer loop
          vertex 2.5 2.9000000000000004 0.01
          vertex 2.0 2.2 0.01
          vertex 1.3 1.6 0.01
      endloop
  endfacet
  facet normal 0.0 0.0 1.0
      outer loop
          vertex 2.5 2.9000000000000004 1
          vertex 1.3 1.6 1
          vertex 2.0 2.2 1
      endloop
  endfacet
  facet normal -0.734803444627488 0.6782801027330657 0.0
      outer loop
          vertex 2.5 2.9000000000000004 0.01
          vertex 1.3 1.6 0.01
          vertex 1.3 1.6 1
      endloop
  endfacet
  facet normal -0.734803444627488 0.6782801027330657 0.0
      outer loop
          vertex 2.5 2.9000000000000004 0.01
          vertex 1.3 1.6 1
          vertex 2.5 2.9000000000000004 1
      endloop
  endfacet
  facet normal 0.6507913734559686 -0.7592566023652966 0.0
      outer loop
          vertex 1.3 1.6 0.01
          vertex 2.0 2.2 0.01
          vertex 2.0 2.2 1
      endloop
  endfacet
  facet normal 0.6507913734559686 -0.7592566023652966 0.0
      outer loop
          vertex 1.3 1.6 0.01
          vertex 2.0 2.2 1
          vertex 1.3 1.6 1
      endloop
  endfacet
  facet normal 0.8137334712067351 -0.5812381937190964 0.0
      outer loop
          vertex 2.0 2.2 0.01
          vertex 2.5 2.9000000000000004 0.01
          vertex 2.5 2.9000000000000004 1
      endloop
  endfacet
  facet normal 0.8137334712067351 -0.5812381937190964 0.0
      outer loop
          vertex 2.0 2.2 0.01
          vertex 2.5 2.9000000000000004 1
          vertex 2.0 2.2 1
      endloop
  endfacet
endsolid obstacle
