solid obstacle
  facet normal 0.0 0.0 -1.0
      outer loop
          vertex 0.2 3.8000000000000003 0.01
          vertex 1.3 4.5 0.01
          vertex 2.0 3.2 0.01
      endloop
  endfacet
  facet normal -0.0 0.0 1.0
      outer loop
          vertex 0.2 3.8000000000000003 1
          vertex 2.0 3.2 1
          vertex 1.3 4.5 1
      endloop
  endfacet
  facet normal -0.316227766016838 -0.9486832980505139 0.0
      outer loop
          vertex 0.2 3.8000000000000003 0.01
          vertex 2.0 3.2 0.01
          vertex 2.0 3.2 1
      endloop
  endfacet
  facet normal -0.316227766016838 -0.9486832980505139 0.0
      outer loop
          vertex 0.2 3.8000000000000003 0.01
          vertex 2.0 3.2 1
          vertex 0.2 3.8000000000000003 1
      endloop
  endfacet
  facet normal 0.8804710999221753 0.47409982303501746 0.0
      outer loop
          vertex 2.0 3.2 0.01
          vertex 1.3 4.5 0.01
          vertex 1.3 4.5 1
      endloop
  endfacet
  facet normal 0.8804710999221753 0.47409982303501746 -0.0
      outer loop
          vertex 2.0 3.2 0.01
          vertex 1.3 4.5 1
          vertex 2.0 3.2 1
      endloop
  endfacet
  facet normal -0.5368754921931591 0.8436614877321075 0.0
      outer loop
          vertex 1.3 4.5 0.01
          vertex 0.2 3.8000000000000003 0.01
          vertex 0.2 3.8000000000000003 1
      endloop
  endfacet
  facet normal -0.5368754921931591 0.8436614877321075 0.0
      outer loop
          vertex 1.3 4.5 0.01
          vertex 0.2 3.8000000000000003 1
          vertex 1.3 4.5 1
      endloop
  endfacet
endsolid obstacle
