solid obstacle
  facet normal 0.0 0.0 -1.0
      outer loop
          vertex 3.1 1.8 0.1
          vertex 1.7000000000000002 0.6000000000000001 0.1
          vertex 1.4000000000000001 1.7000000000000002 0.1
      endloop
  endfacet
  facet normal 0.0 0.0 1.0
      outer loop
          vertex 3.1 1.8 1
          vertex 1.4000000000000001 1.7000000000000002 1
          vertex 1.7000000000000002 0.6000000000000001 1
      endloop
  endfacet
  facet normal -0.05872202195147028 0.998274373174996 0.0
      outer loop
          vertex 3.1 1.8 0.1
          vertex 1.4000000000000001 1.7000000000000002 0.1
          vertex 1.4000000000000001 1.7000000000000002 1
      endloop
  endfacet
  facet normal -0.05872202195147028 0.998274373174996 0.0
      outer loop
          vertex 3.1 1.8 0.1
          vertex 1.4000000000000001 1.7000000000000002 1
          vertex 3.1 1.8 1
      endloop
  endfacet
  facet normal -0.9647638212377321 -0.2631174057921088 0.0
      outer loop
          vertex 1.4000000000000001 1.7000000000000002 0.1
          vertex 1.7000000000000002 0.6000000000000001 0.1
          vertex 1.7000000000000002 0.6000000000000001 1
      endloop
  endfacet
  facet normal -0.9647638212377321 -0.2631174057921088 0.0
      outer loop
          vertex 1.4000000000000001 1.7000000000000002 0.1
          vertex 1.7000000000000002 0.6000000000000001 1
          vertex 1.4000000000000001 1.7000000000000002 1
      endloop
  endfacet
  facet normal 0.6507913734559685 -0.7592566023652966 0.0
      outer loop
          vertex 1.7000000000000002 0.6000000000000001 0.1
          vertex 3.1 1.8 0.1
          vertex 3.1 1.8 1
      endloop
  endfacet
  facet normal 0.6507913734559685 -0.7592566023652966 0.0
      outer loop
          vertex 1.7000000000000002 0.6000000000000001 0.1
          vertex 3.1 1.8 1
          vertex 1.7000000000000002 0.6000000000000001 1
      endloop
  endfacet
endsolid obstacle
