solid obstacle
  facet normal 0.0 0.0 -1.0
      outer loop
          vertex 2.5 0.30000000000000004 0.01
          vertex 3.3000000000000003 1.4000000000000001 0.01
          vertex 3.5 0.7000000000000001 0.01
      endloop
  endfacet
  facet normal 0.0 0.0 1.0
      outer loop
          vertex 2.5 0.30000000000000004 1
          vertex 3.5 0.7000000000000001 1
          vertex 3.3000000000000003 1.4000000000000001 1
      endloop
  endfacet
  facet normal 0.3713906763541037 -0.9284766908852593 0.0
      outer loop
          vertex 2.5 0.30000000000000004 0.01
          vertex 3.5 0.7000000000000001 0.01
          vertex 3.5 0.7000000000000001 1
      endloop
  endfacet
  facet normal 0.3713906763541037 -0.9284766908852593 0.0
      outer loop
          vertex 2.5 0.30000000000000004 0.01
          vertex 3.5 0.7000000000000001 1
          vertex 2.5 0.30000000000000004 1
      endloop
  endfacet
  facet normal 0.9615239476408233 0.2747211278973777 0.0
      outer loop
          vertex 3.5 0.7000000000000001 0.01
          vertex 3.3000000000000003 1.4000000000000001 0.01
          vertex 3.3000000000000003 1.4000000000000001 1
      endloop
  endfacet
  facet normal 0.9615239476408233 0.2747211278973777 -0.0
      outer loop
          vertex 3.5 0.7000000000000001 0.01
          vertex 3.3000000000000003 1.4000000000000001 1
          vertex 3.5 0.7000000000000001 1
      endloop
  endfacet
  facet normal -0.8087360843031884 0.5881716976750464 0.0
      outer loop
          vertex 3.3000000000000003 1.4000000000000001 0.01
          vertex 2.5 0.30000000000000004 0.01
          vertex 2.5 0.30000000000000004 1
      endloop
  endfacet
  facet normal -0.8087360843031884 0.5881716976750464 0.0
      outer loop
          vertex 3.3000000000000003 1.4000000000000001 0.01
          vertex 2.5 0.30000000000000004 1
          vertex 3.3000000000000003 1.4000000000000001 1
      endloop
  endfacet
endsolid obstacle
