solid obstacle
  facet normal 0.0 0.0 -1.0
      outer loop
          vertex 4.0 4.1000000000000005 0.1
          vertex 3.6 2.8000000000000003 0.1
          vertex 2.8000000000000003 3.4000000000000004 0.1
      endloop
  endfacet
  facet normal 0.0 0.0 1.0
      outer loop
          vertex 4.0 4.1000000000000005 1
          vertex 2.8000000000000003 3.4000000000000004 1
          vertex 3.6 2.8000000000000003 1
      endloop
  endfacet
  facet normal -0.5038710255240864 0.8637789008984333 0.0
      outer loop
          vertex 4.0 4.1000000000000005 0.1
          vertex 2.8000000000000003 3.4000000000000004 0.1
          vertex 2.8000000000000003 3.4000000000000004 1
      endloop
  endfacet
  facet normal -0.5038710255240864 0.8637789008984333 0.0
      outer loop
          vertex 4.0 4.1000000000000005 0.1
          vertex 2.8000000000000003 3.4000000000000004 1
          vertex 4.0 4.1000000000000005 1
      endloop
  endfacet
  facet normal -0.6000000000000002 -0.7999999999999999 0.0
      outer loop
          vertex 2.8000000000000003 3.4000000000000004 0.1
          vertex 3.6 2.8000000000000003 0.1
          vertex 3.6 2.8000000000000003 1
      endloop
  endfacet
  facet normal -0.6000000000000002 -0.7999999999999999 0.0
      outer loop
          vertex 2.8000000000000003 3.4000000000000004 0.1
          vertex 3.6 2.8000000000000003 1
          vertex 2.8000000000000003 3.4000000000000004 1
      endloop
  endfacet
  facet normal 0.95577900872195 -0.2940858488375229 0.0
      outer loop
          vertex 3.6 2.8000000000000003 0.1
          vertex 4.0 4.1000000000000005 0.1
          vertex 4.0 4.1000000000000005 1
      endloop
  endfacet
  facet normal 0.95577900872195 -0.2940858488375229 0.0
      outer loop
          vertex 3.6 2.8000000000000003 0.1
          vertex 4.0 4.1000000000000005 1
          vertex 3.6 2.8000000000000003 1
      endloop
  endfacet
endsolid obstacle
