solid obstacle
  facet normal 0.0 0.0 -1.0
      outer loop
          vertex 1.2000000000000002 3.3000000000000003 0.01
          vertex 2.0 3.5 0.01
          vertex 2.8000000000000003 2.7 0.01
      endloop
  endfacet
  facet normal -0.0 0.0 1.0
      outer loop
          vertex 1.2000000000000002 3.3000000000000003 1
          vertex 2.8000000000000003 2.7 1
          vertex 2.0 3.5 1
      endloop
  endfacet
  facet normal -0.3511234415883917 -0.9363291775690445 0.0
      outer loop
          vertex 1.2000000000000002 3.3000000000000003 0.01
          vertex 2.8000000000000003 2.7 0.01
          vertex 2.8000000000000003 2.7 1
      endloop
  endfacet
  facet normal -0.3511234415883917 -0.9363291775690445 0.0
      outer loop
          vertex 1.2000000000000002 3.3000000000000003 0.01
          vertex 2.8000000000000003 2.7 1
          vertex 1.2000000000000002 3.3000000000000003 1
      endloop
  endfacet
  facet normal 0.7071067811865474 0.7071067811865477 0.0
      outer loop
          vertex 2.8000000000000003 2.7 0.01
          vertex 2.0 3.5 0.01
          vertex 2.0 3.5 1
      endloop
  endfacet
  facet normal 0.7071067811865474 0.7071067811865477 -0.0
      outer loop
          vertex 2.8000000000000003 2.7 0.01
          vertex 2.0 3.5 1
          vertex 2.8000000000000003 2.7 1
      endloop
  endfacet
  facet normal -0.24253562503633272 0.970142500145332 0.0
      outer loop
          vertex 2.0 3.5 0.01
          vertex 1.2000000000000002 3.3000000000000003 0.01
          vertex 1.2000000000000002 3.3000000000000003 1
      endloop
  endfacet
  facet normal -0.24253562503633272 0.970142500145332 0.0
      outer loop
          vertex 2.0 3.5 0.01
          vertex 1.2000000000000002 3.3000000000000003 1
          vertex 2.0 3.5 1
      endloop
  endfacet
endsolid obstacle
