solid obstacle
  facet normal 0.0 0.0 -1.0
      outer loop
          vertex 1.4000000000000001 0.6000000000000001 0.1
          vertex 1.6 0.7000000000000001 0.1
          vertex 1.9000000000000001 0.0 0.1
      endloop
  endfacet
  facet normal -0.0 0.0 1.0
      outer loop
          vertex 1.4000000000000001 0.6000000000000001 1
          vertex 1.9000000000000001 0.0 1
          vertex 1.6 0.7000000000000001 1
      endloop
  endfacet
  facet normal -0.768221279597376 -0.6401843996644798 0.0
      outer loop
          vertex 1.4000000000000001 0.6000000000000001 0.1
          vertex 1.9000000000000001 0.0 0.1
          vertex 1.9000000000000001 0.0 1
      endloop
  endfacet
  facet normal -0.768221279597376 -0.6401843996644798 0.0
      outer loop
          vertex 1.4000000000000001 0.6000000000000001 0.1
          vertex 1.9000000000000001 0.0 1
          vertex 1.4000000000000001 0.6000000000000001 1
      endloop
  endfacet
  facet normal 0.9191450300180578 0.3939192985791677 0.0
      outer loop
          vertex 1.9000000000000001 0.0 0.1
          vertex 1.6 0.7000000000000001 0.1
          vertex 1.6 0.7000000000000001 1
      endloop
  endfacet
  facet normal 0.9191450300180578 0.3939192985791677 -0.0
      outer loop
          vertex 1.9000000000000001 0.0 0.1
          vertex 1.6 0.7000000000000001 1
          vertex 1.9000000000000001 0.0 1
      endloop
  endfacet
  facet normal -0.447213595499958 0.894427190999916 0.0
      outer loop
          vertex 1.6 0.7000000000000001 0.1
          vertex 1.4000000000000001 0.6000000000000001 0.1
          vertex 1.4000000000000001 0.6000000000000001 1
      endloop
  endfacet
  facet normal -0.447213595499958 0.894427190999916 0.0
      outer loop
          vertex 1.6 0.7000000000000001 0.1
          vertex 1.4000000000000001 0.6000000000000001 1
          vertex 1.6 0.7000000000000001 1
      endloop
  endfacet
endsolid obstacle
