solid obstacle
  facet normal 0.0 0.0 -1.0
      outer loop
          vertex 0.2 1.3 0.01
          vertex 1.0 2.9000000000000004 0.01
          vertex 1.7000000000000002 2.0 0.01
      endloop
  endfacet
  facet normal 0.0 0.0 1.0
      outer loop
          vertex 0.2 1.3 1
          vertex 1.7000000000000002 2.0 1
          vertex 1.0 2.9000000000000004 1
      endloop
  endfacet
  facet normal 0.4228854653311238 -0.9061831399952655 0.0
      outer loop
          vertex 0.2 1.3 0.01
          vertex 1.7000000000000002 2.0 0.01
          vertex 1.7000000000000002 2.0 1
      endloop
  endfacet
  facet normal 0.4228854653311238 -0.9061831399952655 0.0
      outer loop
          vertex 0.2 1.3 0.01
          vertex 1.7000000000000002 2.0 1
          vertex 0.2 1.3 1
      endloop
  endfacet
  facet normal 0.7893522173763263 0.6139406135149204 0.0
      outer loop
          vertex 1.7000000000000002 2.0 0.01
          vertex 1.0 2.9000000000000004 0.01
          vertex 1.0 2.9000000000000004 1
      endloop
  endfacet
  facet normal 0.7893522173763263 0.6139406135149204 -0.0
      outer loop
          vertex 1.7000000000000002 2.0 0.01
          vertex 1.0 2.9000000000000004 1
          vertex 1.7000000000000002 2.0 1
      endloop
  endfacet
  facet normal -0.8944271909999159 0.44721359549995787 0.0
      outer loop
          vertex 1.0 2.9000000000000004 0.01
          vertex 0.2 1.3 0.01
          vertex 0.2 1.3 1
      endloop
  endfacet
  facet normal -0.8944271909999159 0.44721359549995787 0.0
      outer loop
          vertex 1.0 2.9000000000000004 0.01
          vertex 0.2 1.3 1
          vertex 1.0 2.9000000000000004 1
      endloop
  endfacet
endsolid obstacle
