solid obstacle
  facet normal 0.0 0.0 -1.0
      outer loop
          vertex 2.4000000000000004 3.7 0.01
          vertex 2.6 4.9 0.01
          vertex 2.9000000000000004 3.6 0.01
      endloop
  endfacet
  facet normal -0.0 0.0 1.0
      outer loop
          vertex 2.4000000000000004 3.7 1
          vertex 2.9000000000000004 3.6 1
          vertex 2.6 4.9 1
      endloop
  endfacet
  facet normal -0.1961161351381842 -0.9805806756909201 0.0
      outer loop
          vertex 2.4000000000000004 3.7 0.01
          vertex 2.9000000000000004 3.6 0.01
          vertex 2.9000000000000004 3.6 1
      endloop
  endfacet
  facet normal -0.1961161351381842 -0.9805806756909201 0.0
      outer loop
          vertex 2.4000000000000004 3.7 0.01
          vertex 2.9000000000000004 3.6 1
          vertex 2.4000000000000004 3.7 1
      endloop
  endfacet
  facet normal 0.9743911956946197 0.2248595066987586 0.0
      outer loop
          vertex 2.9000000000000004 3.6 0.01
          vertex 2.6 4.9 0.01
          vertex 2.6 4.9 1
      endloop
  endfacet
  facet normal 0.9743911956946197 0.2248595066987586 -0.0
      outer loop
          vertex 2.9000000000000004 3.6 0.01
          vertex 2.6 4.9 1
          vertex 2.9000000000000004 3.6 1
      endloop
  endfacet
  facet normal -0.9863939238321439 0.16439898730535707 0.0
      outer loop
          vertex 2.6 4.9 0.01
          vertex 2.4000000000000004 3.7 0.01
          vertex 2.4000000000000004 3.7 1
      endloop
  endfacet
  facet normal -0.9863939238321439 0.16439898730535707 0.0
      outer loop
          vertex 2.6 4.9 0.01
          vertex 2.4000000000000004 3.7 1
          vertex 2.6 4.9 1
      endloop
  endfacet
endsolid obstacle
