solid obstacle
  facet normal 0.0 0.0 -1.0
      outer loop
          vertex 2.9000000000000004 3.2 0.01
          vertex 4.4 2.6 0.01
          vertex 3.5 2.1 0.01
      endloop
  endfacet
  facet normal 0.0 0.0 -1.0
      outer loop
          vertex 2.9000000000000004 3.2 0.01
          vertex 3.1 3.2 0.01
          vertex 4.4 2.6 0.01
      endloop
  endfacet
  facet normal 0.0 0.0 1.0
      outer loop
          vertex 2.9000000000000004 3.2 1
          vertex 3.5 2.1 1
          vertex 4.4 2.6 1
      endloop
  endfacet
  facet normal -0.0 0.0 1.0
      outer loop
          vertex 2.9000000000000004 3.2 1
          vertex 4.4 2.6 1
          vertex 3.1 3.2 1
      endloop
  endfacet
  facet normal -0.8778955729143845 -0.4788521306805731 0.0
      outer loop
          vertex 2.9000000000000004 3.2 0.01
          vertex 3.5 2.1 0.01
          vertex 3.5 2.1 1
      endloop
  endfacet
  facet normal -0.8778955729143845 -0.4788521306805731 0.0
      outer loop
          vertex 2.9000000000000004 3.2 0.01
          vertex 3.5 2.1 1
          vertex 2.9000000000000004 3.2 1
      endloop
  endfacet
  facet normal 0.48564293117863194 -0.8741572761215378 0.0
      outer loop
          vertex 3.5 2.1 0.01
          vertex 4.4 2.6 0.01
          vertex 4.4 2.6 1
      endloop
  endfacet
  facet normal 0.48564293117863194 -0.8741572761215378 0.0
      outer loop
          vertex 3.5 2.1 0.01
          vertex 4.4 2.6 1
          vertex 3.5 2.1 1
      endloop
  endfacet
  facet normal 0.41905817746174695 0.9079593845004517 0.0
      outer loop
          vertex 4.4 2.6 0.01
          vertex 3.1 3.2 0.01
          vertex 3.1 3.2 1
      endloop
  endfacet
  facet normal 0.41905817746174695 0.9079593845004517 -0.0
      outer loop
          vertex 4.4 2.6 0.01
          vertex 3.1 3.2 1
          vertex 4.4 2.6 1
      endloop
  endfacet
  facet normal 0.0 1.0 0.0
      outer loop
          vertex 3.1 3.2 0.01
          vertex 2.9000000000000004 3.2 0.01
          vertex 2.9000000000000004 3.2 1
      endloop
  endfacet
  facet normal 0.0 1.0 -0.0
      outer loop
          vertex 3.1 3.2 0.01
          vertex 2.9000000000000004 3.2 1
          vertex 3.1 3.2 1
      endloop
  endfacet
endsolid obstacle
