solid obstacle
  facet normal 0.0 0.0 -1.0
      outer loop
          vertex 3.2 2.3000000000000003 0.1
          vertex 2.9000000000000004 0.6000000000000001 0.1
          vertex 2.6 2.1 0.1
      endloop
  endfacet
  facet normal 0.0 0.0 1.0
      outer loop
          vertex 3.2 2.3000000000000003 1
          vertex 2.6 2.1 1
          vertex 2.9000000000000004 0.6000000000000001 1
      endloop
  endfacet
  facet normal -0.3162277660168381 0.9486832980505138 0.0
      outer loop
          vertex 3.2 2.3000000000000003 0.1
          vertex 2.6 2.1 0.1
          vertex 2.6 2.1 1
      endloop
  endfacet
  facet normal -0.3162277660168381 0.9486832980505138 0.0
      outer loop
          vertex 3.2 2.3000000000000003 0.1
          vertex 2.6 2.1 1
          vertex 3.2 2.3000000000000003 1
      endloop
  endfacet
  facet normal -0.9805806756909201 -0.19611613513818418 0.0
      outer loop
          vertex 2.6 2.1 0.1
          vertex 2.9000000000000004 0.6000000000000001 0.1
          vertex 2.9000000000000004 0.6000000000000001 1
      endloop
  endfacet
  facet normal -0.9805806756909201 -0.19611613513818418 0.0
      outer loop
          vertex 2.6 2.1 0.1
          vertex 2.9000000000000004 0.6000000000000001 1
          vertex 2.6 2.1 1
      endloop
  endfacet
  facet normal 0.9847835588179369 -0.17378533390904755 0.0
      outer loop
          vertex 2.9000000000000004 0.6000000000000001 0.1
          vertex 3.2 2.3000000000000003 0.1
          vertex 3.2 2.3000000000000003 1
      endloop
  endfacet
  facet normal 0.9847835588179369 -0.17378533390904755 0.0
      outer loop
          vertex 2.9000000000000004 0.6000000000000001 0.1
          vertex 3.2 2.3000000000000003 1
          vertex 2.9000000000000004 0.6000000000000001 1
      endloop
  endfacet
endsolid obstacle
