solid obstacle
  facet normal 0.0 0.0 -1.0
      outer loop
          vertex 0.4 1.1 0.01
          vertex 0.4 1.6 0.01
          vertex 0.5 1.2000000000000002 0.01
      endloop
  endfacet
  facet normal 0.0 0.0 1.0
      outer loop
          vertex 0.4 1.1 1
          vertex 0.5 1.2000000000000002 1
          vertex 0.4 1.6 1
      endloop
  endfacet
  facet normal 0.7071067811865479 -0.707106781186547 0.0
      outer loop
          vertex 0.4 1.1 0.01
          vertex 0.5 1.2000000000000002 0.01
          vertex 0.5 1.2000000000000002 1
      endloop
  endfacet
  facet normal 0.7071067811865479 -0.707106781186547 0.0
      outer loop
          vertex 0.4 1.1 0.01
          vertex 0.5 1.2000000000000002 1
          vertex 0.4 1.1 1
      endloop
  endfacet
  facet normal 0.9701425001453319 0.24253562503633297 0.0
      outer loop
          vertex 0.5 1.2000000000000002 0.01
          vertex 0.4 1.6 0.01
          vertex 0.4 1.6 1
      endloop
  endfacet
  facet normal 0.9701425001453319 0.24253562503633297 -0.0
      outer loop
          vertex 0.5 1.2000000000000002 0.01
          vertex 0.4 1.6 1
          vertex 0.5 1.2000000000000002 1
      endloop
  endfacet
  facet normal -1.0 0.0 0.0
      outer loop
          vertex 0.4 1.6 0.01
          vertex 0.4 1.1 0.01
          vertex 0.4 1.1 1
      endloop
  endfacet
  facet normal -1.0 0.0 0.0
      outer loop
          vertex 0.4 1.6 0.01
          vertex 0.4 1.1 1
          vertex 0.4 1.6 1
      endloop
  endfacet
endsolid obstacle
