solid obstacle
  facet normal 0.0 0.0 -1.0
      outer loop
          vertex 0.8 0.4 0.01
          vertex 0.7000000000000001 0.1 0.01
          vertex 0.4 0.1 0.01
      endloop
  endfacet
  facet normal 0.0 0.0 1.0
      outer loop
          vertex 0.8 0.4 1
          vertex 0.4 0.1 1
          vertex 0.7000000000000001 0.1 1
      endloop
  endfacet
  facet normal -0.6 0.7999999999999999 0.0
      outer loop
          vertex 0.8 0.4 0.01
          vertex 0.4 0.1 0.01
          vertex 0.4 0.1 1
      endloop
  endfacet
  facet normal -0.6 0.7999999999999999 0.0
      outer loop
          vertex 0.8 0.4 0.01
          vertex 0.4 0.1 1
          vertex 0.8 0.4 1
      endloop
  endfacet
  facet normal 0.0 -1.0 0.0
      outer loop
          vertex 0.4 0.1 0.01
          vertex 0.7000000000000001 0.1 0.01
          vertex 0.7000000000000001 0.1 1
      endloop
  endfacet
  facet normal 0.0 -1.0 0.0
      outer loop
          vertex 0.4 0.1 0.01
          vertex 0.7000000000000001 0.1 1
          vertex 0.4 0.1 1
      endloop
  endfacet
  facet normal 0.9486832980505139 -0.31622776601683783 0.0
      outer loop
          vertex 0.7000000000000001 0.1 0.01
          vertex 0.8 0.4 0.01
          vertex 0.8 0.4 1
      endloop
  endfacet
  facet normal 0.9486832980505139 -0.31622776601683783 0.0
      outer loop
          vertex 0.7000000000000001 0.1 0.01
          vertex 0.8 0.4 1
          vertex 0.7000000000000001 0.1 1
      endloop
  endfacet
endsolid obstacle
