solid obstacle
  facet normal 0.0 0.0 -1.0
      outer loop
          vertex 4.7 4.4 0.01
          vertex 4.0 3.1 0.01
          vertex 3.7 4.0 0.01
      endloop
  endfacet
  facet normal 0.0 0.0 1.0
      outer loop
          vertex 4.7 4.4 1
          vertex 3.7 4.0 1
          vertex 4.0 3.1 1
      endloop
  endfacet
  facet normal -0.37139067635410405 0.9284766908852593 0.0
      outer loop
          vertex 4.7 4.4 0.01
          vertex 3.7 4.0 0.01
          vertex 3.7 4.0 1
      endloop
  endfacet
  facet normal -0.37139067635410405 0.9284766908852593 0.0
      outer loop
          vertex 4.7 4.4 0.01
          vertex 3.7 4.0 1
          vertex 4.7 4.4 1
      endloop
  endfacet
  facet normal -0.9486832980505139 -0.3162277660168378 0.0
      outer loop
          vertex 3.7 4.0 0.01
          vertex 4.0 3.1 0.01
          vertex 4.0 3.1 1
      endloop
  endfacet
  facet normal -0.9486832980505139 -0.3162277660168378 0.0
      outer loop
          vertex 3.7 4.0 0.01
          vertex 4.0 3.1 1
          vertex 3.7 4.0 1
      endloop
  endfacet
  facet normal 0.8804710999221752 -0.47409982303501746 0.0
      outer loop
          vertex 4.0 3.1 0.01
          vertex 4.7 4.4 0.01
          vertex 4.7 4.4 1
      endloop
  endfacet
  facet normal 0.8804710999221752 -0.47409982303501746 0.0
      outer loop
          vertex 4.0 3.1 0.01
          vertex 4.7 4.4 1
          vertex 4.0 3.1 1
      endloop
  endfacet
endsolid obstacle
