solid obstacle
  facet normal 0.0 0.0 -1.0
      outer loop
          vertex 0.5 2.5 0.1
          vertex 1.7000000000000002 3.7 0.1
          vertex 2.1 2.3000000000000003 0.1
      endloop
  endfacet
  facet normal -0.0 0.0 1.0
      outer loop
          vertex 0.5 2.5 1
          vertex 2.1 2.3000000000000003 1
          vertex 1.7000000000000002 3.7 1
      endloop
  endfacet
  facet normal -0.12403473458920829 -0.9922778767136677 0.0
      outer loop
          vertex 0.5 2.5 0.1
          vertex 2.1 2.3000000000000003 0.1
          vertex 2.1 2.3000000000000003 1
      endloop
  endfacet
  facet normal -0.12403473458920829 -0.9922778767136677 0.0
      outer loop
          vertex 0.5 2.5 0.1
          vertex 2.1 2.3000000000000003 1
          vertex 0.5 2.5 1
      endloop
  endfacet
  facet normal 0.9615239476408232 0.274721127897378 0.0
      outer loop
          vertex 2.1 2.3000000000000003 0.1
          vertex 1.7000000000000002 3.7 0.1
          vertex 1.7000000000000002 3.7 1
      endloop
  endfacet
  facet normal 0.9615239476408232 0.274721127897378 -0.0
      outer loop
          vertex 2.1 2.3000000000000003 0.1
          vertex 1.7000000000000002 3.7 1
          vertex 2.1 2.3000000000000003 1
      endloop
  endfacet
  facet normal -0.7071067811865476 0.7071067811865476 0.0
      outer loop
          vertex 1.7000000000000002 3.7 0.1
          vertex 0.5 2.5 0.1
          vertex 0.5 2.5 1
      endloop
  endfacet
  facet normal -0.7071067811865476 0.7071067811865476 0.0
      outer loop
          vertex 1.7000000000000002 3.7 0.1
          vertex 0.5 2.5 1
          vertex 1.7000000000000002 3.7 1
      endloop
  endfacet
endsolid obstacle
