solid obstacle
  facet normal 0.0 0.0 -1.0
      outer loop
          vertex 3.4000000000000004 1.2000000000000002 0.01
          vertex 3.2 0.5 0.01
          vertex 2.5 0.8 0.01
      endloop
  endfacet
  facet normal 0.0 0.0 1.0
      outer loop
          vertex 3.4000000000000004 1.2000000000000002 1
          vertex 2.5 0.8 1
          vertex 3.2 0.5 1
      endloop
  endfacet
  facet normal -0.4061384660534476 0.9138115486202572 0.0
      outer loop
          vertex 3.4000000000000004 1.2000000000000002 0.01
          vertex 2.5 0.8 0.01
          vertex 2.5 0.8 1
      endloop
  endfacet
  facet normal -0.4061384660534476 0.9138115486202572 0.0
      outer loop
          vertex 3.4000000000000004 1.2000000000000002 0.01
          vertex 2.5 0.8 1
          vertex 3.4000000000000004 1.2000000000000002 1
      endloop
  endfacet
  facet normal -0.39391929857916763 -0.9191450300180579 0.0
      outer loop
          vertex 2.5 0.8 0.01
          vertex 3.2 0.5 0.01
          vertex 3.2 0.5 1
      endloop
  endfacet
  facet normal -0.39391929857916763 -0.9191450300180579 0.0
      outer loop
          vertex 2.5 0.8 0.01
          vertex 3.2 0.5 1
          vertex 2.5 0.8 1
      endloop
  endfacet
  facet normal 0.9615239476408232 -0.2747211278973782 0.0
      outer loop
          vertex 3.2 0.5 0.01
          vertex 3.4000000000000004 1.2000000000000002 0.01
          vertex 3.4000000000000004 1.2000000000000002 1
      endloop
  endfacet
  facet normal 0.9615239476408232 -0.2747211278973782 0.0
      outer loop
          vertex 3.2 0.5 0.01
          vertex 3.4000000000000004 1.2000000000000002 1
          vertex 3.2 0.5 1
      endloop
  endfacet
endsolid obstacle
