solid obstacle
  facet normal 0.0 0.0 -1.0
      outer loop
          vertex 0.9 3.4000000000000004 0.1
          vertex 0.5 3.4000000000000004 0.1
          vertex 0.4 4.2 0.1
      endloop
  endfacet
  facet normal 0.0 0.0 1.0
      outer loop
          vertex 0.9 3.4000000000000004 1
          vertex 0.4 4.2 1
          vertex 0.5 3.4000000000000004 1
      endloop
  endfacet
  facet normal 0.8479983040050879 0.52999894000318 0.0
      outer loop
          vertex 0.9 3.4000000000000004 0.1
          vertex 0.4 4.2 0.1
          vertex 0.4 4.2 1
      endloop
  endfacet
  facet normal 0.8479983040050879 0.52999894000318 -0.0
      outer loop
          vertex 0.9 3.4000000000000004 0.1
          vertex 0.4 4.2 1
          vertex 0.9 3.4000000000000004 1
      endloop
  endfacet
  facet normal -0.9922778767136677 -0.12403473458920847 0.0
      outer loop
          vertex 0.4 4.2 0.1
          vertex 0.5 3.4000000000000004 0.1
          vertex 0.5 3.4000000000000004 1
      endloop
  endfacet
  facet normal -0.9922778767136677 -0.12403473458920847 0.0
      outer loop
          vertex 0.4 4.2 0.1
          vertex 0.5 3.4000000000000004 1
          vertex 0.4 4.2 1
      endloop
  endfacet
  facet normal 0.0 -1.0 0.0
      outer loop
          vertex 0.5 3.4000000000000004 0.1
          vertex 0.9 3.4000000000000004 0.1
          vertex 0.9 3.4000000000000004 1
      endloop
  endfacet
  facet normal 0.0 -1.0 0.0
      outer loop
          vertex 0.5 3.4000000000000004 0.1
          vertex 0.9 3.4000000000000004 1
          vertex 0.5 3.4000000000000004 1
      endloop
  endfacet
endsolid obstacle
