solid obstacle
  facet normal 0.0 0.0 -1.0
      outer loop
          vertex 1.9000000000000001 1.5 0.1
          vertex 2.0 1.9000000000000001 0.1
          vertex 3.2 1.7000000000000002 0.1
      endloop
  endfacet
  facet normal 0.0 0.0 1.0
      outer loop
          vertex 1.9000000000000001 1.5 1
          vertex 3.2 1.7000000000000002 1
          vertex 2.0 1.9000000000000001 1
      endloop
  endfacet
  facet normal 0.1520571842539412 -0.9883716976506172 0.0
      outer loop
          vertex 1.9000000000000001 1.5 0.1
          vertex 3.2 1.7000000000000002 0.1
          vertex 3.2 1.7000000000000002 1
      endloop
  endfacet
  facet normal 0.1520571842539412 -0.9883716976506172 0.0
      outer loop
          vertex 1.9000000000000001 1.5 0.1
          vertex 3.2 1.7000000000000002 1
          vertex 1.9000000000000001 1.5 1
      endloop
  endfacet
  facet normal 0.16439898730535724 0.9863939238321437 0.0
      outer loop
          vertex 3.2 1.7000000000000002 0.1
          vertex 2.0 1.9000000000000001 0.1
          vertex 2.0 1.9000000000000001 1
      endloop
  endfacet
  facet normal 0.16439898730535724 0.9863939238321437 -0.0
      outer loop
          vertex 3.2 1.7000000000000002 0.1
          vertex 2.0 1.9000000000000001 1
          vertex 3.2 1.7000000000000002 1
      endloop
  endfacet
  facet normal -0.970142500145332 0.2425356250363326 0.0
      outer loop
          vertex 2.0 1.9000000000000001 0.1
          vertex 1.9000000000000001 1.5 0.1
          vertex 1.9000000000000001 1.5 1
      endloop
  endfacet
  facet normal -0.970142500145332 0.2425356250363326 0.0
      outer loop
          vertex 2.0 1.9000000000000001 0.1
          vertex 1.9000000000000001 1.5 1
          vertex 2.0 1.9000000000000001 1
      endloop
  endfacet
endsolid obstacle
