solid obstacle
  facet normal -0.0 0.0 -1.0
      outer loop
          vertex 3.5 4.1000000000000005 0.1
          vertex 2.8000000000000003 2.7 0.1
          vertex 1.8 4.4 0.1
      endloop
  endfacet
  facet normal 0.0 -0.0 -1.0
      outer loop
          vertex 3.5 4.1000000000000005 0.1
          vertex 3.5 2.1 0.1
          vertex 2.8000000000000003 2.7 0.1
      endloop
  endfacet
  facet normal 0.0 0.0 1.0
      outer loop
          vertex 3.5 4.1000000000000005 1
          vertex 1.8 4.4 1
          vertex 2.8000000000000003 2.7 1
      endloop
  endfacet
  facet normal 0.0 0.0 1.0
      outer loop
          vertex 3.5 4.1000000000000005 1
          vertex 2.8000000000000003 2.7 1
          vertex 3.5 2.1 1
      endloop
  endfacet
  facet normal 0.17378533390904757 0.9847835588179369 0.0
      outer loop
          vertex 3.5 4.1000000000000005 0.1
          vertex 1.8 4.4 0.1
          vertex 1.8 4.4 1
      endloop
  endfacet
  facet normal 0.17378533390904757 0.9847835588179369 -0.0
      outer loop
          vertex 3.5 4.1000000000000005 0.1
          vertex 1.8 4.4 1
          vertex 3.5 4.1000000000000005 1
      endloop
  endfacet
  facet normal -0.8619342151577695 -0.5070201265633938 0.0
      outer loop
          vertex 1.8 4.4 0.1
          vertex 2.8000000000000003 2.7 0.1
          vertex 2.8000000000000003 2.7 1
      endloop
  endfacet
  facet normal -0.8619342151577695 -0.5070201265633938 0.0
      outer loop
          vertex 1.8 4.4 0.1
          vertex 2.8000000000000003 2.7 1
          vertex 1.8 4.4 1
      endloop
  endfacet
  facet normal -0.6507913734559687 -0.7592566023652964 0.0
      outer loop
          vertex 2.8000000000000003 2.7 0.1
          vertex 3.5 2.1 0.1
          vertex 3.5 2.1 1
      endloop
  endfacet
  facet normal -0.6507913734559687 -0.7592566023652964 0.0
      outer loop
          vertex 2.8000000000000003 2.7 0.1
          vertex 3.5 2.1 1
          vertex 2.8000000000000003 2.7 1
      endloop
  endfacet
  facet normal 1.0 0.0 0.0
      outer loop
          vertex 3.5 2.1 0.1
          vertex 3.5 4.1000000000000005 0.1
          vertex 3.5 4.1000000000000005 1
      endloop
  endfacet
  facet normal 1.0 0.0 0.0
      outer loop
          vertex 3.5 2.1 0.1
          vertex 3.5 4.1000000000000005 1
          vertex 3.5 2.1 1
      endloop
  endfacet
endsolid obstacle
