solid obstacle
  facet normal -0.0 0.0 -1.0
      outer loop
          vertex 1.0 2.0 0.01
          vertex 0.7000000000000001 1.8 0.01
          vertex 0.6000000000000001 3.0 0.01
      endloop
  endfacet
  facet normal 0.0 0.0 1.0
      outer loop
          vertex 1.0 2.0 1
          vertex 0.6000000000000001 3.0 1
          vertex 0.7000000000000001 1.8 1
      endloop
  endfacet
  facet normal 0.9284766908852593 0.3713906763541036 0.0
      outer loop
          vertex 1.0 2.0 0.01
          vertex 0.6000000000000001 3.0 0.01
          vertex 0.6000000000000001 3.0 1
      endloop
  endfacet
  facet normal 0.9284766908852593 0.3713906763541036 -0.0
      outer loop
          vertex 1.0 2.0 0.01
          vertex 0.6000000000000001 3.0 1
          vertex 1.0 2.0 1
      endloop
  endfacet
  facet normal -0.9965457582448796 -0.08304547985373995 0.0
      outer loop
          vertex 0.6000000000000001 3.0 0.01
          vertex 0.7000000000000001 1.8 0.01
          vertex 0.7000000000000001 1.8 1
      endloop
  endfacet
  facet normal -0.9965457582448796 -0.08304547985373995 0.0
      outer loop
          vertex 0.6000000000000001 3.0 0.01
          vertex 0.7000000000000001 1.8 1
          vertex 0.6000000000000001 3.0 1
      endloop
  endfacet
  facet normal 0.554700196225229 -0.8320502943378436 0.0
      outer loop
          vertex 0.7000000000000001 1.8 0.01
          vertex 1.0 2.0 0.01
          vertex 1.0 2.0 1
      endloop
  endfacet
  facet normal 0.554700196225229 -0.8320502943378436 0.0
      outer loop
          vertex 0.7000000000000001 1.8 0.01
          vertex 1.0 2.0 1
          vertex 0.7000000000000001 1.8 1
      endloop
  endfacet
endsolid obstacle
