solid obstacle
  facet normal 0.0 0.0 -1.0
      outer loop
          vertex 1.1 0.2 0.01
          vertex 1.2000000000000002 1.9000000000000001 0.01
          vertex 1.9000000000000001 1.8 0.01
      endloop
  endfacet
  facet normal 0.0 0.0 1.0
      outer loop
          vertex 1.1 0.2 1
          vertex 1.9000000000000001 1.8 1
          vertex 1.2000000000000002 1.9000000000000001 1
      endloop
  endfacet
  facet normal 0.8944271909999159 -0.4472135954999579 0.0
      outer loop
          vertex 1.1 0.2 0.01
          vertex 1.9000000000000001 1.8 0.01
          vertex 1.9000000000000001 1.8 1
      endloop
  endfacet
  facet normal 0.8944271909999159 -0.4472135954999579 0.0
      outer loop
          vertex 1.1 0.2 0.01
          vertex 1.9000000000000001 1.8 1
          vertex 1.1 0.2 1
      endloop
  endfacet
  facet normal 0.14142135623730964 0.9899494936611666 0.0
      outer loop
          vertex 1.9000000000000001 1.8 0.01
          vertex 1.2000000000000002 1.9000000000000001 0.01
          vertex 1.2000000000000002 1.9000000000000001 1
      endloop
  endfacet
  facet normal 0.14142135623730964 0.9899494936611666 -0.0
      outer loop
          vertex 1.9000000000000001 1.8 0.01
          vertex 1.2000000000000002 1.9000000000000001 1
          vertex 1.9000000000000001 1.8 1
      endloop
  endfacet
  facet normal -0.998274373174996 0.0587220219514704 0.0
      outer loop
          vertex 1.2000000000000002 1.9000000000000001 0.01
          vertex 1.1 0.2 0.01
          vertex 1.1 0.2 1
      endloop
  endfacet
  facet normal -0.998274373174996 0.0587220219514704 0.0
      outer loop
          vertex 1.2000000000000002 1.9000000000000001 0.01
          vertex 1.1 0.2 1
          vertex 1.2000000000000002 1.9000000000000001 1
      endloop
  endfacet
endsolid obstacle
