solid obstacle
  facet normal 0.0 0.0 -1.0
      outer loop
          vertex 1.4000000000000001 3.3000000000000003 0.1
          vertex 1.4000000000000001 4.9 0.1
          vertex 2.0 3.3000000000000003 0.1
      endloop
  endfacet
  facet normal 0.0 0.0 1.0
      outer loop
          vertex 1.4000000000000001 3.3000000000000003 1
          vertex 2.0 3.3000000000000003 1
          vertex 1.4000000000000001 4.9 1
      endloop
  endfacet
  facet normal 0.0 -1.0 0.0
      outer loop
          vertex 1.4000000000000001 3.3000000000000003 0.1
          vertex 2.0 3.3000000000000003 0.1
          vertex 2.0 3.3000000000000003 1
      endloop
  endfacet
  facet normal 0.0 -1.0 0.0
      outer loop
          vertex 1.4000000000000001 3.3000000000000003 0.1
          vertex 2.0 3.3000000000000003 1
          vertex 1.4000000000000001 3.3000000000000003 1
      endloop
  endfacet
  facet normal 0.9363291775690447 0.35112344158839165 0.0
      outer loop
          vertex 2.0 3.3000000000000003 0.1
          vertex 1.4000000000000001 4.9 0.1
          vertex 1.4000000000000001 4.9 1
      endloop
  endfacet
  facet normal 0.9363291775690447 0.35112344158839165 -0.0
      outer loop
          vertex 2.0 3.3000000000000003 0.1
          vertex 1.4000000000000001 4.9 1
          vertex 2.0 3.3000000000000003 1
      endloop
  endfacet
  facet normal -1.0 0.0 0.0
      outer loop
          vertex 1.4000000000000001 4.9 0.1
          vertex 1.4000000000000001 3.3000000000000003 0.1
          vertex 1.4000000000000001 3.3000000000000003 1
      endloop
  endfacet
  facet normal -1.0 0.0 0.0
      outer loop
          vertex 1.4000000000000001 4.9 0.1
          vertex 1.4000000000000001 3.3000000000000003 1
          vertex 1.4000000000000001 4.9 1
      endloop
  endfacet
endsolid obstacle
