solid obstacle
  facet normal 0.0 0.0 -1.0
      outer loop
          vertex 1.2000000000000002 1.3 0.01
          vertex 1.2000000000000002 1.6 0.01
          vertex 1.4000000000000001 1.6 0.01
      endloop
  endfacet
  facet normal 0.0 0.0 1.0
      outer loop
          vertex 1.2000000000000002 1.3 1
          vertex 1.4000000000000001 1.6 1
          vertex 1.2000000000000002 1.6 1
      endloop
  endfacet
  facet normal 0.8320502943378438 -0.554700196225229 0.0
      outer loop
          vertex 1.2000000000000002 1.3 0.01
          vertex 1.4000000000000001 1.6 0.01
          vertex 1.4000000000000001 1.6 1
      endloop
  endfacet
  facet normal 0.8320502943378438 -0.554700196225229 0.0
      outer loop
          vertex 1.2000000000000002 1.3 0.01
          vertex 1.4000000000000001 1.6 1
          vertex 1.2000000000000002 1.3 1
      endloop
  endfacet
  facet normal 0.0 1.0 0.0
      outer loop
          vertex 1.4000000000000001 1.6 0.01
          vertex 1.2000000000000002 1.6 0.01
          vertex 1.2000000000000002 1.6 1
      endloop
  endfacet
  facet normal 0.0 1.0 -0.0
      outer loop
          vertex 1.4000000000000001 1.6 0.01
          vertex 1.2000000000000002 1.6 1
          vertex 1.4000000000000001 1.6 1
      endloop
  endfacet
  facet normal -1.0 0.0 0.0
      outer loop
          vertex 1.2000000000000002 1.6 0.01
          vertex 1.2000000000000002 1.3 0.01
          vertex 1.2000000000000002 1.3 1
      endloop
  endfacet
  facet normal -1.0 0.0 0.0
      outer loop
          vertex 1.2000000000000002 1.6 0.01
          vertex 1.2000000000000002 1.3 1
          vertex 1.2000000000000002 1.6 1
      endloop
  endfacet
endsolid obstacle
