solid obstacle
  facet normal -0.0 0.0 -1.0
      outer loop
          vertex 3.1 1.4000000000000001 0.1
          vertex 2.5 0.9 0.1
          vertex 1.9000000000000001 1.7000000000000002 0.1
      endloop
  endfacet
  facet normal 0.0 0.0 1.0
      outer loop
          vertex 3.1 1.4000000000000001 1
          vertex 1.9000000000000001 1.7000000000000002 1
          vertex 2.5 0.9 1
      endloop
  endfacet
  facet normal 0.24253562503633302 0.9701425001453319 0.0
      outer loop
          vertex 3.1 1.4000000000000001 0.1
          vertex 1.9000000000000001 1.7000000000000002 0.1
          vertex 1.9000000000000001 1.7000000000000002 1
      endloop
  endfacet
  facet normal 0.24253562503633302 0.9701425001453319 -0.0
      outer loop
          vertex 3.1 1.4000000000000001 0.1
          vertex 1.9000000000000001 1.7000000000000002 1
          vertex 3.1 1.4000000000000001 1
      endloop
  endfacet
  facet normal -0.8 -0.5999999999999999 0.0
      outer loop
          vertex 1.9000000000000001 1.7000000000000002 0.1
          vertex 2.5 0.9 0.1
          vertex 2.5 0.9 1
      endloop
  endfacet
  facet normal -0.8 -0.5999999999999999 0.0
      outer loop
          vertex 1.9000000000000001 1.7000000000000002 0.1
          vertex 2.5 0.9 1
          vertex 1.9000000000000001 1.7000000000000002 1
      endloop
  endfacet
  facet normal 0.6401843996644798 -0.7682212795973759 0.0
      outer loop
          vertex 2.5 0.9 0.1
          vertex 3.1 1.4000000000000001 0.1
          vertex 3.1 1.4000000000000001 1
      endloop
  endfacet
  facet normal 0.6401843996644798 -0.7682212795973759 0.0
      outer loop
          vertex 2.5 0.9 0.1
          vertex 3.1 1.4000000000000001 1
          vertex 2.5 0.9 1
      endloop
  endfacet
endsolid obstacle
