solid obstacle
  facet normal 0.0 0.0 -1.0
      outer loop
          vertex 4.7 0.4 0.01
          vertex 4.2 0.9 0.01
          vertex 3.7 1.8 0.01
      endloop
  endfacet
  facet normal 0.0 0.0 1.0
      outer loop
          vertex 4.7 0.4 1
          vertex 3.7 1.8 1
          vertex 4.2 0.9 1
      endloop
  endfacet
  facet normal 0.8137334712067349 0.5812381937190965 0.0
      outer loop
          vertex 4.7 0.4 0.01
          vertex 3.7 1.8 0.01
          vertex 3.7 1.8 1
      endloop
  endfacet
  facet normal 0.8137334712067349 0.5812381937190965 -0.0
      outer loop
          vertex 4.7 0.4 0.01
          vertex 3.7 1.8 1
          vertex 4.7 0.4 1
      endloop
  endfacet
  facet normal -0.8741572761215377 -0.48564293117863205 0.0
      outer loop
          vertex 3.7 1.8 0.01
          vertex 4.2 0.9 0.01
          vertex 4.2 0.9 1
      endloop
  endfacet
  facet normal -0.8741572761215377 -0.48564293117863205 0.0
      outer loop
          vertex 3.7 1.8 0.01
          vertex 4.2 0.9 1
          vertex 3.7 1.8 1
      endloop
  endfacet
  facet normal -0.7071067811865475 -0.7071067811865475 0.0
      outer loop
          vertex 4.2 0.9 0.01
          vertex 4.7 0.4 0.01
          vertex 4.7 0.4 1
      endloop
  endfacet
  facet normal -0.7071067811865475 -0.7071067811865475 0.0
      outer loop
          vertex 4.2 0.9 0.01
          vertex 4.7 0.4 1
          vertex 4.2 0.9 1
      endloop
  endfacet
endsolid obstacle
