solid obstacle
  facet normal 0.0 0.0 -1.0
      outer loop
          vertex 1.6 3.6 0.1
          vertex 0.1 2.5 0.1
          vertex 0.0 3.1 0.1
      endloop
  endfacet
  facet normal 0.0 0.0 1.0
      outer loop
          vertex 1.6 3.6 1
          vertex 0.0 3.1 1
          vertex 0.1 2.5 1
      endloop
  endfacet
  facet normal -0.2982749931359468 0.9544799780350298 0.0
      outer loop
          vertex 1.6 3.6 0.1
          vertex 0.0 3.1 0.1
          vertex 0.0 3.1 1
      endloop
  endfacet
  facet normal -0.2982749931359468 0.9544799780350298 0.0
      outer loop
          vertex 1.6 3.6 0.1
          vertex 0.0 3.1 1
          vertex 1.6 3.6 1
      endloop
  endfacet
  facet normal -0.9863939238321437 -0.16439898730535726 0.0
      outer loop
          vertex 0.0 3.1 0.1
          vertex 0.1 2.5 0.1
          vertex 0.1 2.5 1
      endloop
  endfacet
  facet normal -0.9863939238321437 -0.16439898730535726 0.0
      outer loop
          vertex 0.0 3.1 0.1
          vertex 0.1 2.5 1
          vertex 0.0 3.1 1
      endloop
  endfacet
  facet normal 0.5913636636275175 -0.8064049958557056 0.0
      outer loop
          vertex 0.1 2.5 0.1
          vertex 1.6 3.6 0.1
          vertex 1.6 3.6 1
      endloop
  endfacet
  facet normal 0.5913636636275175 -0.8064049958557056 0.0
      outer loop
          vertex 0.1 2.5 0.1
          vertex 1.6 3.6 1
          vertex 0.1 2.5 1
      endloop
  endfacet
endsolid obstacle
