solid obstacle
  facet normal -0.0 0.0 -1.0
      outer loop
          vertex 2.6 0.9 0.01
          vertex 2.5 0.6000000000000001 0.01
          vertex 1.3 1.2000000000000002 0.01
      endloop
  endfacet
  facet normal 0.0 0.0 1.0
      outer loop
          vertex 2.6 0.9 1
          vertex 1.3 1.2000000000000002 1
          vertex 2.5 0.6000000000000001 1
      endloop
  endfacet
  facet normal 0.22485950669875857 0.97439119569462 0.0
      outer loop
          vertex 2.6 0.9 0.01
          vertex 1.3 1.2000000000000002 0.01
          vertex 1.3 1.2000000000000002 1
      endloop
  endfacet
  facet normal 0.22485950669875857 0.97439119569462 -0.0
      outer loop
          vertex 2.6 0.9 0.01
          vertex 1.3 1.2000000000000002 1
          vertex 2.6 0.9 1
      endloop
  endfacet
  facet normal -0.447213595499958 -0.8944271909999159 0.0
      outer loop
          vertex 1.3 1.2000000000000002 0.01
          vertex 2.5 0.6000000000000001 0.01
          vertex 2.5 0.6000000000000001 1
      endloop
  endfacet
  facet normal -0.447213595499958 -0.8944271909999159 0.0
      outer loop
          vertex 1.3 1.2000000000000002 0.01
          vertex 2.5 0.6000000000000001 1
          vertex 1.3 1.2000000000000002 1
      endloop
  endfacet
  facet normal 0.9486832980505137 -0.3162277660168382 0.0
      outer loop
          vertex 2.5 0.6000000000000001 0.01
          vertex 2.6 0.9 0.01
          vertex 2.6 0.9 1
      endloop
  endfacet
  facet normal 0.9486832980505137 -0.3162277660168382 0.0
      outer loop
          vertex 2.5 0.6000000000000001 0.01
          vertex 2.6 0.9 1
          vertex 2.5 0.6000000000000001 1
      endloop
  endfacet
endsolid obstacle
