solid obstacle
  facet normal 0.0 0.0 -1.0
      outer loop
          vertex 2.1 3.7 0.1
          vertex 2.4000000000000004 3.8000000000000003 0.1
          vertex 2.7 3.8000000000000003 0.1
      endloop
  endfacet
  facet normal 0.0 0.0 1.0
      outer loop
          vertex 2.1 3.7 1
          vertex 2.7 3.8000000000000003 1
          vertex 2.4000000000000004 3.8000000000000003 1
      endloop
  endfacet
  facet normal 0.1643989873053574 -0.9863939238321437 0.0
      outer loop
          vertex 2.1 3.7 0.1
          vertex 2.7 3.8000000000000003 0.1
          vertex 2.7 3.8000000000000003 1
      endloop
  endfacet
  facet normal 0.1643989873053574 -0.9863939238321437 0.0
      outer loop
          vertex 2.1 3.7 0.1
          vertex 2.7 3.8000000000000003 1
          vertex 2.1 3.7 1
      endloop
  endfacet
  facet normal 0.0 1.0 0.0
      outer loop
          vertex 2.7 3.8000000000000003 0.1
          vertex 2.4000000000000004 3.8000000000000003 0.1
          vertex 2.4000000000000004 3.8000000000000003 1
      endloop
  endfacet
  facet normal 0.0 1.0 -0.0
      outer loop
          vertex 2.7 3.8000000000000003 0.1
          vertex 2.4000000000000004 3.8000000000000003 1
          vertex 2.7 3.8000000000000003 1
      endloop
  endfacet
  facet normal -0.31622776601683794 0.9486832980505138 0.0
      outer loop
          vertex 2.4000000000000004 3.8000000000000003 0.1
          vertex 2.1 3.7 0.1
          vertex 2.1 3.7 1
      endloop
  endfacet
  facet normal -0.31622776601683794 0.9486832980505138 0.0
      outer loop
          vertex 2.4000000000000004 3.8000000000000003 0.1
          vertex 2.1 3.7 1
          vertex 2.4000000000000004 3.8000000000000003 1
      endloop
  endfacet
endsolid obstacle
