solid obstacle
  facet normal 0.0 0.0 -1.0
      outer loop
          vertex 2.2 4.800000000000001 0.01
          vertex 0.9 3.8000000000000003 0.01
          vertex 0.9 4.0 0.01
      endloop
  endfacet
  facet normal 0.0 0.0 1.0
      outer loop
          vertex 2.2 4.800000000000001 1
          vertex 0.9 4.0 1
          vertex 0.9 3.8000000000000003 1
      endloop
  endfacet
  facet normal -0.5240974256643349 0.8516583167045436 0.0
      outer loop
          vertex 2.2 4.800000000000001 0.01
          vertex 0.9 4.0 0.01
          vertex 0.9 4.0 1
      endloop
  endfacet
  facet normal -0.5240974256643349 0.8516583167045436 0.0
      outer loop
          vertex 2.2 4.800000000000001 0.01
          vertex 0.9 4.0 1
          vertex 2.2 4.800000000000001 1
      endloop
  endfacet
  facet normal -1.0 0.0 0.0
      outer loop
          vertex 0.9 4.0 0.01
          vertex 0.9 3.8000000000000003 0.01
          vertex 0.9 3.8000000000000003 1
      endloop
  endfacet
  facet normal -1.0 0.0 0.0
      outer loop
          vertex 0.9 4.0 0.01
          vertex 0.9 3.8000000000000003 1
          vertex 0.9 4.0 1
      endloop
  endfacet
  facet normal 0.6097107608496926 -0.7926239891046001 0.0
      outer loop
          vertex 0.9 3.8000000000000003 0.01
          vertex 2.2 4.800000000000001 0.01
          vertex 2.2 4.800000000000001 1
      endloop
  endfacet
  facet normal 0.6097107608496926 -0.7926239891046001 0.0
      outer loop
          vertex 0.9 3.8000000000000003 0.01
          vertex 2.2 4.800000000000001 1
          vertex 0.9 3.8000000000000003 1
      endloop
  endfacet
endsolid obstacle
