solid obstacle
  facet normal 0.0 0.0 -1.0
      outer loop
          vertex 4.3 3.2 0.01
          vertex 4.0 3.5 0.01
          vertex 3.9000000000000004 4.7 0.01
      endloop
  endfacet
  facet normal 0.0 0.0 1.0
      outer loop
          vertex 4.3 3.2 1
          vertex 3.9000000000000004 4.7 1
          vertex 4.0 3.5 1
      endloop
  endfacet
  facet normal 0.9662349396012464 0.25766265056033205 0.0
      outer loop
          vertex 4.3 3.2 0.01
          vertex 3.9000000000000004 4.7 0.01
          vertex 3.9000000000000004 4.7 1
      endloop
  endfacet
  facet normal 0.9662349396012464 0.25766265056033205 -0.0
      outer loop
          vertex 4.3 3.2 0.01
          vertex 3.9000000000000004 4.7 1
          vertex 4.3 3.2 1
      endloop
  endfacet
  facet normal -0.9965457582448796 -0.08304547985373965 0.0
      outer loop
          vertex 3.9000000000000004 4.7 0.01
          vertex 4.0 3.5 0.01
          vertex 4.0 3.5 1
      endloop
  endfacet
  facet normal -0.9965457582448796 -0.08304547985373965 0.0
      outer loop
          vertex 3.9000000000000004 4.7 0.01
          vertex 4.0 3.5 1
          vertex 3.9000000000000004 4.7 1
      endloop
  endfacet
  facet normal -0.7071067811865476 -0.7071067811865476 0.0
      outer loop
          vertex 4.0 3.5 0.01
          vertex 4.3 3.2 0.01
          vertex 4.3 3.2 1
      endloop
  endfacet
  facet normal -0.7071067811865476 -0.7071067811865476 0.0
      outer loop
          vertex 4.0 3.5 0.01
          vertex 4.3 3.2 1
          vertex 4.0 3.5 1
      endloop
  endfacet
endsolid obstacle
