solid obstacle
  facet normal 0.0 0.0 -1.0
      outer loop
          vertex 1.8 1.3 0.01
          vertex 2.5 1.8 0.01
          vertex 2.9000000000000004 1.3 0.01
      endloop
  endfacet
  facet normal 0.0 0.0 1.0
      outer loop
          vertex 1.8 1.3 1
          vertex 2.9000000000000004 1.3 1
          vertex 2.5 1.8 1
      endloop
  endfacet
  facet normal 0.0 -1.0 0.0
      outer loop
          vertex 1.8 1.3 0.01
          vertex 2.9000000000000004 1.3 0.01
          vertex 2.9000000000000004 1.3 1
      endloop
  endfacet
  facet normal 0.0 -1.0 0.0
      outer loop
          vertex 1.8 1.3 0.01
          vertex 2.9000000000000004 1.3 1
          vertex 1.8 1.3 1
      endloop
  endfacet
  facet normal 0.7808688094430299 0.6246950475544245 0.0
      outer loop
          vertex 2.9000000000000004 1.3 0.01
          vertex 2.5 1.8 0.01
          vertex 2.5 1.8 1
      endloop
  endfacet
  facet normal 0.7808688094430299 0.6246950475544245 -0.0
      outer loop
          vertex 2.9000000000000004 1.3 0.01
          vertex 2.5 1.8 1
          vertex 2.9000000000000004 1.3 1
      endloop
  endfacet
  facet normal -0.5812381937190965 0.8137334712067349 0.0
      outer loop
          vertex 2.5 1.8 0.01
          vertex 1.8 1.3 0.01
          vertex 1.8 1.3 1
      endloop
  endfacet
  facet normal -0.5812381937190965 0.8137334712067349 0.0
      outer loop
          vertex 2.5 1.8 0.01
          vertex 1.8 1.3 1
          vertex 2.5 1.8 1
      endloop
  endfacet
endsolid obstacle
