solid obstacle
  facet normal 0.0 0.0 -1.0
      outer loop
          vertex 0.4 2.4000000000000004 0.01
          vertex 0.0 0.6000000000000001 0.01
          vertex 0.0 1.2000000000000002 0.01
      endloop
  endfacet
  facet normal 0.0 -0.0 -1.0
      outer loop
          vertex 0.4 2.4000000000000004 0.01
          vertex 1.0 1.2000000000000002 0.01
          vertex 0.0 0.6000000000000001 0.01
      endloop
  endfacet
  facet normal 0.0 0.0 1.0
      outer loop
          vertex 0.4 2.4000000000000004 1
          vertex 0.0 1.2000000000000002 1
          vertex 0.0 0.6000000000000001 1
      endloop
  endfacet
  facet normal 0.0 0.0 1.0
      outer loop
          vertex 0.4 2.4000000000000004 1
          vertex 0.0 0.6000000000000001 1
          vertex 1.0 1.2000000000000002 1
      endloop
  endfacet
  facet normal -0.9486832980505139 0.31622776601683794 0.0
      outer loop
          vertex 0.4 2.4000000000000004 0.01
          vertex 0.0 1.2000000000000002 0.01
          vertex 0.0 1.2000000000000002 1
      endloop
  endfacet
  facet normal -0.9486832980505139 0.31622776601683794 0.0
      outer loop
          vertex 0.4 2.4000000000000004 0.01
          vertex 0.0 1.2000000000000002 1
          vertex 0.4 2.4000000000000004 1
      endloop
  endfacet
  facet normal -1.0 0.0 0.0
      outer loop
          vertex 0.0 1.2000000000000002 0.01
          vertex 0.0 0.6000000000000001 0.01
          vertex 0.0 0.6000000000000001 1
      endloop
  endfacet
  facet normal -1.0 0.0 0.0
      outer loop
          vertex 0.0 1.2000000000000002 0.01
          vertex 0.0 0.6000000000000001 1
          vertex 0.0 1.2000000000000002 1
      endloop
  endfacet
  facet normal 0.5144957554275266 -0.8574929257125441 0.0
      outer loop
          vertex 0.0 0.6000000000000001 0.01
          vertex 1.0 1.2000000000000002 0.01
          vertex 1.0 1.2000000000000002 1
      endloop
  endfacet
  facet normal 0.5144957554275266 -0.8574929257125441 0.0
      outer loop
          vertex 0.0 0.6000000000000001 0.01
          vertex 1.0 1.2000000000000002 1
          vertex 0.0 0.6000000000000001 1
      endloop
  endfacet
  facet normal 0.8944271909999159 0.4472135954999578 0.0
      outer loop
          vertex 1.0 1.2000000000000002 0.01
          vertex 0.4 2.4000000000000004 0.01
          vertex 0.4 2.4000000000000004 1
      endloop
  endfacet
  facet normal 0.8944271909999159 0.4472135954999578 -0.0
      outer loop
          vertex 1.0 1.2000000000000002 0.01
          vertex 0.4 2.4000000000000004 1
          vertex 1.0 1.2000000000000002 1
      endloop
  endfacet
endsolid obstacle
