solid obstacle
  facet normal -0.0 0.0 -1.0
      outer loop
          vertex 4.800000000000001 3.6 0.01
          vertex 3.5 3.1 0.01
          vertex 3.4000000000000004 4.1000000000000005 0.01
      endloop
  endfacet
  facet normal 0.0 0.0 1.0
      outer loop
          vertex 4.800000000000001 3.6 1
          vertex 3.4000000000000004 4.1000000000000005 1
          vertex 3.5 3.1 1
      endloop
  endfacet
  facet normal 0.33633639699815643 0.9417419115948374 0.0
      outer loop
          vertex 4.800000000000001 3.6 0.01
          vertex 3.4000000000000004 4.1000000000000005 0.01
          vertex 3.4000000000000004 4.1000000000000005 1
      endloop
  endfacet
  facet normal 0.33633639699815643 0.9417419115948374 -0.0
      outer loop
          vertex 4.800000000000001 3.6 0.01
          vertex 3.4000000000000004 4.1000000000000005 1
          vertex 4.800000000000001 3.6 1
      endloop
  endfacet
  facet normal -0.9950371902099892 -0.09950371902099851 0.0
      outer loop
          vertex 3.4000000000000004 4.1000000000000005 0.01
          vertex 3.5 3.1 0.01
          vertex 3.5 3.1 1
      endloop
  endfacet
  facet normal -0.9950371902099892 -0.09950371902099851 0.0
      outer loop
          vertex 3.4000000000000004 4.1000000000000005 0.01
          vertex 3.5 3.1 1
          vertex 3.4000000000000004 4.1000000000000005 1
      endloop
  endfacet
  facet normal 0.3589790793088689 -0.9333456062030596 0.0
      outer loop
          vertex 3.5 3.1 0.01
          vertex 4.800000000000001 3.6 0.01
          vertex 4.800000000000001 3.6 1
      endloop
  endfacet
  facet normal 0.3589790793088689 -0.9333456062030596 0.0
      outer loop
          vertex 3.5 3.1 0.01
          vertex 4.800000000000001 3.6 1
          vertex 3.5 3.1 1
      endloop
  endfacet
endsolid obstacle
