solid obstacle
  facet normal 0.0 0.0 -1.0
      outer loop
          vertex 1.4000000000000001 0.2 0.01
          vertex 1.6 0.4 0.01
          vertex 1.8 0.5 0.01
      endloop
  endfacet
  facet normal 0.0 0.0 1.0
      outer loop
          vertex 1.4000000000000001 0.2 1
          vertex 1.8 0.5 1
          vertex 1.6 0.4 1
      endloop
  endfacet
  facet normal 0.6000000000000001 -0.7999999999999999 0.0
      outer loop
          vertex 1.4000000000000001 0.2 0.01
          vertex 1.8 0.5 0.01
          vertex 1.8 0.5 1
      endloop
  endfacet
  facet normal 0.6000000000000001 -0.7999999999999999 0.0
      outer loop
          vertex 1.4000000000000001 0.2 0.01
          vertex 1.8 0.5 1
          vertex 1.4000000000000001 0.2 1
      endloop
  endfacet
  facet normal -0.4472135954999579 0.8944271909999159 0.0
      outer loop
          vertex 1.8 0.5 0.01
          vertex 1.6 0.4 0.01
          vertex 1.6 0.4 1
      endloop
  endfacet
  facet normal -0.4472135954999579 0.8944271909999159 0.0
      outer loop
          vertex 1.8 0.5 0.01
          vertex 1.6 0.4 1
          vertex 1.8 0.5 1
      endloop
  endfacet
  facet normal -0.7071067811865477 0.7071067811865475 0.0
      outer loop
          vertex 1.6 0.4 0.01
          vertex 1.4000000000000001 0.2 0.01
          vertex 1.4000000000000001 0.2 1
      endloop
  endfacet
  facet normal -0.7071067811865477 0.7071067811865475 0.0
      outer loop
          vertex 1.6 0.4 0.01
          vertex 1.4000000000000001 0.2 1
          vertex 1.6 0.4 1
      endloop
  endfacet
endsolid obstacle
