solid obstacle
  facet normal 0.0 0.0 -1.0
      outer loop
          vertex 2.4000000000000004 2.8000000000000003 0.1
          vertex 2.2 2.1 0.1
          vertex 1.0 1.9000000000000001 0.1
      endloop
  endfacet
  facet normal 0.0 0.0 1.0
      outer loop
          vertex 2.4000000000000004 2.8000000000000003 1
          vertex 1.0 1.9000000000000001 1
          vertex 2.2 2.1 1
      endloop
  endfacet
  facet normal -0.5407575913134987 0.8411784753765537 0.0
      outer loop
          vertex 2.4000000000000004 2.8000000000000003 0.1
          vertex 1.0 1.9000000000000001 0.1
          vertex 1.0 1.9000000000000001 1
      endloop
  endfacet
  facet normal -0.5407575913134987 0.8411784753765537 0.0
      outer loop
          vertex 2.4000000000000004 2.8000000000000003 0.1
          vertex 1.0 1.9000000000000001 1
          vertex 2.4000000000000004 2.8000000000000003 1
      endloop
  endfacet
  facet normal 0.16439898730535724 -0.9863939238321437 0.0
      outer loop
          vertex 1.0 1.9000000000000001 0.1
          vertex 2.2 2.1 0.1
          vertex 2.2 2.1 1
      endloop
  endfacet
  facet normal 0.16439898730535724 -0.9863939238321437 0.0
      outer loop
          vertex 1.0 1.9000000000000001 0.1
          vertex 2.2 2.1 1
          vertex 1.0 1.9000000000000001 1
      endloop
  endfacet
  facet normal 0.9615239476408232 -0.2747211278973782 0.0
      outer loop
          vertex 2.2 2.1 0.1
          vertex 2.4000000000000004 2.8000000000000003 0.1
          vertex 2.4000000000000004 2.8000000000000003 1
      endloop
  endfacet
  facet normal 0.9615239476408232 -0.2747211278973782 0.0
      outer loop
          vertex 2.2 2.1 0.1
          vertex 2.4000000000000004 2.8000000000000003 1
          vertex 2.2 2.1 1
      endloop
  endfacet
endsolid obstacle
