solid obstacle
  facet normal 0.0 0.0 -1.0
      outer loop
          vertex 1.5 2.5 0.1
          vertex 0.9 0.9 0.1
          vertex 0.5 1.8 0.1
      endloop
  endfacet
  facet normal 0.0 0.0 1.0
      outer loop
          vertex 1.5 2.5 1
          vertex 0.5 1.8 1
          vertex 0.9 0.9 1
      endloop
  endfacet
  facet normal -0.5734623443633283 0.8192319205190404 0.0
      outer loop
          vertex 1.5 2.5 0.1
          vertex 0.5 1.8 0.1
          vertex 0.5 1.8 1
      endloop
  endfacet
  facet normal -0.5734623443633283 0.8192319205190404 0.0
      outer loop
          vertex 1.5 2.5 0.1
          vertex 0.5 1.8 1
          vertex 1.5 2.5 1
      endloop
  endfacet
  facet normal -0.9138115486202572 -0.4061384660534476 0.0
      outer loop
          vertex 0.5 1.8 0.1
          vertex 0.9 0.9 0.1
          vertex 0.9 0.9 1
      endloop
  endfacet
  facet normal -0.9138115486202572 -0.4061384660534476 0.0
      outer loop
          vertex 0.5 1.8 0.1
          vertex 0.9 0.9 1
          vertex 0.5 1.8 1
      endloop
  endfacet
  facet normal 0.9363291775690447 -0.3511234415883917 0.0
      outer loop
          vertex 0.9 0.9 0.1
          vertex 1.5 2.5 0.1
          vertex 1.5 2.5 1
      endloop
  endfacet
  facet normal 0.9363291775690447 -0.3511234415883917 0.0
      outer loop
          vertex 0.9 0.9 0.1
          vertex 1.5 2.5 1
          vertex 0.9 0.9 1
      endloop
  endfacet
endsolid obstacle
