solid obstacle
  facet normal 0.0 0.0 -1.0
      outer loop
          vertex 2.1 1.7000000000000002 0.1
          vertex 1.8 1.4000000000000001 0.1
          vertex 1.4000000000000001 1.6 0.1
      endloop
  endfacet
  facet normal 0.0 0.0 1.0
      outer loop
          vertex 2.1 1.7000000000000002 1
          vertex 1.4000000000000001 1.6 1
          vertex 1.8 1.4000000000000001 1
      endloop
  endfacet
  facet normal -0.14142135623730964 0.9899494936611666 0.0
      outer loop
          vertex 2.1 1.7000000000000002 0.1
          vertex 1.4000000000000001 1.6 0.1
          vertex 1.4000000000000001 1.6 1
      endloop
  endfacet
  facet normal -0.14142135623730964 0.9899494936611666 0.0
      outer loop
          vertex 2.1 1.7000000000000002 0.1
          vertex 1.4000000000000001 1.6 1
          vertex 2.1 1.7000000000000002 1
      endloop
  endfacet
  facet normal -0.447213595499958 -0.894427190999916 0.0
      outer loop
          vertex 1.4000000000000001 1.6 0.1
          vertex 1.8 1.4000000000000001 0.1
          vertex 1.8 1.4000000000000001 1
      endloop
  endfacet
  facet normal -0.447213595499958 -0.894427190999916 0.0
      outer loop
          vertex 1.4000000000000001 1.6 0.1
          vertex 1.8 1.4000000000000001 1
          vertex 1.4000000000000001 1.6 1
      endloop
  endfacet
  facet normal 0.7071067811865476 -0.7071067811865476 0.0
      outer loop
          vertex 1.8 1.4000000000000001 0.1
          vertex 2.1 1.7000000000000002 0.1
          vertex 2.1 1.7000000000000002 1
      endloop
  endfacet
  facet normal 0.7071067811865476 -0.7071067811865476 0.0
      outer loop
          vertex 1.8 1.4000000000000001 0.1
          vertex 2.1 1.7000000000000002 1
          vertex 1.8 1.4000000000000001 1
      endloop
  endfacet
endsolid obstacle
