solid obstacle
  facet normal 0.0 0.0 -1.0
      outer loop
          vertex 1.5 2.3000000000000003 0.01
          vertex 2.4000000000000004 3.5 0.01
          vertex 2.5 2.7 0.01
      endloop
  endfacet
  facet normal 0.0 0.0 1.0
      outer loop
          vertex 1.5 2.3000000000000003 1
          vertex 2.5 2.7 1
          vertex 2.4000000000000004 3.5 1
      endloop
  endfacet
  facet normal 0.3713906763541036 -0.9284766908852593 0.0
      outer loop
          vertex 1.5 2.3000000000000003 0.01
          vertex 2.5 2.7 0.01
          vertex 2.5 2.7 1
      endloop
  endfacet
  facet normal 0.3713906763541036 -0.9284766908852593 0.0
      outer loop
          vertex 1.5 2.3000000000000003 0.01
          vertex 2.5 2.7 1
          vertex 1.5 2.3000000000000003 1
      endloop
  endfacet
  facet normal 0.9922778767136677 0.12403473458920805 0.0
      outer loop
          vertex 2.5 2.7 0.01
          vertex 2.4000000000000004 3.5 0.01
          vertex 2.4000000000000004 3.5 1
      endloop
  endfacet
  facet normal 0.9922778767136677 0.12403473458920805 -0.0
      outer loop
          vertex 2.5 2.7 0.01
          vertex 2.4000000000000004 3.5 1
          vertex 2.5 2.7 1
      endloop
  endfacet
  facet normal -0.7999999999999997 0.6000000000000002 0.0
      outer loop
          vertex 2.4000000000000004 3.5 0.01
          vertex 1.5 2.3000000000000003 0.01
          vertex 1.5 2.3000000000000003 1
      endloop
  endfacet
  facet normal -0.7999999999999997 0.6000000000000002 0.0
      outer loop
          vertex 2.4000000000000004 3.5 0.01
          vertex 1.5 2.3000000000000003 1
          vertex 2.4000000000000004 3.5 1
      endloop
  endfacet
endsolid obstacle
