solid obstacle
  facet normal 0.0 0.0 -1.0
      outer loop
          vertex 3.0 3.1 0.1
          vertex 3.1 3.8000000000000003 0.1
          vertex 4.7 3.4000000000000004 0.1
      endloop
  endfacet
  facet normal 0.0 0.0 1.0
      outer loop
          vertex 3.0 3.1 1
          vertex 4.7 3.4000000000000004 1
          vertex 3.1 3.8000000000000003 1
      endloop
  endfacet
  facet normal 0.1737853339090478 -0.9847835588179367 0.0
      outer loop
          vertex 3.0 3.1 0.1
          vertex 4.7 3.4000000000000004 0.1
          vertex 4.7 3.4000000000000004 1
      endloop
  endfacet
  facet normal 0.1737853339090478 -0.9847835588179367 0.0
      outer loop
          vertex 3.0 3.1 0.1
          vertex 4.7 3.4000000000000004 1
          vertex 3.0 3.1 1
      endloop
  endfacet
  facet normal 0.24253562503633294 0.970142500145332 0.0
      outer loop
          vertex 4.7 3.4000000000000004 0.1
          vertex 3.1 3.8000000000000003 0.1
          vertex 3.1 3.8000000000000003 1
      endloop
  endfacet
  facet normal 0.24253562503633294 0.970142500145332 -0.0
      outer loop
          vertex 4.7 3.4000000000000004 0.1
          vertex 3.1 3.8000000000000003 1
          vertex 4.7 3.4000000000000004 1
      endloop
  endfacet
  facet normal -0.9899494936611666 0.1414213562373096 0.0
      outer loop
          vertex 3.1 3.8000000000000003 0.1
          vertex 3.0 3.1 0.1
          vertex 3.0 3.1 1
      endloop
  endfacet
  facet normal -0.9899494936611666 0.1414213562373096 0.0
      outer loop
          vertex 3.1 3.8000000000000003 0.1
          vertex 3.0 3.1 1
          vertex 3.1 3.8000000000000003 1
      endloop
  endfacet
endsolid obstacle
