solid obstacle
  facet normal 0.0 0.0 -1.0
      outer loop
          vertex 0.9 4.4 0.1
          vertex 1.7000000000000002 4.4 0.1
          vertex 1.7000000000000002 3.1 0.1
      endloop
  endfacet
  facet normal -0.0 0.0 1.0
      outer loop
          vertex 0.9 4.4 1
          vertex 1.7000000000000002 3.1 1
          vertex 1.7000000000000002 4.4 1
      endloop
  endfacet
  facet normal -0.851658316704544 -0.5240974256643347 0.0
      outer loop
          vertex 0.9 4.4 0.1
          vertex 1.7000000000000002 3.1 0.1
          vertex 1.7000000000000002 3.1 1
      endloop
  endfacet
  facet normal -0.851658316704544 -0.5240974256643347 0.0
      outer loop
          vertex 0.9 4.4 0.1
          vertex 1.7000000000000002 3.1 1
          vertex 0.9 4.4 1
      endloop
  endfacet
  facet normal 1.0 0.0 0.0
      outer loop
          vertex 1.7000000000000002 3.1 0.1
          vertex 1.7000000000000002 4.4 0.1
          vertex 1.7000000000000002 4.4 1
      endloop
  endfacet
  facet normal 1.0 0.0 0.0
      outer loop
          vertex 1.7000000000000002 3.1 0.1
          vertex 1.7000000000000002 4.4 1
          vertex 1.7000000000000002 3.1 1
      endloop
  endfacet
  facet normal 0.0 1.0 0.0
      outer loop
          vertex 1.7000000000000002 4.4 0.1
          vertex 0.9 4.4 0.1
          vertex 0.9 4.4 1
      endloop
  endfacet
  facet normal 0.0 1.0 -0.0
      outer loop
          vertex 1.7000000000000002 4.4 0.1
          vertex 0.9 4.4 1
          vertex 1.7000000000000002 4.4 1
      endloop
  endfacet
endsolid obstacle
