solid obstacle
  facet normal 0.0 0.0 -1.0
      outer loop
          vertex 1.6 1.2000000000000002 0.01
          vertex 2.4000000000000004 2.9000000000000004 0.01
          vertex 2.8000000000000003 1.4000000000000001 0.01
      endloop
  endfacet
  facet normal 0.0 0.0 1.0
      outer loop
          vertex 1.6 1.2000000000000002 1
          vertex 2.8000000000000003 1.4000000000000001 1
          vertex 2.4000000000000004 2.9000000000000004 1
      endloop
  endfacet
  facet normal 0.1643989873053572 -0.9863939238321436 0.0
      outer loop
          vertex 1.6 1.2000000000000002 0.01
          vertex 2.8000000000000003 1.4000000000000001 0.01
          vertex 2.8000000000000003 1.4000000000000001 1
      endloop
  endfacet
  facet normal 0.1643989873053572 -0.9863939238321436 0.0
      outer loop
          vertex 1.6 1.2000000000000002 0.01
          vertex 2.8000000000000003 1.4000000000000001 1
          vertex 1.6 1.2000000000000002 1
      endloop
  endfacet
  facet normal 0.9662349396012463 0.2576626505603323 0.0
      outer loop
          vertex 2.8000000000000003 1.4000000000000001 0.01
          vertex 2.4000000000000004 2.9000000000000004 0.01
          vertex 2.4000000000000004 2.9000000000000004 1
      endloop
  endfacet
  facet normal 0.9662349396012463 0.2576626505603323 -0.0
      outer loop
          vertex 2.8000000000000003 1.4000000000000001 0.01
          vertex 2.4000000000000004 2.9000000000000004 1
          vertex 2.8000000000000003 1.4000000000000001 1
      endloop
  endfacet
  facet normal -0.904818702200994 0.4257970363298797 0.0
      outer loop
          vertex 2.4000000000000004 2.9000000000000004 0.01
          vertex 1.6 1.2000000000000002 0.01
          vertex 1.6 1.2000000000000002 1
      endloop
  endfacet
  facet normal -0.904818702200994 0.4257970363298797 0.0
      outer loop
          vertex 2.4000000000000004 2.9000000000000004 0.01
          vertex 1.6 1.2000000000000002 1
          vertex 2.4000000000000004 2.9000000000000004 1
      endloop
  endfacet
endsolid obstacle
