solid obstacle
  facet normal -0.0 -0.0 -1.0
      outer loop
          vertex 1.6 0.7000000000000001 0.01
          vertex 1.6 0.6000000000000001 0.01
          vertex 1.2000000000000002 0.7000000000000001 0.01
      endloop
  endfacet
  facet normal 0.0 0.0 1.0
      outer loop
          vertex 1.6 0.7000000000000001 1
          vertex 1.2000000000000002 0.7000000000000001 1
          vertex 1.6 0.6000000000000001 1
      endloop
  endfacet
  facet normal 0.0 1.0 0.0
      outer loop
          vertex 1.6 0.7000000000000001 0.01
          vertex 1.2000000000000002 0.7000000000000001 0.01
          vertex 1.2000000000000002 0.7000000000000001 1
      endloop
  endfacet
  facet normal 0.0 1.0 -0.0
      outer loop
          vertex 1.6 0.7000000000000001 0.01
          vertex 1.2000000000000002 0.7000000000000001 1
          vertex 1.6 0.7000000000000001 1
      endloop
  endfacet
  facet normal -0.24253562503633297 -0.9701425001453319 0.0
      outer loop
          vertex 1.2000000000000002 0.7000000000000001 0.01
          vertex 1.6 0.6000000000000001 0.01
          vertex 1.6 0.6000000000000001 1
      endloop
  endfacet
  facet normal -0.24253562503633297 -0.9701425001453319 0.0
      outer loop
          vertex 1.2000000000000002 0.7000000000000001 0.01
          vertex 1.6 0.6000000000000001 1
          vertex 1.2000000000000002 0.7000000000000001 1
      endloop
  endfacet
  facet normal 1.0 0.0 0.0
      outer loop
          vertex 1.6 0.6000000000000001 0.01
          vertex 1.6 0.7000000000000001 0.01
          vertex 1.6 0.7000000000000001 1
      endloop
  endfacet
  facet normal 1.0 0.0 0.0
      outer loop
          vertex 1.6 0.6000000000000001 0.01
          vertex 1.6 0.7000000000000001 1
          vertex 1.6 0.6000000000000001 1
      endloop
  endfacet
endsolid obstacle
