solid obstacle
  facet normal 0.0 0.0 -1.0
      outer loop
          vertex 1.1 0.1 0.01
          vertex 1.5 0.4 0.01
          vertex 1.6 0.1 0.01
      endloop
  endfacet
  facet normal 0.0 0.0 1.0
      outer loop
          vertex 1.1 0.1 1
          vertex 1.6 0.1 1
          vertex 1.5 0.4 1
      endloop
  endfacet
  facet normal 0.0 -1.0 0.0
      outer loop
          vertex 1.1 0.1 0.01
          vertex 1.6 0.1 0.01
          vertex 1.6 0.1 1
      endloop
  endfacet
  facet normal 0.0 -1.0 0.0
      outer loop
          vertex 1.1 0.1 0.01
          vertex 1.6 0.1 1
          vertex 1.1 0.1 1
      endloop
  endfacet
  facet normal 0.9486832980505137 0.3162277660168381 0.0
      outer loop
          vertex 1.6 0.1 0.01
          vertex 1.5 0.4 0.01
          vertex 1.5 0.4 1
      endloop
  endfacet
  facet normal 0.9486832980505137 0.3162277660168381 -0.0
      outer loop
          vertex 1.6 0.1 0.01
          vertex 1.5 0.4 1
          vertex 1.6 0.1 1
      endloop
  endfacet
  facet normal -0.6000000000000002 0.7999999999999999 0.0
      outer loop
          vertex 1.5 0.4 0.01
          vertex 1.1 0.1 0.01
          vertex 1.1 0.1 1
      endloop
  endfacet
  facet normal -0.6000000000000002 0.7999999999999999 0.0
      outer loop
          vertex 1.5 0.4 0.01
          vertex 1.1 0.1 1
          vertex 1.5 0.4 1
      endloop
  endfacet
endsolid obstacle
