solid obstacle
  facet normal 0.0 0.0 -1.0
      outer loop
          vertex 1.8 1.8 0.1
          vertex 1.4000000000000001 0.5 0.1
          vertex 0.7000000000000001 0.4 0.1
      endloop
  endfacet
  facet normal 0.0 -0.0 -1.0
      outer loop
          vertex 1.8 1.8 0.1
          vertex 2.8000000000000003 1.5 0.1
          vertex 1.4000000000000001 0.5 0.1
      endloop
  endfacet
  facet normal 0.0 0.0 1.0
      outer loop
          vertex 1.8 1.8 1
          vertex 0.7000000000000001 0.4 1
          vertex 1.4000000000000001 0.5 1
      endloop
  endfacet
  facet normal 0.0 0.0 1.0
      outer loop
          vertex 1.8 1.8 1
          vertex 1.4000000000000001 0.5 1
          vertex 2.8000000000000003 1.5 1
      endloop
  endfacet
  facet normal -0.7863183388224226 0.6178215519319035 0.0
      outer loop
          vertex 1.8 1.8 0.1
          vertex 0.7000000000000001 0.4 0.1
          vertex 0.7000000000000001 0.4 1
      endloop
  endfacet
  facet normal -0.7863183388224226 0.6178215519319035 0.0
      outer loop
          vertex 1.8 1.8 0.1
          vertex 0.7000000000000001 0.4 1
          vertex 1.8 1.8 1
      endloop
  endfacet
  facet normal 0.14142135623730945 -0.9899494936611666 0.0
      outer loop
          vertex 0.7000000000000001 0.4 0.1
          vertex 1.4000000000000001 0.5 0.1
          vertex 1.4000000000000001 0.5 1
      endloop
  endfacet
  facet normal 0.14142135623730945 -0.9899494936611666 0.0
      outer loop
          vertex 0.7000000000000001 0.4 0.1
          vertex 1.4000000000000001 0.5 1
          vertex 0.7000000000000001 0.4 1
      endloop
  endfacet
  facet normal 0.5812381937190964 -0.813733471206735 0.0
      outer loop
          vertex 1.4000000000000001 0.5 0.1
          vertex 2.8000000000000003 1.5 0.1
          vertex 2.8000000000000003 1.5 1
      endloop
  endfacet
  facet normal 0.5812381937190964 -0.813733471206735 0.0
      outer loop
          vertex 1.4000000000000001 0.5 0.1
          vertex 2.8000000000000003 1.5 1
          vertex 1.4000000000000001 0.5 1
      endloop
  endfacet
  facet normal 0.28734788556634544 0.9578262852211514 0.0
      outer loop
          vertex 2.8000000000000003 1.5 0.1
          vertex 1.8 1.8 0.1
          vertex 1.8 1.8 1
      endloop
  endfacet
  facet normal 0.28734788556634544 0.9578262852211514 -0.0
      outer loop
          vertex 2.8000000000000003 1.5 0.1
          vertex 1.8 1.8 1
          vertex 2.8000000000000003 1.5 1
      endloop
  endfacet
endsolid obstacle
