solid obstacle
  facet normal 0.0 0.0 -1.0
      outer loop
          vertex 4.3 3.5 0.1
          vertex 3.3000000000000003 1.8 0.1
          vertex 3.1 2.6 0.1
      endloop
  endfacet
  facet normal 0.0 0.0 1.0
      outer loop
          vertex 4.3 3.5 1
          vertex 3.1 2.6 1
          vertex 3.3000000000000003 1.8 1
      endloop
  endfacet
  facet normal -0.6 0.7999999999999999 0.0
      outer loop
          vertex 4.3 3.5 0.1
          vertex 3.1 2.6 0.1
          vertex 3.1 2.6 1
      endloop
  endfacet
  facet normal -0.6 0.7999999999999999 0.0
      outer loop
          vertex 4.3 3.5 0.1
          vertex 3.1 2.6 1
          vertex 4.3 3.5 1
      endloop
  endfacet
  facet normal -0.9701425001453319 -0.24253562503633316 0.0
      outer loop
          vertex 3.1 2.6 0.1
          vertex 3.3000000000000003 1.8 0.1
          vertex 3.3000000000000003 1.8 1
      endloop
  endfacet
  facet normal -0.9701425001453319 -0.24253562503633316 0.0
      outer loop
          vertex 3.1 2.6 0.1
          vertex 3.3000000000000003 1.8 1
          vertex 3.1 2.6 1
      endloop
  endfacet
  facet normal 0.8619342151577696 -0.5070201265633937 0.0
      outer loop
          vertex 3.3000000000000003 1.8 0.1
          vertex 4.3 3.5 0.1
          vertex 4.3 3.5 1
      endloop
  endfacet
  facet normal 0.8619342151577696 -0.5070201265633937 0.0
      outer loop
          vertex 3.3000000000000003 1.8 0.1
          vertex 4.3 3.5 1
          vertex 3.3000000000000003 1.8 1
      endloop
  endfacet
endsolid obstacle
