solid obstacle
  facet normal 0.0 0.0 -1.0
      outer loop
          vertex 4.2 2.2 0.01
          vertex 4.6000000000000005 3.5 0.01
          vertex 4.6000000000000005 2.7 0.01
      endloop
  endfacet
  facet normal 0.0 0.0 1.0
      outer loop
          vertex 4.2 2.2 1
          vertex 4.6000000000000005 2.7 1
          vertex 4.6000000000000005 3.5 1
      endloop
  endfacet
  facet normal 0.7808688094430299 -0.6246950475544245 0.0
      outer loop
          vertex 4.2 2.2 0.01
          vertex 4.6000000000000005 2.7 0.01
          vertex 4.6000000000000005 2.7 1
      endloop
  endfacet
  facet normal 0.7808688094430299 -0.6246950475544245 0.0
      outer loop
          vertex 4.2 2.2 0.01
          vertex 4.6000000000000005 2.7 1
          vertex 4.2 2.2 1
      endloop
  endfacet
  facet normal 1.0 0.0 0.0
      outer loop
          vertex 4.6000000000000005 2.7 0.01
          vertex 4.6000000000000005 3.5 0.01
          vertex 4.6000000000000005 3.5 1
      endloop
  endfacet
  facet normal 1.0 0.0 0.0
      outer loop
          vertex 4.6000000000000005 2.7 0.01
          vertex 4.6000000000000005 3.5 1
          vertex 4.6000000000000005 2.7 1
      endloop
  endfacet
  facet normal -0.95577900872195 0.29408584883752337 0.0
      outer loop
          vertex 4.6000000000000005 3.5 0.01
          vertex 4.2 2.2 0.01
          vertex 4.2 2.2 1
      endloop
  endfacet
  facet normal -0.95577900872195 0.29408584883752337 0.0
      outer loop
          vertex 4.6000000000000005 3.5 0.01
          vertex 4.2 2.2 1
          vertex 4.6000000000000005 3.5 1
      endloop
  endfacet
endsolid obstacle
