solid obstacle
  facet normal 0.0 0.0 -1.0
      outer loop
          vertex 2.4000000000000004 0.6000000000000001 0.01
          vertex 3.3000000000000003 1.5 0.01
          vertex 4.1000000000000005 1.2000000000000002 0.01
      endloop
  endfacet
  facet normal 0.0 0.0 1.0
      outer loop
          vertex 2.4000000000000004 0.6000000000000001 1
          vertex 4.1000000000000005 1.2000000000000002 1
          vertex 3.3000000000000003 1.5 1
      endloop
  endfacet
  facet normal 0.33282011773513753 -0.9429903335828895 0.0
      outer loop
          vertex 2.4000000000000004 0.6000000000000001 0.01
          vertex 4.1000000000000005 1.2000000000000002 0.01
          vertex 4.1000000000000005 1.2000000000000002 1
      endloop
  endfacet
  facet normal 0.33282011773513753 -0.9429903335828895 0.0
      outer loop
          vertex 2.4000000000000004 0.6000000000000001 0.01
          vertex 4.1000000000000005 1.2000000000000002 1
          vertex 2.4000000000000004 0.6000000000000001 1
      endloop
  endfacet
  facet normal 0.3511234415883914 0.9363291775690447 0.0
      outer loop
          vertex 4.1000000000000005 1.2000000000000002 0.01
          vertex 3.3000000000000003 1.5 0.01
          vertex 3.3000000000000003 1.5 1
      endloop
  endfacet
  facet normal 0.3511234415883914 0.9363291775690447 -0.0
      outer loop
          vertex 4.1000000000000005 1.2000000000000002 0.01
          vertex 3.3000000000000003 1.5 1
          vertex 4.1000000000000005 1.2000000000000002 1
      endloop
  endfacet
  facet normal -0.7071067811865475 0.7071067811865475 0.0
      outer loop
          vertex 3.3000000000000003 1.5 0.01
          vertex 2.4000000000000004 0.6000000000000001 0.01
          vertex 2.4000000000000004 0.6000000000000001 1
      endloop
  endfacet
  facet normal -0.7071067811865475 0.7071067811865475 0.0
      outer loop
          vertex 3.3000000000000003 1.5 0.01
          vertex 2.4000000000000004 0.6000000000000001 1
          vertex 3.3000000000000003 1.5 1
      endloop
  endfacet
endsolid obstacle
