solid obstacle
  facet normal 0.0 0.0 -1.0
      outer loop
          vertex 4.6000000000000005 1.7000000000000002 0.1
          vertex 4.4 1.8 0.1
          vertex 3.3000000000000003 2.9000000000000004 0.1
      endloop
  endfacet
  facet normal 0.0 0.0 1.0
      outer loop
          vertex 4.6000000000000005 1.7000000000000002 1
          vertex 3.3000000000000003 2.9000000000000004 1
          vertex 4.4 1.8 1
      endloop
  endfacet
  facet normal 0.6782801027330657 0.7348034446274879 0.0
      outer loop
          vertex 4.6000000000000005 1.7000000000000002 0.1
          vertex 3.3000000000000003 2.9000000000000004 0.1
          vertex 3.3000000000000003 2.9000000000000004 1
      endloop
  endfacet
  facet normal 0.6782801027330657 0.7348034446274879 -0.0
      outer loop
          vertex 4.6000000000000005 1.7000000000000002 0.1
          vertex 3.3000000000000003 2.9000000000000004 1
          vertex 4.6000000000000005 1.7000000000000002 1
      endloop
  endfacet
  facet normal -0.7071067811865476 -0.7071067811865475 0.0
      outer loop
          vertex 3.3000000000000003 2.9000000000000004 0.1
          vertex 4.4 1.8 0.1
          vertex 4.4 1.8 1
      endloop
  endfacet
  facet normal -0.7071067811865476 -0.7071067811865475 0.0
      outer loop
          vertex 3.3000000000000003 2.9000000000000004 0.1
          vertex 4.4 1.8 1
          vertex 3.3000000000000003 2.9000000000000004 1
      endloop
  endfacet
  facet normal -0.4472135954999572 -0.8944271909999163 0.0
      outer loop
          vertex 4.4 1.8 0.1
          vertex 4.6000000000000005 1.7000000000000002 0.1
          vertex 4.6000000000000005 1.7000000000000002 1
      endloop
  endfacet
  facet normal -0.4472135954999572 -0.8944271909999163 0.0
      outer loop
          vertex 4.4 1.8 0.1
          vertex 4.6000000000000005 1.7000000000000002 1
          vertex 4.4 1.8 1
      endloop
  endfacet
endsolid obstacle
