solid obstacle
  facet normal -0.0 0.0 -1.0
      outer loop
          vertex 3.5 2.3000000000000003 0.01
          vertex 2.6 1.5 0.01
          vertex 2.6 3.4000000000000004 0.01
      endloop
  endfacet
  facet normal 0.0 0.0 1.0
      outer loop
          vertex 3.5 2.3000000000000003 1
          vertex 2.6 3.4000000000000004 1
          vertex 2.6 1.5 1
      endloop
  endfacet
  facet normal 0.773957299203321 0.6332377902572627 0.0
      outer loop
          vertex 3.5 2.3000000000000003 0.01
          vertex 2.6 3.4000000000000004 0.01
          vertex 2.6 3.4000000000000004 1
      endloop
  endfacet
  facet normal 0.773957299203321 0.6332377902572627 -0.0
      outer loop
          vertex 3.5 2.3000000000000003 0.01
          vertex 2.6 3.4000000000000004 1
          vertex 3.5 2.3000000000000003 1
      endloop
  endfacet
  facet normal -1.0 0.0 0.0
      outer loop
          vertex 2.6 3.4000000000000004 0.01
          vertex 2.6 1.5 0.01
          vertex 2.6 1.5 1
      endloop
  endfacet
  facet normal -1.0 0.0 0.0
      outer loop
          vertex 2.6 3.4000000000000004 0.01
          vertex 2.6 1.5 1
          vertex 2.6 3.4000000000000004 1
      endloop
  endfacet
  facet normal 0.66436383882992 -0.7474093186836597 0.0
      outer loop
          vertex 2.6 1.5 0.01
          vertex 3.5 2.3000000000000003 0.01
          vertex 3.5 2.3000000000000003 1
      endloop
  endfacet
  facet normal 0.66436383882992 -0.7474093186836597 0.0
      outer loop
          vertex 2.6 1.5 0.01
          vertex 3.5 2.3000000000000003 1
          vertex 2.6 1.5 1
      endloop
  endfacet
endsolid obstacle
