solid obstacle
  facet normal 0.0 0.0 -1.0
      outer loop
          vertex 0.5 3.1 0.01
          vertex 1.1 3.2 0.01
          vertex 1.9000000000000001 2.9000000000000004 0.01
      endloop
  endfacet
  facet normal -0.0 0.0 1.0
      outer loop
          vertex 0.5 3.1 1
          vertex 1.9000000000000001 2.9000000000000004 1
          vertex 1.1 3.2 1
      endloop
  endfacet
  facet normal -0.1414213562373093 -0.9899494936611666 0.0
      outer loop
          vertex 0.5 3.1 0.01
          vertex 1.9000000000000001 2.9000000000000004 0.01
          vertex 1.9000000000000001 2.9000000000000004 1
      endloop
  endfacet
  facet normal -0.1414213562373093 -0.9899494936611666 0.0
      outer loop
          vertex 0.5 3.1 0.01
          vertex 1.9000000000000001 2.9000000000000004 1
          vertex 0.5 3.1 1
      endloop
  endfacet
  facet normal 0.35112344158839154 0.9363291775690447 0.0
      outer loop
          vertex 1.9000000000000001 2.9000000000000004 0.01
          vertex 1.1 3.2 0.01
          vertex 1.1 3.2 1
      endloop
  endfacet
  facet normal 0.35112344158839154 0.9363291775690447 -0.0
      outer loop
          vertex 1.9000000000000001 2.9000000000000004 0.01
          vertex 1.1 3.2 1
          vertex 1.9000000000000001 2.9000000000000004 1
      endloop
  endfacet
  facet normal -0.1643989873053574 0.9863939238321436 0.0
      outer loop
          vertex 1.1 3.2 0.01
          vertex 0.5 3.1 0.01
          vertex 0.5 3.1 1
      endloop
  endfacet
  facet normal -0.1643989873053574 0.9863939238321436 0.0
      outer loop
          vertex 1.1 3.2 0.01
          vertex 0.5 3.1 1
          vertex 1.1 3.2 1
      endloop
  endfacet
endsolid obstacle
