solid obstacle
  facet normal 0.0 0.0 -1.0
      outer loop
          vertex 1.6 3.6 0.1
          vertex 2.2 4.0 0.1
          vertex 2.2 2.8000000000000003 0.1
      endloop
  endfacet
  facet normal -0.0 0.0 1.0
      outer loop
          vertex 1.6 3.6 1
          vertex 2.2 2.8000000000000003 1
          vertex 2.2 4.0 1
      endloop
  endfacet
  facet normal -0.7999999999999999 -0.6000000000000002 0.0
      outer loop
          vertex 1.6 3.6 0.1
          vertex 2.2 2.8000000000000003 0.1
          vertex 2.2 2.8000000000000003 1
      endloop
  endfacet
  facet normal -0.7999999999999999 -0.6000000000000002 0.0
      outer loop
          vertex 1.6 3.6 0.1
          vertex 2.2 2.8000000000000003 1
          vertex 1.6 3.6 1
      endloop
  endfacet
  facet normal 1.0 0.0 0.0
      outer loop
          vertex 2.2 2.8000000000000003 0.1
          vertex 2.2 4.0 0.1
          vertex 2.2 4.0 1
      endloop
  endfacet
  facet normal 1.0 0.0 0.0
      outer loop
          vertex 2.2 2.8000000000000003 0.1
          vertex 2.2 4.0 1
          vertex 2.2 2.8000000000000003 1
      endloop
  endfacet
  facet normal -0.554700196225229 0.8320502943378439 0.0
      outer loop
          vertex 2.2 4.0 0.1
          vertex 1.6 3.6 0.1
          vertex 1.6 3.6 1
      endloop
  endfacet
  facet normal -0.554700196225229 0.8320502943378439 0.0
      outer loop
          vertex 2.2 4.0 0.1
          vertex 1.6 3.6 1
          vertex 2.2 4.0 1
      endloop
  endfacet
endsolid obstacle
