solid obstacle
  facet normal 0.0 0.0 -1.0
      outer loop
          vertex 1.1 0.9 0.1
          vertex 1.6 1.4000000000000001 0.1
          vertex 1.9000000000000001 1.5 0.1
      endloop
  endfacet
  facet normal 0.0 0.0 1.0
      outer loop
          vertex 1.1 0.9 1
          vertex 1.9000000000000001 1.5 1
          vertex 1.6 1.4000000000000001 1
      endloop
  endfacet
  facet normal 0.6 -0.8 0.0
      outer loop
          vertex 1.1 0.9 0.1
          vertex 1.9000000000000001 1.5 0.1
          vertex 1.9000000000000001 1.5 1
      endloop
  endfacet
  facet normal 0.6 -0.8 0.0
      outer loop
          vertex 1.1 0.9 0.1
          vertex 1.9000000000000001 1.5 1
          vertex 1.1 0.9 1
      endloop
  endfacet
  facet normal -0.3162277660168375 0.948683298050514 0.0
      outer loop
          vertex 1.9000000000000001 1.5 0.1
          vertex 1.6 1.4000000000000001 0.1
          vertex 1.6 1.4000000000000001 1
      endloop
  endfacet
  facet normal -0.3162277660168375 0.948683298050514 0.0
      outer loop
          vertex 1.9000000000000001 1.5 0.1
          vertex 1.6 1.4000000000000001 1
          vertex 1.9000000000000001 1.5 1
      endloop
  endfacet
  facet normal -0.7071067811865477 0.7071067811865475 0.0
      outer loop
          vertex 1.6 1.4000000000000001 0.1
          vertex 1.1 0.9 0.1
          vertex 1.1 0.9 1
      endloop
  endfacet
  facet normal -0.7071067811865477 0.7071067811865475 0.0
      outer loop
          vertex 1.6 1.4000000000000001 0.1
          vertex 1.1 0.9 1
          vertex 1.6 1.4000000000000001 1
      endloop
  endfacet
endsolid obstacle
