solid obstacle
  facet normal 0.0 0.0 -1.0
      outer loop
          vertex 0.6000000000000001 4.5 0.1
          vertex 1.2000000000000002 4.800000000000001 0.1
          vertex 1.6 3.5 0.1
      endloop
  endfacet
  facet normal -0.0 0.0 1.0
      outer loop
          vertex 0.6000000000000001 4.5 1
          vertex 1.6 3.5 1
          vertex 1.2000000000000002 4.800000000000001 1
      endloop
  endfacet
  facet normal -0.7071067811865476 -0.7071067811865476 0.0
      outer loop
          vertex 0.6000000000000001 4.5 0.1
          vertex 1.6 3.5 0.1
          vertex 1.6 3.5 1
      endloop
  endfacet
  facet normal -0.7071067811865476 -0.7071067811865476 0.0
      outer loop
          vertex 0.6000000000000001 4.5 0.1
          vertex 1.6 3.5 1
          vertex 0.6000000000000001 4.5 1
      endloop
  endfacet
  facet normal 0.9557790087219502 0.2940858488375229 0.0
      outer loop
          vertex 1.6 3.5 0.1
          vertex 1.2000000000000002 4.800000000000001 0.1
          vertex 1.2000000000000002 4.800000000000001 1
      endloop
  endfacet
  facet normal 0.9557790087219502 0.2940858488375229 -0.0
      outer loop
          vertex 1.6 3.5 0.1
          vertex 1.2000000000000002 4.800000000000001 1
          vertex 1.6 3.5 1
      endloop
  endfacet
  facet normal -0.4472135954999587 0.8944271909999156 0.0
      outer loop
          vertex 1.2000000000000002 4.800000000000001 0.1
          vertex 0.6000000000000001 4.5 0.1
          vertex 0.6000000000000001 4.5 1
      endloop
  endfacet
  facet normal -0.4472135954999587 0.8944271909999156 0.0
      outer loop
          vertex 1.2000000000000002 4.800000000000001 0.1
          vertex 0.6000000000000001 4.5 1
          vertex 1.2000000000000002 4.800000000000001 1
      endloop
  endfacet
endsolid obstacle
