solid obstacle
  facet normal -0.0 0.0 -1.0
      outer loop
          vertex 1.5 3.7 0.1
          vertex 0.7000000000000001 3.3000000000000003 0.1
          vertex 0.0 4.1000000000000005 0.1
      endloop
  endfacet
  facet normal 0.0 0.0 1.0
      outer loop
          vertex 1.5 3.7 1
          vertex 0.0 4.1000000000000005 1
          vertex 0.7000000000000001 3.3000000000000003 1
      endloop
  endfacet
  facet normal 0.25766265056033255 0.9662349396012463 0.0
      outer loop
          vertex 1.5 3.7 0.1
          vertex 0.0 4.1000000000000005 0.1
          vertex 0.0 4.1000000000000005 1
      endloop
  endfacet
  facet normal 0.25766265056033255 0.9662349396012463 -0.0
      outer loop
          vertex 1.5 3.7 0.1
          vertex 0.0 4.1000000000000005 1
          vertex 1.5 3.7 1
      endloop
  endfacet
  facet normal -0.7525766947068779 -0.6585046078685179 0.0
      outer loop
          vertex 0.0 4.1000000000000005 0.1
          vertex 0.7000000000000001 3.3000000000000003 0.1
          vertex 0.7000000000000001 3.3000000000000003 1
      endloop
  endfacet
  facet normal -0.7525766947068779 -0.6585046078685179 0.0
      outer loop
          vertex 0.0 4.1000000000000005 0.1
          vertex 0.7000000000000001 3.3000000000000003 1
          vertex 0.0 4.1000000000000005 1
      endloop
  endfacet
  facet normal 0.44721359549995787 -0.8944271909999159 0.0
      outer loop
          vertex 0.7000000000000001 3.3000000000000003 0.1
          vertex 1.5 3.7 0.1
          vertex 1.5 3.7 1
      endloop
  endfacet
  facet normal 0.44721359549995787 -0.8944271909999159 0.0
      outer loop
          vertex 0.7000000000000001 3.3000000000000003 0.1
          vertex 1.5 3.7 1
          vertex 0.7000000000000001 3.3000000000000003 1
      endloop
  endfacet
endsolid obstacle
