solid obstacle
  facet normal 0.0 0.0 -1.0
      outer loop
          vertex 0.6000000000000001 3.5 0.1
          vertex 1.2000000000000002 3.9000000000000004 0.1
          vertex 1.3 2.8000000000000003 0.1
      endloop
  endfacet
  facet normal -0.0 0.0 1.0
      outer loop
          vertex 0.6000000000000001 3.5 1
          vertex 1.3 2.8000000000000003 1
          vertex 1.2000000000000002 3.9000000000000004 1
      endloop
  endfacet
  facet normal -0.7071067811865474 -0.7071067811865476 0.0
      outer loop
          vertex 0.6000000000000001 3.5 0.1
          vertex 1.3 2.8000000000000003 0.1
          vertex 1.3 2.8000000000000003 1
      endloop
  endfacet
  facet normal -0.7071067811865474 -0.7071067811865476 0.0
      outer loop
          vertex 0.6000000000000001 3.5 0.1
          vertex 1.3 2.8000000000000003 1
          vertex 0.6000000000000001 3.5 1
      endloop
  endfacet
  facet normal 0.9958932064677039 0.0905357460425184 0.0
      outer loop
          vertex 1.3 2.8000000000000003 0.1
          vertex 1.2000000000000002 3.9000000000000004 0.1
          vertex 1.2000000000000002 3.9000000000000004 1
      endloop
  endfacet
  facet normal 0.9958932064677039 0.0905357460425184 -0.0
      outer loop
          vertex 1.3 2.8000000000000003 0.1
          vertex 1.2000000000000002 3.9000000000000004 1
          vertex 1.3 2.8000000000000003 1
      endloop
  endfacet
  facet normal -0.5547001962252294 0.8320502943378436 0.0
      outer loop
          vertex 1.2000000000000002 3.9000000000000004 0.1
          vertex 0.6000000000000001 3.5 0.1
          vertex 0.6000000000000001 3.5 1
      endloop
  endfacet
  facet normal -0.5547001962252294 0.8320502943378436 0.0
      outer loop
          vertex 1.2000000000000002 3.9000000000000004 0.1
          vertex 0.6000000000000001 3.5 1
          vertex 1.2000000000000002 3.9000000000000004 1
      endloop
  endfacet
endsolid obstacle
