solid obstacle
  facet normal 0.0 0.0 -1.0
      outer loop
          vertex 0.1 1.3 0.01
          vertex 0.1 1.8 0.01
          vertex 0.4 1.9000000000000001 0.01
      endloop
  endfacet
  facet normal 0.0 0.0 1.0
      outer loop
          vertex 0.1 1.3 1
          vertex 0.4 1.9000000000000001 1
          vertex 0.1 1.8 1
      endloop
  endfacet
  facet normal 0.8944271909999159 -0.4472135954999579 0.0
      outer loop
          vertex 0.1 1.3 0.01
          vertex 0.4 1.9000000000000001 0.01
          vertex 0.4 1.9000000000000001 1
      endloop
  endfacet
  facet normal 0.8944271909999159 -0.4472135954999579 0.0
      outer loop
          vertex 0.1 1.3 0.01
          vertex 0.4 1.9000000000000001 1
          vertex 0.1 1.3 1
      endloop
  endfacet
  facet normal -0.3162277660168381 0.9486832980505137 0.0
      outer loop
          vertex 0.4 1.9000000000000001 0.01
          vertex 0.1 1.8 0.01
          vertex 0.1 1.8 1
      endloop
  endfacet
  facet normal -0.3162277660168381 0.9486832980505137 0.0
      outer loop
          vertex 0.4 1.9000000000000001 0.01
          vertex 0.1 1.8 1
          vertex 0.4 1.9000000000000001 1
      endloop
  endfacet
  facet normal -1.0 0.0 0.0
      outer loop
          vertex 0.1 1.8 0.01
          vertex 0.1 1.3 0.01
          vertex 0.1 1.3 1
      endloop
  endfacet
  facet normal -1.0 0.0 0.0
      outer loop
          vertex 0.1 1.8 0.01
          vertex 0.1 1.3 1
          vertex 0.1 1.8 1
      endloop
  endfacet
endsolid obstacle
