solid obstacle
  facet normal 0.0 0.0 -1.0
      outer loop
          vertex 2.9000000000000004 3.2 0.1
          vertex 3.6 3.9000000000000004 0.1
          vertex 4.1000000000000005 2.8000000000000003 0.1
      endloop
  endfacet
  facet normal -0.0 0.0 1.0
      outer loop
          vertex 2.9000000000000004 3.2 1
          vertex 4.1000000000000005 2.8000000000000003 1
          vertex 3.6 3.9000000000000004 1
      endloop
  endfacet
  facet normal -0.3162277660168378 -0.9486832980505138 0.0
      outer loop
          vertex 2.9000000000000004 3.2 0.1
          vertex 4.1000000000000005 2.8000000000000003 0.1
          vertex 4.1000000000000005 2.8000000000000003 1
      endloop
  endfacet
  facet normal -0.3162277660168378 -0.9486832980505138 0.0
      outer loop
          vertex 2.9000000000000004 3.2 0.1
          vertex 4.1000000000000005 2.8000000000000003 1
          vertex 2.9000000000000004 3.2 1
      endloop
  endfacet
  facet normal 0.9103664774626046 0.41380294430118425 0.0
      outer loop
          vertex 4.1000000000000005 2.8000000000000003 0.1
          vertex 3.6 3.9000000000000004 0.1
          vertex 3.6 3.9000000000000004 1
      endloop
  endfacet
  facet normal 0.9103664774626046 0.41380294430118425 -0.0
      outer loop
          vertex 4.1000000000000005 2.8000000000000003 0.1
          vertex 3.6 3.9000000000000004 1
          vertex 4.1000000000000005 2.8000000000000003 1
      endloop
  endfacet
  facet normal -0.7071067811865477 0.7071067811865472 0.0
      outer loop
          vertex 3.6 3.9000000000000004 0.1
          vertex 2.9000000000000004 3.2 0.1
          vertex 2.9000000000000004 3.2 1
      endloop
  endfacet
  facet normal -0.7071067811865477 0.7071067811865472 0.0
      outer loop
          vertex 3.6 3.9000000000000004 0.1
          vertex 2.9000000000000004 3.2 1
          vertex 3.6 3.9000000000000004 1
      endloop
  endfacet
endsolid obstacle
