solid obstacle
  facet normal 0.0 0.0 -1.0
      outer loop
          vertex 1.9000000000000001 1.5 0.01
          vertex 1.2000000000000002 0.4 0.01
          vertex 0.30000000000000004 1.3 0.01
      endloop
  endfacet
  facet normal 0.0 0.0 1.0
      outer loop
          vertex 1.9000000000000001 1.5 1
          vertex 0.30000000000000004 1.3 1
          vertex 1.2000000000000002 0.4 1
      endloop
  endfacet
  facet normal -0.12403473458920843 0.9922778767136677 0.0
      outer loop
          vertex 1.9000000000000001 1.5 0.01
          vertex 0.30000000000000004 1.3 0.01
          vertex 0.30000000000000004 1.3 1
      endloop
  endfacet
  facet normal -0.12403473458920843 0.9922778767136677 0.0
      outer loop
          vertex 1.9000000000000001 1.5 0.01
          vertex 0.30000000000000004 1.3 1
          vertex 1.9000000000000001 1.5 1
      endloop
  endfacet
  facet normal -0.7071067811865475 -0.7071067811865476 0.0
      outer loop
          vertex 0.30000000000000004 1.3 0.01
          vertex 1.2000000000000002 0.4 0.01
          vertex 1.2000000000000002 0.4 1
      endloop
  endfacet
  facet normal -0.7071067811865475 -0.7071067811865476 0.0
      outer loop
          vertex 0.30000000000000004 1.3 0.01
          vertex 1.2000000000000002 0.4 1
          vertex 0.30000000000000004 1.3 1
      endloop
  endfacet
  facet normal 0.8436614877321075 -0.5368754921931592 0.0
      outer loop
          vertex 1.2000000000000002 0.4 0.01
          vertex 1.9000000000000001 1.5 0.01
          vertex 1.9000000000000001 1.5 1
      endloop
  endfacet
  facet normal 0.8436614877321075 -0.5368754921931592 0.0
      outer loop
          vertex 1.2000000000000002 0.4 0.01
          vertex 1.9000000000000001 1.5 1
          vertex 1.2000000000000002 0.4 1
      endloop
  endfacet
endsolid obstacle
