solid obstacle
  facet normal -0.0 0.0 -1.0
      outer loop
          vertex 1.0 0.4 0.1
          vertex 0.4 0.30000000000000004 0.1
          vertex 0.0 1.9000000000000001 0.1
      endloop
  endfacet
  facet normal 0.0 0.0 1.0
      outer loop
          vertex 1.0 0.4 1
          vertex 0.0 1.9000000000000001 1
          vertex 0.4 0.30000000000000004 1
      endloop
  endfacet
  facet normal 0.8320502943378437 0.5547001962252291 0.0
      outer loop
          vertex 1.0 0.4 0.1
          vertex 0.0 1.9000000000000001 0.1
          vertex 0.0 1.9000000000000001 1
      endloop
  endfacet
  facet normal 0.8320502943378437 0.5547001962252291 -0.0
      outer loop
          vertex 1.0 0.4 0.1
          vertex 0.0 1.9000000000000001 1
          vertex 1.0 0.4 1
      endloop
  endfacet
  facet normal -0.970142500145332 -0.242535625036333 0.0
      outer loop
          vertex 0.0 1.9000000000000001 0.1
          vertex 0.4 0.30000000000000004 0.1
          vertex 0.4 0.30000000000000004 1
      endloop
  endfacet
  facet normal -0.970142500145332 -0.242535625036333 0.0
      outer loop
          vertex 0.0 1.9000000000000001 0.1
          vertex 0.4 0.30000000000000004 1
          vertex 0.0 1.9000000000000001 1
      endloop
  endfacet
  facet normal 0.16439898730535726 -0.9863939238321437 0.0
      outer loop
          vertex 0.4 0.30000000000000004 0.1
          vertex 1.0 0.4 0.1
          vertex 1.0 0.4 1
      endloop
  endfacet
  facet normal 0.16439898730535726 -0.9863939238321437 0.0
      outer loop
          vertex 0.4 0.30000000000000004 0.1
          vertex 1.0 0.4 1
          vertex 0.4 0.30000000000000004 1
      endloop
  endfacet
endsolid obstacle
