solid obstacle
  facet normal -0.0 0.0 -1.0
      outer loop
          vertex 0.30000000000000004 1.9000000000000001 0.01
          vertex 0.1 1.7000000000000002 0.01
          vertex 0.0 1.9000000000000001 0.01
      endloop
  endfacet
  facet normal 0.0 0.0 1.0
      outer loop
          vertex 0.30000000000000004 1.9000000000000001 1
          vertex 0.0 1.9000000000000001 1
          vertex 0.1 1.7000000000000002 1
      endloop
  endfacet
  facet normal 0.0 1.0 0.0
      outer loop
          vertex 0.30000000000000004 1.9000000000000001 0.01
          vertex 0.0 1.9000000000000001 0.01
          vertex 0.0 1.9000000000000001 1
      endloop
  endfacet
  facet normal 0.0 1.0 -0.0
      outer loop
          vertex 0.30000000000000004 1.9000000000000001 0.01
          vertex 0.0 1.9000000000000001 1
          vertex 0.30000000000000004 1.9000000000000001 1
      endloop
  endfacet
  facet normal -0.8944271909999159 -0.4472135954999581 0.0
      outer loop
          vertex 0.0 1.9000000000000001 0.01
          vertex 0.1 1.7000000000000002 0.01
          vertex 0.1 1.7000000000000002 1
      endloop
  endfacet
  facet normal -0.8944271909999159 -0.4472135954999581 0.0
      outer loop
          vertex 0.0 1.9000000000000001 0.01
          vertex 0.1 1.7000000000000002 1
          vertex 0.0 1.9000000000000001 1
      endloop
  endfacet
  facet normal 0.7071067811865474 -0.7071067811865477 0.0
      outer loop
          vertex 0.1 1.7000000000000002 0.01
          vertex 0.30000000000000004 1.9000000000000001 0.01
          vertex 0.30000000000000004 1.9000000000000001 1
      endloop
  endfacet
  facet normal 0.7071067811865474 -0.7071067811865477 0.0
      outer loop
          vertex 0.1 1.7000000000000002 0.01
          vertex 0.30000000000000004 1.9000000000000001 1
          vertex 0.1 1.7000000000000002 1
      endloop
  endfacet
endsolid obstacle
