solid obstacle
  facet normal 0.0 0.0 -1.0
      outer loop
          vertex 0.6000000000000001 1.6 0.01
          vertex 0.8 1.8 0.01
          vertex 1.6 0.0 0.01
      endloop
  endfacet
  facet normal -0.0 0.0 1.0
      outer loop
          vertex 0.6000000000000001 1.6 1
          vertex 1.6 0.0 1
          vertex 0.8 1.8 1
      endloop
  endfacet
  facet normal -0.8479983040050879 -0.5299989400031799 0.0
      outer loop
          vertex 0.6000000000000001 1.6 0.01
          vertex 1.6 0.0 0.01
          vertex 1.6 0.0 1
      endloop
  endfacet
  facet normal -0.8479983040050879 -0.5299989400031799 0.0
      outer loop
          vertex 0.6000000000000001 1.6 0.01
          vertex 1.6 0.0 1
          vertex 0.6000000000000001 1.6 1
      endloop
  endfacet
  facet normal 0.913811548620257 0.4061384660534476 0.0
      outer loop
          vertex 1.6 0.0 0.01
          vertex 0.8 1.8 0.01
          vertex 0.8 1.8 1
      endloop
  endfacet
  facet normal 0.913811548620257 0.4061384660534476 -0.0
      outer loop
          vertex 1.6 0.0 0.01
          vertex 0.8 1.8 1
          vertex 1.6 0.0 1
      endloop
  endfacet
  facet normal -0.7071067811865475 0.7071067811865475 0.0
      outer loop
          vertex 0.8 1.8 0.01
          vertex 0.6000000000000001 1.6 0.01
          vertex 0.6000000000000001 1.6 1
      endloop
  endfacet
  facet normal -0.7071067811865475 0.7071067811865475 0.0
      outer loop
          vertex 0.8 1.8 0.01
          vertex 0.6000000000000001 1.6 1
          vertex 0.8 1.8 1
      endloop
  endfacet
endsolid obstacle
