solid obstacle
  facet normal 0.0 0.0 -1.0
      outer loop
          vertex 1.1 1.9000000000000001 0.01
          vertex 1.0 1.7000000000000002 0.01
          vertex 0.9 1.6 0.01
      endloop
  endfacet
  facet normal 0.0 0.0 1.0
      outer loop
          vertex 1.1 1.9000000000000001 1
          vertex 0.9 1.6 1
          vertex 1.0 1.7000000000000002 1
      endloop
  endfacet
  facet normal -0.8320502943378436 0.5547001962252291 0.0
      outer loop
          vertex 1.1 1.9000000000000001 0.01
          vertex 0.9 1.6 0.01
          vertex 0.9 1.6 1
      endloop
  endfacet
  facet normal -0.8320502943378436 0.5547001962252291 0.0
      outer loop
          vertex 1.1 1.9000000000000001 0.01
          vertex 0.9 1.6 1
          vertex 1.1 1.9000000000000001 1
      endloop
  endfacet
  facet normal 0.7071067811865479 -0.707106781186547 0.0
      outer loop
          vertex 0.9 1.6 0.01
          vertex 1.0 1.7000000000000002 0.01
          vertex 1.0 1.7000000000000002 1
      endloop
  endfacet
  facet normal 0.7071067811865479 -0.707106781186547 0.0
      outer loop
          vertex 0.9 1.6 0.01
          vertex 1.0 1.7000000000000002 1
          vertex 0.9 1.6 1
      endloop
  endfacet
  facet normal 0.8944271909999156 -0.4472135954999583 0.0
      outer loop
          vertex 1.0 1.7000000000000002 0.01
          vertex 1.1 1.9000000000000001 0.01
          vertex 1.1 1.9000000000000001 1
      endloop
  endfacet
  facet normal 0.8944271909999156 -0.4472135954999583 0.0
      outer loop
          vertex 1.0 1.7000000000000002 0.01
          vertex 1.1 1.9000000000000001 1
          vertex 1.0 1.7000000000000002 1
      endloop
  endfacet
endsolid obstacle
