solid obstacle
  facet normal 0.0 0.0 -1.0
      outer loop
          vertex 0.5 2.9000000000000004 0.01
          vertex 1.1 3.5 0.01
          vertex 1.2000000000000002 2.8000000000000003 0.01
      endloop
  endfacet
  facet normal -0.0 0.0 1.0
      outer loop
          vertex 0.5 2.9000000000000004 1
          vertex 1.2000000000000002 2.8000000000000003 1
          vertex 1.1 3.5 1
      endloop
  endfacet
  facet normal -0.1414213562373096 -0.9899494936611665 0.0
      outer loop
          vertex 0.5 2.9000000000000004 0.01
          vertex 1.2000000000000002 2.8000000000000003 0.01
          vertex 1.2000000000000002 2.8000000000000003 1
      endloop
  endfacet
  facet normal -0.1414213562373096 -0.9899494936611665 0.0
      outer loop
          vertex 0.5 2.9000000000000004 0.01
          vertex 1.2000000000000002 2.8000000000000003 1
          vertex 0.5 2.9000000000000004 1
      endloop
  endfacet
  facet normal 0.9899494936611665 0.14142135623730967 0.0
      outer loop
          vertex 1.2000000000000002 2.8000000000000003 0.01
          vertex 1.1 3.5 0.01
          vertex 1.1 3.5 1
      endloop
  endfacet
  facet normal 0.9899494936611665 0.14142135623730967 -0.0
      outer loop
          vertex 1.2000000000000002 2.8000000000000003 0.01
          vertex 1.1 3.5 1
          vertex 1.2000000000000002 2.8000000000000003 1
      endloop
  endfacet
  facet normal -0.7071067811865472 0.7071067811865478 0.0
      outer loop
          vertex 1.1 3.5 0.01
          vertex 0.5 2.9000000000000004 0.01
          vertex 0.5 2.9000000000000004 1
      endloop
  endfacet
  facet normal -0.7071067811865472 0.7071067811865478 0.0
      outer loop
          vertex 1.1 3.5 0.01
          vertex 0.5 2.9000000000000004 1
          vertex 1.1 3.5 1
      endloop
  endfacet
endsolid obstacle
