solid obstacle
  facet normal 0.0 -0.0 -1.0
      outer loop
          vertex 2.5 2.3000000000000003 0.01
          vertex 3.3000000000000003 1.8 0.01
          vertex 2.1 1.6 0.01
      endloop
  endfacet
  facet normal 0.0 0.0 -1.0
      outer loop
          vertex 2.5 2.3000000000000003 0.01
          vertex 4.3 2.3000000000000003 0.01
          vertex 3.3000000000000003 1.8 0.01
      endloop
  endfacet
  facet normal 0.0 0.0 1.0
      outer loop
          vertex 2.5 2.3000000000000003 1
          vertex 2.1 1.6 1
          vertex 3.3000000000000003 1.8 1
      endloop
  endfacet
  facet normal -0.0 0.0 1.0
      outer loop
          vertex 2.5 2.3000000000000003 1
          vertex 3.3000000000000003 1.8 1
          vertex 4.3 2.3000000000000003 1
      endloop
  endfacet
  facet normal -0.8682431421244593 0.49613893835683365 0.0
      outer loop
          vertex 2.5 2.3000000000000003 0.01
          vertex 2.1 1.6 0.01
          vertex 2.1 1.6 1
      endloop
  endfacet
  facet normal -0.8682431421244593 0.49613893835683365 0.0
      outer loop
          vertex 2.5 2.3000000000000003 0.01
          vertex 2.1 1.6 1
          vertex 2.5 2.3000000000000003 1
      endloop
  endfacet
  facet normal 0.1643989873053572 -0.9863939238321436 0.0
      outer loop
          vertex 2.1 1.6 0.01
          vertex 3.3000000000000003 1.8 0.01
          vertex 3.3000000000000003 1.8 1
      endloop
  endfacet
  facet normal 0.1643989873053572 -0.9863939238321436 0.0
      outer loop
          vertex 2.1 1.6 0.01
          vertex 3.3000000000000003 1.8 1
          vertex 2.1 1.6 1
      endloop
  endfacet
  facet normal 0.4472135954999582 -0.8944271909999156 0.0
      outer loop
          vertex 3.3000000000000003 1.8 0.01
          vertex 4.3 2.3000000000000003 0.01
          vertex 4.3 2.3000000000000003 1
      endloop
  endfacet
  facet normal 0.4472135954999582 -0.8944271909999156 0.0
      outer loop
          vertex 3.3000000000000003 1.8 0.01
          vertex 4.3 2.3000000000000003 1
          vertex 3.3000000000000003 1.8 1
      endloop
  endfacet
  facet normal 0.0 1.0 0.0
      outer loop
          vertex 4.3 2.3000000000000003 0.01
          vertex 2.5 2.3000000000000003 0.01
          vertex 2.5 2.3000000000000003 1
      endloop
  endfacet
  facet normal 0.0 1.0 -0.0
      outer loop
          vertex 4.3 2.3000000000000003 0.01
          vertex 2.5 2.3000000000000003 1
          vertex 4.3 2.3000000000000003 1
      endloop
  endfacet
endsolid obstacle
