solid obstacle
  facet normal 0.0 -0.0 -1.0
      outer loop
          vertex 1.5 0.5 0.01
          vertex 1.5 0.30000000000000004 0.01
          vertex 1.3 0.1 0.01
      endloop
  endfacet
  facet normal 0.0 0.0 1.0
      outer loop
          vertex 1.5 0.5 1
          vertex 1.3 0.1 1
          vertex 1.5 0.30000000000000004 1
      endloop
  endfacet
  facet normal -0.894427190999916 0.4472135954999578 0.0
      outer loop
          vertex 1.5 0.5 0.01
          vertex 1.3 0.1 0.01
          vertex 1.3 0.1 1
      endloop
  endfacet
  facet normal -0.894427190999916 0.4472135954999578 0.0
      outer loop
          vertex 1.5 0.5 0.01
          vertex 1.3 0.1 1
          vertex 1.5 0.5 1
      endloop
  endfacet
  facet normal 0.7071067811865477 -0.7071067811865474 0.0
      outer loop
          vertex 1.3 0.1 0.01
          vertex 1.5 0.30000000000000004 0.01
          vertex 1.5 0.30000000000000004 1
      endloop
  endfacet
  facet normal 0.7071067811865477 -0.7071067811865474 0.0
      outer loop
          vertex 1.3 0.1 0.01
          vertex 1.5 0.30000000000000004 1
          vertex 1.3 0.1 1
      endloop
  endfacet
  facet normal 1.0 0.0 0.0
      outer loop
          vertex 1.5 0.30000000000000004 0.01
          vertex 1.5 0.5 0.01
          vertex 1.5 0.5 1
      endloop
  endfacet
  facet normal 1.0 0.0 0.0
      outer loop
          vertex 1.5 0.30000000000000004 0.01
          vertex 1.5 0.5 1
          vertex 1.5 0.30000000000000004 1
      endloop
  endfacet
endsolid obstacle
