solid obstacle
  facet normal 0.0 -0.0 -1.0
      outer loop
          vertex 0.7000000000000001 2.3000000000000003 0.01
          vertex 0.7000000000000001 1.4000000000000001 0.01
          vertex 0.1 0.8 0.01
      endloop
  endfacet
  facet normal 0.0 0.0 1.0
      outer loop
          vertex 0.7000000000000001 2.3000000000000003 1
          vertex 0.1 0.8 1
          vertex 0.7000000000000001 1.4000000000000001 1
      endloop
  endfacet
  facet normal -0.9284766908852593 0.3713906763541037 0.0
      outer loop
          vertex 0.7000000000000001 2.3000000000000003 0.01
          vertex 0.1 0.8 0.01
          vertex 0.1 0.8 1
      endloop
  endfacet
  facet normal -0.9284766908852593 0.3713906763541037 0.0
      outer loop
          vertex 0.7000000000000001 2.3000000000000003 0.01
          vertex 0.1 0.8 1
          vertex 0.7000000000000001 2.3000000000000003 1
      endloop
  endfacet
  facet normal 0.7071067811865475 -0.7071067811865475 0.0
      outer loop
          vertex 0.1 0.8 0.01
          vertex 0.7000000000000001 1.4000000000000001 0.01
          vertex 0.7000000000000001 1.4000000000000001 1
      endloop
  endfacet
  facet normal 0.7071067811865475 -0.7071067811865475 0.0
      outer loop
          vertex 0.1 0.8 0.01
          vertex 0.7000000000000001 1.4000000000000001 1
          vertex 0.1 0.8 1
      endloop
  endfacet
  facet normal 1.0 0.0 0.0
      outer loop
          vertex 0.7000000000000001 1.4000000000000001 0.01
          vertex 0.7000000000000001 2.3000000000000003 0.01
          vertex 0.7000000000000001 2.3000000000000003 1
      endloop
  endfacet
  facet normal 1.0 0.0 0.0
      outer loop
          vertex 0.7000000000000001 1.4000000000000001 0.01
          vertex 0.7000000000000001 2.3000000000000003 1
          vertex 0.7000000000000001 1.4000000000000001 1
      endloop
  endfacet
endsolid obstacle
