solid obstacle
  facet normal 0.0 0.0 -1.0
      outer loop
          vertex 0.0 2.4000000000000004 0.1
          vertex 1.0 3.8000000000000003 0.1
          vertex 1.1 2.0 0.1
      endloop
  endfacet
  facet normal -0.0 0.0 1.0
      outer loop
          vertex 0.0 2.4000000000000004 1
          vertex 1.1 2.0 1
          vertex 1.0 3.8000000000000003 1
      endloop
  endfacet
  facet normal -0.34174306308670466 -0.939793423488437 0.0
      outer loop
          vertex 0.0 2.4000000000000004 0.1
          vertex 1.1 2.0 0.1
          vertex 1.1 2.0 1
      endloop
  endfacet
  facet normal -0.34174306308670466 -0.939793423488437 0.0
      outer loop
          vertex 0.0 2.4000000000000004 0.1
          vertex 1.1 2.0 1
          vertex 0.0 2.4000000000000004 1
      endloop
  endfacet
  facet normal 0.9984603532054124 0.05547001962252295 0.0
      outer loop
          vertex 1.1 2.0 0.1
          vertex 1.0 3.8000000000000003 0.1
          vertex 1.0 3.8000000000000003 1
      endloop
  endfacet
  facet normal 0.9984603532054124 0.05547001962252295 -0.0
      outer loop
          vertex 1.1 2.0 0.1
          vertex 1.0 3.8000000000000003 1
          vertex 1.1 2.0 1
      endloop
  endfacet
  facet normal -0.8137334712067349 0.5812381937190964 0.0
      outer loop
          vertex 1.0 3.8000000000000003 0.1
          vertex 0.0 2.4000000000000004 0.1
          vertex 0.0 2.4000000000000004 1
      endloop
  endfacet
  facet normal -0.8137334712067349 0.5812381937190964 0.0
      outer loop
          vertex 1.0 3.8000000000000003 0.1
          vertex 0.0 2.4000000000000004 1
          vertex 1.0 3.8000000000000003 1
      endloop
  endfacet
endsolid obstacle
