solid obstacle
  facet normal -0.0 0.0 -1.0
      outer loop
          vertex 2.4000000000000004 3.3000000000000003 0.01
          vertex 0.7000000000000001 2.7 0.01
          vertex 0.6000000000000001 4.1000000000000005 0.01
      endloop
  endfacet
  facet normal 0.0 0.0 1.0
      outer loop
          vertex 2.4000000000000004 3.3000000000000003 1
          vertex 0.6000000000000001 4.1000000000000005 1
          vertex 0.7000000000000001 2.7 1
      endloop
  endfacet
  facet normal 0.4061384660534477 0.9138115486202572 0.0
      outer loop
          vertex 2.4000000000000004 3.3000000000000003 0.01
          vertex 0.6000000000000001 4.1000000000000005 0.01
          vertex 0.6000000000000001 4.1000000000000005 1
      endloop
  endfacet
  facet normal 0.4061384660534477 0.9138115486202572 -0.0
      outer loop
          vertex 2.4000000000000004 3.3000000000000003 0.01
          vertex 0.6000000000000001 4.1000000000000005 1
          vertex 2.4000000000000004 3.3000000000000003 1
      endloop
  endfacet
  facet normal -0.997458699830735 -0.07124704998790961 0.0
      outer loop
          vertex 0.6000000000000001 4.1000000000000005 0.01
          vertex 0.7000000000000001 2.7 0.01
          vertex 0.7000000000000001 2.7 1
      endloop
  endfacet
  facet normal -0.997458699830735 -0.07124704998790961 0.0
      outer loop
          vertex 0.6000000000000001 4.1000000000000005 0.01
          vertex 0.7000000000000001 2.7 1
          vertex 0.6000000000000001 4.1000000000000005 1
      endloop
  endfacet
  facet normal 0.33282011773513753 -0.9429903335828895 0.0
      outer loop
          vertex 0.7000000000000001 2.7 0.01
          vertex 2.4000000000000004 3.3000000000000003 0.01
          vertex 2.4000000000000004 3.3000000000000003 1
      endloop
  endfacet
  facet normal 0.33282011773513753 -0.9429903335828895 0.0
      outer loop
          vertex 0.7000000000000001 2.7 0.01
          vertex 2.4000000000000004 3.3000000000000003 1
          vertex 0.7000000000000001 2.7 1
      endloop
  endfacet
endsolid obstacle
