solid obstacle
  facet normal -0.0 0.0 -1.0
      outer loop
          vertex 3.1 3.5 0.1
          vertex 2.7 2.8000000000000003 0.1
          vertex 2.3000000000000003 4.1000000000000005 0.1
      endloop
  endfacet
  facet normal 0.0 -0.0 -1.0
      outer loop
          vertex 3.1 3.5 0.1
          vertex 3.7 2.2 0.1
          vertex 2.7 2.8000000000000003 0.1
      endloop
  endfacet
  facet normal 0.0 0.0 1.0
      outer loop
          vertex 3.1 3.5 1
          vertex 2.3000000000000003 4.1000000000000005 1
          vertex 2.7 2.8000000000000003 1
      endloop
  endfacet
  facet normal 0.0 0.0 1.0
      outer loop
          vertex 3.1 3.5 1
          vertex 2.7 2.8000000000000003 1
          vertex 3.7 2.2 1
      endloop
  endfacet
  facet normal 0.6000000000000004 0.7999999999999997 0.0
      outer loop
          vertex 3.1 3.5 0.1
          vertex 2.3000000000000003 4.1000000000000005 0.1
          vertex 2.3000000000000003 4.1000000000000005 1
      endloop
  endfacet
  facet normal 0.6000000000000004 0.7999999999999997 -0.0
      outer loop
          vertex 3.1 3.5 0.1
          vertex 2.3000000000000003 4.1000000000000005 1
          vertex 3.1 3.5 1
      endloop
  endfacet
  facet normal -0.95577900872195 -0.2940858488375229 0.0
      outer loop
          vertex 2.3000000000000003 4.1000000000000005 0.1
          vertex 2.7 2.8000000000000003 0.1
          vertex 2.7 2.8000000000000003 1
      endloop
  endfacet
  facet normal -0.95577900872195 -0.2940858488375229 0.0
      outer loop
          vertex 2.3000000000000003 4.1000000000000005 0.1
          vertex 2.7 2.8000000000000003 1
          vertex 2.3000000000000003 4.1000000000000005 1
      endloop
  endfacet
  facet normal -0.5144957554275267 -0.8574929257125442 0.0
      outer loop
          vertex 2.7 2.8000000000000003 0.1
          vertex 3.7 2.2 0.1
          vertex 3.7 2.2 1
      endloop
  endfacet
  facet normal -0.5144957554275267 -0.8574929257125442 0.0
      outer loop
          vertex 2.7 2.8000000000000003 0.1
          vertex 3.7 2.2 1
          vertex 2.7 2.8000000000000003 1
      endloop
  endfacet
  facet normal 0.9079593845004517 0.41905817746174706 0.0
      outer loop
          vertex 3.7 2.2 0.1
          vertex 3.1 3.5 0.1
          vertex 3.1 3.5 1
      endloop
  endfacet
  facet normal 0.9079593845004517 0.41905817746174706 -0.0
      outer loop
          vertex 3.7 2.2 0.1
          vertex 3.1 3.5 1
          vertex 3.7 2.2 1
      endloop
  endfacet
endsolid obstacle
