solid obstacle
  facet normal 0.0 0.0 -1.0
      outer loop
          vertex 3.5 4.800000000000001 0.1
          vertex 3.3000000000000003 3.8000000000000003 0.1
          vertex 1.9000000000000001 4.4 0.1
      endloop
  endfacet
  facet normal 0.0 -0.0 -1.0
      outer loop
          vertex 3.5 4.800000000000001 0.1
          vertex 4.1000000000000005 4.1000000000000005 0.1
          vertex 3.3000000000000003 3.8000000000000003 0.1
      endloop
  endfacet
  facet normal 0.0 0.0 1.0
      outer loop
          vertex 3.5 4.800000000000001 1
          vertex 1.9000000000000001 4.4 1
          vertex 3.3000000000000003 3.8000000000000003 1
      endloop
  endfacet
  facet normal 0.0 0.0 1.0
      outer loop
          vertex 3.5 4.800000000000001 1
          vertex 3.3000000000000003 3.8000000000000003 1
          vertex 4.1000000000000005 4.1000000000000005 1
      endloop
  endfacet
  facet normal -0.2425356250363332 0.9701425001453319 0.0
      outer loop
          vertex 3.5 4.800000000000001 0.1
          vertex 1.9000000000000001 4.4 0.1
          vertex 1.9000000000000001 4.4 1
      endloop
  endfacet
  facet normal -0.2425356250363332 0.9701425001453319 0.0
      outer loop
          vertex 3.5 4.800000000000001 0.1
          vertex 1.9000000000000001 4.4 1
          vertex 3.5 4.800000000000001 1
      endloop
  endfacet
  facet normal -0.3939192985791677 -0.9191450300180578 0.0
      outer loop
          vertex 1.9000000000000001 4.4 0.1
          vertex 3.3000000000000003 3.8000000000000003 0.1
          vertex 3.3000000000000003 3.8000000000000003 1
      endloop
  endfacet
  facet normal -0.3939192985791677 -0.9191450300180578 0.0
      outer loop
          vertex 1.9000000000000001 4.4 0.1
          vertex 3.3000000000000003 3.8000000000000003 1
          vertex 1.9000000000000001 4.4 1
      endloop
  endfacet
  facet normal 0.3511234415883918 -0.9363291775690443 0.0
      outer loop
          vertex 3.3000000000000003 3.8000000000000003 0.1
          vertex 4.1000000000000005 4.1000000000000005 0.1
          vertex 4.1000000000000005 4.1000000000000005 1
      endloop
  endfacet
  facet normal 0.3511234415883918 -0.9363291775690443 0.0
      outer loop
          vertex 3.3000000000000003 3.8000000000000003 0.1
          vertex 4.1000000000000005 4.1000000000000005 1
          vertex 3.3000000000000003 3.8000000000000003 1
      endloop
  endfacet
  facet normal 0.7592566023652965 0.6507913734559687 0.0
      outer loop
          vertex 4.1000000000000005 4.1000000000000005 0.1
          vertex 3.5 4.800000000000001 0.1
          vertex 3.5 4.800000000000001 1
      endloop
  endfacet
  facet normal 0.7592566023652965 0.6507913734559687 -0.0
      outer loop
          vertex 4.1000000000000005 4.1000000000000005 0.1
          vertex 3.5 4.800000000000001 1
          vertex 4.1000000000000005 4.1000000000000005 1
      endloop
  endfacet
endsolid obstacle
