solid obstacle
  facet normal 0.0 0.0 -1.0
      outer loop
          vertex 0.6000000000000001 3.1 0.1
          vertex 0.9 3.7 0.1
          vertex 1.3 4.2 0.1
      endloop
  endfacet
  facet normal 0.0 0.0 1.0
      outer loop
          vertex 0.6000000000000001 3.1 1
          vertex 1.3 4.2 1
          vertex 0.9 3.7 1
      endloop
  endfacet
  facet normal 0.8436614877321075 -0.5368754921931592 0.0
      outer loop
          vertex 0.6000000000000001 3.1 0.1
          vertex 1.3 4.2 0.1
          vertex 1.3 4.2 1
      endloop
  endfacet
  facet normal 0.8436614877321075 -0.5368754921931592 0.0
      outer loop
          vertex 0.6000000000000001 3.1 0.1
          vertex 1.3 4.2 1
          vertex 0.6000000000000001 3.1 1
      endloop
  endfacet
  facet normal -0.7808688094430303 0.6246950475544243 0.0
      outer loop
          vertex 1.3 4.2 0.1
          vertex 0.9 3.7 0.1
          vertex 0.9 3.7 1
      endloop
  endfacet
  facet normal -0.7808688094430303 0.6246950475544243 0.0
      outer loop
          vertex 1.3 4.2 0.1
          vertex 0.9 3.7 1
          vertex 1.3 4.2 1
      endloop
  endfacet
  facet normal -0.894427190999916 0.44721359549995776 0.0
      outer loop
          vertex 0.9 3.7 0.1
          vertex 0.6000000000000001 3.1 0.1
          vertex 0.6000000000000001 3.1 1
      endloop
  endfacet
  facet normal -0.894427190999916 0.44721359549995776 0.0
      outer loop
          vertex 0.9 3.7 0.1
          vertex 0.6000000000000001 3.1 1
          vertex 0.9 3.7 1
      endloop
  endfacet
endsolid obstacle
