solid obstacle
  facet normal 0.0 0.0 -1.0
      outer loop
          vertex 2.4000000000000004 1.0 0.1
          vertex 2.9000000000000004 2.0 0.1
          vertex 3.1 1.1 0.1
      endloop
  endfacet
  facet normal 0.0 0.0 1.0
      outer loop
          vertex 2.4000000000000004 1.0 1
          vertex 3.1 1.1 1
          vertex 2.9000000000000004 2.0 1
      endloop
  endfacet
  facet normal 0.14142135623730967 -0.9899494936611665 0.0
      outer loop
          vertex 2.4000000000000004 1.0 0.1
          vertex 3.1 1.1 0.1
          vertex 3.1 1.1 1
      endloop
  endfacet
  facet normal 0.14142135623730967 -0.9899494936611665 0.0
      outer loop
          vertex 2.4000000000000004 1.0 0.1
          vertex 3.1 1.1 1
          vertex 2.4000000000000004 1.0 1
      endloop
  endfacet
  facet normal 0.9761870601839528 0.21693045781865594 0.0
      outer loop
          vertex 3.1 1.1 0.1
          vertex 2.9000000000000004 2.0 0.1
          vertex 2.9000000000000004 2.0 1
      endloop
  endfacet
  facet normal 0.9761870601839528 0.21693045781865594 -0.0
      outer loop
          vertex 3.1 1.1 0.1
          vertex 2.9000000000000004 2.0 1
          vertex 3.1 1.1 1
      endloop
  endfacet
  facet normal -0.8944271909999157 0.44721359549995787 0.0
      outer loop
          vertex 2.9000000000000004 2.0 0.1
          vertex 2.4000000000000004 1.0 0.1
          vertex 2.4000000000000004 1.0 1
      endloop
  endfacet
  facet normal -0.8944271909999157 0.44721359549995787 0.0
      outer loop
          vertex 2.9000000000000004 2.0 0.1
          vertex 2.4000000000000004 1.0 1
          vertex 2.9000000000000004 2.0 1
      endloop
  endfacet
endsolid obstacle
