solid obstacle
  facet normal 0.0 0.0 -1.0
      outer loop
          vertex 0.4 0.6000000000000001 0.1
          vertex 0.6000000000000001 2.5 0.1
          vertex 1.2000000000000002 1.4000000000000001 0.1
      endloop
  endfacet
  facet normal 0.0 0.0 1.0
      outer loop
          vertex 0.4 0.6000000000000001 1
          vertex 1.2000000000000002 1.4000000000000001 1
          vertex 0.6000000000000001 2.5 1
      endloop
  endfacet
  facet normal 0.7071067811865475 -0.7071067811865476 0.0
      outer loop
          vertex 0.4 0.6000000000000001 0.1
          vertex 1.2000000000000002 1.4000000000000001 0.1
          vertex 1.2000000000000002 1.4000000000000001 1
      endloop
  endfacet
  facet normal 0.7071067811865475 -0.7071067811865476 0.0
      outer loop
          vertex 0.4 0.6000000000000001 0.1
          vertex 1.2000000000000002 1.4000000000000001 1
          vertex 0.4 0.6000000000000001 1
      endloop
  endfacet
  facet normal 0.8778955729143842 0.4788521306805734 0.0
      outer loop
          vertex 1.2000000000000002 1.4000000000000001 0.1
          vertex 0.6000000000000001 2.5 0.1
          vertex 0.6000000000000001 2.5 1
      endloop
  endfacet
  facet normal 0.8778955729143842 0.4788521306805734 -0.0
      outer loop
          vertex 1.2000000000000002 1.4000000000000001 0.1
          vertex 0.6000000000000001 2.5 1
          vertex 1.2000000000000002 1.4000000000000001 1
      endloop
  endfacet
  facet normal -0.994505452921406 0.10468478451804278 0.0
      outer loop
          vertex 0.6000000000000001 2.5 0.1
          vertex 0.4 0.6000000000000001 0.1
          vertex 0.4 0.6000000000000001 1
      endloop
  endfacet
  facet normal -0.994505452921406 0.10468478451804278 0.0
      outer loop
          vertex 0.6000000000000001 2.5 0.1
          vertex 0.4 0.6000000000000001 1
          vertex 0.6000000000000001 2.5 1
      endloop
  endfacet
endsolid obstacle
