solid obstacle
  facet normal 0.0 0.0 -1.0
      outer loop
          vertex 4.3 3.0 0.1
          vertex 3.0 3.1 0.1
          vertex 3.0 4.2 0.1
      endloop
  endfacet
  facet normal -0.0 0.0 -1.0
      outer loop
          vertex 4.3 3.0 0.1
          vertex 4.2 1.7000000000000002 0.1
          vertex 3.0 3.1 0.1
      endloop
  endfacet
  facet normal 0.0 0.0 1.0
      outer loop
          vertex 4.3 3.0 1
          vertex 3.0 4.2 1
          vertex 3.0 3.1 1
      endloop
  endfacet
  facet normal 0.0 0.0 1.0
      outer loop
          vertex 4.3 3.0 1
          vertex 3.0 3.1 1
          vertex 4.2 1.7000000000000002 1
      endloop
  endfacet
  facet normal 0.6782801027330659 0.7348034446274879 0.0
      outer loop
          vertex 4.3 3.0 0.1
          vertex 3.0 4.2 0.1
          vertex 3.0 4.2 1
      endloop
  endfacet
  facet normal 0.6782801027330659 0.7348034446274879 -0.0
      outer loop
          vertex 4.3 3.0 0.1
          vertex 3.0 4.2 1
          vertex 4.3 3.0 1
      endloop
  endfacet
  facet normal -1.0 0.0 0.0
      outer loop
          vertex 3.0 4.2 0.1
          vertex 3.0 3.1 0.1
          vertex 3.0 3.1 1
      endloop
  endfacet
  facet normal -1.0 0.0 0.0
      outer loop
          vertex 3.0 4.2 0.1
          vertex 3.0 3.1 1
          vertex 3.0 4.2 1
      endloop
  endfacet
  facet normal -0.7592566023652966 -0.6507913734559686 0.0
      outer loop
          vertex 3.0 3.1 0.1
          vertex 4.2 1.7000000000000002 0.1
          vertex 4.2 1.7000000000000002 1
      endloop
  endfacet
  facet normal -0.7592566023652966 -0.6507913734559686 0.0
      outer loop
          vertex 3.0 3.1 0.1
          vertex 4.2 1.7000000000000002 1
          vertex 3.0 3.1 1
      endloop
  endfacet
  facet normal 0.9970544855015816 -0.07669649888473677 0.0
      outer loop
          vertex 4.2 1.7000000000000002 0.1
          vertex 4.3 3.0 0.1
          vertex 4.3 3.0 1
      endloop
  endfacet
  facet normal 0.9970544855015816 -0.07669649888473677 0.0
      outer loop
          vertex 4.2 1.7000000000000002 0.1
          vertex 4.3 3.0 1
          vertex 4.2 1.7000000000000002 1
      endloop
  endfacet
endsolid obstacle
