solid obstacle
  facet normal -0.0 0.0 -1.0
      outer loop
          vertex 3.8000000000000003 4.7 0.1
          vertex 3.4000000000000004 3.7 0.1
          vertex 2.8000000000000003 4.800000000000001 0.1
      endloop
  endfacet
  facet normal 0.0 0.0 1.0
      outer loop
          vertex 3.8000000000000003 4.7 1
          vertex 2.8000000000000003 4.800000000000001 1
          vertex 3.4000000000000004 3.7 1
      endloop
  endfacet
  facet normal 0.09950371902099944 0.995037190209989 0.0
      outer loop
          vertex 3.8000000000000003 4.7 0.1
          vertex 2.8000000000000003 4.800000000000001 0.1
          vertex 2.8000000000000003 4.800000000000001 1
      endloop
  endfacet
  facet normal 0.09950371902099944 0.995037190209989 -0.0
      outer loop
          vertex 3.8000000000000003 4.7 0.1
          vertex 2.8000000000000003 4.800000000000001 1
          vertex 3.8000000000000003 4.7 1
      endloop
  endfacet
  facet normal -0.8778955729143846 -0.47885213068057325 0.0
      outer loop
          vertex 2.8000000000000003 4.800000000000001 0.1
          vertex 3.4000000000000004 3.7 0.1
          vertex 3.4000000000000004 3.7 1
      endloop
  endfacet
  facet normal -0.8778955729143846 -0.47885213068057325 0.0
      outer loop
          vertex 2.8000000000000003 4.800000000000001 0.1
          vertex 3.4000000000000004 3.7 1
          vertex 2.8000000000000003 4.800000000000001 1
      endloop
  endfacet
  facet normal 0.9284766908852593 -0.37139067635410367 0.0
      outer loop
          vertex 3.4000000000000004 3.7 0.1
          vertex 3.8000000000000003 4.7 0.1
          vertex 3.8000000000000003 4.7 1
      endloop
  endfacet
  facet normal 0.9284766908852593 -0.37139067635410367 0.0
      outer loop
          vertex 3.4000000000000004 3.7 0.1
          vertex 3.8000000000000003 4.7 1
          vertex 3.4000000000000004 3.7 1
      endloop
  endfacet
endsolid obstacle
