solid obstacle
  facet normal -0.0 0.0 -1.0
      outer loop
          vertex 1.6 0.8 0.01
          vertex 1.5 0.6000000000000001 0.01
          vertex 0.1 1.2000000000000002 0.01
      endloop
  endfacet
  facet normal 0.0 0.0 1.0
      outer loop
          vertex 1.6 0.8 1
          vertex 0.1 1.2000000000000002 1
          vertex 1.5 0.6000000000000001 1
      endloop
  endfacet
  facet normal 0.25766265056033244 0.9662349396012463 0.0
      outer loop
          vertex 1.6 0.8 0.01
          vertex 0.1 1.2000000000000002 0.01
          vertex 0.1 1.2000000000000002 1
      endloop
  endfacet
  facet normal 0.25766265056033244 0.9662349396012463 -0.0
      outer loop
          vertex 1.6 0.8 0.01
          vertex 0.1 1.2000000000000002 1
          vertex 1.6 0.8 1
      endloop
  endfacet
  facet normal -0.39391929857916774 -0.9191450300180579 0.0
      outer loop
          vertex 0.1 1.2000000000000002 0.01
          vertex 1.5 0.6000000000000001 0.01
          vertex 1.5 0.6000000000000001 1
      endloop
  endfacet
  facet normal -0.39391929857916774 -0.9191450300180579 0.0
      outer loop
          vertex 0.1 1.2000000000000002 0.01
          vertex 1.5 0.6000000000000001 1
          vertex 0.1 1.2000000000000002 1
      endloop
  endfacet
  facet normal 0.8944271909999156 -0.4472135954999583 0.0
      outer loop
          vertex 1.5 0.6000000000000001 0.01
          vertex 1.6 0.8 0.01
          vertex 1.6 0.8 1
      endloop
  endfacet
  facet normal 0.8944271909999156 -0.4472135954999583 0.0
      outer loop
          vertex 1.5 0.6000000000000001 0.01
          vertex 1.6 0.8 1
          vertex 1.5 0.6000000000000001 1
      endloop
  endfacet
endsolid obstacle
