solid obstacle
  facet normal -0.0 0.0 -1.0
      outer loop
          vertex 4.0 4.5 0.1
          vertex 3.4000000000000004 4.2 0.1
          vertex 3.1 4.5 0.1
      endloop
  endfacet
  facet normal 0.0 0.0 1.0
      outer loop
          vertex 4.0 4.5 1
          vertex 3.1 4.5 1
          vertex 3.4000000000000004 4.2 1
      endloop
  endfacet
  facet normal 0.0 1.0 0.0
      outer loop
          vertex 4.0 4.5 0.1
          vertex 3.1 4.5 0.1
          vertex 3.1 4.5 1
      endloop
  endfacet
  facet normal 0.0 1.0 -0.0
      outer loop
          vertex 4.0 4.5 0.1
          vertex 3.1 4.5 1
          vertex 4.0 4.5 1
      endloop
  endfacet
  facet normal -0.707106781186547 -0.7071067811865481 0.0
      outer loop
          vertex 3.1 4.5 0.1
          vertex 3.4000000000000004 4.2 0.1
          vertex 3.4000000000000004 4.2 1
      endloop
  endfacet
  facet normal -0.707106781186547 -0.7071067811865481 0.0
      outer loop
          vertex 3.1 4.5 0.1
          vertex 3.4000000000000004 4.2 1
          vertex 3.1 4.5 1
      endloop
  endfacet
  facet normal 0.4472135954999579 -0.8944271909999159 0.0
      outer loop
          vertex 3.4000000000000004 4.2 0.1
          vertex 4.0 4.5 0.1
          vertex 4.0 4.5 1
      endloop
  endfacet
  facet normal 0.4472135954999579 -0.8944271909999159 0.0
      outer loop
          vertex 3.4000000000000004 4.2 0.1
          vertex 4.0 4.5 1
          vertex 3.4000000000000004 4.2 1
      endloop
  endfacet
endsolid obstacle
