solid obstacle
  facet normal 0.0 0.0 -1.0
      outer loop
          vertex 1.2000000000000002 1.3 0.1
          vertex 2.8000000000000003 2.0 0.1
          vertex 2.9000000000000004 1.4000000000000001 0.1
      endloop
  endfacet
  facet normal 0.0 0.0 -1.0
      outer loop
          vertex 1.2000000000000002 1.3 0.1
          vertex 1.5 1.8 0.1
          vertex 2.8000000000000003 2.0 0.1
      endloop
  endfacet
  facet normal 0.0 0.0 1.0
      outer loop
          vertex 1.2000000000000002 1.3 1
          vertex 2.9000000000000004 1.4000000000000001 1
          vertex 2.8000000000000003 2.0 1
      endloop
  endfacet
  facet normal 0.0 0.0 1.0
      outer loop
          vertex 1.2000000000000002 1.3 1
          vertex 2.8000000000000003 2.0 1
          vertex 1.5 1.8 1
      endloop
  endfacet
  facet normal 0.05872202195147039 -0.9982743731749958 0.0
      outer loop
          vertex 1.2000000000000002 1.3 0.1
          vertex 2.9000000000000004 1.4000000000000001 0.1
          vertex 2.9000000000000004 1.4000000000000001 1
      endloop
  endfacet
  facet normal 0.05872202195147039 -0.9982743731749958 0.0
      outer loop
          vertex 1.2000000000000002 1.3 0.1
          vertex 2.9000000000000004 1.4000000000000001 1
          vertex 1.2000000000000002 1.3 1
      endloop
  endfacet
  facet normal 0.9863939238321437 0.16439898730535746 0.0
      outer loop
          vertex 2.9000000000000004 1.4000000000000001 0.1
          vertex 2.8000000000000003 2.0 0.1
          vertex 2.8000000000000003 2.0 1
      endloop
  endfacet
  facet normal 0.9863939238321437 0.16439898730535746 -0.0
      outer loop
          vertex 2.9000000000000004 1.4000000000000001 0.1
          vertex 2.8000000000000003 2.0 1
          vertex 2.9000000000000004 1.4000000000000001 1
      endloop
  endfacet
  facet normal -0.15205718425394102 0.9883716976506172 0.0
      outer loop
          vertex 2.8000000000000003 2.0 0.1
          vertex 1.5 1.8 0.1
          vertex 1.5 1.8 1
      endloop
  endfacet
  facet normal -0.15205718425394102 0.9883716976506172 0.0
      outer loop
          vertex 2.8000000000000003 2.0 0.1
          vertex 1.5 1.8 1
          vertex 2.8000000000000003 2.0 1
      endloop
  endfacet
  facet normal -0.8574929257125443 0.5144957554275263 0.0
      outer loop
          vertex 1.5 1.8 0.1
          vertex 1.2000000000000002 1.3 0.1
          vertex 1.2000000000000002 1.3 1
      endloop
  endfacet
  facet normal -0.8574929257125443 0.5144957554275263 0.0
      outer loop
          vertex 1.5 1.8 0.1
          vertex 1.2000000000000002 1.3 1
          vertex 1.5 1.8 1
      endloop
  endfacet
endsolid obstacle
