solid obstacle
  facet normal 0.0 0.0 -1.0
      outer loop
          vertex 0.7000000000000001 2.8000000000000003 0.1
          vertex 0.0 1.0 0.1
          vertex 0.0 2.0 0.1
      endloop
  endfacet
  facet normal 0.0 0.0 1.0
      outer loop
          vertex 0.7000000000000001 2.8000000000000003 1
          vertex 0.0 2.0 1
          vertex 0.0 1.0 1
      endloop
  endfacet
  facet normal -0.7525766947068779 0.6585046078685179 0.0
      outer loop
          vertex 0.7000000000000001 2.8000000000000003 0.1
          vertex 0.0 2.0 0.1
          vertex 0.0 2.0 1
      endloop
  endfacet
  facet normal -0.7525766947068779 0.6585046078685179 0.0
      outer loop
          vertex 0.7000000000000001 2.8000000000000003 0.1
          vertex 0.0 2.0 1
          vertex 0.7000000000000001 2.8000000000000003 1
      endloop
  endfacet
  facet normal -1.0 0.0 0.0
      outer loop
          vertex 0.0 2.0 0.1
          vertex 0.0 1.0 0.1
          vertex 0.0 1.0 1
      endloop
  endfacet
  facet normal -1.0 0.0 0.0
      outer loop
          vertex 0.0 2.0 0.1
          vertex 0.0 1.0 1
          vertex 0.0 2.0 1
      endloop
  endfacet
  facet normal 0.932004671541296 -0.36244626115494843 0.0
      outer loop
          vertex 0.0 1.0 0.1
          vertex 0.7000000000000001 2.8000000000000003 0.1
          vertex 0.7000000000000001 2.8000000000000003 1
      endloop
  endfacet
  facet normal 0.932004671541296 -0.36244626115494843 0.0
      outer loop
          vertex 0.0 1.0 0.1
          vertex 0.7000000000000001 2.8000000000000003 1
          vertex 0.0 1.0 1
      endloop
  endfacet
endsolid obstacle
