solid obstacle
  facet normal 0.0 0.0 -1.0
      outer loop
          vertex 2.3000000000000003 1.5 0.1
          vertex 2.2 0.6000000000000001 0.1
          vertex 0.9 0.5 0.1
      endloop
  endfacet
  facet normal 0.0 0.0 1.0
      outer loop
          vertex 2.3000000000000003 1.5 1
          vertex 0.9 0.5 1
          vertex 2.2 0.6000000000000001 1
      endloop
  endfacet
  facet normal -0.5812381937190962 0.813733471206735 0.0
      outer loop
          vertex 2.3000000000000003 1.5 0.1
          vertex 0.9 0.5 0.1
          vertex 0.9 0.5 1
      endloop
  endfacet
  facet normal -0.5812381937190962 0.813733471206735 0.0
      outer loop
          vertex 2.3000000000000003 1.5 0.1
          vertex 0.9 0.5 1
          vertex 2.3000000000000003 1.5 1
      endloop
  endfacet
  facet normal 0.07669649888473709 -0.9970544855015816 0.0
      outer loop
          vertex 0.9 0.5 0.1
          vertex 2.2 0.6000000000000001 0.1
          vertex 2.2 0.6000000000000001 1
      endloop
  endfacet
  facet normal 0.07669649888473709 -0.9970544855015816 0.0
      outer loop
          vertex 0.9 0.5 0.1
          vertex 2.2 0.6000000000000001 1
          vertex 0.9 0.5 1
      endloop
  endfacet
  facet normal 0.9938837346736189 -0.11043152607484664 0.0
      outer loop
          vertex 2.2 0.6000000000000001 0.1
          vertex 2.3000000000000003 1.5 0.1
          vertex 2.3000000000000003 1.5 1
      endloop
  endfacet
  facet normal 0.9938837346736189 -0.11043152607484664 0.0
      outer loop
          vertex 2.2 0.6000000000000001 0.1
          vertex 2.3000000000000003 1.5 1
          vertex 2.2 0.6000000000000001 1
      endloop
  endfacet
endsolid obstacle
