solid obstacle
  facet normal 0.0 0.0 -1.0
      outer loop
          vertex 1.1 1.6 0.01
          vertex 1.5 3.5 0.01
          vertex 2.3000000000000003 2.1 0.01
      endloop
  endfacet
  facet normal 0.0 0.0 1.0
      outer loop
          vertex 1.1 1.6 1
          vertex 2.3000000000000003 2.1 1
          vertex 1.5 3.5 1
      endloop
  endfacet
  facet normal 0.3846153846153846 -0.9230769230769231 0.0
      outer loop
          vertex 1.1 1.6 0.01
          vertex 2.3000000000000003 2.1 0.01
          vertex 2.3000000000000003 2.1 1
      endloop
  endfacet
  facet normal 0.3846153846153846 -0.9230769230769231 0.0
      outer loop
          vertex 1.1 1.6 0.01
          vertex 2.3000000000000003 2.1 1
          vertex 1.1 1.6 1
      endloop
  endfacet
  facet normal 0.8682431421244591 0.496138938356834 0.0
      outer loop
          vertex 2.3000000000000003 2.1 0.01
          vertex 1.5 3.5 0.01
          vertex 1.5 3.5 1
      endloop
  endfacet
  facet normal 0.8682431421244591 0.496138938356834 -0.0
      outer loop
          vertex 2.3000000000000003 2.1 0.01
          vertex 1.5 3.5 1
          vertex 2.3000000000000003 2.1 1
      endloop
  endfacet
  facet normal -0.978549784986749 0.20601048104984185 0.0
      outer loop
          vertex 1.5 3.5 0.01
          vertex 1.1 1.6 0.01
          vertex 1.1 1.6 1
      endloop
  endfacet
  facet normal -0.978549784986749 0.20601048104984185 0.0
      outer loop
          vertex 1.5 3.5 0.01
          vertex 1.1 1.6 1
          vertex 1.5 3.5 1
      endloop
  endfacet
endsolid obstacle
