solid obstacle
  facet normal 0.0 0.0 -1.0
      outer loop
          vertex 0.0 1.6 0.1
          vertex 0.0 2.0 0.1
          vertex 1.2000000000000002 0.5 0.1
      endloop
  endfacet
  facet normal -0.0 0.0 1.0
      outer loop
          vertex 0.0 1.6 1
          vertex 1.2000000000000002 0.5 1
          vertex 0.0 2.0 1
      endloop
  endfacet
  facet normal -0.6757246285173463 -0.7371541402007415 0.0
      outer loop
          vertex 0.0 1.6 0.1
          vertex 1.2000000000000002 0.5 0.1
          vertex 1.2000000000000002 0.5 1
      endloop
  endfacet
  facet normal -0.6757246285173463 -0.7371541402007415 0.0
      outer loop
          vertex 0.0 1.6 0.1
          vertex 1.2000000000000002 0.5 1
          vertex 0.0 1.6 1
      endloop
  endfacet
  facet normal 0.7808688094430303 0.6246950475544243 0.0
      outer loop
          vertex 1.2000000000000002 0.5 0.1
          vertex 0.0 2.0 0.1
          vertex 0.0 2.0 1
      endloop
  endfacet
  facet normal 0.7808688094430303 0.6246950475544243 -0.0
      outer loop
          vertex 1.2000000000000002 0.5 0.1
          vertex 0.0 2.0 1
          vertex 1.2000000000000002 0.5 1
      endloop
  endfacet
  facet normal -1.0 0.0 0.0
      outer loop
          vertex 0.0 2.0 0.1
          vertex 0.0 1.6 0.1
          vertex 0.0 1.6 1
      endloop
  endfacet
  facet normal -1.0 0.0 0.0
      outer loop
          vertex 0.0 2.0 0.1
          vertex 0.0 1.6 1
          vertex 0.0 2.0 1
      endloop
  endfacet
endsolid obstacle
