solid obstacle
  facet normal 0.0 -0.0 -1.0
      outer loop
          vertex 2.4000000000000004 2.0 0.01
          vertex 3.2 0.4 0.01
          vertex 1.9000000000000001 0.9 0.01
      endloop
  endfacet
  facet normal 0.0 0.0 -1.0
      outer loop
          vertex 2.4000000000000004 2.0 0.01
          vertex 4.3 1.6 0.01
          vertex 3.2 0.4 0.01
      endloop
  endfacet
  facet normal 0.0 0.0 1.0
      outer loop
          vertex 2.4000000000000004 2.0 1
          vertex 1.9000000000000001 0.9 1
          vertex 3.2 0.4 1
      endloop
  endfacet
  facet normal 0.0 0.0 1.0
      outer loop
          vertex 2.4000000000000004 2.0 1
          vertex 3.2 0.4 1
          vertex 4.3 1.6 1
      endloop
  endfacet
  facet normal -0.9103664774626047 0.41380294430118414 0.0
      outer loop
          vertex 2.4000000000000004 2.0 0.01
          vertex 1.9000000000000001 0.9 0.01
          vertex 1.9000000000000001 0.9 1
      endloop
  endfacet
  facet normal -0.9103664774626047 0.41380294430118414 0.0
      outer loop
          vertex 2.4000000000000004 2.0 0.01
          vertex 1.9000000000000001 0.9 1
          vertex 2.4000000000000004 2.0 1
      endloop
  endfacet
  facet normal -0.3589790793088691 -0.9333456062030595 0.0
      outer loop
          vertex 1.9000000000000001 0.9 0.01
          vertex 3.2 0.4 0.01
          vertex 3.2 0.4 1
      endloop
  endfacet
  facet normal -0.3589790793088691 -0.9333456062030595 0.0
      outer loop
          vertex 1.9000000000000001 0.9 0.01
          vertex 3.2 0.4 1
          vertex 1.9000000000000001 0.9 1
      endloop
  endfacet
  facet normal 0.7371541402007415 -0.6757246285173462 0.0
      outer loop
          vertex 3.2 0.4 0.01
          vertex 4.3 1.6 0.01
          vertex 4.3 1.6 1
      endloop
  endfacet
  facet normal 0.7371541402007415 -0.6757246285173462 0.0
      outer loop
          vertex 3.2 0.4 0.01
          vertex 4.3 1.6 1
          vertex 3.2 0.4 1
      endloop
  endfacet
  facet normal 0.2060104810498419 0.978549784986749 0.0
      outer loop
          vertex 4.3 1.6 0.01
          vertex 2.4000000000000004 2.0 0.01
          vertex 2.4000000000000004 2.0 1
      endloop
  endfacet
  facet normal 0.2060104810498419 0.978549784986749 -0.0
      outer loop
          vertex 4.3 1.6 0.01
          vertex 2.4000000000000004 2.0 1
          vertex 4.3 1.6 1
      endloop
  endfacet
endsolid obstacle
