solid obstacle
  facet normal 0.0 0.0 -1.0
      outer loop
          vertex 3.2 2.6 0.01
          vertex 2.5 0.5 0.01
          vertex 1.5 1.7000000000000002 0.01
      endloop
  endfacet
  facet normal 0.0 -0.0 -1.0
      outer loop
          vertex 3.2 2.6 0.01
          vertex 3.5 0.7000000000000001 0.01
          vertex 2.5 0.5 0.01
      endloop
  endfacet
  facet normal 0.0 0.0 1.0
      outer loop
          vertex 3.2 2.6 1
          vertex 1.5 1.7000000000000002 1
          vertex 2.5 0.5 1
      endloop
  endfacet
  facet normal 0.0 0.0 1.0
      outer loop
          vertex 3.2 2.6 1
          vertex 2.5 0.5 1
          vertex 3.5 0.7000000000000001 1
      endloop
  endfacet
  facet normal -0.46788772041903265 0.8837879163470618 0.0
      outer loop
          vertex 3.2 2.6 0.01
          vertex 1.5 1.7000000000000002 0.01
          vertex 1.5 1.7000000000000002 1
      endloop
  endfacet
  facet normal -0.46788772041903265 0.8837879163470618 0.0
      outer loop
          vertex 3.2 2.6 0.01
          vertex 1.5 1.7000000000000002 1
          vertex 3.2 2.6 1
      endloop
  endfacet
  facet normal -0.768221279597376 -0.6401843996644798 0.0
      outer loop
          vertex 1.5 1.7000000000000002 0.01
          vertex 2.5 0.5 0.01
          vertex 2.5 0.5 1
      endloop
  endfacet
  facet normal -0.768221279597376 -0.6401843996644798 0.0
      outer loop
          vertex 1.5 1.7000000000000002 0.01
          vertex 2.5 0.5 1
          vertex 1.5 1.7000000000000002 1
      endloop
  endfacet
  facet normal 0.1961161351381841 -0.9805806756909201 0.0
      outer loop
          vertex 2.5 0.5 0.01
          vertex 3.5 0.7000000000000001 0.01
          vertex 3.5 0.7000000000000001 1
      endloop
  endfacet
  facet normal 0.1961161351381841 -0.9805806756909201 0.0
      outer loop
          vertex 2.5 0.5 0.01
          vertex 3.5 0.7000000000000001 1
          vertex 2.5 0.5 1
      endloop
  endfacet
  facet normal 0.987762965329069 0.15596257347301082 0.0
      outer loop
          vertex 3.5 0.7000000000000001 0.01
          vertex 3.2 2.6 0.01
          vertex 3.2 2.6 1
      endloop
  endfacet
  facet normal 0.987762965329069 0.15596257347301082 -0.0
      outer loop
          vertex 3.5 0.7000000000000001 0.01
          vertex 3.2 2.6 1
          vertex 3.5 0.7000000000000001 1
      endloop
  endfacet
endsolid obstacle
