solid obstacle
  facet normal 0.0 0.0 -1.0
      outer loop
          vertex 1.5 1.3 0.01
          vertex 1.6 1.4000000000000001 0.01
          vertex 1.6 1.3 0.01
      endloop
  endfacet
  facet normal 0.0 0.0 1.0
      outer loop
          vertex 1.5 1.3 1
          vertex 1.6 1.3 1
          vertex 1.6 1.4000000000000001 1
      endloop
  endfacet
  facet normal 0.0 -1.0 0.0
      outer loop
          vertex 1.5 1.3 0.01
          vertex 1.6 1.3 0.01
          vertex 1.6 1.3 1
      endloop
  endfacet
  facet normal 0.0 -1.0 0.0
      outer loop
          vertex 1.5 1.3 0.01
          vertex 1.6 1.3 1
          vertex 1.5 1.3 1
      endloop
  endfacet
  facet normal 1.0 0.0 0.0
      outer loop
          vertex 1.6 1.3 0.01
          vertex 1.6 1.4000000000000001 0.01
          vertex 1.6 1.4000000000000001 1
      endloop
  endfacet
  facet normal 1.0 0.0 0.0
      outer loop
          vertex 1.6 1.3 0.01
          vertex 1.6 1.4000000000000001 1
          vertex 1.6 1.3 1
      endloop
  endfacet
  facet normal -0.7071067811865475 0.7071067811865475 0.0
      outer loop
          vertex 1.6 1.4000000000000001 0.01
          vertex 1.5 1.3 0.01
          vertex 1.5 1.3 1
      endloop
  endfacet
  facet normal -0.7071067811865475 0.7071067811865475 0.0
      outer loop
          vertex 1.6 1.4000000000000001 0.01
          vertex 1.5 1.3 1
          vertex 1.6 1.4000000000000001 1
      endloop
  endfacet
endsolid obstacle
