solid obstacle
  facet normal 0.0 0.0 -1.0
      outer loop
          vertex 3.8000000000000003 2.1 0.1
          vertex 4.6000000000000005 3.4000000000000004 0.1
          vertex 4.7 2.8000000000000003 0.1
      endloop
  endfacet
  facet normal 0.0 0.0 1.0
      outer loop
          vertex 3.8000000000000003 2.1 1
          vertex 4.7 2.8000000000000003 1
          vertex 4.6000000000000005 3.4000000000000004 1
      endloop
  endfacet
  facet normal 0.6139406135149206 -0.7893522173763261 0.0
      outer loop
          vertex 3.8000000000000003 2.1 0.1
          vertex 4.7 2.8000000000000003 0.1
          vertex 4.7 2.8000000000000003 1
      endloop
  endfacet
  facet normal 0.6139406135149206 -0.7893522173763261 0.0
      outer loop
          vertex 3.8000000000000003 2.1 0.1
          vertex 4.7 2.8000000000000003 1
          vertex 3.8000000000000003 2.1 1
      endloop
  endfacet
  facet normal 0.9863939238321437 0.16439898730535665 0.0
      outer loop
          vertex 4.7 2.8000000000000003 0.1
          vertex 4.6000000000000005 3.4000000000000004 0.1
          vertex 4.6000000000000005 3.4000000000000004 1
      endloop
  endfacet
  facet normal 0.9863939238321437 0.16439898730535665 -0.0
      outer loop
          vertex 4.7 2.8000000000000003 0.1
          vertex 4.6000000000000005 3.4000000000000004 1
          vertex 4.7 2.8000000000000003 1
      endloop
  endfacet
  facet normal -0.8516583167045438 0.5240974256643347 0.0
      outer loop
          vertex 4.6000000000000005 3.4000000000000004 0.1
          vertex 3.8000000000000003 2.1 0.1
          vertex 3.8000000000000003 2.1 1
      endloop
  endfacet
  facet normal -0.8516583167045438 0.5240974256643347 0.0
      outer loop
          vertex 4.6000000000000005 3.4000000000000004 0.1
          vertex 3.8000000000000003 2.1 1
          vertex 4.6000000000000005 3.4000000000000004 1
      endloop
  endfacet
endsolid obstacle
