solid obstacle
  facet normal 0.0 0.0 -1.0
      outer loop
          vertex 3.7 4.6000000000000005 0.1
          vertex 3.6 4.0 0.1
          vertex 3.4000000000000004 3.2 0.1
      endloop
  endfacet
  facet normal 0.0 0.0 1.0
      outer loop
          vertex 3.7 4.6000000000000005 1
          vertex 3.4000000000000004 3.2 1
          vertex 3.6 4.0 1
      endloop
  endfacet
  facet normal -0.9778024140774095 0.20952908873087328 0.0
      outer loop
          vertex 3.7 4.6000000000000005 0.1
          vertex 3.4000000000000004 3.2 0.1
          vertex 3.4000000000000004 3.2 1
      endloop
  endfacet
  facet normal -0.9778024140774095 0.20952908873087328 0.0
      outer loop
          vertex 3.7 4.6000000000000005 0.1
          vertex 3.4000000000000004 3.2 1
          vertex 3.7 4.6000000000000005 1
      endloop
  endfacet
  facet normal 0.970142500145332 -0.24253562503633275 0.0
      outer loop
          vertex 3.4000000000000004 3.2 0.1
          vertex 3.6 4.0 0.1
          vertex 3.6 4.0 1
      endloop
  endfacet
  facet normal 0.970142500145332 -0.24253562503633275 0.0
      outer loop
          vertex 3.4000000000000004 3.2 0.1
          vertex 3.6 4.0 1
          vertex 3.4000000000000004 3.2 1
      endloop
  endfacet
  facet normal 0.9863939238321437 -0.1643989873053573 0.0
      outer loop
          vertex 3.6 4.0 0.1
          vertex 3.7 4.6000000000000005 0.1
          vertex 3.7 4.6000000000000005 1
      endloop
  endfacet
  facet normal 0.9863939238321437 -0.1643989873053573 0.0
      outer loop
          vertex 3.6 4.0 0.1
          vertex 3.7 4.6000000000000005 1
          vertex 3.6 4.0 1
      endloop
  endfacet
endsolid obstacle
