solid obstacle
  facet normal 0.0 0.0 -1.0
      outer loop
          vertex 4.4 4.2 0.01
          vertex 4.1000000000000005 2.7 0.01
          vertex 3.8000000000000003 3.0 0.01
      endloop
  endfacet
  facet normal 0.0 0.0 1.0
      outer loop
          vertex 4.4 4.2 1
          vertex 3.8000000000000003 3.0 1
          vertex 4.1000000000000005 2.7 1
      endloop
  endfacet
  facet normal -0.8944271909999159 0.4472135954999579 0.0
      outer loop
          vertex 4.4 4.2 0.01
          vertex 3.8000000000000003 3.0 0.01
          vertex 3.8000000000000003 3.0 1
      endloop
  endfacet
  facet normal -0.8944271909999159 0.4472135954999579 0.0
      outer loop
          vertex 4.4 4.2 0.01
          vertex 3.8000000000000003 3.0 1
          vertex 4.4 4.2 1
      endloop
  endfacet
  facet normal -0.707106781186547 -0.707106781186548 0.0
      outer loop
          vertex 3.8000000000000003 3.0 0.01
          vertex 4.1000000000000005 2.7 0.01
          vertex 4.1000000000000005 2.7 1
      endloop
  endfacet
  facet normal -0.707106781186547 -0.707106781186548 0.0
      outer loop
          vertex 3.8000000000000003 3.0 0.01
          vertex 4.1000000000000005 2.7 1
          vertex 3.8000000000000003 3.0 1
      endloop
  endfacet
  facet normal 0.9805806756909202 -0.19611613513818393 0.0
      outer loop
          vertex 4.1000000000000005 2.7 0.01
          vertex 4.4 4.2 0.01
          vertex 4.4 4.2 1
      endloop
  endfacet
  facet normal 0.9805806756909202 -0.19611613513818393 0.0
      outer loop
          vertex 4.1000000000000005 2.7 0.01
          vertex 4.4 4.2 1
          vertex 4.1000000000000005 2.7 1
      endloop
  endfacet
endsolid obstacle
