solid obstacle
  facet normal 0.0 0.0 -1.0
      outer loop
          vertex 4.3 3.1 0.1
          vertex 3.7 2.4000000000000004 0.1
          vertex 3.3000000000000003 2.6 0.1
      endloop
  endfacet
  facet normal 0.0 -0.0 -1.0
      outer loop
          vertex 4.3 3.1 0.1
          vertex 4.7 2.6 0.1
          vertex 3.7 2.4000000000000004 0.1
      endloop
  endfacet
  facet normal 0.0 0.0 1.0
      outer loop
          vertex 4.3 3.1 1
          vertex 3.3000000000000003 2.6 1
          vertex 3.7 2.4000000000000004 1
      endloop
  endfacet
  facet normal 0.0 0.0 1.0
      outer loop
          vertex 4.3 3.1 1
          vertex 3.7 2.4000000000000004 1
          vertex 4.7 2.6 1
      endloop
  endfacet
  facet normal -0.4472135954999581 0.8944271909999157 0.0
      outer loop
          vertex 4.3 3.1 0.1
          vertex 3.3000000000000003 2.6 0.1
          vertex 3.3000000000000003 2.6 1
      endloop
  endfacet
  facet normal -0.4472135954999581 0.8944271909999157 0.0
      outer loop
          vertex 4.3 3.1 0.1
          vertex 3.3000000000000003 2.6 1
          vertex 4.3 3.1 1
      endloop
  endfacet
  facet normal -0.44721359549995754 -0.8944271909999161 0.0
      outer loop
          vertex 3.3000000000000003 2.6 0.1
          vertex 3.7 2.4000000000000004 0.1
          vertex 3.7 2.4000000000000004 1
      endloop
  endfacet
  facet normal -0.44721359549995754 -0.8944271909999161 0.0
      outer loop
          vertex 3.3000000000000003 2.6 0.1
          vertex 3.7 2.4000000000000004 1
          vertex 3.3000000000000003 2.6 1
      endloop
  endfacet
  facet normal 0.1961161351381838 -0.9805806756909202 0.0
      outer loop
          vertex 3.7 2.4000000000000004 0.1
          vertex 4.7 2.6 0.1
          vertex 4.7 2.6 1
      endloop
  endfacet
  facet normal 0.1961161351381838 -0.9805806756909202 0.0
      outer loop
          vertex 3.7 2.4000000000000004 0.1
          vertex 4.7 2.6 1
          vertex 3.7 2.4000000000000004 1
      endloop
  endfacet
  facet normal 0.7808688094430299 0.6246950475544245 0.0
      outer loop
          vertex 4.7 2.6 0.1
          vertex 4.3 3.1 0.1
          vertex 4.3 3.1 1
      endloop
  endfacet
  facet normal 0.7808688094430299 0.6246950475544245 -0.0
      outer loop
          vertex 4.7 2.6 0.1
          vertex 4.3 3.1 1
          vertex 4.7 2.6 1
      endloop
  endfacet
endsolid obstacle
