solid obstacle
  facet normal 0.0 -0.0 -1.0
      outer loop
          vertex 1.2000000000000002 3.6 0.01
          vertex 1.4000000000000001 2.1 0.01
          vertex 0.8 3.0 0.01
      endloop
  endfacet
  facet normal 0.0 0.0 -1.0
      outer loop
          vertex 1.2000000000000002 3.6 0.01
          vertex 2.0 1.8 0.01
          vertex 1.4000000000000001 2.1 0.01
      endloop
  endfacet
  facet normal 0.0 0.0 1.0
      outer loop
          vertex 1.2000000000000002 3.6 1
          vertex 0.8 3.0 1
          vertex 1.4000000000000001 2.1 1
      endloop
  endfacet
  facet normal 0.0 0.0 1.0
      outer loop
          vertex 1.2000000000000002 3.6 1
          vertex 1.4000000000000001 2.1 1
          vertex 2.0 1.8 1
      endloop
  endfacet
  facet normal -0.8320502943378436 0.5547001962252291 0.0
      outer loop
          vertex 1.2000000000000002 3.6 0.01
          vertex 0.8 3.0 0.01
          vertex 0.8 3.0 1
      endloop
  endfacet
  facet normal -0.8320502943378436 0.5547001962252291 0.0
      outer loop
          vertex 1.2000000000000002 3.6 0.01
          vertex 0.8 3.0 1
          vertex 1.2000000000000002 3.6 1
      endloop
  endfacet
  facet normal -0.8320502943378436 -0.5547001962252293 0.0
      outer loop
          vertex 0.8 3.0 0.01
          vertex 1.4000000000000001 2.1 0.01
          vertex 1.4000000000000001 2.1 1
      endloop
  endfacet
  facet normal -0.8320502943378436 -0.5547001962252293 0.0
      outer loop
          vertex 0.8 3.0 0.01
          vertex 1.4000000000000001 2.1 1
          vertex 0.8 3.0 1
      endloop
  endfacet
  facet normal -0.4472135954999581 -0.8944271909999159 0.0
      outer loop
          vertex 1.4000000000000001 2.1 0.01
          vertex 2.0 1.8 0.01
          vertex 2.0 1.8 1
      endloop
  endfacet
  facet normal -0.4472135954999581 -0.8944271909999159 0.0
      outer loop
          vertex 1.4000000000000001 2.1 0.01
          vertex 2.0 1.8 1
          vertex 1.4000000000000001 2.1 1
      endloop
  endfacet
  facet normal 0.9138115486202572 0.4061384660534475 0.0
      outer loop
          vertex 2.0 1.8 0.01
          vertex 1.2000000000000002 3.6 0.01
          vertex 1.2000000000000002 3.6 1
      endloop
  endfacet
  facet normal 0.9138115486202572 0.4061384660534475 -0.0
      outer loop
          vertex 2.0 1.8 0.01
          vertex 1.2000000000000002 3.6 1
          vertex 2.0 1.8 1
      endloop
  endfacet
endsolid obstacle
