solid obstacle
  facet normal 0.0 0.0 -1.0
      outer loop
          vertex 3.8000000000000003 2.5 0.01
          vertex 3.1 1.5 0.01
          vertex 3.0 2.3000000000000003 0.01
      endloop
  endfacet
  facet normal 0.0 0.0 1.0
      outer loop
          vertex 3.8000000000000003 2.5 1
          vertex 3.0 2.3000000000000003 1
          vertex 3.1 1.5 1
      endloop
  endfacet
  facet normal -0.24253562503633258 0.970142500145332 0.0
      outer loop
          vertex 3.8000000000000003 2.5 0.01
          vertex 3.0 2.3000000000000003 0.01
          vertex 3.0 2.3000000000000003 1
      endloop
  endfacet
  facet normal -0.24253562503633258 0.970142500145332 0.0
      outer loop
          vertex 3.8000000000000003 2.5 0.01
          vertex 3.0 2.3000000000000003 1
          vertex 3.8000000000000003 2.5 1
      endloop
  endfacet
  facet normal -0.9922778767136677 -0.12403473458920854 0.0
      outer loop
          vertex 3.0 2.3000000000000003 0.01
          vertex 3.1 1.5 0.01
          vertex 3.1 1.5 1
      endloop
  endfacet
  facet normal -0.9922778767136677 -0.12403473458920854 0.0
      outer loop
          vertex 3.0 2.3000000000000003 0.01
          vertex 3.1 1.5 1
          vertex 3.0 2.3000000000000003 1
      endloop
  endfacet
  facet normal 0.8192319205190404 -0.5734623443633284 0.0
      outer loop
          vertex 3.1 1.5 0.01
          vertex 3.8000000000000003 2.5 0.01
          vertex 3.8000000000000003 2.5 1
      endloop
  endfacet
  facet normal 0.8192319205190404 -0.5734623443633284 0.0
      outer loop
          vertex 3.1 1.5 0.01
          vertex 3.8000000000000003 2.5 1
          vertex 3.1 1.5 1
      endloop
  endfacet
endsolid obstacle
