solid obstacle
  facet normal -0.0 0.0 -1.0
      outer loop
          vertex 1.0 2.4000000000000004 0.01
          vertex 0.5 1.7000000000000002 0.01
          vertex 0.5 2.6 0.01
      endloop
  endfacet
  facet normal 0.0 0.0 1.0
      outer loop
          vertex 1.0 2.4000000000000004 1
          vertex 0.5 2.6 1
          vertex 0.5 1.7000000000000002 1
      endloop
  endfacet
  facet normal 0.3713906763541033 0.9284766908852595 0.0
      outer loop
          vertex 1.0 2.4000000000000004 0.01
          vertex 0.5 2.6 0.01
          vertex 0.5 2.6 1
      endloop
  endfacet
  facet normal 0.3713906763541033 0.9284766908852595 -0.0
      outer loop
          vertex 1.0 2.4000000000000004 0.01
          vertex 0.5 2.6 1
          vertex 1.0 2.4000000000000004 1
      endloop
  endfacet
  facet normal -1.0 0.0 0.0
      outer loop
          vertex 0.5 2.6 0.01
          vertex 0.5 1.7000000000000002 0.01
          vertex 0.5 1.7000000000000002 1
      endloop
  endfacet
  facet normal -1.0 0.0 0.0
      outer loop
          vertex 0.5 2.6 0.01
          vertex 0.5 1.7000000000000002 1
          vertex 0.5 2.6 1
      endloop
  endfacet
  facet normal 0.8137334712067351 -0.5812381937190964 0.0
      outer loop
          vertex 0.5 1.7000000000000002 0.01
          vertex 1.0 2.4000000000000004 0.01
          vertex 1.0 2.4000000000000004 1
      endloop
  endfacet
  facet normal 0.8137334712067351 -0.5812381937190964 0.0
      outer loop
          vertex 0.5 1.7000000000000002 0.01
          vertex 1.0 2.4000000000000004 1
          vertex 0.5 1.7000000000000002 1
      endloop
  endfacet
endsolid obstacle
