solid obstacle
  facet normal 0.0 0.0 -1.0
      outer loop
          vertex 0.0 1.2000000000000002 0.01
          vertex 0.0 1.4000000000000001 0.01
          vertex 0.1 1.5 0.01
      endloop
  endfacet
  facet normal 0.0 0.0 1.0
      outer loop
          vertex 0.0 1.2000000000000002 1
          vertex 0.1 1.5 1
          vertex 0.0 1.4000000000000001 1
      endloop
  endfacet
  facet normal 0.9486832980505137 -0.3162277660168381 0.0
      outer loop
          vertex 0.0 1.2000000000000002 0.01
          vertex 0.1 1.5 0.01
          vertex 0.1 1.5 1
      endloop
  endfacet
  facet normal 0.9486832980505137 -0.3162277660168381 0.0
      outer loop
          vertex 0.0 1.2000000000000002 0.01
          vertex 0.1 1.5 1
          vertex 0.0 1.2000000000000002 1
      endloop
  endfacet
  facet normal -0.7071067811865471 0.7071067811865481 0.0
      outer loop
          vertex 0.1 1.5 0.01
          vertex 0.0 1.4000000000000001 0.01
          vertex 0.0 1.4000000000000001 1
      endloop
  endfacet
  facet normal -0.7071067811865471 0.7071067811865481 0.0
      outer loop
          vertex 0.1 1.5 0.01
          vertex 0.0 1.4000000000000001 1
          vertex 0.1 1.5 1
      endloop
  endfacet
  facet normal -1.0 0.0 0.0
      outer loop
          vertex 0.0 1.4000000000000001 0.01
          vertex 0.0 1.2000000000000002 0.01
          vertex 0.0 1.2000000000000002 1
      endloop
  endfacet
  facet normal -1.0 0.0 0.0
      outer loop
          vertex 0.0 1.4000000000000001 0.01
          vertex 0.0 1.2000000000000002 1
          vertex 0.0 1.4000000000000001 1
      endloop
  endfacet
endsolid obstacle
