solid obstacle
  facet normal 0.0 0.0 -1.0
      outer loop
          vertex 0.9 4.3 0.01
          vertex 2.8000000000000003 4.1000000000000005 0.01
          vertex 1.3 3.1 0.01
      endloop
  endfacet
  facet normal 0.0 0.0 -1.0
      outer loop
          vertex 0.9 4.3 0.01
          vertex 2.7 4.3 0.01
          vertex 2.8000000000000003 4.1000000000000005 0.01
      endloop
  endfacet
  facet normal 0.0 0.0 1.0
      outer loop
          vertex 0.9 4.3 1
          vertex 1.3 3.1 1
          vertex 2.8000000000000003 4.1000000000000005 1
      endloop
  endfacet
  facet normal -0.0 0.0 1.0
      outer loop
          vertex 0.9 4.3 1
          vertex 2.8000000000000003 4.1000000000000005 1
          vertex 2.7 4.3 1
      endloop
  endfacet
  facet normal -0.9486832980505138 -0.31622776601683805 0.0
      outer loop
          vertex 0.9 4.3 0.01
          vertex 1.3 3.1 0.01
          vertex 1.3 3.1 1
      endloop
  endfacet
  facet normal -0.9486832980505138 -0.31622776601683805 0.0
      outer loop
          vertex 0.9 4.3 0.01
          vertex 1.3 3.1 1
          vertex 0.9 4.3 1
      endloop
  endfacet
  facet normal 0.5547001962252293 -0.8320502943378435 0.0
      outer loop
          vertex 1.3 3.1 0.01
          vertex 2.8000000000000003 4.1000000000000005 0.01
          vertex 2.8000000000000003 4.1000000000000005 1
      endloop
  endfacet
  facet normal 0.5547001962252293 -0.8320502943378435 0.0
      outer loop
          vertex 1.3 3.1 0.01
          vertex 2.8000000000000003 4.1000000000000005 1
          vertex 1.3 3.1 1
      endloop
  endfacet
  facet normal 0.894427190999915 0.44721359549995954 0.0
      outer loop
          vertex 2.8000000000000003 4.1000000000000005 0.01
          vertex 2.7 4.3 0.01
          vertex 2.7 4.3 1
      endloop
  endfacet
  facet normal 0.894427190999915 0.44721359549995954 -0.0
      outer loop
          vertex 2.8000000000000003 4.1000000000000005 0.01
          vertex 2.7 4.3 1
          vertex 2.8000000000000003 4.1000000000000005 1
      endloop
  endfacet
  facet normal 0.0 1.0 0.0
      outer loop
          vertex 2.7 4.3 0.01
          vertex 0.9 4.3 0.01
          vertex 0.9 4.3 1
      endloop
  endfacet
  facet normal 0.0 1.0 -0.0
      outer loop
          vertex 2.7 4.3 0.01
          vertex 0.9 4.3 1
          vertex 2.7 4.3 1
      endloop
  endfacet
endsolid obstacle
