solid obstacle
  facet normal 0.0 0.0 -1.0
      outer loop
          vertex 3.7 2.5 0.1
          vertex 3.6 1.4000000000000001 0.1
          vertex 3.0 1.8 0.1
      endloop
  endfacet
  facet normal 0.0 0.0 1.0
      outer loop
          vertex 3.7 2.5 1
          vertex 3.0 1.8 1
          vertex 3.6 1.4000000000000001 1
      endloop
  endfacet
  facet normal -0.7071067811865474 0.7071067811865477 0.0
      outer loop
          vertex 3.7 2.5 0.1
          vertex 3.0 1.8 0.1
          vertex 3.0 1.8 1
      endloop
  endfacet
  facet normal -0.7071067811865474 0.7071067811865477 0.0
      outer loop
          vertex 3.7 2.5 0.1
          vertex 3.0 1.8 1
          vertex 3.7 2.5 1
      endloop
  endfacet
  facet normal -0.554700196225229 -0.8320502943378439 0.0
      outer loop
          vertex 3.0 1.8 0.1
          vertex 3.6 1.4000000000000001 0.1
          vertex 3.6 1.4000000000000001 1
      endloop
  endfacet
  facet normal -0.554700196225229 -0.8320502943378439 0.0
      outer loop
          vertex 3.0 1.8 0.1
          vertex 3.6 1.4000000000000001 1
          vertex 3.0 1.8 1
      endloop
  endfacet
  facet normal 0.9958932064677039 -0.09053574604251863 0.0
      outer loop
          vertex 3.6 1.4000000000000001 0.1
          vertex 3.7 2.5 0.1
          vertex 3.7 2.5 1
      endloop
  endfacet
  facet normal 0.9958932064677039 -0.09053574604251863 0.0
      outer loop
          vertex 3.6 1.4000000000000001 0.1
          vertex 3.7 2.5 1
          vertex 3.6 1.4000000000000001 1
      endloop
  endfacet
endsolid obstacle
