solid obstacle
  facet normal 0.0 0.0 -1.0
      outer loop
          vertex 2.4000000000000004 2.5 0.1
          vertex 3.6 3.0 0.1
          vertex 4.1000000000000005 2.8000000000000003 0.1
      endloop
  endfacet
  facet normal 0.0 0.0 1.0
      outer loop
          vertex 2.4000000000000004 2.5 1
          vertex 4.1000000000000005 2.8000000000000003 1
          vertex 3.6 3.0 1
      endloop
  endfacet
  facet normal 0.1737853339090478 -0.9847835588179367 0.0
      outer loop
          vertex 2.4000000000000004 2.5 0.1
          vertex 4.1000000000000005 2.8000000000000003 0.1
          vertex 4.1000000000000005 2.8000000000000003 1
      endloop
  endfacet
  facet normal 0.1737853339090478 -0.9847835588179367 0.0
      outer loop
          vertex 2.4000000000000004 2.5 0.1
          vertex 4.1000000000000005 2.8000000000000003 1
          vertex 2.4000000000000004 2.5 1
      endloop
  endfacet
  facet normal 0.37139067635410306 0.9284766908852596 0.0
      outer loop
          vertex 4.1000000000000005 2.8000000000000003 0.1
          vertex 3.6 3.0 0.1
          vertex 3.6 3.0 1
      endloop
  endfacet
  facet normal 0.37139067635410306 0.9284766908852596 -0.0
      outer loop
          vertex 4.1000000000000005 2.8000000000000003 0.1
          vertex 3.6 3.0 1
          vertex 4.1000000000000005 2.8000000000000003 1
      endloop
  endfacet
  facet normal -0.38461538461538475 0.9230769230769231 0.0
      outer loop
          vertex 3.6 3.0 0.1
          vertex 2.4000000000000004 2.5 0.1
          vertex 2.4000000000000004 2.5 1
      endloop
  endfacet
  facet normal -0.38461538461538475 0.9230769230769231 0.0
      outer loop
          vertex 3.6 3.0 0.1
          vertex 2.4000000000000004 2.5 1
          vertex 3.6 3.0 1
      endloop
  endfacet
endsolid obstacle
