solid obstacle
  facet normal 0.0 -0.0 -1.0
      outer loop
          vertex 1.1 0.7000000000000001 0.01
          vertex 1.1 0.4 0.01
          vertex 1.0 0.5 0.01
      endloop
  endfacet
  facet normal 0.0 0.0 1.0
      outer loop
          vertex 1.1 0.7000000000000001 1
          vertex 1.0 0.5 1
          vertex 1.1 0.4 1
      endloop
  endfacet
  facet normal -0.8944271909999159 0.44721359549995815 0.0
      outer loop
          vertex 1.1 0.7000000000000001 0.01
          vertex 1.0 0.5 0.01
          vertex 1.0 0.5 1
      endloop
  endfacet
  facet normal -0.8944271909999159 0.44721359549995815 0.0
      outer loop
          vertex 1.1 0.7000000000000001 0.01
          vertex 1.0 0.5 1
          vertex 1.1 0.7000000000000001 1
      endloop
  endfacet
  facet normal -0.707106781186547 -0.7071067811865479 0.0
      outer loop
          vertex 1.0 0.5 0.01
          vertex 1.1 0.4 0.01
          vertex 1.1 0.4 1
      endloop
  endfacet
  facet normal -0.707106781186547 -0.7071067811865479 0.0
      outer loop
          vertex 1.0 0.5 0.01
          vertex 1.1 0.4 1
          vertex 1.0 0.5 1
      endloop
  endfacet
  facet normal 1.0 0.0 0.0
      outer loop
          vertex 1.1 0.4 0.01
          vertex 1.1 0.7000000000000001 0.01
          vertex 1.1 0.7000000000000001 1
      endloop
  endfacet
  facet normal 1.0 0.0 0.0
      outer loop
          vertex 1.1 0.4 0.01
          vertex 1.1 0.7000000000000001 1
          vertex 1.1 0.4 1
      endloop
  endfacet
endsolid obstacle
