solid obstacle
  facet normal 0.0 0.0 -1.0
      outer loop
          vertex 0.7000000000000001 2.0 0.01
          vertex 2.1 3.1 0.01
          vertex 2.3000000000000003 1.7000000000000002 0.01
      endloop
  endfacet
  facet normal -0.0 0.0 1.0
      outer loop
          vertex 0.7000000000000001 2.0 1
          vertex 2.3000000000000003 1.7000000000000002 1
          vertex 2.1 3.1 1
      endloop
  endfacet
  facet normal -0.18428853505018522 -0.9828721869343219 0.0
      outer loop
          vertex 0.7000000000000001 2.0 0.01
          vertex 2.3000000000000003 1.7000000000000002 0.01
          vertex 2.3000000000000003 1.7000000000000002 1
      endloop
  endfacet
  facet normal -0.18428853505018522 -0.9828721869343219 0.0
      outer loop
          vertex 0.7000000000000001 2.0 0.01
          vertex 2.3000000000000003 1.7000000000000002 1
          vertex 0.7000000000000001 2.0 1
      endloop
  endfacet
  facet normal 0.9899494936611666 0.14142135623730964 0.0
      outer loop
          vertex 2.3000000000000003 1.7000000000000002 0.01
          vertex 2.1 3.1 0.01
          vertex 2.1 3.1 1
      endloop
  endfacet
  facet normal 0.9899494936611666 0.14142135623730964 -0.0
      outer loop
          vertex 2.3000000000000003 1.7000000000000002 0.01
          vertex 2.1 3.1 1
          vertex 2.3000000000000003 1.7000000000000002 1
      endloop
  endfacet
  facet normal -0.6178215519319035 0.7863183388224226 0.0
      outer loop
          vertex 2.1 3.1 0.01
          vertex 0.7000000000000001 2.0 0.01
          vertex 0.7000000000000001 2.0 1
      endloop
  endfacet
  facet normal -0.6178215519319035 0.7863183388224226 0.0
      outer loop
          vertex 2.1 3.1 0.01
          vertex 0.7000000000000001 2.0 1
          vertex 2.1 3.1 1
      endloop
  endfacet
endsolid obstacle
