solid obstacle
  facet normal 0.0 0.0 -1.0
      outer loop
          vertex 0.4 1.1 0.01
          vertex 0.2 1.1 0.01
          vertex 0.2 1.3 0.01
      endloop
  endfacet
  facet normal 0.0 0.0 1.0
      outer loop
          vertex 0.4 1.1 1
          vertex 0.2 1.3 1
          vertex 0.2 1.1 1
      endloop
  endfacet
  facet normal 0.7071067811865475 0.7071067811865477 0.0
      outer loop
          vertex 0.4 1.1 0.01
          vertex 0.2 1.3 0.01
          vertex 0.2 1.3 1
      endloop
  endfacet
  facet normal 0.7071067811865475 0.7071067811865477 -0.0
      outer loop
          vertex 0.4 1.1 0.01
          vertex 0.2 1.3 1
          vertex 0.4 1.1 1
      endloop
  endfacet
  facet normal -1.0 0.0 0.0
      outer loop
          vertex 0.2 1.3 0.01
          vertex 0.2 1.1 0.01
          vertex 0.2 1.1 1
      endloop
  endfacet
  facet normal -1.0 0.0 0.0
      outer loop
          vertex 0.2 1.3 0.01
          vertex 0.2 1.1 1
          vertex 0.2 1.3 1
      endloop
  endfacet
  facet normal 0.0 -1.0 0.0
      outer loop
          vertex 0.2 1.1 0.01
          vertex 0.4 1.1 0.01
          vertex 0.4 1.1 1
      endloop
  endfacet
  facet normal 0.0 -1.0 0.0
      outer loop
          vertex 0.2 1.1 0.01
          vertex 0.4 1.1 1
          vertex 0.2 1.1 1
      endloop
  endfacet
endsolid obstacle
