solid obstacle
  facet normal 0.0 0.0 -1.0
      outer loop
          vertex 4.2 1.7000000000000002 0.01
          vertex 4.0 0.30000000000000004 0.01
          vertex 2.8000000000000003 1.2000000000000002 0.01
      endloop
  endfacet
  facet normal 0.0 0.0 1.0
      outer loop
          vertex 4.2 1.7000000000000002 1
          vertex 2.8000000000000003 1.2000000000000002 1
          vertex 4.0 0.30000000000000004 1
      endloop
  endfacet
  facet normal -0.3363363969981562 0.9417419115948373 0.0
      outer loop
          vertex 4.2 1.7000000000000002 0.01
          vertex 2.8000000000000003 1.2000000000000002 0.01
          vertex 2.8000000000000003 1.2000000000000002 1
      endloop
  endfacet
  facet normal -0.3363363969981562 0.9417419115948373 0.0
      outer loop
          vertex 4.2 1.7000000000000002 0.01
          vertex 2.8000000000000003 1.2000000000000002 1
          vertex 4.2 1.7000000000000002 1
      endloop
  endfacet
  facet normal -0.6000000000000001 -0.7999999999999999 0.0
      outer loop
          vertex 2.8000000000000003 1.2000000000000002 0.01
          vertex 4.0 0.30000000000000004 0.01
          vertex 4.0 0.30000000000000004 1
      endloop
  endfacet
  facet normal -0.6000000000000001 -0.7999999999999999 0.0
      outer loop
          vertex 2.8000000000000003 1.2000000000000002 0.01
          vertex 4.0 0.30000000000000004 1
          vertex 2.8000000000000003 1.2000000000000002 1
      endloop
  endfacet
  facet normal 0.9899494936611666 -0.14142135623730961 0.0
      outer loop
          vertex 4.0 0.30000000000000004 0.01
          vertex 4.2 1.7000000000000002 0.01
          vertex 4.2 1.7000000000000002 1
      endloop
  endfacet
  facet normal 0.9899494936611666 -0.14142135623730961 0.0
      outer loop
          vertex 4.0 0.30000000000000004 0.01
          vertex 4.2 1.7000000000000002 1
          vertex 4.0 0.30000000000000004 1
      endloop
  endfacet
endsolid obstacle
