solid obstacle
  facet normal 0.0 0.0 -1.0
      outer loop
          vertex 3.5 2.3000000000000003 0.1
          vertex 3.4000000000000004 1.0 0.1
          vertex 3.3000000000000003 1.5 0.1
      endloop
  endfacet
  facet normal 0.0 0.0 1.0
      outer loop
          vertex 3.5 2.3000000000000003 1
          vertex 3.3000000000000003 1.5 1
          vertex 3.4000000000000004 1.0 1
      endloop
  endfacet
  facet normal -0.970142500145332 0.2425356250363326 0.0
      outer loop
          vertex 3.5 2.3000000000000003 0.1
          vertex 3.3000000000000003 1.5 0.1
          vertex 3.3000000000000003 1.5 1
      endloop
  endfacet
  facet normal -0.970142500145332 0.2425356250363326 0.0
      outer loop
          vertex 3.5 2.3000000000000003 0.1
          vertex 3.3000000000000003 1.5 1
          vertex 3.5 2.3000000000000003 1
      endloop
  endfacet
  facet normal -0.9805806756909201 -0.19611613513818418 0.0
      outer loop
          vertex 3.3000000000000003 1.5 0.1
          vertex 3.4000000000000004 1.0 0.1
          vertex 3.4000000000000004 1.0 1
      endloop
  endfacet
  facet normal -0.9805806756909201 -0.19611613513818418 0.0
      outer loop
          vertex 3.3000000000000003 1.5 0.1
          vertex 3.4000000000000004 1.0 1
          vertex 3.3000000000000003 1.5 1
      endloop
  endfacet
  facet normal 0.9970544855015816 -0.07669649888473674 0.0
      outer loop
          vertex 3.4000000000000004 1.0 0.1
          vertex 3.5 2.3000000000000003 0.1
          vertex 3.5 2.3000000000000003 1
      endloop
  endfacet
  facet normal 0.9970544855015816 -0.07669649888473674 0.0
      outer loop
          vertex 3.4000000000000004 1.0 0.1
          vertex 3.5 2.3000000000000003 1
          vertex 3.4000000000000004 1.0 1
      endloop
  endfacet
endsolid obstacle
