solid obstacle
  facet normal 0.0 0.0 -1.0
      outer loop
          vertex 4.0 1.0 0.01
          vertex 3.8000000000000003 0.0 0.01
          vertex 3.7 0.5 0.01
      endloop
  endfacet
  facet normal 0.0 0.0 1.0
      outer loop
          vertex 4.0 1.0 1
          vertex 3.7 0.5 1
          vertex 3.8000000000000003 0.0 1
      endloop
  endfacet
  facet normal -0.8574929257125442 0.5144957554275262 0.0
      outer loop
          vertex 4.0 1.0 0.01
          vertex 3.7 0.5 0.01
          vertex 3.7 0.5 1
      endloop
  endfacet
  facet normal -0.8574929257125442 0.5144957554275262 0.0
      outer loop
          vertex 4.0 1.0 0.01
          vertex 3.7 0.5 1
          vertex 4.0 1.0 1
      endloop
  endfacet
  facet normal -0.9805806756909201 -0.1961161351381842 0.0
      outer loop
          vertex 3.7 0.5 0.01
          vertex 3.8000000000000003 0.0 0.01
          vertex 3.8000000000000003 0.0 1
      endloop
  endfacet
  facet normal -0.9805806756909201 -0.1961161351381842 0.0
      outer loop
          vertex 3.7 0.5 0.01
          vertex 3.8000000000000003 0.0 1
          vertex 3.7 0.5 1
      endloop
  endfacet
  facet normal 0.9805806756909203 -0.19611613513818382 0.0
      outer loop
          vertex 3.8000000000000003 0.0 0.01
          vertex 4.0 1.0 0.01
          vertex 4.0 1.0 1
      endloop
  endfacet
  facet normal 0.9805806756909203 -0.19611613513818382 0.0
      outer loop
          vertex 3.8000000000000003 0.0 0.01
          vertex 4.0 1.0 1
          vertex 3.8000000000000003 0.0 1
      endloop
  endfacet
endsolid obstacle
