solid obstacle
  facet normal 0.0 0.0 -1.0
      outer loop
          vertex 4.5 3.7 0.01
          vertex 4.0 1.5 0.01
          vertex 3.6 2.3000000000000003 0.01
      endloop
  endfacet
  facet normal 0.0 0.0 -1.0
      outer loop
          vertex 4.5 3.7 0.01
          vertex 4.4 2.2 0.01
          vertex 4.0 1.5 0.01
      endloop
  endfacet
  facet normal 0.0 0.0 1.0
      outer loop
          vertex 4.5 3.7 1
          vertex 3.6 2.3000000000000003 1
          vertex 4.0 1.5 1
      endloop
  endfacet
  facet normal 0.0 0.0 1.0
      outer loop
          vertex 4.5 3.7 1
          vertex 4.0 1.5 1
          vertex 4.4 2.2 1
      endloop
  endfacet
  facet normal -0.8411784753765535 0.5407575913134987 0.0
      outer loop
          vertex 4.5 3.7 0.01
          vertex 3.6 2.3000000000000003 0.01
          vertex 3.6 2.3000000000000003 1
      endloop
  endfacet
  facet normal -0.8411784753765535 0.5407575913134987 0.0
      outer loop
          vertex 4.5 3.7 0.01
          vertex 3.6 2.3000000000000003 1
          vertex 4.5 3.7 1
      endloop
  endfacet
  facet normal -0.894427190999916 -0.4472135954999577 0.0
      outer loop
          vertex 3.6 2.3000000000000003 0.01
          vertex 4.0 1.5 0.01
          vertex 4.0 1.5 1
      endloop
  endfacet
  facet normal -0.894427190999916 -0.4472135954999577 0.0
      outer loop
          vertex 3.6 2.3000000000000003 0.01
          vertex 4.0 1.5 1
          vertex 3.6 2.3000000000000003 1
      endloop
  endfacet
  facet normal 0.8682431421244591 -0.49613893835683404 0.0
      outer loop
          vertex 4.0 1.5 0.01
          vertex 4.4 2.2 0.01
          vertex 4.4 2.2 1
      endloop
  endfacet
  facet normal 0.8682431421244591 -0.49613893835683404 0.0
      outer loop
          vertex 4.0 1.5 0.01
          vertex 4.4 2.2 1
          vertex 4.0 1.5 1
      endloop
  endfacet
  facet normal 0.997785157856609 -0.06651901052377371 0.0
      outer loop
          vertex 4.4 2.2 0.01
          vertex 4.5 3.7 0.01
          vertex 4.5 3.7 1
      endloop
  endfacet
  facet normal 0.997785157856609 -0.06651901052377371 0.0
      outer loop
          vertex 4.4 2.2 0.01
          vertex 4.5 3.7 1
          vertex 4.4 2.2 1
      endloop
  endfacet
endsolid obstacle
