solid obstacle
  facet normal 0.0 0.0 -1.0
      outer loop
          vertex 2.4000000000000004 3.8000000000000003 0.01
          vertex 2.3000000000000003 3.0 0.01
          vertex 1.1 3.3000000000000003 0.01
      endloop
  endfacet
  facet normal 0.0 -0.0 -1.0
      outer loop
          vertex 2.4000000000000004 3.8000000000000003 0.01
          vertex 3.1 3.4000000000000004 0.01
          vertex 2.3000000000000003 3.0 0.01
      endloop
  endfacet
  facet normal 0.0 0.0 1.0
      outer loop
          vertex 2.4000000000000004 3.8000000000000003 1
          vertex 1.1 3.3000000000000003 1
          vertex 2.3000000000000003 3.0 1
      endloop
  endfacet
  facet normal 0.0 0.0 1.0
      outer loop
          vertex 2.4000000000000004 3.8000000000000003 1
          vertex 2.3000000000000003 3.0 1
          vertex 3.1 3.4000000000000004 1
      endloop
  endfacet
  facet normal -0.358979079308869 0.9333456062030596 0.0
      outer loop
          vertex 2.4000000000000004 3.8000000000000003 0.01
          vertex 1.1 3.3000000000000003 0.01
          vertex 1.1 3.3000000000000003 1
      endloop
  endfacet
  facet normal -0.358979079308869 0.9333456062030596 0.0
      outer loop
          vertex 2.4000000000000004 3.8000000000000003 0.01
          vertex 1.1 3.3000000000000003 1
          vertex 2.4000000000000004 3.8000000000000003 1
      endloop
  endfacet
  facet normal -0.24253562503633314 -0.9701425001453319 0.0
      outer loop
          vertex 1.1 3.3000000000000003 0.01
          vertex 2.3000000000000003 3.0 0.01
          vertex 2.3000000000000003 3.0 1
      endloop
  endfacet
  facet normal -0.24253562503633314 -0.9701425001453319 0.0
      outer loop
          vertex 1.1 3.3000000000000003 0.01
          vertex 2.3000000000000003 3.0 1
          vertex 1.1 3.3000000000000003 1
      endloop
  endfacet
  facet normal 0.4472135954999583 -0.8944271909999156 0.0
      outer loop
          vertex 2.3000000000000003 3.0 0.01
          vertex 3.1 3.4000000000000004 0.01
          vertex 3.1 3.4000000000000004 1
      endloop
  endfacet
  facet normal 0.4472135954999583 -0.8944271909999156 0.0
      outer loop
          vertex 2.3000000000000003 3.0 0.01
          vertex 3.1 3.4000000000000004 1
          vertex 2.3000000000000003 3.0 1
      endloop
  endfacet
  facet normal 0.4961389383568339 0.8682431421244592 0.0
      outer loop
          vertex 3.1 3.4000000000000004 0.01
          vertex 2.4000000000000004 3.8000000000000003 0.01
          vertex 2.4000000000000004 3.8000000000000003 1
      endloop
  endfacet
  facet normal 0.4961389383568339 0.8682431421244592 -0.0
      outer loop
          vertex 3.1 3.4000000000000004 0.01
          vertex 2.4000000000000004 3.8000000000000003 1
          vertex 3.1 3.4000000000000004 1
      endloop
  endfacet
endsolid obstacle
