solid obstacle
  facet normal 0.0 0.0 -1.0
      outer loop
          vertex 3.7 3.7 0.01
          vertex 4.0 4.9 0.01
          vertex 4.2 3.2 0.01
      endloop
  endfacet
  facet normal -0.0 0.0 1.0
      outer loop
          vertex 3.7 3.7 1
          vertex 4.2 3.2 1
          vertex 4.0 4.9 1
      endloop
  endfacet
  facet normal -0.7071067811865475 -0.7071067811865475 0.0
      outer loop
          vertex 3.7 3.7 0.01
          vertex 4.2 3.2 0.01
          vertex 4.2 3.2 1
      endloop
  endfacet
  facet normal -0.7071067811865475 -0.7071067811865475 0.0
      outer loop
          vertex 3.7 3.7 0.01
          vertex 4.2 3.2 1
          vertex 3.7 3.7 1
      endloop
  endfacet
  facet normal 0.9931506043228762 0.1168412475673973 0.0
      outer loop
          vertex 4.2 3.2 0.01
          vertex 4.0 4.9 0.01
          vertex 4.0 4.9 1
      endloop
  endfacet
  facet normal 0.9931506043228762 0.1168412475673973 -0.0
      outer loop
          vertex 4.2 3.2 0.01
          vertex 4.0 4.9 1
          vertex 4.2 3.2 1
      endloop
  endfacet
  facet normal -0.9701425001453319 0.24253562503633277 0.0
      outer loop
          vertex 4.0 4.9 0.01
          vertex 3.7 3.7 0.01
          vertex 3.7 3.7 1
      endloop
  endfacet
  facet normal -0.9701425001453319 0.24253562503633277 0.0
      outer loop
          vertex 4.0 4.9 0.01
          vertex 3.7 3.7 1
          vertex 4.0 4.9 1
      endloop
  endfacet
endsolid obstacle
