solid obstacle
  facet normal 0.0 0.0 -1.0
      outer loop
          vertex 2.4000000000000004 1.8 0.1
          vertex 3.2 2.7 0.1
          vertex 2.8000000000000003 1.7000000000000002 0.1
      endloop
  endfacet
  facet normal 0.0 0.0 -1.0
      outer loop
          vertex 2.4000000000000004 1.8 0.1
          vertex 2.8000000000000003 2.4000000000000004 0.1
          vertex 3.2 2.7 0.1
      endloop
  endfacet
  facet normal -0.0 0.0 1.0
      outer loop
          vertex 2.4000000000000004 1.8 1
          vertex 2.8000000000000003 1.7000000000000002 1
          vertex 3.2 2.7 1
      endloop
  endfacet
  facet normal 0.0 0.0 1.0
      outer loop
          vertex 2.4000000000000004 1.8 1
          vertex 3.2 2.7 1
          vertex 2.8000000000000003 2.4000000000000004 1
      endloop
  endfacet
  facet normal -0.24253562503633275 -0.970142500145332 0.0
      outer loop
          vertex 2.4000000000000004 1.8 0.1
          vertex 2.8000000000000003 1.7000000000000002 0.1
          vertex 2.8000000000000003 1.7000000000000002 1
      endloop
  endfacet
  facet normal -0.24253562503633275 -0.970142500145332 0.0
      outer loop
          vertex 2.4000000000000004 1.8 0.1
          vertex 2.8000000000000003 1.7000000000000002 1
          vertex 2.4000000000000004 1.8 1
      endloop
  endfacet
  facet normal 0.9284766908852593 -0.37139067635410367 0.0
      outer loop
          vertex 2.8000000000000003 1.7000000000000002 0.1
          vertex 3.2 2.7 0.1
          vertex 3.2 2.7 1
      endloop
  endfacet
  facet normal 0.9284766908852593 -0.37139067635410367 0.0
      outer loop
          vertex 2.8000000000000003 1.7000000000000002 0.1
          vertex 3.2 2.7 1
          vertex 2.8000000000000003 1.7000000000000002 1
      endloop
  endfacet
  facet normal -0.5999999999999999 0.8000000000000002 0.0
      outer loop
          vertex 3.2 2.7 0.1
          vertex 2.8000000000000003 2.4000000000000004 0.1
          vertex 2.8000000000000003 2.4000000000000004 1
      endloop
  endfacet
  facet normal -0.5999999999999999 0.8000000000000002 0.0
      outer loop
          vertex 3.2 2.7 0.1
          vertex 2.8000000000000003 2.4000000000000004 1
          vertex 3.2 2.7 1
      endloop
  endfacet
  facet normal -0.8320502943378438 0.5547001962252288 0.0
      outer loop
          vertex 2.8000000000000003 2.4000000000000004 0.1
          vertex 2.4000000000000004 1.8 0.1
          vertex 2.4000000000000004 1.8 1
      endloop
  endfacet
  facet normal -0.8320502943378438 0.5547001962252288 0.0
      outer loop
          vertex 2.8000000000000003 2.4000000000000004 0.1
          vertex 2.4000000000000004 1.8 1
          vertex 2.8000000000000003 2.4000000000000004 1
      endloop
  endfacet
endsolid obstacle
