solid obstacle
  facet normal 0.0 0.0 -1.0
      outer loop
          vertex 4.1000000000000005 4.0 0.01
          vertex 4.0 2.7 0.01
          vertex 2.4000000000000004 3.3000000000000003 0.01
      endloop
  endfacet
  facet normal 0.0 0.0 1.0
      outer loop
          vertex 4.1000000000000005 4.0 1
          vertex 2.4000000000000004 3.3000000000000003 1
          vertex 4.0 2.7 1
      endloop
  endfacet
  facet normal -0.3807498052542947 0.924678098474716 0.0
      outer loop
          vertex 4.1000000000000005 4.0 0.01
          vertex 2.4000000000000004 3.3000000000000003 0.01
          vertex 2.4000000000000004 3.3000000000000003 1
      endloop
  endfacet
  facet normal -0.3807498052542947 0.924678098474716 0.0
      outer loop
          vertex 4.1000000000000005 4.0 0.01
          vertex 2.4000000000000004 3.3000000000000003 1
          vertex 4.1000000000000005 4.0 1
      endloop
  endfacet
  facet normal -0.3511234415883918 -0.9363291775690445 0.0
      outer loop
          vertex 2.4000000000000004 3.3000000000000003 0.01
          vertex 4.0 2.7 0.01
          vertex 4.0 2.7 1
      endloop
  endfacet
  facet normal -0.3511234415883918 -0.9363291775690445 0.0
      outer loop
          vertex 2.4000000000000004 3.3000000000000003 0.01
          vertex 4.0 2.7 1
          vertex 2.4000000000000004 3.3000000000000003 1
      endloop
  endfacet
  facet normal 0.9970544855015815 -0.07669649888473745 0.0
      outer loop
          vertex 4.0 2.7 0.01
          vertex 4.1000000000000005 4.0 0.01
          vertex 4.1000000000000005 4.0 1
      endloop
  endfacet
  facet normal 0.9970544855015815 -0.07669649888473745 0.0
      outer loop
          vertex 4.0 2.7 0.01
          vertex 4.1000000000000005 4.0 1
          vertex 4.0 2.7 1
      endloop
  endfacet
endsolid obstacle
