solid obstacle
  facet normal -0.0 0.0 -1.0
      outer loop
          vertex 4.3 2.0 0.01
          vertex 3.9000000000000004 1.6 0.01
          vertex 3.9000000000000004 2.4000000000000004 0.01
      endloop
  endfacet
  facet normal 0.0 0.0 1.0
      outer loop
          vertex 4.3 2.0 1
          vertex 3.9000000000000004 2.4000000000000004 1
          vertex 3.9000000000000004 1.6 1
      endloop
  endfacet
  facet normal 0.7071067811865482 0.7071067811865467 0.0
      outer loop
          vertex 4.3 2.0 0.01
          vertex 3.9000000000000004 2.4000000000000004 0.01
          vertex 3.9000000000000004 2.4000000000000004 1
      endloop
  endfacet
  facet normal 0.7071067811865482 0.7071067811865467 -0.0
      outer loop
          vertex 4.3 2.0 0.01
          vertex 3.9000000000000004 2.4000000000000004 1
          vertex 4.3 2.0 1
      endloop
  endfacet
  facet normal -1.0 0.0 0.0
      outer loop
          vertex 3.9000000000000004 2.4000000000000004 0.01
          vertex 3.9000000000000004 1.6 0.01
          vertex 3.9000000000000004 1.6 1
      endloop
  endfacet
  facet normal -1.0 0.0 0.0
      outer loop
          vertex 3.9000000000000004 2.4000000000000004 0.01
          vertex 3.9000000000000004 1.6 1
          vertex 3.9000000000000004 2.4000000000000004 1
      endloop
  endfacet
  facet normal 0.7071067811865479 -0.7071067811865471 0.0
      outer loop
          vertex 3.9000000000000004 1.6 0.01
          vertex 4.3 2.0 0.01
          vertex 4.3 2.0 1
      endloop
  endfacet
  facet normal 0.7071067811865479 -0.7071067811865471 0.0
      outer loop
          vertex 3.9000000000000004 1.6 0.01
          vertex 4.3 2.0 1
          vertex 3.9000000000000004 1.6 1
      endloop
  endfacet
endsolid obstacle
