solid obstacle
  facet normal 0.0 0.0 -1.0
      outer loop
          vertex 3.4000000000000004 2.7 0.1
          vertex 3.6 3.4000000000000004 0.1
          vertex 3.9000000000000004 2.9000000000000004 0.1
      endloop
  endfacet
  facet normal 0.0 0.0 1.0
      outer loop
          vertex 3.4000000000000004 2.7 1
          vertex 3.9000000000000004 2.9000000000000004 1
          vertex 3.6 3.4000000000000004 1
      endloop
  endfacet
  facet normal 0.371390676354104 -0.9284766908852591 0.0
      outer loop
          vertex 3.4000000000000004 2.7 0.1
          vertex 3.9000000000000004 2.9000000000000004 0.1
          vertex 3.9000000000000004 2.9000000000000004 1
      endloop
  endfacet
  facet normal 0.371390676354104 -0.9284766908852591 0.0
      outer loop
          vertex 3.4000000000000004 2.7 0.1
          vertex 3.9000000000000004 2.9000000000000004 1
          vertex 3.4000000000000004 2.7 1
      endloop
  endfacet
  facet normal 0.857492925712544 0.5144957554275269 0.0
      outer loop
          vertex 3.9000000000000004 2.9000000000000004 0.1
          vertex 3.6 3.4000000000000004 0.1
          vertex 3.6 3.4000000000000004 1
      endloop
  endfacet
  facet normal 0.857492925712544 0.5144957554275269 -0.0
      outer loop
          vertex 3.9000000000000004 2.9000000000000004 0.1
          vertex 3.6 3.4000000000000004 1
          vertex 3.9000000000000004 2.9000000000000004 1
      endloop
  endfacet
  facet normal -0.9615239476408232 0.2747211278973776 0.0
      outer loop
          vertex 3.6 3.4000000000000004 0.1
          vertex 3.4000000000000004 2.7 0.1
          vertex 3.4000000000000004 2.7 1
      endloop
  endfacet
  facet normal -0.9615239476408232 0.2747211278973776 0.0
      outer loop
          vertex 3.6 3.4000000000000004 0.1
          vertex 3.4000000000000004 2.7 1
          vertex 3.6 3.4000000000000004 1
      endloop
  endfacet
endsolid obstacle
