solid obstacle
  facet normal -0.0 0.0 -1.0
      outer loop
          vertex 3.8000000000000003 3.5 0.1
          vertex 3.4000000000000004 3.3000000000000003 0.1
          vertex 2.4000000000000004 3.6 0.1
      endloop
  endfacet
  facet normal 0.0 0.0 1.0
      outer loop
          vertex 3.8000000000000003 3.5 1
          vertex 2.4000000000000004 3.6 1
          vertex 3.4000000000000004 3.3000000000000003 1
      endloop
  endfacet
  facet normal 0.0712470499879097 0.9974586998307351 0.0
      outer loop
          vertex 3.8000000000000003 3.5 0.1
          vertex 2.4000000000000004 3.6 0.1
          vertex 2.4000000000000004 3.6 1
      endloop
  endfacet
  facet normal 0.0712470499879097 0.9974586998307351 -0.0
      outer loop
          vertex 3.8000000000000003 3.5 0.1
          vertex 2.4000000000000004 3.6 1
          vertex 3.8000000000000003 3.5 1
      endloop
  endfacet
  facet normal -0.2873478855663453 -0.9578262852211514 0.0
      outer loop
          vertex 2.4000000000000004 3.6 0.1
          vertex 3.4000000000000004 3.3000000000000003 0.1
          vertex 3.4000000000000004 3.3000000000000003 1
      endloop
  endfacet
  facet normal -0.2873478855663453 -0.9578262852211514 0.0
      outer loop
          vertex 2.4000000000000004 3.6 0.1
          vertex 3.4000000000000004 3.3000000000000003 1
          vertex 2.4000000000000004 3.6 1
      endloop
  endfacet
  facet normal 0.44721359549995754 -0.8944271909999161 0.0
      outer loop
          vertex 3.4000000000000004 3.3000000000000003 0.1
          vertex 3.8000000000000003 3.5 0.1
          vertex 3.8000000000000003 3.5 1
      endloop
  endfacet
  facet normal 0.44721359549995754 -0.8944271909999161 0.0
      outer loop
          vertex 3.4000000000000004 3.3000000000000003 0.1
          vertex 3.8000000000000003 3.5 1
          vertex 3.4000000000000004 3.3000000000000003 1
      endloop
  endfacet
endsolid obstacle
