solid obstacle
  facet normal 0.0 0.0 -1.0
      outer loop
          vertex 2.0 1.8 0.1
          vertex 2.7 1.0 0.1
          vertex 2.1 0.8 0.1
      endloop
  endfacet
  facet normal 0.0 0.0 -1.0
      outer loop
          vertex 2.0 1.8 0.1
          vertex 2.3000000000000003 1.9000000000000001 0.1
          vertex 2.7 1.0 0.1
      endloop
  endfacet
  facet normal 0.0 0.0 1.0
      outer loop
          vertex 2.0 1.8 1
          vertex 2.1 0.8 1
          vertex 2.7 1.0 1
      endloop
  endfacet
  facet normal -0.0 0.0 1.0
      outer loop
          vertex 2.0 1.8 1
          vertex 2.7 1.0 1
          vertex 2.3000000000000003 1.9000000000000001 1
      endloop
  endfacet
  facet normal -0.9950371902099892 -0.099503719020999 0.0
      outer loop
          vertex 2.0 1.8 0.1
          vertex 2.1 0.8 0.1
          vertex 2.1 0.8 1
      endloop
  endfacet
  facet normal -0.9950371902099892 -0.099503719020999 0.0
      outer loop
          vertex 2.0 1.8 0.1
          vertex 2.1 0.8 1
          vertex 2.0 1.8 1
      endloop
  endfacet
  facet normal 0.3162277660168378 -0.9486832980505138 0.0
      outer loop
          vertex 2.1 0.8 0.1
          vertex 2.7 1.0 0.1
          vertex 2.7 1.0 1
      endloop
  endfacet
  facet normal 0.3162277660168378 -0.9486832980505138 0.0
      outer loop
          vertex 2.1 0.8 0.1
          vertex 2.7 1.0 1
          vertex 2.1 0.8 1
      endloop
  endfacet
  facet normal 0.9138115486202573 0.4061384660534475 0.0
      outer loop
          vertex 2.7 1.0 0.1
          vertex 2.3000000000000003 1.9000000000000001 0.1
          vertex 2.3000000000000003 1.9000000000000001 1
      endloop
  endfacet
  facet normal 0.9138115486202573 0.4061384660534475 -0.0
      outer loop
          vertex 2.7 1.0 0.1
          vertex 2.3000000000000003 1.9000000000000001 1
          vertex 2.7 1.0 1
      endloop
  endfacet
  facet normal -0.31622776601683794 0.9486832980505138 0.0
      outer loop
          vertex 2.3000000000000003 1.9000000000000001 0.1
          vertex 2.0 1.8 0.1
          vertex 2.0 1.8 1
      endloop
  endfacet
  facet normal -0.31622776601683794 0.9486832980505138 0.0
      outer loop
          vertex 2.3000000000000003 1.9000000000000001 0.1
          vertex 2.0 1.8 1
          vertex 2.3000000000000003 1.9000000000000001 1
      endloop
  endfacet
endsolid obstacle
