solid obstacle
  facet normal -0.0 0.0 -1.0
      outer loop
          vertex 4.800000000000001 3.9000000000000004 0.01
          vertex 4.7 2.9000000000000004 0.01
          vertex 4.3 4.3 0.01
      endloop
  endfacet
  facet normal 0.0 0.0 1.0
      outer loop
          vertex 4.800000000000001 3.9000000000000004 1
          vertex 4.3 4.3 1
          vertex 4.7 2.9000000000000004 1
      endloop
  endfacet
  facet normal 0.6246950475544231 0.7808688094430313 0.0
      outer loop
          vertex 4.800000000000001 3.9000000000000004 0.01
          vertex 4.3 4.3 0.01
          vertex 4.3 4.3 1
      endloop
  endfacet
  facet normal 0.6246950475544231 0.7808688094430313 -0.0
      outer loop
          vertex 4.800000000000001 3.9000000000000004 0.01
          vertex 4.3 4.3 1
          vertex 4.800000000000001 3.9000000000000004 1
      endloop
  endfacet
  facet normal -0.961523947640823 -0.2747211278973784 0.0
      outer loop
          vertex 4.3 4.3 0.01
          vertex 4.7 2.9000000000000004 0.01
          vertex 4.7 2.9000000000000004 1
      endloop
  endfacet
  facet normal -0.961523947640823 -0.2747211278973784 0.0
      outer loop
          vertex 4.3 4.3 0.01
          vertex 4.7 2.9000000000000004 1
          vertex 4.3 4.3 1
      endloop
  endfacet
  facet normal 0.9950371902099892 -0.09950371902099944 0.0
      outer loop
          vertex 4.7 2.9000000000000004 0.01
          vertex 4.800000000000001 3.9000000000000004 0.01
          vertex 4.800000000000001 3.9000000000000004 1
      endloop
  endfacet
  facet normal 0.9950371902099892 -0.09950371902099944 0.0
      outer loop
          vertex 4.7 2.9000000000000004 0.01
          vertex 4.800000000000001 3.9000000000000004 1
          vertex 4.7 2.9000000000000004 1
      endloop
  endfacet
endsolid obstacle
