solid obstacle
  facet normal -0.0 0.0 -1.0
      outer loop
          vertex 4.4 1.6 0.1
          vertex 3.5 0.0 0.1
          vertex 3.0 1.6 0.1
      endloop
  endfacet
  facet normal 0.0 0.0 1.0
      outer loop
          vertex 4.4 1.6 1
          vertex 3.0 1.6 1
          vertex 3.5 0.0 1
      endloop
  endfacet
  facet normal 0.0 1.0 0.0
      outer loop
          vertex 4.4 1.6 0.1
          vertex 3.0 1.6 0.1
          vertex 3.0 1.6 1
      endloop
  endfacet
  facet normal 0.0 1.0 -0.0
      outer loop
          vertex 4.4 1.6 0.1
          vertex 3.0 1.6 1
          vertex 4.4 1.6 1
      endloop
  endfacet
  facet normal -0.9544799780350298 -0.2982749931359468 0.0
      outer loop
          vertex 3.0 1.6 0.1
          vertex 3.5 0.0 0.1
          vertex 3.5 0.0 1
      endloop
  endfacet
  facet normal -0.9544799780350298 -0.2982749931359468 0.0
      outer loop
          vertex 3.0 1.6 0.1
          vertex 3.5 0.0 1
          vertex 3.0 1.6 1
      endloop
  endfacet
  facet normal 0.8715755371245492 -0.4902612396325591 0.0
      outer loop
          vertex 3.5 0.0 0.1
          vertex 4.4 1.6 0.1
          vertex 4.4 1.6 1
      endloop
  endfacet
  facet normal 0.8715755371245492 -0.4902612396325591 0.0
      outer loop
          vertex 3.5 0.0 0.1
          vertex 4.4 1.6 1
          vertex 3.5 0.0 1
      endloop
  endfacet
endsolid obstacle
