solid obstacle
  facet normal 0.0 0.0 -1.0
      outer loop
          vertex 4.3 1.0 0.1
          vertex 3.5 1.0 0.1
          vertex 3.4000000000000004 1.1 0.1
      endloop
  endfacet
  facet normal 0.0 0.0 1.0
      outer loop
          vertex 4.3 1.0 1
          vertex 3.4000000000000004 1.1 1
          vertex 3.5 1.0 1
      endloop
  endfacet
  facet normal 0.11043152607484671 0.9938837346736189 0.0
      outer loop
          vertex 4.3 1.0 0.1
          vertex 3.4000000000000004 1.1 0.1
          vertex 3.4000000000000004 1.1 1
      endloop
  endfacet
  facet normal 0.11043152607484671 0.9938837346736189 -0.0
      outer loop
          vertex 4.3 1.0 0.1
          vertex 3.4000000000000004 1.1 1
          vertex 4.3 1.0 1
      endloop
  endfacet
  facet normal -0.7071067811865491 -0.7071067811865459 0.0
      outer loop
          vertex 3.4000000000000004 1.1 0.1
          vertex 3.5 1.0 0.1
          vertex 3.5 1.0 1
      endloop
  endfacet
  facet normal -0.7071067811865491 -0.7071067811865459 0.0
      outer loop
          vertex 3.4000000000000004 1.1 0.1
          vertex 3.5 1.0 1
          vertex 3.4000000000000004 1.1 1
      endloop
  endfacet
  facet normal 0.0 -1.0 0.0
      outer loop
          vertex 3.5 1.0 0.1
          vertex 4.3 1.0 0.1
          vertex 4.3 1.0 1
      endloop
  endfacet
  facet normal 0.0 -1.0 0.0
      outer loop
          vertex 3.5 1.0 0.1
          vertex 4.3 1.0 1
          vertex 3.5 1.0 1
      endloop
  endfacet
endsolid obstacle
