solid obstacle
  facet normal 0.0 0.0 -1.0
      outer loop
          vertex 2.0 3.4000000000000004 0.01
          vertex 2.1 3.4000000000000004 0.01
          vertex 2.8000000000000003 2.4000000000000004 0.01
      endloop
  endfacet
  facet normal -0.0 0.0 1.0
      outer loop
          vertex 2.0 3.4000000000000004 1
          vertex 2.8000000000000003 2.4000000000000004 1
          vertex 2.1 3.4000000000000004 1
      endloop
  endfacet
  facet normal -0.7808688094430303 -0.6246950475544244 0.0
      outer loop
          vertex 2.0 3.4000000000000004 0.01
          vertex 2.8000000000000003 2.4000000000000004 0.01
          vertex 2.8000000000000003 2.4000000000000004 1
      endloop
  endfacet
  facet normal -0.7808688094430303 -0.6246950475544244 0.0
      outer loop
          vertex 2.0 3.4000000000000004 0.01
          vertex 2.8000000000000003 2.4000000000000004 1
          vertex 2.0 3.4000000000000004 1
      endloop
  endfacet
  facet normal 0.8192319205190404 0.5734623443633284 0.0
      outer loop
          vertex 2.8000000000000003 2.4000000000000004 0.01
          vertex 2.1 3.4000000000000004 0.01
          vertex 2.1 3.4000000000000004 1
      endloop
  endfacet
  facet normal 0.8192319205190404 0.5734623443633284 -0.0
      outer loop
          vertex 2.8000000000000003 2.4000000000000004 0.01
          vertex 2.1 3.4000000000000004 1
          vertex 2.8000000000000003 2.4000000000000004 1
      endloop
  endfacet
  facet normal 0.0 1.0 0.0
      outer loop
          vertex 2.1 3.4000000000000004 0.01
          vertex 2.0 3.4000000000000004 0.01
          vertex 2.0 3.4000000000000004 1
      endloop
  endfacet
  facet normal 0.0 1.0 -0.0
      outer loop
          vertex 2.1 3.4000000000000004 0.01
          vertex 2.0 3.4000000000000004 1
          vertex 2.1 3.4000000000000004 1
      endloop
  endfacet
endsolid obstacle
