solid obstacle
  facet normal 0.0 0.0 -1.0
      outer loop
          vertex 2.2 3.5 0.01
          vertex 2.4000000000000004 3.9000000000000004 0.01
          vertex 3.6 3.9000000000000004 0.01
      endloop
  endfacet
  facet normal 0.0 0.0 1.0
      outer loop
          vertex 2.2 3.5 1
          vertex 3.6 3.9000000000000004 1
          vertex 2.4000000000000004 3.9000000000000004 1
      endloop
  endfacet
  facet normal 0.2747211278973783 -0.961523947640823 0.0
      outer loop
          vertex 2.2 3.5 0.01
          vertex 3.6 3.9000000000000004 0.01
          vertex 3.6 3.9000000000000004 1
      endloop
  endfacet
  facet normal 0.2747211278973783 -0.961523947640823 0.0
      outer loop
          vertex 2.2 3.5 0.01
          vertex 3.6 3.9000000000000004 1
          vertex 2.2 3.5 1
      endloop
  endfacet
  facet normal 0.0 1.0 0.0
      outer loop
          vertex 3.6 3.9000000000000004 0.01
          vertex 2.4000000000000004 3.9000000000000004 0.01
          vertex 2.4000000000000004 3.9000000000000004 1
      endloop
  endfacet
  facet normal 0.0 1.0 -0.0
      outer loop
          vertex 3.6 3.9000000000000004 0.01
          vertex 2.4000000000000004 3.9000000000000004 1
          vertex 3.6 3.9000000000000004 1
      endloop
  endfacet
  facet normal -0.8944271909999159 0.4472135954999579 0.0
      outer loop
          vertex 2.4000000000000004 3.9000000000000004 0.01
          vertex 2.2 3.5 0.01
          vertex 2.2 3.5 1
      endloop
  endfacet
  facet normal -0.8944271909999159 0.4472135954999579 0.0
      outer loop
          vertex 2.4000000000000004 3.9000000000000004 0.01
          vertex 2.2 3.5 1
          vertex 2.4000000000000004 3.9000000000000004 1
      endloop
  endfacet
endsolid obstacle
