solid obstacle
  facet normal 0.0 0.0 -1.0
      outer loop
          vertex 4.2 1.7000000000000002 0.01
          vertex 3.6 2.3000000000000003 0.01
          vertex 2.9000000000000004 3.2 0.01
      endloop
  endfacet
  facet normal 0.0 0.0 1.0
      outer loop
          vertex 4.2 1.7000000000000002 1
          vertex 2.9000000000000004 3.2 1
          vertex 3.6 2.3000000000000003 1
      endloop
  endfacet
  facet normal 0.7556890827898176 0.6549305384178419 0.0
      outer loop
          vertex 4.2 1.7000000000000002 0.01
          vertex 2.9000000000000004 3.2 0.01
          vertex 2.9000000000000004 3.2 1
      endloop
  endfacet
  facet normal 0.7556890827898176 0.6549305384178419 -0.0
      outer loop
          vertex 4.2 1.7000000000000002 0.01
          vertex 2.9000000000000004 3.2 1
          vertex 4.2 1.7000000000000002 1
      endloop
  endfacet
  facet normal -0.7893522173763263 -0.6139406135149204 0.0
      outer loop
          vertex 2.9000000000000004 3.2 0.01
          vertex 3.6 2.3000000000000003 0.01
          vertex 3.6 2.3000000000000003 1
      endloop
  endfacet
  facet normal -0.7893522173763263 -0.6139406135149204 0.0
      outer loop
          vertex 2.9000000000000004 3.2 0.01
          vertex 3.6 2.3000000000000003 1
          vertex 2.9000000000000004 3.2 1
      endloop
  endfacet
  facet normal -0.7071067811865475 -0.7071067811865475 0.0
      outer loop
          vertex 3.6 2.3000000000000003 0.01
          vertex 4.2 1.7000000000000002 0.01
          vertex 4.2 1.7000000000000002 1
      endloop
  endfacet
  facet normal -0.7071067811865475 -0.7071067811865475 0.0
      outer loop
          vertex 3.6 2.3000000000000003 0.01
          vertex 4.2 1.7000000000000002 1
          vertex 3.6 2.3000000000000003 1
      endloop
  endfacet
endsolid obstacle
