solid obstacle
  facet normal 0.0 0.0 -1.0
      outer loop
          vertex 1.6 1.5 0.01
          vertex 4.5 1.0 0.01
          vertex 3.1 0.4 0.01
      endloop
  endfacet
  facet normal 0.0 0.0 -1.0
      outer loop
          vertex 1.6 1.5 0.01
          vertex 3.3000000000000003 1.7000000000000002 0.01
          vertex 4.5 1.0 0.01
      endloop
  endfacet
  facet normal 0.0 0.0 1.0
      outer loop
          vertex 1.6 1.5 1
          vertex 3.1 0.4 1
          vertex 4.5 1.0 1
      endloop
  endfacet
  facet normal -0.0 0.0 1.0
      outer loop
          vertex 1.6 1.5 1
          vertex 4.5 1.0 1
          vertex 3.3000000000000003 1.7000000000000002 1
      endloop
  endfacet
  facet normal -0.5913636636275175 -0.8064049958557056 0.0
      outer loop
          vertex 1.6 1.5 0.01
          vertex 3.1 0.4 0.01
          vertex 3.1 0.4 1
      endloop
  endfacet
  facet normal -0.5913636636275175 -0.8064049958557056 0.0
      outer loop
          vertex 1.6 1.5 0.01
          vertex 3.1 0.4 1
          vertex 1.6 1.5 1
      endloop
  endfacet
  facet normal 0.3939192985791677 -0.9191450300180579 0.0
      outer loop
          vertex 3.1 0.4 0.01
          vertex 4.5 1.0 0.01
          vertex 4.5 1.0 1
      endloop
  endfacet
  facet normal 0.3939192985791677 -0.9191450300180579 0.0
      outer loop
          vertex 3.1 0.4 0.01
          vertex 4.5 1.0 1
          vertex 3.1 0.4 1
      endloop
  endfacet
  facet normal 0.5038710255240864 0.8637789008984333 0.0
      outer loop
          vertex 4.5 1.0 0.01
          vertex 3.3000000000000003 1.7000000000000002 0.01
          vertex 3.3000000000000003 1.7000000000000002 1
      endloop
  endfacet
  facet normal 0.5038710255240864 0.8637789008984333 -0.0
      outer loop
          vertex 4.5 1.0 0.01
          vertex 3.3000000000000003 1.7000000000000002 1
          vertex 4.5 1.0 1
      endloop
  endfacet
  facet normal -0.1168412475673973 0.9931506043228762 0.0
      outer loop
          vertex 3.3000000000000003 1.7000000000000002 0.01
          vertex 1.6 1.5 0.01
          vertex 1.6 1.5 1
      endloop
  endfacet
  facet normal -0.1168412475673973 0.9931506043228762 0.0
      outer loop
          vertex 3.3000000000000003 1.7000000000000002 0.01
          vertex 1.6 1.5 1
          vertex 3.3000000000000003 1.7000000000000002 1
      endloop
  endfacet
endsolid obstacle
