solid obstacle
  facet normal 0.0 0.0 -1.0
      outer loop
          vertex 1.1 3.9000000000000004 0.1
          vertex 1.0 3.3000000000000003 0.1
          vertex 0.1 2.3000000000000003 0.1
      endloop
  endfacet
  facet normal 0.0 0.0 1.0
      outer loop
          vertex 1.1 3.9000000000000004 1
          vertex 0.1 2.3000000000000003 1
          vertex 1.0 3.3000000000000003 1
      endloop
  endfacet
  facet normal -0.8479983040050881 0.52999894000318 0.0
      outer loop
          vertex 1.1 3.9000000000000004 0.1
          vertex 0.1 2.3000000000000003 0.1
          vertex 0.1 2.3000000000000003 1
      endloop
  endfacet
  facet normal -0.8479983040050881 0.52999894000318 0.0
      outer loop
          vertex 1.1 3.9000000000000004 0.1
          vertex 0.1 2.3000000000000003 1
          vertex 1.1 3.9000000000000004 1
      endloop
  endfacet
  facet normal 0.7432941462471663 -0.6689647316224496 0.0
      outer loop
          vertex 0.1 2.3000000000000003 0.1
          vertex 1.0 3.3000000000000003 0.1
          vertex 1.0 3.3000000000000003 1
      endloop
  endfacet
  facet normal 0.7432941462471663 -0.6689647316224496 0.0
      outer loop
          vertex 0.1 2.3000000000000003 0.1
          vertex 1.0 3.3000000000000003 1
          vertex 0.1 2.3000000000000003 1
      endloop
  endfacet
  facet normal 0.9863939238321437 -0.1643989873053574 0.0
      outer loop
          vertex 1.0 3.3000000000000003 0.1
          vertex 1.1 3.9000000000000004 0.1
          vertex 1.1 3.9000000000000004 1
      endloop
  endfacet
  facet normal 0.9863939238321437 -0.1643989873053574 0.0
      outer loop
          vertex 1.0 3.3000000000000003 0.1
          vertex 1.1 3.9000000000000004 1
          vertex 1.0 3.3000000000000003 1
      endloop
  endfacet
endsolid obstacle
