solid obstacle
  facet normal 0.0 0.0 -1.0
      outer loop
          vertex 0.30000000000000004 2.8000000000000003 0.01
          vertex 0.5 4.6000000000000005 0.01
          vertex 0.9 3.2 0.01
      endloop
  endfacet
  facet normal 0.0 0.0 1.0
      outer loop
          vertex 0.30000000000000004 2.8000000000000003 1
          vertex 0.9 3.2 1
          vertex 0.5 4.6000000000000005 1
      endloop
  endfacet
  facet normal 0.554700196225229 -0.8320502943378438 0.0
      outer loop
          vertex 0.30000000000000004 2.8000000000000003 0.01
          vertex 0.9 3.2 0.01
          vertex 0.9 3.2 1
      endloop
  endfacet
  facet normal 0.554700196225229 -0.8320502943378438 0.0
      outer loop
          vertex 0.30000000000000004 2.8000000000000003 0.01
          vertex 0.9 3.2 1
          vertex 0.30000000000000004 2.8000000000000003 1
      endloop
  endfacet
  facet normal 0.9615239476408232 0.27472112789737796 0.0
      outer loop
          vertex 0.9 3.2 0.01
          vertex 0.5 4.6000000000000005 0.01
          vertex 0.5 4.6000000000000005 1
      endloop
  endfacet
  facet normal 0.9615239476408232 0.27472112789737796 -0.0
      outer loop
          vertex 0.9 3.2 0.01
          vertex 0.5 4.6000000000000005 1
          vertex 0.9 3.2 1
      endloop
  endfacet
  facet normal -0.993883734673619 0.1104315260748465 0.0
      outer loop
          vertex 0.5 4.6000000000000005 0.01
          vertex 0.30000000000000004 2.8000000000000003 0.01
          vertex 0.30000000000000004 2.8000000000000003 1
      endloop
  endfacet
  facet normal -0.993883734673619 0.1104315260748465 0.0
      outer loop
          vertex 0.5 4.6000000000000005 0.01
          vertex 0.30000000000000004 2.8000000000000003 1
          vertex 0.5 4.6000000000000005 1
      endloop
  endfacet
endsolid obstacle
