solid obstacle
  facet normal 0.0 0.0 -1.0
      outer loop
          vertex 0.0 1.9 0.01
          vertex 2.0 2.0 0.01
          vertex 2.0 1.9 0.01
      endloop
  endfacet
  facet normal 0.0 0.0 -1.0
      outer loop
          vertex 0.0 1.9 0.01
          vertex 0.0 2.0 0.01
          vertex 2.0 2.0 0.01
      endloop
  endfacet
  facet normal 0.0 0.0 1.0
      outer loop
          vertex 0.0 1.9 1
          vertex 2.0 1.9 1
          vertex 2.0 2.0 1
      endloop
  endfacet
  facet normal 0.0 0.0 1.0
      outer loop
          vertex 0.0 1.9 1
          vertex 2.0 2.0 1
          vertex 0.0 2.0 1
      endloop
  endfacet
  facet normal 0.0 -1.0 0.0
      outer loop
          vertex 0.0 1.9 0.01
          vertex 2.0 1.9 0.01
          vertex 2.0 1.9 1
      endloop
  endfacet
  facet normal 0.0 -1.0 0.0
      outer loop
          vertex 0.0 1.9 0.01
          vertex 2.0 1.9 1
          vertex 0.0 1.9 1
      endloop
  endfacet
  facet normal 1.0 0.0 0.0
      outer loop
          vertex 2.0 1.9 0.01
          vertex 2.0 2.0 0.01
          vertex 2.0 2.0 1
      endloop
  endfacet
  facet normal 1.0 0.0 0.0
      outer loop
          vertex 2.0 1.9 0.01
          vertex 2.0 2.0 1
          vertex 2.0 1.9 1
      endloop
  endfacet
  facet normal 0.0 1.0 0.0
      outer loop
          vertex 2.0 2.0 0.01
          vertex 0.0 2.0 0.01
          vertex 0.0 2.0 1
      endloop
  endfacet
  facet normal 0.0 1.0 -0.0
      outer loop
          vertex 2.0 2.0 0.01
          vertex 0.0 2.0 1
          vertex 2.0 2.0 1
      endloop
  endfacet
  facet normal -1.0 0.0 0.0
      outer loop
          vertex 0.0 2.0 0.01
          vertex 0.0 1.9 0.01
          vertex 0.0 1.9 1
      endloop
  endfacet
  facet normal -1.0 0.0 0.0
      outer loop
          vertex 0.0 2.0 0.01
          vertex 0.0 1.9 1
          vertex 0.0 2.0 1
      endloop
  endfacet
endsolid obstacle
