solid obstacle
  facet normal 0.0 0.0 -1.0
      outer loop
          vertex 3.4000000000000004 1.5 0.01
          vertex 3.6 1.9000000000000001 0.01
          vertex 4.6000000000000005 1.6 0.01
      endloop
  endfacet
  facet normal 0.0 0.0 1.0
      outer loop
          vertex 3.4000000000000004 1.5 1
          vertex 4.6000000000000005 1.6 1
          vertex 3.6 1.9000000000000001 1
      endloop
  endfacet
  facet normal 0.08304547985374003 -0.9965457582448796 0.0
      outer loop
          vertex 3.4000000000000004 1.5 0.01
          vertex 4.6000000000000005 1.6 0.01
          vertex 4.6000000000000005 1.6 1
      endloop
  endfacet
  facet normal 0.08304547985374003 -0.9965457582448796 0.0
      outer loop
          vertex 3.4000000000000004 1.5 0.01
          vertex 4.6000000000000005 1.6 1
          vertex 3.4000000000000004 1.5 1
      endloop
  endfacet
  facet normal 0.2873478855663454 0.9578262852211515 0.0
      outer loop
          vertex 4.6000000000000005 1.6 0.01
          vertex 3.6 1.9000000000000001 0.01
          vertex 3.6 1.9000000000000001 1
      endloop
  endfacet
  facet normal 0.2873478855663454 0.9578262852211515 -0.0
      outer loop
          vertex 4.6000000000000005 1.6 0.01
          vertex 3.6 1.9000000000000001 1
          vertex 4.6000000000000005 1.6 1
      endloop
  endfacet
  facet normal -0.8944271909999163 0.4472135954999574 0.0
      outer loop
          vertex 3.6 1.9000000000000001 0.01
          vertex 3.4000000000000004 1.5 0.01
          vertex 3.4000000000000004 1.5 1
      endloop
  endfacet
  facet normal -0.8944271909999163 0.4472135954999574 0.0
      outer loop
          vertex 3.6 1.9000000000000001 0.01
          vertex 3.4000000000000004 1.5 1
          vertex 3.6 1.9000000000000001 1
      endloop
  endfacet
endsolid obstacle
