solid obstacle
  facet normal 0.0 0.0 -1.0
      outer loop
          vertex 1.8 2.4000000000000004 0.01
          vertex 2.3000000000000003 3.4000000000000004 0.01
          vertex 3.2 2.3000000000000003 0.01
      endloop
  endfacet
  facet normal -0.0 0.0 1.0
      outer loop
          vertex 1.8 2.4000000000000004 1
          vertex 3.2 2.3000000000000003 1
          vertex 2.3000000000000003 3.4000000000000004 1
      endloop
  endfacet
  facet normal -0.07124704998790969 -0.997458699830735 0.0
      outer loop
          vertex 1.8 2.4000000000000004 0.01
          vertex 3.2 2.3000000000000003 0.01
          vertex 3.2 2.3000000000000003 1
      endloop
  endfacet
  facet normal -0.07124704998790969 -0.997458699830735 0.0
      outer loop
          vertex 1.8 2.4000000000000004 0.01
          vertex 3.2 2.3000000000000003 1
          vertex 1.8 2.4000000000000004 1
      endloop
  endfacet
  facet normal 0.773957299203321 0.6332377902572627 0.0
      outer loop
          vertex 3.2 2.3000000000000003 0.01
          vertex 2.3000000000000003 3.4000000000000004 0.01
          vertex 2.3000000000000003 3.4000000000000004 1
      endloop
  endfacet
  facet normal 0.773957299203321 0.6332377902572627 -0.0
      outer loop
          vertex 3.2 2.3000000000000003 0.01
          vertex 2.3000000000000003 3.4000000000000004 1
          vertex 3.2 2.3000000000000003 1
      endloop
  endfacet
  facet normal -0.8944271909999159 0.44721359549995815 0.0
      outer loop
          vertex 2.3000000000000003 3.4000000000000004 0.01
          vertex 1.8 2.4000000000000004 0.01
          vertex 1.8 2.4000000000000004 1
      endloop
  endfacet
  facet normal -0.8944271909999159 0.44721359549995815 0.0
      outer loop
          vertex 2.3000000000000003 3.4000000000000004 0.01
          vertex 1.8 2.4000000000000004 1
          vertex 2.3000000000000003 3.4000000000000004 1
      endloop
  endfacet
endsolid obstacle
