solid obstacle
  facet normal 0.0 0.0 -1.0
      outer loop
          vertex 0.5 0.2 0.1
          vertex 1.8 1.5 0.1
          vertex 2.4000000000000004 0.6000000000000001 0.1
      endloop
  endfacet
  facet normal 0.0 0.0 1.0
      outer loop
          vertex 0.5 0.2 1
          vertex 2.4000000000000004 0.6000000000000001 1
          vertex 1.8 1.5 1
      endloop
  endfacet
  facet normal 0.20601048104984193 -0.978549784986749 0.0
      outer loop
          vertex 0.5 0.2 0.1
          vertex 2.4000000000000004 0.6000000000000001 0.1
          vertex 2.4000000000000004 0.6000000000000001 1
      endloop
  endfacet
  facet normal 0.20601048104984193 -0.978549784986749 0.0
      outer loop
          vertex 0.5 0.2 0.1
          vertex 2.4000000000000004 0.6000000000000001 1
          vertex 0.5 0.2 1
      endloop
  endfacet
  facet normal 0.8320502943378435 0.5547001962252294 0.0
      outer loop
          vertex 2.4000000000000004 0.6000000000000001 0.1
          vertex 1.8 1.5 0.1
          vertex 1.8 1.5 1
      endloop
  endfacet
  facet normal 0.8320502943378435 0.5547001962252294 -0.0
      outer loop
          vertex 2.4000000000000004 0.6000000000000001 0.1
          vertex 1.8 1.5 1
          vertex 2.4000000000000004 0.6000000000000001 1
      endloop
  endfacet
  facet normal -0.7071067811865475 0.7071067811865475 0.0
      outer loop
          vertex 1.8 1.5 0.1
          vertex 0.5 0.2 0.1
          vertex 0.5 0.2 1
      endloop
  endfacet
  facet normal -0.7071067811865475 0.7071067811865475 0.0
      outer loop
          vertex 1.8 1.5 0.1
          vertex 0.5 0.2 1
          vertex 1.8 1.5 1
      endloop
  endfacet
endsolid obstacle
