solid obstacle
  facet normal 0.0 0.0 -1.0
      outer loop
          vertex 3.0 4.0 0.01
          vertex 3.3000000000000003 3.7 0.01
          vertex 3.4000000000000004 2.1 0.01
      endloop
  endfacet
  facet normal 0.0 0.0 1.0
      outer loop
          vertex 3.0 4.0 1
          vertex 3.4000000000000004 2.1 1
          vertex 3.3000000000000003 3.7 1
      endloop
  endfacet
  facet normal -0.9785497849867489 -0.20601048104984207 0.0
      outer loop
          vertex 3.0 4.0 0.01
          vertex 3.4000000000000004 2.1 0.01
          vertex 3.4000000000000004 2.1 1
      endloop
  endfacet
  facet normal -0.9785497849867489 -0.20601048104984207 0.0
      outer loop
          vertex 3.0 4.0 0.01
          vertex 3.4000000000000004 2.1 1
          vertex 3.0 4.0 1
      endloop
  endfacet
  facet normal 0.9980525784828885 0.06237828615518059 0.0
      outer loop
          vertex 3.4000000000000004 2.1 0.01
          vertex 3.3000000000000003 3.7 0.01
          vertex 3.3000000000000003 3.7 1
      endloop
  endfacet
  facet normal 0.9980525784828885 0.06237828615518059 -0.0
      outer loop
          vertex 3.4000000000000004 2.1 0.01
          vertex 3.3000000000000003 3.7 1
          vertex 3.4000000000000004 2.1 1
      endloop
  endfacet
  facet normal 0.707106781186547 0.707106781186548 0.0
      outer loop
          vertex 3.3000000000000003 3.7 0.01
          vertex 3.0 4.0 0.01
          vertex 3.0 4.0 1
      endloop
  endfacet
  facet normal 0.707106781186547 0.707106781186548 -0.0
      outer loop
          vertex 3.3000000000000003 3.7 0.01
          vertex 3.0 4.0 1
          vertex 3.3000000000000003 3.7 1
      endloop
  endfacet
endsolid obstacle
