solid obstacle
  facet normal 0.0 0.0 -1.0
      outer loop
          vertex 1.5 0.2 0.01
          vertex 1.4000000000000001 0.2 0.01
          vertex 1.4000000000000001 0.6000000000000001 0.01
      endloop
  endfacet
  facet normal 0.0 0.0 1.0
      outer loop
          vertex 1.5 0.2 1
          vertex 1.4000000000000001 0.6000000000000001 1
          vertex 1.4000000000000001 0.2 1
      endloop
  endfacet
  facet normal 0.970142500145332 0.2425356250363326 0.0
      outer loop
          vertex 1.5 0.2 0.01
          vertex 1.4000000000000001 0.6000000000000001 0.01
          vertex 1.4000000000000001 0.6000000000000001 1
      endloop
  endfacet
  facet normal 0.970142500145332 0.2425356250363326 -0.0
      outer loop
          vertex 1.5 0.2 0.01
          vertex 1.4000000000000001 0.6000000000000001 1
          vertex 1.5 0.2 1
      endloop
  endfacet
  facet normal -1.0 0.0 0.0
      outer loop
          vertex 1.4000000000000001 0.6000000000000001 0.01
          vertex 1.4000000000000001 0.2 0.01
          vertex 1.4000000000000001 0.2 1
      endloop
  endfacet
  facet normal -1.0 0.0 0.0
      outer loop
          vertex 1.4000000000000001 0.6000000000000001 0.01
          vertex 1.4000000000000001 0.2 1
          vertex 1.4000000000000001 0.6000000000000001 1
      endloop
  endfacet
  facet normal 0.0 -1.0 0.0
      outer loop
          vertex 1.4000000000000001 0.2 0.01
          vertex 1.5 0.2 0.01
          vertex 1.5 0.2 1
      endloop
  endfacet
  facet normal 0.0 -1.0 0.0
      outer loop
          vertex 1.4000000000000001 0.2 0.01
          vertex 1.5 0.2 1
          vertex 1.4000000000000001 0.2 1
      endloop
  endfacet
endsolid obstacle
