solid obstacle
  facet normal 0.0 0.0 -1.0
      outer loop
          vertex 1.5 0.6000000000000001 0.01
          vertex 1.7000000000000002 0.7000000000000001 0.01
          vertex 1.9000000000000001 0.6000000000000001 0.01
      endloop
  endfacet
  facet normal 0.0 0.0 1.0
      outer loop
          vertex 1.5 0.6000000000000001 1
          vertex 1.9000000000000001 0.6000000000000001 1
          vertex 1.7000000000000002 0.7000000000000001 1
      endloop
  endfacet
  facet normal 0.0 -1.0 0.0
      outer loop
          vertex 1.5 0.6000000000000001 0.01
          vertex 1.9000000000000001 0.6000000000000001 0.01
          vertex 1.9000000000000001 0.6000000000000001 1
      endloop
  endfacet
  facet normal 0.0 -1.0 0.0
      outer loop
          vertex 1.5 0.6000000000000001 0.01
          vertex 1.9000000000000001 0.6000000000000001 1
          vertex 1.5 0.6000000000000001 1
      endloop
  endfacet
  facet normal 0.4472135954999579 0.8944271909999159 0.0
      outer loop
          vertex 1.9000000000000001 0.6000000000000001 0.01
          vertex 1.7000000000000002 0.7000000000000001 0.01
          vertex 1.7000000000000002 0.7000000000000001 1
      endloop
  endfacet
  facet normal 0.4472135954999579 0.8944271909999159 -0.0
      outer loop
          vertex 1.9000000000000001 0.6000000000000001 0.01
          vertex 1.7000000000000002 0.7000000000000001 1
          vertex 1.9000000000000001 0.6000000000000001 1
      endloop
  endfacet
  facet normal -0.4472135954999575 0.894427190999916 0.0
      outer loop
          vertex 1.7000000000000002 0.7000000000000001 0.01
          vertex 1.5 0.6000000000000001 0.01
          vertex 1.5 0.6000000000000001 1
      endloop
  endfacet
  facet normal -0.4472135954999575 0.894427190999916 0.0
      outer loop
          vertex 1.7000000000000002 0.7000000000000001 0.01
          vertex 1.5 0.6000000000000001 1
          vertex 1.7000000000000002 0.7000000000000001 1
      endloop
  endfacet
endsolid obstacle
