solid obstacle
  facet normal 0.0 0.0 -1.0
      outer loop
          vertex 0.6000000000000001 3.7 0.1
          vertex 0.9 4.0 0.1
          vertex 2.2 4.7 0.1
      endloop
  endfacet
  facet normal 0.0 0.0 1.0
      outer loop
          vertex 0.6000000000000001 3.7 1
          vertex 2.2 4.7 1
          vertex 0.9 4.0 1
      endloop
  endfacet
  facet normal 0.52999894000318 -0.8479983040050881 0.0
      outer loop
          vertex 0.6000000000000001 3.7 0.1
          vertex 2.2 4.7 0.1
          vertex 2.2 4.7 1
      endloop
  endfacet
  facet normal 0.52999894000318 -0.8479983040050881 0.0
      outer loop
          vertex 0.6000000000000001 3.7 0.1
          vertex 2.2 4.7 1
          vertex 0.6000000000000001 3.7 1
      endloop
  endfacet
  facet normal -0.4740998230350175 0.8804710999221753 0.0
      outer loop
          vertex 2.2 4.7 0.1
          vertex 0.9 4.0 0.1
          vertex 0.9 4.0 1
      endloop
  endfacet
  facet normal -0.4740998230350175 0.8804710999221753 0.0
      outer loop
          vertex 2.2 4.7 0.1
          vertex 0.9 4.0 1
          vertex 2.2 4.7 1
      endloop
  endfacet
  facet normal -0.7071067811865474 0.7071067811865477 0.0
      outer loop
          vertex 0.9 4.0 0.1
          vertex 0.6000000000000001 3.7 0.1
          vertex 0.6000000000000001 3.7 1
      endloop
  endfacet
  facet normal -0.7071067811865474 0.7071067811865477 0.0
      outer loop
          vertex 0.9 4.0 0.1
          vertex 0.6000000000000001 3.7 1
          vertex 0.9 4.0 1
      endloop
  endfacet
endsolid obstacle
