solid obstacle
  facet normal 0.0 0.0 -1.0
      outer loop
          vertex 4.2 1.3 0.01
          vertex 3.4000000000000004 0.30000000000000004 0.01
          vertex 2.3000000000000003 0.8 0.01
      endloop
  endfacet
  facet normal 0.0 0.0 1.0
      outer loop
          vertex 4.2 1.3 1
          vertex 2.3000000000000003 0.8 1
          vertex 3.4000000000000004 0.30000000000000004 1
      endloop
  endfacet
  facet normal -0.25449329927964376 0.9670745372626464 0.0
      outer loop
          vertex 4.2 1.3 0.01
          vertex 2.3000000000000003 0.8 0.01
          vertex 2.3000000000000003 0.8 1
      endloop
  endfacet
  facet normal -0.25449329927964376 0.9670745372626464 0.0
      outer loop
          vertex 4.2 1.3 0.01
          vertex 2.3000000000000003 0.8 1
          vertex 4.2 1.3 1
      endloop
  endfacet
  facet normal -0.4138029443011839 -0.9103664774626047 0.0
      outer loop
          vertex 2.3000000000000003 0.8 0.01
          vertex 3.4000000000000004 0.30000000000000004 0.01
          vertex 3.4000000000000004 0.30000000000000004 1
      endloop
  endfacet
  facet normal -0.4138029443011839 -0.9103664774626047 0.0
      outer loop
          vertex 2.3000000000000003 0.8 0.01
          vertex 3.4000000000000004 0.30000000000000004 1
          vertex 2.3000000000000003 0.8 1
      endloop
  endfacet
  facet normal 0.7808688094430304 -0.6246950475544242 0.0
      outer loop
          vertex 3.4000000000000004 0.30000000000000004 0.01
          vertex 4.2 1.3 0.01
          vertex 4.2 1.3 1
      endloop
  endfacet
  facet normal 0.7808688094430304 -0.6246950475544242 0.0
      outer loop
          vertex 3.4000000000000004 0.30000000000000004 0.01
          vertex 4.2 1.3 1
          vertex 3.4000000000000004 0.30000000000000004 1
      endloop
  endfacet
endsolid obstacle
