solid obstacle
  facet normal 0.0 0.0 -1.0
      outer loop
          vertex 2.1 2.7 0.1
          vertex 3.1 2.7 0.1
          vertex 3.4000000000000004 2.1 0.1
      endloop
  endfacet
  facet normal -0.0 0.0 1.0
      outer loop
          vertex 2.1 2.7 1
          vertex 3.4000000000000004 2.1 1
          vertex 3.1 2.7 1
      endloop
  endfacet
  facet normal -0.4190581774617469 -0.9079593845004517 0.0
      outer loop
          vertex 2.1 2.7 0.1
          vertex 3.4000000000000004 2.1 0.1
          vertex 3.4000000000000004 2.1 1
      endloop
  endfacet
  facet normal -0.4190581774617469 -0.9079593845004517 0.0
      outer loop
          vertex 2.1 2.7 0.1
          vertex 3.4000000000000004 2.1 1
          vertex 2.1 2.7 1
      endloop
  endfacet
  facet normal 0.8944271909999157 0.44721359549995815 0.0
      outer loop
          vertex 3.4000000000000004 2.1 0.1
          vertex 3.1 2.7 0.1
          vertex 3.1 2.7 1
      endloop
  endfacet
  facet normal 0.8944271909999157 0.44721359549995815 -0.0
      outer loop
          vertex 3.4000000000000004 2.1 0.1
          vertex 3.1 2.7 1
          vertex 3.4000000000000004 2.1 1
      endloop
  endfacet
  facet normal 0.0 1.0 0.0
      outer loop
          vertex 3.1 2.7 0.1
          vertex 2.1 2.7 0.1
          vertex 2.1 2.7 1
      endloop
  endfacet
  facet normal 0.0 1.0 -0.0
      outer loop
          vertex 3.1 2.7 0.1
          vertex 2.1 2.7 1
          vertex 3.1 2.7 1
      endloop
  endfacet
endsolid obstacle
