solid obstacle
  facet normal 0.0 -0.0 -1.0
      outer loop
          vertex 2.3000000000000003 2.4000000000000004 0.1
          vertex 3.5 0.30000000000000004 0.1
          vertex 1.9000000000000001 1.2000000000000002 0.1
      endloop
  endfacet
  facet normal 0.0 0.0 -1.0
      outer loop
          vertex 2.3000000000000003 2.4000000000000004 0.1
          vertex 3.5 1.2000000000000002 0.1
          vertex 3.5 0.30000000000000004 0.1
      endloop
  endfacet
  facet normal 0.0 0.0 1.0
      outer loop
          vertex 2.3000000000000003 2.4000000000000004 1
          vertex 1.9000000000000001 1.2000000000000002 1
          vertex 3.5 0.30000000000000004 1
      endloop
  endfacet
  facet normal 0.0 0.0 1.0
      outer loop
          vertex 2.3000000000000003 2.4000000000000004 1
          vertex 3.5 0.30000000000000004 1
          vertex 3.5 1.2000000000000002 1
      endloop
  endfacet
  facet normal -0.9486832980505138 0.316227766016838 0.0
      outer loop
          vertex 2.3000000000000003 2.4000000000000004 0.1
          vertex 1.9000000000000001 1.2000000000000002 0.1
          vertex 1.9000000000000001 1.2000000000000002 1
      endloop
  endfacet
  facet normal -0.9486832980505138 0.316227766016838 0.0
      outer loop
          vertex 2.3000000000000003 2.4000000000000004 0.1
          vertex 1.9000000000000001 1.2000000000000002 1
          vertex 2.3000000000000003 2.4000000000000004 1
      endloop
  endfacet
  facet normal -0.490261239632559 -0.8715755371245492 0.0
      outer loop
          vertex 1.9000000000000001 1.2000000000000002 0.1
          vertex 3.5 0.30000000000000004 0.1
          vertex 3.5 0.30000000000000004 1
      endloop
  endfacet
  facet normal -0.490261239632559 -0.8715755371245492 0.0
      outer loop
          vertex 1.9000000000000001 1.2000000000000002 0.1
          vertex 3.5 0.30000000000000004 1
          vertex 1.9000000000000001 1.2000000000000002 1
      endloop
  endfacet
  facet normal 1.0 0.0 0.0
      outer loop
          vertex 3.5 0.30000000000000004 0.1
          vertex 3.5 1.2000000000000002 0.1
          vertex 3.5 1.2000000000000002 1
      endloop
  endfacet
  facet normal 1.0 0.0 0.0
      outer loop
          vertex 3.5 0.30000000000000004 0.1
          vertex 3.5 1.2000000000000002 1
          vertex 3.5 0.30000000000000004 1
      endloop
  endfacet
  facet normal 0.7071067811865477 0.7071067811865474 0.0
      outer loop
          vertex 3.5 1.2000000000000002 0.1
          vertex 2.3000000000000003 2.4000000000000004 0.1
          vertex 2.3000000000000003 2.4000000000000004 1
      endloop
  endfacet
  facet normal 0.7071067811865477 0.7071067811865474 -0.0
      outer loop
          vertex 3.5 1.2000000000000002 0.1
          vertex 2.3000000000000003 2.4000000000000004 1
          vertex 3.5 1.2000000000000002 1
      endloop
  endfacet
endsolid obstacle
