solid obstacle
  facet normal 0.0 0.0 -1.0
      outer loop
          vertex 2.4000000000000004 2.5 0.1
          vertex 3.7 3.9000000000000004 0.1
          vertex 4.2 2.9000000000000004 0.1
      endloop
  endfacet
  facet normal 0.0 0.0 1.0
      outer loop
          vertex 2.4000000000000004 2.5 1
          vertex 4.2 2.9000000000000004 1
          vertex 3.7 3.9000000000000004 1
      endloop
  endfacet
  facet normal 0.21693045781865639 -0.9761870601839527 0.0
      outer loop
          vertex 2.4000000000000004 2.5 0.1
          vertex 4.2 2.9000000000000004 0.1
          vertex 4.2 2.9000000000000004 1
      endloop
  endfacet
  facet normal 0.21693045781865639 -0.9761870601839527 0.0
      outer loop
          vertex 2.4000000000000004 2.5 0.1
          vertex 4.2 2.9000000000000004 1
          vertex 2.4000000000000004 2.5 1
      endloop
  endfacet
  facet normal 0.8944271909999157 0.44721359549995787 0.0
      outer loop
          vertex 4.2 2.9000000000000004 0.1
          vertex 3.7 3.9000000000000004 0.1
          vertex 3.7 3.9000000000000004 1
      endloop
  endfacet
  facet normal 0.8944271909999157 0.44721359549995787 -0.0
      outer loop
          vertex 4.2 2.9000000000000004 0.1
          vertex 3.7 3.9000000000000004 1
          vertex 4.2 2.9000000000000004 1
      endloop
  endfacet
  facet normal -0.7327934916262994 0.6804510993672777 0.0
      outer loop
          vertex 3.7 3.9000000000000004 0.1
          vertex 2.4000000000000004 2.5 0.1
          vertex 2.4000000000000004 2.5 1
      endloop
  endfacet
  facet normal -0.7327934916262994 0.6804510993672777 0.0
      outer loop
          vertex 3.7 3.9000000000000004 0.1
          vertex 2.4000000000000004 2.5 1
          vertex 3.7 3.9000000000000004 1
      endloop
  endfacet
endsolid obstacle
