solid obstacle
  facet normal 0.0 0.0 -1.0
      outer loop
          vertex 3.7 4.2 0.01
          vertex 3.8000000000000003 4.5 0.01
          vertex 4.0 4.2 0.01
      endloop
  endfacet
  facet normal 0.0 0.0 1.0
      outer loop
          vertex 3.7 4.2 1
          vertex 4.0 4.2 1
          vertex 3.8000000000000003 4.5 1
      endloop
  endfacet
  facet normal 0.0 -1.0 0.0
      outer loop
          vertex 3.7 4.2 0.01
          vertex 4.0 4.2 0.01
          vertex 4.0 4.2 1
      endloop
  endfacet
  facet normal 0.0 -1.0 0.0
      outer loop
          vertex 3.7 4.2 0.01
          vertex 4.0 4.2 1
          vertex 3.7 4.2 1
      endloop
  endfacet
  facet normal 0.8320502943378438 0.5547001962252288 0.0
      outer loop
          vertex 4.0 4.2 0.01
          vertex 3.8000000000000003 4.5 0.01
          vertex 3.8000000000000003 4.5 1
      endloop
  endfacet
  facet normal 0.8320502943378438 0.5547001962252288 -0.0
      outer loop
          vertex 4.0 4.2 0.01
          vertex 3.8000000000000003 4.5 1
          vertex 4.0 4.2 1
      endloop
  endfacet
  facet normal -0.9486832980505137 0.31622776601683833 0.0
      outer loop
          vertex 3.8000000000000003 4.5 0.01
          vertex 3.7 4.2 0.01
          vertex 3.7 4.2 1
      endloop
  endfacet
  facet normal -0.9486832980505137 0.31622776601683833 0.0
      outer loop
          vertex 3.8000000000000003 4.5 0.01
          vertex 3.7 4.2 1
          vertex 3.8000000000000003 4.5 1
      endloop
  endfacet
endsolid obstacle
