solid obstacle
  facet normal 0.0 0.0 -1.0
      outer loop
          vertex 3.2 2.7 0.01
          vertex 3.0 1.0 0.01
          vertex 2.1 2.0 0.01
      endloop
  endfacet
  facet normal 0.0 0.0 1.0
      outer loop
          vertex 3.2 2.7 1
          vertex 2.1 2.0 1
          vertex 3.0 1.0 1
      endloop
  endfacet
  facet normal -0.5368754921931594 0.8436614877321075 0.0
      outer loop
          vertex 3.2 2.7 0.01
          vertex 2.1 2.0 0.01
          vertex 2.1 2.0 1
      endloop
  endfacet
  facet normal -0.5368754921931594 0.8436614877321075 0.0
      outer loop
          vertex 3.2 2.7 0.01
          vertex 2.1 2.0 1
          vertex 3.2 2.7 1
      endloop
  endfacet
  facet normal -0.7432941462471664 -0.6689647316224497 0.0
      outer loop
          vertex 2.1 2.0 0.01
          vertex 3.0 1.0 0.01
          vertex 3.0 1.0 1
      endloop
  endfacet
  facet normal -0.7432941462471664 -0.6689647316224497 0.0
      outer loop
          vertex 2.1 2.0 0.01
          vertex 3.0 1.0 1
          vertex 2.1 2.0 1
      endloop
  endfacet
  facet normal 0.9931506043228762 -0.1168412475673973 0.0
      outer loop
          vertex 3.0 1.0 0.01
          vertex 3.2 2.7 0.01
          vertex 3.2 2.7 1
      endloop
  endfacet
  facet normal 0.9931506043228762 -0.1168412475673973 0.0
      outer loop
          vertex 3.0 1.0 0.01
          vertex 3.2 2.7 1
          vertex 3.0 1.0 1
      endloop
  endfacet
endsolid obstacle
