solid obstacle
  facet normal 0.0 0.0 -1.0
      outer loop
          vertex 0.5 3.8000000000000003 0.01
          vertex 0.8 4.6000000000000005 0.01
          vertex 2.2 3.8000000000000003 0.01
      endloop
  endfacet
  facet normal 0.0 0.0 1.0
      outer loop
          vertex 0.5 3.8000000000000003 1
          vertex 2.2 3.8000000000000003 1
          vertex 0.8 4.6000000000000005 1
      endloop
  endfacet
  facet normal 0.0 -1.0 0.0
      outer loop
          vertex 0.5 3.8000000000000003 0.01
          vertex 2.2 3.8000000000000003 0.01
          vertex 2.2 3.8000000000000003 1
      endloop
  endfacet
  facet normal 0.0 -1.0 0.0
      outer loop
          vertex 0.5 3.8000000000000003 0.01
          vertex 2.2 3.8000000000000003 1
          vertex 0.5 3.8000000000000003 1
      endloop
  endfacet
  facet normal 0.4961389383568339 0.8682431421244592 0.0
      outer loop
          vertex 2.2 3.8000000000000003 0.01
          vertex 0.8 4.6000000000000005 0.01
          vertex 0.8 4.6000000000000005 1
      endloop
  endfacet
  facet normal 0.4961389383568339 0.8682431421244592 -0.0
      outer loop
          vertex 2.2 3.8000000000000003 0.01
          vertex 0.8 4.6000000000000005 1
          vertex 2.2 3.8000000000000003 1
      endloop
  endfacet
  facet normal -0.9363291775690445 0.35112344158839165 0.0
      outer loop
          vertex 0.8 4.6000000000000005 0.01
          vertex 0.5 3.8000000000000003 0.01
          vertex 0.5 3.8000000000000003 1
      endloop
  endfacet
  facet normal -0.9363291775690445 0.35112344158839165 0.0
      outer loop
          vertex 0.8 4.6000000000000005 0.01
          vertex 0.5 3.8000000000000003 1
          vertex 0.8 4.6000000000000005 1
      endloop
  endfacet
endsolid obstacle
