solid obstacle
  facet normal 0.0 0.0 -1.0
      outer loop
          vertex 3.1 3.7 0.1
          vertex 3.5 4.2 0.1
          vertex 4.9 3.1 0.1
      endloop
  endfacet
  facet normal -0.0 0.0 1.0
      outer loop
          vertex 3.1 3.7 1
          vertex 4.9 3.1 1
          vertex 3.5 4.2 1
      endloop
  endfacet
  facet normal -0.31622776601683794 -0.9486832980505138 0.0
      outer loop
          vertex 3.1 3.7 0.1
          vertex 4.9 3.1 0.1
          vertex 4.9 3.1 1
      endloop
  endfacet
  facet normal -0.31622776601683794 -0.9486832980505138 0.0
      outer loop
          vertex 3.1 3.7 0.1
          vertex 4.9 3.1 1
          vertex 3.1 3.7 1
      endloop
  endfacet
  facet normal 0.6178215519319035 0.7863183388224227 0.0
      outer loop
          vertex 4.9 3.1 0.1
          vertex 3.5 4.2 0.1
          vertex 3.5 4.2 1
      endloop
  endfacet
  facet normal 0.6178215519319035 0.7863183388224227 -0.0
      outer loop
          vertex 4.9 3.1 0.1
          vertex 3.5 4.2 1
          vertex 4.9 3.1 1
      endloop
  endfacet
  facet normal -0.7808688094430304 0.6246950475544242 0.0
      outer loop
          vertex 3.5 4.2 0.1
          vertex 3.1 3.7 0.1
          vertex 3.1 3.7 1
      endloop
  endfacet
  facet normal -0.7808688094430304 0.6246950475544242 0.0
      outer loop
          vertex 3.5 4.2 0.1
          vertex 3.1 3.7 1
          vertex 3.5 4.2 1
      endloop
  endfacet
endsolid obstacle
