solid obstacle
  facet normal 0.0 0.0 -1.0
      outer loop
          vertex 1.4000000000000001 3.4000000000000004 0.1
          vertex 3.2 3.8000000000000003 0.1
          vertex 2.5 2.9000000000000004 0.1
      endloop
  endfacet
  facet normal 0.0 0.0 -1.0
      outer loop
          vertex 1.4000000000000001 3.4000000000000004 0.1
          vertex 2.8000000000000003 4.2 0.1
          vertex 3.2 3.8000000000000003 0.1
      endloop
  endfacet
  facet normal -0.0 0.0 1.0
      outer loop
          vertex 1.4000000000000001 3.4000000000000004 1
          vertex 2.5 2.9000000000000004 1
          vertex 3.2 3.8000000000000003 1
      endloop
  endfacet
  facet normal 0.0 0.0 1.0
      outer loop
          vertex 1.4000000000000001 3.4000000000000004 1
          vertex 3.2 3.8000000000000003 1
          vertex 2.8000000000000003 4.2 1
      endloop
  endfacet
  facet normal -0.413802944301184 -0.9103664774626046 0.0
      outer loop
          vertex 1.4000000000000001 3.4000000000000004 0.1
          vertex 2.5 2.9000000000000004 0.1
          vertex 2.5 2.9000000000000004 1
      endloop
  endfacet
  facet normal -0.413802944301184 -0.9103664774626046 0.0
      outer loop
          vertex 1.4000000000000001 3.4000000000000004 0.1
          vertex 2.5 2.9000000000000004 1
          vertex 1.4000000000000001 3.4000000000000004 1
      endloop
  endfacet
  facet normal 0.7893522173763261 -0.6139406135149206 0.0
      outer loop
          vertex 2.5 2.9000000000000004 0.1
          vertex 3.2 3.8000000000000003 0.1
          vertex 3.2 3.8000000000000003 1
      endloop
  endfacet
  facet normal 0.7893522173763261 -0.6139406135149206 0.0
      outer loop
          vertex 2.5 2.9000000000000004 0.1
          vertex 3.2 3.8000000000000003 1
          vertex 2.5 2.9000000000000004 1
      endloop
  endfacet
  facet normal 0.7071067811865476 0.7071067811865476 0.0
      outer loop
          vertex 3.2 3.8000000000000003 0.1
          vertex 2.8000000000000003 4.2 0.1
          vertex 2.8000000000000003 4.2 1
      endloop
  endfacet
  facet normal 0.7071067811865476 0.7071067811865476 -0.0
      outer loop
          vertex 3.2 3.8000000000000003 0.1
          vertex 2.8000000000000003 4.2 1
          vertex 3.2 3.8000000000000003 1
      endloop
  endfacet
  facet normal -0.4961389383568337 0.8682431421244593 0.0
      outer loop
          vertex 2.8000000000000003 4.2 0.1
          vertex 1.4000000000000001 3.4000000000000004 0.1
          vertex 1.4000000000000001 3.4000000000000004 1
      endloop
  endfacet
  facet normal -0.4961389383568337 0.8682431421244593 0.0
      outer loop
          vertex 2.8000000000000003 4.2 0.1
          vertex 1.4000000000000001 3.4000000000000004 1
          vertex 2.8000000000000003 4.2 1
      endloop
  endfacet
endsolid obstacle
