solid obstacle
  facet normal 0.0 0.0 -1.0
      outer loop
          vertex 1.5 3.9000000000000004 0.01
          vertex 3.2 4.4 0.01
          vertex 2.1 3.1 0.01
      endloop
  endfacet
  facet normal 0.0 0.0 -1.0
      outer loop
          vertex 1.5 3.9000000000000004 0.01
          vertex 2.1 4.5 0.01
          vertex 3.2 4.4 0.01
      endloop
  endfacet
  facet normal -0.0 0.0 1.0
      outer loop
          vertex 1.5 3.9000000000000004 1
          vertex 2.1 3.1 1
          vertex 3.2 4.4 1
      endloop
  endfacet
  facet normal 0.0 0.0 1.0
      outer loop
          vertex 1.5 3.9000000000000004 1
          vertex 3.2 4.4 1
          vertex 2.1 4.5 1
      endloop
  endfacet
  facet normal -0.8 -0.6 0.0
      outer loop
          vertex 1.5 3.9000000000000004 0.01
          vertex 2.1 3.1 0.01
          vertex 2.1 3.1 1
      endloop
  endfacet
  facet normal -0.8 -0.6 0.0
      outer loop
          vertex 1.5 3.9000000000000004 0.01
          vertex 2.1 3.1 1
          vertex 1.5 3.9000000000000004 1
      endloop
  endfacet
  facet normal 0.7633862853691147 -0.6459422414661738 0.0
      outer loop
          vertex 2.1 3.1 0.01
          vertex 3.2 4.4 0.01
          vertex 3.2 4.4 1
      endloop
  endfacet
  facet normal 0.7633862853691147 -0.6459422414661738 0.0
      outer loop
          vertex 2.1 3.1 0.01
          vertex 3.2 4.4 1
          vertex 2.1 3.1 1
      endloop
  endfacet
  facet normal 0.0905357460425182 0.9958932064677037 0.0
      outer loop
          vertex 3.2 4.4 0.01
          vertex 2.1 4.5 0.01
          vertex 2.1 4.5 1
      endloop
  endfacet
  facet normal 0.0905357460425182 0.9958932064677037 -0.0
      outer loop
          vertex 3.2 4.4 0.01
          vertex 2.1 4.5 1
          vertex 3.2 4.4 1
      endloop
  endfacet
  facet normal -0.7071067811865472 0.7071067811865478 0.0
      outer loop
          vertex 2.1 4.5 0.01
          vertex 1.5 3.9000000000000004 0.01
          vertex 1.5 3.9000000000000004 1
      endloop
  endfacet
  facet normal -0.7071067811865472 0.7071067811865478 0.0
      outer loop
          vertex 2.1 4.5 0.01
          vertex 1.5 3.9000000000000004 1
          vertex 2.1 4.5 1
      endloop
  endfacet
endsolid obstacle
