solid obstacle
  facet normal -0.0 0.0 -1.0
      outer loop
          vertex 2.5 3.1 0.01
          vertex 1.7000000000000002 2.6 0.01
          vertex 1.1 4.1000000000000005 0.01
      endloop
  endfacet
  facet normal 0.0 0.0 1.0
      outer loop
          vertex 2.5 3.1 1
          vertex 1.1 4.1000000000000005 1
          vertex 1.7000000000000002 2.6 1
      endloop
  endfacet
  facet normal 0.5812381937190966 0.8137334712067348 0.0
      outer loop
          vertex 2.5 3.1 0.01
          vertex 1.1 4.1000000000000005 0.01
          vertex 1.1 4.1000000000000005 1
      endloop
  endfacet
  facet normal 0.5812381937190966 0.8137334712067348 -0.0
      outer loop
          vertex 2.5 3.1 0.01
          vertex 1.1 4.1000000000000005 1
          vertex 2.5 3.1 1
      endloop
  endfacet
  facet normal -0.9284766908852593 -0.3713906763541037 0.0
      outer loop
          vertex 1.1 4.1000000000000005 0.01
          vertex 1.7000000000000002 2.6 0.01
          vertex 1.7000000000000002 2.6 1
      endloop
  endfacet
  facet normal -0.9284766908852593 -0.3713906763541037 0.0
      outer loop
          vertex 1.1 4.1000000000000005 0.01
          vertex 1.7000000000000002 2.6 1
          vertex 1.1 4.1000000000000005 1
      endloop
  endfacet
  facet normal 0.52999894000318 -0.8479983040050879 0.0
      outer loop
          vertex 1.7000000000000002 2.6 0.01
          vertex 2.5 3.1 0.01
          vertex 2.5 3.1 1
      endloop
  endfacet
  facet normal 0.52999894000318 -0.8479983040050879 0.0
      outer loop
          vertex 1.7000000000000002 2.6 0.01
          vertex 2.5 3.1 1
          vertex 1.7000000000000002 2.6 1
      endloop
  endfacet
endsolid obstacle
