solid obstacle
  facet normal -0.0 0.0 -1.0
      outer loop
          vertex 3.4000000000000004 3.4000000000000004 0.1
          vertex 2.6 2.4000000000000004 0.1
          vertex 2.4000000000000004 4.3 0.1
      endloop
  endfacet
  facet normal 0.0 0.0 1.0
      outer loop
          vertex 3.4000000000000004 3.4000000000000004 1
          vertex 2.4000000000000004 4.3 1
          vertex 2.6 2.4000000000000004 1
      endloop
  endfacet
  facet normal 0.6689647316224495 0.7432941462471665 0.0
      outer loop
          vertex 3.4000000000000004 3.4000000000000004 0.1
          vertex 2.4000000000000004 4.3 0.1
          vertex 2.4000000000000004 4.3 1
      endloop
  endfacet
  facet normal 0.6689647316224495 0.7432941462471665 -0.0
      outer loop
          vertex 3.4000000000000004 3.4000000000000004 0.1
          vertex 2.4000000000000004 4.3 1
          vertex 3.4000000000000004 3.4000000000000004 1
      endloop
  endfacet
  facet normal -0.994505452921406 -0.10468478451804264 0.0
      outer loop
          vertex 2.4000000000000004 4.3 0.1
          vertex 2.6 2.4000000000000004 0.1
          vertex 2.6 2.4000000000000004 1
      endloop
  endfacet
  facet normal -0.994505452921406 -0.10468478451804264 0.0
      outer loop
          vertex 2.4000000000000004 4.3 0.1
          vertex 2.6 2.4000000000000004 1
          vertex 2.4000000000000004 4.3 1
      endloop
  endfacet
  facet normal 0.7808688094430303 -0.6246950475544244 0.0
      outer loop
          vertex 2.6 2.4000000000000004 0.1
          vertex 3.4000000000000004 3.4000000000000004 0.1
          vertex 3.4000000000000004 3.4000000000000004 1
      endloop
  endfacet
  facet normal 0.7808688094430303 -0.6246950475544244 0.0
      outer loop
          vertex 2.6 2.4000000000000004 0.1
          vertex 3.4000000000000004 3.4000000000000004 1
          vertex 2.6 2.4000000000000004 1
      endloop
  endfacet
endsolid obstacle
