solid obstacle
  facet normal -0.0 0.0 -1.0
      outer loop
          vertex 3.9000000000000004 0.4 0.01
          vertex 3.6 0.1 0.01
          vertex 3.6 0.9 0.01
      endloop
  endfacet
  facet normal 0.0 0.0 1.0
      outer loop
          vertex 3.9000000000000004 0.4 1
          vertex 3.6 0.9 1
          vertex 3.6 0.1 1
      endloop
  endfacet
  facet normal 0.8574929257125441 0.5144957554275269 0.0
      outer loop
          vertex 3.9000000000000004 0.4 0.01
          vertex 3.6 0.9 0.01
          vertex 3.6 0.9 1
      endloop
  endfacet
  facet normal 0.8574929257125441 0.5144957554275269 -0.0
      outer loop
          vertex 3.9000000000000004 0.4 0.01
          vertex 3.6 0.9 1
          vertex 3.9000000000000004 0.4 1
      endloop
  endfacet
  facet normal -1.0 0.0 0.0
      outer loop
          vertex 3.6 0.9 0.01
          vertex 3.6 0.1 0.01
          vertex 3.6 0.1 1
      endloop
  endfacet
  facet normal -1.0 0.0 0.0
      outer loop
          vertex 3.6 0.9 0.01
          vertex 3.6 0.1 1
          vertex 3.6 0.9 1
      endloop
  endfacet
  facet normal 0.7071067811865472 -0.7071067811865478 0.0
      outer loop
          vertex 3.6 0.1 0.01
          vertex 3.9000000000000004 0.4 0.01
          vertex 3.9000000000000004 0.4 1
      endloop
  endfacet
  facet normal 0.7071067811865472 -0.7071067811865478 0.0
      outer loop
          vertex 3.6 0.1 0.01
          vertex 3.9000000000000004 0.4 1
          vertex 3.6 0.1 1
      endloop
  endfacet
endsolid obstacle
