solid obstacle
  facet normal 0.0 0.0 -1.0
      outer loop
          vertex 0.0 1.6 0.01
          vertex 0.2 1.6 0.01
          vertex 0.30000000000000004 1.3 0.01
      endloop
  endfacet
  facet normal -0.0 0.0 1.0
      outer loop
          vertex 0.0 1.6 1
          vertex 0.30000000000000004 1.3 1
          vertex 0.2 1.6 1
      endloop
  endfacet
  facet normal -0.7071067811865475 -0.7071067811865475 0.0
      outer loop
          vertex 0.0 1.6 0.01
          vertex 0.30000000000000004 1.3 0.01
          vertex 0.30000000000000004 1.3 1
      endloop
  endfacet
  facet normal -0.7071067811865475 -0.7071067811865475 0.0
      outer loop
          vertex 0.0 1.6 0.01
          vertex 0.30000000000000004 1.3 1
          vertex 0.0 1.6 1
      endloop
  endfacet
  facet normal 0.9486832980505139 0.316227766016838 0.0
      outer loop
          vertex 0.30000000000000004 1.3 0.01
          vertex 0.2 1.6 0.01
          vertex 0.2 1.6 1
      endloop
  endfacet
  facet normal 0.9486832980505139 0.316227766016838 -0.0
      outer loop
          vertex 0.30000000000000004 1.3 0.01
          vertex 0.2 1.6 1
          vertex 0.30000000000000004 1.3 1
      endloop
  endfacet
  facet normal 0.0 1.0 0.0
      outer loop
          vertex 0.2 1.6 0.01
          vertex 0.0 1.6 0.01
          vertex 0.0 1.6 1
      endloop
  endfacet
  facet normal 0.0 1.0 -0.0
      outer loop
          vertex 0.2 1.6 0.01
          vertex 0.0 1.6 1
          vertex 0.2 1.6 1
      endloop
  endfacet
endsolid obstacle
