solid obstacle
  facet normal 0.0 0.0 -1.0
      outer loop
          vertex 1.1 2.5 0.1
          vertex 1.3 3.4000000000000004 0.1
          vertex 2.2 2.6 0.1
      endloop
  endfacet
  facet normal 0.0 0.0 1.0
      outer loop
          vertex 1.1 2.5 1
          vertex 2.2 2.6 1
          vertex 1.3 3.4000000000000004 1
      endloop
  endfacet
  facet normal 0.0905357460425186 -0.9958932064677039 0.0
      outer loop
          vertex 1.1 2.5 0.1
          vertex 2.2 2.6 0.1
          vertex 2.2 2.6 1
      endloop
  endfacet
  facet normal 0.0905357460425186 -0.9958932064677039 0.0
      outer loop
          vertex 1.1 2.5 0.1
          vertex 2.2 2.6 1
          vertex 1.1 2.5 1
      endloop
  endfacet
  facet normal 0.6643638388299199 0.7474093186836597 0.0
      outer loop
          vertex 2.2 2.6 0.1
          vertex 1.3 3.4000000000000004 0.1
          vertex 1.3 3.4000000000000004 1
      endloop
  endfacet
  facet normal 0.6643638388299199 0.7474093186836597 -0.0
      outer loop
          vertex 2.2 2.6 0.1
          vertex 1.3 3.4000000000000004 1
          vertex 2.2 2.6 1
      endloop
  endfacet
  facet normal -0.976187060183953 0.21693045781865605 0.0
      outer loop
          vertex 1.3 3.4000000000000004 0.1
          vertex 1.1 2.5 0.1
          vertex 1.1 2.5 1
      endloop
  endfacet
  facet normal -0.976187060183953 0.21693045781865605 0.0
      outer loop
          vertex 1.3 3.4000000000000004 0.1
          vertex 1.1 2.5 1
          vertex 1.3 3.4000000000000004 1
      endloop
  endfacet
endsolid obstacle
