solid obstacle
  facet normal 0.0 0.0 -1.0
      outer loop
          vertex 1.6 1.0 0.01
          vertex 1.6 1.7000000000000002 0.01
          vertex 1.9000000000000001 0.5 0.01
      endloop
  endfacet
  facet normal -0.0 0.0 1.0
      outer loop
          vertex 1.6 1.0 1
          vertex 1.9000000000000001 0.5 1
          vertex 1.6 1.7000000000000002 1
      endloop
  endfacet
  facet normal -0.8574929257125441 -0.5144957554275266 0.0
      outer loop
          vertex 1.6 1.0 0.01
          vertex 1.9000000000000001 0.5 0.01
          vertex 1.9000000000000001 0.5 1
      endloop
  endfacet
  facet normal -0.8574929257125441 -0.5144957554275266 0.0
      outer loop
          vertex 1.6 1.0 0.01
          vertex 1.9000000000000001 0.5 1
          vertex 1.6 1.0 1
      endloop
  endfacet
  facet normal 0.9701425001453319 0.24253562503633297 0.0
      outer loop
          vertex 1.9000000000000001 0.5 0.01
          vertex 1.6 1.7000000000000002 0.01
          vertex 1.6 1.7000000000000002 1
      endloop
  endfacet
  facet normal 0.9701425001453319 0.24253562503633297 -0.0
      outer loop
          vertex 1.9000000000000001 0.5 0.01
          vertex 1.6 1.7000000000000002 1
          vertex 1.9000000000000001 0.5 1
      endloop
  endfacet
  facet normal -1.0 0.0 0.0
      outer loop
          vertex 1.6 1.7000000000000002 0.01
          vertex 1.6 1.0 0.01
          vertex 1.6 1.0 1
      endloop
  endfacet
  facet normal -1.0 0.0 0.0
      outer loop
          vertex 1.6 1.7000000000000002 0.01
          vertex 1.6 1.0 1
          vertex 1.6 1.7000000000000002 1
      endloop
  endfacet
endsolid obstacle
