solid obstacle
  facet normal 0.0 0.0 -1.0
      outer loop
          vertex 1.5 1.0 0.01
          vertex 3.0 1.5 0.01
          vertex 3.3000000000000003 1.3 0.01
      endloop
  endfacet
  facet normal 0.0 0.0 1.0
      outer loop
          vertex 1.5 1.0 1
          vertex 3.3000000000000003 1.3 1
          vertex 3.0 1.5 1
      endloop
  endfacet
  facet normal 0.1643989873053573 -0.9863939238321439 0.0
      outer loop
          vertex 1.5 1.0 0.01
          vertex 3.3000000000000003 1.3 0.01
          vertex 3.3000000000000003 1.3 1
      endloop
  endfacet
  facet normal 0.1643989873053573 -0.9863939238321439 0.0
      outer loop
          vertex 1.5 1.0 0.01
          vertex 3.3000000000000003 1.3 1
          vertex 1.5 1.0 1
      endloop
  endfacet
  facet normal 0.5547001962252287 0.8320502943378439 0.0
      outer loop
          vertex 3.3000000000000003 1.3 0.01
          vertex 3.0 1.5 0.01
          vertex 3.0 1.5 1
      endloop
  endfacet
  facet normal 0.5547001962252287 0.8320502943378439 -0.0
      outer loop
          vertex 3.3000000000000003 1.3 0.01
          vertex 3.0 1.5 1
          vertex 3.3000000000000003 1.3 1
      endloop
  endfacet
  facet normal -0.31622776601683794 0.9486832980505139 0.0
      outer loop
          vertex 3.0 1.5 0.01
          vertex 1.5 1.0 0.01
          vertex 1.5 1.0 1
      endloop
  endfacet
  facet normal -0.31622776601683794 0.9486832980505139 0.0
      outer loop
          vertex 3.0 1.5 0.01
          vertex 1.5 1.0 1
          vertex 3.0 1.5 1
      endloop
  endfacet
endsolid obstacle
