solid obstacle
  facet normal 0.0 0.0 -1.0
      outer loop
          vertex 3.7 3.3000000000000003 0.1
          vertex 3.0 3.6 0.1
          vertex 2.8000000000000003 4.6000000000000005 0.1
      endloop
  endfacet
  facet normal 0.0 0.0 1.0
      outer loop
          vertex 3.7 3.3000000000000003 1
          vertex 2.8000000000000003 4.6000000000000005 1
          vertex 3.0 3.6 1
      endloop
  endfacet
  facet normal 0.8221921916437788 0.5692099788303081 0.0
      outer loop
          vertex 3.7 3.3000000000000003 0.1
          vertex 2.8000000000000003 4.6000000000000005 0.1
          vertex 2.8000000000000003 4.6000000000000005 1
      endloop
  endfacet
  facet normal 0.8221921916437788 0.5692099788303081 -0.0
      outer loop
          vertex 3.7 3.3000000000000003 0.1
          vertex 2.8000000000000003 4.6000000000000005 1
          vertex 3.7 3.3000000000000003 1
      endloop
  endfacet
  facet normal -0.9805806756909202 -0.19611613513818368 0.0
      outer loop
          vertex 2.8000000000000003 4.6000000000000005 0.1
          vertex 3.0 3.6 0.1
          vertex 3.0 3.6 1
      endloop
  endfacet
  facet normal -0.9805806756909202 -0.19611613513818368 0.0
      outer loop
          vertex 2.8000000000000003 4.6000000000000005 0.1
          vertex 3.0 3.6 1
          vertex 2.8000000000000003 4.6000000000000005 1
      endloop
  endfacet
  facet normal -0.39391929857916735 -0.919145030018058 0.0
      outer loop
          vertex 3.0 3.6 0.1
          vertex 3.7 3.3000000000000003 0.1
          vertex 3.7 3.3000000000000003 1
      endloop
  endfacet
  facet normal -0.39391929857916735 -0.919145030018058 0.0
      outer loop
          vertex 3.0 3.6 0.1
          vertex 3.7 3.3000000000000003 1
          vertex 3.0 3.6 1
      endloop
  endfacet
endsolid obstacle
