solid obstacle
  facet normal 0.0 0.0 -1.0
      outer loop
          vertex 1.6 1.4000000000000001 0.01
          vertex 1.5 1.2000000000000002 0.01
          vertex 1.3 1.3 0.01
      endloop
  endfacet
  facet normal 0.0 0.0 1.0
      outer loop
          vertex 1.6 1.4000000000000001 1
          vertex 1.3 1.3 1
          vertex 1.5 1.2000000000000002 1
      endloop
  endfacet
  facet normal -0.3162277660168381 0.9486832980505137 0.0
      outer loop
          vertex 1.6 1.4000000000000001 0.01
          vertex 1.3 1.3 0.01
          vertex 1.3 1.3 1
      endloop
  endfacet
  facet normal -0.3162277660168381 0.9486832980505137 0.0
      outer loop
          vertex 1.6 1.4000000000000001 0.01
          vertex 1.3 1.3 1
          vertex 1.6 1.4000000000000001 1
      endloop
  endfacet
  facet normal -0.44721359549995754 -0.8944271909999161 0.0
      outer loop
          vertex 1.3 1.3 0.01
          vertex 1.5 1.2000000000000002 0.01
          vertex 1.5 1.2000000000000002 1
      endloop
  endfacet
  facet normal -0.44721359549995754 -0.8944271909999161 0.0
      outer loop
          vertex 1.3 1.3 0.01
          vertex 1.5 1.2000000000000002 1
          vertex 1.3 1.3 1
      endloop
  endfacet
  facet normal 0.8944271909999156 -0.4472135954999583 0.0
      outer loop
          vertex 1.5 1.2000000000000002 0.01
          vertex 1.6 1.4000000000000001 0.01
          vertex 1.6 1.4000000000000001 1
      endloop
  endfacet
  facet normal 0.8944271909999156 -0.4472135954999583 0.0
      outer loop
          vertex 1.5 1.2000000000000002 0.01
          vertex 1.6 1.4000000000000001 1
          vertex 1.5 1.2000000000000002 1
      endloop
  endfacet
endsolid obstacle
