solid obstacle
  facet normal 0.0 0.0 -1.0
      outer loop
          vertex 1.2000000000000002 1.9000000000000001 0.01
          vertex 1.5 2.8000000000000003 0.01
          vertex 2.0 3.6 0.01
      endloop
  endfacet
  facet normal 0.0 0.0 1.0
      outer loop
          vertex 1.2000000000000002 1.9000000000000001 1
          vertex 2.0 3.6 1
          vertex 1.5 2.8000000000000003 1
      endloop
  endfacet
  facet normal 0.904818702200994 -0.4257970363298794 0.0
      outer loop
          vertex 1.2000000000000002 1.9000000000000001 0.01
          vertex 2.0 3.6 0.01
          vertex 2.0 3.6 1
      endloop
  endfacet
  facet normal 0.904818702200994 -0.4257970363298794 0.0
      outer loop
          vertex 1.2000000000000002 1.9000000000000001 0.01
          vertex 2.0 3.6 1
          vertex 1.2000000000000002 1.9000000000000001 1
      endloop
  endfacet
  facet normal -0.8479983040050879 0.52999894000318 0.0
      outer loop
          vertex 2.0 3.6 0.01
          vertex 1.5 2.8000000000000003 0.01
          vertex 1.5 2.8000000000000003 1
      endloop
  endfacet
  facet normal -0.8479983040050879 0.52999894000318 0.0
      outer loop
          vertex 2.0 3.6 0.01
          vertex 1.5 2.8000000000000003 1
          vertex 2.0 3.6 1
      endloop
  endfacet
  facet normal -0.948683298050514 0.3162277660168377 0.0
      outer loop
          vertex 1.5 2.8000000000000003 0.01
          vertex 1.2000000000000002 1.9000000000000001 0.01
          vertex 1.2000000000000002 1.9000000000000001 1
      endloop
  endfacet
  facet normal -0.948683298050514 0.3162277660168377 0.0
      outer loop
          vertex 1.5 2.8000000000000003 0.01
          vertex 1.2000000000000002 1.9000000000000001 1
          vertex 1.5 2.8000000000000003 1
      endloop
  endfacet
endsolid obstacle
