solid obstacle
  facet normal 0.0 0.0 -1.0
      outer loop
          vertex 2.2 1.3 0.1
          vertex 1.9000000000000001 0.4 0.1
          vertex 1.2000000000000002 0.9 0.1
      endloop
  endfacet
  facet normal 0.0 0.0 1.0
      outer loop
          vertex 2.2 1.3 1
          vertex 1.2000000000000002 0.9 1
          vertex 1.9000000000000001 0.4 1
      endloop
  endfacet
  facet normal -0.3713906763541037 0.9284766908852592 0.0
      outer loop
          vertex 2.2 1.3 0.1
          vertex 1.2000000000000002 0.9 0.1
          vertex 1.2000000000000002 0.9 1
      endloop
  endfacet
  facet normal -0.3713906763541037 0.9284766908852592 0.0
      outer loop
          vertex 2.2 1.3 0.1
          vertex 1.2000000000000002 0.9 1
          vertex 2.2 1.3 1
      endloop
  endfacet
  facet normal -0.5812381937190964 -0.8137334712067349 0.0
      outer loop
          vertex 1.2000000000000002 0.9 0.1
          vertex 1.9000000000000001 0.4 0.1
          vertex 1.9000000000000001 0.4 1
      endloop
  endfacet
  facet normal -0.5812381937190964 -0.8137334712067349 0.0
      outer loop
          vertex 1.2000000000000002 0.9 0.1
          vertex 1.9000000000000001 0.4 1
          vertex 1.2000000000000002 0.9 1
      endloop
  endfacet
  facet normal 0.9486832980505138 -0.316227766016838 0.0
      outer loop
          vertex 1.9000000000000001 0.4 0.1
          vertex 2.2 1.3 0.1
          vertex 2.2 1.3 1
      endloop
  endfacet
  facet normal 0.9486832980505138 -0.316227766016838 0.0
      outer loop
          vertex 1.9000000000000001 0.4 0.1
          vertex 2.2 1.3 1
          vertex 1.9000000000000001 0.4 1
      endloop
  endfacet
endsolid obstacle
