solid obstacle
  facet normal 0.0 0.0 -1.0
      outer loop
          vertex 1.1 4.3 0.1
          vertex 1.8 4.4 0.1
          vertex 2.3000000000000003 2.7 0.1
      endloop
  endfacet
  facet normal -0.0 0.0 1.0
      outer loop
          vertex 1.1 4.3 1
          vertex 2.3000000000000003 2.7 1
          vertex 1.8 4.4 1
      endloop
  endfacet
  facet normal -0.7999999999999999 -0.6000000000000002 0.0
      outer loop
          vertex 1.1 4.3 0.1
          vertex 2.3000000000000003 2.7 0.1
          vertex 2.3000000000000003 2.7 1
      endloop
  endfacet
  facet normal -0.7999999999999999 -0.6000000000000002 0.0
      outer loop
          vertex 1.1 4.3 0.1
          vertex 2.3000000000000003 2.7 1
          vertex 1.1 4.3 1
      endloop
  endfacet
  facet normal 0.9593655015712705 0.2821663239915503 0.0
      outer loop
          vertex 2.3000000000000003 2.7 0.1
          vertex 1.8 4.4 0.1
          vertex 1.8 4.4 1
      endloop
  endfacet
  facet normal 0.9593655015712705 0.2821663239915503 -0.0
      outer loop
          vertex 2.3000000000000003 2.7 0.1
          vertex 1.8 4.4 1
          vertex 2.3000000000000003 2.7 1
      endloop
  endfacet
  facet normal -0.14142135623731025 0.9899494936611665 0.0
      outer loop
          vertex 1.8 4.4 0.1
          vertex 1.1 4.3 0.1
          vertex 1.1 4.3 1
      endloop
  endfacet
  facet normal -0.14142135623731025 0.9899494936611665 0.0
      outer loop
          vertex 1.8 4.4 0.1
          vertex 1.1 4.3 1
          vertex 1.8 4.4 1
      endloop
  endfacet
endsolid obstacle
