solid obstacle
  facet normal 0.0 0.0 -1.0
      outer loop
          vertex 3.1 3.5 0.1
          vertex 4.7 2.3000000000000003 0.1
          vertex 4.0 2.1 0.1
      endloop
  endfacet
  facet normal 0.0 0.0 -1.0
      outer loop
          vertex 3.1 3.5 0.1
          vertex 3.4000000000000004 3.5 0.1
          vertex 4.7 2.3000000000000003 0.1
      endloop
  endfacet
  facet normal 0.0 0.0 1.0
      outer loop
          vertex 3.1 3.5 1
          vertex 4.0 2.1 1
          vertex 4.7 2.3000000000000003 1
      endloop
  endfacet
  facet normal -0.0 0.0 1.0
      outer loop
          vertex 3.1 3.5 1
          vertex 4.7 2.3000000000000003 1
          vertex 3.4000000000000004 3.5 1
      endloop
  endfacet
  facet normal -0.8411784753765535 -0.5407575913134987 0.0
      outer loop
          vertex 3.1 3.5 0.1
          vertex 4.0 2.1 0.1
          vertex 4.0 2.1 1
      endloop
  endfacet
  facet normal -0.8411784753765535 -0.5407575913134987 0.0
      outer loop
          vertex 3.1 3.5 0.1
          vertex 4.0 2.1 1
          vertex 3.1 3.5 1
      endloop
  endfacet
  facet normal 0.2747211278973782 -0.9615239476408232 0.0
      outer loop
          vertex 4.0 2.1 0.1
          vertex 4.7 2.3000000000000003 0.1
          vertex 4.7 2.3000000000000003 1
      endloop
  endfacet
  facet normal 0.2747211278973782 -0.9615239476408232 0.0
      outer loop
          vertex 4.0 2.1 0.1
          vertex 4.7 2.3000000000000003 1
          vertex 4.0 2.1 1
      endloop
  endfacet
  facet normal 0.6782801027330658 0.7348034446274879 0.0
      outer loop
          vertex 4.7 2.3000000000000003 0.1
          vertex 3.4000000000000004 3.5 0.1
          vertex 3.4000000000000004 3.5 1
      endloop
  endfacet
  facet normal 0.6782801027330658 0.7348034446274879 -0.0
      outer loop
          vertex 4.7 2.3000000000000003 0.1
          vertex 3.4000000000000004 3.5 1
          vertex 4.7 2.3000000000000003 1
      endloop
  endfacet
  facet normal 0.0 1.0 0.0
      outer loop
          vertex 3.4000000000000004 3.5 0.1
          vertex 3.1 3.5 0.1
          vertex 3.1 3.5 1
      endloop
  endfacet
  facet normal 0.0 1.0 -0.0
      outer loop
          vertex 3.4000000000000004 3.5 0.1
          vertex 3.1 3.5 1
          vertex 3.4000000000000004 3.5 1
      endloop
  endfacet
endsolid obstacle
