solid obstacle
  facet normal -0.0 0.0 -1.0
      outer loop
          vertex 1.3 0.9 0.01
          vertex 1.0 0.7000000000000001 0.01
          vertex 1.0 1.1 0.01
      endloop
  endfacet
  facet normal 0.0 0.0 1.0
      outer loop
          vertex 1.3 0.9 1
          vertex 1.0 1.1 1
          vertex 1.0 0.7000000000000001 1
      endloop
  endfacet
  facet normal 0.5547001962252291 0.8320502943378436 0.0
      outer loop
          vertex 1.3 0.9 0.01
          vertex 1.0 1.1 0.01
          vertex 1.0 1.1 1
      endloop
  endfacet
  facet normal 0.5547001962252291 0.8320502943378436 -0.0
      outer loop
          vertex 1.3 0.9 0.01
          vertex 1.0 1.1 1
          vertex 1.3 0.9 1
      endloop
  endfacet
  facet normal -1.0 0.0 0.0
      outer loop
          vertex 1.0 1.1 0.01
          vertex 1.0 0.7000000000000001 0.01
          vertex 1.0 0.7000000000000001 1
      endloop
  endfacet
  facet normal -1.0 0.0 0.0
      outer loop
          vertex 1.0 1.1 0.01
          vertex 1.0 0.7000000000000001 1
          vertex 1.0 1.1 1
      endloop
  endfacet
  facet normal 0.554700196225229 -0.8320502943378438 0.0
      outer loop
          vertex 1.0 0.7000000000000001 0.01
          vertex 1.3 0.9 0.01
          vertex 1.3 0.9 1
      endloop
  endfacet
  facet normal 0.554700196225229 -0.8320502943378438 0.0
      outer loop
          vertex 1.0 0.7000000000000001 0.01
          vertex 1.3 0.9 1
          vertex 1.0 0.7000000000000001 1
      endloop
  endfacet
endsolid obstacle
