solid obstacle
  facet normal 0.0 0.0 -1.0
      outer loop
          vertex 1.2000000000000002 3.3000000000000003 0.1
          vertex 2.5 2.4000000000000004 0.1
          vertex 1.9000000000000001 2.4000000000000004 0.1
      endloop
  endfacet
  facet normal 0.0 0.0 -1.0
      outer loop
          vertex 1.2000000000000002 3.3000000000000003 0.1
          vertex 2.5 3.2 0.1
          vertex 2.5 2.4000000000000004 0.1
      endloop
  endfacet
  facet normal 0.0 0.0 1.0
      outer loop
          vertex 1.2000000000000002 3.3000000000000003 1
          vertex 1.9000000000000001 2.4000000000000004 1
          vertex 2.5 2.4000000000000004 1
      endloop
  endfacet
  facet normal 0.0 0.0 1.0
      outer loop
          vertex 1.2000000000000002 3.3000000000000003 1
          vertex 2.5 2.4000000000000004 1
          vertex 2.5 3.2 1
      endloop
  endfacet
  facet normal -0.7893522173763263 -0.6139406135149205 0.0
      outer loop
          vertex 1.2000000000000002 3.3000000000000003 0.1
          vertex 1.9000000000000001 2.4000000000000004 0.1
          vertex 1.9000000000000001 2.4000000000000004 1
      endloop
  endfacet
  facet normal -0.7893522173763263 -0.6139406135149205 0.0
      outer loop
          vertex 1.2000000000000002 3.3000000000000003 0.1
          vertex 1.9000000000000001 2.4000000000000004 1
          vertex 1.2000000000000002 3.3000000000000003 1
      endloop
  endfacet
  facet normal 0.0 -1.0 0.0
      outer loop
          vertex 1.9000000000000001 2.4000000000000004 0.1
          vertex 2.5 2.4000000000000004 0.1
          vertex 2.5 2.4000000000000004 1
      endloop
  endfacet
  facet normal 0.0 -1.0 0.0
      outer loop
          vertex 1.9000000000000001 2.4000000000000004 0.1
          vertex 2.5 2.4000000000000004 1
          vertex 1.9000000000000001 2.4000000000000004 1
      endloop
  endfacet
  facet normal 1.0 0.0 0.0
      outer loop
          vertex 2.5 2.4000000000000004 0.1
          vertex 2.5 3.2 0.1
          vertex 2.5 3.2 1
      endloop
  endfacet
  facet normal 1.0 0.0 0.0
      outer loop
          vertex 2.5 2.4000000000000004 0.1
          vertex 2.5 3.2 1
          vertex 2.5 2.4000000000000004 1
      endloop
  endfacet
  facet normal 0.07669649888473712 0.9970544855015816 0.0
      outer loop
          vertex 2.5 3.2 0.1
          vertex 1.2000000000000002 3.3000000000000003 0.1
          vertex 1.2000000000000002 3.3000000000000003 1
      endloop
  endfacet
  facet normal 0.07669649888473712 0.9970544855015816 -0.0
      outer loop
          vertex 2.5 3.2 0.1
          vertex 1.2000000000000002 3.3000000000000003 1
          vertex 2.5 3.2 1
      endloop
  endfacet
endsolid obstacle
