solid obstacle
  facet normal 0.0 0.0 -1.0
      outer loop
          vertex 2.9000000000000004 1.1 0.01
          vertex 3.0 1.3 0.01
          vertex 4.4 1.9000000000000001 0.01
      endloop
  endfacet
  facet normal 0.0 0.0 1.0
      outer loop
          vertex 2.9000000000000004 1.1 1
          vertex 4.4 1.9000000000000001 1
          vertex 3.0 1.3 1
      endloop
  endfacet
  facet normal 0.47058823529411764 -0.8823529411764705 0.0
      outer loop
          vertex 2.9000000000000004 1.1 0.01
          vertex 4.4 1.9000000000000001 0.01
          vertex 4.4 1.9000000000000001 1
      endloop
  endfacet
  facet normal 0.47058823529411764 -0.8823529411764705 0.0
      outer loop
          vertex 2.9000000000000004 1.1 0.01
          vertex 4.4 1.9000000000000001 1
          vertex 2.9000000000000004 1.1 1
      endloop
  endfacet
  facet normal -0.39391929857916763 0.9191450300180579 0.0
      outer loop
          vertex 4.4 1.9000000000000001 0.01
          vertex 3.0 1.3 0.01
          vertex 3.0 1.3 1
      endloop
  endfacet
  facet normal -0.39391929857916763 0.9191450300180579 0.0
      outer loop
          vertex 4.4 1.9000000000000001 0.01
          vertex 3.0 1.3 1
          vertex 4.4 1.9000000000000001 1
      endloop
  endfacet
  facet normal -0.8944271909999164 0.4472135954999567 0.0
      outer loop
          vertex 3.0 1.3 0.01
          vertex 2.9000000000000004 1.1 0.01
          vertex 2.9000000000000004 1.1 1
      endloop
  endfacet
  facet normal -0.8944271909999164 0.4472135954999567 0.0
      outer loop
          vertex 3.0 1.3 0.01
          vertex 2.9000000000000004 1.1 1
          vertex 3.0 1.3 1
      endloop
  endfacet
endsolid obstacle
